<svg version="1.1" xmlns="http://www.w3.org/2000/svg" viewBox="0 0 1059 702" width="1059" height="702">
  <!-- svg-source:excalidraw -->
  
  <defs>
    <style class="style-fonts">
      @font-face {
        font-family: "Virgil";
        src: url("https://excalidraw.com/Virgil.woff2");
      }
      @font-face {
        font-family: "Cascadia";
        src: url("https://excalidraw.com/Cascadia.woff2");
      }
      @font-face {
        font-family: "Assistant";
        src: url("https://excalidraw.com/Assistant-Regular.woff2");
      }
    </style>
    
  </defs>
  <g stroke-linecap="round" transform="translate(10 10) rotate(0 519.5 341)"><path d="M32 0 C289.5 3.91, 543.82 2.59, 1007 0 C1028.3 1, 1037.43 10.94, 1039 32 C1040.98 164.41, 1042.08 300.31, 1039 650 C1041.29 674.02, 1031.4 680.24, 1007 682 C651.37 684.59, 293.08 685.36, 32 682 C10.25 678.74, 0 673.12, 0 650 C4.82 405.49, 3.07 161.03, 0 32 C2.97 8.58, 8.69 -3.01, 32 0" stroke="none" stroke-width="0" fill="#ffffff"></path><path d="M32 0 C416.44 -1.39, 801.64 -0.34, 1007 0 M32 0 C330.79 -0.9, 629.68 -1.39, 1007 0 M1007 0 C1027.41 0.3, 1039.1 9.83, 1039 32 M1007 0 C1026.4 -1.26, 1036.76 12.17, 1039 32 M1039 32 C1037.31 259.68, 1037.21 487.44, 1039 650 M1039 32 C1040.13 232.18, 1040.59 432.41, 1039 650 M1039 650 C1037.34 671.07, 1027.19 680.64, 1007 682 M1039 650 C1039.4 669.04, 1026.45 682.45, 1007 682 M1007 682 C799.99 680.79, 593.62 680.34, 32 682 M1007 682 C616.68 683.25, 226.87 683.26, 32 682 M32 682 C10.47 683.33, 0.07 672.46, 0 650 M32 682 C11.62 683.42, 1.03 672.45, 0 650 M0 650 C-2.42 438.32, -2.04 227.08, 0 32 M0 650 C0.13 434.09, -0.43 217.9, 0 32 M0 32 C0.54 11.02, 8.74 0.66, 32 0 M0 32 C-0.74 12.26, 8.92 -1.63, 32 0" stroke="#1e1e1e" stroke-width="2" fill="none"></path></g><g stroke-opacity="0.8" fill-opacity="0.8" stroke-linecap="round" transform="translate(50.95149050287546 47.65948559672461) rotate(0 477.4099764270168 304.6371773007399)"><path d="M0 0 C339.18 -1.65, 676.5 -2.89, 954.82 0 M0 0 C223.37 0.75, 446.35 1.04, 954.82 0 M954.82 0 C956.41 198.12, 956.33 394.88, 954.82 609.27 M954.82 0 C954.98 218.13, 954.97 436.34, 954.82 609.27 M954.82 609.27 C686.27 606.33, 417.62 605.45, 0 609.27 M954.82 609.27 C602.41 607.71, 251.1 607.44, 0 609.27 M0 609.27 C-1.85 414.04, -1.6 218.69, 0 0 M0 609.27 C1.35 454.26, 0.84 298.94, 0 0" stroke="#1e1e1e" stroke-width="1" fill="none"></path></g><g stroke-linecap="round"><g stroke-opacity="0.8" fill-opacity="0.8" transform="translate(191.04772754237547 48.529877531869715) rotate(0 2.175979837862542 304.20198133316734)"><path d="M0 0 C-1.1 140.95, 0.45 281.63, 4.35 608.4 M0 0 C-0.95 240.62, 0.8 480.76, 4.35 608.4" stroke="#1e1e1e" stroke-width="1" fill="none"></path></g></g><mask></mask><g stroke-linecap="round"><g stroke-opacity="0.8" fill-opacity="0.8" transform="translate(334.25455813839653 48.473998504695146) rotate(0 2.175979837862542 304.20198133316734)"><path d="M0 0 C-0.14 147.28, 2.13 294.08, 4.35 608.4 M0 0 C1.59 144.07, 2.64 287.87, 4.35 608.4" stroke="#1e1e1e" stroke-width="1" fill="none"></path></g></g><mask></mask><g stroke-linecap="round"><g stroke-opacity="0.8" fill-opacity="0.8" transform="translate(468.8502129289823 48.51086302353542) rotate(0 2.175979837862542 304.20198133316734)"><path d="M0 0 C2.36 143.81, 2.67 288.89, 4.35 608.4 M0 0 C2.22 237.56, 4.09 475.4, 4.35 608.4" stroke="#1e1e1e" stroke-width="1" fill="none"></path></g></g><mask></mask><g stroke-linecap="round"><g stroke-opacity="0.8" fill-opacity="0.8" transform="translate(608.5386112655829 48.9365517369406) rotate(0 2.175979837862542 304.20198133316734)"><path d="M0 0 C2.46 211.84, 4.15 423.89, 4.35 608.4 M0 0 C2.73 132.89, 3.26 266.5, 4.35 608.4" stroke="#1e1e1e" stroke-width="1" fill="none"></path></g></g><mask></mask><g stroke-linecap="round"><g stroke-opacity="0.8" fill-opacity="0.8" transform="translate(749.5789692779081 48.4918485152009) rotate(0 2.175979837862542 304.20198133316734)"><path d="M0 0 C0.27 200.36, 1.78 401.23, 4.35 608.4 M0 0 C2.01 130.46, 2.98 261.58, 4.35 608.4" stroke="#1e1e1e" stroke-width="1" fill="none"></path></g></g><mask></mask><g stroke-linecap="round"><g stroke-opacity="0.8" fill-opacity="0.8" transform="translate(878.600312781899 48.91753722860631) rotate(0 2.175979837862542 304.20198133316734)"><path d="M0 0 C-0.77 123.9, 0.11 246.54, 4.35 608.4 M0 0 C1.16 227.95, 2.67 456.09, 4.35 608.4" stroke="#1e1e1e" stroke-width="1" fill="none"></path></g></g><mask></mask><g stroke-linecap="round"><g stroke-opacity="0.8" fill-opacity="0.8" transform="translate(51.821882438020566 166.5512210358611) rotate(0 477.8451723945893 0.43519596757255385)"><path d="M0 0 C373.09 -3.31, 746.85 -1.94, 955.69 0.87 M0 0 C321.52 -1.26, 642.8 -1.24, 955.69 0.87" stroke="#1e1e1e" stroke-width="1" fill="none"></path></g></g><mask></mask><g stroke-linecap="round"><g stroke-opacity="0.8" fill-opacity="0.8" transform="translate(50.506787281135985 282.3502129289826) rotate(0 477.84517239458955 0.43519596757255385)"><path d="M0 0 C308.7 0.81, 618.07 1.89, 955.69 0.87 M0 0 C282.41 2.68, 564.25 2.63, 955.69 0.87" stroke="#1e1e1e" stroke-width="1" fill="none"></path></g></g><mask></mask><g stroke-linecap="round"><g stroke-opacity="0.8" fill-opacity="0.8" transform="translate(50.932475994541164 403.66763708152405) rotate(0 477.84517239458955 0.43519596757255385)"><path d="M0 0 C205.69 0.87, 411.01 1.32, 955.69 0.87 M0 0 C342.18 -1.66, 684.61 -1.27, 955.69 0.87" stroke="#1e1e1e" stroke-width="1" fill="none"></path></g></g><mask></mask><g stroke-linecap="round"><g stroke-opacity="0.8" fill-opacity="0.8" transform="translate(50.487772772801236 530.652116066675) rotate(0 477.8451723945893 0.43519596757255385)"><path d="M0 0 C197.84 -0.49, 396.21 0.57, 955.69 0.87 M0 0 C281 -1.66, 561.52 -0.85, 955.69 0.87" stroke="#1e1e1e" stroke-width="1" fill="none"></path></g></g><mask></mask><g stroke-linecap="round"><g stroke-opacity="0.8" fill-opacity="0.8" transform="translate(163.23205013657707 224.3490484311542) rotate(0 35.250873373371405 -3.4815677405798624)"><path d="M0 0 C19.22 -1.59, 40.28 -3.4, 70.5 -6.96 M0 0 C25.14 -1.17, 49.41 -4.47, 70.5 -6.96" stroke="#e03131" stroke-width="2" fill="none"></path></g></g><mask></mask><g stroke-linecap="round"><g stroke-opacity="0.8" fill-opacity="0.8" transform="translate(415.64571132861875 574.2466063594326) rotate(0 185.82867815345116 -61.36263142772043)"><path d="M0 0 C91.69 -28.46, 186.68 -59.16, 371.66 -122.73 M0 0 C118.94 -39.75, 237.35 -78.71, 371.66 -122.73" stroke="#e03131" stroke-width="2" fill="none"></path></g></g><mask></mask><g stroke-linecap="round"><g stroke-opacity="0.8" fill-opacity="0.8" transform="translate(660.2258451043554 187.79258715506535) rotate(0 31.769305632791657 17.40783870289954)"><path d="M0 0 C25.62 14.03, 49.71 28.96, 63.54 34.82 M0 0 C20.37 10.53, 39.15 21.66, 63.54 34.82" stroke="#e03131" stroke-width="2" fill="none"></path></g></g><mask></mask><g stroke-opacity="0.8" fill-opacity="0.8" stroke-linecap="round" transform="translate(157.00969852570734 222.4786564960093) rotate(0 2.901306450483162 2.6111758054348684)"><path d="M2.61 -0.09 C3.11 -0.17, 3.77 -0.11, 4.31 0.21 C4.86 0.53, 5.65 1.28, 5.87 1.85 C6.09 2.41, 5.95 3.07, 5.64 3.61 C5.33 4.15, 4.6 4.77, 3.99 5.07 C3.38 5.36, 2.62 5.5, 2 5.37 C1.38 5.25, 0.62 4.86, 0.26 4.32 C-0.11 3.79, -0.3 2.75, -0.2 2.17 C-0.1 1.59, 0.34 1.2, 0.85 0.82 C1.36 0.45, 2.51 0.02, 2.84 -0.09 C3.17 -0.2, 2.87 0.07, 2.81 0.17 M3.04 -0.25 C3.65 -0.2, 4.27 0.46, 4.66 0.98 C5.05 1.49, 5.25 2.31, 5.36 2.84 C5.47 3.38, 5.7 3.84, 5.34 4.19 C4.98 4.54, 3.77 4.88, 3.2 4.94 C2.63 5.01, 2.42 4.75, 1.9 4.59 C1.39 4.44, 0.45 4.53, 0.11 4.03 C-0.23 3.54, -0.27 2.21, -0.14 1.62 C0 1.02, 0.42 0.71, 0.92 0.48 C1.42 0.26, 2.48 0.4, 2.88 0.27 C3.28 0.14, 3.19 -0.28, 3.32 -0.32" stroke="none" stroke-width="0" fill="#ffc9c9"></path><path d="M2.78 0.04 C3.31 0.03, 4.1 0.12, 4.58 0.49 C5.05 0.86, 5.45 1.72, 5.64 2.25 C5.83 2.78, 6.01 3.16, 5.69 3.66 C5.37 4.16, 4.34 4.98, 3.75 5.26 C3.16 5.53, 2.67 5.5, 2.14 5.31 C1.62 5.11, 0.98 4.59, 0.59 4.1 C0.2 3.62, -0.25 2.99, -0.19 2.42 C-0.12 1.84, 0.44 1.02, 0.97 0.66 C1.5 0.31, 2.73 0.35, 3.01 0.28 C3.3 0.21, 2.71 0.24, 2.67 0.24 M3.39 0.04 C4 0.07, 4.13 0.83, 4.6 1.13 C5.07 1.43, 6.04 1.37, 6.19 1.86 C6.34 2.35, 5.99 3.62, 5.52 4.09 C5.04 4.56, 3.95 4.53, 3.37 4.67 C2.79 4.81, 2.5 5.12, 2.03 4.92 C1.57 4.72, 0.82 3.9, 0.57 3.48 C0.32 3.06, 0.41 2.9, 0.53 2.41 C0.65 1.91, 0.87 0.9, 1.29 0.52 C1.72 0.14, 2.79 0.27, 3.1 0.13 C3.4 -0.01, 3.07 -0.27, 3.13 -0.31" stroke="#c2255c" stroke-width="2" fill="none"></path></g><g stroke-opacity="0.8" fill-opacity="0.8" stroke-linecap="round" transform="translate(233.00969852570734 214.4786564960093) rotate(0 2.901306450483162 2.6111758054348684)"><path d="M2.6 -0.07 C3.26 -0.12, 4.41 -0.08, 4.99 0.29 C5.56 0.66, 5.92 1.58, 6.05 2.15 C6.18 2.73, 6.1 3.22, 5.75 3.73 C5.4 4.24, 4.62 5.01, 3.94 5.2 C3.25 5.39, 2.21 5.04, 1.65 4.87 C1.09 4.7, 0.86 4.64, 0.57 4.2 C0.29 3.75, -0.06 2.79, -0.03 2.21 C0 1.63, 0.26 1.03, 0.76 0.71 C1.25 0.39, 2.6 0.37, 2.92 0.29 C3.25 0.21, 2.7 0.24, 2.7 0.24 M2.75 0.41 C3.3 0.32, 4.31 0.42, 4.89 0.74 C5.47 1.07, 6.14 1.93, 6.23 2.37 C6.31 2.81, 5.75 3.01, 5.4 3.4 C5.05 3.8, 4.64 4.55, 4.11 4.75 C3.58 4.95, 2.9 4.68, 2.24 4.6 C1.58 4.52, 0.46 4.65, 0.15 4.29 C-0.16 3.93, 0.24 3.1, 0.38 2.44 C0.51 1.78, 0.61 0.79, 0.95 0.3 C1.29 -0.19, 2.11 -0.41, 2.43 -0.5 C2.76 -0.59, 2.81 -0.42, 2.9 -0.22" stroke="none" stroke-width="0" fill="#ffc9c9"></path><path d="M2.94 0 C3.57 -0.03, 4.29 0.15, 4.71 0.51 C5.14 0.86, 5.41 1.57, 5.5 2.15 C5.59 2.74, 5.54 3.51, 5.24 4.01 C4.94 4.51, 4.27 5.02, 3.71 5.15 C3.14 5.29, 2.38 4.99, 1.85 4.8 C1.32 4.62, 0.81 4.46, 0.54 4.03 C0.27 3.59, 0.16 2.73, 0.24 2.19 C0.32 1.66, 0.63 1.14, 1.03 0.82 C1.44 0.5, 2.32 0.45, 2.65 0.27 C2.99 0.1, 3.04 -0.22, 3.07 -0.24 M2.21 0.4 C2.87 0.3, 4.16 0.28, 4.68 0.5 C5.2 0.72, 5.14 1.25, 5.33 1.73 C5.52 2.2, 6.05 2.76, 5.83 3.36 C5.61 3.97, 4.66 5.11, 4 5.36 C3.35 5.62, 2.54 5.09, 1.9 4.89 C1.25 4.68, 0.51 4.53, 0.14 4.16 C-0.23 3.78, -0.47 3.27, -0.34 2.64 C-0.21 2.01, 0.37 0.85, 0.94 0.38 C1.5 -0.1, 2.78 -0.23, 3.05 -0.23 C3.33 -0.22, 2.66 0.3, 2.61 0.4" stroke="#c2255c" stroke-width="2" fill="none"></path></g><g stroke-opacity="0.8" fill-opacity="0.8" stroke-linecap="round" transform="translate(653.964299978989 182.69984360905073) rotate(0 2.901306450483162 2.6111758054348684)"><path d="M2.36 0.12 C3 0.05, 4.18 0.22, 4.72 0.46 C5.26 0.71, 5.42 1.1, 5.59 1.59 C5.76 2.07, 5.97 2.78, 5.74 3.36 C5.51 3.94, 4.77 4.76, 4.21 5.07 C3.66 5.38, 2.96 5.37, 2.39 5.22 C1.81 5.08, 1.17 4.67, 0.78 4.22 C0.38 3.76, 0 3.07, 0.04 2.48 C0.08 1.88, 0.56 1.07, 1.02 0.65 C1.49 0.23, 2.58 0.07, 2.83 -0.05 C3.09 -0.18, 2.64 -0.18, 2.57 -0.11 M3.46 0.48 C3.97 0.69, 4.29 1.03, 4.69 1.37 C5.08 1.72, 5.83 2.12, 5.84 2.55 C5.86 2.98, 5.13 3.46, 4.79 3.95 C4.45 4.44, 4.42 5.39, 3.8 5.48 C3.18 5.57, 1.63 4.8, 1.05 4.5 C0.47 4.21, 0.46 4.09, 0.33 3.7 C0.2 3.3, 0.14 2.64, 0.26 2.12 C0.38 1.6, 0.58 0.87, 1.08 0.56 C1.58 0.26, 2.91 0.29, 3.27 0.28 C3.63 0.28, 3.19 0.5, 3.22 0.53" stroke="none" stroke-width="0" fill="#ffc9c9"></path><path d="M3.19 0.02 C3.8 -0.03, 4.83 0.13, 5.23 0.58 C5.63 1.03, 5.56 2.11, 5.59 2.71 C5.62 3.31, 5.76 3.8, 5.41 4.17 C5.06 4.54, 4.12 4.81, 3.48 4.93 C2.84 5.06, 2.08 5.19, 1.58 4.91 C1.08 4.64, 0.7 3.81, 0.49 3.29 C0.28 2.78, 0.19 2.32, 0.34 1.83 C0.5 1.33, 0.88 0.58, 1.43 0.33 C1.98 0.08, 3.33 0.32, 3.65 0.33 C3.97 0.33, 3.38 0.35, 3.35 0.36 M2.92 0.18 C3.41 0.28, 4.41 0.81, 4.81 1.17 C5.21 1.52, 5.2 1.73, 5.31 2.3 C5.42 2.87, 5.74 4.13, 5.46 4.61 C5.18 5.08, 4.38 5.17, 3.65 5.15 C2.93 5.13, 1.79 4.75, 1.13 4.5 C0.47 4.24, -0.1 4.04, -0.31 3.61 C-0.52 3.17, -0.47 2.4, -0.12 1.88 C0.24 1.36, 1.18 0.79, 1.84 0.51 C2.5 0.23, 3.65 0.34, 3.86 0.22 C4.06 0.1, 3.1 -0.16, 3.07 -0.2" stroke="#c2255c" stroke-width="2" fill="none"></path></g><g stroke-opacity="0.8" fill-opacity="0.8" stroke-linecap="round" transform="translate(722.964299978989 221.69984360905073) rotate(0 2.901306450483162 2.6111758054348684)"><path d="M2.83 0.14 C3.4 0.12, 4.34 0.47, 4.82 0.88 C5.29 1.29, 5.58 2.06, 5.68 2.6 C5.77 3.15, 5.72 3.75, 5.39 4.16 C5.05 4.57, 4.3 4.87, 3.67 5.04 C3.04 5.22, 2.21 5.42, 1.61 5.21 C1.02 5, 0.3 4.24, 0.1 3.76 C-0.11 3.28, 0.2 2.85, 0.4 2.31 C0.61 1.77, 0.91 0.94, 1.33 0.52 C1.74 0.09, 2.55 -0.15, 2.89 -0.25 C3.24 -0.35, 3.32 -0.23, 3.38 -0.09 M2.73 -0.38 C3.29 -0.37, 3.94 0.53, 4.51 0.99 C5.09 1.45, 5.97 1.96, 6.17 2.37 C6.38 2.78, 6.14 2.93, 5.73 3.45 C5.32 3.97, 4.38 5.17, 3.74 5.49 C3.09 5.81, 2.37 5.63, 1.87 5.35 C1.37 5.07, 1.04 4.34, 0.74 3.83 C0.45 3.32, 0.12 2.84, 0.1 2.29 C0.07 1.75, 0.22 0.92, 0.62 0.55 C1.02 0.19, 2.12 0.13, 2.49 0.08 C2.86 0.04, 2.71 0.18, 2.84 0.27" stroke="none" stroke-width="0" fill="#ffc9c9"></path><path d="M3.25 0.1 C3.93 0.08, 4.76 0.45, 5.15 0.78 C5.53 1.1, 5.5 1.53, 5.57 2.03 C5.65 2.53, 5.87 3.24, 5.61 3.78 C5.35 4.32, 4.69 5.08, 4.02 5.27 C3.35 5.46, 2.23 5.2, 1.6 4.93 C0.97 4.66, 0.46 4.11, 0.22 3.67 C-0.02 3.24, 0 2.86, 0.15 2.33 C0.3 1.8, 0.7 0.84, 1.13 0.48 C1.56 0.12, 2.47 0.24, 2.74 0.17 C3.02 0.1, 2.7 0.01, 2.76 0.05 M3.05 0.01 C3.65 -0.06, 4.7 0.04, 5.2 0.4 C5.71 0.75, 6.09 1.59, 6.08 2.15 C6.07 2.71, 5.57 3.23, 5.14 3.74 C4.7 4.24, 3.94 4.96, 3.47 5.19 C3 5.42, 2.91 5.3, 2.32 5.09 C1.72 4.88, 0.18 4.49, -0.13 3.92 C-0.43 3.34, 0.23 2.2, 0.51 1.65 C0.79 1.09, 1.16 0.93, 1.57 0.6 C1.98 0.26, 2.77 -0.32, 2.96 -0.35 C3.14 -0.38, 2.62 0.39, 2.68 0.43" stroke="#c2255c" stroke-width="2" fill="none"></path></g><g stroke-opacity="0.8" fill-opacity="0.8" stroke-linecap="round" transform="translate(787.964299978989 446.69984360905073) rotate(0 2.901306450483162 2.6111758054348684)"><path d="M3.03 0.09 C3.54 0.09, 4.24 0.58, 4.74 0.97 C5.23 1.36, 5.97 1.86, 6.01 2.43 C6.06 3, 5.41 3.9, 4.99 4.4 C4.57 4.9, 3.98 5.36, 3.49 5.42 C3 5.47, 2.58 4.98, 2.04 4.75 C1.49 4.53, 0.55 4.56, 0.24 4.06 C-0.08 3.55, -0.04 2.28, 0.13 1.72 C0.31 1.15, 0.78 1, 1.31 0.68 C1.84 0.36, 2.98 -0.13, 3.33 -0.21 C3.68 -0.29, 3.45 0.11, 3.4 0.19 M3.42 -0.18 C4.06 -0.12, 4.98 0.84, 5.39 1.24 C5.79 1.63, 5.9 1.65, 5.85 2.19 C5.81 2.73, 5.41 4.02, 5.12 4.48 C4.82 4.94, 4.56 4.78, 4.06 4.94 C3.57 5.1, 2.71 5.72, 2.13 5.43 C1.55 5.15, 0.9 3.88, 0.57 3.25 C0.24 2.62, 0.01 2.07, 0.15 1.67 C0.28 1.28, 0.96 1.13, 1.4 0.88 C1.83 0.62, 2.39 0.29, 2.74 0.16 C3.1 0.02, 3.5 0.04, 3.52 0.07" stroke="none" stroke-width="0" fill="#ffc9c9"></path><path d="M3.01 0.12 C3.58 0.21, 4.63 0.54, 5.14 0.9 C5.65 1.25, 6.02 1.71, 6.05 2.24 C6.09 2.78, 5.74 3.64, 5.35 4.11 C4.96 4.58, 4.29 4.9, 3.71 5.05 C3.14 5.2, 2.44 5.25, 1.88 5 C1.32 4.75, 0.65 4.11, 0.34 3.56 C0.04 3.01, -0.14 2.26, 0.06 1.7 C0.25 1.14, 0.99 0.43, 1.53 0.21 C2.06 -0.02, 2.92 0.34, 3.27 0.35 C3.62 0.36, 3.63 0.29, 3.63 0.24 M2.77 0.51 C3.28 0.45, 3.89 0.21, 4.38 0.41 C4.88 0.62, 5.59 1.24, 5.73 1.75 C5.86 2.25, 5.37 2.83, 5.2 3.43 C5.02 4.04, 5.1 5.03, 4.66 5.36 C4.22 5.7, 3.29 5.67, 2.55 5.43 C1.8 5.2, 0.54 4.47, 0.19 3.96 C-0.16 3.45, 0.32 2.84, 0.46 2.37 C0.6 1.9, 0.71 1.53, 1.03 1.15 C1.35 0.77, 2.12 0.32, 2.38 0.09 C2.64 -0.15, 2.59 -0.26, 2.6 -0.28" stroke="#c2255c" stroke-width="2" fill="none"></path></g><g stroke-opacity="0.8" fill-opacity="0.8" stroke-linecap="round" transform="translate(409.96429997898895 572.6998436090507) rotate(0 2.901306450483162 2.6111758054348684)"><path d="M2.45 0.21 C3.13 0.11, 4.21 0.45, 4.71 0.7 C5.22 0.94, 5.32 1.13, 5.46 1.67 C5.59 2.21, 5.7 3.36, 5.52 3.94 C5.34 4.53, 4.93 4.95, 4.37 5.17 C3.81 5.4, 2.8 5.44, 2.15 5.29 C1.5 5.14, 0.82 4.73, 0.46 4.27 C0.1 3.81, -0.03 3.1, -0.01 2.55 C0.01 2, 0.15 1.38, 0.58 0.97 C1.01 0.56, 2.23 0.2, 2.54 0.1 C2.86 0, 2.4 0.32, 2.46 0.37 M2.97 0.04 C3.64 0.12, 5.12 0.73, 5.54 1.06 C5.96 1.39, 5.6 1.44, 5.52 2.03 C5.43 2.63, 5.34 4.04, 5.01 4.64 C4.69 5.23, 4.2 5.5, 3.57 5.58 C2.93 5.66, 1.68 5.4, 1.18 5.1 C0.67 4.8, 0.78 4.36, 0.55 3.77 C0.33 3.18, -0.23 2.16, -0.17 1.56 C-0.1 0.95, 0.3 0.46, 0.95 0.13 C1.59 -0.19, 3.37 -0.38, 3.71 -0.4 C4.06 -0.43, 3.04 -0.08, 3.03 -0.01" stroke="none" stroke-width="0" fill="#ffc9c9"></path><path d="M2.58 -0.18 C3.11 -0.24, 3.89 0.09, 4.46 0.46 C5.03 0.84, 5.78 1.62, 6 2.1 C6.23 2.57, 6.08 2.85, 5.81 3.32 C5.54 3.78, 4.98 4.57, 4.38 4.91 C3.78 5.25, 2.85 5.42, 2.2 5.34 C1.55 5.27, 0.83 4.92, 0.5 4.48 C0.17 4.04, 0.18 3.31, 0.22 2.7 C0.26 2.09, 0.35 1.26, 0.73 0.82 C1.12 0.39, 2.14 0.19, 2.51 0.11 C2.88 0.03, 2.9 0.33, 2.93 0.36 M3.15 -0.05 C3.76 -0.11, 4.4 0.23, 4.92 0.58 C5.44 0.93, 6.31 1.52, 6.29 2.07 C6.27 2.62, 5.27 3.31, 4.8 3.86 C4.33 4.4, 3.97 5.09, 3.49 5.33 C3.01 5.58, 2.42 5.57, 1.92 5.34 C1.42 5.11, 0.79 4.58, 0.47 3.98 C0.15 3.37, -0.12 2.26, 0.01 1.69 C0.15 1.13, 0.8 0.85, 1.29 0.6 C1.79 0.35, 2.74 0.3, 3.01 0.19 C3.28 0.07, 2.97 -0.18, 2.93 -0.1" stroke="#c2255c" stroke-width="2" fill="none"></path></g><g stroke-opacity="0.8" fill-opacity="0.8" transform="translate(199.259246625973 187.78819179038805) rotate(0 6.566666603088379 12.5)"><text x="0" y="17.52" font-family="Virgil, Segoe UI Emoji" font-size="20px" fill="#c2255c" text-anchor="start" style="white-space: pre;" direction="ltr" dominant-baseline="alphabetic">A</text></g><g stroke-opacity="0.8" fill-opacity="0.8" transform="translate(494.92203377954684 559.3975809666639) rotate(0 7.266666889190674 12.5)"><text x="0" y="17.52" font-family="Virgil, Segoe UI Emoji" font-size="20px" fill="#c2255c" text-anchor="start" style="white-space: pre;" direction="ltr" dominant-baseline="alphabetic">B</text></g><g stroke-opacity="0.8" fill-opacity="0.8" transform="translate(669.7606813515486 207.78819179038805) rotate(0 6.433333396911621 12.5)"><text x="0" y="17.52" font-family="Virgil, Segoe UI Emoji" font-size="20px" fill="#c2255c" text-anchor="start" style="white-space: pre;" direction="ltr" dominant-baseline="alphabetic">C</text></g></svg>