<svg version="1.1" xmlns="http://www.w3.org/2000/svg" viewBox="0 0 656 498" width="1968" height="1494">
  <!-- svg-source:excalidraw -->
  
  <defs>
    <style class="style-fonts">
      @font-face {
        font-family: "Virgil";
        src: url("https://excalidraw.com/Virgil.woff2");
      }
      @font-face {
        font-family: "Cascadia";
        src: url("https://excalidraw.com/Cascadia.woff2");
      }
      @font-face {
        font-family: "Assistant";
        src: url("https://excalidraw.com/Assistant-Regular.woff2");
      }
    </style>
    
  </defs>
  <g stroke-linecap="round" transform="translate(10 10) rotate(0 318 239)"><path d="M32 0 C203.26 2.62, 373.75 2.88, 604 0 C626.91 3.01, 632.93 13.81, 636 32 C633.54 170.15, 630.34 303.36, 636 446 C637.96 469.32, 623.71 478, 604 478 C409.72 476.55, 213.01 477.81, 32 478 C7.57 475.17, 3.18 469.9, 0 446 C-0.58 323.4, -0.15 201.4, 0 32 C-3.36 8.31, 7.99 3.49, 32 0" stroke="none" stroke-width="0" fill="#ffffff"></path><path d="M32 0 C229.33 2.4, 428.29 2.63, 604 0 M32 0 C256.01 -2.02, 479.64 -2.05, 604 0 M604 0 C624.83 -0.99, 635.51 9.16, 636 32 M604 0 C623.75 1.13, 635.38 8.65, 636 32 M636 32 C635.12 176.43, 634.12 318.72, 636 446 M636 32 C636.18 151.04, 635.78 270.08, 636 446 M636 446 C637.05 468.59, 624.57 477.79, 604 478 M636 446 C636.58 466.02, 625.5 477.29, 604 478 M604 478 C442.89 480.61, 283.43 480.82, 32 478 M604 478 C395.28 477.34, 186.97 477.05, 32 478 M32 478 C12.29 476.9, -1.1 465.86, 0 446 M32 478 C11.29 475.91, 0.56 468.49, 0 446 M0 446 C-0.67 351.35, -0.22 254.38, 0 32 M0 446 C0.54 300.5, 0.36 154.46, 0 32 M0 32 C-0.72 12.57, 10.25 -1.26, 32 0 M0 32 C-2.11 9.23, 10.14 -1.88, 32 0" stroke="#1e1e1e" stroke-width="2" fill="none"></path></g><g mask="url(#mask-vvjnS3Rh4Pdc7Vgmf63ko)" stroke-linecap="round"><g transform="translate(319.82114962313597 364.0019937941738) rotate(0 94.29077196338625 0)"><path d="M0.92 0.03 C32.42 0.09, 157.67 -0.47, 188.78 -0.37 M-0.05 -1 C31.33 -0.7, 156.27 1.04, 187.93 0.97" stroke="#1e1e1e" stroke-width="2" fill="none"></path></g><g transform="translate(319.82114962313597 364.0019937941738) rotate(0 94.29077196338625 0)"><path d="M164.38 9.36 C171.1 7.15, 177.05 2.74, 187.93 0.97 M164.38 9.36 C173.03 7.44, 180.03 3.53, 187.93 0.97" stroke="#1e1e1e" stroke-width="2" fill="none"></path></g><g transform="translate(319.82114962313597 364.0019937941738) rotate(0 94.29077196338625 0)"><path d="M164.5 -7.74 C171.08 -5.15, 176.99 -4.75, 187.93 0.97 M164.5 -7.74 C173.12 -3.66, 180.08 -1.58, 187.93 0.97" stroke="#1e1e1e" stroke-width="2" fill="none"></path></g></g><mask id="mask-vvjnS3Rh4Pdc7Vgmf63ko"><rect x="0" y="0" fill="#fff" width="608.4026935499083" height="574.0019937941738"></rect><rect x="404.33095044358254" y="349.4402686941039" fill="#000" width="19.561942285879113" height="29.12345020013985" opacity="1"></rect></mask><g transform="translate(404.33095044358265 349.4402686941039) rotate(0 9.852440900347403 14.551061592708948)"><text x="9.780971142939556" y="20.409713900258005" font-family="Virgil, Segoe UI Emoji" font-size="23.29876016011188px" fill="#1e1e1e" text-anchor="middle" style="white-space: pre;" direction="ltr" dominant-baseline="alphabetic">d1</text></g><g mask="url(#mask-qdUq-_dOOA5BLGJsCqTBb)" stroke-linecap="round"><g transform="translate(520.7843100703533 329.71444035294235) rotate(0 -0.9524320400341821 -81.43293942292445)"><path d="M1 0.43 C1.07 -26.61, -0.47 -135.23, -0.8 -162.43 M0.07 -0.38 C0.18 -27.78, -0.94 -137.49, -1.17 -164.32" stroke="#1e1e1e" stroke-width="2" fill="none"></path></g><g transform="translate(520.7843100703533 329.71444035294235) rotate(0 -0.9524320400341821 -81.43293942292445)"><path d="M7.6 -140.91 C6.59 -143.69, 4.84 -148.72, -1.17 -164.32 M7.6 -140.91 C4.55 -147.4, 2.91 -156.16, -1.17 -164.32" stroke="#1e1e1e" stroke-width="2" fill="none"></path></g><g transform="translate(520.7843100703533 329.71444035294235) rotate(0 -0.9524320400341821 -81.43293942292445)"><path d="M-9.5 -140.75 C-7.07 -143.71, -5.39 -148.77, -1.17 -164.32 M-9.5 -140.75 C-7.24 -147.44, -3.58 -156.24, -1.17 -164.32" stroke="#1e1e1e" stroke-width="2" fill="none"></path></g></g><mask id="mask-qdUq-_dOOA5BLGJsCqTBb"><rect x="0" y="0" fill="#fff" width="622.6891741504216" height="592.5803191987912"></rect><rect x="504.91688817976865" y="233.71977582994805" fill="#000" width="29.829979701100765" height="29.12345020013985" opacity="1"></rect></mask><g transform="translate(504.91688817976865 233.71977582994805) rotate(0 15.786894868921422 14.05246451326235)"><text x="14.914989850550382" y="20.409713900258005" font-family="Virgil, Segoe UI Emoji" font-size="23.29876016011188px" fill="#1e1e1e" text-anchor="middle" style="white-space: pre;" direction="ltr" dominant-baseline="alphabetic">d2</text></g><g mask="url(#mask-iYnMIC7irLlZp_ckQsoA-)" stroke-linecap="round"><g transform="translate(489.35405274922437 138.3565018420735) rotate(0 -84.29023554302705 -1.0861882823863596)"><path d="M-0.62 -1.16 C-28.59 -1.37, -139.88 -1.58, -167.98 -1.64 M1.26 0.85 C-26.8 0.32, -140.02 -2.76, -168.62 -3.49" stroke="#1e1e1e" stroke-width="2" fill="none"></path></g><g transform="translate(489.35405274922437 138.3565018420735) rotate(0 -84.29023554302705 -1.0861882823863596)"><path d="M-144.91 -11.42 C-153.66 -8.28, -157.64 -8.1, -168.62 -3.49 M-144.91 -11.42 C-152.42 -9.4, -162.46 -5.7, -168.62 -3.49" stroke="#1e1e1e" stroke-width="2" fill="none"></path></g><g transform="translate(489.35405274922437 138.3565018420735) rotate(0 -84.29023554302705 -1.0861882823863596)"><path d="M-145.36 5.68 C-153.92 3.93, -157.77 -0.8, -168.62 -3.49 M-145.36 5.68 C-152.55 1.67, -162.43 -0.66, -168.62 -3.49" stroke="#1e1e1e" stroke-width="2" fill="none"></path></g></g><mask id="mask-iYnMIC7irLlZp_ckQsoA-"><rect x="0" y="0" fill="#fff" width="757.9345238352785" height="348.3565018420735"></rect><rect x="390.50654609225876" y="122.7085884596172" fill="#000" width="29.114542227877042" height="29.12345020013985" opacity="1"></rect></mask><g transform="translate(390.50654609225876 122.7085884596172) rotate(0 15.167784377953865 14.327492383435072)"><text x="14.557271113938521" y="20.409713900258005" font-family="Virgil, Segoe UI Emoji" font-size="23.29876016011188px" fill="#1e1e1e" text-anchor="middle" style="white-space: pre;" direction="ltr" dominant-baseline="alphabetic">d3</text></g><g mask="url(#mask-Utb7sfVftWIXi2NJWjRRp)" stroke-linecap="round"><g transform="translate(296.96278066231525 161.51680935494863) rotate(0 0 86.87141266158793)"><path d="M1.14 0.55 C1.3 29.48, 1.3 145.03, 1.16 173.97 M0.27 -0.21 C0.37 28.3, 0.92 143.24, 0.82 171.97" stroke="#1e1e1e" stroke-width="2" fill="none"></path></g><g transform="translate(296.96278066231525 161.51680935494863) rotate(0 0 86.87141266158793)"><path d="M-7.76 148.49 C-4.08 157.68, -1.94 163.55, 0.82 171.97 M-7.76 148.49 C-4.51 156.68, -1.42 163.77, 0.82 171.97" stroke="#1e1e1e" stroke-width="2" fill="none"></path></g><g transform="translate(296.96278066231525 161.51680935494863) rotate(0 0 86.87141266158793)"><path d="M9.34 148.46 C7.67 157.82, 4.47 163.7, 0.82 171.97 M9.34 148.46 C6.78 156.58, 4.06 163.67, 0.82 171.97" stroke="#1e1e1e" stroke-width="2" fill="none"></path></g></g><mask id="mask-Utb7sfVftWIXi2NJWjRRp"><rect x="0" y="0" fill="#fff" width="396.96278066231525" height="435.2596346781245"></rect><rect x="282.8783702529586" y="233.82649691646662" fill="#000" width="28.168820818713204" height="29.12345020013985" opacity="1"></rect></mask><g transform="translate(282.8783702529587 233.82649691646668) rotate(0 14.854140421834472 14.571442950755)"><text x="14.084410409356602" y="20.409713900258005" font-family="Virgil, Segoe UI Emoji" font-size="23.29876016011188px" fill="#1e1e1e" text-anchor="middle" style="white-space: pre;" direction="ltr" dominant-baseline="alphabetic">d4</text></g><g stroke-linecap="round"><g transform="translate(333.1551981836151 150.6572168265119) rotate(0 -11.905400500427561 13.334048560478863)"><path d="M0.92 0.92 C0.01 4.27, -1.35 14.76, -5.36 19.07 C-9.37 23.38, -20.08 25.51, -23.13 26.77 M-0.06 0.36 C-1.11 4, -2.21 15.99, -6.12 20.62 C-10.04 25.25, -20.67 26.96, -23.53 28.15" stroke="#228be6" stroke-width="2" fill="none"></path></g><g transform="translate(333.1551981836151 150.6572168265119) rotate(0 -11.905400500427561 13.334048560478863)"><path d="M-15.65 22.3 C-17.38 24.45, -20.55 26.53, -23.53 28.15 M-15.65 22.3 C-18.55 24.23, -20.3 25.77, -23.53 28.15" stroke="#228be6" stroke-width="2" fill="none"></path></g><g transform="translate(333.1551981836151 150.6572168265119) rotate(0 -11.905400500427561 13.334048560478863)"><path d="M-13.73 28.73 C-16 28.92, -19.76 29.01, -23.53 28.15 M-13.73 28.73 C-17.24 28.68, -19.58 28.23, -23.53 28.15" stroke="#228be6" stroke-width="2" fill="none"></path></g></g><mask></mask><g stroke-linecap="round"><g transform="translate(314.1065573829309 327.809576272874) rotate(0 15.715128660564346 13.334048560478834)"><path d="M-0.99 0.85 C3.17 2.15, 19.18 3.66, 24.53 7.77 C29.88 11.88, 29.98 22.4, 31.11 25.52 M0.69 0.25 C4.8 1.25, 19.05 1.89, 23.96 6.22 C28.88 10.56, 28.93 22.7, 30.17 26.24" stroke="#228be6" stroke-width="2" fill="none"></path></g><g transform="translate(314.1065573829309 327.809576272874) rotate(0 15.715128660564346 13.334048560478834)"><path d="M24.7 17.04 C26.89 20.14, 28.55 21.62, 30.17 26.24 M24.7 17.04 C26.07 18.47, 26.4 20.6, 30.17 26.24" stroke="#228be6" stroke-width="2" fill="none"></path></g><g transform="translate(314.1065573829309 327.809576272874) rotate(0 15.715128660564346 13.334048560478834)"><path d="M31.89 15.68 C32.2 19.08, 31.97 20.92, 30.17 26.24 M31.89 15.68 C31.78 17.38, 30.65 19.79, 30.17 26.24" stroke="#228be6" stroke-width="2" fill="none"></path></g></g><mask></mask><g stroke-linecap="round"><g transform="translate(480.7821643889167 346.85821707355785) rotate(0 12.8578325404618 -15.715128660564346)"><path d="M-0.45 1.14 C0.51 -2.63, 1 -17.63, 5.18 -23.25 C9.37 -28.87, 21.27 -31.2, 24.65 -32.57 M1.52 0.7 C2.4 -2.85, 0.21 -16.49, 4.46 -21.92 C8.7 -27.34, 23.46 -30.44, 26.98 -31.86" stroke="#228be6" stroke-width="2" fill="none"></path></g><g transform="translate(480.7821643889167 346.85821707355785) rotate(0 12.8578325404618 -15.715128660564346)"><path d="M17.98 -25 C21.37 -26.31, 22.21 -29.45, 26.98 -31.86 M17.98 -25 C20.19 -26.74, 22.16 -27.57, 26.98 -31.86" stroke="#228be6" stroke-width="2" fill="none"></path></g><g transform="translate(480.7821643889167 346.85821707355785) rotate(0 12.8578325404618 -15.715128660564346)"><path d="M15.68 -32.39 C19.62 -31.82, 21.04 -33.08, 26.98 -31.86 M15.68 -32.39 C18.35 -32.62, 20.78 -31.94, 26.98 -31.86" stroke="#228be6" stroke-width="2" fill="none"></path></g></g><mask></mask><g stroke-linecap="round"><g transform="translate(499.8308051896006 194.46909066808524) rotate(0 -13.334048560478891 -20.95350488075249)"><path d="M1.17 0.68 C-2.85 -1.2, -20.05 -4.25, -24.74 -11.49 C-29.44 -18.74, -26.57 -37.9, -27 -42.79 M0.32 0 C-3.27 -2.19, -17.81 -6.16, -22.52 -13.15 C-27.23 -20.14, -27.12 -36.98, -27.94 -41.94" stroke="#228be6" stroke-width="2" fill="none"></path></g><g transform="translate(499.8308051896006 194.46909066808524) rotate(0 -13.334048560478891 -20.95350488075249)"><path d="M-21.63 -28.52 C-22.32 -32.92, -23.62 -35.48, -27.94 -41.94 M-21.63 -28.52 C-22.63 -31.58, -23.78 -35.23, -27.94 -41.94" stroke="#228be6" stroke-width="2" fill="none"></path></g><g transform="translate(499.8308051896006 194.46909066808524) rotate(0 -13.334048560478891 -20.95350488075249)"><path d="M-31.73 -27.6 C-29.93 -32.33, -28.74 -35.12, -27.94 -41.94 M-31.73 -27.6 C-30.44 -30.96, -29.3 -34.82, -27.94 -41.94" stroke="#228be6" stroke-width="2" fill="none"></path></g></g><mask></mask><g stroke-linecap="round" transform="translate(83.90724128493571 266.71432868938973) rotate(0 8.673771462607249 8.104924443007008)"><path d="M2.1 3.15 C2.1 3.15, 2.1 3.15, 2.1 3.15 M2.1 3.15 C2.1 3.15, 2.1 3.15, 2.1 3.15 M1.18 10.3 C4.11 6.91, 7.08 3.51, 9.06 1.25 M1.18 10.3 C4.13 6.98, 7.04 3.25, 9.06 1.25 M2.89 14.44 C4.74 10.7, 7.78 8.31, 13.39 2.36 M2.89 14.44 C7.14 9.86, 11.04 5.27, 13.39 2.36 M6.56 16.31 C9.16 13.56, 11.13 10.72, 17.06 4.23 M6.56 16.31 C9.82 12.42, 13.13 9.22, 17.06 4.23 M12.86 15.16 C14.88 12.84, 16.7 11.02, 17.46 9.87 M12.86 15.16 C13.9 13.91, 15.18 12.46, 17.46 9.87 M1.48 13.54 C1.48 13.54, 1.48 13.54, 1.48 13.54 M1.48 13.54 C1.48 13.54, 1.48 13.54, 1.48 13.54 M10.14 15.77 C7.04 13.5, 4.5 11.09, 0.33 7.24 M10.14 15.77 C8.12 13.62, 5.76 12.09, 0.33 7.24 M14.28 14.06 C8.79 10.54, 4.05 5.3, 2.2 3.57 M14.28 14.06 C10.84 11.4, 7.86 8.05, 2.2 3.57 M16.9 11.04 C13.81 8.16, 10.62 5.66, 5.58 1.2 M16.9 11.04 C12.91 7.17, 8.45 3.9, 5.58 1.2 M17.26 6.06 C15.4 3.74, 12.98 1.94, 10.47 0.15 M17.26 6.06 C14.71 3.63, 11.92 1.65, 10.47 0.15" stroke="#d0bfff" stroke-width="0.5" fill="none"></path><path d="M6.55 0.53 C8.19 0.18, 10.6 0.71, 12.37 1.42 C14.14 2.13, 16.34 3.24, 17.17 4.79 C18 6.35, 17.94 9.08, 17.35 10.73 C16.77 12.38, 15.36 13.76, 13.67 14.69 C11.99 15.62, 9.25 16.45, 7.26 16.3 C5.27 16.15, 2.96 15.04, 1.76 13.78 C0.56 12.53, 0 10.52, 0.04 8.76 C0.09 7, 0.81 4.7, 2.05 3.21 C3.28 1.72, 6.53 0.38, 7.45 -0.18 C8.37 -0.74, 7.62 -0.36, 7.58 -0.16 M8.49 -0.68 C10.42 -0.74, 13.41 1.18, 14.82 2.47 C16.24 3.77, 16.68 5.51, 16.98 7.11 C17.27 8.71, 17.57 10.58, 16.6 12.09 C15.64 13.6, 12.85 15.49, 11.17 16.17 C9.48 16.85, 8.09 16.84, 6.5 16.18 C4.92 15.52, 2.68 13.89, 1.65 12.22 C0.62 10.56, 0.06 7.83, 0.32 6.2 C0.58 4.57, 1.85 3.4, 3.23 2.46 C4.61 1.51, 7.81 0.96, 8.63 0.55 C9.44 0.13, 8.21 -0.06, 8.12 -0.03" stroke="#6741d9" stroke-width="1" fill="none"></path></g><g stroke-linecap="round" transform="translate(530.5592743596119 113.88417670134999) rotate(0 5.536896619923596 5.998304671583924)"><path d="M0.61 3.18 C0.61 3.18, 0.61 3.18, 0.61 3.18 M0.61 3.18 C0.61 3.18, 0.61 3.18, 0.61 3.18 M1.01 8.83 C2.04 7.1, 4.04 5.28, 7.57 1.28 M1.01 8.83 C3.43 5.74, 6.05 2.71, 7.57 1.28 M4.03 11.45 C6.26 9.17, 7.98 7.52, 10.59 3.9 M4.03 11.45 C5.87 9.35, 7.81 7.41, 10.59 3.9 M2.32 11.05 C2.32 11.05, 2.32 11.05, 2.32 11.05 M2.32 11.05 C2.32 11.05, 2.32 11.05, 2.32 11.05 M7.97 10.65 C4.71 7.81, 2.53 5.61, 0.42 4.09 M7.97 10.65 C6.29 8.93, 4.54 7.81, 0.42 4.09 M10.59 7.63 C8.43 4.98, 5.25 3.74, 3.04 1.07 M10.59 7.63 C7.89 5.58, 5.39 3.24, 3.04 1.07" stroke="#d0bfff" stroke-width="0.5" fill="none"></path><path d="M6.75 0.55 C7.82 0.69, 8.59 1.62, 9.37 2.62 C10.16 3.63, 11.38 5.42, 11.44 6.59 C11.51 7.76, 10.55 8.69, 9.75 9.66 C8.95 10.62, 7.84 12.1, 6.66 12.38 C5.47 12.65, 3.77 12.06, 2.64 11.33 C1.52 10.59, 0.28 9.3, -0.08 7.96 C-0.43 6.62, -0.01 4.52, 0.51 3.31 C1.03 2.09, 1.98 1.1, 3.05 0.65 C4.12 0.2, 6.22 0.61, 6.92 0.6 C7.61 0.58, 7.3 0.62, 7.24 0.58 M6.29 0.46 C7.29 0.53, 8.26 1.05, 9.18 2.01 C10.1 2.97, 11.78 5.07, 11.81 6.25 C11.83 7.42, 10.14 8.09, 9.31 9.06 C8.48 10.03, 7.82 11.7, 6.82 12.09 C5.81 12.48, 4.48 11.91, 3.3 11.38 C2.13 10.85, 0.24 10.01, -0.26 8.9 C-0.75 7.8, -0.18 5.98, 0.34 4.73 C0.85 3.49, 1.8 2.23, 2.83 1.43 C3.86 0.63, 5.95 0.06, 6.51 -0.07 C7.08 -0.21, 6.35 0.5, 6.21 0.62" stroke="#6741d9" stroke-width="1" fill="none"></path></g><g stroke-linecap="round" transform="translate(287.65530663323375 109.9895797350078) rotate(0 5.536896619923596 5.998304671583924)"><path d="M1.96 1.7 C1.96 1.7, 1.96 1.7, 1.96 1.7 M1.96 1.7 C1.96 1.7, 1.96 1.7, 1.96 1.7 M1.04 8.86 C3.76 6.35, 5.48 2.82, 7.6 1.31 M1.04 8.86 C3.61 5.89, 6.29 3.13, 7.6 1.31 M4.06 11.48 C6.5 8.76, 8.74 5.77, 10.62 3.93 M4.06 11.48 C6.2 8.99, 8.33 6.78, 10.62 3.93 M2.28 11.1 C2.28 11.1, 2.28 11.1, 2.28 11.1 M2.28 11.1 C2.28 11.1, 2.28 11.1, 2.28 11.1 M7.92 10.7 C5.93 9.06, 4.16 7.33, 0.37 4.14 M7.92 10.7 C6 8.81, 3.92 6.85, 0.37 4.14 M10.54 7.68 C7.97 5.31, 5.07 2.4, 3 1.12 M10.54 7.68 C9 6.03, 7.43 4.99, 3 1.12 M10.15 2.04 C9.63 1.66, 9.11 1.17, 8.64 0.73 M10.15 2.04 C9.8 1.74, 9.38 1.33, 8.64 0.73" stroke="#d0bfff" stroke-width="0.5" fill="none"></path><path d="M6.36 0.33 C7.51 0.34, 9.19 0.66, 9.93 1.54 C10.68 2.43, 10.77 4.26, 10.81 5.62 C10.85 6.98, 10.94 8.76, 10.18 9.72 C9.42 10.68, 7.55 11.14, 6.27 11.39 C4.98 11.65, 3.42 11.85, 2.46 11.26 C1.51 10.67, 0.91 9.01, 0.53 7.86 C0.14 6.71, -0.14 5.47, 0.15 4.38 C0.44 3.3, 1.17 1.97, 2.27 1.35 C3.37 0.72, 6.04 0.82, 6.76 0.61 C7.48 0.4, 6.67 0.13, 6.6 0.08 M5.78 -0.32 C7.08 -0.3, 8.44 0.7, 9.27 1.51 C10.1 2.33, 10.42 3.36, 10.75 4.56 C11.08 5.77, 11.73 7.53, 11.23 8.76 C10.74 9.99, 8.91 11.52, 7.78 11.94 C6.65 12.37, 5.58 11.65, 4.45 11.31 C3.32 10.96, 1.73 10.91, 0.99 9.89 C0.26 8.87, -0.09 6.51, 0.04 5.2 C0.16 3.88, 0.81 2.85, 1.74 1.99 C2.66 1.13, 4.97 0.43, 5.61 0.02 C6.24 -0.4, 5.64 -0.69, 5.57 -0.53" stroke="#6741d9" stroke-width="1" fill="none"></path></g><g stroke-linecap="round" transform="translate(536.6123219767367 354.3325145619076) rotate(0 5.536896619923596 5.998304671583924)"><path d="M1.41 2.55 C1.41 2.55, 1.41 2.55, 1.41 2.55 M1.41 2.55 C1.41 2.55, 1.41 2.55, 1.41 2.55 M1.15 8.95 C4.07 5.97, 6.34 2.14, 8.37 0.65 M1.15 8.95 C2.98 6.92, 5.41 4.53, 8.37 0.65 M4.17 11.57 C7.13 8.79, 9.49 5.6, 10.73 4.03 M4.17 11.57 C6.15 9.71, 7.57 7.83, 10.73 4.03 M4.27 11.86 C4.27 11.86, 4.27 11.86, 4.27 11.86 M4.27 11.86 C4.27 11.86, 4.27 11.86, 4.27 11.86 M9.16 10.81 C6.33 7.74, 3.2 5.32, 0.85 3.59 M9.16 10.81 C6.14 7.95, 2.4 5.13, 0.85 3.59 M10.27 6.48 C7.25 4.3, 4.91 1.87, 3.48 0.57 M10.27 6.48 C8.41 5.08, 6.79 3.31, 3.48 0.57" stroke="#d0bfff" stroke-width="0.5" fill="none"></path><path d="M4.93 0.16 C6.03 -0.15, 7.03 -0.26, 7.94 0.38 C8.84 1.02, 9.96 2.7, 10.36 3.98 C10.77 5.26, 10.64 6.81, 10.36 8.04 C10.09 9.26, 9.66 10.65, 8.7 11.34 C7.74 12.03, 5.79 12.49, 4.62 12.16 C3.44 11.83, 2.47 10.32, 1.64 9.37 C0.81 8.41, -0.33 7.59, -0.34 6.44 C-0.36 5.28, 0.68 3.5, 1.53 2.42 C2.38 1.34, 4.16 0.31, 4.78 -0.03 C5.39 -0.38, 5.16 0.26, 5.21 0.35 M6.18 -0.08 C7.33 0.13, 9.06 1.7, 9.89 2.74 C10.72 3.79, 11.23 4.96, 11.18 6.2 C11.13 7.43, 10.28 9.28, 9.57 10.17 C8.85 11.06, 7.96 11.43, 6.88 11.53 C5.8 11.64, 4.25 11.29, 3.09 10.81 C1.92 10.33, 0.32 9.78, -0.11 8.63 C-0.53 7.48, 0 5.16, 0.53 3.91 C1.05 2.67, 1.97 1.75, 3.02 1.17 C4.07 0.59, 6.19 0.69, 6.82 0.45 C7.45 0.21, 6.85 -0.25, 6.8 -0.27" stroke="#6741d9" stroke-width="1" fill="none"></path></g><g stroke-linecap="round" transform="translate(288.1714576304347 359.6660786287714) rotate(0 5.536896619923596 5.998304671583924)"><path d="M-0.19 3.81 C-0.19 3.81, -0.19 3.81, -0.19 3.81 M-0.19 3.81 C-0.19 3.81, -0.19 3.81, -0.19 3.81 M0.86 8.7 C3.08 5.71, 5.5 3.76, 7.42 1.15 M0.86 8.7 C2.8 6.44, 5.03 3.8, 7.42 1.15 M3.88 11.32 C6.26 8.97, 8.15 6.64, 9.78 4.53 M3.88 11.32 C5.42 9.57, 6.67 8.06, 9.78 4.53 M2.25 11.13 C2.25 11.13, 2.25 11.13, 2.25 11.13 M2.25 11.13 C2.25 11.13, 2.25 11.13, 2.25 11.13 M7.89 10.74 C5.47 8.47, 2.97 6.04, 1.1 4.83 M7.89 10.74 C6.49 9.6, 4.89 8.32, 1.1 4.83 M10.51 7.72 C8.38 5.31, 6.06 3.85, 2.21 0.5 M10.51 7.72 C7.8 5.19, 4.8 3.13, 2.21 0.5" stroke="#d0bfff" stroke-width="0.5" fill="none"></path><path d="M6.3 0.2 C7.3 0.25, 8.55 1, 9.28 2.04 C10.02 3.08, 10.66 5.18, 10.71 6.44 C10.77 7.7, 10.23 8.68, 9.61 9.59 C8.99 10.51, 8.19 11.64, 6.99 11.92 C5.79 12.2, 3.46 11.89, 2.42 11.28 C1.38 10.68, 1.12 9.58, 0.73 8.28 C0.35 6.98, -0.26 4.77, 0.09 3.49 C0.43 2.2, 1.73 1.18, 2.81 0.59 C3.9 -0.01, 5.85 -0.07, 6.58 -0.07 C7.3 -0.06, 7.2 0.45, 7.18 0.62 M6.11 0 C7.23 -0.23, 8.07 0.02, 8.8 0.84 C9.54 1.67, 10.21 3.5, 10.52 4.93 C10.82 6.35, 11.29 8.17, 10.63 9.41 C9.97 10.65, 7.69 11.93, 6.58 12.37 C5.47 12.8, 5.08 12.52, 3.98 12.01 C2.89 11.5, 0.61 10.51, 0.01 9.3 C-0.6 8.09, -0.09 6.07, 0.35 4.76 C0.79 3.45, 1.84 2.33, 2.64 1.43 C3.44 0.53, 4.63 -0.4, 5.15 -0.66 C5.67 -0.92, 5.65 -0.32, 5.75 -0.14" stroke="#6741d9" stroke-width="1" fill="none"></path></g><g stroke-linecap="round"><g transform="translate(42.4842478875521 102.88532479815916) rotate(0 51.64032024472414 0.03026454657464228)"><path d="M-1.01 0.48 C15.89 0.61, 84.76 -0.01, 102.27 0.05 M0.66 -0.31 C17.84 0.08, 87.28 1.71, 104.45 1.59" stroke="#1971c2" stroke-width="2" fill="none"></path></g><g transform="translate(42.4842478875521 102.88532479815916) rotate(0 51.64032024472414 0.03026454657464228)"><path d="M80.87 9.89 C90.53 5.3, 98.53 5.18, 104.45 1.59 M80.87 9.89 C90.34 6.17, 98.52 3.71, 104.45 1.59" stroke="#1971c2" stroke-width="2" fill="none"></path></g><g transform="translate(42.4842478875521 102.88532479815916) rotate(0 51.64032024472414 0.03026454657464228)"><path d="M81.05 -7.21 C90.54 -5.41, 98.48 0.86, 104.45 1.59 M81.05 -7.21 C90.62 -4.64, 98.73 -0.82, 104.45 1.59" stroke="#1971c2" stroke-width="2" fill="none"></path></g></g><mask></mask><g transform="translate(71.6223803031786 64.35608573670618) rotate(0 11.922730212145325 16.580671851233404)"><text x="0" y="23.239469666688734" font-family="Virgil, Segoe UI Emoji" font-size="26.52907496197344px" fill="#1971c2" text-anchor="start" style="white-space: pre;" direction="ltr" dominant-baseline="alphabetic">β1</text></g><g transform="translate(51.87956357884127 228.46234145672355) rotate(0 43.37180106081104 14.012920231136405)"><text x="0" y="19.640508995960808" font-family="Virgil, Segoe UI Emoji" font-size="22.42067236981827px" fill="#6741d9" text-anchor="start" style="white-space: pre;" direction="ltr" dominant-baseline="alphabetic">Vertices</text></g></svg>