<svg version="1.1" xmlns="http://www.w3.org/2000/svg" viewBox="0 0 656 498" width="1968" height="1494">
  <!-- svg-source:excalidraw -->
  
  <defs>
    <style class="style-fonts">
      @font-face {
        font-family: "Virgil";
        src: url("https://excalidraw.com/Virgil.woff2");
      }
      @font-face {
        font-family: "Cascadia";
        src: url("https://excalidraw.com/Cascadia.woff2");
      }
      @font-face {
        font-family: "Assistant";
        src: url("https://excalidraw.com/Assistant-Regular.woff2");
      }
    </style>
    
  </defs>
  <g stroke-linecap="round" transform="translate(10 10) rotate(0 318 239)"><path d="M32 0 C203.26 2.62, 373.75 2.88, 604 0 C626.91 3.01, 632.93 13.81, 636 32 C633.54 170.15, 630.34 303.36, 636 446 C637.96 469.32, 623.71 478, 604 478 C409.72 476.55, 213.01 477.81, 32 478 C7.57 475.17, 3.18 469.9, 0 446 C-0.58 323.4, -0.15 201.4, 0 32 C-3.36 8.31, 7.99 3.49, 32 0" stroke="none" stroke-width="0" fill="#ffffff"></path><path d="M32 0 C229.33 2.4, 428.29 2.63, 604 0 M32 0 C256.01 -2.02, 479.64 -2.05, 604 0 M604 0 C624.83 -0.99, 635.51 9.16, 636 32 M604 0 C623.75 1.13, 635.38 8.65, 636 32 M636 32 C635.12 176.43, 634.12 318.72, 636 446 M636 32 C636.18 151.04, 635.78 270.08, 636 446 M636 446 C637.05 468.59, 624.57 477.79, 604 478 M636 446 C636.58 466.02, 625.5 477.29, 604 478 M604 478 C442.89 480.61, 283.43 480.82, 32 478 M604 478 C395.28 477.34, 186.97 477.05, 32 478 M32 478 C12.29 476.9, -1.1 465.86, 0 446 M32 478 C11.29 475.91, 0.56 468.49, 0 446 M0 446 C-0.67 351.35, -0.22 254.38, 0 32 M0 446 C0.54 300.5, 0.36 154.46, 0 32 M0 32 C-0.72 12.57, 10.25 -1.26, 32 0 M0 32 C-2.11 9.23, 10.14 -1.88, 32 0" stroke="#1e1e1e" stroke-width="2" fill="none"></path></g><g mask="url(#mask-vvjnS3Rh4Pdc7Vgmf63ko)" stroke-linecap="round"><g transform="translate(256.7278129865367 423.0001307975274) rotate(0 62.11015425538699 0)"><path d="M0.92 0.03 C21.7 0.09, 104.04 -0.47, 124.42 -0.37 M-0.05 -1 C20.6 -0.7, 102.64 1.04, 123.57 0.97" stroke="#1e1e1e" stroke-width="2" fill="none"></path></g><g transform="translate(256.7278129865367 423.0001307975274) rotate(0 62.11015425538699 0)"><path d="M99.99 9.28 C106.72 7.09, 112.67 2.7, 123.57 0.97 M99.99 9.28 C108.65 7.39, 115.66 3.5, 123.57 0.97" stroke="#1e1e1e" stroke-width="2" fill="none"></path></g><g transform="translate(256.7278129865367 423.0001307975274) rotate(0 62.11015425538699 0)"><path d="M100.17 -7.82 C106.74 -5.21, 112.64 -4.79, 123.57 0.97 M100.17 -7.82 C108.78 -3.72, 115.73 -1.6, 123.57 0.97" stroke="#1e1e1e" stroke-width="2" fill="none"></path></g></g><mask id="mask-vvjnS3Rh4Pdc7Vgmf63ko"><rect x="0" y="0" fill="#fff" width="480.94812149731075" height="523.0001307975274"></rect><rect x="312.38792844150885" y="413.4081954113044" fill="#000" width="12.900077600829555" height="19.183870772445918" opacity="1"></rect></mask><g transform="translate(312.38792844150896 413.4081954113044) rotate(0 6.521508557822699 9.581271878862026)"><text x="6.450038800414777" y="13.4440566373301" font-family="Virgil, Segoe UI Emoji" font-size="15.347096617956735px" fill="#1e1e1e" text-anchor="middle" style="white-space: pre;" direction="ltr" dominant-baseline="alphabetic">d1</text></g><g mask="url(#mask-qdUq-_dOOA5BLGJsCqTBb)" stroke-linecap="round"><g transform="translate(389.10400033892734 400.4146201592048) rotate(0 -0.6273752955089549 -53.64058776601604)"><path d="M1 0.43 C1.18 -17.35, 0.08 -88.91, -0.15 -106.84 M0.07 -0.38 C0.29 -18.52, -0.4 -91.17, -0.52 -108.73" stroke="#1e1e1e" stroke-width="2" fill="none"></path></g><g transform="translate(389.10400033892734 400.4146201592048) rotate(0 -0.6273752955089549 -53.64058776601604)"><path d="M8.22 -85.31 C7.22 -88.1, 5.47 -93.13, -0.52 -108.73 M8.22 -85.31 C5.18 -91.81, 3.55 -100.57, -0.52 -108.73" stroke="#1e1e1e" stroke-width="2" fill="none"></path></g><g transform="translate(389.10400033892734 400.4146201592048) rotate(0 -0.6273752955089549 -53.64058776601604)"><path d="M-8.88 -85.17 C-6.45 -88.13, -4.76 -93.19, -0.52 -108.73 M-8.88 -85.17 C-6.61 -91.86, -2.94 -100.66, -0.52 -108.73" stroke="#1e1e1e" stroke-width="2" fill="none"></path></g></g><mask id="mask-qdUq-_dOOA5BLGJsCqTBb"><rect x="0" y="0" fill="#fff" width="490.35875092994524" height="607.6957956912369"></rect><rect x="378.64387803988757" y="337.1820970069657" fill="#000" width="19.66549400706166" height="19.183870772445918" opacity="1"></rect></mask><g transform="translate(378.64387803988757 337.1820970069657) rotate(0 10.712879232726664 9.082674799415543)"><text x="9.83274700353083" y="13.4440566373301" font-family="Virgil, Segoe UI Emoji" font-size="15.347096617956735px" fill="#1e1e1e" text-anchor="middle" style="white-space: pre;" direction="ltr" dominant-baseline="alphabetic">d2</text></g><g mask="url(#mask-iYnMIC7irLlZp_ckQsoA-)" stroke-linecap="round"><g transform="translate(368.4006155871316 274.3654763096024) rotate(0 -55.52271365254296 -0.7154816994774933)"><path d="M-0.62 -1.16 C-19 -1.24, -91.93 -0.96, -110.45 -0.9 M1.26 0.85 C-17.21 0.44, -92.07 -2.14, -111.08 -2.75" stroke="#1e1e1e" stroke-width="2" fill="none"></path></g><g transform="translate(368.4006155871316 274.3654763096024) rotate(0 -55.52271365254296 -0.7154816994774933)"><path d="M-87.32 -10.51 C-96.08 -7.42, -100.08 -7.29, -111.08 -2.75 M-87.32 -10.51 C-94.85 -8.55, -104.91 -4.91, -111.08 -2.75" stroke="#1e1e1e" stroke-width="2" fill="none"></path></g><g transform="translate(368.4006155871316 274.3654763096024) rotate(0 -55.52271365254296 -0.7154816994774933)"><path d="M-87.89 6.58 C-96.43 4.78, -100.27 0.01, -111.08 -2.75 M-87.89 6.58 C-95.06 2.51, -104.91 0.12, -111.08 -2.75" stroke="#1e1e1e" stroke-width="2" fill="none"></path></g></g><mask id="mask-iYnMIC7irLlZp_ckQsoA-"><rect x="0" y="0" fill="#fff" width="579.4460428922175" height="375.79643970855744"></rect><rect x="303.2865110168177" y="264.05805922390186" fill="#000" width="19.1827818355417" height="19.183870772445918" opacity="1"></rect></mask><g transform="translate(303.2865110168178 264.05805922390186) rotate(0 10.20190418178612 9.35770266958815)"><text x="9.59139091777085" y="13.4440566373301" font-family="Virgil, Segoe UI Emoji" font-size="15.347096617956735px" fill="#1e1e1e" text-anchor="middle" style="white-space: pre;" direction="ltr" dominant-baseline="alphabetic">d3</text></g><g mask="url(#mask-Utb7sfVftWIXi2NJWjRRp)" stroke-linecap="round"><g transform="translate(241.6708058943218 289.6213729607132) rotate(0 0 57.22295754339308)"><path d="M1.14 0.55 C1.3 19.59, 1.3 95.61, 1.16 114.67 M0.27 -0.21 C0.37 18.42, 0.92 93.83, 0.82 112.67" stroke="#1e1e1e" stroke-width="2" fill="none"></path></g><g transform="translate(241.6708058943218 289.6213729607132) rotate(0 0 57.22295754339308)"><path d="M-7.77 89.19 C-4.09 98.38, -1.94 104.26, 0.82 112.67 M-7.77 89.19 C-4.52 97.39, -1.42 104.47, 0.82 112.67" stroke="#1e1e1e" stroke-width="2" fill="none"></path></g><g transform="translate(241.6708058943218 289.6213729607132) rotate(0 0 57.22295754339308)"><path d="M9.33 89.16 C7.66 98.52, 4.47 104.41, 0.82 112.67 M9.33 89.16 C6.77 97.28, 4.06 104.37, 0.82 112.67" stroke="#1e1e1e" stroke-width="2" fill="none"></path></g></g><mask id="mask-Utb7sfVftWIXi2NJWjRRp"><rect x="0" y="0" fill="#fff" width="341.6708058943218" height="504.06728804749935"></rect><rect x="232.3940856307854" y="337.2523951178832" fill="#000" width="18.553440527072745" height="19.183870772445918" opacity="1"></rect></mask><g transform="translate(232.3940856307854 337.2523951178832) rotate(0 10.046450276014298 9.601653236908192)"><text x="9.276720263536372" y="13.4440566373301" font-family="Virgil, Segoe UI Emoji" font-size="15.347096617956735px" fill="#1e1e1e" text-anchor="middle" style="white-space: pre;" direction="ltr" dominant-baseline="alphabetic">d4</text></g><g stroke-linecap="round"><g transform="translate(265.5110671236623 282.46806460352036) rotate(0 -7.842191193861993 8.783254137125425)"><path d="M0.92 0.92 C0.33 3.18, -0.76 9.78, -3.41 12.57 C-6.06 15.36, -12.98 16.84, -15 17.67 M-0.06 0.36 C-0.78 2.92, -1.62 11, -4.17 14.12 C-6.73 17.23, -13.57 18.29, -15.41 19.04" stroke="#228be6" stroke-width="2" fill="none"></path></g><g transform="translate(265.5110671236623 282.46806460352036) rotate(0 -7.842191193861993 8.783254137125425)"><path d="M-10.2 15.21 C-11.34 16.62, -13.43 17.98, -15.41 19.04 M-10.2 15.21 C-12.12 16.48, -13.27 17.49, -15.41 19.04" stroke="#228be6" stroke-width="2" fill="none"></path></g><g transform="translate(265.5110671236623 282.46806460352036) rotate(0 -7.842191193861993 8.783254137125425)"><path d="M-8.95 19.45 C-10.44 19.57, -12.92 19.62, -15.41 19.04 M-8.95 19.45 C-11.26 19.41, -12.8 19.11, -15.41 19.04" stroke="#228be6" stroke-width="2" fill="none"></path></g></g><mask></mask><g stroke-linecap="round"><g transform="translate(252.963561213483 399.1598695681869) rotate(0 10.351692375897812 8.783254137125425)"><path d="M-0.99 0.85 C1.82 1.78, 12.84 2.9, 16.41 5.49 C19.97 8.09, 19.69 14.44, 20.38 16.42 M0.69 0.25 C3.44 0.87, 12.71 1.13, 15.84 3.95 C18.96 6.76, 18.63 14.73, 19.44 17.14" stroke="#228be6" stroke-width="2" fill="none"></path></g><g transform="translate(252.963561213483 399.1598695681869) rotate(0 10.351692375897812 8.783254137125425)"><path d="M16.01 10.98 C17.41 13.05, 18.45 14.05, 19.44 17.14 M16.01 10.98 C16.87 11.95, 17.06 13.37, 19.44 17.14" stroke="#228be6" stroke-width="2" fill="none"></path></g><g transform="translate(252.963561213483 399.1598695681869) rotate(0 10.351692375897812 8.783254137125425)"><path d="M20.77 10.22 C20.92 12.45, 20.72 13.65, 19.44 17.14 M20.77 10.22 C20.66 11.33, 19.87 12.91, 19.44 17.14" stroke="#228be6" stroke-width="2" fill="none"></path></g></g><mask></mask><g stroke-linecap="round"><g transform="translate(362.754237927551 411.707375478366) rotate(0 8.469566489370948 -10.351692375897812)"><path d="M-0.45 1.14 C0.24 -1.33, 0.84 -11.62, 3.56 -15.45 C6.28 -19.28, 13.68 -20.96, 15.87 -21.85 M1.52 0.7 C2.13 -1.55, 0.05 -10.48, 2.83 -14.12 C5.62 -17.75, 15.87 -20.2, 18.21 -21.13" stroke="#228be6" stroke-width="2" fill="none"></path></g><g transform="translate(362.754237927551 411.707375478366) rotate(0 8.469566489370948 -10.351692375897812)"><path d="M12.33 -16.54 C14.55 -17.42, 15.09 -19.51, 18.21 -21.13 M12.33 -16.54 C13.78 -17.7, 15.06 -18.27, 18.21 -21.13" stroke="#228be6" stroke-width="2" fill="none"></path></g><g transform="translate(362.754237927551 411.707375478366) rotate(0 8.469566489370948 -10.351692375897812)"><path d="M10.76 -21.4 C13.35 -21.04, 14.29 -21.9, 18.21 -21.13 M10.76 -21.4 C12.52 -21.56, 14.12 -21.13, 18.21 -21.13" stroke="#228be6" stroke-width="2" fill="none"></path></g></g><mask></mask><g stroke-linecap="round"><g transform="translate(375.3017438377301 311.3273281969325) rotate(0 -8.783254137125425 -13.802256501197121)"><path d="M1.17 0.68 C-1.5 -0.49, -13.44 -2.4, -16.62 -7.27 C-19.8 -12.13, -17.63 -25.27, -17.9 -28.49 M0.32 0 C-1.91 -1.49, -11.2 -4.31, -14.4 -8.92 C-17.59 -13.53, -18.18 -24.36, -18.84 -27.64" stroke="#228be6" stroke-width="2" fill="none"></path></g><g transform="translate(375.3017438377301 311.3273281969325) rotate(0 -8.783254137125425 -13.802256501197121)"><path d="M-14.26 -19.01 C-14.82 -21.85, -15.78 -23.49, -18.84 -27.64 M-14.26 -19.01 C-15.01 -20.97, -15.86 -23.33, -18.84 -27.64" stroke="#228be6" stroke-width="2" fill="none"></path></g><g transform="translate(375.3017438377301 311.3273281969325) rotate(0 -8.783254137125425 -13.802256501197121)"><path d="M-20.87 -18.08 C-19.8 -21.22, -19.13 -23.08, -18.84 -27.64 M-20.87 -18.08 C-20.13 -20.31, -19.48 -22.88, -18.84 -27.64" stroke="#228be6" stroke-width="2" fill="none"></path></g></g><mask></mask><g mask="url(#mask-edZJZNNGnwmSBu8kGk7Gr)" stroke-linecap="round"><g transform="translate(415.05641685217756 291.73984589024917) rotate(0 0.3039335097863045 54.404098251761525)"><path d="M0.48 0.16 C0.46 18.33, 1.14 91.64, 0.97 109.81 M-0.72 -0.81 C-0.97 16.99, -0.21 90.24, 0.22 108.22" stroke="#1e1e1e" stroke-width="2" fill="none"></path></g><g transform="translate(415.05641685217756 291.73984589024917) rotate(0 0.3039335097863045 54.404098251761525)"><path d="M-8.7 84.86 C-4.8 94.6, 0.12 101.3, 0.22 108.22 M-8.7 84.86 C-6.05 92.83, -1.91 100.88, 0.22 108.22" stroke="#1e1e1e" stroke-width="2" fill="none"></path></g><g transform="translate(415.05641685217756 291.73984589024917) rotate(0 0.3039335097863045 54.404098251761525)"><path d="M8.4 84.6 C5.59 94.51, 3.8 101.31, 0.22 108.22 M8.4 84.6 C5.37 92.77, 3.83 100.91, 0.22 108.22" stroke="#1e1e1e" stroke-width="2" fill="none"></path></g></g><mask id="mask-edZJZNNGnwmSBu8kGk7Gr"><rect x="0" y="0" fill="#fff" width="515.6642838717503" height="500.54804239377216"></rect><rect x="406.8665941078591" y="336.5520087557877" fill="#000" width="16.98751250820914" height="19.183870772445918" opacity="1"></rect></mask><g transform="translate(406.8665941078592 336.5520087557877) rotate(0 8.302893622990211 9.69012906761202)"><text x="8.49375625410457" y="13.4440566373301" font-family="Virgil, Segoe UI Emoji" font-size="15.347096617956735px" fill="#1e1e1e" text-anchor="middle" style="white-space: pre;" direction="ltr" dominant-baseline="alphabetic">d7</text></g><g mask="url(#mask-Zab6MpTr3mt8yZK3be1m4)" stroke-linecap="round"><g transform="translate(429.03735830235087 426.07845721582794) rotate(0 54.40409825176141 0.3039335097864182)"><path d="M-0.4 -1.15 C17.71 -0.99, 89.25 -0.31, 107.64 0.04 M1.59 0.86 C20.14 1.25, 91.7 1.63, 109.74 1.28" stroke="#1e1e1e" stroke-width="2" fill="none"></path></g><g transform="translate(429.03735830235087 426.07845721582794) rotate(0 54.40409825176141 0.3039335097864182)"><path d="M86.29 9.95 C89.44 6.23, 95.43 8.24, 109.74 1.28 M86.29 9.95 C93.96 6.81, 102.71 4.36, 109.74 1.28" stroke="#1e1e1e" stroke-width="2" fill="none"></path></g><g transform="translate(429.03735830235087 426.07845721582794) rotate(0 54.40409825176141 0.3039335097864182)"><path d="M86.21 -7.15 C89.25 -7.22, 95.25 -1.56, 109.74 1.28 M86.21 -7.15 C93.79 -4.65, 102.57 -1.46, 109.74 1.28" stroke="#1e1e1e" stroke-width="2" fill="none"></path></g></g><mask id="mask-Zab6MpTr3mt8yZK3be1m4"><rect x="0" y="0" fill="#fff" width="637.8455548058737" height="526.6863242354008"></rect><rect x="474.3350058009655" y="416.79045533939143" fill="#000" width="18.212901506293854" height="19.183870772445918" opacity="1"></rect></mask><g transform="translate(474.3350058009655 416.7904553393913) rotate(0 9.37080767192873 9.421792893696477)"><text x="9.106450753146927" y="13.4440566373301" font-family="Virgil, Segoe UI Emoji" font-size="15.347096617956735px" fill="#1e1e1e" text-anchor="middle" style="white-space: pre;" direction="ltr" dominant-baseline="alphabetic">d5</text></g><g mask="url(#mask-dvBMYiV-wLjEDl0ZgFmGj)" stroke-linecap="round"><g transform="translate(530.5511505710008 406.6267125894999) rotate(0 -45.893959977742895 -51.66869666368416)"><path d="M-0.2 -0.48 C-15.23 -17.58, -75.72 -85.53, -91.16 -102.64 M-1.77 -1.77 C-16.81 -19.21, -76.99 -87.74, -91.78 -104.39" stroke="#1e1e1e" stroke-width="2" fill="none"></path></g><g transform="translate(530.5511505710008 406.6267125894999) rotate(0 -45.893959977742895 -51.66869666368416)"><path d="M-69.83 -92.43 C-75.37 -94.01, -78.15 -99.46, -91.78 -104.39 M-69.83 -92.43 C-77.13 -95.3, -84.43 -98.94, -91.78 -104.39" stroke="#1e1e1e" stroke-width="2" fill="none"></path></g><g transform="translate(530.5511505710008 406.6267125894999) rotate(0 -45.893959977742895 -51.66869666368416)"><path d="M-82.65 -81.12 C-85.41 -85.13, -85.43 -93.02, -91.78 -104.39 M-82.65 -81.12 C-85.98 -87.67, -89.19 -94.91, -91.78 -104.39" stroke="#1e1e1e" stroke-width="2" fill="none"></path></g></g><mask id="mask-dvBMYiV-wLjEDl0ZgFmGj"><rect x="0" y="0" fill="#fff" width="722.3390705264866" height="609.9641059168682"></rect><rect x="475.38047032972145" y="345.36608053959276" fill="#000" width="18.553440527072745" height="19.183870772445918" opacity="1"></rect></mask><g transform="translate(475.38047032972145 345.36608053959276) rotate(0 9.177728847896105 8.827311011406778)"><text x="9.276720263536372" y="13.4440566373301" font-family="Virgil, Segoe UI Emoji" font-size="15.347096617956735px" fill="#1e1e1e" text-anchor="middle" style="white-space: pre;" direction="ltr" dominant-baseline="alphabetic">d6</text></g><g mask="url(#mask-uniWWMumzALHN1G_FJ7Pk)" stroke-linecap="round"><g transform="translate(463.6857784179979 297.2106490664039) rotate(0 43.766425409238195 50.4529626245386)"><path d="M1.17 0.13 C15.55 16.94, 73.08 83.72, 87.39 100.68 M0.32 -0.85 C14.44 16.16, 72.08 85.28, 86.36 102.1" stroke="#1e1e1e" stroke-width="2" fill="none"></path></g><g transform="translate(463.6857784179979 297.2106490664039) rotate(0 43.766425409238195 50.4529626245386)"><path d="M64.7 89.61 C73.4 94.07, 81.33 98.39, 86.36 102.1 M64.7 89.61 C72.84 93.84, 82.29 99.81, 86.36 102.1" stroke="#1e1e1e" stroke-width="2" fill="none"></path></g><g transform="translate(463.6857784179979 297.2106490664039) rotate(0 43.766425409238195 50.4529626245386)"><path d="M77.8 78.61 C81.34 87.52, 84.12 96.16, 86.36 102.1 M77.8 78.61 C81.01 86.94, 85.44 97.14, 86.36 102.1" stroke="#1e1e1e" stroke-width="2" fill="none"></path></g></g><mask id="mask-uniWWMumzALHN1G_FJ7Pk"><rect x="0" y="0" fill="#fff" width="651.2186292364744" height="498.1165743154811"></rect><rect x="497.2125226700166" y="338.0716763047195" fill="#000" width="20.479362314439154" height="19.183870772445918" opacity="1"></rect></mask><g transform="translate(497.2125226700165 338.0716763047195) rotate(0 10.329151663539392 9.762620546438939)"><text x="10.239681157219577" y="13.4440566373301" font-family="Virgil, Segoe UI Emoji" font-size="15.347096617956735px" fill="#1e1e1e" text-anchor="middle" style="white-space: pre;" direction="ltr" dominant-baseline="alphabetic">d8</text></g><g mask="url(#mask-iJUB2jLurBXFq4Y7L7rq6)" stroke-linecap="round"><g transform="translate(570.6703738628025 402.3716434524906) rotate(0 -1.8236010587181681 -59.87490142791631)"><path d="M-0.08 0.47 C-0.66 -19.5, -2.75 -98.82, -3.42 -119 M-1.58 -0.32 C-2.3 -20.71, -3.66 -100.82, -4.25 -120.74" stroke="#1e1e1e" stroke-width="2" fill="none"></path></g><g transform="translate(570.6703738628025 402.3716434524906) rotate(0 -1.8236010587181681 -59.87490142791631)"><path d="M4.83 -97.44 C2.68 -104.2, 0.36 -112.43, -4.25 -120.74 M4.83 -97.44 C1.82 -101.8, 1.51 -107.45, -4.25 -120.74" stroke="#1e1e1e" stroke-width="2" fill="none"></path></g><g transform="translate(570.6703738628025 402.3716434524906) rotate(0 -1.8236010587181681 -59.87490142791631)"><path d="M-12.27 -97.06 C-9.19 -103.92, -6.28 -112.27, -4.25 -120.74 M-12.27 -97.06 C-11.43 -101.49, -7.89 -107.23, -4.25 -120.74" stroke="#1e1e1e" stroke-width="2" fill="none"></path></g></g><mask id="mask-iJUB2jLurBXFq4Y7L7rq6"><rect x="0" y="0" fill="#fff" width="674.317575980239" height="622.1214463083231"></rect><rect x="559.804901411407" y="332.9048066383514" fill="#000" width="18.08374278535494" height="19.183870772445918" opacity="1"></rect></mask><g transform="translate(559.804901411407 332.9048066383514) rotate(0 8.702851356525798 9.335770310762484)"><text x="9.04187139267747" y="13.4440566373301" font-family="Virgil, Segoe UI Emoji" font-size="15.347096617956735px" fill="#1e1e1e" text-anchor="middle" style="white-space: pre;" direction="ltr" dominant-baseline="alphabetic">d9</text></g><g mask="url(#mask-JPmUWKC3PNd_8n0O_Rtv2)" stroke-linecap="round"><g transform="translate(539.6691558645921 272.89596828349386) rotate(0 -51.668696663684045 0)"><path d="M0.16 1 C-16.84 0.74, -85.49 -0.54, -102.81 -0.87 M-1.22 0.48 C-18.26 0.28, -86.23 0.32, -103.48 0.2" stroke="#1e1e1e" stroke-width="2" fill="none"></path></g><g transform="translate(539.6691558645921 272.89596828349386) rotate(0 -51.668696663684045 0)"><path d="M-79.96 -8.28 C-83.71 -5.4, -92.3 -4.99, -103.48 0.2 M-79.96 -8.28 C-84.24 -6, -91.05 -5.12, -103.48 0.2" stroke="#1e1e1e" stroke-width="2" fill="none"></path></g><g transform="translate(539.6691558645921 272.89596828349386) rotate(0 -51.668696663684045 0)"><path d="M-80.01 8.82 C-83.85 7.73, -92.42 4.16, -103.48 0.2 M-80.01 8.82 C-84.26 7.41, -91.07 4.6, -103.48 0.2" stroke="#1e1e1e" stroke-width="2" fill="none"></path></g></g><mask id="mask-JPmUWKC3PNd_8n0O_Rtv2"><rect x="0" y="0" fill="#fff" width="743.0065491919602" height="372.89596828349386"></rect><rect x="476.26730549416857" y="263.3040328972709" fill="#000" width="23.466307413478997" height="19.183870772445918" opacity="1"></rect></mask><g transform="translate(476.26730549416857 263.3040328972709) rotate(0 11.742176543424648 9.654160300729075)"><text x="11.733153706739499" y="13.4440566373301" font-family="Virgil, Segoe UI Emoji" font-size="15.347096617956735px" fill="#1e1e1e" text-anchor="middle" style="white-space: pre;" direction="ltr" dominant-baseline="alphabetic">d10</text></g><g mask="url(#mask-5d6Pyjk4Ul-q5Y2xYAKyX)" stroke-linecap="round"><g transform="translate(255.79525772411603 244.3262183635743) rotate(0 57.44343334962525 0.9118005293591409)"><path d="M0.55 -0.83 C19.99 -0.32, 96.49 1.73, 115.66 2.05 M-0.62 1.35 C18.81 1.57, 95.83 -0.06, 115.12 0.04" stroke="#1e1e1e" stroke-width="2" fill="none"></path></g><g transform="translate(255.79525772411603 244.3262183635743) rotate(0 57.44343334962525 0.9118005293591409)"><path d="M91.71 8.81 C95.58 8.05, 102.52 5.92, 115.12 0.04 M91.71 8.81 C96.58 6.34, 102.38 4.62, 115.12 0.04" stroke="#1e1e1e" stroke-width="2" fill="none"></path></g><g transform="translate(255.79525772411603 244.3262183635743) rotate(0 57.44343334962525 0.9118005293591409)"><path d="M91.55 -8.29 C95.31 -5.26, 102.28 -3.62, 115.12 0.04 M91.55 -8.29 C96.42 -6.71, 102.25 -4.37, 115.12 0.04" stroke="#1e1e1e" stroke-width="2" fill="none"></path></g></g><mask id="mask-5d6Pyjk4Ul-q5Y2xYAKyX"><rect x="0" y="0" fill="#fff" width="470.68212442336653" height="346.14981942229264"></rect><rect x="304.704582266864" y="235.6460835067105" fill="#000" width="17.068217613754456" height="19.183870772445918" opacity="1"></rect></mask><g transform="translate(304.7045822668639 235.6460835067105) rotate(0 8.612111676662096 9.289308849808947)"><text x="8.534108806877228" y="13.4440566373301" font-family="Virgil, Segoe UI Emoji" font-size="15.347096617956735px" fill="#1e1e1e" text-anchor="middle" style="white-space: pre;" direction="ltr" dominant-baseline="alphabetic">d11</text></g><g mask="url(#mask-e4feAAarWf5kq3xuYkLJb)" stroke-linecap="round"><g transform="translate(433.9002944589329 244.93408538314725) rotate(0 52.884430702829604 0.9118005293590841)"><path d="M-0.42 -0.85 C16.98 -0.35, 87.86 1.82, 105.48 2.22 M1.56 1.32 C18.68 1.51, 87.27 0.07, 104.39 0.3" stroke="#1e1e1e" stroke-width="2" fill="none"></path></g><g transform="translate(433.9002944589329 244.93408538314725) rotate(0 52.884430702829604 0.9118005293590841)"><path d="M80.94 8.99 C88.77 5.19, 100.03 1.49, 104.39 0.3 M80.94 8.99 C87.65 6.1, 94.04 3.64, 104.39 0.3" stroke="#1e1e1e" stroke-width="2" fill="none"></path></g><g transform="translate(433.9002944589329 244.93408538314725) rotate(0 52.884430702829604 0.9118005293590841)"><path d="M80.85 -8.11 C88.61 -5.21, 99.9 -2.21, 104.39 0.3 M80.85 -8.11 C87.59 -6.24, 94 -3.94, 104.39 0.3" stroke="#1e1e1e" stroke-width="2" fill="none"></path></g></g><mask id="mask-e4feAAarWf5kq3xuYkLJb"><rect x="0" y="0" fill="#fff" width="639.6691558645921" height="346.7576864418655"></rect><rect x="474.86709985253856" y="236.25395052628335" fill="#000" width="23.835250618447763" height="19.183870772445918" opacity="1"></rect></mask><g transform="translate(474.8670998525387 236.25395052628335) rotate(0 11.565632896939917 9.366202024457266)"><text x="11.917625309223881" y="13.4440566373301" font-family="Virgil, Segoe UI Emoji" font-size="15.347096617956735px" fill="#1e1e1e" text-anchor="middle" style="white-space: pre;" direction="ltr" dominant-baseline="alphabetic">d12</text></g><g mask="url(#mask-2PbHEAU66yhV32xX950hn)" stroke-linecap="round"><g transform="translate(371.897858462512 65.61331460918467) rotate(0 -53.492297722402384 14.284874959959694)"><path d="M1.03 0.9 C-16.74 5.37, -88.71 22.95, -106.64 27.73 M0.11 0.33 C-17.78 4.85, -89.54 24.25, -107.41 28.83" stroke="#1e1e1e" stroke-width="2" fill="none"></path></g><g transform="translate(371.897858462512 65.61331460918467) rotate(0 -53.492297722402384 14.284874959959694)"><path d="M-86.88 14.56 C-91.39 19.57, -100.42 23.94, -107.41 28.83 M-86.88 14.56 C-94.41 19.21, -102.37 24.82, -107.41 28.83" stroke="#1e1e1e" stroke-width="2" fill="none"></path></g><g transform="translate(371.897858462512 65.61331460918467) rotate(0 -53.492297722402384 14.284874959959694)"><path d="M-82.51 31.1 C-88.45 31.2, -98.78 30.64, -107.41 28.83 M-82.51 31.1 C-91.79 29.34, -101.44 28.54, -107.41 28.83" stroke="#1e1e1e" stroke-width="2" fill="none"></path></g></g><mask id="mask-2PbHEAU66yhV32xX950hn"><rect x="0" y="0" fill="#fff" width="578.8824539073167" height="194.1830645291041"></rect><rect x="307.2143678625407" y="70.3062541829214" fill="#000" width="22.382385755138017" height="19.183870772445918" opacity="1"></rect></mask><g transform="translate(307.2143678625407 70.3062541829214) rotate(0 11.493081829973221 9.887938315657152)"><text x="11.191192877569009" y="13.4440566373301" font-family="Virgil, Segoe UI Emoji" font-size="15.347096617956735px" fill="#1e1e1e" text-anchor="middle" style="white-space: pre;" direction="ltr" dominant-baseline="alphabetic">d15</text></g><g mask="url(#mask-fDUy86gNyKkYbhn_H9uZ6)" stroke-linecap="round"><g transform="translate(242.42218329351545 119.71347935115983) rotate(0 1.2157340391455023 51.97263017347049)"><path d="M0.95 -1.03 C1.48 16.12, 1.73 86.35, 2.17 103.99 M-0.01 1.04 C0.42 18.92, 0.51 88.57, 1.08 105.55" stroke="#1e1e1e" stroke-width="2" fill="none"></path></g><g transform="translate(242.42218329351545 119.71347935115983) rotate(0 1.2157340391455023 51.97263017347049)"><path d="M-7.83 82.19 C-7.42 86.73, -3.7 94.14, 1.08 105.55 M-7.83 82.19 C-4.85 90.54, -2 99.68, 1.08 105.55" stroke="#1e1e1e" stroke-width="2" fill="none"></path></g><g transform="translate(242.42218329351545 119.71347935115983) rotate(0 1.2157340391455023 51.97263017347049)"><path d="M9.27 81.93 C5.99 86.66, 6.01 94.13, 1.08 105.55 M9.27 81.93 C5.87 90.44, 2.34 99.67, 1.08 105.55" stroke="#1e1e1e" stroke-width="2" fill="none"></path></g></g><mask id="mask-fDUy86gNyKkYbhn_H9uZ6"><rect x="0" y="0" fill="#fff" width="344.85365137180645" height="323.6587396981008"></rect><rect x="232.2772626162414" y="162.09417413840737" fill="#000" width="22.72130943283896" height="19.183870772445918" opacity="1"></rect></mask><g transform="translate(232.2772626162414 162.0941741384073) rotate(0 11.22186518378794 9.876945793641028)"><text x="11.36065471641948" y="13.4440566373301" font-family="Virgil, Segoe UI Emoji" font-size="15.347096617956735px" fill="#1e1e1e" text-anchor="middle" style="white-space: pre;" direction="ltr" dominant-baseline="alphabetic">d16</text></g><g mask="url(#mask-Ug-2829L7jAGz_Y66GQjs)" stroke-linecap="round"><g transform="translate(565.1995706866478 229.1295428742555) rotate(0 -1.215734039145559 -48.93329507560671)"><path d="M0.9 -0.87 C0.47 -17.16, -0.83 -81.21, -1.49 -97.36 M-0.09 1.29 C-0.68 -15.4, -1.26 -82.94, -1.94 -99.22" stroke="#1e1e1e" stroke-width="2" fill="none"></path></g><g transform="translate(565.1995706866478 229.1295428742555) rotate(0 -1.215734039145559 -48.93329507560671)"><path d="M7.14 -75.93 C2.09 -83.33, 0.85 -95, -1.94 -99.22 M7.14 -75.93 C4.2 -83.7, 2.27 -90.03, -1.94 -99.22" stroke="#1e1e1e" stroke-width="2" fill="none"></path></g><g transform="translate(565.1995706866478 229.1295428742555) rotate(0 -1.215734039145559 -48.93329507560671)"><path d="M-9.95 -75.54 C-8.38 -83.22, -2.97 -95.04, -1.94 -99.22 M-9.95 -75.54 C-7.62 -83.41, -4.28 -89.85, -1.94 -99.22" stroke="#1e1e1e" stroke-width="2" fill="none"></path></g></g><mask id="mask-Ug-2829L7jAGz_Y66GQjs"><rect x="0" y="0" fill="#fff" width="667.6310387649389" height="426.9961330254689"></rect><rect x="552.307967295932" y="170.60431241242583" fill="#000" width="23.351738703140697" height="19.183870772445918" opacity="1"></rect></mask><g transform="translate(552.307967295932 170.60431241242583) rotate(0 12.369359610025526 9.558902018157056)"><text x="11.675869351570348" y="13.4440566373301" font-family="Virgil, Segoe UI Emoji" font-size="15.347096617956735px" fill="#1e1e1e" text-anchor="middle" style="white-space: pre;" direction="ltr" dominant-baseline="alphabetic">d13</text></g><g stroke-linecap="round"><g transform="translate(257.6188587828342 213.3250003653639) rotate(0 7.90227125444585 12.765207411027859)"><path d="M-0.92 -0.55 C1.73 0.87, 12.36 4.06, 15.25 8.31 C18.14 12.56, 16.47 22.26, 16.4 24.97 M0.8 1.78 C3.3 2.9, 11.43 2.69, 14.01 6.72 C16.59 10.76, 16.11 22.92, 16.26 25.99" stroke="#1971c2" stroke-width="2" fill="none"></path></g><g transform="translate(257.6188587828342 213.3250003653639) rotate(0 7.90227125444585 12.765207411027859)"><path d="M13.03 17.46 C13.38 19.15, 15.36 22.57, 16.26 25.99 M13.03 17.46 C14.22 19.24, 14.49 22.17, 16.26 25.99" stroke="#1971c2" stroke-width="2" fill="none"></path></g><g transform="translate(257.6188587828342 213.3250003653639) rotate(0 7.90227125444585 12.765207411027859)"><path d="M19.27 17.38 C18.1 19.04, 18.56 22.48, 16.26 25.99 M19.27 17.38 C18.88 19.13, 17.57 22.08, 16.26 25.99" stroke="#1971c2" stroke-width="2" fill="none"></path></g></g><mask></mask><g stroke-linecap="round"><g transform="translate(374.329326540803 232.16887797211933) rotate(0 27.354015880773943 -5.470803176154817)"><path d="M-0.69 -0.45 C3.54 -2.28, 15.92 -11.68, 25.17 -11.51 C34.43 -11.33, 49.9 -1.44, 54.85 0.58 M1.14 -1.74 C5.31 -3.31, 15.84 -10.55, 24.67 -9.95 C33.51 -9.34, 49.07 -0.07, 54.16 1.89" stroke="#1971c2" stroke-width="2" fill="none"></path></g><g transform="translate(374.329326540803 232.16887797211933) rotate(0 27.354015880773943 -5.470803176154817)"><path d="M37.87 0.33 C41.85 2.04, 47.13 1.5, 54.16 1.89 M37.87 0.33 C42.87 0.72, 47.8 0.51, 54.16 1.89" stroke="#1971c2" stroke-width="2" fill="none"></path></g><g transform="translate(374.329326540803 232.16887797211933) rotate(0 27.354015880773943 -5.470803176154817)"><path d="M42.68 -9.78 C45.25 -5.24, 49.18 -2.92, 54.16 1.89 M42.68 -9.78 C46.26 -6.38, 49.76 -3.57, 54.16 1.89" stroke="#1971c2" stroke-width="2" fill="none"></path></g></g><mask></mask><g mask="url(#mask-ctE2sJD0zg83x4adW86BZ)" stroke-linecap="round"><g transform="translate(539.0612888450194 103.30106982269541) rotate(0 -58.963100898557116 -17.32421005782348)"><path d="M0.42 -0.31 C-19.33 -6.19, -98.5 -29.36, -118.31 -35.15 M-0.81 -1.51 C-20.77 -7.25, -99.68 -28.47, -119.46 -33.87" stroke="#1e1e1e" stroke-width="2" fill="none"></path></g><g transform="translate(539.0612888450194 103.30106982269541) rotate(0 -58.963100898557116 -17.32421005782348)"><path d="M-94.55 -35.98 C-102.93 -35.87, -111.12 -35.43, -119.46 -33.87 M-94.55 -35.98 C-101.32 -35.44, -108.29 -34.12, -119.46 -33.87" stroke="#1e1e1e" stroke-width="2" fill="none"></path></g><g transform="translate(539.0612888450194 103.30106982269541) rotate(0 -58.963100898557116 -17.32421005782348)"><path d="M-99.02 -19.47 C-106.01 -24.59, -112.79 -29.37, -119.46 -33.87 M-99.02 -19.47 C-104.51 -23.38, -110.27 -26.51, -119.46 -33.87" stroke="#1e1e1e" stroke-width="2" fill="none"></path></g></g><mask id="mask-ctE2sJD0zg83x4adW86BZ"><rect x="0" y="0" fill="#fff" width="756.9874906421336" height="237.94948993834237"></rect><rect x="468.7375332300428" y="76.38492437864898" fill="#000" width="22.72130943283896" height="19.183870772445918" opacity="1"></rect></mask><g transform="translate(468.7375332300427 76.38492437864898) rotate(0 10.80531126313133 9.189970342156641)"><text x="11.36065471641948" y="13.4440566373301" font-family="Virgil, Segoe UI Emoji" font-size="15.347096617956735px" fill="#1e1e1e" text-anchor="middle" style="white-space: pre;" direction="ltr" dominant-baseline="alphabetic">d14</text></g><g stroke-linecap="round"><g transform="translate(433.29242743936027 89.92799539209483) rotate(0 -33.12875256671515 -1.215734039145559)"><path d="M0.05 0.97 C-6.51 2.12, -27.1 7.63, -38.26 6.26 C-49.43 4.88, -62.21 -4.72, -66.93 -7.27 M-1.38 0.44 C-8.19 1.3, -28.08 6.17, -39.2 4.54 C-50.31 2.92, -63.5 -7.11, -68.05 -9.29" stroke="#1971c2" stroke-width="2" fill="none"></path></g><g transform="translate(433.29242743936027 89.92799539209483) rotate(0 -33.12875256671515 -1.215734039145559)"><path d="M-52.82 -6.41 C-57.51 -7.49, -63.72 -9.53, -68.05 -9.29 M-52.82 -6.41 C-58.92 -7.06, -62.85 -9.08, -68.05 -9.29" stroke="#1971c2" stroke-width="2" fill="none"></path></g><g transform="translate(433.29242743936027 89.92799539209483) rotate(0 -33.12875256671515 -1.215734039145559)"><path d="M-58.23 2.7 C-60.76 -1.95, -64.85 -7.55, -68.05 -9.29 M-58.23 2.7 C-62.41 -1.1, -64.42 -6.34, -68.05 -9.29" stroke="#1971c2" stroke-width="2" fill="none"></path></g></g><mask></mask><g stroke-linecap="round"><g transform="translate(280.7178055265989 104.51680386184097) rotate(0 -11.853406881668775 15.500608999105225)"><path d="M0.87 1.09 C0.36 5.59, 0.86 21.7, -3.07 26.51 C-7 31.32, -19.09 29.27, -22.7 29.94 M-0.13 0.61 C-0.75 4.78, 0.09 19.56, -3.72 24.58 C-7.52 29.59, -19.39 29.56, -22.94 30.7" stroke="#1971c2" stroke-width="2" fill="none"></path></g><g transform="translate(280.7178055265989 104.51680386184097) rotate(0 -11.853406881668775 15.500608999105225)"><path d="M-14 25.55 C-15.77 27.66, -19.08 29.57, -22.94 30.7 M-14 25.55 C-16.31 26.54, -18.18 27.43, -22.94 30.7" stroke="#1971c2" stroke-width="2" fill="none"></path></g><g transform="translate(280.7178055265989 104.51680386184097) rotate(0 -11.853406881668775 15.500608999105225)"><path d="M-12.78 32.5 C-14.89 32.53, -18.56 32.35, -22.94 30.7 M-12.78 32.5 C-15.29 32.02, -17.42 31.43, -22.94 30.7" stroke="#1971c2" stroke-width="2" fill="none"></path></g></g><mask></mask><g stroke-linecap="round"><g transform="translate(430.86095936106915 392.64577113932637) rotate(0 5.166869666368427 11.549473371882357)"><path d="M-0.25 0.48 C1.49 2.25, 9.19 6.44, 10.83 10.19 C12.46 13.94, 9.72 20.84, 9.57 22.98 M0.63 0.26 C2.3 1.91, 9.23 5.59, 10.65 9.46 C12.07 13.34, 9.22 21.18, 9.14 23.51" stroke="#1971c2" stroke-width="2" fill="none"></path></g><g transform="translate(430.86095936106915 392.64577113932637) rotate(0 5.166869666368427 11.549473371882357)"><path d="M8.06 16.91 C8.73 19.69, 9.13 21.78, 9.14 23.51 M8.06 16.91 C8.45 18.65, 8.61 20.42, 9.14 23.51" stroke="#1971c2" stroke-width="2" fill="none"></path></g><g transform="translate(430.86095936106915 392.64577113932637) rotate(0 5.166869666368427 11.549473371882357)"><path d="M12.56 17.76 C11.54 20.21, 10.25 21.98, 9.14 23.51 M12.56 17.76 C11.7 19.26, 10.61 20.8, 9.14 23.51" stroke="#1971c2" stroke-width="2" fill="none"></path></g></g><mask></mask><g stroke-linecap="round"><g transform="translate(498.9420655532176 418.1761859613823) rotate(0 7.294404234873014 -8.814071783804934)"><path d="M-0.15 -0.04 C0.31 -2.14, 0.43 -9.63, 2.95 -12.52 C5.48 -15.4, 13.01 -16.5, 15.03 -17.34 M0.77 -0.54 C1.14 -2.59, 0.13 -9.05, 2.48 -12 C4.83 -14.95, 12.75 -17.42, 14.9 -18.25" stroke="#1971c2" stroke-width="2" fill="none"></path></g><g transform="translate(498.9420655532176 418.1761859613823) rotate(0 7.294404234873014 -8.814071783804934)"><path d="M10.01 -14.15 C11.6 -15.55, 13.05 -16.61, 14.9 -18.25 M10.01 -14.15 C11.59 -15.55, 13.37 -17.03, 14.9 -18.25" stroke="#1971c2" stroke-width="2" fill="none"></path></g><g transform="translate(498.9420655532176 418.1761859613823) rotate(0 7.294404234873014 -8.814071783804934)"><path d="M8.51 -18.25 C10.61 -18.29, 12.55 -17.99, 14.9 -18.25 M8.51 -18.25 C10.64 -18.21, 12.95 -18.23, 14.9 -18.25" stroke="#1971c2" stroke-width="2" fill="none"></path></g></g><mask></mask><g stroke-linecap="round"><g transform="translate(450.92057100697014 330.64333514290547) rotate(0 -13.677007940387 3.647202117436507)"><path d="M-0.35 -0.48 C-1.99 0.81, -5.26 7.14, -9.85 7.51 C-14.44 7.88, -24.96 2.75, -27.89 1.74 M0.47 0.47 C-1.19 1.61, -5.48 6.35, -10.03 6.66 C-14.58 6.96, -23.96 3.11, -26.84 2.3" stroke="#1971c2" stroke-width="2" fill="none"></path></g><g transform="translate(450.92057100697014 330.64333514290547) rotate(0 -13.677007940387 3.647202117436507)"><path d="M-17.91 2.07 C-20.9 2.51, -22.95 1.75, -26.84 2.3 M-17.91 2.07 C-20.67 2.33, -23.01 2.29, -26.84 2.3" stroke="#1971c2" stroke-width="2" fill="none"></path></g><g transform="translate(450.92057100697014 330.64333514290547) rotate(0 -13.677007940387 3.647202117436507)"><path d="M-19.85 7.87 C-22.27 6.62, -23.75 4.17, -26.84 2.3 M-19.85 7.87 C-22.05 6.48, -23.84 4.78, -26.84 2.3" stroke="#1971c2" stroke-width="2" fill="none"></path></g></g><mask></mask><g stroke-linecap="round"><g transform="translate(486.7847251617627 283.8375746358033) rotate(0 -1.8236010587181681 10.029805822950493)"><path d="M0.04 -0.43 C0.34 1.52, 2.97 8.23, 1.95 11.73 C0.94 15.23, -4.66 19.19, -6.06 20.57 M-0.6 0.54 C-0.15 2.32, 3.9 7.65, 2.94 10.85 C1.97 14.06, -4.82 18.16, -6.39 19.77" stroke="#1971c2" stroke-width="2" fill="none"></path></g><g transform="translate(486.7847251617627 283.8375746358033) rotate(0 -1.8236010587181681 10.029805822950493)"><path d="M-3.27 14.63 C-4.52 16.04, -5.2 17.99, -6.39 19.77 M-3.27 14.63 C-4.61 16.54, -5.65 18.79, -6.39 19.77" stroke="#1971c2" stroke-width="2" fill="none"></path></g><g transform="translate(486.7847251617627 283.8375746358033) rotate(0 -1.8236010587181681 10.029805822950493)"><path d="M-0.7 17.83 C-2.78 18.2, -4.31 19.11, -6.39 19.77 M-0.7 17.83 C-3.04 18.48, -5.09 19.48, -6.39 19.77" stroke="#1971c2" stroke-width="2" fill="none"></path></g></g><mask></mask><g stroke-linecap="round"><g transform="translate(529.9432835514281 358.6052180432523) rotate(0 14.892741979532502 8.51013827401863)"><path d="M-0.83 0.4 C1.57 0.75, 10.27 0.36, 15.28 3 C20.29 5.65, 26.89 14.04, 29.22 16.27 M0.93 -0.43 C3.61 0.04, 12.86 1.59, 17.4 4.52 C21.94 7.46, 26.19 15.09, 28.16 17.19" stroke="#1971c2" stroke-width="2" fill="none"></path></g><g transform="translate(529.9432835514281 358.6052180432523) rotate(0 14.892741979532502 8.51013827401863)"><path d="M20.05 11.92 C23.44 13.03, 26.11 15.45, 28.16 17.19 M20.05 11.92 C22.02 13.22, 23.85 14.71, 28.16 17.19" stroke="#1971c2" stroke-width="2" fill="none"></path></g><g transform="translate(529.9432835514281 358.6052180432523) rotate(0 14.892741979532502 8.51013827401863)"><path d="M25.34 7.94 C26.79 10.49, 27.49 14.4, 28.16 17.19 M25.34 7.94 C26.03 10.15, 26.61 12.59, 28.16 17.19" stroke="#1971c2" stroke-width="2" fill="none"></path></g></g><mask></mask><g stroke-linecap="round"><g transform="translate(548.1792941386107 309.975856477432) rotate(0 -8.206204764232211 -11.5494733718823)"><path d="M-0.6 1.12 C-3.24 -0.68, -12.33 -5.87, -15.01 -9.83 C-17.68 -13.78, -16.36 -20.4, -16.62 -22.61 M1.29 0.65 C-1.51 -1.53, -12.4 -7.14, -15.53 -11.37 C-18.66 -15.59, -17.35 -22.93, -17.49 -24.7" stroke="#1971c2" stroke-width="2" fill="none"></path></g><g transform="translate(548.1792941386107 309.975856477432) rotate(0 -8.206204764232211 -11.5494733718823)"><path d="M-15.63 -18.91 C-15.8 -20.65, -16.49 -23.3, -17.49 -24.7 M-15.63 -18.91 C-16.03 -21.14, -16.91 -22.61, -17.49 -24.7" stroke="#1971c2" stroke-width="2" fill="none"></path></g><g transform="translate(548.1792941386107 309.975856477432) rotate(0 -8.206204764232211 -11.5494733718823)"><path d="M-19.79 -19.06 C-18.42 -20.73, -17.57 -23.32, -17.49 -24.7 M-19.79 -19.06 C-18.78 -21.24, -18.24 -22.66, -17.49 -24.7" stroke="#1971c2" stroke-width="2" fill="none"></path></g></g><mask></mask><g stroke-linecap="round"><g transform="translate(526.2960814339915 233.3846120112649) rotate(0 14.588808469746027 -9.421938803377685)"><path d="M-0.14 -0.04 C1.83 -2.7, 6.71 -12.77, 11.57 -15.97 C16.43 -19.16, 26.14 -18.81, 29 -19.24 M-1.67 -1.11 C0.72 -4.08, 9 -14.7, 13.97 -17.54 C18.94 -20.37, 25.68 -18.17, 28.14 -18.13" stroke="#1971c2" stroke-width="2" fill="none"></path></g><g transform="translate(526.2960814339915 233.3846120112649) rotate(0 14.588808469746027 -9.421938803377685)"><path d="M19.79 -16.29 C22.09 -17.21, 25.22 -17.43, 28.14 -18.13 M19.79 -16.29 C21.97 -17.14, 24.13 -17.09, 28.14 -18.13" stroke="#1971c2" stroke-width="2" fill="none"></path></g><g transform="translate(526.2960814339915 233.3846120112649) rotate(0 14.588808469746027 -9.421938803377685)"><path d="M20.56 -22.09 C22.65 -21.39, 25.55 -19.99, 28.14 -18.13 M20.56 -22.09 C22.51 -21.39, 24.47 -19.79, 28.14 -18.13" stroke="#1971c2" stroke-width="2" fill="none"></path></g></g><mask></mask><g stroke-linecap="round"><g transform="translate(548.7871611581836 146.459628212361) rotate(0 -9.118005293591409 -16.716343038250756)"><path d="M-0.3 -1.11 C-3.51 -2.73, -15.39 -4.14, -18.2 -9.46 C-21.01 -14.78, -17.23 -29.25, -17.16 -33.05 M1.74 0.92 C-1.2 -1.05, -12.92 -5.11, -16.1 -11.13 C-19.28 -17.14, -17.16 -31.35, -17.35 -35.19" stroke="#1971c2" stroke-width="2" fill="none"></path></g><g transform="translate(548.7871611581836 146.459628212361) rotate(0 -9.118005293591409 -16.716343038250756)"><path d="M-13.87 -24.16 C-16.31 -29.57, -15.75 -31.67, -17.35 -35.19 M-13.87 -24.16 C-15.05 -27.41, -16.48 -31.62, -17.35 -35.19" stroke="#1971c2" stroke-width="2" fill="none"></path></g><g transform="translate(548.7871611581836 146.459628212361) rotate(0 -9.118005293591409 -16.716343038250756)"><path d="M-21.77 -24.5 C-21.15 -29.76, -17.53 -31.72, -17.35 -35.19 M-21.77 -24.5 C-20.32 -27.72, -19.13 -31.81, -17.35 -35.19" stroke="#1971c2" stroke-width="2" fill="none"></path></g></g><mask></mask><g stroke-linecap="round"><g transform="translate(394.38893818670397 323.34893090803234) rotate(0 7.294404234873014 0.6078670195727796)"><path d="M0.3 0.28 C2.64 0.39, 11.76 0.98, 14.23 1.14 M-0.21 -0.05 C2.29 0.38, 12.74 1.48, 15.28 1.81" stroke="#2f9e44" stroke-width="2" fill="none"></path></g><g transform="translate(394.38893818670397 323.34893090803234) rotate(0 7.294404234873014 0.6078670195727796)"><path d="M8.16 3.5 C10.76 2.67, 12.95 2.69, 15.28 1.81 M8.16 3.5 C10.47 2.83, 12.49 2.46, 15.28 1.81" stroke="#2f9e44" stroke-width="2" fill="none"></path></g><g transform="translate(394.38893818670397 323.34893090803234) rotate(0 7.294404234873014 0.6078670195727796)"><path d="M8.74 -1.47 C11.16 -0.61, 13.15 1.1, 15.28 1.81 M8.74 -1.47 C10.89 -0.61, 12.73 0.54, 15.28 1.81" stroke="#2f9e44" stroke-width="2" fill="none"></path></g></g><mask></mask><g stroke-linecap="round"><g transform="translate(407.76201261730455 364.68388823897976) rotate(0 -7.29440423487307 0)"><path d="M0.36 0.49 C-2.13 0.55, -11.99 -0.06, -14.49 -0.12 M-0.12 0.27 C-2.71 0.45, -12.39 0.42, -14.86 0.52" stroke="#2f9e44" stroke-width="2" fill="none"></path></g><g transform="translate(407.76201261730455 364.68388823897976) rotate(0 -7.29440423487307 0)"><path d="M-8.05 -2.08 C-10.31 -1.01, -13.3 -0.12, -14.86 0.52 M-8.05 -2.08 C-10.28 -1.41, -12.43 -0.43, -14.86 0.52" stroke="#2f9e44" stroke-width="2" fill="none"></path></g><g transform="translate(407.76201261730455 364.68388823897976) rotate(0 -7.29440423487307 0)"><path d="M-7.97 2.9 C-10.24 2.09, -13.26 1.1, -14.86 0.52 M-7.97 2.9 C-10.23 1.95, -12.4 1.3, -14.86 0.52" stroke="#2f9e44" stroke-width="2" fill="none"></path></g></g><mask></mask><g stroke-linecap="round"><g transform="translate(475.2352517898803 336.11413831906043) rotate(0 5.470803176154732 -4.255069137009286)"><path d="M0.39 -0.45 C2.11 -1.98, 9.07 -7.43, 10.76 -8.77 M-0.07 0.5 C1.52 -0.98, 8.28 -6.8, 10.24 -8.2" stroke="#2f9e44" stroke-width="2" fill="none"></path></g><g transform="translate(475.2352517898803 336.11413831906043) rotate(0 5.470803176154732 -4.255069137009286)"><path d="M6.61 -2.29 C7.7 -4.68, 9.21 -7.08, 10.24 -8.2 M6.61 -2.29 C7.59 -3.94, 8.94 -5.85, 10.24 -8.2" stroke="#2f9e44" stroke-width="2" fill="none"></path></g><g transform="translate(475.2352517898803 336.11413831906043) rotate(0 5.470803176154732 -4.255069137009286)"><path d="M3.67 -6.01 C5.89 -6.98, 8.53 -7.96, 10.24 -8.2 M3.67 -6.01 C5.54 -6.53, 7.79 -7.31, 10.24 -8.2" stroke="#2f9e44" stroke-width="2" fill="none"></path></g></g><mask></mask><g stroke-linecap="round"><g transform="translate(516.5702091208275 367.1153563172709) rotate(0 -4.862936156582009 4.255069137009286)"><path d="M0.32 0.27 C-1.33 1.68, -8.34 7.11, -10.06 8.52 M0.06 0.1 C-1.47 1.57, -7.87 7.64, -9.44 8.97" stroke="#2f9e44" stroke-width="2" fill="none"></path></g><g transform="translate(516.5702091208275 367.1153563172709) rotate(0 -4.862936156582009 4.255069137009286)"><path d="M-6.43 3.25 C-7.03 4.53, -7.97 6.01, -9.44 8.97 M-6.43 3.25 C-7.57 5.28, -8.56 7.3, -9.44 8.97" stroke="#2f9e44" stroke-width="2" fill="none"></path></g><g transform="translate(516.5702091208275 367.1153563172709) rotate(0 -4.862936156582009 4.255069137009286)"><path d="M-3.46 6.53 C-4.83 6.97, -6.53 7.61, -9.44 8.97 M-3.46 6.53 C-5.65 7.39, -7.68 8.26, -9.44 8.97" stroke="#2f9e44" stroke-width="2" fill="none"></path></g></g><mask></mask><g stroke-linecap="round"><g transform="translate(292.87514591805393 268.0330321269116) rotate(0 0 -7.598337744659432)"><path d="M0.41 0 C0.37 -2.42, -0.1 -12.14, -0.21 -14.74 M-0.04 -0.48 C-0.18 -3.03, -0.64 -13.02, -0.75 -15.48" stroke="#2f9e44" stroke-width="2" fill="none"></path></g><g transform="translate(292.87514591805393 268.0330321269116) rotate(0 0 -7.598337744659432)"><path d="M2.17 -8.46 C1.29 -10.73, 0.72 -12.88, -0.75 -15.48 M2.17 -8.46 C1.3 -10.16, 0.81 -11.8, -0.75 -15.48" stroke="#2f9e44" stroke-width="2" fill="none"></path></g><g transform="translate(292.87514591805393 268.0330321269116) rotate(0 0 -7.598337744659432)"><path d="M-3.02 -8.23 C-2.31 -10.59, -1.31 -12.8, -0.75 -15.48 M-3.02 -8.23 C-2.71 -10.01, -2.02 -11.7, -0.75 -15.48" stroke="#2f9e44" stroke-width="2" fill="none"></path></g></g><mask></mask><g stroke-linecap="round"><g transform="translate(330.5629011315648 252.22848961802038) rotate(0 0 8.510138274018573)"><path d="M0.5 0.45 C0.66 3.15, 0.53 13.73, 0.4 16.52 M0.1 0.2 C0.26 2.93, 0.31 14.29, 0.17 16.96" stroke="#2f9e44" stroke-width="2" fill="none"></path></g><g transform="translate(330.5629011315648 252.22848961802038) rotate(0 0 8.510138274018573)"><path d="M-2.6 8.91 C-1.65 10.88, -1.81 12.03, 0.17 16.96 M-2.6 8.91 C-1.78 11.46, -0.72 14.36, 0.17 16.96" stroke="#2f9e44" stroke-width="2" fill="none"></path></g><g transform="translate(330.5629011315648 252.22848961802038) rotate(0 0 8.510138274018573)"><path d="M3.23 9.02 C2.96 10.99, 1.59 12.12, 0.17 16.96 M3.23 9.02 C2.11 11.52, 1.25 14.38, 0.17 16.96" stroke="#2f9e44" stroke-width="2" fill="none"></path></g></g><mask></mask><g stroke-linecap="round" transform="translate(240.59858223479705 96.00666558782234) rotate(0 3.647202117436507 3.951135627222925)"><path d="M1.05 0.91 C1.05 0.91, 1.05 0.91, 1.05 0.91 M1.05 0.91 C1.05 0.91, 1.05 0.91, 1.05 0.91 M1.45 6.56 C2.95 4.8, 4.3 3.38, 6.04 1.27 M1.45 6.56 C2.62 5.26, 3.57 4.1, 6.04 1.27 M2.3 8.03 C2.3 8.03, 2.3 8.03, 2.3 8.03 M2.3 8.03 C2.3 8.03, 2.3 8.03, 2.3 8.03 M6.43 6.32 C5.48 5.13, 3.98 4.48, 1.15 1.73 M6.43 6.32 C4.57 4.62, 2.7 3.17, 1.15 1.73" stroke="#d0bfff" stroke-width="0.5" fill="none"></path><path d="M4.1 0.11 C4.91 0.1, 5.9 0.74, 6.44 1.32 C6.97 1.89, 7.25 2.71, 7.3 3.56 C7.35 4.41, 7.22 5.74, 6.75 6.43 C6.27 7.12, 5.21 7.48, 4.44 7.71 C3.67 7.95, 2.74 8.15, 2.11 7.86 C1.47 7.57, 0.97 6.78, 0.65 5.95 C0.33 5.13, 0.09 3.79, 0.19 2.91 C0.28 2.04, 0.61 1.13, 1.24 0.7 C1.87 0.27, 3.47 0.45, 3.95 0.32 C4.44 0.19, 4.17 -0.1, 4.17 -0.09 M4.14 0.04 C4.82 0.13, 5.3 0.5, 5.84 1.14 C6.37 1.78, 7.15 3.01, 7.36 3.87 C7.56 4.72, 7.44 5.57, 7.08 6.27 C6.71 6.96, 6.04 7.76, 5.16 8.06 C4.28 8.36, 2.55 8.42, 1.81 8.06 C1.07 7.7, 1.03 6.77, 0.72 5.89 C0.4 5.01, -0.18 3.67, -0.08 2.78 C0.01 1.89, 0.62 1.04, 1.27 0.56 C1.92 0.07, 3.41 -0.05, 3.8 -0.12 C4.2 -0.2, 3.62 0.09, 3.63 0.1" stroke="#6741d9" stroke-width="1" fill="none"></path></g><g stroke-linecap="round" transform="translate(83.90724128493571 266.71432868938973) rotate(0 8.673771462607249 8.104924443007008)"><path d="M2.1 3.15 C2.1 3.15, 2.1 3.15, 2.1 3.15 M2.1 3.15 C2.1 3.15, 2.1 3.15, 2.1 3.15 M1.18 10.3 C4.11 6.91, 7.08 3.51, 9.06 1.25 M1.18 10.3 C4.13 6.98, 7.04 3.25, 9.06 1.25 M2.89 14.44 C4.74 10.7, 7.78 8.31, 13.39 2.36 M2.89 14.44 C7.14 9.86, 11.04 5.27, 13.39 2.36 M6.56 16.31 C9.16 13.56, 11.13 10.72, 17.06 4.23 M6.56 16.31 C9.82 12.42, 13.13 9.22, 17.06 4.23 M12.86 15.16 C14.88 12.84, 16.7 11.02, 17.46 9.87 M12.86 15.16 C13.9 13.91, 15.18 12.46, 17.46 9.87 M1.48 13.54 C1.48 13.54, 1.48 13.54, 1.48 13.54 M1.48 13.54 C1.48 13.54, 1.48 13.54, 1.48 13.54 M10.14 15.77 C7.04 13.5, 4.5 11.09, 0.33 7.24 M10.14 15.77 C8.12 13.62, 5.76 12.09, 0.33 7.24 M14.28 14.06 C8.79 10.54, 4.05 5.3, 2.2 3.57 M14.28 14.06 C10.84 11.4, 7.86 8.05, 2.2 3.57 M16.9 11.04 C13.81 8.16, 10.62 5.66, 5.58 1.2 M16.9 11.04 C12.91 7.17, 8.45 3.9, 5.58 1.2 M17.26 6.06 C15.4 3.74, 12.98 1.94, 10.47 0.15 M17.26 6.06 C14.71 3.63, 11.92 1.65, 10.47 0.15" stroke="#d0bfff" stroke-width="0.5" fill="none"></path><path d="M6.55 0.53 C8.19 0.18, 10.6 0.71, 12.37 1.42 C14.14 2.13, 16.34 3.24, 17.17 4.79 C18 6.35, 17.94 9.08, 17.35 10.73 C16.77 12.38, 15.36 13.76, 13.67 14.69 C11.99 15.62, 9.25 16.45, 7.26 16.3 C5.27 16.15, 2.96 15.04, 1.76 13.78 C0.56 12.53, 0 10.52, 0.04 8.76 C0.09 7, 0.81 4.7, 2.05 3.21 C3.28 1.72, 6.53 0.38, 7.45 -0.18 C8.37 -0.74, 7.62 -0.36, 7.58 -0.16 M8.49 -0.68 C10.42 -0.74, 13.41 1.18, 14.82 2.47 C16.24 3.77, 16.68 5.51, 16.98 7.11 C17.27 8.71, 17.57 10.58, 16.6 12.09 C15.64 13.6, 12.85 15.49, 11.17 16.17 C9.48 16.85, 8.09 16.84, 6.5 16.18 C4.92 15.52, 2.68 13.89, 1.65 12.22 C0.62 10.56, 0.06 7.83, 0.32 6.2 C0.58 4.57, 1.85 3.4, 3.23 2.46 C4.61 1.51, 7.81 0.96, 8.63 0.55 C9.44 0.13, 8.21 -0.06, 8.12 -0.03" stroke="#6741d9" stroke-width="1" fill="none"></path></g><g stroke-linecap="round" transform="translate(391.8235331814718 61.22430854523424) rotate(0 3.647202117436507 3.951135627222925)"><path d="M1.27 1.11 C1.27 1.11, 1.27 1.11, 1.27 1.11 M1.27 1.11 C1.27 1.11, 1.27 1.11, 1.27 1.11 M1.67 6.75 C3 5.6, 3.94 4.34, 6.26 1.47 M1.67 6.75 C3.26 4.94, 4.68 3.39, 6.26 1.47 M0.22 5.84 C0.22 5.84, 0.22 5.84, 0.22 5.84 M0.22 5.84 C0.22 5.84, 0.22 5.84, 0.22 5.84 M6.62 6.1 C4.9 4.69, 2.97 3.04, 1.34 1.51 M6.62 6.1 C4.64 4.27, 2.48 2.55, 1.34 1.51" stroke="#d0bfff" stroke-width="0.5" fill="none"></path><path d="M3.55 0 C4.25 -0.1, 4.94 0.05, 5.59 0.54 C6.23 1.03, 7.23 2.03, 7.42 2.94 C7.6 3.84, 7.08 5.21, 6.7 5.95 C6.31 6.68, 5.75 7.04, 5.11 7.34 C4.46 7.64, 3.62 7.98, 2.83 7.75 C2.04 7.52, 0.85 6.66, 0.38 5.98 C-0.1 5.29, -0.18 4.46, -0.02 3.64 C0.14 2.81, 0.75 1.65, 1.36 1.01 C1.96 0.36, 3.2 -0.06, 3.61 -0.26 C4.02 -0.45, 3.8 -0.28, 3.82 -0.17 M3.51 -0.02 C4.23 -0.15, 4.72 0.6, 5.26 1.16 C5.79 1.72, 6.5 2.55, 6.75 3.35 C6.99 4.16, 7.01 5.28, 6.73 6.01 C6.44 6.74, 5.66 7.45, 5.05 7.74 C4.45 8.03, 3.73 7.93, 3.08 7.74 C2.43 7.55, 1.59 7.35, 1.14 6.59 C0.7 5.83, 0.38 3.99, 0.41 3.16 C0.44 2.34, 0.91 2.21, 1.32 1.66 C1.73 1.11, 2.54 0.08, 2.86 -0.13 C3.17 -0.33, 3.2 0.44, 3.21 0.45" stroke="#6741d9" stroke-width="1" fill="none"></path></g><g stroke-linecap="round"><g transform="translate(467.33298053543444 266.8172980877664) rotate(0 -0.30393350978636136 -6.3826037055139295)"><path d="M-0.54 0.4 C-0.62 -1.91, -0.17 -11.11, -0.22 -13.29 M0.19 0.12 C0.05 -1.9, -0.21 -10.83, -0.45 -12.87" stroke="#2f9e44" stroke-width="2" fill="none"></path></g><g transform="translate(467.33298053543444 266.8172980877664) rotate(0 -0.30393350978636136 -6.3826037055139295)"><path d="M2.13 -7.02 C1.44 -8.83, 0.01 -11.19, -0.45 -12.87 M2.13 -7.02 C1.5 -8.8, 0.43 -10.67, -0.45 -12.87" stroke="#2f9e44" stroke-width="2" fill="none"></path></g><g transform="translate(467.33298053543444 266.8172980877664) rotate(0 -0.30393350978636136 -6.3826037055139295)"><path d="M-2.24 -6.73 C-1.42 -8.62, -1.34 -11.08, -0.45 -12.87 M-2.24 -6.73 C-1.52 -8.61, -1.25 -10.57, -0.45 -12.87" stroke="#2f9e44" stroke-width="2" fill="none"></path></g></g><mask></mask><g stroke-linecap="round"><g transform="translate(508.66793786638164 252.22848961802038) rotate(0 0.30393350978636136 9.118005293591295)"><path d="M-0.19 -0.27 C-0.13 2.89, 0.22 15.67, 0.28 18.75 M0.71 0.78 C0.95 3.82, 1.26 15.04, 1.35 18.05" stroke="#2f9e44" stroke-width="2" fill="none"></path></g><g transform="translate(508.66793786638164 252.22848961802038) rotate(0 0.30393350978636136 9.118005293591295)"><path d="M-2.02 9.57 C-1.29 11.75, 0.33 14.08, 1.35 18.05 M-2.02 9.57 C-1.09 11.91, -0.18 14.77, 1.35 18.05" stroke="#2f9e44" stroke-width="2" fill="none"></path></g><g transform="translate(508.66793786638164 252.22848961802038) rotate(0 0.30393350978636136 9.118005293591295)"><path d="M4.22 9.39 C3.15 11.61, 2.97 14, 1.35 18.05 M4.22 9.39 C3.29 11.82, 2.33 14.73, 1.35 18.05" stroke="#2f9e44" stroke-width="2" fill="none"></path></g></g><mask></mask><g stroke-linecap="round" transform="translate(556.4215585587469 103.03319596881323) rotate(0 3.6472021174365636 3.951135627222925)"><path d="M1.4 1.22 C1.4 1.22, 1.4 1.22, 1.4 1.22 M1.4 1.22 C1.4 1.22, 1.4 1.22, 1.4 1.22 M1.8 6.86 C3.09 5.48, 4.55 3.81, 6.39 1.58 M1.8 6.86 C3.03 5.51, 4.25 4.06, 6.39 1.58 M0.74 6.77 C0.74 6.77, 0.74 6.77, 0.74 6.77 M0.74 6.77 C0.74 6.77, 0.74 6.77, 0.74 6.77 M6.38 6.38 C4.93 4.86, 3.35 3.55, 1.1 1.79 M6.38 6.38 C4.35 4.68, 2.57 2.98, 1.1 1.79" stroke="#d0bfff" stroke-width="0.5" fill="none"></path><path d="M3.31 0.19 C3.98 0.02, 4.7 0.31, 5.34 0.73 C5.97 1.14, 6.82 1.89, 7.12 2.68 C7.42 3.46, 7.43 4.62, 7.13 5.46 C6.83 6.3, 6.07 7.32, 5.31 7.72 C4.56 8.12, 3.4 8.03, 2.61 7.84 C1.81 7.65, 0.93 7.27, 0.52 6.59 C0.12 5.91, 0.08 4.62, 0.19 3.77 C0.3 2.92, 0.59 2.1, 1.16 1.5 C1.72 0.9, 3.17 0.37, 3.58 0.18 C4 0, 3.7 0.42, 3.66 0.4 M4.6 0.14 C5.28 0.22, 5.62 0.91, 6.02 1.5 C6.43 2.08, 6.9 2.9, 7.03 3.67 C7.15 4.44, 7.18 5.35, 6.77 6.1 C6.37 6.85, 5.36 7.99, 4.61 8.19 C3.86 8.38, 3 7.66, 2.27 7.26 C1.55 6.85, 0.53 6.54, 0.25 5.76 C-0.02 4.97, 0.41 3.45, 0.63 2.55 C0.85 1.65, 0.89 0.86, 1.57 0.36 C2.24 -0.14, 4.27 -0.45, 4.68 -0.44 C5.09 -0.44, 4.16 0.33, 4.02 0.4" stroke="#6741d9" stroke-width="1" fill="none"></path></g><g stroke-linecap="round" transform="translate(561.1505577883879 255.47388095463361) rotate(0 3.6472021174365636 3.951135627222925)"><path d="M1.99 0.4 C1.99 0.4, 1.99 0.4, 1.99 0.4 M1.99 0.4 C1.99 0.4, 1.99 0.4, 1.99 0.4 M1.73 6.8 C3.03 5.01, 4.59 3.34, 6.32 1.52 M1.73 6.8 C2.72 5.57, 3.68 4.58, 6.32 1.52 M1.77 7.11 C1.77 7.11, 1.77 7.11, 1.77 7.11 M1.77 7.11 C1.77 7.11, 1.77 7.11, 1.77 7.11 M6.66 6.06 C4.61 4.13, 2.45 2.53, 1.38 1.46 M6.66 6.06 C4.48 4.23, 2.46 2.5, 1.38 1.46" stroke="#d0bfff" stroke-width="0.5" fill="none"></path><path d="M3.96 0.18 C4.75 0.27, 5.82 0.65, 6.4 1.3 C6.97 1.94, 7.44 3.17, 7.41 4.06 C7.39 4.94, 6.78 5.94, 6.24 6.6 C5.7 7.27, 4.89 7.93, 4.18 8.04 C3.47 8.15, 2.68 7.74, 1.97 7.28 C1.26 6.81, 0.2 6.06, -0.08 5.26 C-0.37 4.45, -0.09 3.27, 0.26 2.45 C0.62 1.63, 1.4 0.79, 2.05 0.33 C2.69 -0.12, 3.76 -0.27, 4.12 -0.26 C4.48 -0.25, 4.18 0.28, 4.23 0.38 M3.21 0.36 C3.9 0.16, 4.31 0.37, 5.04 0.8 C5.77 1.24, 7.26 2.17, 7.56 2.97 C7.85 3.76, 7.21 4.82, 6.81 5.57 C6.41 6.33, 5.76 7.14, 5.16 7.49 C4.55 7.84, 3.92 7.84, 3.17 7.67 C2.42 7.5, 1.19 7.07, 0.66 6.48 C0.13 5.89, -0.07 5, 0.01 4.13 C0.09 3.25, 0.6 1.98, 1.12 1.24 C1.64 0.49, 2.72 -0.2, 3.11 -0.36 C3.51 -0.52, 3.55 0.18, 3.48 0.25" stroke="#6741d9" stroke-width="1" fill="none"></path></g><g stroke-linecap="round" transform="translate(556.1536847048646 419.4640393123359) rotate(0 3.6472021174365636 3.951135627222925)"><path d="M1.38 1.2 C1.38 1.2, 1.38 1.2, 1.38 1.2 M1.38 1.2 C1.38 1.2, 1.38 1.2, 1.38 1.2 M1.78 6.85 C3.27 4.92, 4.87 3.4, 6.37 1.56 M1.78 6.85 C3.58 4.96, 5.19 2.98, 6.37 1.56 M3.34 8.35 C3.34 8.35, 3.34 8.35, 3.34 8.35 M3.34 8.35 C3.34 8.35, 3.34 8.35, 3.34 8.35 M6.72 5.98 C4.99 4.53, 3.51 3.11, 1.44 1.39 M6.72 5.98 C4.96 4.43, 3.09 2.8, 1.44 1.39" stroke="#d0bfff" stroke-width="0.5" fill="none"></path><path d="M3.11 -0.27 C3.83 -0.39, 4.76 0.24, 5.43 0.72 C6.11 1.19, 6.92 1.74, 7.17 2.57 C7.42 3.39, 7.26 4.86, 6.94 5.65 C6.62 6.44, 5.91 6.91, 5.26 7.32 C4.61 7.73, 3.78 8.32, 3.05 8.09 C2.33 7.86, 1.45 6.63, 0.89 5.95 C0.34 5.26, -0.35 4.76, -0.29 3.98 C-0.22 3.21, 0.67 1.97, 1.28 1.32 C1.9 0.67, 2.99 0.27, 3.4 0.09 C3.8 -0.09, 3.64 0.15, 3.7 0.25 M4.06 0.22 C4.86 0.4, 6.17 1.22, 6.77 1.73 C7.38 2.24, 7.77 2.58, 7.7 3.3 C7.62 4.01, 6.87 5.31, 6.33 6.01 C5.79 6.72, 5.21 7.28, 4.47 7.54 C3.74 7.81, 2.61 7.92, 1.93 7.6 C1.25 7.29, 0.75 6.46, 0.4 5.65 C0.04 4.84, -0.35 3.61, -0.21 2.74 C-0.07 1.86, 0.55 0.86, 1.23 0.41 C1.91 -0.03, 3.34 0.19, 3.87 0.06 C4.4 -0.06, 4.33 -0.33, 4.38 -0.34" stroke="#6741d9" stroke-width="1" fill="none"></path></g><g stroke-linecap="round" transform="translate(395.5428546107165 258.24534219861494) rotate(0 3.647202117436507 3.951135627222925)"><path d="M1.96 0.38 C1.96 0.38, 1.96 0.38, 1.96 0.38 M1.96 0.38 C1.96 0.38, 1.96 0.38, 1.96 0.38 M1.7 6.78 C2.5 5.6, 3.76 4.38, 6.29 1.49 M1.7 6.78 C3.43 4.65, 5.25 2.54, 6.29 1.49 M1.61 7.29 C1.61 7.29, 1.61 7.29, 1.61 7.29 M1.61 7.29 C1.61 7.29, 1.61 7.29, 1.61 7.29 M6.5 6.24 C5.22 5.12, 3.94 4.15, 1.21 1.65 M6.5 6.24 C4.54 4.62, 2.84 3, 1.21 1.65" stroke="#d0bfff" stroke-width="0.5" fill="none"></path><path d="M4.2 0.32 C4.91 0.36, 5.46 0.9, 6.01 1.53 C6.57 2.15, 7.44 3.31, 7.54 4.08 C7.63 4.85, 7.06 5.48, 6.58 6.16 C6.1 6.83, 5.4 7.87, 4.63 8.11 C3.86 8.35, 2.72 8.03, 1.95 7.59 C1.19 7.16, 0.31 6.35, 0.03 5.49 C-0.25 4.63, -0.04 3.25, 0.25 2.42 C0.55 1.6, 1.13 0.91, 1.8 0.56 C2.46 0.21, 3.81 0.37, 4.24 0.33 C4.67 0.28, 4.43 0.31, 4.39 0.29 M4 0.29 C4.65 0.3, 5.31 0.6, 5.94 1.21 C6.57 1.82, 7.73 3.19, 7.77 3.96 C7.82 4.73, 6.74 5.17, 6.22 5.83 C5.69 6.49, 5.29 7.64, 4.64 7.93 C3.99 8.22, 3.11 7.89, 2.32 7.57 C1.52 7.25, 0.24 6.73, -0.11 6.02 C-0.47 5.3, -0.13 4.11, 0.18 3.28 C0.49 2.45, 1.08 1.59, 1.74 1.04 C2.4 0.48, 3.78 0.04, 4.14 -0.07 C4.51 -0.17, 4.04 0.32, 3.95 0.4" stroke="#6741d9" stroke-width="1" fill="none"></path></g><g stroke-linecap="round" transform="translate(235.5398915361411 255.67993719338278) rotate(0 3.647202117436507 3.951135627222925)"><path d="M1.26 1.09 C1.26 1.09, 1.26 1.09, 1.26 1.09 M1.26 1.09 C1.26 1.09, 1.26 1.09, 1.26 1.09 M1.65 6.74 C3.76 4.64, 5.34 2, 6.9 0.7 M1.65 6.74 C3.69 4.38, 5.79 2.13, 6.9 0.7 M1.58 7.33 C1.58 7.33, 1.58 7.33, 1.58 7.33 M1.58 7.33 C1.58 7.33, 1.58 7.33, 1.58 7.33 M6.47 6.28 C4.99 5.28, 3.87 3.94, 1.18 1.69 M6.47 6.28 C4.73 4.79, 2.8 3.2, 1.18 1.69 M6.83 1.29 C6.63 1.13, 6.45 0.96, 6.07 0.64 M6.83 1.29 C6.63 1.11, 6.42 0.92, 6.07 0.64" stroke="#d0bfff" stroke-width="0.5" fill="none"></path><path d="M4.02 0.2 C4.77 0.16, 5.91 0.32, 6.43 0.87 C6.94 1.43, 7.05 2.61, 7.11 3.51 C7.18 4.41, 7.28 5.59, 6.82 6.25 C6.35 6.91, 5.14 7.25, 4.3 7.46 C3.46 7.67, 2.42 7.85, 1.78 7.5 C1.13 7.15, 0.71 6.09, 0.42 5.35 C0.13 4.61, -0.11 3.8, 0.04 3.07 C0.2 2.35, 0.66 1.45, 1.35 0.99 C2.04 0.54, 3.74 0.53, 4.18 0.36 C4.63 0.19, 4.03 0.01, 3.99 -0.02 M3.89 -0.22 C4.74 -0.19, 5.63 0.49, 6.17 1.04 C6.7 1.59, 6.89 2.28, 7.1 3.08 C7.3 3.88, 7.71 5.04, 7.37 5.84 C7.03 6.64, 5.81 7.64, 5.06 7.9 C4.31 8.16, 3.61 7.66, 2.87 7.42 C2.13 7.18, 1.09 7.13, 0.62 6.45 C0.14 5.78, -0.06 4.21, 0.03 3.35 C0.13 2.48, 0.57 1.82, 1.2 1.26 C1.82 0.7, 3.34 0.28, 3.77 0.01 C4.19 -0.26, 3.79 -0.47, 3.74 -0.36" stroke="#6741d9" stroke-width="1" fill="none"></path></g><g stroke-linecap="round" transform="translate(399.5300498938436 416.63076045322146) rotate(0 3.647202117436507 3.951135627222925)"><path d="M1.36 1.18 C1.36 1.18, 1.36 1.18, 1.36 1.18 M1.36 1.18 C1.36 1.18, 1.36 1.18, 1.36 1.18 M1.75 6.82 C3.58 4.89, 5.13 2.59, 6.35 1.54 M1.75 6.82 C2.95 5.48, 4.4 3.99, 6.35 1.54 M2.56 7.73 C2.56 7.73, 2.56 7.73, 2.56 7.73 M2.56 7.73 C2.56 7.73, 2.56 7.73, 2.56 7.73 M6.69 6.02 C5.05 4.57, 3.06 2.93, 1.41 1.43 M6.69 6.02 C5.06 4.6, 3.27 3.11, 1.41 1.43" stroke="#d0bfff" stroke-width="0.5" fill="none"></path><path d="M3.47 0.07 C4.2 -0.09, 4.84 -0.09, 5.41 0.37 C5.98 0.83, 6.67 1.99, 6.89 2.84 C7.11 3.7, 6.97 4.72, 6.74 5.51 C6.52 6.3, 6.2 7.17, 5.55 7.58 C4.89 7.99, 3.6 8.23, 2.83 7.97 C2.06 7.7, 1.46 6.64, 0.95 5.98 C0.44 5.32, -0.26 4.77, -0.22 4.01 C-0.19 3.25, 0.56 2.1, 1.15 1.42 C1.75 0.74, 2.93 0.15, 3.34 -0.05 C3.75 -0.25, 3.57 0.15, 3.6 0.21 M3.87 -0.08 C4.63 0.01, 5.8 0.99, 6.38 1.65 C6.96 2.31, 7.35 3.05, 7.36 3.86 C7.37 4.68, 6.86 5.91, 6.42 6.53 C5.99 7.14, 5.44 7.43, 4.73 7.55 C4.03 7.66, 3 7.5, 2.22 7.22 C1.43 6.94, 0.32 6.63, 0 5.9 C-0.32 5.16, -0.02 3.62, 0.29 2.79 C0.59 1.95, 1.15 1.31, 1.82 0.89 C2.49 0.47, 3.89 0.45, 4.3 0.27 C4.71 0.08, 4.31 -0.2, 4.29 -0.21" stroke="#6741d9" stroke-width="1" fill="none"></path></g><g stroke-linecap="round" transform="translate(235.87988470183154 420.14402564371676) rotate(0 3.647202117436507 3.951135627222925)"><path d="M1.86 0.29 C1.86 0.29, 1.86 0.29, 1.86 0.29 M1.86 0.29 C1.86 0.29, 1.86 0.29, 1.86 0.29 M1.6 6.69 C3.16 4.7, 4.8 3.2, 6.19 1.41 M1.6 6.69 C3 5.07, 4.53 3.27, 6.19 1.41 M1.56 7.35 C1.56 7.35, 1.56 7.35, 1.56 7.35 M1.56 7.35 C1.56 7.35, 1.56 7.35, 1.56 7.35 M6.45 6.3 C4.98 5.21, 3.61 3.96, 1.16 1.71 M6.45 6.3 C4.99 5.09, 3.5 3.76, 1.16 1.71" stroke="#d0bfff" stroke-width="0.5" fill="none"></path><path d="M3.94 0.1 C4.6 0.09, 5.46 0.52, 5.97 1.18 C6.49 1.83, 6.97 3.19, 7.05 4.02 C7.13 4.85, 6.83 5.51, 6.46 6.14 C6.08 6.77, 5.59 7.57, 4.81 7.81 C4.03 8.04, 2.48 7.89, 1.77 7.54 C1.06 7.18, 0.86 6.5, 0.56 5.66 C0.27 4.82, -0.19 3.36, -0.01 2.5 C0.18 1.64, 1.01 0.94, 1.68 0.5 C2.36 0.07, 3.59 -0.07, 4.04 -0.1 C4.49 -0.13, 4.37 0.21, 4.36 0.32 M3.97 0 C4.71 -0.17, 5.26 -0.02, 5.75 0.51 C6.24 1.04, 6.7 2.24, 6.92 3.18 C7.13 4.12, 7.46 5.32, 7.04 6.15 C6.61 6.97, 5.11 7.83, 4.38 8.13 C3.66 8.43, 3.4 8.26, 2.68 7.94 C1.95 7.61, 0.44 6.98, 0.03 6.18 C-0.38 5.39, -0.06 4.06, 0.22 3.19 C0.5 2.33, 1.18 1.59, 1.7 0.98 C2.22 0.37, 2.99 -0.26, 3.33 -0.44 C3.67 -0.62, 3.67 -0.22, 3.73 -0.1" stroke="#6741d9" stroke-width="1" fill="none"></path></g><g stroke-linecap="round"><g transform="translate(42.4842478875521 102.88532479815916) rotate(0 51.64032024472414 0.03026454657464228)"><path d="M-1.01 0.48 C15.89 0.61, 84.76 -0.01, 102.27 0.05 M0.66 -0.31 C17.84 0.08, 87.28 1.71, 104.45 1.59" stroke="#1971c2" stroke-width="2" fill="none"></path></g><g transform="translate(42.4842478875521 102.88532479815916) rotate(0 51.64032024472414 0.03026454657464228)"><path d="M80.87 9.89 C90.53 5.3, 98.53 5.18, 104.45 1.59 M80.87 9.89 C90.34 6.17, 98.52 3.71, 104.45 1.59" stroke="#1971c2" stroke-width="2" fill="none"></path></g><g transform="translate(42.4842478875521 102.88532479815916) rotate(0 51.64032024472414 0.03026454657464228)"><path d="M81.05 -7.21 C90.54 -5.41, 98.48 0.86, 104.45 1.59 M81.05 -7.21 C90.62 -4.64, 98.73 -0.82, 104.45 1.59" stroke="#1971c2" stroke-width="2" fill="none"></path></g></g><mask></mask><g stroke-linecap="round"><g transform="translate(43.02245746580729 182.6598089086134) rotate(0 51.81407076124822 0.8857106113033808)"><path d="M-1.15 -0.72 C16.25 -0.37, 86.95 1.1, 104.47 1.58 M0.45 1.51 C17.75 2.1, 86.8 3.26, 103.96 3.02" stroke="#2f9e44" stroke-width="2" fill="none"></path></g><g transform="translate(43.02245746580729 182.6598089086134) rotate(0 51.81407076124822 0.8857106113033808)"><path d="M80.43 11.48 C86.54 10.48, 94.7 7.06, 103.96 3.02 M80.43 11.48 C87.85 8.47, 96.44 6.28, 103.96 3.02" stroke="#2f9e44" stroke-width="2" fill="none"></path></g><g transform="translate(43.02245746580729 182.6598089086134) rotate(0 51.81407076124822 0.8857106113033808)"><path d="M80.5 -5.62 C86.51 -1.33, 94.66 0.53, 103.96 3.02 M80.5 -5.62 C88.02 -2.91, 96.58 0.62, 103.96 3.02" stroke="#2f9e44" stroke-width="2" fill="none"></path></g></g><mask></mask><g transform="translate(67.82235458230218 142.0414362557416) rotate(0 17.78413795683724 16.580671851233404)"><text x="0" y="23.239469666688734" font-family="Virgil, Segoe UI Emoji" font-size="26.52907496197344px" fill="#2f9e44" text-anchor="start" style="white-space: pre;" direction="ltr" dominant-baseline="alphabetic">2</text></g><g transform="translate(71.6223803031786 64.35608573670618) rotate(0 11.922730212145325 16.580671851233404)"><text x="0" y="23.239469666688734" font-family="Virgil, Segoe UI Emoji" font-size="26.52907496197344px" fill="#1971c2" text-anchor="start" style="white-space: pre;" direction="ltr" dominant-baseline="alphabetic">1</text></g><g transform="translate(51.87956357884127 228.46234145672355) rotate(0 43.37180106081104 14.012920231136405)"><text x="0" y="19.640508995960808" font-family="Virgil, Segoe UI Emoji" font-size="22.42067236981827px" fill="#6741d9" text-anchor="start" style="white-space: pre;" direction="ltr" dominant-baseline="alphabetic">Vertices</text></g><g stroke-linecap="round"><g transform="translate(48.33672113362775 345.83053566756064) rotate(0 50.92836014994475 0.4428553056516762)"><path d="M0.18 -0.45 C16.85 -0.62, 84.1 -0.15, 101.06 -0.01" stroke="#1e1e1e" stroke-width="2.5" fill="none" stroke-dasharray="8 10"></path></g><g transform="translate(48.33672113362775 345.83053566756064) rotate(0 50.92836014994475 0.4428553056516762)"><path d="M77.51 8.37 C85.82 3.76, 94.2 2.06, 101.06 -0.01" stroke="#1e1e1e" stroke-width="2.5" fill="none"></path></g><g transform="translate(48.33672113362775 345.83053566756064) rotate(0 50.92836014994475 0.4428553056516762)"><path d="M77.63 -8.73 C86.04 -6.71, 94.37 -1.78, 101.06 -0.01" stroke="#1e1e1e" stroke-width="2.5" fill="none"></path></g></g><mask></mask><g transform="translate(49.22243174493099 308.3431216710901) rotate(0 42.4517349491162 15.015192523032681)"><text x="0" y="21.045293840282604" font-family="Virgil, Segoe UI Emoji" font-size="24.024308036852286px" fill="#1e1e1e" text-anchor="start" style="white-space: pre;" direction="ltr" dominant-baseline="alphabetic">d0 = </text></g><g stroke-linecap="round"><g transform="translate(376.0496473158813 449.25870291093327) rotate(0 -59.342610957327 -1.3285659169550854)"><path d="M-0.18 -0.09 C-19.74 -0.3, -98.82 -1.4, -118.42 -1.9" stroke="#1e1e1e" stroke-width="2.5" fill="none" stroke-dasharray="8 10"></path></g><g transform="translate(376.0496473158813 449.25870291093327) rotate(0 -59.342610957327 -1.3285659169550854)"><path d="M-94.77 -10.01 C-99.95 -7.89, -103.51 -5.11, -118.42 -1.9" stroke="#1e1e1e" stroke-width="2.5" fill="none"></path></g><g transform="translate(376.0496473158813 449.25870291093327) rotate(0 -59.342610957327 -1.3285659169550854)"><path d="M-95.09 7.09 C-100.11 5.6, -103.61 4.79, -118.42 -1.9" stroke="#1e1e1e" stroke-width="2.5" fill="none"></path></g></g><mask></mask><g stroke-linecap="round"><g transform="translate(539.9061104070081 454.5729665787536) rotate(0 -56.685479123416826 -2.657131833910171)"><path d="M-0.62 0.68 C-19.38 -0.31, -94.46 -5.14, -113.19 -6.1" stroke="#1e1e1e" stroke-width="2.5" fill="none" stroke-dasharray="8 10"></path></g><g transform="translate(539.9061104070081 454.5729665787536) rotate(0 -56.685479123416826 -2.657131833910171)"><path d="M-89.24 -13.26 C-94.05 -11.31, -102.42 -9.24, -113.19 -6.1" stroke="#1e1e1e" stroke-width="2.5" fill="none"></path></g><g transform="translate(539.9061104070081 454.5729665787536) rotate(0 -56.685479123416826 -2.657131833910171)"><path d="M-90.24 3.81 C-94.78 1.54, -102.91 -0.62, -113.19 -6.1" stroke="#1e1e1e" stroke-width="2.5" fill="none"></path></g></g><mask></mask><g stroke-linecap="round"><g transform="translate(592.163036473908 287.1736610424132) rotate(0 1.3285659169550854 57.12833442906856)"><path d="M0.47 0.28 C0.95 19.23, 2.2 96.08, 2.62 114.88" stroke="#1e1e1e" stroke-width="2.5" fill="none" stroke-dasharray="8 10"></path></g><g transform="translate(592.163036473908 287.1736610424132) rotate(0 1.3285659169550854 57.12833442906856)"><path d="M-6.37 91.55 C-3.19 97.94, -0.11 105.02, 2.62 114.88" stroke="#1e1e1e" stroke-width="2.5" fill="none"></path></g><g transform="translate(592.163036473908 287.1736610424132) rotate(0 1.3285659169550854 57.12833442906856)"><path d="M10.72 91.23 C9.16 97.77, 7.49 104.94, 2.62 114.88" stroke="#1e1e1e" stroke-width="2.5" fill="none"></path></g></g><mask></mask><g stroke-linecap="round"><g transform="translate(590.3916152513013 128.63146161910674) rotate(0 1.3285659169550854 50.92836014994481)"><path d="M-0.11 0.23 C0.52 17.34, 3.37 84.93, 3.77 101.75" stroke="#1e1e1e" stroke-width="2.5" fill="none" stroke-dasharray="8 10"></path></g><g transform="translate(590.3916152513013 128.63146161910674) rotate(0 1.3285659169550854 50.92836014994481)"><path d="M-5.58 78.56 C-2.59 87.34, -0.37 91.84, 3.77 101.75" stroke="#1e1e1e" stroke-width="2.5" fill="none"></path></g><g transform="translate(590.3916152513013 128.63146161910674) rotate(0 1.3285659169550854 50.92836014994481)"><path d="M11.51 77.97 C9.41 86.91, 6.53 91.58, 3.77 101.75" stroke="#1e1e1e" stroke-width="2.5" fill="none"></path></g></g><mask></mask><g stroke-linecap="round"><g transform="translate(429.1922839940846 42.71753232267804) rotate(0 59.78546626297873 16.828501614764377)"><path d="M0.84 1.04 C21.09 6.5, 100.57 28.46, 120.31 33.93" stroke="#1e1e1e" stroke-width="2.5" fill="none" stroke-dasharray="8 10"></path></g><g transform="translate(429.1922839940846 42.71753232267804) rotate(0 59.78546626297873 16.828501614764377)"><path d="M95.39 35.91 C102.11 36.56, 105.86 34.43, 120.31 33.93" stroke="#1e1e1e" stroke-width="2.5" fill="none"></path></g><g transform="translate(429.1922839940846 42.71753232267804) rotate(0 59.78546626297873 16.828501614764377)"><path d="M99.95 19.43 C105.92 23.43, 108.75 24.62, 120.31 33.93" stroke="#1e1e1e" stroke-width="2.5" fill="none"></path></g></g><mask></mask><g stroke-linecap="round"><g transform="translate(259.135846623834 73.71740371829662) rotate(0 56.24262381776515 -16.385646309112673)"><path d="M0.89 -0.3 C19.65 -5.8, 93.47 -28.07, 111.93 -33.52" stroke="#1e1e1e" stroke-width="2.5" fill="none" stroke-dasharray="8 10"></path></g><g transform="translate(259.135846623834 73.71740371829662) rotate(0 56.24262381776515 -16.385646309112673)"><path d="M91.87 -18.6 C96.41 -23.36, 100.61 -27.49, 111.93 -33.52" stroke="#1e1e1e" stroke-width="2.5" fill="none"></path></g><g transform="translate(259.135846623834 73.71740371829662) rotate(0 56.24262381776515 -16.385646309112673)"><path d="M86.98 -34.99 C92.66 -35.73, 98.07 -35.8, 111.93 -33.52" stroke="#1e1e1e" stroke-width="2.5" fill="none"></path></g></g><mask></mask><g stroke-linecap="round"><g transform="translate(215.73602666996806 231.37389253029977) rotate(0 -1.7714212226067616 -52.6997813725516)"><path d="M-0.5 0.88 C-0.98 -16.62, -2.9 -88.53, -3.33 -106.08" stroke="#1e1e1e" stroke-width="2.5" fill="none" stroke-dasharray="8 10"></path></g><g transform="translate(215.73602666996806 231.37389253029977) rotate(0 -1.7714212226067616 -52.6997813725516)"><path d="M5.83 -82.82 C5.07 -88.67, 0.04 -94.42, -3.33 -106.08" stroke="#1e1e1e" stroke-width="2.5" fill="none"></path></g><g transform="translate(215.73602666996806 231.37389253029977) rotate(0 -1.7714212226067616 -52.6997813725516)"><path d="M-11.27 -82.38 C-7.48 -88.27, -7.98 -94.14, -3.33 -106.08" stroke="#1e1e1e" stroke-width="2.5" fill="none"></path></g></g><mask></mask><g stroke-linecap="round"><g transform="translate(211.30747361345107 399.6589086779435) rotate(0 -0.4428553056516762 -57.1283344290685)"><path d="M-0.66 0.16 C-0.92 -18.86, -0.5 -94.04, -0.72 -113.19" stroke="#1e1e1e" stroke-width="2.5" fill="none" stroke-dasharray="8 10"></path></g><g transform="translate(211.30747361345107 399.6589086779435) rotate(0 -0.4428553056516762 -57.1283344290685)"><path d="M7.88 -89.71 C4.79 -98.16, 3.12 -108.94, -0.72 -113.19" stroke="#1e1e1e" stroke-width="2.5" fill="none"></path></g><g transform="translate(211.30747361345107 399.6589086779435) rotate(0 -0.4428553056516762 -57.1283344290685)"><path d="M-9.22 -89.68 C-5.99 -98.04, -1.33 -108.84, -0.72 -113.19" stroke="#1e1e1e" stroke-width="2.5" fill="none"></path></g></g><mask></mask><g stroke-linecap="round"><g transform="translate(233.45023889603578 366.00190544841473) rotate(0 -9.299961418685598 0)"><path d="M0.26 0.33 C-2.96 0.36, -15.69 -0.12, -18.85 -0.25 M-0.26 0.03 C-3.62 0.16, -16.28 0.34, -19.41 0.32" stroke="#2f9e44" stroke-width="2" fill="none"></path></g><g transform="translate(233.45023889603578 366.00190544841473) rotate(0 -9.299961418685598 0)"><path d="M-10.7 -2.91 C-13.83 -1.84, -17.72 -0.44, -19.41 0.32 M-10.7 -2.91 C-12.63 -2.33, -14.75 -1.32, -19.41 0.32" stroke="#2f9e44" stroke-width="2" fill="none"></path></g><g transform="translate(233.45023889603578 366.00190544841473) rotate(0 -9.299961418685598 0)"><path d="M-10.65 3.45 C-13.78 2.04, -17.68 0.96, -19.41 0.32 M-10.65 3.45 C-12.6 2.63, -14.73 2.24, -19.41 0.32" stroke="#2f9e44" stroke-width="2" fill="none"></path></g></g><mask></mask><g stroke-linecap="round"><g transform="translate(335.3069591959254 430.6587800735622) rotate(0 0.44285530565173303 7.5285401960787794)"><path d="M-0.05 -0.44 C0.08 2.04, 0.3 12.7, 0.38 15.22 M-0.74 0.53 C-0.41 2.8, 0.97 11.91, 1.35 14.34" stroke="#2f9e44" stroke-width="2" fill="none"></path></g><g transform="translate(335.3069591959254 430.6587800735622) rotate(0 0.44285530565173303 7.5285401960787794)"><path d="M-2.27 7.73 C-1.75 8.84, -0.53 10.34, 1.35 14.34 M-2.27 7.73 C-1.28 9.4, -0.46 11.04, 1.35 14.34" stroke="#2f9e44" stroke-width="2" fill="none"></path></g><g transform="translate(335.3069591959254 430.6587800735622) rotate(0 0.44285530565173303 7.5285401960787794)"><path d="M2.83 6.95 C2.22 8.23, 2.31 9.91, 1.35 14.34 M2.83 6.95 C2.62 8.8, 2.24 10.62, 1.35 14.34" stroke="#2f9e44" stroke-width="2" fill="none"></path></g></g><mask></mask><g stroke-linecap="round"><g transform="translate(503.5919753435692 432.4302012961689) rotate(0 0.44285530565173303 7.9713955017305125)"><path d="M0.53 -0.24 C0.76 2.53, 0.98 13.59, 0.98 16.2 M0.14 0.82 C0.34 3.47, 0.34 12.88, 0.6 15.37" stroke="#2f9e44" stroke-width="2" fill="none"></path></g><g transform="translate(503.5919753435692 432.4302012961689) rotate(0 0.44285530565173303 7.9713955017305125)"><path d="M-2.48 8 C-1.97 9.77, -0.89 11.16, 0.6 15.37 M-2.48 8 C-1.7 9.38, -1.23 11.07, 0.6 15.37" stroke="#2f9e44" stroke-width="2" fill="none"></path></g><g transform="translate(503.5919753435692 432.4302012961689) rotate(0 0.44285530565173303 7.9713955017305125)"><path d="M2.97 7.74 C2.22 9.59, 2.03 11.05, 0.6 15.37 M2.97 7.74 C2.62 9.18, 1.95 10.92, 0.6 15.37" stroke="#2f9e44" stroke-width="2" fill="none"></path></g></g><mask></mask><g stroke-linecap="round"><g transform="translate(572.6774030252336 324.3735067171556) rotate(0 7.971395501730399 0)"><path d="M-0.1 -0.21 C2.7 -0.38, 13.66 -0.47, 16.35 -0.51 M-0.81 -0.79 C1.99 -0.67, 13.37 -0.19, 16.13 -0.07" stroke="#2f9e44" stroke-width="2" fill="none"></path></g><g transform="translate(572.6774030252336 324.3735067171556) rotate(0 7.971395501730399 0)"><path d="M8.53 2.34 C10.05 2.11, 11.51 1.36, 16.13 -0.07 M8.53 2.34 C10.13 1.77, 11.76 1.1, 16.13 -0.07" stroke="#2f9e44" stroke-width="2" fill="none"></path></g><g transform="translate(572.6774030252336 324.3735067171556) rotate(0 7.971395501730399 0)"><path d="M8.77 -3.11 C10.25 -2.14, 11.66 -1.68, 16.13 -0.07 M8.77 -3.11 C10.33 -2.49, 11.91 -1.97, 16.13 -0.07" stroke="#2f9e44" stroke-width="2" fill="none"></path></g></g><mask></mask><g stroke-linecap="round"><g transform="translate(569.13456058002 164.05988607124226) rotate(0 7.9713955017305125 -0.4428553056517046)"><path d="M-0.4 0.13 C2.3 0.02, 13.23 -0.69, 16.03 -0.94 M0.4 -0.28 C3.04 -0.27, 13 -0.15, 15.65 -0.27" stroke="#2f9e44" stroke-width="2" fill="none"></path></g><g transform="translate(569.13456058002 164.05988607124226) rotate(0 7.9713955017305125 -0.4428553056517046)"><path d="M8.18 2.56 C10.35 1.87, 12.28 1.36, 15.65 -0.27 M8.18 2.56 C9.62 1.83, 11.15 1.25, 15.65 -0.27" stroke="#2f9e44" stroke-width="2" fill="none"></path></g><g transform="translate(569.13456058002 164.05988607124226) rotate(0 7.9713955017305125 -0.4428553056517046)"><path d="M8.11 -2.9 C10.28 -2.08, 12.23 -1.08, 15.65 -0.27 M8.11 -2.9 C9.55 -2.48, 11.09 -1.9, 15.65 -0.27" stroke="#2f9e44" stroke-width="2" fill="none"></path></g></g><mask></mask><g stroke-linecap="round"><g transform="translate(462.8492872236134 77.2602461635102) rotate(0 2.214276528258438 -7.528540196078808)"><path d="M0.33 -0.27 C0.96 -2.79, 3.24 -12.58, 3.93 -15.01 M-0.17 0.77 C0.62 -1.65, 4.19 -11.52, 4.91 -14.28" stroke="#2f9e44" stroke-width="2" fill="none"></path></g><g transform="translate(462.8492872236134 77.2602461635102) rotate(0 2.214276528258438 -7.528540196078808)"><path d="M5.25 -6.44 C4.94 -9.29, 5.07 -11.38, 4.91 -14.28 M5.25 -6.44 C5.08 -9.19, 5.17 -11.6, 4.91 -14.28" stroke="#2f9e44" stroke-width="2" fill="none"></path></g><g transform="translate(462.8492872236134 77.2602461635102) rotate(0 2.214276528258438 -7.528540196078808)"><path d="M0.13 -8.06 C1.45 -10.4, 3.2 -11.98, 4.91 -14.28 M0.13 -8.06 C1.68 -10.28, 3.49 -12.15, 4.91 -14.28" stroke="#2f9e44" stroke-width="2" fill="none"></path></g></g><mask></mask><g stroke-linecap="round"><g transform="translate(298.1071135211831 79.91737799742037) rotate(0 -1.7714212226067616 -5.314263667820342)"><path d="M0.02 -0.43 C-0.59 -2.22, -2.62 -9.5, -3.3 -11.16 M-0.63 0.55 C-1.33 -1.18, -3.21 -8.75, -3.6 -10.73" stroke="#2f9e44" stroke-width="2" fill="none"></path></g><g transform="translate(298.1071135211831 79.91737799742037) rotate(0 -1.7714212226067616 -5.314263667820342)"><path d="M-0.56 -6.03 C-1.89 -7.65, -3.08 -9.78, -3.6 -10.73 M-0.56 -6.03 C-1.56 -7.71, -2.57 -9.1, -3.6 -10.73" stroke="#2f9e44" stroke-width="2" fill="none"></path></g><g transform="translate(298.1071135211831 79.91737799742037) rotate(0 -1.7714212226067616 -5.314263667820342)"><path d="M-4.3 -5.18 C-4.24 -7.12, -4.03 -9.56, -3.6 -10.73 M-4.3 -5.18 C-4.01 -7.16, -3.75 -8.84, -3.6 -10.73" stroke="#2f9e44" stroke-width="2" fill="none"></path></g></g><mask></mask><g stroke-linecap="round"><g transform="translate(237.87879195255277 191.51691502164726) rotate(0 -8.414250807382189 -0.8857106113033808)"><path d="M-0.06 -0.36 C-2.81 -0.68, -13.56 -1.88, -16.31 -2.19 M-0.76 0.65 C-3.55 0.41, -13.8 -1.28, -16.48 -1.71" stroke="#2f9e44" stroke-width="2" fill="none"></path></g><g transform="translate(237.87879195255277 191.51691502164726) rotate(0 -8.414250807382189 -0.8857106113033808)"><path d="M-8.17 -3.3 C-11.2 -2.38, -14 -2.08, -16.48 -1.71 M-8.17 -3.3 C-9.83 -2.96, -11.92 -2.75, -16.48 -1.71" stroke="#2f9e44" stroke-width="2" fill="none"></path></g><g transform="translate(237.87879195255277 191.51691502164726) rotate(0 -8.414250807382189 -0.8857106113033808)"><path d="M-9.09 2.41 C-11.8 1.44, -14.3 -0.15, -16.48 -1.71 M-9.09 2.41 C-10.54 1.54, -12.44 0.53, -16.48 -1.71" stroke="#2f9e44" stroke-width="2" fill="none"></path></g></g><mask></mask></svg>