<svg version="1.1" xmlns="http://www.w3.org/2000/svg" viewBox="0 0 656 498" width="1968" height="1494">
  <!-- svg-source:excalidraw -->
  
  <defs>
    <style class="style-fonts">
      @font-face {
        font-family: "Virgil";
        src: url("https://excalidraw.com/Virgil.woff2");
      }
      @font-face {
        font-family: "Cascadia";
        src: url("https://excalidraw.com/Cascadia.woff2");
      }
      @font-face {
        font-family: "Assistant";
        src: url("https://excalidraw.com/Assistant-Regular.woff2");
      }
    </style>
    
  </defs>
  <g stroke-linecap="round" transform="translate(10 10) rotate(0 318 239)"><path d="M32 0 C203.26 2.62, 373.75 2.88, 604 0 C626.91 3.01, 632.93 13.81, 636 32 C633.54 170.15, 630.34 303.36, 636 446 C637.96 469.32, 623.71 478, 604 478 C409.72 476.55, 213.01 477.81, 32 478 C7.57 475.17, 3.18 469.9, 0 446 C-0.58 323.4, -0.15 201.4, 0 32 C-3.36 8.31, 7.99 3.49, 32 0" stroke="none" stroke-width="0" fill="#ffffff"></path><path d="M32 0 C229.33 2.4, 428.29 2.63, 604 0 M32 0 C256.01 -2.02, 479.64 -2.05, 604 0 M604 0 C624.83 -0.99, 635.51 9.16, 636 32 M604 0 C623.75 1.13, 635.38 8.65, 636 32 M636 32 C635.12 176.43, 634.12 318.72, 636 446 M636 32 C636.18 151.04, 635.78 270.08, 636 446 M636 446 C637.05 468.59, 624.57 477.79, 604 478 M636 446 C636.58 466.02, 625.5 477.29, 604 478 M604 478 C442.89 480.61, 283.43 480.82, 32 478 M604 478 C395.28 477.34, 186.97 477.05, 32 478 M32 478 C12.29 476.9, -1.1 465.86, 0 446 M32 478 C11.29 475.91, 0.56 468.49, 0 446 M0 446 C-0.67 351.35, -0.22 254.38, 0 32 M0 446 C0.54 300.5, 0.36 154.46, 0 32 M0 32 C-0.72 12.57, 10.25 -1.26, 32 0 M0 32 C-2.11 9.23, 10.14 -1.88, 32 0" stroke="#1e1e1e" stroke-width="2" fill="none"></path></g><g stroke-linecap="round"><g transform="translate(166.5606465017039 450.71591418618414) rotate(0 69.82697210145477 0)"><path d="M0.92 0.03 C24.27 0.09, 116.9 -0.47, 139.85 -0.37 M-0.05 -1 C23.17 -0.7, 115.5 1.04, 139 0.97" stroke="#1e1e1e" stroke-width="2" fill="none"></path></g><g transform="translate(166.5606465017039 450.71591418618414) rotate(0 69.82697210145477 0)"><path d="M115.43 9.3 C122.16 7.11, 128.11 2.72, 139 0.97 M115.43 9.3 C124.09 7.4, 131.1 3.51, 139 0.97" stroke="#1e1e1e" stroke-width="2" fill="none"></path></g><g transform="translate(166.5606465017039 450.71591418618414) rotate(0 69.82697210145477 0)"><path d="M115.59 -7.8 C122.17 -5.19, 128.07 -4.78, 139 0.97 M115.59 -7.8 C124.21 -3.7, 131.16 -1.59, 139 0.97" stroke="#1e1e1e" stroke-width="2" fill="none"></path></g></g><mask></mask><g mask="url(#mask-qdUq-_dOOA5BLGJsCqTBb)" stroke-linecap="round"><g transform="translate(315.3837890613703 425.3242879674733) rotate(0 -0.7053229505197578 -60.30511226943821)"><path d="M1 0.43 C1.15 -19.57, -0.05 -100.02, -0.3 -120.17 M0.07 -0.38 C0.26 -20.74, -0.53 -102.28, -0.67 -122.06" stroke="#e03131" stroke-width="2" fill="none"></path></g><g transform="translate(315.3837890613703 425.3242879674733) rotate(0 -0.7053229505197578 -60.30511226943821)"><path d="M8.07 -98.64 C7.07 -101.43, 5.32 -106.46, -0.67 -122.06 M8.07 -98.64 C5.03 -105.14, 3.4 -113.9, -0.67 -122.06" stroke="#e03131" stroke-width="2" fill="none"></path></g><g transform="translate(315.3837890613703 425.3242879674733) rotate(0 -0.7053229505197578 -60.30511226943821)"><path d="M-9.03 -98.5 C-6.6 -101.46, -4.91 -106.52, -0.67 -122.06 M-9.03 -98.5 C-6.76 -105.19, -3.09 -113.99, -0.67 -122.06" stroke="#e03131" stroke-width="2" fill="none"></path></g></g><mask id="mask-qdUq-_dOOA5BLGJsCqTBb"><rect x="0" y="0" fill="#fff" width="416.7944349624098" height="645.9345125063496"></rect><rect x="304.42846611085054" y="355.01917569803504" fill="#000" width="20.5" height="20" opacity="1"></rect></mask><g transform="translate(304.42846611085054 355.01917569803504) rotate(0 11.127136920518353 9.490739413192614)"><text x="10.25" y="14.016" font-family="Virgil, Segoe UI Emoji" font-size="16px" fill="#1e1e1e" text-anchor="middle" style="white-space: pre;" direction="ltr" dominant-baseline="alphabetic">d2</text></g><g stroke-linecap="round"><g transform="translate(292.1081316942185 283.6142864948067) rotate(0 -62.42108112099743 -0.8043760519913121)"><path d="M-0.62 -1.16 C-21.3 -1.27, -103.43 -1.11, -124.25 -1.08 M1.26 0.85 C-19.51 0.41, -103.57 -2.29, -124.88 -2.93" stroke="#1e1e1e" stroke-width="2" fill="none"></path></g><g transform="translate(292.1081316942185 283.6142864948067) rotate(0 -62.42108112099743 -0.8043760519913121)"><path d="M-101.14 -10.74 C-109.89 -7.63, -113.88 -7.49, -124.88 -2.93 M-101.14 -10.74 C-108.66 -8.76, -118.71 -5.1, -124.88 -2.93" stroke="#1e1e1e" stroke-width="2" fill="none"></path></g><g transform="translate(292.1081316942185 283.6142864948067) rotate(0 -62.42108112099743 -0.8043760519913121)"><path d="M-101.67 6.35 C-110.21 4.57, -114.05 -0.19, -124.88 -2.93 M-101.67 6.35 C-108.84 2.3, -118.7 -0.07, -124.88 -2.93" stroke="#1e1e1e" stroke-width="2" fill="none"></path></g></g><mask></mask><g stroke-linecap="round"><g transform="translate(149.63289568923017 300.76563771283054) rotate(0 0 64.33257021896185)"><path d="M1.14 0.55 C1.3 21.96, 1.3 107.46, 1.16 128.89 M0.27 -0.21 C0.37 20.79, 0.92 105.68, 0.82 126.89" stroke="#1e1e1e" stroke-width="2" fill="none"></path></g><g transform="translate(149.63289568923017 300.76563771283054) rotate(0 0 64.33257021896185)"><path d="M-7.77 103.41 C-4.09 112.6, -1.94 118.47, 0.82 126.89 M-7.77 103.41 C-4.52 111.6, -1.42 118.69, 0.82 126.89" stroke="#1e1e1e" stroke-width="2" fill="none"></path></g><g transform="translate(149.63289568923017 300.76563771283054) rotate(0 0 64.33257021896185)"><path d="M9.33 103.38 C7.67 112.74, 4.47 118.63, 0.82 126.89 M9.33 103.38 C6.77 111.5, 4.06 118.59, 0.82 126.89" stroke="#1e1e1e" stroke-width="2" fill="none"></path></g></g><mask></mask><g stroke-linecap="round"><g transform="translate(176.4351678089805 292.7235732697611) rotate(0 -8.816536881496802 9.874521307276439)"><path d="M0.92 0.92 C0.25 3.44, -0.9 10.97, -3.88 14.13 C-6.86 17.28, -14.68 18.92, -16.95 19.85 M-0.06 0.36 C-0.86 3.18, -1.76 12.2, -4.64 15.67 C-7.52 19.15, -15.27 20.37, -17.35 21.23" stroke="#228be6" stroke-width="2" fill="none"></path></g><g transform="translate(176.4351678089805 292.7235732697611) rotate(0 -8.816536881496802 9.874521307276439)"><path d="M-11.51 16.91 C-12.79 18.5, -15.14 20.03, -17.35 21.23 M-11.51 16.91 C-13.66 18.34, -14.96 19.47, -17.35 21.23" stroke="#228be6" stroke-width="2" fill="none"></path></g><g transform="translate(176.4351678089805 292.7235732697611) rotate(0 -8.816536881496802 9.874521307276439)"><path d="M-10.1 21.68 C-11.78 21.81, -14.56 21.87, -17.35 21.23 M-10.1 21.68 C-12.69 21.63, -14.43 21.3, -17.35 21.23" stroke="#228be6" stroke-width="2" fill="none"></path></g></g><mask></mask><g stroke-linecap="round"><g transform="translate(162.32870879858547 423.9136420664338) rotate(0 11.637828683575776 9.874521307276439)"><path d="M-0.99 0.85 C2.14 1.87, 14.36 3.08, 18.36 6.04 C22.35 9, 22.16 16.35, 22.95 18.6 M0.69 0.25 C3.77 0.96, 14.23 1.32, 17.79 4.5 C21.34 7.67, 21.1 16.64, 22.01 19.32" stroke="#228be6" stroke-width="2" fill="none"></path></g><g transform="translate(162.32870879858547 423.9136420664338) rotate(0 11.637828683575776 9.874521307276439)"><path d="M18.09 12.43 C19.68 14.75, 20.87 15.87, 22.01 19.32 M18.09 12.43 C19.08 13.51, 19.3 15.1, 22.01 19.32" stroke="#228be6" stroke-width="2" fill="none"></path></g><g transform="translate(162.32870879858547 423.9136420664338) rotate(0 11.637828683575776 9.874521307276439)"><path d="M23.44 11.53 C23.62 14.04, 23.41 15.39, 22.01 19.32 M23.44 11.53 C23.33 12.78, 22.45 14.56, 22.01 19.32" stroke="#228be6" stroke-width="2" fill="none"></path></g></g><mask></mask><g stroke-linecap="round"><g transform="translate(285.7602251395409 438.0201010768285) rotate(0 9.52185983201656 -11.637828683575776)"><path d="M-0.45 1.14 C0.3 -1.64, 0.88 -13.06, 3.95 -17.32 C7.02 -21.58, 15.5 -23.41, 17.98 -24.42 M1.52 0.7 C2.19 -1.87, 0.09 -11.92, 3.22 -15.99 C6.36 -20.05, 17.69 -22.65, 20.31 -23.7" stroke="#228be6" stroke-width="2" fill="none"></path></g><g transform="translate(285.7602251395409 438.0201010768285) rotate(0 9.52185983201656 -11.637828683575776)"><path d="M13.68 -18.57 C16.19 -19.55, 16.8 -21.89, 20.31 -23.7 M13.68 -18.57 C15.32 -19.87, 16.76 -20.5, 20.31 -23.7" stroke="#228be6" stroke-width="2" fill="none"></path></g><g transform="translate(285.7602251395409 438.0201010768285) rotate(0 9.52185983201656 -11.637828683575776)"><path d="M11.94 -24.03 C14.86 -23.62, 15.91 -24.58, 20.31 -23.7 M11.94 -24.03 C13.91 -24.21, 15.72 -23.72, 20.31 -23.7" stroke="#228be6" stroke-width="2" fill="none"></path></g></g><mask></mask><g stroke-linecap="round"><g transform="translate(299.86668414993574 325.1684289936695) rotate(0 -9.874521307276439 -15.517104911434387)"><path d="M1.17 0.68 C-1.82 -0.66, -15.03 -2.84, -18.57 -8.28 C-22.11 -13.71, -19.77 -28.3, -20.08 -31.92 M0.32 0 C-2.24 -1.66, -12.79 -4.76, -16.35 -9.93 C-19.9 -15.11, -20.32 -27.39, -21.02 -31.07" stroke="#228be6" stroke-width="2" fill="none"></path></g><g transform="translate(299.86668414993574 325.1684289936695) rotate(0 -9.874521307276439 -15.517104911434387)"><path d="M-16.02 -21.29 C-16.61 -24.5, -17.66 -26.36, -21.02 -31.07 M-16.02 -21.29 C-16.84 -23.52, -17.76 -26.19, -21.02 -31.07" stroke="#228be6" stroke-width="2" fill="none"></path></g><g transform="translate(299.86668414993574 325.1684289936695) rotate(0 -9.874521307276439 -15.517104911434387)"><path d="M-23.48 -20.36 C-22.23 -23.88, -21.44 -25.97, -21.02 -31.07 M-23.48 -20.36 C-22.6 -22.86, -21.84 -25.74, -21.02 -31.07" stroke="#228be6" stroke-width="2" fill="none"></path></g></g><mask></mask><g stroke-linecap="round"><g transform="translate(344.5606392167357 303.1473183240257) rotate(0 0.3416954435708135 61.16348439918846)"><path d="M0.48 0.16 C0.47 20.59, 1.2 102.91, 1.05 123.33 M-0.72 -0.81 C-0.96 19.24, -0.14 101.51, 0.29 121.74" stroke="#e03131" stroke-width="2" fill="none"></path></g><g transform="translate(344.5606392167357 303.1473183240257) rotate(0 0.3416954435708135 61.16348439918846)"><path d="M-8.6 98.37 C-4.7 108.11, 0.2 114.82, 0.29 121.74 M-8.6 98.37 C-5.96 106.34, -1.83 114.4, 0.29 121.74" stroke="#e03131" stroke-width="2" fill="none"></path></g><g transform="translate(344.5606392167357 303.1473183240257) rotate(0 0.3416954435708135 61.16348439918846)"><path d="M8.5 98.12 C5.69 108.03, 3.88 114.83, 0.29 121.74 M8.5 98.12 C5.46 106.3, 3.91 114.43, 0.29 121.74" stroke="#e03131" stroke-width="2" fill="none"></path></g></g><mask></mask><g stroke-linecap="round"><g transform="translate(360.2786296209963 454.17670438235723) rotate(0 61.163484399188405 0.341695443570984)"><path d="M-0.4 -1.15 C19.96 -0.98, 100.51 -0.25, 121.16 0.12 M1.59 0.86 C22.4 1.27, 102.97 1.69, 123.26 1.36" stroke="#1e1e1e" stroke-width="2" fill="none"></path></g><g transform="translate(360.2786296209963 454.17670438235723) rotate(0 61.163484399188405 0.341695443570984)"><path d="M99.8 10 C102.95 6.28, 108.94 8.3, 123.26 1.36 M99.8 10 C107.47 6.87, 116.23 4.43, 123.26 1.36" stroke="#1e1e1e" stroke-width="2" fill="none"></path></g><g transform="translate(360.2786296209963 454.17670438235723) rotate(0 61.163484399188405 0.341695443570984)"><path d="M99.73 -7.11 C102.77 -7.17, 108.77 -1.5, 123.26 1.36 M99.73 -7.11 C107.32 -4.59, 116.09 -1.39, 123.26 1.36" stroke="#1e1e1e" stroke-width="2" fill="none"></path></g></g><mask></mask><g stroke-linecap="round"><g transform="translate(474.4049077736722 432.3081959938206) rotate(0 -51.59601197920364 -58.088225407050516)"><path d="M-0.2 -0.48 C-17.13 -19.72, -85.22 -96.23, -102.57 -115.47 M-1.77 -1.77 C-18.71 -21.35, -86.49 -98.44, -103.19 -117.23" stroke="#1e1e1e" stroke-width="2" fill="none"></path></g><g transform="translate(474.4049077736722 432.3081959938206) rotate(0 -51.59601197920364 -58.088225407050516)"><path d="M-81.23 -105.28 C-86.77 -106.86, -89.56 -112.3, -103.19 -117.23 M-81.23 -105.28 C-88.53 -108.15, -95.84 -111.78, -103.19 -117.23" stroke="#1e1e1e" stroke-width="2" fill="none"></path></g><g transform="translate(474.4049077736722 432.3081959938206) rotate(0 -51.59601197920364 -58.088225407050516)"><path d="M-94.05 -93.96 C-96.81 -97.97, -96.82 -105.86, -103.19 -117.23 M-94.05 -93.96 C-97.37 -100.51, -100.59 -107.75, -103.19 -117.23" stroke="#1e1e1e" stroke-width="2" fill="none"></path></g></g><mask></mask><g stroke-linecap="round"><g transform="translate(399.2319101880772 309.2978363083016) rotate(0 49.20414387420743 56.72144363276698)"><path d="M1.17 0.13 C17.36 19.03, 82.14 94.16, 98.26 113.22 M0.32 -0.85 C16.25 18.25, 81.14 95.72, 97.24 114.64" stroke="#1e1e1e" stroke-width="2" fill="none"></path></g><g transform="translate(399.2319101880772 309.2978363083016) rotate(0 49.20414387420743 56.72144363276698)"><path d="M75.56 102.19 C84.27 106.63, 92.2 110.93, 97.24 114.64 M75.56 102.19 C83.7 106.4, 93.16 112.36, 97.24 114.64" stroke="#1e1e1e" stroke-width="2" fill="none"></path></g><g transform="translate(399.2319101880772 309.2978363083016) rotate(0 49.20414387420743 56.72144363276698)"><path d="M88.63 91.17 C92.19 100.06, 94.98 108.7, 97.24 114.64 M88.63 91.17 C91.86 99.49, 96.3 109.68, 97.24 114.64" stroke="#1e1e1e" stroke-width="2" fill="none"></path></g></g><mask></mask><g stroke-linecap="round"><g transform="translate(519.5087063250289 427.5244597838282) rotate(0 -2.050172661425222 -67.31400238346441)"><path d="M-0.08 0.47 C-0.73 -21.98, -3.13 -111.22, -3.87 -133.88 M-1.58 -0.32 C-2.38 -23.19, -4.04 -113.22, -4.7 -135.61" stroke="#1e1e1e" stroke-width="2" fill="none"></path></g><g transform="translate(519.5087063250289 427.5244597838282) rotate(0 -2.050172661425222 -67.31400238346441)"><path d="M4.4 -112.33 C2.24 -119.08, -0.09 -127.32, -4.7 -135.61 M4.4 -112.33 C1.38 -116.68, 1.07 -122.34, -4.7 -135.61" stroke="#1e1e1e" stroke-width="2" fill="none"></path></g><g transform="translate(519.5087063250289 427.5244597838282) rotate(0 -2.050172661425222 -67.31400238346441)"><path d="M-12.7 -111.93 C-9.63 -118.79, -6.73 -127.15, -4.7 -135.61 M-12.7 -111.93 C-11.87 -116.36, -8.33 -122.11, -4.7 -135.61" stroke="#1e1e1e" stroke-width="2" fill="none"></path></g></g><mask></mask><g stroke-linecap="round"><g transform="translate(484.6557710807988 281.9622008226311) rotate(0 -58.0882254070504 0)"><path d="M0.16 1 C-18.98 0.74, -96.19 -0.54, -115.65 -0.87 M-1.22 0.48 C-20.4 0.28, -96.93 0.32, -116.32 0.2" stroke="#1e1e1e" stroke-width="2" fill="none"></path></g><g transform="translate(484.6557710807988 281.9622008226311) rotate(0 -58.0882254070504 0)"><path d="M-92.8 -8.29 C-96.55 -5.4, -105.14 -5, -116.32 0.2 M-92.8 -8.29 C-97.08 -6, -103.89 -5.12, -116.32 0.2" stroke="#1e1e1e" stroke-width="2" fill="none"></path></g><g transform="translate(484.6557710807988 281.9622008226311) rotate(0 -58.0882254070504 0)"><path d="M-92.85 8.81 C-96.69 7.72, -105.26 4.16, -116.32 0.2 M-92.85 8.81 C-97.1 7.41, -103.9 4.6, -116.32 0.2" stroke="#1e1e1e" stroke-width="2" fill="none"></path></g></g><mask></mask><g stroke-linecap="round"><g transform="translate(165.5122267855918 249.84282912696767) rotate(0 64.58043883489734 1.0250863307126679)"><path d="M0.55 -0.83 C22.37 -0.28, 108.39 1.92, 129.93 2.28 M-0.62 1.35 C21.19 1.61, 107.72 0.13, 129.39 0.27" stroke="#1e1e1e" stroke-width="2" fill="none"></path></g><g transform="translate(165.5122267855918 249.84282912696767) rotate(0 64.58043883489734 1.0250863307126679)"><path d="M105.96 8.97 C109.83 8.23, 116.78 6.11, 129.39 0.27 M105.96 8.97 C110.84 6.52, 116.64 4.81, 129.39 0.27" stroke="#1e1e1e" stroke-width="2" fill="none"></path></g><g transform="translate(165.5122267855918 249.84282912696767) rotate(0 64.58043883489734 1.0250863307126679)"><path d="M105.84 -8.13 C109.6 -5.09, 116.57 -3.42, 129.39 0.27 M105.84 -8.13 C110.71 -6.53, 116.54 -4.18, 129.39 0.27" stroke="#1e1e1e" stroke-width="2" fill="none"></path></g></g><mask></mask><g stroke-linecap="round"><g transform="translate(365.74575671813045 250.52622001410964) rotate(0 59.455007181334054 1.025086330712611)"><path d="M-0.42 -0.85 C19.17 -0.32, 98.82 2.01, 118.63 2.45 M1.56 1.32 C20.87 1.55, 98.22 0.26, 117.53 0.53" stroke="#1e1e1e" stroke-width="2" fill="none"></path></g><g transform="translate(365.74575671813045 250.52622001410964) rotate(0 59.455007181334054 1.025086330712611)"><path d="M94.06 9.15 C101.9 5.38, 113.17 1.7, 117.53 0.53 M94.06 9.15 C100.78 6.28, 107.17 3.84, 117.53 0.53" stroke="#1e1e1e" stroke-width="2" fill="none"></path></g><g transform="translate(365.74575671813045 250.52622001410964) rotate(0 59.455007181334054 1.025086330712611)"><path d="M94.01 -7.95 C101.76 -5.02, 113.05 -2, 117.53 0.53 M94.01 -7.95 C100.75 -6.06, 107.15 -3.74, 117.53 0.53" stroke="#1e1e1e" stroke-width="2" fill="none"></path></g></g><mask></mask><g stroke-linecap="round"><g transform="translate(296.03988622966983 48.925908307287216) rotate(0 -60.13839806847585 16.059685847831588)"><path d="M1.03 0.9 C-18.96 5.97, -99.79 25.9, -119.94 31.28 M0.11 0.33 C-20 5.45, -100.62 27.2, -120.7 32.38" stroke="#1e1e1e" stroke-width="2" fill="none"></path></g><g transform="translate(296.03988622966983 48.925908307287216) rotate(0 -60.13839806847585 16.059685847831588)"><path d="M-100.18 18.11 C-104.69 23.11, -113.71 27.48, -120.7 32.38 M-100.18 18.11 C-107.71 22.76, -115.66 28.37, -120.7 32.38" stroke="#1e1e1e" stroke-width="2" fill="none"></path></g><g transform="translate(296.03988622966983 48.925908307287216) rotate(0 -60.13839806847585 16.059685847831588)"><path d="M-95.81 34.64 C-101.75 34.75, -112.08 34.19, -120.7 32.38 M-95.81 34.64 C-105.08 32.88, -114.73 32.09, -120.7 32.38" stroke="#1e1e1e" stroke-width="2" fill="none"></path></g></g><mask></mask><g stroke-linecap="round"><g transform="translate(150.47762726847282 109.74769726290486) rotate(0 1.3667817742835382 58.429920850621414)"><path d="M0.95 -1.03 C1.53 18.28, 1.98 97.11, 2.47 116.9 M-0.01 1.04 C0.47 21.07, 0.76 99.33, 1.38 118.46" stroke="#1e1e1e" stroke-width="2" fill="none"></path></g><g transform="translate(150.47762726847282 109.74769726290486) rotate(0 1.3667817742835382 58.429920850621414)"><path d="M-7.54 95.11 C-7.14 99.65, -3.41 107.06, 1.38 118.46 M-7.54 95.11 C-4.56 103.46, -1.7 112.59, 1.38 118.46" stroke="#1e1e1e" stroke-width="2" fill="none"></path></g><g transform="translate(150.47762726847282 109.74769726290486) rotate(0 1.3667817742835382 58.429920850621414)"><path d="M9.55 94.84 C6.27 99.57, 6.3 107.04, 1.38 118.46 M9.55 94.84 C6.16 103.35, 2.64 112.58, 1.38 118.46" stroke="#1e1e1e" stroke-width="2" fill="none"></path></g></g><mask></mask><g stroke-linecap="round"><g transform="translate(513.3581883407528 232.75805694842347) rotate(0 -1.366781774283595 -55.01296641491254)"><path d="M0.9 -0.87 C0.42 -19.19, -1.08 -91.35, -1.79 -109.52 M-0.09 1.29 C-0.73 -17.43, -1.51 -93.07, -2.24 -111.38" stroke="#1e1e1e" stroke-width="2" fill="none"></path></g><g transform="translate(513.3581883407528 232.75805694842347) rotate(0 -1.366781774283595 -55.01296641491254)"><path d="M6.85 -88.09 C1.79 -95.49, 0.55 -107.16, -2.24 -111.38 M6.85 -88.09 C3.9 -95.86, 1.97 -102.19, -2.24 -111.38" stroke="#1e1e1e" stroke-width="2" fill="none"></path></g><g transform="translate(513.3581883407528 232.75805694842347) rotate(0 -1.366781774283595 -55.01296641491254)"><path d="M-10.25 -87.7 C-8.67 -95.38, -3.28 -107.2, -2.24 -111.38 M-10.25 -87.7 C-7.92 -95.57, -4.58 -102.01, -2.24 -111.38" stroke="#1e1e1e" stroke-width="2" fill="none"></path></g></g><mask></mask><g stroke-linecap="round"><g transform="translate(167.56239944701701 214.98989388273748) rotate(0 8.884081532843027 14.351208629977208)"><path d="M-0.92 -0.55 C2.06 1.02, 14.01 4.44, 17.21 9.22 C20.42 14, 18.37 25.05, 18.28 28.14 M0.8 1.78 C3.63 3.05, 13.08 3.06, 15.98 7.63 C18.87 12.19, 18.01 25.71, 18.15 29.17" stroke="#1971c2" stroke-width="2" fill="none"></path></g><g transform="translate(167.56239944701701 214.98989388273748) rotate(0 8.884081532843027 14.351208629977208)"><path d="M14.67 19.52 C15.04 21.43, 17.22 25.28, 18.15 29.17 M14.67 19.52 C15.97 21.53, 16.24 24.84, 18.15 29.17" stroke="#1971c2" stroke-width="2" fill="none"></path></g><g transform="translate(167.56239944701701 214.98989388273748) rotate(0 8.884081532843027 14.351208629977208)"><path d="M21.69 19.54 C20.34 21.39, 20.81 25.24, 18.15 29.17 M21.69 19.54 C21.21 21.49, 19.7 24.8, 18.15 29.17" stroke="#1971c2" stroke-width="2" fill="none"></path></g></g><mask></mask><g stroke-linecap="round"><g transform="translate(298.7734497782369 236.17501138413246) rotate(0 30.752589921379695 -6.150517984275979)"><path d="M-0.69 -0.45 C4.04 -2.52, 17.8 -13.13, 28.19 -12.94 C38.58 -12.76, 56.07 -1.62, 61.65 0.66 M1.14 -1.74 C5.81 -3.55, 17.73 -12, 27.7 -11.38 C37.66 -10.77, 55.24 -0.24, 60.96 1.97" stroke="#1971c2" stroke-width="2" fill="none"></path></g><g transform="translate(298.7734497782369 236.17501138413246) rotate(0 30.752589921379695 -6.150517984275979)"><path d="M42.64 0.18 C47.12 2.11, 53.06 1.51, 60.96 1.97 M42.64 0.18 C48.26 0.63, 53.81 0.4, 60.96 1.97" stroke="#1971c2" stroke-width="2" fill="none"></path></g><g transform="translate(298.7734497782369 236.17501138413246) rotate(0 30.752589921379695 -6.150517984275979)"><path d="M48.07 -11.17 C50.96 -6.07, 55.36 -3.45, 60.96 1.97 M48.07 -11.17 C52.09 -7.34, 56.02 -4.18, 60.96 1.97" stroke="#1971c2" stroke-width="2" fill="none"></path></g></g><mask></mask><g stroke-linecap="round"><g transform="translate(482.97662529839226 91.29614331007701) rotate(0 -66.28891605275174 -19.476640283540462)"><path d="M0.42 -0.31 C-21.77 -6.91, -110.71 -32.95, -132.96 -39.45 M-0.81 -1.51 C-23.21 -7.97, -111.89 -32.06, -134.11 -38.17" stroke="#1e1e1e" stroke-width="2" fill="none"></path></g><g transform="translate(482.97662529839226 91.29614331007701) rotate(0 -66.28891605275174 -19.476640283540462)"><path d="M-109.2 -40.23 C-117.58 -40.13, -125.77 -39.71, -134.11 -38.17 M-109.2 -40.23 C-115.97 -39.7, -122.94 -38.4, -134.11 -38.17" stroke="#1e1e1e" stroke-width="2" fill="none"></path></g><g transform="translate(482.97662529839226 91.29614331007701) rotate(0 -66.28891605275174 -19.476640283540462)"><path d="M-113.71 -23.73 C-120.69 -28.87, -127.45 -33.66, -134.11 -38.17 M-113.71 -23.73 C-119.19 -27.65, -124.94 -30.79, -134.11 -38.17" stroke="#1e1e1e" stroke-width="2" fill="none"></path></g></g><mask></mask><g stroke-linecap="round"><g transform="translate(365.0623658309888 76.26154379295804) rotate(0 -37.24480334922657 -1.3667817742835666)"><path d="M0.05 0.97 C-7.3 2.23, -30.49 8.47, -43.02 6.94 C-55.56 5.4, -69.86 -5.43, -75.16 -8.26 M-1.38 0.44 C-8.99 1.42, -31.47 7.01, -43.95 5.22 C-56.44 3.44, -71.15 -7.81, -76.28 -10.27" stroke="#1971c2" stroke-width="2" fill="none"></path></g><g transform="translate(365.0623658309888 76.26154379295804) rotate(0 -37.24480334922657 -1.3667817742835666)"><path d="M-59.16 -7.02 C-64.44 -8.24, -71.42 -10.53, -76.28 -10.27 M-59.16 -7.02 C-66.02 -7.76, -70.43 -10.04, -76.28 -10.27" stroke="#1971c2" stroke-width="2" fill="none"></path></g><g transform="translate(365.0623658309888 76.26154379295804) rotate(0 -37.24480334922657 -1.3667817742835666)"><path d="M-65.25 3.22 C-68.09 -2.01, -72.68 -8.32, -76.28 -10.27 M-65.25 3.22 C-69.94 -1.06, -72.21 -6.95, -76.28 -10.27" stroke="#1971c2" stroke-width="2" fill="none"></path></g></g><mask></mask><g stroke-linecap="round"><g transform="translate(193.5312531584043 92.66292508436061) rotate(0 -13.326122299264568 17.426467622115155)"><path d="M0.87 1.09 C0.28 6.13, 0.9 24.3, -3.52 29.75 C-7.94 35.21, -21.62 33.02, -25.65 33.79 M-0.13 0.61 C-0.83 5.32, 0.12 22.17, -4.17 27.83 C-8.46 33.48, -21.92 33.31, -25.89 34.55" stroke="#1971c2" stroke-width="2" fill="none"></path></g><g transform="translate(193.5312531584043 92.66292508436061) rotate(0 -13.326122299264568 17.426467622115155)"><path d="M-15.78 28.86 C-17.79 31.2, -21.52 33.32, -25.89 34.55 M-15.78 28.86 C-18.39 29.96, -20.51 30.93, -25.89 34.55" stroke="#1971c2" stroke-width="2" fill="none"></path></g><g transform="translate(193.5312531584043 92.66292508436061) rotate(0 -13.326122299264568 17.426467622115155)"><path d="M-14.48 36.69 C-16.85 36.69, -20.97 36.46, -25.89 34.55 M-14.48 36.69 C-17.3 36.13, -19.69 35.44, -25.89 34.55" stroke="#1971c2" stroke-width="2" fill="none"></path></g></g><mask></mask><g stroke-linecap="round"><g transform="translate(362.32880228242163 416.5902055895597) rotate(0 5.808822540705023 12.984426855693698)"><path d="M-0.25 0.48 C1.7 2.45, 10.27 7.17, 12.11 11.4 C13.95 15.63, 10.94 23.43, 10.78 25.85 M0.63 0.26 C2.51 2.12, 10.31 6.32, 11.93 10.67 C13.55 15.03, 10.44 23.77, 10.35 26.38" stroke="#1971c2" stroke-width="2" fill="none"></path></g><g transform="translate(362.32880228242163 416.5902055895597) rotate(0 5.808822540705023 12.984426855693698)"><path d="M9.11 18.96 C9.87 22.09, 10.33 24.43, 10.35 26.38 M9.11 18.96 C9.56 20.92, 9.74 22.91, 10.35 26.38" stroke="#1971c2" stroke-width="2" fill="none"></path></g><g transform="translate(362.32880228242163 416.5902055895597) rotate(0 5.808822540705023 12.984426855693698)"><path d="M14.17 19.9 C13.04 22.66, 11.59 24.65, 10.35 26.38 M14.17 19.9 C13.21 21.6, 11.99 23.32, 10.35 26.38" stroke="#1971c2" stroke-width="2" fill="none"></path></g></g><mask></mask><g stroke-linecap="round"><g transform="translate(438.8685816423 445.2926228495144) rotate(0 8.200690645701286 -9.909167863555695)"><path d="M-0.33 -0.09 C0.15 -2.53, 0.28 -11.27, 3.23 -14.45 C6.18 -17.63, 14.99 -18.32, 17.36 -19.18 M1.7 -1.18 C1.97 -3.51, -0.38 -9.99, 2.19 -13.32 C4.75 -16.66, 14.42 -20.34, 17.09 -21.19" stroke="#1971c2" stroke-width="2" fill="none"></path></g><g transform="translate(438.8685816423 445.2926228495144) rotate(0 8.200690645701286 -9.909167863555695)"><path d="M11.61 -16.55 C13.37 -18.18, 14.77 -19.04, 17.09 -21.19 M11.61 -16.55 C13.21 -18.09, 15.28 -19.78, 17.09 -21.19" stroke="#1971c2" stroke-width="2" fill="none"></path></g><g transform="translate(438.8685816423 445.2926228495144) rotate(0 8.200690645701286 -9.909167863555695)"><path d="M9.91 -21.16 C12.24 -21.26, 14.21 -20.59, 17.09 -21.19 M9.91 -21.16 C12.15 -21.08, 14.82 -21.14, 17.09 -21.19" stroke="#1971c2" stroke-width="2" fill="none"></path></g></g><mask></mask><g stroke-linecap="round"><g transform="translate(384.8807015581002 346.88433510109917) rotate(0 -15.376294960689904 4.100345322850615)"><path d="M-0.35 -0.48 C-2.2 0.96, -5.98 8.01, -11.13 8.42 C-16.29 8.83, -28.01 3.09, -31.28 1.97 M0.47 0.47 C-1.41 1.76, -6.2 7.22, -11.31 7.56 C-16.43 7.91, -27.01 3.45, -30.24 2.53" stroke="#1971c2" stroke-width="2" fill="none"></path></g><g transform="translate(384.8807015581002 346.88433510109917) rotate(0 -15.376294960689904 4.100345322850615)"><path d="M-20.19 2.34 C-23.56 2.81, -25.86 1.93, -30.24 2.53 M-20.19 2.34 C-23.3 2.61, -25.93 2.54, -30.24 2.53" stroke="#1971c2" stroke-width="2" fill="none"></path></g><g transform="translate(384.8807015581002 346.88433510109917) rotate(0 -15.376294960689904 4.100345322850615)"><path d="M-22.42 8.84 C-25.13 7.42, -26.78 4.65, -30.24 2.53 M-22.42 8.84 C-24.89 7.26, -26.88 5.34, -30.24 2.53" stroke="#1971c2" stroke-width="2" fill="none"></path></g></g><mask></mask><g stroke-linecap="round"><g transform="translate(425.20076389946473 294.26323679118263) rotate(0 -2.050172661425222 11.275949637839233)"><path d="M0.04 -0.43 C0.39 1.76, 3.4 9.25, 2.25 13.16 C1.11 17.08, -5.24 21.51, -6.81 23.06 M-0.6 0.54 C-0.1 2.56, 4.33 8.67, 3.24 12.29 C2.15 15.91, -5.4 20.48, -7.15 22.26" stroke="#1971c2" stroke-width="2" fill="none"></path></g><g transform="translate(425.20076389946473 294.26323679118263) rotate(0 -2.050172661425222 11.275949637839233)"><path d="M-3.64 16.48 C-5.05 18.07, -5.81 20.26, -7.15 22.26 M-3.64 16.48 C-5.14 18.63, -6.31 21.16, -7.15 22.26" stroke="#1971c2" stroke-width="2" fill="none"></path></g><g transform="translate(425.20076389946473 294.26323679118263) rotate(0 -2.050172661425222 11.275949637839233)"><path d="M-0.74 20.09 C-3.09 20.5, -4.8 21.52, -7.15 22.26 M-0.74 20.09 C-3.37 20.81, -5.68 21.93, -7.15 22.26" stroke="#1971c2" stroke-width="2" fill="none"></path></g></g><mask></mask><g stroke-linecap="round"><g transform="translate(473.7215168865305 378.32031590962083) rotate(0 16.74307673497333 9.567472419984824)"><path d="M-0.83 0.4 C1.91 0.81, 11.69 0.38, 17.32 3.38 C22.94 6.38, 30.31 15.87, 32.93 18.38 M0.93 -0.43 C3.95 0.1, 14.28 1.61, 19.44 4.9 C24.59 8.19, 29.61 16.91, 31.87 19.3" stroke="#1971c2" stroke-width="2" fill="none"></path></g><g transform="translate(473.7215168865305 378.32031590962083) rotate(0 16.74307673497333 9.567472419984824)"><path d="M22.71 13.44 C26.53 14.66, 29.55 17.36, 31.87 19.3 M22.71 13.44 C24.92 14.88, 26.99 16.55, 31.87 19.3" stroke="#1971c2" stroke-width="2" fill="none"></path></g><g transform="translate(473.7215168865305 378.32031590962083) rotate(0 16.74307673497333 9.567472419984824)"><path d="M28.62 8.92 C30.27 11.79, 31.09 16.17, 31.87 19.3 M28.62 8.92 C29.42 11.41, 30.08 14.14, 31.87 19.3" stroke="#1971c2" stroke-width="2" fill="none"></path></g></g><mask></mask><g stroke-linecap="round"><g transform="translate(494.22324350078316 323.6490449382791) rotate(0 -9.22577697641384 -12.984426855693641)"><path d="M-0.6 1.12 C-3.56 -0.91, -13.96 -6.75, -16.97 -11.19 C-19.98 -15.62, -18.39 -23.02, -18.66 -25.48 M1.29 0.65 C-1.84 -1.76, -14.03 -8.02, -17.5 -12.73 C-20.97 -17.43, -19.38 -25.55, -19.53 -27.57" stroke="#1971c2" stroke-width="2" fill="none"></path></g><g transform="translate(494.22324350078316 323.6490449382791) rotate(0 -9.22577697641384 -12.984426855693641)"><path d="M-17.49 -21.04 C-17.66 -23.01, -18.42 -25.99, -19.53 -27.57 M-17.49 -21.04 C-17.93 -23.56, -18.9 -25.21, -19.53 -27.57" stroke="#1971c2" stroke-width="2" fill="none"></path></g><g transform="translate(494.22324350078316 323.6490449382791) rotate(0 -9.22577697641384 -12.984426855693641)"><path d="M-22.17 -21.26 C-20.61 -23.12, -19.63 -26.03, -19.53 -27.57 M-22.17 -21.26 C-21.01 -23.7, -20.39 -25.28, -19.53 -27.57" stroke="#1971c2" stroke-width="2" fill="none"></path></g></g><mask></mask><g stroke-linecap="round"><g transform="translate(469.6211715636796 237.54179315841606) rotate(0 16.40138129140246 -10.592558750697435)"><path d="M-0.14 -0.04 C2.08 -3.05, 7.62 -14.49, 13.08 -18.08 C18.54 -21.67, 29.41 -21.11, 32.63 -21.58 M-1.67 -1.11 C0.97 -4.43, 9.91 -16.42, 15.48 -19.65 C21.06 -22.88, 28.96 -20.47, 31.77 -20.47" stroke="#1971c2" stroke-width="2" fill="none"></path></g><g transform="translate(469.6211715636796 237.54179315841606) rotate(0 16.40138129140246 -10.592558750697435)"><path d="M22.41 -18.25 C24.99 -19.33, 28.49 -19.62, 31.77 -20.47 M22.41 -18.25 C24.85 -19.25, 27.28 -19.23, 31.77 -20.47" stroke="#1971c2" stroke-width="2" fill="none"></path></g><g transform="translate(469.6211715636796 237.54179315841606) rotate(0 16.40138129140246 -10.592558750697435)"><path d="M23.17 -24.79 C25.54 -24.04, 28.83 -22.5, 31.77 -20.47 M23.17 -24.79 C25.39 -24.04, 27.61 -22.27, 31.77 -20.47" stroke="#1971c2" stroke-width="2" fill="none"></path></g></g><mask></mask><g stroke-linecap="round"><g transform="translate(494.90663438792535 139.81689629714276) rotate(0 -10.250863307126679 -18.79324939639872)"><path d="M-0.3 -1.11 C-3.86 -2.94, -17.12 -4.73, -20.31 -10.74 C-23.5 -16.76, -19.47 -32.93, -19.42 -37.2 M1.74 0.92 C-1.56 -1.26, -14.66 -5.7, -18.22 -12.41 C-21.78 -19.12, -19.4 -35.02, -19.62 -39.34" stroke="#1971c2" stroke-width="2" fill="none"></path></g><g transform="translate(494.90663438792535 139.81689629714276) rotate(0 -10.250863307126679 -18.79324939639872)"><path d="M-15.69 -26.94 C-18.44 -33.03, -17.81 -35.39, -19.62 -39.34 M-15.69 -26.94 C-17.02 -30.6, -18.63 -35.33, -19.62 -39.34" stroke="#1971c2" stroke-width="2" fill="none"></path></g><g transform="translate(494.90663438792535 139.81689629714276) rotate(0 -10.250863307126679 -18.79324939639872)"><path d="M-24.58 -27.32 C-23.89 -33.24, -19.82 -35.45, -19.62 -39.34 M-24.58 -27.32 C-22.95 -30.94, -21.61 -35.55, -19.62 -39.34" stroke="#1971c2" stroke-width="2" fill="none"></path></g></g><mask></mask><g stroke-linecap="round"><g transform="translate(321.3253490539155 338.6836444553978) rotate(0 8.200690645701172 0.6833908871417975)"><path d="M0.3 0.28 C2.94 0.41, 13.27 1.11, 16.04 1.29 M-0.21 -0.05 C2.59 0.4, 14.25 1.61, 17.09 1.96" stroke="#2f9e44" stroke-width="2" fill="none"></path></g><g transform="translate(321.3253490539155 338.6836444553978) rotate(0 8.200690645701172 0.6833908871417975)"><path d="M9.1 3.89 C12.02 2.94, 14.47 2.96, 17.09 1.96 M9.1 3.89 C11.69 3.13, 13.95 2.7, 17.09 1.96" stroke="#2f9e44" stroke-width="2" fill="none"></path></g><g transform="translate(321.3253490539155 338.6836444553978) rotate(0 8.200690645701172 0.6833908871417975)"><path d="M9.72 -1.7 C12.46 -0.75, 14.7 1.17, 17.09 1.96 M9.72 -1.7 C12.15 -0.75, 14.22 0.54, 17.09 1.96" stroke="#2f9e44" stroke-width="2" fill="none"></path></g></g><mask></mask><g stroke-linecap="round"><g transform="translate(336.35994857103447 385.15422478103847) rotate(0 -8.20069064570123 0)"><path d="M0.36 0.49 C-2.43 0.55, -13.5 -0.06, -16.3 -0.12 M-0.12 0.27 C-3.01 0.45, -13.9 0.42, -16.68 0.52" stroke="#2f9e44" stroke-width="2" fill="none"></path></g><g transform="translate(336.35994857103447 385.15422478103847) rotate(0 -8.20069064570123 0)"><path d="M-9.01 -2.39 C-11.56 -1.19, -14.92 -0.19, -16.68 0.52 M-9.01 -2.39 C-11.52 -1.64, -13.93 -0.54, -16.68 0.52" stroke="#2f9e44" stroke-width="2" fill="none"></path></g><g transform="translate(336.35994857103447 385.15422478103847) rotate(0 -8.20069064570123 0)"><path d="M-8.93 3.21 C-11.48 2.3, -14.88 1.17, -16.68 0.52 M-8.93 3.21 C-11.47 2.14, -13.91 1.4, -16.68 0.52" stroke="#2f9e44" stroke-width="2" fill="none"></path></g></g><mask></mask><g stroke-linecap="round"><g transform="translate(412.216337043771 353.0348530853753) rotate(0 6.1505179842758935 -4.783736209992412)"><path d="M0.39 -0.45 C2.34 -2.15, 10.2 -8.31, 12.12 -9.82 M-0.07 0.5 C1.75 -1.16, 9.42 -7.68, 11.6 -9.26" stroke="#2f9e44" stroke-width="2" fill="none"></path></g><g transform="translate(412.216337043771 353.0348530853753) rotate(0 6.1505179842758935 -4.783736209992412)"><path d="M7.52 -2.62 C8.74 -5.3, 10.44 -7.99, 11.6 -9.26 M7.52 -2.62 C8.61 -4.47, 10.13 -6.62, 11.6 -9.26" stroke="#2f9e44" stroke-width="2" fill="none"></path></g><g transform="translate(412.216337043771 353.0348530853753) rotate(0 6.1505179842758935 -4.783736209992412)"><path d="M4.21 -6.8 C6.71 -7.89, 9.68 -8.99, 11.6 -9.26 M4.21 -6.8 C6.31 -7.39, 8.84 -8.26, 11.6 -9.26" stroke="#2f9e44" stroke-width="2" fill="none"></path></g></g><mask></mask><g stroke-linecap="round"><g transform="translate(458.6869173694113 387.88778832960566) rotate(0 -5.467127097134153 4.783736209992412)"><path d="M0.5 0.42 C-1.37 2, -9.47 8, -11.46 9.58 M0.1 0.16 C-1.59 1.83, -8.75 8.82, -10.49 10.28" stroke="#2f9e44" stroke-width="2" fill="none"></path></g><g transform="translate(458.6869173694113 387.88778832960566) rotate(0 -5.467127097134153 4.783736209992412)"><path d="M-7.15 3.83 C-7.73 5.16, -8.86 6.83, -10.49 10.28 M-7.15 3.83 C-8.46 6.13, -9.52 8.4, -10.49 10.28" stroke="#2f9e44" stroke-width="2" fill="none"></path></g><g transform="translate(458.6869173694113 387.88778832960566) rotate(0 -5.467127097134153 4.783736209992412)"><path d="M-3.78 7.49 C-5.23 7.89, -7.23 8.63, -10.49 10.28 M-3.78 7.49 C-6.28 8.48, -8.53 9.47, -10.49 10.28" stroke="#2f9e44" stroke-width="2" fill="none"></path></g></g><mask></mask><g stroke-linecap="round"><g transform="translate(207.19907090123968 276.4950737254967) rotate(0 0 -8.542386089272156)"><path d="M0.41 0 C0.37 -2.74, -0.1 -13.72, -0.21 -16.63 M-0.04 -0.48 C-0.18 -3.34, -0.64 -14.6, -0.75 -17.36" stroke="#2f9e44" stroke-width="2" fill="none"></path></g><g transform="translate(207.19907090123968 276.4950737254967) rotate(0 0 -8.542386089272156)"><path d="M2.49 -9.46 C1.52 -12.02, 0.88 -14.43, -0.75 -17.36 M2.49 -9.46 C1.52 -11.38, 0.98 -13.22, -0.75 -17.36" stroke="#2f9e44" stroke-width="2" fill="none"></path></g><g transform="translate(207.19907090123968 276.4950737254967) rotate(0 0 -8.542386089272156)"><path d="M-3.35 -9.23 C-2.54 -11.88, -1.39 -14.37, -0.75 -17.36 M-3.35 -9.23 C-2.99 -11.22, -2.2 -13.12, -0.75 -17.36" stroke="#2f9e44" stroke-width="2" fill="none"></path></g></g><mask></mask><g stroke-linecap="round"><g transform="translate(249.56930590402953 258.726910659811) rotate(0 0 9.567472419984767)"><path d="M0.5 0.45 C0.66 3.5, 0.53 15.49, 0.4 18.63 M0.1 0.2 C0.26 3.28, 0.31 16.05, 0.17 19.07" stroke="#2f9e44" stroke-width="2" fill="none"></path></g><g transform="translate(249.56930590402953 258.726910659811) rotate(0 0 9.567472419984767)"><path d="M-2.96 10.03 C-1.89 12.24, -2.07 13.54, 0.17 19.07 M-2.96 10.03 C-2.04 12.9, -0.84 16.15, 0.17 19.07" stroke="#2f9e44" stroke-width="2" fill="none"></path></g><g transform="translate(249.56930590402953 258.726910659811) rotate(0 0 9.567472419984767)"><path d="M3.59 10.14 C3.29 12.35, 1.76 13.63, 0.17 19.07 M3.59 10.14 C2.34 12.96, 1.37 16.18, 0.17 19.07" stroke="#2f9e44" stroke-width="2" fill="none"></path></g></g><mask></mask><g stroke-linecap="round" transform="translate(148.42745460704737 83.09545266437573) rotate(0 4.100345322850615 4.442040766421513)"><path d="M1.2 1.05 C1.2 1.05, 1.2 1.05, 1.2 1.05 M1.2 1.05 C1.2 1.05, 1.2 1.05, 1.2 1.05 M0.94 7.44 C2.66 5.43, 4.2 3.82, 6.19 1.41 M0.94 7.44 C2.28 5.96, 3.37 4.63, 6.19 1.41 M5.27 8.56 C6.12 7.69, 6.76 7.04, 8.55 4.79 M5.27 8.56 C6.29 7.37, 7.23 6.42, 8.55 4.79 M2.7 9.08 C2.7 9.08, 2.7 9.08, 2.7 9.08 M2.7 9.08 C2.7 9.08, 2.7 9.08, 2.7 9.08 M6.84 7.38 C4.82 5.41, 2.64 3.38, 0.8 2.13 M6.84 7.38 C4.88 5.64, 2.86 3.88, 0.8 2.13 M8.71 3.7 C7.14 2.53, 6 1.33, 4.18 -0.23 M8.71 3.7 C7.14 2.31, 5.61 0.97, 4.18 -0.23" stroke="#d0bfff" stroke-width="0.5" fill="none"></path><path d="M4.58 0.11 C5.48 0.1, 6.6 0.8, 7.2 1.45 C7.8 2.1, 8.14 3.04, 8.2 3.99 C8.26 4.95, 8.11 6.41, 7.58 7.19 C7.05 7.97, 5.89 8.41, 5.02 8.68 C4.16 8.94, 3.1 9.14, 2.38 8.8 C1.66 8.47, 1.06 7.58, 0.69 6.66 C0.33 5.74, 0.08 4.26, 0.2 3.29 C0.32 2.31, 0.71 1.29, 1.42 0.8 C2.13 0.3, 3.9 0.47, 4.44 0.32 C4.99 0.18, 4.67 -0.1, 4.67 -0.08 M4.62 0.04 C5.4 0.13, 6 0.57, 6.6 1.28 C7.21 1.99, 8.04 3.35, 8.26 4.3 C8.48 5.26, 8.33 6.24, 7.91 7.03 C7.49 7.82, 6.71 8.69, 5.74 9.02 C4.77 9.35, 2.91 9.41, 2.08 9 C1.25 8.6, 1.12 7.57, 0.76 6.6 C0.41 5.62, -0.19 4.15, -0.07 3.16 C0.04 2.17, 0.73 1.2, 1.45 0.65 C2.18 0.11, 3.84 -0.03, 4.29 -0.12 C4.73 -0.21, 4.1 0.09, 4.11 0.11" stroke="#6741d9" stroke-width="1" fill="none"></path></g><g stroke-linecap="round" transform="translate(318.4412077105741 43.99159430252041) rotate(0 4.100345322850615 4.442040766421513)"><path d="M1.42 1.23 C1.42 1.23, 1.42 1.23, 1.42 1.23 M1.42 1.23 C1.42 1.23, 1.42 1.23, 1.42 1.23 M1.16 7.63 C2.88 6.15, 4.08 4.53, 7.06 0.84 M1.16 7.63 C3.21 5.31, 5.03 3.31, 7.06 0.84 M6.15 7.99 C6.84 7.23, 7.44 6.51, 8.11 5.73 M6.15 7.99 C6.69 7.33, 7.27 6.69, 8.11 5.73 M0.63 6.89 C0.63 6.89, 0.63 6.89, 0.63 6.89 M0.63 6.89 C0.63 6.89, 0.63 6.89, 0.63 6.89 M7.03 7.15 C4.98 5.37, 3.35 3.63, 0.99 1.9 M7.03 7.15 C4.85 5.32, 2.86 3.57, 0.99 1.9 M8.15 2.82 C7.26 1.75, 6 1.09, 4.37 -0.46 M8.15 2.82 C7.27 2.02, 6.48 1.28, 4.37 -0.46" stroke="#d0bfff" stroke-width="0.5" fill="none"></path><path d="M3.99 0 C4.79 -0.1, 5.6 0.09, 6.32 0.64 C7.04 1.2, 8.11 2.32, 8.31 3.33 C8.52 4.33, 7.98 5.85, 7.55 6.67 C7.12 7.5, 6.46 7.95, 5.73 8.29 C4.99 8.63, 4.02 8.97, 3.14 8.71 C2.26 8.45, 0.97 7.5, 0.45 6.73 C-0.08 5.95, -0.19 4.99, -0.02 4.05 C0.16 3.12, 0.83 1.85, 1.51 1.13 C2.19 0.41, 3.6 -0.04, 4.06 -0.26 C4.52 -0.47, 4.25 -0.28, 4.27 -0.16 M3.92 -0.02 C4.73 -0.16, 5.35 0.63, 5.96 1.25 C6.58 1.87, 7.37 2.8, 7.64 3.71 C7.91 4.62, 7.91 5.88, 7.59 6.71 C7.27 7.53, 6.4 8.34, 5.7 8.67 C5.01 9.01, 4.17 8.92, 3.42 8.71 C2.67 8.49, 1.73 8.21, 1.23 7.37 C0.72 6.52, 0.37 4.54, 0.41 3.62 C0.45 2.69, 0.98 2.43, 1.45 1.81 C1.93 1.18, 2.91 0.1, 3.27 -0.12 C3.63 -0.35, 3.61 0.44, 3.62 0.46" stroke="#6741d9" stroke-width="1" fill="none"></path></g><g stroke-linecap="round"><g transform="translate(403.3322555109279 275.12829195121344) rotate(0 -0.34169544357087034 -7.175604314988618)"><path d="M-0.54 0.4 C-0.63 -2.17, -0.24 -12.43, -0.29 -14.88 M0.19 0.12 C0.04 -2.16, -0.27 -12.15, -0.53 -14.45" stroke="#2f9e44" stroke-width="2" fill="none"></path></g><g transform="translate(403.3322555109279 275.12829195121344) rotate(0 -0.34169544357087034 -7.175604314988618)"><path d="M2.36 -7.87 C1.59 -9.91, -0.01 -12.57, -0.53 -14.45 M2.36 -7.87 C1.65 -9.87, 0.45 -11.98, -0.53 -14.45" stroke="#2f9e44" stroke-width="2" fill="none"></path></g><g transform="translate(403.3322555109279 275.12829195121344) rotate(0 -0.34169544357087034 -7.175604314988618)"><path d="M-2.55 -7.56 C-1.62 -9.68, -1.53 -12.45, -0.53 -14.45 M-2.55 -7.56 C-1.74 -9.67, -1.43 -11.87, -0.53 -14.45" stroke="#2f9e44" stroke-width="2" fill="none"></path></g></g><mask></mask><g stroke-linecap="round"><g transform="translate(449.8028358365682 258.726910659811) rotate(0 0.34169544357087034 10.250863307126508)"><path d="M-0.19 -0.27 C-0.12 3.27, 0.29 17.56, 0.36 21.02 M0.71 0.78 C0.97 4.2, 1.32 16.93, 1.42 20.32" stroke="#2f9e44" stroke-width="2" fill="none"></path></g><g transform="translate(449.8028358365682 258.726910659811) rotate(0 0.34169544357087034 10.250863307126508)"><path d="M-2.37 10.79 C-1.55 13.23, 0.28 15.86, 1.42 20.32 M-2.37 10.79 C-1.32 13.42, -0.3 16.63, 1.42 20.32" stroke="#2f9e44" stroke-width="2" fill="none"></path></g><g transform="translate(449.8028358365682 258.726910659811) rotate(0 0.34169544357087034 10.250863307126508)"><path d="M4.64 10.58 C3.45 13.07, 3.25 15.76, 1.42 20.32 M4.64 10.58 C3.6 13.3, 2.53 16.58, 1.42 20.32" stroke="#2f9e44" stroke-width="2" fill="none"></path></g></g><mask></mask><g stroke-linecap="round" transform="translate(503.4895603312193 90.99498772052834) rotate(0 4.100345322850671 4.442040766421513)"><path d="M1.55 1.35 C1.55 1.35, 1.55 1.35, 1.55 1.35 M1.55 1.35 C1.55 1.35, 1.55 1.35, 1.55 1.35 M1.29 7.74 C2.77 6.17, 4.43 4.25, 6.54 1.71 M1.29 7.74 C2.7 6.2, 4.09 4.55, 6.54 1.71 M5.62 8.86 C6.65 7.81, 7.36 6.9, 8.24 5.84 M5.62 8.86 C6.58 7.65, 7.6 6.53, 8.24 5.84 M0.39 7.18 C0.39 7.18, 0.39 7.18, 0.39 7.18 M0.39 7.18 C0.39 7.18, 0.39 7.18, 0.39 7.18 M6.78 7.44 C4.56 5.54, 2.93 4.01, 1.5 2.85 M6.78 7.44 C5.4 6.16, 3.89 4.73, 1.5 2.85 M7.9 3.11 C6.49 2.04, 5.17 0.86, 4.13 -0.17 M7.9 3.11 C6.61 1.98, 5.35 0.89, 4.13 -0.17" stroke="#d0bfff" stroke-width="0.5" fill="none"></path><path d="M3.7 0.19 C4.46 0, 5.32 0.34, 6.04 0.81 C6.75 1.28, 7.68 2.13, 8 3.02 C8.33 3.91, 8.34 5.2, 8 6.14 C7.66 7.08, 6.81 8.2, 5.97 8.65 C5.13 9.09, 3.85 9.02, 2.96 8.81 C2.07 8.6, 1.08 8.14, 0.62 7.38 C0.15 6.61, 0.08 5.19, 0.19 4.24 C0.3 3.28, 0.64 2.33, 1.28 1.66 C1.91 0.98, 3.52 0.39, 3.99 0.19 C4.46 -0.02, 4.12 0.42, 4.08 0.42 M5.13 0.15 C5.9 0.23, 6.35 1, 6.82 1.67 C7.29 2.33, 7.81 3.28, 7.93 4.15 C8.06 5.03, 8.04 6.07, 7.58 6.9 C7.12 7.73, 6 8.95, 5.15 9.16 C4.31 9.37, 3.32 8.63, 2.51 8.18 C1.7 7.72, 0.59 7.31, 0.28 6.43 C-0.03 5.54, 0.4 3.88, 0.65 2.88 C0.9 1.88, 1.03 0.98, 1.79 0.43 C2.55 -0.13, 4.75 -0.43, 5.21 -0.44 C5.66 -0.44, 4.69 0.34, 4.54 0.41" stroke="#6741d9" stroke-width="1" fill="none"></path></g><g stroke-linecap="round" transform="translate(508.8061096335791 262.37552259833865) rotate(0 4.100345322850671 4.442040766421542)"><path d="M2.15 0.54 C2.15 0.54, 2.15 0.54, 2.15 0.54 M2.15 0.54 C2.15 0.54, 2.15 0.54, 2.15 0.54 M1.23 7.69 C2.72 5.65, 4.51 3.75, 6.48 1.66 M1.23 7.69 C2.36 6.29, 3.46 5.16, 6.48 1.66 M4.9 9.56 C6.31 8.28, 7.14 6.59, 8.84 5.03 M4.9 9.56 C6.46 7.79, 8.08 6.02, 8.84 5.03 M2.17 8.17 C2.17 8.17, 2.17 8.17, 2.17 8.17 M2.17 8.17 C2.17 8.17, 2.17 8.17, 2.17 8.17 M7.06 7.12 C5.63 5.92, 3.87 4.51, 1.02 1.87 M7.06 7.12 C5.81 6.09, 4.41 4.95, 1.02 1.87 M7.42 2.13 C6.94 1.62, 6.43 1.26, 5.16 0.17 M7.42 2.13 C6.7 1.5, 5.98 0.87, 5.16 0.17" stroke="#d0bfff" stroke-width="0.5" fill="none"></path><path d="M4.49 0.19 C5.36 0.29, 6.56 0.74, 7.19 1.47 C7.83 2.19, 8.35 3.55, 8.32 4.54 C8.3 5.53, 7.65 6.66, 7.05 7.4 C6.45 8.15, 5.53 8.88, 4.72 9.01 C3.91 9.14, 3 8.71, 2.2 8.2 C1.41 7.68, 0.27 6.83, -0.05 5.92 C-0.37 5.02, -0.1 3.7, 0.29 2.78 C0.68 1.86, 1.54 0.91, 2.27 0.4 C2.99 -0.1, 4.24 -0.25, 4.66 -0.25 C5.08 -0.25, 4.73 0.29, 4.78 0.41 M3.59 0.37 C4.37 0.14, 4.92 0.38, 5.73 0.87 C6.53 1.36, 8.11 2.4, 8.44 3.3 C8.77 4.19, 8.12 5.39, 7.69 6.24 C7.25 7.09, 6.52 8.01, 5.83 8.41 C5.14 8.81, 4.39 8.83, 3.54 8.64 C2.7 8.46, 1.35 7.95, 0.76 7.28 C0.17 6.61, -0.07 5.59, 0.01 4.61 C0.09 3.63, 0.65 2.23, 1.23 1.41 C1.81 0.58, 3.06 -0.16, 3.5 -0.35 C3.93 -0.54, 3.94 0.19, 3.86 0.27" stroke="#6741d9" stroke-width="1" fill="none"></path></g><g stroke-linecap="round" transform="translate(503.18840474167064 446.740484331842) rotate(0 4.100345322850671 4.442040766421542)"><path d="M1.53 1.33 C1.53 1.33, 1.53 1.33, 1.53 1.33 M1.53 1.33 C1.53 1.33, 1.53 1.33, 1.53 1.33 M1.92 6.97 C3.42 5.05, 5.02 3.53, 6.52 1.69 M1.92 6.97 C3.73 5.08, 5.34 3.11, 6.52 1.69 M6.26 8.09 C6.72 7.66, 7.15 7.14, 7.57 6.58 M6.26 8.09 C6.56 7.74, 6.85 7.38, 7.57 6.58 M3.77 9.38 C3.77 9.38, 3.77 9.38, 3.77 9.38 M3.77 9.38 C3.77 9.38, 3.77 9.38, 3.77 9.38 M7.15 7.02 C5.27 5.35, 2.64 3.09, 1.11 1.77 M7.15 7.02 C5.3 5.3, 3.55 3.83, 1.11 1.77 M8.26 2.69 C6.67 1.22, 4.94 -0.07, 3.73 -1.25 M8.26 2.69 C7.26 1.8, 6.15 0.86, 3.73 -1.25" stroke="#d0bfff" stroke-width="0.5" fill="none"></path><path d="M3.52 -0.27 C4.33 -0.41, 5.38 0.27, 6.14 0.8 C6.9 1.33, 7.78 2, 8.06 2.92 C8.33 3.85, 8.17 5.45, 7.81 6.34 C7.45 7.23, 6.65 7.8, 5.91 8.25 C5.18 8.71, 4.22 9.31, 3.4 9.06 C2.57 8.81, 1.59 7.5, 0.98 6.73 C0.37 5.96, -0.36 5.32, -0.28 4.44 C-0.21 3.56, 0.73 2.19, 1.41 1.47 C2.09 0.74, 3.36 0.29, 3.82 0.09 C4.27 -0.11, 4.07 0.16, 4.13 0.26 M4.57 0.22 C5.46 0.41, 6.89 1.3, 7.56 1.89 C8.23 2.48, 8.67 2.95, 8.6 3.77 C8.53 4.59, 7.74 6.01, 7.14 6.8 C6.55 7.59, 5.85 8.23, 5.03 8.51 C4.2 8.8, 2.94 8.89, 2.17 8.53 C1.41 8.16, 0.82 7.24, 0.43 6.33 C0.04 5.43, -0.36 4.06, -0.19 3.08 C-0.02 2.11, 0.67 0.99, 1.43 0.49 C2.2 -0.01, 3.81 0.2, 4.38 0.07 C4.96 -0.07, 4.84 -0.32, 4.89 -0.33" stroke="#6741d9" stroke-width="1" fill="none"></path></g><g stroke-linecap="round" transform="translate(322.6226327414688 265.49132144449845) rotate(0 4.100345322850615 4.442040766421542)"><path d="M2.12 0.52 C2.12 0.52, 2.12 0.52, 2.12 0.52 M2.12 0.52 C2.12 0.52, 2.12 0.52, 2.12 0.52 M1.2 7.67 C2.12 6.32, 3.55 4.93, 6.45 1.63 M1.2 7.67 C3.18 5.24, 5.26 2.83, 6.45 1.63 M5.53 8.78 C6.58 7.67, 7.45 6.78, 8.81 5.01 M5.53 8.78 C6.45 7.73, 7.4 6.74, 8.81 5.01 M2.01 8.36 C2.01 8.36, 2.01 8.36, 2.01 8.36 M2.01 8.36 C2.01 8.36, 2.01 8.36, 2.01 8.36 M6.9 7.31 C4.38 5.11, 2.44 3.27, 0.86 2.06 M6.9 7.31 C5.54 5.99, 4.15 4.99, 0.86 2.06 M8.77 3.63 C7.63 2.39, 6.16 1.61, 4.99 0.35 M8.77 3.63 C7.43 2.56, 6.16 1.41, 4.99 0.35" stroke="#d0bfff" stroke-width="0.5" fill="none"></path><path d="M4.72 0.32 C5.52 0.37, 6.18 0.98, 6.8 1.69 C7.42 2.39, 8.35 3.67, 8.44 4.55 C8.54 5.42, 7.94 6.19, 7.39 6.95 C6.85 7.7, 6.05 8.82, 5.18 9.08 C4.31 9.34, 3.05 9, 2.2 8.52 C1.34 8.03, 0.39 7.13, 0.06 6.17 C-0.26 5.21, -0.05 3.69, 0.27 2.77 C0.6 1.84, 1.26 1.04, 2.01 0.64 C2.76 0.23, 4.28 0.39, 4.76 0.33 C5.25 0.28, 4.96 0.32, 4.92 0.31 M4.49 0.29 C5.24 0.31, 6.01 0.66, 6.71 1.35 C7.41 2.03, 8.62 3.53, 8.68 4.4 C8.73 5.28, 7.62 5.85, 7.04 6.6 C6.46 7.35, 5.95 8.57, 5.21 8.89 C4.47 9.21, 3.46 8.87, 2.58 8.51 C1.7 8.14, 0.33 7.53, -0.07 6.72 C-0.47 5.91, -0.14 4.58, 0.2 3.64 C0.53 2.71, 1.19 1.74, 1.93 1.13 C2.67 0.51, 4.22 0.06, 4.63 -0.06 C5.05 -0.18, 4.53 0.32, 4.44 0.41" stroke="#6741d9" stroke-width="1" fill="none"></path></g><g stroke-linecap="round" transform="translate(142.74025162840883 262.6071801011569) rotate(0 4.100345322850615 4.442040766421542)"><path d="M1.41 1.23 C1.41 1.23, 1.41 1.23, 1.41 1.23 M1.41 1.23 C1.41 1.23, 1.41 1.23, 1.41 1.23 M1.15 7.63 C3.52 5.27, 5.3 2.3, 7.06 0.83 M1.15 7.63 C3.45 4.97, 5.81 2.45, 7.06 0.83 M5.48 8.74 C6.46 7.64, 7.38 6.47, 8.11 5.72 M5.48 8.74 C6.33 7.76, 7.18 6.85, 8.11 5.72 M1.98 8.39 C1.98 8.39, 1.98 8.39, 1.98 8.39 M1.98 8.39 C1.98 8.39, 1.98 8.39, 1.98 8.39 M6.87 7.34 C5.29 6.01, 3.83 4.64, 0.83 2.09 M6.87 7.34 C5.29 5.84, 3.62 4.32, 0.83 2.09 M8.74 3.67 C7.41 2.46, 5.97 1.09, 4.97 0.39 M8.74 3.67 C7.94 2.87, 7.14 2.28, 4.97 0.39" stroke="#d0bfff" stroke-width="0.5" fill="none"></path><path d="M4.51 0.2 C5.36 0.17, 6.62 0.39, 7.2 1.02 C7.79 1.65, 7.94 2.96, 8.02 3.96 C8.09 4.96, 8.16 6.28, 7.64 7.03 C7.11 7.77, 5.8 8.19, 4.86 8.42 C3.93 8.66, 2.77 8.83, 2.03 8.44 C1.3 8.04, 0.79 6.88, 0.46 6.04 C0.13 5.21, -0.12 4.26, 0.06 3.43 C0.24 2.6, 0.77 1.59, 1.54 1.08 C2.31 0.57, 4.2 0.55, 4.69 0.37 C5.19 0.18, 4.55 0.02, 4.51 -0.01 M4.32 -0.22 C5.27 -0.2, 6.29 0.53, 6.9 1.15 C7.51 1.76, 7.77 2.57, 7.99 3.47 C8.21 4.37, 8.61 5.66, 8.23 6.56 C7.84 7.46, 6.52 8.54, 5.68 8.84 C4.84 9.15, 4.02 8.65, 3.18 8.38 C2.35 8.11, 1.21 7.98, 0.69 7.21 C0.16 6.44, -0.07 4.74, 0.04 3.77 C0.15 2.8, 0.65 2.02, 1.34 1.39 C2.04 0.76, 3.73 0.3, 4.2 0.01 C4.67 -0.28, 4.22 -0.47, 4.18 -0.35" stroke="#6741d9" stroke-width="1" fill="none"></path></g><g stroke-linecap="round" transform="translate(327.10521336191255 443.55518739895183) rotate(0 4.100345322850615 4.442040766421542)"><path d="M1.51 1.31 C1.51 1.31, 1.51 1.31, 1.51 1.31 M1.51 1.31 C1.51 1.31, 1.51 1.31, 1.51 1.31 M1.9 6.95 C3.73 5.01, 5.27 2.71, 6.49 1.67 M1.9 6.95 C3.1 5.61, 4.54 4.12, 6.49 1.67 M4.92 9.58 C6.05 8.45, 7.01 7.21, 7.54 6.56 M4.92 9.58 C5.68 8.82, 6.28 8.05, 7.54 6.56 M2.98 8.76 C2.98 8.76, 2.98 8.76, 2.98 8.76 M2.98 8.76 C2.98 8.76, 2.98 8.76, 2.98 8.76 M7.12 7.06 C5.04 4.95, 2.81 3.17, 1.08 1.81 M7.12 7.06 C4.86 4.98, 2.25 2.92, 1.08 1.81 M8.23 2.73 C6.64 1.51, 5.3 0.19, 4.46 -0.55 M8.23 2.73 C7.22 1.93, 6.29 0.99, 4.46 -0.55" stroke="#d0bfff" stroke-width="0.5" fill="none"></path><path d="M3.87 0.08 C4.69 -0.1, 5.46 -0.07, 6.11 0.45 C6.76 0.97, 7.53 2.23, 7.78 3.19 C8.03 4.15, 7.88 5.31, 7.61 6.2 C7.35 7.08, 6.94 8.05, 6.2 8.51 C5.46 8.97, 4.04 9.23, 3.18 8.94 C2.32 8.65, 1.61 7.51, 1.04 6.77 C0.47 6.02, -0.26 5.34, -0.22 4.47 C-0.18 3.61, 0.61 2.33, 1.27 1.58 C1.94 0.82, 3.29 0.18, 3.74 -0.05 C4.2 -0.27, 3.98 0.15, 4.01 0.22 M4.37 -0.08 C5.22 0.02, 6.51 1.07, 7.16 1.8 C7.81 2.53, 8.25 3.41, 8.26 4.32 C8.28 5.24, 7.74 6.61, 7.24 7.31 C6.75 8.01, 6.09 8.38, 5.29 8.52 C4.5 8.66, 3.34 8.47, 2.47 8.15 C1.59 7.83, 0.4 7.42, 0.04 6.58 C-0.32 5.75, -0.03 4.07, 0.3 3.14 C0.63 2.2, 1.28 1.45, 2.02 0.97 C2.77 0.49, 4.34 0.46, 4.8 0.27 C5.26 0.07, 4.82 -0.19, 4.79 -0.2" stroke="#6741d9" stroke-width="1" fill="none"></path></g><g stroke-linecap="round" transform="translate(143.12248692600178 447.50495492702794) rotate(0 4.100345322850615 4.442040766421542)"><path d="M2.02 0.43 C2.02 0.43, 2.02 0.43, 2.02 0.43 M2.02 0.43 C2.02 0.43, 2.02 0.43, 2.02 0.43 M1.1 7.58 C2.88 5.31, 4.76 3.59, 6.35 1.54 M1.1 7.58 C2.7 5.73, 4.45 3.67, 6.35 1.54 M4.77 9.45 C6.31 7.86, 7.63 6.28, 8.71 4.92 M4.77 9.45 C5.77 8.31, 6.64 7.29, 8.71 4.92 M1.96 8.41 C1.96 8.41, 1.96 8.41, 1.96 8.41 M1.96 8.41 C1.96 8.41, 1.96 8.41, 1.96 8.41 M6.85 7.36 C4.65 5.35, 2.39 3.24, 0.81 2.11 M6.85 7.36 C5.61 6.33, 4.24 5.21, 0.81 2.11 M7.21 2.38 C6.43 1.57, 5.61 0.99, 4.19 -0.25 M7.21 2.38 C6.22 1.47, 5.16 0.69, 4.19 -0.25" stroke="#d0bfff" stroke-width="0.5" fill="none"></path><path d="M4.45 0.11 C5.2 0.09, 6.17 0.6, 6.76 1.33 C7.34 2.06, 7.87 3.55, 7.95 4.48 C8.04 5.42, 7.71 6.21, 7.28 6.92 C6.84 7.64, 6.24 8.52, 5.37 8.78 C4.49 9.03, 2.82 8.87, 2.02 8.47 C1.23 8.06, 0.94 7.29, 0.6 6.35 C0.27 5.42, -0.2 3.82, 0.01 2.85 C0.22 1.89, 1.13 1.08, 1.88 0.58 C2.64 0.09, 4.06 -0.06, 4.56 -0.1 C5.06 -0.14, 4.9 0.22, 4.88 0.34 M4.44 0 C5.27 -0.17, 5.94 0.03, 6.51 0.63 C7.07 1.24, 7.59 2.56, 7.82 3.6 C8.05 4.65, 8.35 5.98, 7.87 6.9 C7.4 7.81, 5.8 8.76, 4.98 9.09 C4.16 9.42, 3.78 9.25, 2.96 8.88 C2.15 8.52, 0.54 7.79, 0.08 6.91 C-0.37 6.02, -0.07 4.56, 0.23 3.58 C0.53 2.61, 1.28 1.76, 1.87 1.09 C2.47 0.41, 3.41 -0.25, 3.8 -0.44 C4.19 -0.64, 4.13 -0.22, 4.2 -0.09" stroke="#6741d9" stroke-width="1" fill="none"></path></g></svg>