<?xml version="1.0" encoding="UTF-8" standalone="no"?>
<!-- Created with Inkscape (http://www.inkscape.org/) -->

<svg
   version="1.1"
   id="svg2"
   xml:space="preserve"
   width="753.59369"
   height="290.87497"
   viewBox="0 0 753.59369 290.87497"
   sodipodi:docname="remesh_loop.pdf"
   xmlns:inkscape="http://www.inkscape.org/namespaces/inkscape"
   xmlns:sodipodi="http://sodipodi.sourceforge.net/DTD/sodipodi-0.dtd"
   xmlns="http://www.w3.org/2000/svg"
   xmlns:svg="http://www.w3.org/2000/svg"><defs
     id="defs6"><clipPath
       clipPathUnits="userSpaceOnUse"
       id="clipPath16"><path
         d="M 0,0 H 2354.9805 V 908.98438 H 0 Z"
         clip-rule="evenodd"
         id="path14" /></clipPath><clipPath
       clipPathUnits="userSpaceOnUse"
       id="clipPath28"><path
         d="M 0,0 H 2354.9805 V 908.98438 H 0 Z"
         clip-rule="evenodd"
         id="path26" /></clipPath></defs><sodipodi:namedview
     id="namedview4"
     pagecolor="#ffffff"
     bordercolor="#666666"
     borderopacity="1.0"
     inkscape:pageshadow="2"
     inkscape:pageopacity="0.0"
     inkscape:pagecheckerboard="0" /><g
     id="g8"
     inkscape:groupmode="layer"
     inkscape:label="remesh_loop"
     transform="scale(0.31999998)"><g
       id="g10"><g
         id="g12"
         clip-path="url(#clipPath16)"><g
           id="g18"
           transform="scale(3.125)"><path
             d="M 0,0 H 754 V 291 H 0 Z"
             style="fill:#ffffff;fill-opacity:1;fill-rule:nonzero;stroke:none"
             id="path20" /></g></g></g><g
       id="g22"><g
         id="g24"
         clip-path="url(#clipPath28)"><g
           id="g30"
           transform="matrix(2.9997873,0,0,2.9997873,-13.449732,-655.45355)"><path
             d="m 630,440 10,-60"
             style="fill:none;stroke:#e50019;stroke-width:1;stroke-linecap:butt;stroke-linejoin:miter;stroke-miterlimit:10;stroke-dasharray:none;stroke-opacity:1"
             id="path32" /><path
             d="M 120,230 H 720 V 520 H 120 Z"
             style="fill:none;stroke:#e50019;stroke-width:1;stroke-linecap:butt;stroke-linejoin:miter;stroke-miterlimit:10;stroke-dasharray:none;stroke-opacity:1"
             id="path34" /></g><g
           id="g36"
           transform="matrix(2.9997873,0,0,2.9997873,-14.949624,-656.95343)"><text
             transform="translate(395,248)"
             style="font-variant:normal;font-weight:normal;font-size:12px;font-family:Poppins;-inkscape-font-specification:Poppins-Regular;writing-mode:lr-tb;fill:#000000;fill-opacity:1;fill-rule:nonzero;stroke:none"
             id="text40"><tspan
               x="0 8 15 28 35 42"
               y="0"
               sodipodi:role="line"
               id="tspan38">Remesh</tspan></text></g><g
           id="g42"
           transform="matrix(2.9997873,0,0,2.9997873,-13.449732,-655.45355)"><path
             d="M 290,260 H 410 V 490 H 290 Z"
             style="fill:none;stroke:#000000;stroke-width:1;stroke-linecap:butt;stroke-linejoin:miter;stroke-miterlimit:10;stroke-dasharray:none;stroke-opacity:1"
             id="path44" /></g><g
           id="g46"
           transform="matrix(2.9997873,0,0,2.9997873,-14.949624,-656.95343)"><text
             transform="translate(323,481)"
             style="font-variant:normal;font-weight:normal;font-size:12px;font-family:Poppins;-inkscape-font-specification:Poppins-Regular;writing-mode:lr-tb;fill:#000000;fill-opacity:1;fill-rule:nonzero;stroke:none"
             id="text50"><tspan
               x="0 6 15 24 31 34 42 50"
               y="0"
               sodipodi:role="line"
               id="tspan48">Edge cut</tspan></text></g><g
           id="g52"
           transform="matrix(2.9997873,0,0,2.9997873,-13.449732,-655.45355)"><path
             d="m 354,410 -4,30"
             style="fill:none;stroke:#e50019;stroke-width:1;stroke-linecap:butt;stroke-linejoin:miter;stroke-miterlimit:10;stroke-dasharray:none;stroke-opacity:1"
             id="path54" /><path
             d="m 360,380 -6,30"
             style="fill:none;stroke:#e50019;stroke-width:1;stroke-linecap:butt;stroke-linejoin:miter;stroke-miterlimit:10;stroke-dasharray:none;stroke-opacity:1"
             id="path56" /><path
             d="m 262,450 c -3e-5,0.2652 -0.0508,0.52029 -0.15228,0.76532 -0.1015,0.24506 -0.246,0.46136 -0.43354,0.6489 -0.18753,0.18753 -0.40383,0.33203 -0.64886,0.4335 -0.24503,0.1015 -0.50012,0.15225 -0.76532,0.15228 -0.26523,-3e-5 -0.52039,-0.0508 -0.76541,-0.15228 -0.24503,-0.10147 -0.46131,-0.24597 -0.64884,-0.4335 -0.18753,-0.18754 -0.33206,-0.40384 -0.43356,-0.6489 C 258.05072,450.52029 257.99997,450.2652 258,450 c -3e-5,-0.26523 0.0507,-0.52039 0.15219,-0.76541 0.1015,-0.24503 0.24603,-0.46131 0.43356,-0.64884 0.18753,-0.18756 0.40381,-0.33209 0.64884,-0.43356 C 259.47961,448.05072 259.73477,448 260,448 c 0.2652,0 0.52029,0.0507 0.76532,0.15219 0.24503,0.10147 0.46133,0.246 0.64886,0.43356 0.18754,0.18753 0.33204,0.40381 0.43354,0.64884 0.1015,0.24502 0.15225,0.50018 0.15228,0.76541 z"
             style="fill:#000000;fill-opacity:1;fill-rule:nonzero;stroke:none"
             id="path58" /><path
             d="M 150,260 H 270 V 490 H 150 Z"
             style="fill:none;stroke:#000000;stroke-width:1;stroke-linecap:butt;stroke-linejoin:miter;stroke-miterlimit:10;stroke-dasharray:none;stroke-opacity:1"
             id="path60" /></g><g
           id="g62"
           transform="matrix(2.9997873,0,0,2.9997873,-14.949624,-656.95343)"><text
             transform="translate(160,481)"
             style="font-variant:normal;font-weight:normal;font-size:12px;font-family:Poppins;-inkscape-font-specification:Poppins-Regular;writing-mode:lr-tb;fill:#000000;fill-opacity:1;fill-rule:nonzero;stroke:none"
             id="text66"><tspan
               x="0 8 15 19 23 30 36 39 43 50 53 62 68 77 81 84 92"
               y="0"
               sodipodi:role="line"
               id="tspan64">Vertex relaxation</tspan></text></g><g
           id="g68"
           transform="matrix(2.9997873,0,0,2.9997873,-13.449732,-655.45355)"><path
             d="m 212,280 c -2e-5,0.26523 -0.0508,0.52032 -0.15228,0.76532 -0.1015,0.24503 -0.24602,0.46133 -0.43354,0.64886 -0.18754,0.18754 -0.40383,0.33204 -0.64886,0.43354 -0.24503,0.1015 -0.50014,0.15225 -0.76532,0.15228 -0.26523,-3e-5 -0.52036,-0.0508 -0.7654,-0.15228 -0.24504,-0.1015 -0.46132,-0.246 -0.64885,-0.43354 -0.18754,-0.18753 -0.33206,-0.40383 -0.43356,-0.64886 C 208.0507,280.52032 207.99998,280.26523 208,280 c -2e-5,-0.26523 0.0507,-0.52039 0.15221,-0.76541 0.10148,-0.24503 0.246,-0.46131 0.43354,-0.64884 0.18753,-0.18753 0.40381,-0.33203 0.64884,-0.43353 C 209.47963,278.05075 209.73477,278 210,278 c 0.26518,0 0.52029,0.0507 0.76532,0.15222 0.24503,0.1015 0.46132,0.246 0.64886,0.43353 0.18752,0.18753 0.33204,0.40381 0.43354,0.64884 0.1015,0.24502 0.15226,0.50018 0.15228,0.76541 z"
             style="fill:#000000;fill-opacity:1;fill-rule:nonzero;stroke:none"
             id="path70" /></g><g
           id="g72"
           transform="matrix(2.9997873,0,0,2.9997873,-14.949624,-656.95343)"><text
             transform="translate(17.5,236)"
             style="font-variant:normal;font-weight:normal;font-size:12px;font-family:'Liberation Sans';-inkscape-font-specification:LiberationSans;writing-mode:lr-tb;fill:#000000;fill-opacity:1;fill-rule:nonzero;stroke:none"
             id="text76"><tspan
               x="0 7 11 14 21 28 35 42 45 52"
               y="0"
               sodipodi:role="line"
               id="tspan74">Triangular</tspan></text><text
             transform="translate(30.5,251)"
             style="font-variant:normal;font-weight:normal;font-size:12px;font-family:'Liberation Sans';-inkscape-font-specification:LiberationSans;writing-mode:lr-tb;fill:#000000;fill-opacity:1;fill-rule:nonzero;stroke:none"
             id="text80"><tspan
               x="0 10 17 23"
               y="0"
               sodipodi:role="line"
               id="tspan78">mesh</tspan></text></g><g
           id="g82"
           transform="matrix(2.9997873,0,0,2.9997873,-13.449732,-655.45355)"><path
             d="M 570,260 H 690 V 490 H 570 Z"
             style="fill:none;stroke:#000000;stroke-width:1;stroke-linecap:butt;stroke-linejoin:miter;stroke-miterlimit:10;stroke-dasharray:none;stroke-opacity:1"
             id="path84" /></g><g
           id="g86"
           transform="matrix(2.9997873,0,0,2.9997873,-14.949624,-656.95343)"><text
             transform="translate(596,481)"
             style="font-variant:normal;font-weight:normal;font-size:12px;font-family:Poppins;-inkscape-font-specification:Poppins-Regular;writing-mode:lr-tb;fill:#000000;fill-opacity:1;fill-rule:nonzero;stroke:none"
             id="text90"><tspan
               x="0 6 15 24 31 34 41 51 60"
               y="0"
               sodipodi:role="line"
               id="tspan88">Edge swap</tspan></text></g><g
           id="g92"
           transform="matrix(2.9997873,0,0,2.9997873,-13.449732,-655.45355)"><path
             d="M 430,260 H 550 V 490 H 430 Z"
             style="fill:none;stroke:#000000;stroke-width:1;stroke-linecap:butt;stroke-linejoin:miter;stroke-miterlimit:10;stroke-dasharray:none;stroke-opacity:1"
             id="path94" /></g><g
           id="g96"
           transform="matrix(2.9997873,0,0,2.9997873,-14.949624,-656.95343)"><text
             transform="translate(446.5,481)"
             style="font-variant:normal;font-weight:normal;font-size:12px;font-family:Poppins;-inkscape-font-specification:Poppins-Regular;writing-mode:lr-tb;fill:#000000;fill-opacity:1;fill-rule:nonzero;stroke:none"
             id="text100"><tspan
               x="0 6 15 24 31 34 42 50 53 56 65 73 80"
               y="0"
               sodipodi:role="line"
               id="tspan98">Edge collapse</tspan></text></g><g
           id="g102"
           transform="matrix(2.9997873,0,0,2.9997873,-13.449732,-655.45355)"><path
             d="M 630,510 H 777"
             style="fill:none;stroke:#000000;stroke-width:1;stroke-linecap:butt;stroke-linejoin:miter;stroke-miterlimit:10;stroke-dasharray:none;stroke-opacity:1"
             id="path104" /><path
             d="m 783,510 c -6e-5,0.39777 -0.0762,0.78043 -0.22845,1.14798 -0.15229,0.36752 -0.36908,0.69196 -0.65033,0.9733 -0.28132,0.28125 -0.60578,0.49798 -0.97327,0.65027 -0.36749,0.15228 -0.75018,0.22839 -1.14795,0.22845 -0.39789,-6e-5 -0.78064,-0.0762 -1.14819,-0.22839 -0.36756,-0.15229 -0.69196,-0.36908 -0.97321,-0.65033 -0.28137,-0.28134 -0.49817,-0.60578 -0.65039,-0.9733 C 777.07599,510.78043 776.99994,510.39777 777,510 c -6e-5,-0.39786 0.076,-0.78055 0.22821,-1.1481 0.15222,-0.36752 0.36902,-0.69196 0.65039,-0.97324 0.28125,-0.28131 0.60565,-0.49808 0.97321,-0.65033 C 779.21936,507.07611 779.60211,507 780,507 c 0.39777,0 0.78046,0.0761 1.14795,0.22833 0.36749,0.15225 0.69195,0.36902 0.97327,0.65033 0.28125,0.28128 0.49804,0.60572 0.65033,0.97324 0.15228,0.36755 0.22839,0.75024 0.22845,1.1481 z"
             style="fill:#000000;fill-opacity:1;fill-rule:nonzero;stroke:none"
             id="path106" /><path
             d="m 783,510 c -6e-5,0.39777 -0.0762,0.78043 -0.22845,1.14798 -0.15229,0.36752 -0.36908,0.69196 -0.65033,0.9733 -0.28132,0.28125 -0.60578,0.49798 -0.97327,0.65027 -0.36749,0.15228 -0.75018,0.22839 -1.14795,0.22845 -0.39789,-6e-5 -0.78064,-0.0762 -1.14819,-0.22839 -0.36756,-0.15229 -0.69196,-0.36908 -0.97321,-0.65033 -0.28137,-0.28134 -0.49817,-0.60578 -0.65039,-0.9733 C 777.07599,510.78043 776.99994,510.39777 777,510 c -6e-5,-0.39786 0.076,-0.78055 0.22821,-1.1481 0.15222,-0.36752 0.36902,-0.69196 0.65039,-0.97324 0.28125,-0.28131 0.60565,-0.49808 0.97321,-0.65033 C 779.21936,507.07611 779.60211,507 780,507 c 0.39777,0 0.78046,0.0761 1.14795,0.22833 0.36749,0.15225 0.69195,0.36902 0.97327,0.65033 0.28125,0.28128 0.49804,0.60572 0.65033,0.97324 0.15228,0.36755 0.22839,0.75024 0.22845,1.1481 z"
             style="fill:none;stroke:#000000;stroke-width:1;stroke-linecap:butt;stroke-linejoin:miter;stroke-miterlimit:10;stroke-dasharray:none;stroke-opacity:1"
             id="path108" /><path
             d="m 630,490 v 20 H 210 v -11.88"
             style="fill:none;stroke:#000000;stroke-width:1;stroke-linecap:butt;stroke-linejoin:miter;stroke-miterlimit:10;stroke-dasharray:none;stroke-opacity:1"
             id="path110" /><path
             d="m 210,491.12 3.5,7 h -7 z"
             style="fill:#000000;fill-opacity:1;fill-rule:nonzero;stroke:none"
             id="path112" /><path
             d="m 210,491.12 3.5,7 h -7 z"
             style="fill:none;stroke:#000000;stroke-width:1;stroke-linecap:butt;stroke-linejoin:miter;stroke-miterlimit:10;stroke-dasharray:none;stroke-opacity:1"
             id="path114" /><path
             d="m 270,279.66 h 11.88"
             style="fill:none;stroke:#000000;stroke-width:1;stroke-linecap:butt;stroke-linejoin:miter;stroke-miterlimit:10;stroke-dasharray:none;stroke-opacity:1"
             id="path116" /><path
             d="m 288.88,279.66 -7,3.5 v -7 z"
             style="fill:#000000;fill-opacity:1;fill-rule:nonzero;stroke:none"
             id="path118" /><path
             d="m 288.88,279.66 -7,3.5 v -7 z"
             style="fill:none;stroke:#000000;stroke-width:1;stroke-linecap:butt;stroke-linejoin:miter;stroke-miterlimit:10;stroke-dasharray:none;stroke-opacity:1"
             id="path120" /><path
             d="m 410,279.66 h 11.88"
             style="fill:none;stroke:#000000;stroke-width:1;stroke-linecap:butt;stroke-linejoin:miter;stroke-miterlimit:10;stroke-dasharray:none;stroke-opacity:1"
             id="path122" /><path
             d="m 428.88,279.66 -7,3.5 v -7 z"
             style="fill:#000000;fill-opacity:1;fill-rule:nonzero;stroke:none"
             id="path124" /><path
             d="m 428.88,279.66 -7,3.5 v -7 z"
             style="fill:none;stroke:#000000;stroke-width:1;stroke-linecap:butt;stroke-linejoin:miter;stroke-miterlimit:10;stroke-dasharray:none;stroke-opacity:1"
             id="path126" /><path
             d="m 550,279.66 h 11.88"
             style="fill:none;stroke:#000000;stroke-width:1;stroke-linecap:butt;stroke-linejoin:miter;stroke-miterlimit:10;stroke-dasharray:none;stroke-opacity:1"
             id="path128" /><path
             d="m 568.88,279.66 -7,3.5 v -7 z"
             style="fill:#000000;fill-opacity:1;fill-rule:nonzero;stroke:none"
             id="path130" /><path
             d="m 568.88,279.66 -7,3.5 v -7 z"
             style="fill:none;stroke:#000000;stroke-width:1;stroke-linecap:butt;stroke-linejoin:miter;stroke-miterlimit:10;stroke-dasharray:none;stroke-opacity:1"
             id="path132" /><path
             d="m 80,240 h 130 v 11.88"
             style="fill:none;stroke:#000000;stroke-width:1;stroke-linecap:butt;stroke-linejoin:miter;stroke-miterlimit:10;stroke-dasharray:none;stroke-opacity:1"
             id="path134" /><path
             d="m 80,236 v 8"
             style="fill:none;stroke:#000000;stroke-width:1;stroke-linecap:butt;stroke-linejoin:miter;stroke-miterlimit:10;stroke-dasharray:none;stroke-opacity:1"
             id="path136" /><path
             d="m 210,258.88 -3.5,-7 h 7 z"
             style="fill:#000000;fill-opacity:1;fill-rule:nonzero;stroke:none"
             id="path138" /><path
             d="m 210,258.88 -3.5,-7 h 7 z"
             style="fill:none;stroke:#000000;stroke-width:1;stroke-linecap:butt;stroke-linejoin:miter;stroke-miterlimit:10;stroke-dasharray:none;stroke-opacity:1"
             id="path140" /><path
             d="m 160,330 50,-50"
             style="fill:none;stroke:#000000;stroke-width:1;stroke-linecap:butt;stroke-linejoin:miter;stroke-miterlimit:10;stroke-dasharray:none;stroke-opacity:1"
             id="path142" /><path
             d="M 260,350 160,330"
             style="fill:none;stroke:#000000;stroke-width:1;stroke-linecap:butt;stroke-linejoin:miter;stroke-miterlimit:10;stroke-dasharray:none;stroke-opacity:1"
             id="path144" /><path
             d="M 210,299.89999 160,330"
             style="fill:none;stroke:#000000;stroke-width:1;stroke-linecap:butt;stroke-linejoin:miter;stroke-miterlimit:10;stroke-dasharray:none;stroke-opacity:1"
             id="path146" /><path
             d="m 209.98,280 v 19.89999"
             style="fill:none;stroke:#000000;stroke-width:1;stroke-linecap:butt;stroke-linejoin:miter;stroke-miterlimit:10;stroke-dasharray:none;stroke-opacity:1"
             id="path148" /><path
             d="m 210,300 50,50"
             style="fill:none;stroke:#000000;stroke-width:1;stroke-linecap:butt;stroke-linejoin:miter;stroke-miterlimit:10;stroke-dasharray:none;stroke-opacity:1"
             id="path150" /><path
             d="m 210,420 -50,10"
             style="fill:none;stroke:#000000;stroke-width:1;stroke-linecap:butt;stroke-linejoin:miter;stroke-miterlimit:10;stroke-dasharray:none;stroke-opacity:1"
             id="path152" /><path
             d="m 160,430 50,-50"
             style="fill:none;stroke:#000000;stroke-width:1;stroke-linecap:butt;stroke-linejoin:miter;stroke-miterlimit:10;stroke-dasharray:none;stroke-opacity:1"
             id="path154" /><path
             d="M 260,450 160,430"
             style="fill:none;stroke:#000000;stroke-width:1;stroke-linecap:butt;stroke-linejoin:miter;stroke-miterlimit:10;stroke-dasharray:none;stroke-opacity:1"
             id="path156" /><path
             d="M 260,450 210,380"
             style="fill:none;stroke:#000000;stroke-width:1;stroke-linecap:butt;stroke-linejoin:miter;stroke-miterlimit:10;stroke-dasharray:none;stroke-opacity:1"
             id="path158" /><path
             d="m 210,380 v 40"
             style="fill:none;stroke:#000000;stroke-width:1;stroke-linecap:butt;stroke-linejoin:miter;stroke-miterlimit:10;stroke-dasharray:none;stroke-opacity:1"
             id="path160" /><path
             d="M 210,289.89999 V 300"
             style="fill:none;stroke:#000000;stroke-width:1;stroke-linecap:butt;stroke-linejoin:miter;stroke-miterlimit:10;stroke-dasharray:none;stroke-opacity:1"
             id="path162" /><path
             d="m 212,300 c -2e-5,0.2652 -0.0508,0.52032 -0.15228,0.76535 -0.1015,0.24503 -0.24602,0.4613 -0.43354,0.64887 -0.18754,0.18753 -0.40383,0.33203 -0.64886,0.43353 -0.24503,0.10147 -0.50014,0.15222 -0.76532,0.15225 -0.26523,-3e-5 -0.52036,-0.0508 -0.7654,-0.15225 -0.24504,-0.1015 -0.46132,-0.246 -0.64885,-0.43353 -0.18754,-0.18757 -0.33206,-0.40384 -0.43356,-0.64887 C 208.0507,300.52032 207.99998,300.2652 208,300 c -2e-5,-0.26523 0.0507,-0.52036 0.15221,-0.76538 0.10148,-0.24503 0.246,-0.4613 0.43354,-0.64884 0.18753,-0.18756 0.40381,-0.33209 0.64884,-0.43356 C 209.47963,298.05075 209.73477,298 210,298 c 0.26518,0 0.52029,0.0507 0.76532,0.15222 0.24503,0.10147 0.46132,0.246 0.64886,0.43356 0.18752,0.18754 0.33204,0.40381 0.43354,0.64884 0.1015,0.24502 0.15226,0.50015 0.15228,0.76538 z"
             style="fill:#000000;fill-opacity:1;fill-rule:nonzero;stroke:none"
             id="path164" /><path
             d="m 162,330 c -2e-5,0.2652 -0.0508,0.52029 -0.15227,0.76532 -0.10148,0.24503 -0.246,0.46133 -0.43353,0.64886 -0.18755,0.18754 -0.40382,0.33207 -0.64885,0.43357 -0.24502,0.10147 -0.50014,0.15222 -0.76535,0.15225 -0.26523,-3e-5 -0.52036,-0.0508 -0.7654,-0.15225 -0.24502,-0.1015 -0.4613,-0.24603 -0.64883,-0.43357 -0.18755,-0.18753 -0.33206,-0.40383 -0.43355,-0.64886 C 158.05073,330.52029 157.99998,330.2652 158,330 c -2e-5,-0.26523 0.0507,-0.52036 0.15222,-0.76538 0.10149,-0.24503 0.246,-0.4613 0.43355,-0.64884 0.18753,-0.18753 0.40381,-0.33206 0.64883,-0.43356 C 159.47964,328.05075 159.73477,328 160,328 c 0.26521,0 0.52033,0.0507 0.76535,0.15222 0.24503,0.1015 0.4613,0.24603 0.64885,0.43356 0.18753,0.18754 0.33205,0.40381 0.43353,0.64884 0.10149,0.24502 0.15225,0.50015 0.15227,0.76538 z"
             style="fill:#000000;fill-opacity:1;fill-rule:nonzero;stroke:none"
             id="path166" /><path
             d="m 262,350 c -3e-5,0.2652 -0.0508,0.52032 -0.15228,0.76535 -0.1015,0.24503 -0.246,0.46133 -0.43354,0.64887 -0.18753,0.18753 -0.40383,0.33203 -0.64886,0.43353 -0.24503,0.10147 -0.50012,0.15222 -0.76532,0.15225 -0.26523,-3e-5 -0.52039,-0.0508 -0.76541,-0.15225 -0.24503,-0.1015 -0.46131,-0.246 -0.64884,-0.43353 -0.18753,-0.18754 -0.33206,-0.40384 -0.43356,-0.64887 C 258.05072,350.52032 257.99997,350.2652 258,350 c -3e-5,-0.26526 0.0507,-0.52039 0.15219,-0.76541 0.1015,-0.24503 0.24603,-0.46131 0.43356,-0.64884 0.18753,-0.18753 0.40381,-0.33206 0.64884,-0.43353 C 259.47961,348.05075 259.73477,348 260,348 c 0.2652,0 0.52029,0.0507 0.76532,0.15222 0.24503,0.10147 0.46133,0.246 0.64886,0.43353 0.18754,0.18753 0.33204,0.40381 0.43354,0.64884 0.1015,0.24502 0.15225,0.50015 0.15228,0.76541 z"
             style="fill:#000000;fill-opacity:1;fill-rule:nonzero;stroke:none"
             id="path168" /><path
             d="M 260.04001,350.04001 210,280"
             style="fill:none;stroke:#000000;stroke-width:1;stroke-linecap:butt;stroke-linejoin:miter;stroke-miterlimit:10;stroke-dasharray:none;stroke-opacity:1"
             id="path170" /><path
             d="m 212,380 c -2e-5,0.26517 -0.0508,0.52026 -0.15228,0.76529 -0.1015,0.24502 -0.24602,0.4613 -0.43354,0.64886 -0.18754,0.1875 -0.40383,0.332 -0.64886,0.43354 -0.24503,0.1015 -0.50014,0.15228 -0.76532,0.15231 -0.26523,-3e-5 -0.52036,-0.0508 -0.7654,-0.15231 -0.24504,-0.10154 -0.46132,-0.24604 -0.64885,-0.43354 -0.18754,-0.18756 -0.33206,-0.40384 -0.43356,-0.64886 C 208.0507,380.52026 207.99998,380.26517 208,380 c -2e-5,-0.26523 0.0507,-0.52039 0.15221,-0.76541 0.10148,-0.24503 0.246,-0.46127 0.43354,-0.64881 0.18753,-0.18756 0.40381,-0.33209 0.64884,-0.43359 C 209.47963,378.05072 209.73477,378 210,378 c 0.26518,0 0.52029,0.0507 0.76532,0.15219 0.24503,0.1015 0.46132,0.24603 0.64886,0.43359 0.18752,0.18754 0.33204,0.40378 0.43354,0.64881 0.1015,0.24502 0.15226,0.50018 0.15228,0.76541 z"
             style="fill:#000000;fill-opacity:1;fill-rule:nonzero;stroke:none"
             id="path172" /><path
             d="m 162,430 c -2e-5,0.2652 -0.0508,0.52029 -0.15227,0.76532 -0.10148,0.24499 -0.246,0.46127 -0.43353,0.64883 -0.18755,0.1875 -0.40382,0.332 -0.64885,0.43354 -0.24502,0.1015 -0.50014,0.15228 -0.76535,0.15231 -0.26523,-3e-5 -0.52036,-0.0508 -0.7654,-0.15231 -0.24502,-0.10154 -0.4613,-0.24604 -0.64883,-0.43354 -0.18755,-0.18756 -0.33206,-0.40384 -0.43355,-0.64886 C 158.05073,430.52029 157.99998,430.2652 158,430 c -2e-5,-0.26526 0.0507,-0.52039 0.15222,-0.76541 0.10149,-0.24503 0.246,-0.46127 0.43355,-0.64881 0.18753,-0.18756 0.40381,-0.33209 0.64883,-0.43359 C 159.47964,428.05072 159.73477,428 160,428 c 0.26521,0 0.52033,0.0507 0.76535,0.15219 0.24503,0.1015 0.4613,0.24603 0.64885,0.43359 0.18753,0.18754 0.33205,0.40378 0.43353,0.64881 0.10149,0.24502 0.15225,0.50015 0.15227,0.76541 z"
             style="fill:#000000;fill-opacity:1;fill-rule:nonzero;stroke:none"
             id="path174" /><path
             d="m 210,410 v 10"
             style="fill:none;stroke:#000000;stroke-width:1;stroke-linecap:butt;stroke-linejoin:miter;stroke-miterlimit:10;stroke-dasharray:none;stroke-opacity:1"
             id="path176" /><path
             d="M 210,419.95999 260,450"
             style="fill:none;stroke:#000000;stroke-width:1;stroke-linecap:butt;stroke-linejoin:miter;stroke-miterlimit:10;stroke-dasharray:none;stroke-opacity:1"
             id="path178" /><path
             d="m 212,420 c -2e-5,0.2652 -0.0508,0.52032 -0.15228,0.76535 -0.1015,0.24503 -0.24602,0.4613 -0.43354,0.64883 -0.18754,0.18754 -0.40383,0.33204 -0.64886,0.43351 -0.24503,0.1015 -0.50014,0.15228 -0.76532,0.15231 -0.26523,-3e-5 -0.52036,-0.0508 -0.7654,-0.15231 -0.24504,-0.10147 -0.46132,-0.24597 -0.64885,-0.43351 -0.18754,-0.18753 -0.33206,-0.40383 -0.43356,-0.64886 C 208.0507,420.52029 207.99998,420.2652 208,420 c -2e-5,-0.26523 0.0507,-0.52039 0.15221,-0.76541 0.10148,-0.24506 0.246,-0.46134 0.43354,-0.64884 0.18753,-0.18753 0.40381,-0.33203 0.64884,-0.43353 C 209.47963,418.05075 209.73477,418 210,418 c 0.26518,0 0.52029,0.0507 0.76532,0.15219 0.24503,0.10153 0.46132,0.24603 0.64886,0.43356 0.18752,0.1875 0.33204,0.40378 0.43354,0.64884 0.1015,0.24502 0.15226,0.50018 0.15228,0.76541 z"
             style="fill:#e50019;fill-opacity:1;fill-rule:nonzero;stroke:none"
             id="path180" /><path
             d="m 210,349.82999 v 18"
             style="fill:none;stroke:#e50019;stroke-width:1;stroke-linecap:butt;stroke-linejoin:miter;stroke-miterlimit:10;stroke-dasharray:none;stroke-opacity:1"
             id="path182" /><path
             d="m 208.67,364.95001 1.33,4 1.33,-4"
             style="fill:none;stroke:#e50019;stroke-width:1;stroke-linecap:butt;stroke-linejoin:miter;stroke-miterlimit:10;stroke-dasharray:none;stroke-opacity:1"
             id="path184" /><path
             d="m 349.89999,349.82999 v 17.93002"
             style="fill:none;stroke:#e50019;stroke-width:1;stroke-linecap:butt;stroke-linejoin:miter;stroke-miterlimit:10;stroke-dasharray:none;stroke-opacity:1"
             id="path186" /><path
             d="m 348.57001,364.88 1.32998,4 1.33002,-4"
             style="fill:none;stroke:#e50019;stroke-width:1;stroke-linecap:butt;stroke-linejoin:miter;stroke-miterlimit:10;stroke-dasharray:none;stroke-opacity:1"
             id="path188" /><path
             d="m 489.82999,349.82999 v 17.93002"
             style="fill:none;stroke:#e50019;stroke-width:1;stroke-linecap:butt;stroke-linejoin:miter;stroke-miterlimit:10;stroke-dasharray:none;stroke-opacity:1"
             id="path190" /><path
             d="m 488.5,364.88 1.32999,4 1.33001,-4"
             style="fill:none;stroke:#e50019;stroke-width:1;stroke-linecap:butt;stroke-linejoin:miter;stroke-miterlimit:10;stroke-dasharray:none;stroke-opacity:1"
             id="path192" /><path
             d="m 629.83002,349.82999 v 17.93002"
             style="fill:none;stroke:#e50019;stroke-width:1;stroke-linecap:butt;stroke-linejoin:miter;stroke-miterlimit:10;stroke-dasharray:none;stroke-opacity:1"
             id="path194" /><path
             d="m 628.5,364.88 1.33002,4 1.32995,-4"
             style="fill:none;stroke:#e50019;stroke-width:1;stroke-linecap:butt;stroke-linejoin:miter;stroke-miterlimit:10;stroke-dasharray:none;stroke-opacity:1"
             id="path196" /><path
             d="M 299.95999,300.01999 350,340.04001"
             style="fill:none;stroke:#000000;stroke-width:1;stroke-linecap:butt;stroke-linejoin:miter;stroke-miterlimit:10;stroke-dasharray:none;stroke-opacity:1"
             id="path198" /><path
             d="M 400,320 359.95999,280.01001"
             style="fill:none;stroke:#000000;stroke-width:1;stroke-linecap:butt;stroke-linejoin:miter;stroke-miterlimit:10;stroke-dasharray:none;stroke-opacity:1"
             id="path200" /><path
             d="M 400,320 300,300"
             style="fill:none;stroke:#000000;stroke-width:1;stroke-linecap:butt;stroke-linejoin:miter;stroke-miterlimit:10;stroke-dasharray:none;stroke-opacity:1"
             id="path202" /><path
             d="m 302,300 c -3e-5,0.2652 -0.0508,0.52032 -0.15225,0.76535 -0.1015,0.24503 -0.246,0.4613 -0.43353,0.64887 -0.18757,0.18753 -0.40384,0.33203 -0.64887,0.43353 -0.24503,0.10147 -0.50015,0.15222 -0.76535,0.15225 -0.26523,-3e-5 -0.52036,-0.0508 -0.76538,-0.15225 -0.24503,-0.1015 -0.4613,-0.246 -0.64884,-0.43353 -0.18756,-0.18757 -0.33209,-0.40384 -0.43356,-0.64887 C 298.05072,300.52032 297.99997,300.2652 298,300 c -3e-5,-0.26523 0.0507,-0.52036 0.15222,-0.76538 0.10147,-0.24503 0.246,-0.4613 0.43356,-0.64884 0.18754,-0.18756 0.40381,-0.33209 0.64884,-0.43356 C 299.47964,298.05075 299.73477,298 300,298 c 0.2652,0 0.52032,0.0507 0.76535,0.15222 0.24503,0.10147 0.4613,0.246 0.64887,0.43356 0.18753,0.18754 0.33203,0.40381 0.43353,0.64884 0.10147,0.24502 0.15222,0.50015 0.15225,0.76538 z"
             style="fill:#000000;fill-opacity:1;fill-rule:nonzero;stroke:none"
             id="path204" /><path
             d="m 352,340 c -3e-5,0.2652 -0.0508,0.52029 -0.15225,0.76532 -0.1015,0.24503 -0.246,0.46133 -0.43353,0.64886 -0.18754,0.18754 -0.40384,0.33204 -0.64887,0.43354 -0.24503,0.1015 -0.50015,0.15225 -0.76535,0.15228 -0.26526,-3e-5 -0.52039,-0.0508 -0.76541,-0.15228 -0.24503,-0.1015 -0.46131,-0.246 -0.64884,-0.43354 -0.18753,-0.18753 -0.33206,-0.40383 -0.43353,-0.64886 C 348.05072,340.52029 347.99997,340.2652 348,340 c -3e-5,-0.26526 0.0507,-0.52039 0.15222,-0.76541 0.10147,-0.24503 0.246,-0.46131 0.43353,-0.64884 0.18753,-0.18753 0.40381,-0.33206 0.64884,-0.43353 C 349.47961,338.05075 349.73474,338 350,338 c 0.2652,0 0.52032,0.0507 0.76535,0.15222 0.24503,0.10147 0.46133,0.246 0.64887,0.43353 0.18753,0.18753 0.33203,0.40381 0.43353,0.64884 0.10147,0.24502 0.15222,0.50015 0.15225,0.76541 z"
             style="fill:#000000;fill-opacity:1;fill-rule:nonzero;stroke:none"
             id="path206" /><path
             d="M 350,340.04001 400,320"
             style="fill:none;stroke:#000000;stroke-width:1;stroke-linecap:butt;stroke-linejoin:miter;stroke-miterlimit:10;stroke-dasharray:none;stroke-opacity:1"
             id="path208" /><path
             d="m 402,320 c -3e-5,0.2652 -0.0508,0.52029 -0.15228,0.76532 -0.10147,0.24503 -0.24597,0.4613 -0.4335,0.64886 -0.18754,0.18754 -0.40384,0.33204 -0.6489,0.43354 -0.24503,0.1015 -0.50012,0.15225 -0.76532,0.15228 -0.26523,-3e-5 -0.52039,-0.0508 -0.76541,-0.15228 -0.24503,-0.1015 -0.46131,-0.246 -0.64884,-0.43354 -0.18756,-0.18756 -0.33206,-0.40383 -0.43353,-0.64886 C 398.05072,320.52029 397.99997,320.2652 398,320 c -3e-5,-0.26523 0.0507,-0.52036 0.15222,-0.76538 0.10147,-0.24503 0.24597,-0.4613 0.43353,-0.64884 0.18753,-0.18753 0.40381,-0.33206 0.64884,-0.43356 C 399.47961,318.05075 399.73477,318 400,318 c 0.2652,0 0.52029,0.0507 0.76532,0.15222 0.24506,0.1015 0.46136,0.24603 0.6489,0.43356 0.18753,0.18754 0.33203,0.40381 0.4335,0.64884 0.1015,0.24502 0.15225,0.50015 0.15228,0.76538 z"
             style="fill:#000000;fill-opacity:1;fill-rule:nonzero;stroke:none"
             id="path210" /><path
             d="m 300,300 60,-20"
             style="fill:none;stroke:#000000;stroke-width:1;stroke-linecap:butt;stroke-linejoin:miter;stroke-miterlimit:10;stroke-dasharray:none;stroke-opacity:1"
             id="path212" /><path
             d="m 362,280 c -3e-5,0.26523 -0.0508,0.52032 -0.15231,0.76532 -0.1015,0.24503 -0.24601,0.46133 -0.43351,0.64886 -0.18753,0.18754 -0.40383,0.33204 -0.64886,0.43354 -0.24503,0.1015 -0.50012,0.15225 -0.76532,0.15228 -0.26523,-3e-5 -0.52039,-0.0508 -0.76541,-0.15228 -0.24503,-0.1015 -0.46131,-0.246 -0.64884,-0.43354 -0.18756,-0.18753 -0.33209,-0.40383 -0.43356,-0.64886 -0.10147,-0.245 -0.15222,-0.50009 -0.15219,-0.76532 -3e-5,-0.26523 0.0507,-0.52039 0.15219,-0.76541 0.10147,-0.24503 0.246,-0.46131 0.43356,-0.64884 0.18753,-0.18753 0.40381,-0.33203 0.64884,-0.43353 C 359.47961,278.05075 359.73477,278 360,278 c 0.2652,0 0.52029,0.0507 0.76532,0.15222 0.24503,0.1015 0.46133,0.246 0.64886,0.43353 0.1875,0.18753 0.33201,0.40381 0.43354,0.64884 0.10147,0.24502 0.15225,0.50018 0.15228,0.76541 z"
             style="fill:#000000;fill-opacity:1;fill-rule:nonzero;stroke:none"
             id="path214" /><path
             d="m 362,380 c -3e-5,0.26517 -0.0508,0.52026 -0.15231,0.76529 -0.1015,0.24502 -0.24601,0.4613 -0.43351,0.64886 -0.18753,0.1875 -0.40383,0.332 -0.64886,0.43354 -0.24503,0.1015 -0.50012,0.15228 -0.76532,0.15231 -0.26523,-3e-5 -0.52039,-0.0508 -0.76541,-0.15231 -0.24503,-0.10154 -0.46131,-0.24604 -0.64884,-0.43354 -0.18756,-0.18756 -0.33209,-0.40384 -0.43356,-0.64886 C 358.05072,380.52026 357.99997,380.26517 358,380 c -3e-5,-0.26523 0.0507,-0.52039 0.15219,-0.76541 0.10147,-0.24503 0.246,-0.46127 0.43356,-0.64881 0.18753,-0.18756 0.40381,-0.33209 0.64884,-0.43359 C 359.47961,378.05072 359.73477,378 360,378 c 0.2652,0 0.52029,0.0507 0.76532,0.15219 0.24503,0.1015 0.46133,0.24603 0.64886,0.43359 0.1875,0.18754 0.33201,0.40378 0.43354,0.64881 0.10147,0.24502 0.15225,0.50018 0.15228,0.76541 z"
             style="fill:#000000;fill-opacity:1;fill-rule:nonzero;stroke:none"
             id="path216" /><path
             d="m 302,400 c -3e-5,0.2652 -0.0508,0.52029 -0.15225,0.76532 -0.1015,0.24506 -0.246,0.46136 -0.43353,0.6489 -0.18757,0.18753 -0.40384,0.33203 -0.64887,0.4335 -0.24503,0.1015 -0.50015,0.15225 -0.76535,0.15228 -0.26523,-3e-5 -0.52036,-0.0508 -0.76538,-0.15228 -0.24503,-0.10147 -0.4613,-0.24597 -0.64884,-0.4335 -0.18756,-0.18754 -0.33209,-0.40384 -0.43356,-0.6489 C 298.05072,400.52029 297.99997,400.2652 298,400 c -3e-5,-0.26523 0.0507,-0.52039 0.15222,-0.76541 0.10147,-0.24503 0.246,-0.46131 0.43356,-0.64884 0.18754,-0.18756 0.40381,-0.33206 0.64884,-0.43353 C 299.47964,398.05075 299.73477,398 300,398 c 0.2652,0 0.52032,0.0507 0.76535,0.15222 0.24503,0.10147 0.4613,0.24597 0.64887,0.43353 0.18753,0.18753 0.33203,0.40381 0.43353,0.64884 0.10147,0.24502 0.15222,0.50018 0.15225,0.76541 z"
             style="fill:#000000;fill-opacity:1;fill-rule:nonzero;stroke:none"
             id="path218" /><path
             d="m 300,400 60,-20"
             style="fill:none;stroke:#000000;stroke-width:1;stroke-linecap:butt;stroke-linejoin:miter;stroke-miterlimit:10;stroke-dasharray:none;stroke-opacity:1"
             id="path220" /><path
             d="M 354,410 300,400"
             style="fill:none;stroke:#000000;stroke-width:1;stroke-linecap:butt;stroke-linejoin:miter;stroke-miterlimit:10;stroke-dasharray:none;stroke-opacity:1"
             id="path222" /><path
             d="m 300,400 50,40"
             style="fill:none;stroke:#000000;stroke-width:1;stroke-linecap:butt;stroke-linejoin:miter;stroke-miterlimit:10;stroke-dasharray:none;stroke-opacity:1"
             id="path224" /><path
             d="m 352,440 c -3e-5,0.26517 -0.0508,0.52029 -0.15225,0.76532 -0.1015,0.24503 -0.246,0.4613 -0.43353,0.64886 -0.18754,0.18754 -0.40384,0.33204 -0.64887,0.43354 -0.24503,0.10147 -0.50015,0.15225 -0.76535,0.15228 -0.26526,-3e-5 -0.52039,-0.0508 -0.76541,-0.15228 -0.24503,-0.1015 -0.46131,-0.246 -0.64884,-0.43354 -0.18753,-0.18756 -0.33206,-0.40383 -0.43353,-0.64886 C 348.05072,440.52029 347.99997,440.26517 348,440 c -3e-5,-0.26526 0.0507,-0.52042 0.15222,-0.76544 0.10147,-0.24503 0.246,-0.46128 0.43353,-0.64881 0.18753,-0.18753 0.40381,-0.33206 0.64884,-0.43353 C 349.47961,438.05075 349.73474,438 350,438 c 0.2652,0 0.52032,0.0507 0.76535,0.15222 0.24503,0.10147 0.46133,0.246 0.64887,0.43353 0.18753,0.18753 0.33203,0.40381 0.43353,0.64884 0.10147,0.24502 0.15222,0.50015 0.15225,0.76541 z"
             style="fill:#000000;fill-opacity:1;fill-rule:nonzero;stroke:none"
             id="path226" /><path
             d="m 402,420 c -3e-5,0.2652 -0.0508,0.52032 -0.15228,0.76535 -0.10147,0.24503 -0.24597,0.4613 -0.4335,0.64883 -0.18754,0.18754 -0.40384,0.33204 -0.6489,0.43351 -0.24503,0.1015 -0.50012,0.15228 -0.76532,0.15231 -0.26523,-3e-5 -0.52039,-0.0508 -0.76541,-0.15231 -0.24503,-0.10147 -0.46131,-0.24597 -0.64884,-0.43351 -0.18756,-0.18753 -0.33206,-0.40383 -0.43353,-0.64886 C 398.05072,420.52029 397.99997,420.2652 398,420 c -3e-5,-0.26523 0.0507,-0.52039 0.15222,-0.76541 0.10147,-0.24506 0.24597,-0.46134 0.43353,-0.64884 0.18753,-0.18753 0.40381,-0.33203 0.64884,-0.43353 C 399.47961,418.05075 399.73477,418 400,418 c 0.2652,0 0.52029,0.0507 0.76532,0.15219 0.24506,0.10153 0.46136,0.24603 0.6489,0.43356 0.18753,0.1875 0.33203,0.40378 0.4335,0.64884 0.1015,0.24502 0.15225,0.50018 0.15228,0.76541 z"
             style="fill:#000000;fill-opacity:1;fill-rule:nonzero;stroke:none"
             id="path228" /><path
             d="m 350,440 50,-20"
             style="fill:none;stroke:#000000;stroke-width:1;stroke-linecap:butt;stroke-linejoin:miter;stroke-miterlimit:10;stroke-dasharray:none;stroke-opacity:1"
             id="path230" /><path
             d="M 400,420 360,380"
             style="fill:none;stroke:#000000;stroke-width:1;stroke-linecap:butt;stroke-linejoin:miter;stroke-miterlimit:10;stroke-dasharray:none;stroke-opacity:1"
             id="path232" /><path
             d="M 400,420 354,410"
             style="fill:none;stroke:#000000;stroke-width:1;stroke-linecap:butt;stroke-linejoin:miter;stroke-miterlimit:10;stroke-dasharray:none;stroke-opacity:1"
             id="path234" /><path
             d="m 356,410 c -3e-5,0.2652 -0.0508,0.52029 -0.15231,0.76532 -0.10147,0.24503 -0.24597,0.4613 -0.43351,0.64886 -0.18753,0.18754 -0.40383,0.33204 -0.64889,0.43354 -0.245,0.1015 -0.50009,0.15225 -0.76529,0.15228 -0.26523,-3e-5 -0.52039,-0.0508 -0.76541,-0.15228 -0.24503,-0.1015 -0.46127,-0.246 -0.64881,-0.43354 -0.18756,-0.18756 -0.33209,-0.40383 -0.43359,-0.64886 C 352.05072,410.52029 351.99997,410.2652 352,410 c -3e-5,-0.26523 0.0507,-0.52039 0.15219,-0.76541 0.1015,-0.24503 0.24603,-0.46131 0.43359,-0.64884 0.18754,-0.18753 0.40378,-0.33206 0.64881,-0.43356 C 353.47961,408.05072 353.73477,408 354,408 c 0.2652,0 0.52029,0.0507 0.76529,0.15219 0.24506,0.1015 0.46136,0.24603 0.64889,0.43356 0.18754,0.18753 0.33204,0.40381 0.43351,0.64884 0.10153,0.24502 0.15228,0.50018 0.15231,0.76541 z"
             style="fill:#e50019;fill-opacity:1;fill-rule:nonzero;stroke:none"
             id="path236" /><path
             d="m 580,300 50,40"
             style="fill:none;stroke:#000000;stroke-width:1;stroke-linecap:butt;stroke-linejoin:miter;stroke-miterlimit:10;stroke-dasharray:none;stroke-opacity:1"
             id="path238" /><path
             d="m 632,340 c -6e-5,0.2652 -0.0508,0.52029 -0.15234,0.76532 -0.10151,0.24503 -0.24598,0.46133 -0.43348,0.64886 -0.18756,0.18754 -0.40387,0.33204 -0.64886,0.43354 -0.24506,0.1015 -0.50012,0.15225 -0.76532,0.15228 -0.26526,-3e-5 -0.52045,-0.0508 -0.7655,-0.15228 -0.24506,-0.1015 -0.46131,-0.246 -0.64881,-0.43354 -0.18756,-0.18753 -0.33209,-0.40383 -0.43353,-0.64886 C 628.05066,340.52029 627.99994,340.2652 628,340 c -6e-5,-0.26526 0.0507,-0.52039 0.15216,-0.76541 0.10144,-0.24503 0.24597,-0.46131 0.43353,-0.64884 0.1875,-0.18753 0.40375,-0.33206 0.64881,-0.43353 C 629.47955,338.05075 629.73474,338 630,338 c 0.2652,0 0.52026,0.0507 0.76532,0.15222 0.24499,0.10147 0.4613,0.246 0.64886,0.43353 0.1875,0.18753 0.33197,0.40381 0.43348,0.64884 0.1015,0.24502 0.15228,0.50015 0.15234,0.76541 z"
             style="fill:#000000;fill-opacity:1;fill-rule:nonzero;stroke:none"
             id="path240" /><path
             d="m 630,340 50,-20"
             style="fill:none;stroke:#000000;stroke-width:1;stroke-linecap:butt;stroke-linejoin:miter;stroke-miterlimit:10;stroke-dasharray:none;stroke-opacity:1"
             id="path242" /><path
             d="m 682,320 c -6e-5,0.2652 -0.0508,0.52029 -0.15228,0.76532 -0.1015,0.24503 -0.24604,0.4613 -0.43354,0.64886 -0.18756,0.18754 -0.40387,0.33204 -0.64892,0.43354 -0.245,0.1015 -0.50006,0.15225 -0.76526,0.15228 -0.26526,-3e-5 -0.52039,-0.0508 -0.76544,-0.15228 -0.24506,-0.1015 -0.46131,-0.246 -0.64881,-0.43354 -0.18756,-0.18756 -0.33209,-0.40383 -0.43359,-0.64886 C 678.05072,320.52029 678,320.2652 678,320 c 0,-0.26523 0.0507,-0.52036 0.15216,-0.76538 0.1015,-0.24503 0.24603,-0.4613 0.43359,-0.64884 0.1875,-0.18753 0.40375,-0.33206 0.64881,-0.43356 C 679.47961,318.05075 679.73474,318 680,318 c 0.2652,0 0.52026,0.0507 0.76526,0.15222 0.24505,0.1015 0.46136,0.24603 0.64892,0.43356 0.1875,0.18754 0.33204,0.40381 0.43354,0.64884 0.1015,0.24502 0.15222,0.50015 0.15228,0.76538 z"
             style="fill:#000000;fill-opacity:1;fill-rule:nonzero;stroke:none"
             id="path244" /><path
             d="M 680,320 580,300"
             style="fill:none;stroke:#000000;stroke-width:1;stroke-linecap:butt;stroke-linejoin:miter;stroke-miterlimit:10;stroke-dasharray:none;stroke-opacity:1"
             id="path246" /><path
             d="M 680,320 640,280"
             style="fill:none;stroke:#000000;stroke-width:1;stroke-linecap:butt;stroke-linejoin:miter;stroke-miterlimit:10;stroke-dasharray:none;stroke-opacity:1"
             id="path248" /><path
             d="m 642,280 c -6e-5,0.26523 -0.0508,0.52032 -0.15234,0.76532 -0.10151,0.24503 -0.24598,0.46133 -0.43348,0.64886 -0.18756,0.18754 -0.40387,0.33204 -0.64886,0.43354 -0.24506,0.1015 -0.50012,0.15225 -0.76532,0.15228 -0.2652,-3e-5 -0.52039,-0.0508 -0.76544,-0.15228 -0.24506,-0.1015 -0.46131,-0.246 -0.64881,-0.43354 -0.18756,-0.18753 -0.33209,-0.40383 -0.43359,-0.64886 -0.1015,-0.245 -0.15222,-0.50009 -0.15216,-0.76532 -6e-5,-0.26523 0.0507,-0.52039 0.15216,-0.76541 0.1015,-0.24503 0.24603,-0.46131 0.43359,-0.64884 0.1875,-0.18753 0.40375,-0.33203 0.64881,-0.43353 C 639.47961,278.05075 639.7348,278 640,278 c 0.2652,0 0.52026,0.0507 0.76532,0.15222 0.24499,0.1015 0.4613,0.246 0.64886,0.43353 0.1875,0.18753 0.33197,0.40381 0.43348,0.64884 0.1015,0.24502 0.15228,0.50018 0.15234,0.76541 z"
             style="fill:#000000;fill-opacity:1;fill-rule:nonzero;stroke:none"
             id="path250" /><path
             d="m 580,300 60,-20"
             style="fill:none;stroke:#000000;stroke-width:1;stroke-linecap:butt;stroke-linejoin:miter;stroke-miterlimit:10;stroke-dasharray:none;stroke-opacity:1"
             id="path252" /><path
             d="m 582,300 c -6e-5,0.2652 -0.0508,0.52032 -0.15228,0.76535 -0.1015,0.24503 -0.24604,0.4613 -0.43354,0.64887 -0.18756,0.18753 -0.40387,0.33203 -0.64892,0.43353 -0.245,0.10147 -0.50006,0.15222 -0.76526,0.15225 -0.26526,-3e-5 -0.52039,-0.0508 -0.76544,-0.15225 -0.24506,-0.1015 -0.46137,-0.246 -0.64881,-0.43353 -0.18756,-0.18757 -0.33209,-0.40384 -0.43359,-0.64887 C 578.05066,300.52032 577.99994,300.2652 578,300 c -6e-5,-0.26523 0.0507,-0.52036 0.15216,-0.76538 0.1015,-0.24503 0.24603,-0.4613 0.43359,-0.64884 0.18744,-0.18756 0.40375,-0.33209 0.64881,-0.43356 C 579.47961,298.05075 579.73474,298 580,298 c 0.2652,0 0.52026,0.0507 0.76526,0.15222 0.24505,0.10147 0.46136,0.246 0.64892,0.43356 0.1875,0.18754 0.33204,0.40381 0.43354,0.64884 0.1015,0.24502 0.15222,0.50015 0.15228,0.76538 z"
             style="fill:#000000;fill-opacity:1;fill-rule:nonzero;stroke:none"
             id="path254" /><path
             d="m 580,400 50,40"
             style="fill:none;stroke:#000000;stroke-width:1;stroke-linecap:butt;stroke-linejoin:miter;stroke-miterlimit:10;stroke-dasharray:none;stroke-opacity:1"
             id="path256" /><path
             d="m 630,440 50,-20"
             style="fill:none;stroke:#000000;stroke-width:1;stroke-linecap:butt;stroke-linejoin:miter;stroke-miterlimit:10;stroke-dasharray:none;stroke-opacity:1"
             id="path258" /><path
             d="M 680,420 640,380"
             style="fill:none;stroke:#000000;stroke-width:1;stroke-linecap:butt;stroke-linejoin:miter;stroke-miterlimit:10;stroke-dasharray:none;stroke-opacity:1"
             id="path260" /><path
             d="m 580,400 60,-20"
             style="fill:none;stroke:#000000;stroke-width:1;stroke-linecap:butt;stroke-linejoin:miter;stroke-miterlimit:10;stroke-dasharray:none;stroke-opacity:1"
             id="path262" /><path
             d="m 632,440 c -6e-5,0.26517 -0.0508,0.52029 -0.15234,0.76532 -0.10151,0.24503 -0.24598,0.4613 -0.43348,0.64886 -0.18756,0.18754 -0.40387,0.33204 -0.64886,0.43354 -0.24506,0.10147 -0.50012,0.15225 -0.76532,0.15228 -0.26526,-3e-5 -0.52045,-0.0508 -0.7655,-0.15228 -0.24506,-0.1015 -0.46131,-0.246 -0.64881,-0.43354 -0.18756,-0.18756 -0.33209,-0.40383 -0.43353,-0.64886 C 628.05066,440.52029 627.99994,440.26517 628,440 c -6e-5,-0.26526 0.0507,-0.52042 0.15216,-0.76544 0.10144,-0.24503 0.24597,-0.46128 0.43353,-0.64881 0.1875,-0.18753 0.40375,-0.33206 0.64881,-0.43353 C 629.47955,438.05075 629.73474,438 630,438 c 0.2652,0 0.52026,0.0507 0.76532,0.15222 0.24499,0.10147 0.4613,0.246 0.64886,0.43353 0.1875,0.18753 0.33197,0.40381 0.43348,0.64884 0.1015,0.24502 0.15228,0.50015 0.15234,0.76541 z"
             style="fill:#000000;fill-opacity:1;fill-rule:nonzero;stroke:none"
             id="path264" /><path
             d="m 682,420 c -6e-5,0.2652 -0.0508,0.52032 -0.15228,0.76535 -0.1015,0.24503 -0.24604,0.4613 -0.43354,0.64883 -0.18756,0.18754 -0.40387,0.33204 -0.64892,0.43351 -0.245,0.1015 -0.50006,0.15228 -0.76526,0.15231 -0.26526,-3e-5 -0.52039,-0.0508 -0.76544,-0.15231 -0.24506,-0.10147 -0.46131,-0.24597 -0.64881,-0.43351 -0.18756,-0.18753 -0.33209,-0.40383 -0.43359,-0.64886 C 678.05072,420.52029 678,420.2652 678,420 c 0,-0.26523 0.0507,-0.52039 0.15216,-0.76541 0.1015,-0.24506 0.24603,-0.46134 0.43359,-0.64884 0.1875,-0.18753 0.40375,-0.33203 0.64881,-0.43353 C 679.47961,418.05075 679.73474,418 680,418 c 0.2652,0 0.52026,0.0507 0.76526,0.15219 0.24505,0.10153 0.46136,0.24603 0.64892,0.43356 0.1875,0.1875 0.33204,0.40378 0.43354,0.64884 0.1015,0.24502 0.15222,0.50018 0.15228,0.76541 z"
             style="fill:#000000;fill-opacity:1;fill-rule:nonzero;stroke:none"
             id="path266" /><path
             d="m 642,380 c -6e-5,0.26517 -0.0508,0.52026 -0.15234,0.76529 -0.10151,0.24502 -0.24598,0.4613 -0.43348,0.64886 -0.18756,0.1875 -0.40387,0.332 -0.64886,0.43354 -0.24506,0.1015 -0.50012,0.15228 -0.76532,0.15231 -0.2652,-3e-5 -0.52039,-0.0508 -0.76544,-0.15231 -0.24506,-0.10154 -0.46131,-0.24604 -0.64881,-0.43354 -0.18756,-0.18756 -0.33209,-0.40384 -0.43359,-0.64886 C 638.05066,380.52026 637.99994,380.26517 638,380 c -6e-5,-0.26523 0.0507,-0.52039 0.15216,-0.76541 0.1015,-0.24503 0.24603,-0.46127 0.43359,-0.64881 0.1875,-0.18756 0.40375,-0.33209 0.64881,-0.43359 C 639.47961,378.05072 639.7348,378 640,378 c 0.2652,0 0.52026,0.0507 0.76532,0.15219 0.24499,0.1015 0.4613,0.24603 0.64886,0.43359 0.1875,0.18754 0.33197,0.40378 0.43348,0.64881 0.1015,0.24502 0.15228,0.50018 0.15234,0.76541 z"
             style="fill:#000000;fill-opacity:1;fill-rule:nonzero;stroke:none"
             id="path268" /><path
             d="m 582,400 c -6e-5,0.2652 -0.0508,0.52029 -0.15228,0.76532 -0.1015,0.24506 -0.24604,0.46136 -0.43354,0.6489 -0.18756,0.18753 -0.40387,0.33203 -0.64892,0.4335 -0.245,0.1015 -0.50006,0.15225 -0.76526,0.15228 -0.26526,-3e-5 -0.52039,-0.0508 -0.76544,-0.15228 -0.24506,-0.10147 -0.46137,-0.24597 -0.64881,-0.4335 -0.18756,-0.18754 -0.33209,-0.40384 -0.43359,-0.6489 C 578.05066,400.52029 577.99994,400.2652 578,400 c -6e-5,-0.26523 0.0507,-0.52039 0.15216,-0.76541 0.1015,-0.24503 0.24603,-0.46131 0.43359,-0.64884 0.18744,-0.18756 0.40375,-0.33206 0.64881,-0.43353 C 579.47961,398.05075 579.73474,398 580,398 c 0.2652,0 0.52026,0.0507 0.76526,0.15222 0.24505,0.10147 0.46136,0.24597 0.64892,0.43353 0.1875,0.18753 0.33204,0.40381 0.43354,0.64884 0.1015,0.24502 0.15222,0.50018 0.15228,0.76541 z"
             style="fill:#000000;fill-opacity:1;fill-rule:nonzero;stroke:none"
             id="path270" /><path
             d="M 510,310 490,280"
             style="fill:none;stroke:#000000;stroke-width:1;stroke-linecap:butt;stroke-linejoin:miter;stroke-miterlimit:10;stroke-dasharray:none;stroke-opacity:1"
             id="path272" /><path
             d="m 510,310 -20,30.04001"
             style="fill:none;stroke:#000000;stroke-width:1;stroke-linecap:butt;stroke-linejoin:miter;stroke-miterlimit:10;stroke-dasharray:none;stroke-opacity:1"
             id="path274" /><path
             d="m 490,280 -20.04001,40.03"
             style="fill:none;stroke:#000000;stroke-width:1;stroke-linecap:butt;stroke-linejoin:miter;stroke-miterlimit:10;stroke-dasharray:none;stroke-opacity:1"
             id="path276" /><path
             d="M 469.95999,320.03 490,340.04001"
             style="fill:none;stroke:#000000;stroke-width:1;stroke-linecap:butt;stroke-linejoin:miter;stroke-miterlimit:10;stroke-dasharray:none;stroke-opacity:1"
             id="path278" /><path
             d="m 470,320 40.04001,-10.09"
             style="fill:none;stroke:#e50019;stroke-width:1;stroke-linecap:butt;stroke-linejoin:miter;stroke-miterlimit:10;stroke-dasharray:none;stroke-opacity:1"
             id="path280" /><path
             d="M 450.04001,280.01001 470,320"
             style="fill:none;stroke:#000000;stroke-width:1;stroke-linecap:butt;stroke-linejoin:miter;stroke-miterlimit:10;stroke-dasharray:none;stroke-opacity:1"
             id="path282" /><path
             d="m 510,310 10,30.04001"
             style="fill:none;stroke:#000000;stroke-width:1;stroke-linecap:butt;stroke-linejoin:miter;stroke-miterlimit:10;stroke-dasharray:none;stroke-opacity:1"
             id="path284" /><path
             d="m 510,310 30.03998,-20.10001"
             style="fill:none;stroke:#000000;stroke-width:1;stroke-linecap:butt;stroke-linejoin:miter;stroke-miterlimit:10;stroke-dasharray:none;stroke-opacity:1"
             id="path286" /><path
             d="m 442,340 c -3e-5,0.2652 -0.0508,0.52029 -0.15228,0.76532 -0.1015,0.24503 -0.246,0.46133 -0.43354,0.64886 -0.18756,0.18754 -0.40383,0.33204 -0.64886,0.43354 -0.24503,0.1015 -0.50015,0.15225 -0.76532,0.15228 -0.26526,-3e-5 -0.52042,-0.0508 -0.76544,-0.15228 -0.24503,-0.1015 -0.46128,-0.246 -0.64881,-0.43354 -0.18753,-0.18753 -0.33206,-0.40383 -0.43356,-0.64886 C 438.05069,340.52029 437.99997,340.2652 438,340 c -3e-5,-0.26526 0.0507,-0.52039 0.15216,-0.76541 0.10153,-0.24503 0.24606,-0.46131 0.43359,-0.64884 0.18753,-0.18753 0.40381,-0.33206 0.64884,-0.43353 C 439.47961,338.05075 439.73474,338 440,338 c 0.26517,0 0.52029,0.0507 0.76532,0.15222 0.24503,0.10147 0.4613,0.246 0.64886,0.43353 0.18754,0.18753 0.33204,0.40381 0.43354,0.64884 0.10147,0.24502 0.15225,0.50015 0.15228,0.76541 z"
             style="fill:#000000;fill-opacity:1;fill-rule:nonzero;stroke:none"
             id="path288" /><path
             d="m 440,340 30,-20"
             style="fill:none;stroke:#000000;stroke-width:1;stroke-linecap:butt;stroke-linejoin:miter;stroke-miterlimit:10;stroke-dasharray:none;stroke-opacity:1"
             id="path290" /><path
             d="m 472,320 c -3e-5,0.2652 -0.0508,0.52029 -0.15228,0.76532 -0.1015,0.24503 -0.246,0.4613 -0.43354,0.64886 -0.18753,0.18754 -0.40383,0.33204 -0.64889,0.43354 -0.245,0.1015 -0.50009,0.15225 -0.76529,0.15228 -0.26523,-3e-5 -0.52039,-0.0508 -0.76544,-0.15228 -0.24503,-0.1015 -0.46128,-0.246 -0.64881,-0.43354 -0.18756,-0.18756 -0.33209,-0.40383 -0.43359,-0.64886 C 468.05069,320.52029 467.99997,320.2652 468,320 c -3e-5,-0.26523 0.0507,-0.52036 0.15216,-0.76538 0.1015,-0.24503 0.24603,-0.4613 0.43359,-0.64884 0.18753,-0.18753 0.40378,-0.33206 0.64881,-0.43356 C 469.47961,318.05075 469.73477,318 470,318 c 0.2652,0 0.52029,0.0507 0.76532,0.15222 0.24503,0.1015 0.46133,0.24603 0.64886,0.43356 0.18754,0.18754 0.33204,0.40381 0.43351,0.64884 0.10153,0.24502 0.15228,0.50015 0.15231,0.76538 z"
             style="fill:#e50019;fill-opacity:1;fill-rule:nonzero;stroke:none"
             id="path292" /><path
             d="m 492,340 c -3e-5,0.2652 -0.0508,0.52029 -0.15231,0.76532 -0.1015,0.24503 -0.24601,0.46133 -0.43351,0.64886 -0.18756,0.18754 -0.40383,0.33204 -0.64886,0.43354 -0.24503,0.1015 -0.50015,0.15225 -0.76532,0.15228 -0.26526,-3e-5 -0.52042,-0.0508 -0.76547,-0.15228 -0.245,-0.1015 -0.46125,-0.246 -0.64878,-0.43354 -0.18756,-0.18753 -0.33209,-0.40383 -0.43356,-0.64886 C 488.05072,340.52029 487.99997,340.2652 488,340 c -3e-5,-0.26526 0.0507,-0.52039 0.15219,-0.76541 0.10147,-0.24503 0.246,-0.46131 0.43356,-0.64884 0.18753,-0.18753 0.40378,-0.33206 0.64881,-0.43353 C 489.47958,338.05075 489.73474,338 490,338 c 0.26517,0 0.52026,0.0507 0.76529,0.15222 0.24502,0.10147 0.46133,0.246 0.64889,0.43353 0.1875,0.18753 0.33201,0.40381 0.43351,0.64884 0.1015,0.24502 0.15228,0.50015 0.15231,0.76541 z"
             style="fill:#000000;fill-opacity:1;fill-rule:nonzero;stroke:none"
             id="path294" /><path
             d="m 522,340 c -6e-5,0.2652 -0.0508,0.52029 -0.15234,0.76532 -0.10151,0.24503 -0.24598,0.46133 -0.43348,0.64886 -0.18756,0.18754 -0.40387,0.33204 -0.64886,0.43354 -0.24506,0.1015 -0.50012,0.15225 -0.76532,0.15228 -0.26526,-3e-5 -0.52039,-0.0508 -0.76544,-0.15228 -0.245,-0.1015 -0.46124,-0.246 -0.64881,-0.43354 -0.18756,-0.18753 -0.33209,-0.40383 -0.43359,-0.64886 C 518.05066,340.52029 517.99994,340.2652 518,340 c -6e-5,-0.26526 0.0507,-0.52039 0.15216,-0.76541 0.1015,-0.24503 0.24603,-0.46131 0.43359,-0.64884 0.18757,-0.18753 0.40381,-0.33206 0.64887,-0.43353 C 519.47961,338.05075 519.73474,338 520,338 c 0.2652,0 0.52026,0.0507 0.76532,0.15222 0.24499,0.10147 0.4613,0.246 0.64886,0.43353 0.1875,0.18753 0.33197,0.40381 0.43348,0.64884 0.1015,0.24502 0.15228,0.50015 0.15234,0.76541 z"
             style="fill:#000000;fill-opacity:1;fill-rule:nonzero;stroke:none"
             id="path296" /><path
             d="m 512,310 c -3e-5,0.26517 -0.0508,0.52029 -0.15231,0.76535 -0.10147,0.245 -0.24597,0.46127 -0.43351,0.64883 -0.18756,0.18754 -0.40383,0.33204 -0.64886,0.43354 -0.24503,0.10147 -0.50015,0.15225 -0.76532,0.15228 -0.26526,-3e-5 -0.52042,-0.0508 -0.76547,-0.15228 -0.24503,-0.1015 -0.46128,-0.246 -0.64881,-0.43354 -0.18756,-0.18756 -0.33209,-0.40383 -0.43359,-0.64883 C 508.05066,310.52029 507.99997,310.26517 508,310 c -3e-5,-0.26523 0.0507,-0.52039 0.15213,-0.76541 0.1015,-0.24503 0.24603,-0.46131 0.43359,-0.64884 0.18753,-0.18756 0.40378,-0.33206 0.64881,-0.43353 C 509.47958,308.05075 509.73474,308 510,308 c 0.26517,0 0.52029,0.0507 0.76532,0.15222 0.24503,0.10147 0.4613,0.24597 0.64886,0.43353 0.18754,0.18753 0.33204,0.40381 0.43351,0.64884 0.1015,0.24502 0.15228,0.50018 0.15231,0.76541 z"
             style="fill:#e50019;fill-opacity:1;fill-rule:nonzero;stroke:none"
             id="path298" /><path
             d="m 542,290 c -6e-5,0.2652 -0.0508,0.52029 -0.15234,0.76532 -0.10151,0.24503 -0.24598,0.46133 -0.43348,0.64886 -0.18756,0.18754 -0.40387,0.33204 -0.64886,0.43351 -0.24506,0.10153 -0.50012,0.15228 -0.76532,0.15231 -0.2652,-3e-5 -0.52032,-0.0508 -0.76538,-0.15231 -0.24506,-0.10147 -0.46137,-0.24597 -0.64887,-0.43351 -0.18756,-0.18753 -0.33203,-0.40383 -0.43353,-0.64886 C 538.05072,290.52029 538,290.2652 538,290 c 0,-0.26523 0.0507,-0.52039 0.15222,-0.76544 0.1015,-0.24503 0.24597,-0.46128 0.43353,-0.64881 0.1875,-0.18753 0.40381,-0.33206 0.64887,-0.43356 C 539.47968,288.05072 539.7348,288 540,288 c 0.2652,0 0.52026,0.0507 0.76532,0.15219 0.24499,0.1015 0.4613,0.24603 0.64886,0.43356 0.1875,0.18753 0.33197,0.40378 0.43348,0.64881 0.1015,0.24505 0.15228,0.50021 0.15234,0.76544 z"
             style="fill:#000000;fill-opacity:1;fill-rule:nonzero;stroke:none"
             id="path300" /><path
             d="m 492,280 c -3e-5,0.26523 -0.0508,0.52032 -0.15231,0.76532 -0.1015,0.24503 -0.24601,0.46133 -0.43351,0.64886 -0.18756,0.18754 -0.40383,0.33204 -0.64886,0.43354 -0.24503,0.1015 -0.50015,0.15225 -0.76532,0.15228 -0.26526,-3e-5 -0.52042,-0.0508 -0.76547,-0.15228 -0.245,-0.1015 -0.46125,-0.246 -0.64878,-0.43354 -0.18756,-0.18753 -0.33209,-0.40383 -0.43356,-0.64886 -0.10147,-0.245 -0.15222,-0.50009 -0.15219,-0.76532 -3e-5,-0.26523 0.0507,-0.52039 0.15219,-0.76541 0.10147,-0.24503 0.246,-0.46131 0.43356,-0.64884 0.18753,-0.18753 0.40378,-0.33203 0.64881,-0.43353 C 489.47958,278.05075 489.73474,278 490,278 c 0.26517,0 0.52026,0.0507 0.76529,0.15222 0.24502,0.1015 0.46133,0.246 0.64889,0.43353 0.1875,0.18753 0.33201,0.40381 0.43351,0.64884 0.1015,0.24502 0.15228,0.50018 0.15231,0.76541 z"
             style="fill:#000000;fill-opacity:1;fill-rule:nonzero;stroke:none"
             id="path302" /><path
             d="m 452,280 c -3e-5,0.26523 -0.0508,0.52032 -0.15228,0.76532 -0.10147,0.24503 -0.24597,0.46133 -0.4335,0.64886 -0.18754,0.18754 -0.40384,0.33204 -0.6489,0.43354 -0.24503,0.1015 -0.50012,0.15225 -0.76532,0.15228 -0.26523,-3e-5 -0.52039,-0.0508 -0.76541,-0.15228 -0.24503,-0.1015 -0.46131,-0.246 -0.64884,-0.43354 -0.18756,-0.18753 -0.33209,-0.40383 -0.43356,-0.64886 -0.1015,-0.245 -0.15222,-0.50009 -0.15219,-0.76532 -3e-5,-0.26523 0.0507,-0.52039 0.15219,-0.76541 0.10147,-0.24503 0.246,-0.46131 0.43356,-0.64884 0.18753,-0.18753 0.40381,-0.33203 0.64884,-0.43353 C 449.47961,278.05075 449.73477,278 450,278 c 0.2652,0 0.52029,0.0507 0.76532,0.15222 0.24506,0.1015 0.46136,0.246 0.6489,0.43353 0.18753,0.18753 0.33203,0.40381 0.4335,0.64884 0.1015,0.24502 0.15225,0.50018 0.15228,0.76541 z"
             style="fill:#000000;fill-opacity:1;fill-rule:nonzero;stroke:none"
             id="path304" /><path
             d="m 492,440 c -3e-5,0.26517 -0.0508,0.52029 -0.15231,0.76532 -0.1015,0.24503 -0.24601,0.4613 -0.43351,0.64886 -0.18756,0.18754 -0.40383,0.33204 -0.64886,0.43354 -0.24503,0.10147 -0.50015,0.15225 -0.76532,0.15228 -0.26526,-3e-5 -0.52042,-0.0508 -0.76547,-0.15228 -0.245,-0.1015 -0.46125,-0.246 -0.64878,-0.43354 -0.18756,-0.18756 -0.33209,-0.40383 -0.43356,-0.64886 C 488.05072,440.52029 487.99997,440.26517 488,440 c -3e-5,-0.26526 0.0507,-0.52042 0.15219,-0.76544 0.10147,-0.24503 0.246,-0.46128 0.43356,-0.64881 0.18753,-0.18753 0.40378,-0.33206 0.64881,-0.43353 C 489.47958,438.05075 489.73474,438 490,438 c 0.26517,0 0.52026,0.0507 0.76529,0.15222 0.24502,0.10147 0.46133,0.246 0.64889,0.43353 0.1875,0.18753 0.33201,0.40381 0.43351,0.64884 0.1015,0.24502 0.15228,0.50015 0.15231,0.76541 z"
             style="fill:#000000;fill-opacity:1;fill-rule:nonzero;stroke:none"
             id="path306" /><path
             d="m 440,440 50,-25"
             style="fill:none;stroke:#000000;stroke-width:1;stroke-linecap:butt;stroke-linejoin:miter;stroke-miterlimit:10;stroke-dasharray:none;stroke-opacity:1"
             id="path308" /><path
             d="m 442,440 c -3e-5,0.26517 -0.0508,0.52029 -0.15228,0.76532 -0.1015,0.24503 -0.246,0.4613 -0.43354,0.64886 -0.18756,0.18754 -0.40383,0.33204 -0.64886,0.43354 -0.24503,0.10147 -0.50015,0.15225 -0.76532,0.15228 -0.26526,-3e-5 -0.52042,-0.0508 -0.76544,-0.15228 -0.24503,-0.1015 -0.46128,-0.246 -0.64881,-0.43354 -0.18753,-0.18756 -0.33206,-0.40383 -0.43356,-0.64886 C 438.05069,440.52029 437.99997,440.26517 438,440 c -3e-5,-0.26526 0.0507,-0.52042 0.15216,-0.76544 0.10153,-0.24503 0.24606,-0.46128 0.43359,-0.64881 0.18753,-0.18753 0.40381,-0.33206 0.64884,-0.43353 C 439.47961,438.05075 439.73474,438 440,438 c 0.26517,0 0.52029,0.0507 0.76532,0.15222 0.24503,0.10147 0.4613,0.246 0.64886,0.43353 0.18754,0.18753 0.33204,0.40381 0.43354,0.64884 0.10147,0.24502 0.15225,0.50015 0.15228,0.76541 z"
             style="fill:#000000;fill-opacity:1;fill-rule:nonzero;stroke:none"
             id="path310" /><path
             d="m 450,380 40,35"
             style="fill:none;stroke:#000000;stroke-width:1;stroke-linecap:butt;stroke-linejoin:miter;stroke-miterlimit:10;stroke-dasharray:none;stroke-opacity:1"
             id="path312" /><path
             d="m 452,380 c -3e-5,0.26517 -0.0508,0.52026 -0.15228,0.76529 -0.10147,0.24502 -0.24597,0.4613 -0.4335,0.64886 -0.18754,0.1875 -0.40384,0.332 -0.6489,0.43354 -0.24503,0.1015 -0.50012,0.15228 -0.76532,0.15231 -0.26523,-3e-5 -0.52039,-0.0508 -0.76541,-0.15231 -0.24503,-0.10154 -0.46131,-0.24604 -0.64884,-0.43354 -0.18756,-0.18756 -0.33209,-0.40384 -0.43356,-0.64886 C 448.05069,380.52026 447.99997,380.26517 448,380 c -3e-5,-0.26523 0.0507,-0.52039 0.15219,-0.76541 0.10147,-0.24503 0.246,-0.46127 0.43356,-0.64881 0.18753,-0.18756 0.40381,-0.33209 0.64884,-0.43359 C 449.47961,378.05072 449.73477,378 450,378 c 0.2652,0 0.52029,0.0507 0.76532,0.15219 0.24506,0.1015 0.46136,0.24603 0.6489,0.43359 0.18753,0.18754 0.33203,0.40378 0.4335,0.64881 0.1015,0.24502 0.15225,0.50018 0.15228,0.76541 z"
             style="fill:#000000;fill-opacity:1;fill-rule:nonzero;stroke:none"
             id="path314" /><path
             d="m 492,380 c -3e-5,0.26517 -0.0508,0.52026 -0.15231,0.76529 -0.1015,0.24502 -0.24601,0.4613 -0.43351,0.64886 -0.18756,0.1875 -0.40383,0.332 -0.64886,0.43354 -0.24503,0.1015 -0.50015,0.15228 -0.76532,0.15231 -0.26526,-3e-5 -0.52042,-0.0508 -0.76547,-0.15231 -0.245,-0.10154 -0.46125,-0.24604 -0.64878,-0.43354 -0.18756,-0.18756 -0.33209,-0.40384 -0.43356,-0.64886 C 488.05072,380.52026 487.99997,380.26517 488,380 c -3e-5,-0.26523 0.0507,-0.52039 0.15219,-0.76541 0.10147,-0.24503 0.246,-0.46127 0.43356,-0.64881 0.18753,-0.18756 0.40378,-0.33209 0.64881,-0.43359 C 489.47958,378.05072 489.73474,378 490,378 c 0.26517,0 0.52026,0.0507 0.76529,0.15219 0.24502,0.1015 0.46133,0.24603 0.64889,0.43359 0.1875,0.18754 0.33201,0.40378 0.43351,0.64881 0.1015,0.24502 0.15228,0.50018 0.15231,0.76541 z"
             style="fill:#000000;fill-opacity:1;fill-rule:nonzero;stroke:none"
             id="path316" /><path
             d="m 490,415 30,25"
             style="fill:none;stroke:#000000;stroke-width:1;stroke-linecap:butt;stroke-linejoin:miter;stroke-miterlimit:10;stroke-dasharray:none;stroke-opacity:1"
             id="path318" /><path
             d="m 522,440 c -6e-5,0.26517 -0.0508,0.52029 -0.15234,0.76532 -0.10151,0.24503 -0.24598,0.4613 -0.43348,0.64886 -0.18756,0.18754 -0.40387,0.33204 -0.64886,0.43354 -0.24506,0.10147 -0.50012,0.15225 -0.76532,0.15228 -0.26526,-3e-5 -0.52039,-0.0508 -0.76544,-0.15228 -0.245,-0.1015 -0.46124,-0.246 -0.64881,-0.43354 -0.18756,-0.18756 -0.33209,-0.40383 -0.43359,-0.64886 C 518.05066,440.52029 517.99994,440.26517 518,440 c -6e-5,-0.26526 0.0507,-0.52042 0.15216,-0.76544 0.1015,-0.24503 0.24603,-0.46128 0.43359,-0.64881 0.18757,-0.18753 0.40381,-0.33206 0.64887,-0.43353 C 519.47961,438.05075 519.73474,438 520,438 c 0.2652,0 0.52026,0.0507 0.76532,0.15222 0.24499,0.10147 0.4613,0.246 0.64886,0.43353 0.1875,0.18753 0.33197,0.40381 0.43348,0.64884 0.1015,0.24502 0.15228,0.50015 0.15234,0.76541 z"
             style="fill:#000000;fill-opacity:1;fill-rule:nonzero;stroke:none"
             id="path320" /><path
             d="m 490,415 50,-25"
             style="fill:none;stroke:#000000;stroke-width:1;stroke-linecap:butt;stroke-linejoin:miter;stroke-miterlimit:10;stroke-dasharray:none;stroke-opacity:1"
             id="path322" /><path
             d="m 542,390 c -6e-5,0.2652 -0.0508,0.52029 -0.15234,0.76532 -0.10151,0.24503 -0.24598,0.4613 -0.43348,0.64886 -0.18756,0.18754 -0.40387,0.33204 -0.64886,0.43354 -0.24506,0.1015 -0.50012,0.15225 -0.76532,0.15228 -0.2652,-3e-5 -0.52032,-0.0508 -0.76538,-0.15228 -0.24506,-0.1015 -0.46137,-0.246 -0.64887,-0.43354 -0.18756,-0.18756 -0.33203,-0.40383 -0.43353,-0.64886 C 538.05072,390.52029 538,390.2652 538,390 c 0,-0.26526 0.0507,-0.52042 0.15222,-0.76544 0.1015,-0.24503 0.24597,-0.46128 0.43353,-0.64881 0.1875,-0.18753 0.40381,-0.33206 0.64887,-0.43353 C 539.47968,388.05075 539.7348,388 540,388 c 0.2652,0 0.52026,0.0507 0.76532,0.15222 0.24499,0.10147 0.4613,0.246 0.64886,0.43353 0.1875,0.18753 0.33197,0.40381 0.43348,0.64884 0.1015,0.24502 0.15228,0.50015 0.15234,0.76541 z"
             style="fill:#000000;fill-opacity:1;fill-rule:nonzero;stroke:none"
             id="path324" /><path
             d="m 490,380 v 35"
             style="fill:none;stroke:#000000;stroke-width:1;stroke-linecap:butt;stroke-linejoin:miter;stroke-miterlimit:10;stroke-dasharray:none;stroke-opacity:1"
             id="path326" /><path
             d="m 490,415 v 25"
             style="fill:none;stroke:#000000;stroke-width:1;stroke-linecap:butt;stroke-linejoin:miter;stroke-miterlimit:10;stroke-dasharray:none;stroke-opacity:1"
             id="path328" /><path
             d="m 492,415 c -3e-5,0.26517 -0.0508,0.52029 -0.15231,0.76532 -0.1015,0.24503 -0.24601,0.4613 -0.43351,0.64886 -0.18756,0.18754 -0.40383,0.33204 -0.64886,0.43354 -0.24503,0.1015 -0.50015,0.15225 -0.76532,0.15228 -0.26526,-3e-5 -0.52042,-0.0508 -0.76547,-0.15228 -0.245,-0.1015 -0.46125,-0.246 -0.64878,-0.43354 -0.18756,-0.18756 -0.33209,-0.40383 -0.43356,-0.64886 C 488.05072,415.52029 487.99997,415.26517 488,415 c -3e-5,-0.26523 0.0507,-0.52039 0.15219,-0.76541 0.10147,-0.24506 0.246,-0.46134 0.43356,-0.64884 0.18753,-0.18753 0.40378,-0.33206 0.64881,-0.43356 C 489.47958,413.05072 489.73474,413 490,413 c 0.26517,0 0.52026,0.0507 0.76529,0.15219 0.24502,0.1015 0.46133,0.24603 0.64889,0.43356 0.1875,0.1875 0.33201,0.40378 0.43351,0.64884 0.1015,0.24502 0.15228,0.50018 0.15231,0.76541 z"
             style="fill:#e50019;fill-opacity:1;fill-rule:nonzero;stroke:none"
             id="path330" /></g></g></g></g></svg>
