<?xml version="1.0" encoding="UTF-8" standalone="no"?>
<!-- Created with Inkscape (http://www.inkscape.org/) -->

<svg
   version="1.1"
   id="svg2"
   xml:space="preserve"
   width="793.59998"
   height="78.718742"
   viewBox="0 0 793.59998 78.718743"
   sodipodi:docname="remesh.pdf"
   xmlns:inkscape="http://www.inkscape.org/namespaces/inkscape"
   xmlns:sodipodi="http://sodipodi.sourceforge.net/DTD/sodipodi-0.dtd"
   xmlns="http://www.w3.org/2000/svg"
   xmlns:svg="http://www.w3.org/2000/svg"><defs
     id="defs6"><clipPath
       clipPathUnits="userSpaceOnUse"
       id="clipPath16"><path
         d="M 0,0 H 2480 V 245.99609 H 0 Z"
         clip-rule="evenodd"
         id="path14" /></clipPath><clipPath
       clipPathUnits="userSpaceOnUse"
       id="clipPath28"><path
         d="m 3.125,0 h 2475 v 245.99609 h -2475 z"
         clip-rule="evenodd"
         id="path26" /></clipPath></defs><sodipodi:namedview
     id="namedview4"
     pagecolor="#ffffff"
     bordercolor="#666666"
     borderopacity="1.0"
     inkscape:pageshadow="2"
     inkscape:pageopacity="0.0"
     inkscape:pagecheckerboard="0" /><g
     id="g8"
     inkscape:groupmode="layer"
     inkscape:label="remesh"
     transform="scale(0.31999998)"><g
       id="g10"><g
         id="g12"
         clip-path="url(#clipPath16)"><g
           id="g18"
           transform="scale(3.125)"><path
             d="M 0,0 H 794 V 79 H 0 Z"
             style="fill:#ffffff;fill-opacity:1;fill-rule:nonzero;stroke:none"
             id="path20" /></g></g></g><g
       id="g22"><g
         id="g24"
         clip-path="url(#clipPath28)"><g
           id="g30"
           transform="matrix(2.981179,0,0,2.981179,118.28569,-235.51314)"><path
             d="m 120,80 h 120 v 80 H 120 Z"
             style="fill:none;stroke:#000000;stroke-width:1;stroke-linecap:butt;stroke-linejoin:miter;stroke-miterlimit:10;stroke-dasharray:none;stroke-opacity:1"
             id="path32" /></g><g
           id="g34"
           transform="matrix(2.981179,0,0,2.981179,116.7951,-237.00374)"><text
             transform="translate(143,124)"
             style="font-variant:normal;font-weight:normal;font-size:12px;font-family:Poppins;-inkscape-font-specification:Poppins-Regular;writing-mode:lr-tb;fill:#000000;fill-opacity:1;fill-rule:nonzero;stroke:none"
             id="text38"><tspan
               x="0 9 16 23 27 30 39 46 49 58 62 65"
               y="0"
               sodipodi:role="line"
               id="tspan36">Overlay grid</tspan></text></g><g
           id="g40"
           transform="matrix(2.981179,0,0,2.981179,118.28569,-235.51314)"><path
             d="m 60,100 h 51.88"
             style="fill:none;stroke:#000000;stroke-width:1;stroke-linecap:butt;stroke-linejoin:miter;stroke-miterlimit:10;stroke-dasharray:none;stroke-opacity:1"
             id="path42" /><path
             d="m 60,96 v 8"
             style="fill:none;stroke:#000000;stroke-width:1;stroke-linecap:butt;stroke-linejoin:miter;stroke-miterlimit:10;stroke-dasharray:none;stroke-opacity:1"
             id="path44" /><path
             d="m 118.88,100 -7,3.5 v -7 z"
             style="fill:#000000;fill-opacity:1;fill-rule:nonzero;stroke:none"
             id="path46" /><path
             d="m 118.88,100 -7,3.5 v -7 z"
             style="fill:none;stroke:#000000;stroke-width:1;stroke-linecap:butt;stroke-linejoin:miter;stroke-miterlimit:10;stroke-dasharray:none;stroke-opacity:1"
             id="path48" /><path
             d="m 60,140 h 51.88"
             style="fill:none;stroke:#000000;stroke-width:1;stroke-linecap:butt;stroke-linejoin:miter;stroke-miterlimit:10;stroke-dasharray:none;stroke-opacity:1"
             id="path50" /><path
             d="m 60,136 v 8"
             style="fill:none;stroke:#000000;stroke-width:1;stroke-linecap:butt;stroke-linejoin:miter;stroke-miterlimit:10;stroke-dasharray:none;stroke-opacity:1"
             id="path52" /><path
             d="m 118.88,140 -7,3.5 v -7 z"
             style="fill:#000000;fill-opacity:1;fill-rule:nonzero;stroke:none"
             id="path54" /><path
             d="m 118.88,140 -7,3.5 v -7 z"
             style="fill:none;stroke:#000000;stroke-width:1;stroke-linecap:butt;stroke-linejoin:miter;stroke-miterlimit:10;stroke-dasharray:none;stroke-opacity:1"
             id="path56" /><path
             d="m 240,119.71 111.88,0.27"
             style="fill:none;stroke:#000000;stroke-width:1;stroke-linecap:butt;stroke-linejoin:miter;stroke-miterlimit:10;stroke-dasharray:none;stroke-opacity:1"
             id="path58" /><path
             d="m 358.88,120 -7.01,3.48 0.02,-7 6.98999,3.52 z"
             style="fill:#000000;fill-opacity:1;fill-rule:nonzero;stroke:none"
             id="path60" /><path
             d="m 358.88,120 -7.01,3.48 0.02,-7 6.98999,3.52 z"
             style="fill:none;stroke:#000000;stroke-width:1;stroke-linecap:butt;stroke-linejoin:miter;stroke-miterlimit:10;stroke-dasharray:none;stroke-opacity:1"
             id="path62" /><path
             d="m 360,80 h 120 v 80 H 360 Z"
             style="fill:none;stroke:#000000;stroke-width:1;stroke-linecap:butt;stroke-linejoin:miter;stroke-miterlimit:10;stroke-dasharray:none;stroke-opacity:1"
             id="path64" /></g><g
           id="g66"
           transform="matrix(2.981179,0,0,2.981179,116.7951,-237.00374)"><text
             transform="translate(384.5,124)"
             style="font-variant:normal;font-weight:normal;font-size:12px;font-family:Poppins;-inkscape-font-specification:Poppins-Regular;writing-mode:lr-tb;fill:#000000;fill-opacity:1;fill-rule:nonzero;stroke:none"
             id="text70"><tspan
               x="0 7 11 14 23 31 40 48 51 60 64"
               y="0"
               sodipodi:role="line"
               id="tspan68">Triangulate</tspan></text></g><g
           id="g72"
           transform="matrix(2.981179,0,0,2.981179,118.28569,-235.51314)"><path
             d="m 480,119.71 111.88,0.27"
             style="fill:none;stroke:#000000;stroke-width:1;stroke-linecap:butt;stroke-linejoin:miter;stroke-miterlimit:10;stroke-dasharray:none;stroke-opacity:1"
             id="path74" /><path
             d="m 598.88,120 -7.01,3.48 0.02,-7 6.98999,3.52 z"
             style="fill:#000000;fill-opacity:1;fill-rule:nonzero;stroke:none"
             id="path76" /><path
             d="m 598.88,120 -7.01,3.48 0.02,-7 6.98999,3.52 z"
             style="fill:none;stroke:#000000;stroke-width:1;stroke-linecap:butt;stroke-linejoin:miter;stroke-miterlimit:10;stroke-dasharray:none;stroke-opacity:1"
             id="path78" /><path
             d="m 600,80 h 120 v 80 H 600 Z"
             style="fill:none;stroke:#e50019;stroke-width:1;stroke-linecap:butt;stroke-linejoin:miter;stroke-miterlimit:10;stroke-dasharray:none;stroke-opacity:1"
             id="path80" /></g><g
           id="g82"
           transform="matrix(2.981179,0,0,2.981179,116.7951,-237.00374)"><text
             transform="translate(635,124)"
             style="font-variant:normal;font-weight:normal;font-size:12px;font-family:Poppins;-inkscape-font-specification:Poppins-Regular;writing-mode:lr-tb;fill:#000000;fill-opacity:1;fill-rule:nonzero;stroke:none"
             id="text86"><tspan
               x="0 8 15 28 35 42"
               y="0"
               sodipodi:role="line"
               id="tspan84">Remesh</tspan></text></g><g
           id="g88"
           transform="matrix(2.981179,0,0,2.981179,118.28569,-235.51314)"><path
             d="m 720,119.71 h 57"
             style="fill:none;stroke:#000000;stroke-width:1;stroke-linecap:butt;stroke-linejoin:miter;stroke-miterlimit:10;stroke-dasharray:none;stroke-opacity:1"
             id="path90" /><path
             d="m 783,119.71 c -6e-5,0.39782 -0.0762,0.78049 -0.22845,1.14803 -0.15229,0.36754 -0.36908,0.69197 -0.65033,0.97328 -0.28132,0.2813 -0.60578,0.49807 -0.97327,0.65031 -0.36749,0.15225 -0.75018,0.22837 -1.14795,0.22838 -0.39789,-10e-6 -0.78064,-0.0761 -1.14819,-0.22838 -0.36756,-0.15224 -0.69196,-0.36901 -0.97321,-0.65031 -0.28137,-0.28131 -0.49817,-0.60574 -0.65039,-0.97328 -0.15222,-0.36754 -0.22827,-0.75021 -0.22821,-1.14803 -6e-5,-0.39784 0.076,-0.78052 0.22821,-1.14806 0.15222,-0.36755 0.36902,-0.69197 0.65039,-0.97327 0.28125,-0.28131 0.60565,-0.49809 0.97321,-0.65032 0.36755,-0.15223 0.7503,-0.22835 1.14819,-0.22835 0.39777,0 0.78046,0.0761 1.14795,0.22835 0.36749,0.15223 0.69195,0.36901 0.97327,0.65032 0.28125,0.2813 0.49804,0.60572 0.65033,0.97326 0.15228,0.36754 0.22839,0.75023 0.22845,1.14807 z"
             style="fill:#000000;fill-opacity:1;fill-rule:nonzero;stroke:none"
             id="path92" /><path
             d="m 783,119.71 c -6e-5,0.39782 -0.0762,0.78049 -0.22845,1.14803 -0.15229,0.36754 -0.36908,0.69197 -0.65033,0.97328 -0.28132,0.2813 -0.60578,0.49807 -0.97327,0.65031 -0.36749,0.15225 -0.75018,0.22837 -1.14795,0.22838 -0.39789,-10e-6 -0.78064,-0.0761 -1.14819,-0.22838 -0.36756,-0.15224 -0.69196,-0.36901 -0.97321,-0.65031 -0.28137,-0.28131 -0.49817,-0.60574 -0.65039,-0.97328 -0.15222,-0.36754 -0.22827,-0.75021 -0.22821,-1.14803 -6e-5,-0.39784 0.076,-0.78052 0.22821,-1.14806 0.15222,-0.36755 0.36902,-0.69197 0.65039,-0.97327 0.28125,-0.28131 0.60565,-0.49809 0.97321,-0.65032 0.36755,-0.15223 0.7503,-0.22835 1.14819,-0.22835 0.39777,0 0.78046,0.0761 1.14795,0.22835 0.36749,0.15223 0.69195,0.36901 0.97327,0.65032 0.28125,0.2813 0.49804,0.60572 0.65033,0.97326 0.15228,0.36754 0.22839,0.75023 0.22845,1.14807 z"
             style="fill:none;stroke:#000000;stroke-width:1;stroke-linecap:butt;stroke-linejoin:miter;stroke-miterlimit:10;stroke-dasharray:none;stroke-opacity:1"
             id="path94" /></g><g
           id="g96"
           transform="matrix(2.981179,0,0,2.981179,116.7951,-237.00374)"><text
             transform="translate(-4.5,103)"
             style="font-variant:normal;font-weight:normal;font-size:12px;font-family:'Liberation Sans';-inkscape-font-specification:LiberationSans;writing-mode:lr-tb;fill:#000000;fill-opacity:1;fill-rule:nonzero;stroke:none"
             id="text100"><tspan
               x="0 8 15 22 29"
               y="0"
               sodipodi:role="line"
               id="tspan98">Shape</tspan></text><text
             transform="translate(2,137)"
             style="font-variant:normal;font-weight:normal;font-size:12px;font-family:'Liberation Sans';-inkscape-font-specification:LiberationSans;writing-mode:lr-tb;fill:#000000;fill-opacity:1;fill-rule:nonzero;stroke:none"
             id="text104"><tspan
               x="0 9 13 16"
               y="0"
               sodipodi:role="line"
               id="tspan102">Grid</tspan></text><text
             transform="translate(-25.5,152)"
             style="font-variant:normal;font-weight:normal;font-size:12px;font-family:'Liberation Sans';-inkscape-font-specification:LiberationSans;writing-mode:lr-tb;fill:#000000;fill-opacity:1;fill-rule:nonzero;stroke:none"
             id="text108"><tspan
               x="0 6 13 20 24 31 37 40 47 51 54 60 63 66 72"
               y="0"
               sodipodi:role="line"
               id="tspan106">characteristics</tspan></text><text
             transform="translate(264.5,116)"
             style="font-variant:normal;font-weight:normal;font-size:12px;font-family:'Liberation Sans';-inkscape-font-specification:LiberationSans;writing-mode:lr-tb;fill:#000000;fill-opacity:1;fill-rule:nonzero;stroke:none"
             id="text112"><tspan
               x="0 9 16 22 25 29 36 42 45 52 56 63"
               y="0"
               sodipodi:role="line"
               id="tspan110">Unstructured</tspan></text><text
             transform="translate(284.5,131)"
             style="font-variant:normal;font-weight:normal;font-size:12px;font-family:'Liberation Sans';-inkscape-font-specification:LiberationSans;writing-mode:lr-tb;fill:#000000;fill-opacity:1;fill-rule:nonzero;stroke:none"
             id="text116"><tspan
               x="0 10 17 23"
               y="0"
               sodipodi:role="line"
               id="tspan114">mesh</tspan></text><text
             transform="translate(512.5,116)"
             style="font-variant:normal;font-weight:normal;font-size:12px;font-family:'Liberation Sans';-inkscape-font-specification:LiberationSans;writing-mode:lr-tb;fill:#000000;fill-opacity:1;fill-rule:nonzero;stroke:none"
             id="text120"><tspan
               x="0 7 11 14 21 28 35 42 45 52"
               y="0"
               sodipodi:role="line"
               id="tspan118">Triangular</tspan></text><text
             transform="translate(525.5,131)"
             style="font-variant:normal;font-weight:normal;font-size:12px;font-family:'Liberation Sans';-inkscape-font-specification:LiberationSans;writing-mode:lr-tb;fill:#000000;fill-opacity:1;fill-rule:nonzero;stroke:none"
             id="text124"><tspan
               x="0 10 17 23"
               y="0"
               sodipodi:role="line"
               id="tspan122">mesh</tspan></text></g></g></g></g></svg>
