<svg version="1.1" xmlns="http://www.w3.org/2000/svg" viewBox="0 0 656 498" width="1968" height="1494">
  <!-- svg-source:excalidraw -->
  
  <defs>
    <style class="style-fonts">
      @font-face {
        font-family: "Virgil";
        src: url("https://excalidraw.com/Virgil.woff2");
      }
      @font-face {
        font-family: "Cascadia";
        src: url("https://excalidraw.com/Cascadia.woff2");
      }
      @font-face {
        font-family: "Assistant";
        src: url("https://excalidraw.com/Assistant-Regular.woff2");
      }
    </style>
    
  </defs>
  <g stroke-linecap="round" transform="translate(10 10) rotate(0 318 239)"><path d="M32 0 C203.26 2.62, 373.75 2.88, 604 0 C626.91 3.01, 632.93 13.81, 636 32 C633.54 170.15, 630.34 303.36, 636 446 C637.96 469.32, 623.71 478, 604 478 C409.72 476.55, 213.01 477.81, 32 478 C7.57 475.17, 3.18 469.9, 0 446 C-0.58 323.4, -0.15 201.4, 0 32 C-3.36 8.31, 7.99 3.49, 32 0" stroke="none" stroke-width="0" fill="#ffffff"></path><path d="M32 0 C229.33 2.4, 428.29 2.63, 604 0 M32 0 C256.01 -2.02, 479.64 -2.05, 604 0 M604 0 C624.83 -0.99, 635.51 9.16, 636 32 M604 0 C623.75 1.13, 635.38 8.65, 636 32 M636 32 C635.12 176.43, 634.12 318.72, 636 446 M636 32 C636.18 151.04, 635.78 270.08, 636 446 M636 446 C637.05 468.59, 624.57 477.79, 604 478 M636 446 C636.58 466.02, 625.5 477.29, 604 478 M604 478 C442.89 480.61, 283.43 480.82, 32 478 M604 478 C395.28 477.34, 186.97 477.05, 32 478 M32 478 C12.29 476.9, -1.1 465.86, 0 446 M32 478 C11.29 475.91, 0.56 468.49, 0 446 M0 446 C-0.67 351.35, -0.22 254.38, 0 32 M0 446 C0.54 300.5, 0.36 154.46, 0 32 M0 32 C-0.72 12.57, 10.25 -1.26, 32 0 M0 32 C-2.11 9.23, 10.14 -1.88, 32 0" stroke="#1e1e1e" stroke-width="2" fill="none"></path></g><g mask="url(#mask-vvjnS3Rh4Pdc7Vgmf63ko)" stroke-linecap="round"><g transform="translate(319.82114962313597 364.0019937941738) rotate(0 94.29077196338625 0)"><path d="M0.92 0.03 C32.42 0.09, 157.67 -0.47, 188.78 -0.37 M-0.05 -1 C31.33 -0.7, 156.27 1.04, 187.93 0.97" stroke="#1e1e1e" stroke-width="2" fill="none"></path></g><g transform="translate(319.82114962313597 364.0019937941738) rotate(0 94.29077196338625 0)"><path d="M164.38 9.36 C171.1 7.15, 177.05 2.74, 187.93 0.97 M164.38 9.36 C173.03 7.44, 180.03 3.53, 187.93 0.97" stroke="#1e1e1e" stroke-width="2" fill="none"></path></g><g transform="translate(319.82114962313597 364.0019937941738) rotate(0 94.29077196338625 0)"><path d="M164.5 -7.74 C171.08 -5.15, 176.99 -4.75, 187.93 0.97 M164.5 -7.74 C173.12 -3.66, 180.08 -1.58, 187.93 0.97" stroke="#1e1e1e" stroke-width="2" fill="none"></path></g></g><mask id="mask-vvjnS3Rh4Pdc7Vgmf63ko"><rect x="0" y="0" fill="#fff" width="608.4026935499083" height="574.0019937941738"></rect><rect x="404.33095044358254" y="349.4402686941039" fill="#000" width="19.561942285879113" height="29.12345020013985" opacity="1"></rect></mask><g transform="translate(404.33095044358265 349.4402686941039) rotate(0 9.852440900347403 14.551061592708948)"><text x="9.780971142939556" y="20.409713900258005" font-family="Virgil, Segoe UI Emoji" font-size="23.29876016011188px" fill="#1e1e1e" text-anchor="middle" style="white-space: pre;" direction="ltr" dominant-baseline="alphabetic">d1</text></g><g mask="url(#mask-qdUq-_dOOA5BLGJsCqTBb)" stroke-linecap="round"><g transform="translate(520.7843100703533 329.71444035294235) rotate(0 -0.9524320400341821 -81.43293942292445)"><path d="M1 0.43 C1.07 -26.61, -0.47 -135.23, -0.8 -162.43 M0.07 -0.38 C0.18 -27.78, -0.94 -137.49, -1.17 -164.32" stroke="#1e1e1e" stroke-width="2" fill="none"></path></g><g transform="translate(520.7843100703533 329.71444035294235) rotate(0 -0.9524320400341821 -81.43293942292445)"><path d="M7.6 -140.91 C6.59 -143.69, 4.84 -148.72, -1.17 -164.32 M7.6 -140.91 C4.55 -147.4, 2.91 -156.16, -1.17 -164.32" stroke="#1e1e1e" stroke-width="2" fill="none"></path></g><g transform="translate(520.7843100703533 329.71444035294235) rotate(0 -0.9524320400341821 -81.43293942292445)"><path d="M-9.5 -140.75 C-7.07 -143.71, -5.39 -148.77, -1.17 -164.32 M-9.5 -140.75 C-7.24 -147.44, -3.58 -156.24, -1.17 -164.32" stroke="#1e1e1e" stroke-width="2" fill="none"></path></g></g><mask id="mask-qdUq-_dOOA5BLGJsCqTBb"><rect x="0" y="0" fill="#fff" width="622.6891741504216" height="592.5803191987912"></rect><rect x="504.91688817976865" y="233.71977582994805" fill="#000" width="29.829979701100765" height="29.12345020013985" opacity="1"></rect></mask><g transform="translate(504.91688817976865 233.71977582994805) rotate(0 15.786894868921422 14.05246451326235)"><text x="14.914989850550382" y="20.409713900258005" font-family="Virgil, Segoe UI Emoji" font-size="23.29876016011188px" fill="#1e1e1e" text-anchor="middle" style="white-space: pre;" direction="ltr" dominant-baseline="alphabetic">d2</text></g><g mask="url(#mask-iYnMIC7irLlZp_ckQsoA-)" stroke-linecap="round"><g transform="translate(489.35405274922437 138.3565018420735) rotate(0 -84.29023554302705 -1.0861882823863596)"><path d="M-0.62 -1.16 C-28.59 -1.37, -139.88 -1.58, -167.98 -1.64 M1.26 0.85 C-26.8 0.32, -140.02 -2.76, -168.62 -3.49" stroke="#1e1e1e" stroke-width="2" fill="none"></path></g><g transform="translate(489.35405274922437 138.3565018420735) rotate(0 -84.29023554302705 -1.0861882823863596)"><path d="M-144.91 -11.42 C-153.66 -8.28, -157.64 -8.1, -168.62 -3.49 M-144.91 -11.42 C-152.42 -9.4, -162.46 -5.7, -168.62 -3.49" stroke="#1e1e1e" stroke-width="2" fill="none"></path></g><g transform="translate(489.35405274922437 138.3565018420735) rotate(0 -84.29023554302705 -1.0861882823863596)"><path d="M-145.36 5.68 C-153.92 3.93, -157.77 -0.8, -168.62 -3.49 M-145.36 5.68 C-152.55 1.67, -162.43 -0.66, -168.62 -3.49" stroke="#1e1e1e" stroke-width="2" fill="none"></path></g></g><mask id="mask-iYnMIC7irLlZp_ckQsoA-"><rect x="0" y="0" fill="#fff" width="757.9345238352785" height="348.3565018420735"></rect><rect x="390.50654609225876" y="122.7085884596172" fill="#000" width="29.114542227877042" height="29.12345020013985" opacity="1"></rect></mask><g transform="translate(390.50654609225876 122.7085884596172) rotate(0 15.167784377953865 14.327492383435072)"><text x="14.557271113938521" y="20.409713900258005" font-family="Virgil, Segoe UI Emoji" font-size="23.29876016011188px" fill="#1e1e1e" text-anchor="middle" style="white-space: pre;" direction="ltr" dominant-baseline="alphabetic">d3</text></g><g mask="url(#mask-Utb7sfVftWIXi2NJWjRRp)" stroke-linecap="round"><g transform="translate(296.96278066231525 161.51680935494863) rotate(0 0 86.87141266158793)"><path d="M1.14 0.55 C1.3 29.48, 1.3 145.03, 1.16 173.97 M0.27 -0.21 C0.37 28.3, 0.92 143.24, 0.82 171.97" stroke="#1e1e1e" stroke-width="2" fill="none"></path></g><g transform="translate(296.96278066231525 161.51680935494863) rotate(0 0 86.87141266158793)"><path d="M-7.76 148.49 C-4.08 157.68, -1.94 163.55, 0.82 171.97 M-7.76 148.49 C-4.51 156.68, -1.42 163.77, 0.82 171.97" stroke="#1e1e1e" stroke-width="2" fill="none"></path></g><g transform="translate(296.96278066231525 161.51680935494863) rotate(0 0 86.87141266158793)"><path d="M9.34 148.46 C7.67 157.82, 4.47 163.7, 0.82 171.97 M9.34 148.46 C6.78 156.58, 4.06 163.67, 0.82 171.97" stroke="#1e1e1e" stroke-width="2" fill="none"></path></g></g><mask id="mask-Utb7sfVftWIXi2NJWjRRp"><rect x="0" y="0" fill="#fff" width="396.96278066231525" height="435.2596346781245"></rect><rect x="282.8783702529586" y="233.82649691646662" fill="#000" width="28.168820818713204" height="29.12345020013985" opacity="1"></rect></mask><g transform="translate(282.8783702529587 233.82649691646668) rotate(0 14.854140421834472 14.571442950755)"><text x="14.084410409356602" y="20.409713900258005" font-family="Virgil, Segoe UI Emoji" font-size="23.29876016011188px" fill="#1e1e1e" text-anchor="middle" style="white-space: pre;" direction="ltr" dominant-baseline="alphabetic">d4</text></g><g stroke-linecap="round"><g transform="translate(333.1551981836151 150.6572168265119) rotate(0 -11.905400500427561 13.334048560478863)"><path d="M0.92 0.92 C0.01 4.27, -1.35 14.76, -5.36 19.07 C-9.37 23.38, -20.08 25.51, -23.13 26.77 M-0.06 0.36 C-1.11 4, -2.21 15.99, -6.12 20.62 C-10.04 25.25, -20.67 26.96, -23.53 28.15" stroke="#228be6" stroke-width="2" fill="none"></path></g><g transform="translate(333.1551981836151 150.6572168265119) rotate(0 -11.905400500427561 13.334048560478863)"><path d="M-15.65 22.3 C-17.38 24.45, -20.55 26.53, -23.53 28.15 M-15.65 22.3 C-18.55 24.23, -20.3 25.77, -23.53 28.15" stroke="#228be6" stroke-width="2" fill="none"></path></g><g transform="translate(333.1551981836151 150.6572168265119) rotate(0 -11.905400500427561 13.334048560478863)"><path d="M-13.73 28.73 C-16 28.92, -19.76 29.01, -23.53 28.15 M-13.73 28.73 C-17.24 28.68, -19.58 28.23, -23.53 28.15" stroke="#228be6" stroke-width="2" fill="none"></path></g></g><mask></mask><g stroke-linecap="round"><g transform="translate(314.1065573829309 327.809576272874) rotate(0 15.715128660564346 13.334048560478834)"><path d="M-0.99 0.85 C3.17 2.15, 19.18 3.66, 24.53 7.77 C29.88 11.88, 29.98 22.4, 31.11 25.52 M0.69 0.25 C4.8 1.25, 19.05 1.89, 23.96 6.22 C28.88 10.56, 28.93 22.7, 30.17 26.24" stroke="#228be6" stroke-width="2" fill="none"></path></g><g transform="translate(314.1065573829309 327.809576272874) rotate(0 15.715128660564346 13.334048560478834)"><path d="M24.7 17.04 C26.89 20.14, 28.55 21.62, 30.17 26.24 M24.7 17.04 C26.07 18.47, 26.4 20.6, 30.17 26.24" stroke="#228be6" stroke-width="2" fill="none"></path></g><g transform="translate(314.1065573829309 327.809576272874) rotate(0 15.715128660564346 13.334048560478834)"><path d="M31.89 15.68 C32.2 19.08, 31.97 20.92, 30.17 26.24 M31.89 15.68 C31.78 17.38, 30.65 19.79, 30.17 26.24" stroke="#228be6" stroke-width="2" fill="none"></path></g></g><mask></mask><g stroke-linecap="round"><g transform="translate(480.7821643889167 346.85821707355785) rotate(0 12.8578325404618 -15.715128660564346)"><path d="M-0.45 1.14 C0.51 -2.63, 1 -17.63, 5.18 -23.25 C9.37 -28.87, 21.27 -31.2, 24.65 -32.57 M1.52 0.7 C2.4 -2.85, 0.21 -16.49, 4.46 -21.92 C8.7 -27.34, 23.46 -30.44, 26.98 -31.86" stroke="#228be6" stroke-width="2" fill="none"></path></g><g transform="translate(480.7821643889167 346.85821707355785) rotate(0 12.8578325404618 -15.715128660564346)"><path d="M17.98 -25 C21.37 -26.31, 22.21 -29.45, 26.98 -31.86 M17.98 -25 C20.19 -26.74, 22.16 -27.57, 26.98 -31.86" stroke="#228be6" stroke-width="2" fill="none"></path></g><g transform="translate(480.7821643889167 346.85821707355785) rotate(0 12.8578325404618 -15.715128660564346)"><path d="M15.68 -32.39 C19.62 -31.82, 21.04 -33.08, 26.98 -31.86 M15.68 -32.39 C18.35 -32.62, 20.78 -31.94, 26.98 -31.86" stroke="#228be6" stroke-width="2" fill="none"></path></g></g><mask></mask><g stroke-linecap="round"><g transform="translate(499.8308051896006 194.46909066808524) rotate(0 -13.334048560478891 -20.95350488075249)"><path d="M1.17 0.68 C-2.85 -1.2, -20.05 -4.25, -24.74 -11.49 C-29.44 -18.74, -26.57 -37.9, -27 -42.79 M0.32 0 C-3.27 -2.19, -17.81 -6.16, -22.52 -13.15 C-27.23 -20.14, -27.12 -36.98, -27.94 -41.94" stroke="#228be6" stroke-width="2" fill="none"></path></g><g transform="translate(499.8308051896006 194.46909066808524) rotate(0 -13.334048560478891 -20.95350488075249)"><path d="M-21.63 -28.52 C-22.32 -32.92, -23.62 -35.48, -27.94 -41.94 M-21.63 -28.52 C-22.63 -31.58, -23.78 -35.23, -27.94 -41.94" stroke="#228be6" stroke-width="2" fill="none"></path></g><g transform="translate(499.8308051896006 194.46909066808524) rotate(0 -13.334048560478891 -20.95350488075249)"><path d="M-31.73 -27.6 C-29.93 -32.33, -28.74 -35.12, -27.94 -41.94 M-31.73 -27.6 C-30.44 -30.96, -29.3 -34.82, -27.94 -41.94" stroke="#228be6" stroke-width="2" fill="none"></path></g></g><mask></mask><g stroke-linecap="round"><g transform="translate(42.4842478875521 102.88532479815916) rotate(0 51.64032024472414 0.03026454657464228)"><path d="M-1.01 0.48 C15.89 0.61, 84.76 -0.01, 102.27 0.05 M0.66 -0.31 C17.84 0.08, 87.28 1.71, 104.45 1.59" stroke="#1971c2" stroke-width="2" fill="none"></path></g><g transform="translate(42.4842478875521 102.88532479815916) rotate(0 51.64032024472414 0.03026454657464228)"><path d="M80.87 9.89 C90.53 5.3, 98.53 5.18, 104.45 1.59 M80.87 9.89 C90.34 6.17, 98.52 3.71, 104.45 1.59" stroke="#1971c2" stroke-width="2" fill="none"></path></g><g transform="translate(42.4842478875521 102.88532479815916) rotate(0 51.64032024472414 0.03026454657464228)"><path d="M81.05 -7.21 C90.54 -5.41, 98.48 0.86, 104.45 1.59 M81.05 -7.21 C90.62 -4.64, 98.73 -0.82, 104.45 1.59" stroke="#1971c2" stroke-width="2" fill="none"></path></g></g><mask></mask><g transform="translate(71.6223803031786 64.35608573670618) rotate(0 11.922730212145325 16.580671851233404)"><text x="0" y="23.239469666688734" font-family="Virgil, Segoe UI Emoji" font-size="26.52907496197344px" fill="#1971c2" text-anchor="start" style="white-space: pre;" direction="ltr" dominant-baseline="alphabetic">β1</text></g><g transform="translate(42.27444060563607 132.17430406432038) rotate(0 88.97559130597449 76.6621004001791)"><text x="0" y="26.862399980222765" font-family="Virgil, Segoe UI Emoji" font-size="30.664840160071652px" fill="#1971c2" text-anchor="start" style="white-space: pre;" direction="ltr" dominant-baseline="alphabetic">β1(d1) = d2</text><text x="0" y="65.19345018031233" font-family="Virgil, Segoe UI Emoji" font-size="30.664840160071652px" fill="#1971c2" text-anchor="start" style="white-space: pre;" direction="ltr" dominant-baseline="alphabetic">β1(d2) = d3</text><text x="0" y="103.52450038040189" font-family="Virgil, Segoe UI Emoji" font-size="30.664840160071652px" fill="#1971c2" text-anchor="start" style="white-space: pre;" direction="ltr" dominant-baseline="alphabetic">β1(d3) = d4</text><text x="0" y="141.85555058049147" font-family="Virgil, Segoe UI Emoji" font-size="30.664840160071652px" fill="#1971c2" text-anchor="start" style="white-space: pre;" direction="ltr" dominant-baseline="alphabetic">β1(d4) = d1</text></g></svg>