<svg version="1.1" xmlns="http://www.w3.org/2000/svg" viewBox="0 0 656 498" width="1968" height="1494">
  <!-- svg-source:excalidraw -->
  
  <defs>
    <style class="style-fonts">
      @font-face {
        font-family: "Virgil";
        src: url("https://excalidraw.com/Virgil.woff2");
      }
      @font-face {
        font-family: "Cascadia";
        src: url("https://excalidraw.com/Cascadia.woff2");
      }
      @font-face {
        font-family: "Assistant";
        src: url("https://excalidraw.com/Assistant-Regular.woff2");
      }
    </style>
    
  </defs>
  <g stroke-linecap="round" transform="translate(10 10) rotate(0 318 239)"><path d="M32 0 C203.26 2.62, 373.75 2.88, 604 0 C626.91 3.01, 632.93 13.81, 636 32 C633.54 170.15, 630.34 303.36, 636 446 C637.96 469.32, 623.71 478, 604 478 C409.72 476.55, 213.01 477.81, 32 478 C7.57 475.17, 3.18 469.9, 0 446 C-0.58 323.4, -0.15 201.4, 0 32 C-3.36 8.31, 7.99 3.49, 32 0" stroke="none" stroke-width="0" fill="#ffffff"></path><path d="M32 0 C229.33 2.4, 428.29 2.63, 604 0 M32 0 C256.01 -2.02, 479.64 -2.05, 604 0 M604 0 C624.83 -0.99, 635.51 9.16, 636 32 M604 0 C623.75 1.13, 635.38 8.65, 636 32 M636 32 C635.12 176.43, 634.12 318.72, 636 446 M636 32 C636.18 151.04, 635.78 270.08, 636 446 M636 446 C637.05 468.59, 624.57 477.79, 604 478 M636 446 C636.58 466.02, 625.5 477.29, 604 478 M604 478 C442.89 480.61, 283.43 480.82, 32 478 M604 478 C395.28 477.34, 186.97 477.05, 32 478 M32 478 C12.29 476.9, -1.1 465.86, 0 446 M32 478 C11.29 475.91, 0.56 468.49, 0 446 M0 446 C-0.67 351.35, -0.22 254.38, 0 32 M0 446 C0.54 300.5, 0.36 154.46, 0 32 M0 32 C-0.72 12.57, 10.25 -1.26, 32 0 M0 32 C-2.11 9.23, 10.14 -1.88, 32 0" stroke="#1e1e1e" stroke-width="2" fill="none"></path></g><g mask="url(#mask-vvjnS3Rh4Pdc7Vgmf63ko)" stroke-linecap="round"><g transform="translate(82 379) rotate(0 79.5 -56)"><path d="M0.92 0.03 C27.49 -18.57, 133.02 -93.8, 159.2 -112.37 M-0.05 -1 C26.4 -19.36, 131.62 -92.29, 158.35 -111.03" stroke="#1e1e1e" stroke-width="2" fill="none"></path></g><g transform="translate(82 379) rotate(0 79.5 -56)"><path d="M143.96 -90.58 C148.18 -96.11, 151.55 -103.91, 158.35 -111.03 M143.96 -90.58 C149.39 -96.77, 153.17 -104.91, 158.35 -111.03" stroke="#1e1e1e" stroke-width="2" fill="none"></path></g><g transform="translate(82 379) rotate(0 79.5 -56)"><path d="M134.19 -104.62 C141.07 -106.28, 147.18 -110.13, 158.35 -111.03 M134.19 -104.62 C143.05 -105.84, 150.27 -109.06, 158.35 -111.03" stroke="#1e1e1e" stroke-width="2" fill="none"></path></g></g><mask id="mask-vvjnS3Rh4Pdc7Vgmf63ko"><rect x="0" y="0" fill="#fff" width="341" height="591"></rect><rect x="153.1016243756735" y="310.5" fill="#000" width="16.79675124865299" height="25" opacity="1"></rect></mask><g transform="translate(153.1016243756735 310.5) rotate(0 8.469845381734444 12.331094850972306)"><text x="8.398375624326494" y="17.52" font-family="Virgil, Segoe UI Emoji" font-size="20px" fill="#1e1e1e" text-anchor="middle" style="white-space: pre;" direction="ltr" dominant-baseline="alphabetic">d1</text></g><g mask="url(#mask-qdUq-_dOOA5BLGJsCqTBb)" stroke-linecap="round"><g transform="translate(292 390) rotate(0 71.5 -48.5)"><path d="M1 0.43 C25.22 -15.64, 120.29 -80.34, 144.11 -96.56 M0.07 -0.38 C24.33 -16.81, 119.81 -82.6, 143.74 -98.45" stroke="#1e1e1e" stroke-width="2" fill="none"></path></g><g transform="translate(292 390) rotate(0 71.5 -48.5)"><path d="M129.09 -78.2 C132.78 -80.54, 135.73 -84.94, 143.74 -98.45 M129.09 -78.2 C133.28 -83.91, 138.91 -91.69, 143.74 -98.45" stroke="#1e1e1e" stroke-width="2" fill="none"></path></g><g transform="translate(292 390) rotate(0 71.5 -48.5)"><path d="M119.49 -92.35 C125.09 -91.94, 129.97 -93.49, 143.74 -98.45 M119.49 -92.35 C126.56 -93.76, 135.16 -97.14, 143.74 -98.45" stroke="#1e1e1e" stroke-width="2" fill="none"></path></g></g><mask id="mask-qdUq-_dOOA5BLGJsCqTBb"><rect x="0" y="0" fill="#fff" width="535" height="587"></rect><rect x="350.6939370729797" y="329" fill="#000" width="25.612125854040602" height="25" opacity="1"></rect></mask><g transform="translate(350.6939370729797 329) rotate(0 13.39457835250306 11.9907394131925)"><text x="12.806062927020301" y="17.52" font-family="Virgil, Segoe UI Emoji" font-size="20px" fill="#1e1e1e" text-anchor="middle" style="white-space: pre;" direction="ltr" dominant-baseline="alphabetic">d2</text></g><g mask="url(#mask-iYnMIC7irLlZp_ckQsoA-)" stroke-linecap="round"><g transform="translate(561 276.08494205634156) rotate(0 -53 -57.14043652116885)"><path d="M-0.62 -1.16 C-18.16 -20.05, -87.73 -95, -105.4 -113.75 M1.26 0.85 C-16.37 -18.37, -87.87 -96.18, -106.04 -115.6" stroke="#1e1e1e" stroke-width="2" fill="none"></path></g><g transform="translate(561 276.08494205634156) rotate(0 -53 -57.14043652116885)"><path d="M-83.8 -104.17 C-92.07 -106.56, -95.62 -111.94, -106.04 -115.6 M-83.8 -104.17 C-90.61 -108.98, -100.13 -112.11, -106.04 -115.6" stroke="#1e1e1e" stroke-width="2" fill="none"></path></g><g transform="translate(561 276.08494205634156) rotate(0 -53 -57.14043652116885)"><path d="M-96.35 -92.55 C-100.98 -98.21, -100.94 -106.91, -106.04 -115.6 M-96.35 -92.55 C-98.63 -101.53, -103.72 -108.76, -106.04 -115.6" stroke="#1e1e1e" stroke-width="2" fill="none"></path></g></g><mask id="mask-iYnMIC7irLlZp_ckQsoA-"><rect x="0" y="0" fill="#fff" width="767" height="490.36581509867926"></rect><rect x="495.5" y="206.44450553517277" fill="#000" width="25" height="25" opacity="1"></rect></mask><g transform="translate(495.5 206.4445055351727) rotate(0 13.11051326401531 12.265767283365165)"><text x="12.5" y="17.52" font-family="Virgil, Segoe UI Emoji" font-size="20px" fill="#1e1e1e" text-anchor="middle" style="white-space: pre;" direction="ltr" dominant-baseline="alphabetic">d3</text></g><g mask="url(#mask-Utb7sfVftWIXi2NJWjRRp)" stroke-linecap="round"><g transform="translate(337 216.40196053048214) rotate(0 -53 -60.289909400288366)"><path d="M1.14 0.55 C-16.36 -19.58, -87.03 -100.24, -104.84 -120.35 M0.27 -0.21 C-17.29 -20.76, -87.41 -102.02, -105.18 -122.36" stroke="#1e1e1e" stroke-width="2" fill="none"></path></g><g transform="translate(337 216.40196053048214) rotate(0 -53 -60.289909400288366)"><path d="M-83.33 -110.21 C-89.28 -111.87, -96.65 -117.13, -105.18 -122.36 M-83.33 -110.21 C-90.07 -114.28, -97.32 -119.3, -105.18 -122.36" stroke="#1e1e1e" stroke-width="2" fill="none"></path></g><g transform="translate(337 216.40196053048214) rotate(0 -53 -60.289909400288366)"><path d="M-96.25 -99.01 C-98.2 -104.29, -101.53 -113.05, -105.18 -122.36 M-96.25 -99.01 C-98.49 -106.81, -101.35 -115.64, -105.18 -122.36" stroke="#1e1e1e" stroke-width="2" fill="none"></path></g></g><mask id="mask-Utb7sfVftWIXi2NJWjRRp"><rect x="0" y="0" fill="#fff" width="543" height="436.9817793310589"></rect><rect x="271.9081556526437" y="143.61205113019378" fill="#000" width="24.183688694712558" height="25" opacity="1"></rect></mask><g transform="translate(271.9081556526437 143.61205113019378) rotate(0 13.070621806024064 11.886707351207718)"><text x="12.091844347356279" y="17.52" font-family="Virgil, Segoe UI Emoji" font-size="20px" fill="#1e1e1e" text-anchor="middle" style="white-space: pre;" direction="ltr" dominant-baseline="alphabetic">d4</text></g></svg>