<svg version="1.1" xmlns="http://www.w3.org/2000/svg" viewBox="0 0 837.6192468619245 634.4999999999998" width="2512.857740585773" height="1903.4999999999993">
  <!-- svg-source:excalidraw -->
  
  <defs>
    <style class="style-fonts">
      @font-face {
        font-family: "Virgil";
        src: url("https://excalidraw.com/Virgil.woff2");
      }
      @font-face {
        font-family: "Cascadia";
        src: url("https://excalidraw.com/Cascadia.woff2");
      }
      @font-face {
        font-family: "Assistant";
        src: url("https://excalidraw.com/Assistant-Regular.woff2");
      }
    </style>
    
  </defs>
  <g stroke-linecap="round" transform="translate(10 10) rotate(0 408.80962343096223 307.2499999999999)"><path d="M32 0 C257.3 3.35, 481.83 3.62, 785.62 0 C808.53 3.01, 814.55 13.81, 817.62 32 C814.85 214.63, 812.5 393.62, 817.62 582.5 C819.58 605.82, 805.33 614.5, 785.62 614.5 C529.31 612.97, 270.58 614.24, 32 614.5 C7.57 611.67, 3.18 606.4, 0 582.5 C-0.09 419.43, 0.22 256.79, 0 32 C-3.36 8.31, 7.99 3.49, 32 0" stroke="none" stroke-width="0" fill="#ffffff"></path><path d="M32 0 C292.16 3.04, 553.97 3.28, 785.62 0 M32 0 C327.05 -2.7, 621.72 -2.73, 785.62 0 M785.62 0 C806.45 -0.99, 817.13 9.16, 817.62 32 M785.62 0 C805.37 1.13, 817 8.65, 817.62 32 M817.62 32 C816.78 223.47, 816.04 413.36, 817.62 582.5 M817.62 32 C817.74 190.2, 817.44 348.39, 817.62 582.5 M817.62 582.5 C818.67 605.09, 806.19 614.29, 785.62 614.5 M817.62 582.5 C818.19 602.52, 807.12 613.79, 785.62 614.5 M785.62 614.5 C573.59 617.8, 363.23 618.01, 32 614.5 M785.62 614.5 C510.65 613.66, 236.09 613.36, 32 614.5 M32 614.5 C12.29 613.4, -1.1 602.36, 0 582.5 M32 614.5 C11.29 612.41, 0.56 604.99, 0 582.5 M0 582.5 C-0.42 456.21, -0.09 328.22, 0 32 M0 582.5 C0.55 388.94, 0.41 194.99, 0 32 M0 32 C-0.72 12.57, 10.25 -1.26, 32 0 M0 32 C-2.11 9.23, 10.14 -1.88, 32 0" stroke="#1e1e1e" stroke-width="2" fill="none"></path></g><g mask="url(#mask-WamXBZkBn0Qa6BODhpd-L)" stroke-linecap="round"><g transform="translate(242.71781314874727 525.3106738210026) rotate(0 82 -1)"><path d="M-0.88 -0.98 C26.7 -1.52, 137.35 -2.19, 164.68 -2.44 M0.86 1.12 C28.41 0.68, 136.65 -0.71, 164.09 -1.14" stroke="#1e1e1e" stroke-width="2" fill="none"></path></g><g transform="translate(242.71781314874727 525.3106738210026) rotate(0 82 -1)"><path d="M140.72 7.74 C144.51 6.97, 150.88 2.24, 164.09 -1.14 M140.72 7.74 C147.57 6.11, 153.55 3.96, 164.09 -1.14" stroke="#1e1e1e" stroke-width="2" fill="none"></path></g><g transform="translate(242.71781314874727 525.3106738210026) rotate(0 82 -1)"><path d="M140.48 -9.36 C144.43 -6.12, 150.87 -6.84, 164.09 -1.14 M140.48 -9.36 C147.24 -6.55, 153.29 -4.27, 164.09 -1.14" stroke="#1e1e1e" stroke-width="2" fill="none"></path></g></g><mask id="mask-WamXBZkBn0Qa6BODhpd-L"><rect x="0" y="0" fill="#fff" width="506.71781314874727" height="627.3106738210026"></rect><rect x="322.0094215160401" y="511.81067382100264" fill="#000" width="5.416783265414442" height="25" opacity="1"></rect></mask><g transform="translate(322.00942151604 511.81067382100264) rotate(0 2.607968789534141 12.83875394165517)"><text x="2.708391632707221" y="17.52" font-family="Virgil, Segoe UI Emoji" font-size="20px" fill="#6741d9" text-anchor="middle" style="white-space: pre;" direction="ltr" dominant-baseline="alphabetic">1</text></g><g mask="url(#mask-KEAB_gpmccBmG7DClZyTx)" stroke-linecap="round"><g transform="translate(502.71781314874727 522.3106738210026) rotate(0 76.49999999999994 1)"><path d="M-1.01 0.95 C24.55 1.39, 127.49 2.38, 152.99 2.61 M0.67 0.4 C26.09 0.49, 126.42 0.24, 152.03 0.81" stroke="#1e1e1e" stroke-width="2" fill="none"></path></g><g transform="translate(502.71781314874727 522.3106738210026) rotate(0 76.49999999999994 1)"><path d="M128.47 9.17 C136.49 7.06, 142.37 3.08, 152.03 0.81 M128.47 9.17 C137.01 5.9, 143.93 4.41, 152.03 0.81" stroke="#1e1e1e" stroke-width="2" fill="none"></path></g><g transform="translate(502.71781314874727 522.3106738210026) rotate(0 76.49999999999994 1)"><path d="M128.61 -7.93 C136.59 -5.37, 142.43 -4.67, 152.03 0.81 M128.61 -7.93 C137.06 -5.62, 143.93 -1.54, 152.03 0.81" stroke="#1e1e1e" stroke-width="2" fill="none"></path></g></g><mask id="mask-KEAB_gpmccBmG7DClZyTx"><rect x="0" y="0" fill="#fff" width="755.7178131487472" height="624.3106738210026"></rect><rect x="573.0369283514591" y="510.81067382100264" fill="#000" width="12.361769594575769" height="25" opacity="1"></rect></mask><g transform="translate(573.0369283514592 510.81067382100264) rotate(0 5.6723471512774495 13.005402059406038)"><text x="6.180884797287884" y="17.52" font-family="Virgil, Segoe UI Emoji" font-size="20px" fill="#6741d9" text-anchor="middle" style="white-space: pre;" direction="ltr" dominant-baseline="alphabetic">5</text></g><g mask="url(#mask-axCFDsXB2a_-j6DzlcN4B)" stroke-linecap="round"><g transform="translate(684.7178131487472 493.3106738210026) rotate(0 -1 -78)"><path d="M0.76 -0.46 C0.57 -26.6, -1.42 -130.77, -1.92 -156.8 M-0.29 -1.74 C-0.58 -27.75, -2.36 -130.04, -2.83 -155.68" stroke="#1e1e1e" stroke-width="2" fill="none"></path></g><g transform="translate(684.7178131487472 493.3106738210026) rotate(0 -1 -78)"><path d="M6.14 -132.34 C3.22 -137.74, 0.51 -143.84, -2.83 -155.68 M6.14 -132.34 C3.75 -137.46, 2.2 -143.98, -2.83 -155.68" stroke="#1e1e1e" stroke-width="2" fill="none"></path></g><g transform="translate(684.7178131487472 493.3106738210026) rotate(0 -1 -78)"><path d="M-10.96 -132.04 C-9.79 -137.61, -8.41 -143.79, -2.83 -155.68 M-10.96 -132.04 C-9.05 -137.16, -6.3 -143.75, -2.83 -155.68" stroke="#1e1e1e" stroke-width="2" fill="none"></path></g></g><mask id="mask-axCFDsXB2a_-j6DzlcN4B"><rect x="0" y="0" fill="#fff" width="786.7178131487472" height="749.3106738210026"></rect><rect x="677.3198065339559" y="402.81067382100264" fill="#000" width="12.796013229582694" height="25" opacity="1"></rect></mask><g transform="translate(677.3198065339559 402.81067382100264) rotate(0 6.365853018211169 11.873783900216267)"><text x="6.398006614791347" y="17.52" font-family="Virgil, Segoe UI Emoji" font-size="20px" fill="#6741d9" text-anchor="middle" style="white-space: pre;" direction="ltr" dominant-baseline="alphabetic">6</text></g><g mask="url(#mask-0PcqivVMu3HTxOLdhTLLG)" stroke-linecap="round"><g transform="translate(680.7178131487472 238.31067382100264) rotate(0 -2 -73.5)"><path d="M-0.3 0.78 C-0.85 -23.54, -2.33 -122.54, -2.92 -147.08 M1.75 0.14 C1.1 -23.88, -2.25 -120.81, -3.3 -145.59" stroke="#1e1e1e" stroke-width="2" fill="none"></path></g><g transform="translate(680.7178131487472 238.31067382100264) rotate(0 -2 -73.5)"><path d="M6.13 -122.44 C4.52 -128.34, -0.04 -137.6, -3.3 -145.59 M6.13 -122.44 C2.96 -131.01, -0.68 -139.23, -3.3 -145.59" stroke="#1e1e1e" stroke-width="2" fill="none"></path></g><g transform="translate(680.7178131487472 238.31067382100264) rotate(0 -2 -73.5)"><path d="M-10.96 -121.79 C-6.89 -127.87, -5.78 -137.34, -3.3 -145.59 M-10.96 -121.79 C-8.24 -130.69, -5.99 -139.13, -3.3 -145.59" stroke="#1e1e1e" stroke-width="2" fill="none"></path></g></g><mask id="mask-0PcqivVMu3HTxOLdhTLLG"><rect x="0" y="0" fill="#fff" width="784.7178131487472" height="485.31067382100264"></rect><rect x="669.6072472352087" y="152.31067382100258" fill="#000" width="18.22113182707677" height="25" opacity="1"></rect></mask><g transform="translate(669.6072472352087 152.31067382100258) rotate(0 10.334271973962927 12.847103013470786)"><text x="9.110565913538386" y="17.52" font-family="Virgil, Segoe UI Emoji" font-size="20px" fill="#6741d9" text-anchor="middle" style="white-space: pre;" direction="ltr" dominant-baseline="alphabetic">14</text></g><g mask="url(#mask-Wo1GASSBfPwPLVmaBYaJC)" stroke-linecap="round"><g transform="translate(640.7178131487472 68.31067382100264) rotate(0 -78.49999999999994 -0.5)"><path d="M0.69 -0.5 C-25.56 -0.82, -131.47 -1.5, -157.9 -1.42 M-0.41 -1.8 C-26.25 -2, -129.81 -0.09, -155.65 -0.1" stroke="#1e1e1e" stroke-width="2" fill="none"></path></g><g transform="translate(640.7178131487472 68.31067382100264) rotate(0 -78.49999999999994 -0.5)"><path d="M-132.25 -8.89 C-139.28 -7.9, -145.38 -5.55, -155.65 -0.1 M-132.25 -8.89 C-140.74 -5.95, -149.33 -2.81, -155.65 -0.1" stroke="#1e1e1e" stroke-width="2" fill="none"></path></g><g transform="translate(640.7178131487472 68.31067382100264) rotate(0 -78.49999999999994 -0.5)"><path d="M-132.08 8.21 C-139.22 4.64, -145.37 2.44, -155.65 -0.1 M-132.08 8.21 C-140.67 4.64, -149.32 1.28, -155.65 -0.1" stroke="#1e1e1e" stroke-width="2" fill="none"></path></g></g><mask id="mask-Wo1GASSBfPwPLVmaBYaJC"><rect x="0" y="0" fill="#fff" width="897.717813148747" height="169.31067382100264"></rect><rect x="553.32540933175" y="55.31067382100264" fill="#000" width="17.78480763399426" height="25" opacity="1"></rect></mask><g transform="translate(553.32540933175 55.31067382100264) rotate(0 8.7887047449193 12.040785230869176)"><text x="8.89240381699713" y="17.52" font-family="Virgil, Segoe UI Emoji" font-size="20px" fill="#6741d9" text-anchor="middle" style="white-space: pre;" direction="ltr" dominant-baseline="alphabetic">15</text></g><g mask="url(#mask-Ij2DSQ-kRQJoly8FbRXsi)" stroke-linecap="round"><g transform="translate(409.71781314874727 69.31067382100264) rotate(0 -82 0.5)"><path d="M0.61 -1.08 C-26.83 -0.83, -135.93 1.05, -163.56 1.53 M-0.52 0.97 C-28.18 0.85, -137.22 -0.13, -164.28 -0.32" stroke="#1e1e1e" stroke-width="2" fill="none"></path></g><g transform="translate(409.71781314874727 69.31067382100264) rotate(0 -82 0.5)"><path d="M-140.72 -8.68 C-151.72 -4.56, -158.24 -3.94, -164.28 -0.32 M-140.72 -8.68 C-148.8 -5.99, -158.09 -3.3, -164.28 -0.32" stroke="#1e1e1e" stroke-width="2" fill="none"></path></g><g transform="translate(409.71781314874727 69.31067382100264) rotate(0 -82 0.5)"><path d="M-140.86 8.42 C-151.81 5.86, -158.28 -0.2, -164.28 -0.32 M-140.86 8.42 C-149 4.9, -158.24 1.39, -164.28 -0.32" stroke="#1e1e1e" stroke-width="2" fill="none"></path></g></g><mask id="mask-Ij2DSQ-kRQJoly8FbRXsi"><rect x="0" y="0" fill="#fff" width="673.7178131487473" height="170.31067382100264"></rect><rect x="322.30273354140525" y="57.31067382100264" fill="#000" width="10.830159214684233" height="25" opacity="1"></rect></mask><g transform="translate(322.30273354140513 57.31067382100264) rotate(0 5.582023942892192 12.222931875661004)"><text x="5.415079607342117" y="17.52" font-family="Virgil, Segoe UI Emoji" font-size="20px" fill="#6741d9" text-anchor="middle" style="white-space: pre;" direction="ltr" dominant-baseline="alphabetic">11</text></g><g mask="url(#mask-HtZuTwgaiQQDxKhZ651_m)" stroke-linecap="round"><g transform="translate(212.71781314874727 105.31067382100264) rotate(0 1.5 72.5)"><path d="M0.92 -0.87 C1.23 23.48, 2.49 121.22, 2.9 145.53 M-0.06 1.28 C0 25.33, 1.42 119.51, 1.89 143.68" stroke="#1e1e1e" stroke-width="2" fill="none"></path></g><g transform="translate(212.71781314874727 105.31067382100264) rotate(0 1.5 72.5)"><path d="M-7.05 120.34 C-5.19 129.06, 0.58 138.79, 1.89 143.68 M-7.05 120.34 C-5.26 126.52, -2.44 133.41, 1.89 143.68" stroke="#1e1e1e" stroke-width="2" fill="none"></path></g><g transform="translate(212.71781314874727 105.31067382100264) rotate(0 1.5 72.5)"><path d="M10.05 120.05 C5.35 129.01, 4.55 138.85, 1.89 143.68 M10.05 120.05 C6.71 126.35, 4.4 133.33, 1.89 143.68" stroke="#1e1e1e" stroke-width="2" fill="none"></path></g></g><mask id="mask-HtZuTwgaiQQDxKhZ651_m"><rect x="0" y="0" fill="#fff" width="315.71781314874727" height="350.31067382100264"></rect><rect x="204.3944313226972" y="165.31067382100258" fill="#000" width="19.646763652100173" height="25" opacity="1"></rect></mask><g transform="translate(204.3944313226972 165.31067382100258) rotate(0 9.740008292264747 12.327899338677526)"><text x="9.823381826050086" y="17.52" font-family="Virgil, Segoe UI Emoji" font-size="20px" fill="#6741d9" text-anchor="middle" style="white-space: pre;" direction="ltr" dominant-baseline="alphabetic">12</text></g><g mask="url(#mask-pviBEw6o9eTCxWaAUF_CZ)" stroke-linecap="round"><g transform="translate(211.71781314874727 342.3106738210026) rotate(0 2.5 73)"><path d="M-0.29 1.19 C0.55 25.53, 4.18 121.07, 4.92 145.17 M1.77 0.77 C2.45 25.31, 3.12 121.9, 3.92 146.26" stroke="#1e1e1e" stroke-width="2" fill="none"></path></g><g transform="translate(211.71781314874727 342.3106738210026) rotate(0 2.5 73)"><path d="M-5.06 122.93 C-0.64 129.59, -1.4 135.07, 3.92 146.26 M-5.06 122.93 C-2.24 128.91, 0.86 135.82, 3.92 146.26" stroke="#1e1e1e" stroke-width="2" fill="none"></path></g><g transform="translate(211.71781314874727 342.3106738210026) rotate(0 2.5 73)"><path d="M12.04 122.62 C11.49 129.33, 5.76 134.9, 3.92 146.26 M12.04 122.62 C10.05 128.77, 8.34 135.77, 3.92 146.26" stroke="#1e1e1e" stroke-width="2" fill="none"></path></g></g><mask id="mask-pviBEw6o9eTCxWaAUF_CZ"><rect x="0" y="0" fill="#fff" width="316.71781314874727" height="588.3106738210026"></rect><rect x="207.8198065339559" y="402.81067382100264" fill="#000" width="12.796013229582694" height="25" opacity="1"></rect></mask><g transform="translate(207.8198065339559 402.81067382100264) rotate(0 6.212756193550433 13.015707978829766)"><text x="6.398006614791347" y="17.52" font-family="Virgil, Segoe UI Emoji" font-size="20px" fill="#6741d9" text-anchor="middle" style="white-space: pre;" direction="ltr" dominant-baseline="alphabetic">4</text></g><g mask="url(#mask-OlsBxp94R17E_srP9D8Ch)" stroke-linecap="round"><g transform="translate(436.71781314874727 490.3106738210026) rotate(0 -1.5 -77.5)"><path d="M1.08 -0.47 C0.56 -26.45, -3.34 -130.16, -4 -155.89 M0.19 -1.77 C0.11 -27.62, -1.18 -129.54, -1.81 -154.83" stroke="#1e1e1e" stroke-width="2" fill="none"></path></g><g transform="translate(436.71781314874727 490.3106738210026) rotate(0 -1.5 -77.5)"><path d="M7.16 -131.49 C4.36 -138.31, 1.64 -141.69, -1.81 -154.83 M7.16 -131.49 C4.12 -139.58, 1.97 -146.66, -1.81 -154.83" stroke="#1e1e1e" stroke-width="2" fill="none"></path></g><g transform="translate(436.71781314874727 490.3106738210026) rotate(0 -1.5 -77.5)"><path d="M-9.94 -131.19 C-8.9 -138.23, -7.78 -141.67, -1.81 -154.83 M-9.94 -131.19 C-7.68 -139.23, -4.54 -146.41, -1.81 -154.83" stroke="#1e1e1e" stroke-width="2" fill="none"></path></g></g><mask id="mask-OlsBxp94R17E_srP9D8Ch"><rect x="0" y="0" fill="#fff" width="539.7178131487473" height="745.3106738210026"></rect><rect x="428.10268121701836" y="400.31067382100264" fill="#000" width="14.230263863457816" height="25" opacity="1"></rect></mask><g transform="translate(428.10268121701836 400.31067382100264) rotate(0 7.155763277760968 11.81570431180296)"><text x="7.115131931728908" y="17.52" font-family="Virgil, Segoe UI Emoji" font-size="20px" fill="#6741d9" text-anchor="middle" style="white-space: pre;" direction="ltr" dominant-baseline="alphabetic">2</text></g><g mask="url(#mask-Vxh0mIy-Yy7JYAaxld8_j)" stroke-linecap="round"><g transform="translate(463.71781314874727 338.3106738210026) rotate(0 1.5 76)"><path d="M0.35 0.15 C0.82 25.67, 2.51 127.31, 2.99 152.56 M-0.92 -0.81 C-0.63 24.39, 1.46 125.14, 2.04 150.73" stroke="#1e1e1e" stroke-width="2" fill="none"></path></g><g transform="translate(463.71781314874727 338.3106738210026) rotate(0 1.5 76)"><path d="M-7.01 127.43 C-4 134.75, -0.46 142.49, 2.04 150.73 M-7.01 127.43 C-4.26 134.55, -2.19 140.11, 2.04 150.73" stroke="#1e1e1e" stroke-width="2" fill="none"></path></g><g transform="translate(463.71781314874727 338.3106738210026) rotate(0 1.5 76)"><path d="M10.08 127.06 C7.69 134.55, 5.83 142.41, 2.04 150.73 M10.08 127.06 C8.24 134.4, 5.72 140.06, 2.04 150.73" stroke="#1e1e1e" stroke-width="2" fill="none"></path></g></g><mask id="mask-Vxh0mIy-Yy7JYAaxld8_j"><rect x="0" y="0" fill="#fff" width="566.7178131487473" height="590.3106738210026"></rect><rect x="457.5683510622281" y="401.81067382100264" fill="#000" width="15.298924173038435" height="25" opacity="1"></rect></mask><g transform="translate(457.5683510622281 401.81067382100264) rotate(0 7.185332348903614 12.373435558080644)"><text x="7.649462086519217" y="17.52" font-family="Virgil, Segoe UI Emoji" font-size="20px" fill="#6741d9" text-anchor="middle" style="white-space: pre;" direction="ltr" dominant-baseline="alphabetic">8</text></g><g mask="url(#mask-4GyVbBpyALge_089OGE_5)" stroke-linecap="round"><g transform="translate(464.71781314874727 113.31067382100264) rotate(0 1 65.5)"><path d="M-0.61 -0.52 C-0.04 21.17, 1.77 109.2, 2.35 130.98 M1.28 1.82 C1.8 23.64, 1.37 110.96, 1.58 132.51" stroke="#1e1e1e" stroke-width="2" fill="none"></path></g><g transform="translate(464.71781314874727 113.31067382100264) rotate(0 1 65.5)"><path d="M-7.01 109.04 C-5.88 114.69, -3.2 120.57, 1.58 132.51 M-7.01 109.04 C-5.95 113.88, -3.52 120.08, 1.58 132.51" stroke="#1e1e1e" stroke-width="2" fill="none"></path></g><g transform="translate(464.71781314874727 113.31067382100264) rotate(0 1 65.5)"><path d="M10.09 109.01 C7.56 114.57, 6.58 120.47, 1.58 132.51 M10.09 109.01 C7.15 113.8, 5.59 120, 1.58 132.51" stroke="#1e1e1e" stroke-width="2" fill="none"></path></g></g><mask id="mask-4GyVbBpyALge_089OGE_5"><rect x="0" y="0" fill="#fff" width="566.7178131487473" height="344.31067382100264"></rect><rect x="456.6072472352088" y="166.31067382100258" fill="#000" width="18.22113182707677" height="25" opacity="1"></rect></mask><g transform="translate(456.6072472352089 166.31067382100258) rotate(0 8.981439321185348 12.99472312405706)"><text x="9.110565913538386" y="17.52" font-family="Virgil, Segoe UI Emoji" font-size="20px" fill="#6741d9" text-anchor="middle" style="white-space: pre;" direction="ltr" dominant-baseline="alphabetic">16</text></g><g mask="url(#mask-8OuBZUEdNClDzFkI_IMh2)" stroke-linecap="round"><g transform="translate(506.71781314874727 271.3106738210026) rotate(0 68.49999999999994 -0.5)"><path d="M-0.77 0 C22.18 0.05, 113.96 0.03, 136.93 -0.16 M1.02 -1.04 C23.88 -1.29, 113.4 -2.04, 135.95 -1.84" stroke="#1e1e1e" stroke-width="2" fill="none"></path></g><g transform="translate(506.71781314874727 271.3106738210026) rotate(0 68.49999999999994 -0.5)"><path d="M112.47 6.74 C117.97 4.78, 124.83 3, 135.95 -1.84 M112.47 6.74 C119.04 3.4, 126.58 2.37, 135.95 -1.84" stroke="#1e1e1e" stroke-width="2" fill="none"></path></g><g transform="translate(506.71781314874727 271.3106738210026) rotate(0 68.49999999999994 -0.5)"><path d="M112.45 -10.37 C117.89 -8.34, 124.76 -6.14, 135.95 -1.84 M112.45 -10.37 C118.98 -8.76, 126.52 -4.84, 135.95 -1.84" stroke="#1e1e1e" stroke-width="2" fill="none"></path></g></g><mask id="mask-8OuBZUEdNClDzFkI_IMh2"><rect x="0" y="0" fill="#fff" width="743.7178131487472" height="372.3106738210026"></rect><rect x="565.6988775279787" y="258.31067382100264" fill="#000" width="19.037871241536816" height="25" opacity="1"></rect></mask><g transform="translate(565.6988775279788 258.31067382100264) rotate(0 9.098120228557434 12.074061336089528)"><text x="9.518935620768408" y="17.52" font-family="Virgil, Segoe UI Emoji" font-size="20px" fill="#6741d9" text-anchor="middle" style="white-space: pre;" direction="ltr" dominant-baseline="alphabetic">13</text></g><g mask="url(#mask-qWwtdSDiayFCeqkZOCItF)" stroke-linecap="round"><g transform="translate(636.7178131487472 306.3106738210026) rotate(0 -67.49999999999994 -0.5)"><path d="M1.02 0.81 C-21.13 0.55, -111.31 -1.09, -134.13 -1.36 M0.1 0.2 C-22.03 0.08, -112.36 -0.08, -134.62 -0.01" stroke="#1e1e1e" stroke-width="2" fill="none"></path></g><g transform="translate(636.7178131487472 306.3106738210026) rotate(0 -67.49999999999994 -0.5)"><path d="M-111.13 -8.57 C-114.48 -5.19, -121.16 -6.37, -134.62 -0.01 M-111.13 -8.57 C-117.87 -6.83, -125.32 -3.24, -134.62 -0.01" stroke="#1e1e1e" stroke-width="2" fill="none"></path></g><g transform="translate(636.7178131487472 306.3106738210026) rotate(0 -67.49999999999994 -0.5)"><path d="M-111.12 8.54 C-114.51 8.47, -121.19 3.85, -134.62 -0.01 M-111.12 8.54 C-117.93 4.84, -125.38 3.01, -134.62 -0.01" stroke="#1e1e1e" stroke-width="2" fill="none"></path></g></g><mask id="mask-qWwtdSDiayFCeqkZOCItF"><rect x="0" y="0" fill="#fff" width="871.717813148747" height="407.3106738210026"></rect><rect x="563.8330638239088" y="293.31067382100264" fill="#000" width="10.769498649676757" height="25" opacity="1"></rect></mask><g transform="translate(563.8330638239088 293.31067382100264) rotate(0 6.086468837926873 12.727838696911931)"><text x="5.384749324838379" y="17.52" font-family="Virgil, Segoe UI Emoji" font-size="20px" fill="#6741d9" text-anchor="middle" style="white-space: pre;" direction="ltr" dominant-baseline="alphabetic">7</text></g><g mask="url(#mask-Pq2qxN8ijmlbZ2gOH-fbg)" stroke-linecap="round"><g transform="translate(428.71781314874727 240.31067382100258) rotate(0 -2 -63)"><path d="M0.03 0.69 C-0.72 -20.09, -4.13 -104.05, -4.9 -125.31 M-1.41 0 C-1.76 -21.06, -1.96 -106.07, -2.66 -127.06" stroke="#1e1e1e" stroke-width="2" fill="none"></path></g><g transform="translate(428.71781314874727 240.31067382100258) rotate(0 -2 -63)"><path d="M6.26 -103.71 C5.15 -111.45, 2.78 -117.12, -2.66 -127.06 M6.26 -103.71 C4.58 -108.66, 2.32 -115.2, -2.66 -127.06" stroke="#1e1e1e" stroke-width="2" fill="none"></path></g><g transform="translate(428.71781314874727 240.31067382100258) rotate(0 -2 -63)"><path d="M-10.84 -103.44 C-7.38 -111.25, -5.18 -117, -2.66 -127.06 M-10.84 -103.44 C-8.61 -108.29, -6.95 -114.89, -2.66 -127.06" stroke="#1e1e1e" stroke-width="2" fill="none"></path></g></g><mask id="mask-Pq2qxN8ijmlbZ2gOH-fbg"><rect x="0" y="0" fill="#fff" width="532.7178131487473" height="466.3106738210026"></rect><rect x="417.12639586962894" y="164.81067382100264" fill="#000" width="19.18283455823653" height="25" opacity="1"></rect></mask><g transform="translate(417.12639586962905 164.81067382100264) rotate(0 9.156909817853489 12.311269335895787)"><text x="9.591417279118264" y="17.52" font-family="Virgil, Segoe UI Emoji" font-size="20px" fill="#6741d9" text-anchor="middle" style="white-space: pre;" direction="ltr" dominant-baseline="alphabetic">10</text></g><g mask="url(#mask-JspKFr-ExwCsGaDjPC_aj)" stroke-linecap="round"><g transform="translate(262.71781314874727 275.3106738210026) rotate(0 64 1)"><path d="M0.61 -1.18 C21.92 -0.68, 106.31 1.75, 127.51 2.39 M-0.53 0.82 C20.61 0.99, 105.06 0.5, 126.3 0.47" stroke="#1e1e1e" stroke-width="2" fill="none"></path></g><g transform="translate(262.71781314874727 275.3106738210026) rotate(0 64 1)"><path d="M102.84 9.11 C107.27 5.83, 116.24 3.93, 126.3 0.47 M102.84 9.11 C110.14 5.18, 118.38 3.53, 126.3 0.47" stroke="#1e1e1e" stroke-width="2" fill="none"></path></g><g transform="translate(262.71781314874727 275.3106738210026) rotate(0 64 1)"><path d="M102.78 -7.99 C107.15 -6.64, 116.12 -3.91, 126.3 0.47 M102.78 -7.99 C110.22 -5.89, 118.47 -1.51, 126.3 0.47" stroke="#1e1e1e" stroke-width="2" fill="none"></path></g></g><mask id="mask-JspKFr-ExwCsGaDjPC_aj"><rect x="0" y="0" fill="#fff" width="490.71781314874727" height="377.3106738210026"></rect><rect x="320.6245135191233" y="263.81067382100264" fill="#000" width="12.186599259248066" height="25" opacity="1"></rect></mask><g transform="translate(320.6245135191232 263.81067382100264) rotate(0 5.5799971106006865 12.105768229439889)"><text x="6.093299629624033" y="17.52" font-family="Virgil, Segoe UI Emoji" font-size="20px" fill="#6741d9" text-anchor="middle" style="white-space: pre;" direction="ltr" dominant-baseline="alphabetic">9</text></g><g mask="url(#mask-WRP8NGZ59FIx0gnjb-wu1)" stroke-linecap="round"><g transform="translate(390.71781314874727 307.3106738210026) rotate(0 -65 1)"><path d="M0.5 0.94 C-21.27 1.53, -107.72 2.31, -129.65 2.37 M-0.7 0.39 C-22.68 0.7, -109.06 0.13, -130.41 0.45" stroke="#1e1e1e" stroke-width="2" fill="none"></path></g><g transform="translate(390.71781314874727 307.3106738210026) rotate(0 -65 1)"><path d="M-106.94 -8.17 C-114.45 -4.18, -124.39 -3.28, -130.41 0.45 M-106.94 -8.17 C-113.7 -6.27, -118.83 -3.46, -130.41 0.45" stroke="#1e1e1e" stroke-width="2" fill="none"></path></g><g transform="translate(390.71781314874727 307.3106738210026) rotate(0 -65 1)"><path d="M-106.89 8.93 C-114.26 6.37, -124.22 0.71, -130.41 0.45 M-106.89 8.93 C-113.52 6.67, -118.65 5.32, -130.41 0.45" stroke="#1e1e1e" stroke-width="2" fill="none"></path></g></g><mask id="mask-WRP8NGZ59FIx0gnjb-wu1"><rect x="0" y="0" fill="#fff" width="620.7178131487473" height="409.3106738210026"></rect><rect x="318.908980321536" y="295.81067382100264" fill="#000" width="13.617665654422249" height="25" opacity="1"></rect></mask><g transform="translate(318.9089803215361 295.81067382100264) rotate(0 6.854697495401638 12.860181429890474)"><text x="6.808832827211124" y="17.52" font-family="Virgil, Segoe UI Emoji" font-size="20px" fill="#6741d9" text-anchor="middle" style="white-space: pre;" direction="ltr" dominant-baseline="alphabetic">3</text></g><g stroke-linecap="round" transform="translate(208.71781314874727 65.31067382100264) rotate(0 7 7)"><path d="M1.94 1.69 C1.94 1.69, 1.94 1.69, 1.94 1.69 M1.94 1.69 C1.94 1.69, 1.94 1.69, 1.94 1.69 M3.39 12.22 C7.06 7.71, 10.63 4.8, 11.91 2.41 M3.39 12.22 C5.82 8.87, 8.8 6.22, 11.91 2.41 M0.92 11.14 C0.92 11.14, 0.92 11.14, 0.92 11.14 M0.92 11.14 C0.92 11.14, 0.92 11.14, 0.92 11.14 M12.21 10.35 C9.55 7.9, 7.47 5.75, 2.39 1.82 M12.21 10.35 C9.98 8.78, 8.27 6.57, 2.39 1.82" stroke="#d0bfff" stroke-width="1" fill="none"></path><path d="M6.24 0.36 C7.6 0.24, 9.36 0.49, 10.61 1.37 C11.86 2.24, 13.31 4.17, 13.74 5.61 C14.17 7.05, 13.84 8.75, 13.2 9.98 C12.56 11.22, 11.21 12.46, 9.91 13.02 C8.6 13.57, 6.89 13.61, 5.38 13.29 C3.87 12.97, 1.82 12.33, 0.87 11.09 C-0.08 9.86, -0.54 7.46, -0.34 5.87 C-0.14 4.28, 0.9 2.54, 2.07 1.53 C3.25 0.52, 5.94 0.05, 6.72 -0.2 C7.49 -0.44, 6.68 -0.03, 6.74 0.08 M6.78 -0.21 C8.06 -0.43, 9.7 0.23, 10.95 1.24 C12.21 2.24, 13.92 4.18, 14.33 5.82 C14.74 7.46, 14.25 9.83, 13.43 11.09 C12.62 12.35, 10.87 12.91, 9.44 13.38 C8.02 13.85, 6.38 14.44, 4.86 13.92 C3.33 13.4, 0.97 11.6, 0.29 10.26 C-0.39 8.92, 0.48 7.29, 0.76 5.88 C1.04 4.47, 1.02 2.69, 1.96 1.81 C2.9 0.92, 5.65 0.76, 6.4 0.59 C7.16 0.42, 6.39 0.76, 6.47 0.79" stroke="#6741d9" stroke-width="2" fill="none"></path></g><g stroke-linecap="round" transform="translate(435.71781314874727 64.31067382100264) rotate(0 7 6.5)"><path d="M1.05 2.24 C1.05 2.24, 1.05 2.24, 1.05 2.24 M1.05 2.24 C1.05 2.24, 1.05 2.24, 1.05 2.24 M3.15 12.01 C6.23 8.28, 9.31 3.72, 12.33 1.45 M3.15 12.01 C6.25 8.5, 9.77 4.79, 12.33 1.45 M2.31 11.06 C2.31 11.06, 2.31 11.06, 2.31 11.06 M2.31 11.06 C2.31 11.06, 2.31 11.06, 2.31 11.06 M12.84 9.61 C10.3 7.81, 7.96 4.71, 3.03 1.09 M12.84 9.61 C10.86 7.74, 8.4 5.67, 3.03 1.09" stroke="#d0bfff" stroke-width="1" fill="none"></path><path d="M5.79 0.12 C7.16 -0.35, 9.31 -0.21, 10.67 0.39 C12.03 1, 13.4 2.42, 13.95 3.75 C14.5 5.07, 14.52 6.9, 13.96 8.34 C13.39 9.79, 11.95 11.62, 10.55 12.43 C9.15 13.23, 6.98 13.44, 5.56 13.16 C4.13 12.89, 2.85 11.88, 2 10.79 C1.16 9.71, 0.63 8.1, 0.49 6.65 C0.35 5.2, 0.24 3.14, 1.16 2.11 C2.07 1.08, 5.1 0.81, 5.97 0.46 C6.83 0.11, 6.25 0.01, 6.33 0.02 M6.7 0.05 C8.22 -0.18, 10.23 0.11, 11.43 0.91 C12.62 1.71, 13.64 3.34, 13.84 4.86 C14.05 6.38, 13.42 8.69, 12.65 10.04 C11.89 11.39, 10.51 12.46, 9.26 12.95 C8.01 13.44, 6.54 13.5, 5.15 12.99 C3.75 12.48, 1.73 11.08, 0.9 9.9 C0.07 8.72, -0.12 7.24, 0.17 5.93 C0.47 4.61, 1.45 2.92, 2.66 2.01 C3.88 1.09, 6.69 0.85, 7.46 0.42 C8.23 0, 7.34 -0.48, 7.3 -0.53" stroke="#6741d9" stroke-width="2" fill="none"></path></g><g stroke-linecap="round" transform="translate(670.7178131487472 58.31067382100264) rotate(0 7 7)"><path d="M3.04 1.32 C3.04 1.32, 3.04 1.32, 3.04 1.32 M3.04 1.32 C3.04 1.32, 3.04 1.32, 3.04 1.32 M3.83 12.6 C5.93 8.92, 9.17 5.99, 12.36 2.79 M3.83 12.6 C6.4 9.55, 9.41 5.95, 12.36 2.79 M3.66 12.56 C3.66 12.56, 3.66 12.56, 3.66 12.56 M3.66 12.56 C3.66 12.56, 3.66 12.56, 3.66 12.56 M13.43 10.46 C8.88 7.27, 5.87 3.62, 2.87 1.27 M13.43 10.46 C10.42 8.43, 7.84 5.72, 2.87 1.27" stroke="#d0bfff" stroke-width="1" fill="none"></path><path d="M7.84 0.08 C9.23 0.18, 11.17 1.4, 12.23 2.55 C13.28 3.7, 14.06 5.46, 14.18 6.96 C14.31 8.46, 13.86 10.48, 12.96 11.55 C12.07 12.62, 10.3 13.18, 8.81 13.4 C7.31 13.61, 5.33 13.42, 3.99 12.85 C2.66 12.28, 1.32 11.31, 0.79 9.95 C0.27 8.59, 0.43 6.17, 0.82 4.7 C1.22 3.24, 1.97 1.98, 3.16 1.18 C4.34 0.38, 6.99 -0.02, 7.92 -0.09 C8.86 -0.17, 8.81 0.65, 8.77 0.74 M5.92 0.15 C7.22 -0.23, 9.07 0.46, 10.25 1.12 C11.43 1.77, 12.38 2.74, 13 4.07 C13.61 5.4, 14.47 7.65, 13.93 9.11 C13.39 10.57, 11.09 11.94, 9.77 12.8 C8.45 13.66, 7.34 14.53, 6.02 14.27 C4.7 14.02, 2.96 12.51, 1.87 11.29 C0.77 10.08, -0.58 8.35, -0.53 6.99 C-0.48 5.62, 1 4.34, 2.16 3.1 C3.33 1.86, 5.85 0.06, 6.44 -0.46 C7.03 -0.99, 5.89 -0.3, 5.7 -0.05" stroke="#6741d9" stroke-width="2" fill="none"></path></g><g stroke-linecap="round" transform="translate(206.71781314874727 285.3106738210026) rotate(0 7.5 8)"><path d="M4.01 0.83 C4.01 0.83, 4.01 0.83, 4.01 0.83 M4.01 0.83 C4.01 0.83, 4.01 0.83, 4.01 0.83 M3.48 13.63 C7.25 9.8, 10.51 5.12, 13.32 2.31 M3.48 13.63 C6.69 10.15, 9.12 7.48, 13.32 2.31 M4.17 15.02 C4.17 15.02, 4.17 15.02, 4.17 15.02 M4.17 15.02 C4.17 15.02, 4.17 15.02, 4.17 15.02 M13.19 12.26 C9.73 8.16, 5.2 4.75, 2.63 3.08 M13.19 12.26 C10.25 9.62, 7.58 7.18, 2.63 3.08" stroke="#d0bfff" stroke-width="1" fill="none"></path><path d="M8.54 0.21 C9.99 0.31, 11.68 1.16, 12.8 2.41 C13.92 3.66, 15.24 5.96, 15.25 7.7 C15.25 9.45, 13.86 11.49, 12.83 12.9 C11.8 14.3, 10.54 15.8, 9.06 16.13 C7.59 16.45, 5.47 15.74, 3.98 14.86 C2.49 13.97, 0.66 12.35, 0.12 10.83 C-0.42 9.32, 0.09 7.44, 0.76 5.76 C1.42 4.08, 2.74 1.7, 4.09 0.74 C5.45 -0.23, 8.1 0, 8.88 -0.03 C9.66 -0.06, 8.73 0.42, 8.78 0.55 M7.33 0.09 C8.99 0.08, 11.81 1.38, 13.02 2.4 C14.22 3.43, 14.48 4.61, 14.53 6.24 C14.59 7.86, 14.06 10.57, 13.37 12.15 C12.68 13.73, 11.84 15.19, 10.41 15.72 C8.98 16.25, 6.48 16.08, 4.78 15.32 C3.08 14.57, 1 12.75, 0.21 11.21 C-0.58 9.66, -0.45 7.49, 0.02 6.04 C0.48 4.59, 1.62 3.57, 3 2.5 C4.39 1.42, 7.47 -0.02, 8.32 -0.39 C9.17 -0.76, 8.3 0.04, 8.1 0.3" stroke="#6741d9" stroke-width="2" fill="none"></path></g><g stroke-linecap="round" transform="translate(206.71781314874727 515.3106738210026) rotate(0 6.5 7.5)"><path d="M2.09 1.82 C2.09 1.82, 2.09 1.82, 2.09 1.82 M2.09 1.82 C2.09 1.82, 2.09 1.82, 2.09 1.82 M2.88 13.11 C5.84 10.31, 7.8 6.65, 11.41 3.29 M2.88 13.11 C6.49 9.38, 9.79 5.28, 11.41 3.29 M1.2 12.33 C1.2 12.33, 1.2 12.33, 1.2 12.33 M1.2 12.33 C1.2 12.33, 1.2 12.33, 1.2 12.33 M11.74 10.89 C8.47 8.35, 5.23 6.18, 1.92 2.36 M11.74 10.89 C9.39 9.11, 6.71 6.55, 1.92 2.36" stroke="#d0bfff" stroke-width="1" fill="none"></path><path d="M6.08 -0.19 C7.4 -0.56, 9.22 0.31, 10.27 1.26 C11.32 2.2, 12.01 3.98, 12.37 5.48 C12.74 6.99, 12.91 8.81, 12.48 10.28 C12.06 11.75, 10.98 13.51, 9.82 14.32 C8.66 15.14, 6.94 15.47, 5.54 15.17 C4.14 14.87, 2.38 13.85, 1.41 12.52 C0.45 11.19, -0.33 8.95, -0.24 7.19 C-0.14 5.43, 0.89 3.1, 1.96 1.97 C3.03 0.83, 5.46 0.68, 6.18 0.38 C6.91 0.08, 6.42 0.07, 6.29 0.16 M6.92 -0.25 C8.14 -0.05, 9.4 1.69, 10.32 2.83 C11.24 3.98, 12.08 5.07, 12.45 6.63 C12.82 8.19, 13.25 10.83, 12.53 12.2 C11.81 13.57, 9.47 14.55, 8.14 14.86 C6.81 15.17, 5.87 14.86, 4.56 14.07 C3.25 13.28, 1.01 11.58, 0.28 10.14 C-0.45 8.7, -0.21 6.93, 0.18 5.41 C0.57 3.89, 1.41 1.91, 2.61 1.03 C3.82 0.14, 6.82 0.13, 7.43 0.09 C8.04 0.05, 6.28 0.6, 6.29 0.81" stroke="#6741d9" stroke-width="2" fill="none"></path></g><g stroke-linecap="round" transform="translate(435.71781314874727 281.3106738210026) rotate(0 8 8.5)"><path d="M2.75 2.39 C2.75 2.39, 2.75 2.39, 2.75 2.39 M2.75 2.39 C2.75 2.39, 2.75 2.39, 2.75 2.39 M2.88 14.43 C6.26 9.73, 10.14 6.16, 13.38 2.35 M2.88 14.43 C5.92 10.98, 8.1 8.26, 13.38 2.35 M1.57 13.43 C1.57 13.43, 1.57 13.43, 1.57 13.43 M1.57 13.43 C1.57 13.43, 1.57 13.43, 1.57 13.43 M13.61 13.3 C9.8 10.75, 6.05 7.12, 2.29 3.46 M13.61 13.3 C10.24 10.44, 7.04 7.31, 2.29 3.46 M12.82 2.01 C12.23 1.49, 11.77 1, 10.56 0.05 M12.82 2.01 C11.96 1.27, 11.15 0.53, 10.56 0.05" stroke="#d0bfff" stroke-width="1" fill="none"></path><path d="M6.59 0.52 C8.14 0.22, 10.46 0.33, 12.05 1.31 C13.64 2.29, 15.57 4.6, 16.11 6.37 C16.65 8.15, 15.95 10.37, 15.28 11.96 C14.6 13.55, 13.64 15.19, 12.08 15.92 C10.52 16.66, 7.67 16.79, 5.91 16.37 C4.16 15.95, 2.56 14.86, 1.56 13.43 C0.57 11.99, -0.21 9.54, -0.05 7.75 C0.1 5.97, 1.31 3.93, 2.47 2.71 C3.63 1.49, 5.99 0.81, 6.92 0.45 C7.85 0.09, 7.88 0.56, 8.05 0.55 M7.99 0.26 C9.71 0.24, 12.03 0.9, 13.46 2.13 C14.88 3.35, 16.27 5.85, 16.56 7.61 C16.84 9.38, 16.24 11.2, 15.16 12.71 C14.09 14.21, 11.85 15.93, 10.1 16.65 C8.36 17.37, 6.16 17.7, 4.69 17.02 C3.22 16.34, 2.09 14.4, 1.29 12.56 C0.5 10.72, -0.51 7.72, -0.06 5.98 C0.38 4.24, 2.42 3.02, 3.95 2.12 C5.49 1.22, 8.32 0.83, 9.15 0.56 C9.99 0.28, 9.07 0.38, 8.96 0.49" stroke="#6741d9" stroke-width="2" fill="none"></path></g><g stroke-linecap="round" transform="translate(668.7178131487472 288.3106738210026) rotate(0 8.5 7.5)"><path d="M2.69 2.33 C2.69 2.33, 2.69 2.33, 2.69 2.33 M2.69 2.33 C2.69 2.33, 2.69 2.33, 2.69 2.33 M3.47 13.62 C5.29 10.61, 8.22 7.87, 13.97 1.55 M3.47 13.62 C6.26 10.16, 9.59 6.65, 13.97 1.55 M14.76 12.83 C15.76 11.56, 16.81 10.4, 17.38 9.81 M14.76 12.83 C15.68 11.84, 16.44 10.82, 17.38 9.81 M1.66 11.81 C1.66 11.81, 1.66 11.81, 1.66 11.81 M1.66 11.81 C1.66 11.81, 1.66 11.81, 1.66 11.81 M14.46 12.33 C11.42 9.8, 8.58 7.17, 3.14 2.49 M14.46 12.33 C10.28 8.42, 5.69 4.45, 3.14 2.49" stroke="#d0bfff" stroke-width="1" fill="none"></path><path d="M8.31 -0.29 C9.94 -0.49, 12.04 0.4, 13.43 1.48 C14.82 2.57, 16.17 4.64, 16.67 6.23 C17.16 7.82, 17.22 9.72, 16.39 11.01 C15.56 12.31, 13.33 13.34, 11.69 14 C10.06 14.66, 8.21 15.31, 6.57 14.97 C4.93 14.64, 2.9 13.35, 1.87 11.99 C0.85 10.64, 0.26 8.46, 0.4 6.85 C0.54 5.23, 1.36 3.38, 2.73 2.28 C4.1 1.19, 7.62 0.72, 8.64 0.29 C9.67 -0.14, 8.96 -0.36, 8.88 -0.29 M9.28 -0.57 C11.01 -0.56, 12.99 1, 14.27 2.24 C15.54 3.47, 16.66 5.34, 16.93 6.84 C17.2 8.35, 16.88 10.07, 15.88 11.26 C14.87 12.44, 12.62 13.5, 10.9 13.95 C9.17 14.4, 7.24 14.39, 5.53 13.97 C3.81 13.54, 1.47 12.67, 0.61 11.41 C-0.26 10.15, -0.06 8.12, 0.33 6.39 C0.71 4.66, 1.42 2.03, 2.92 1.03 C4.41 0.04, 8.36 0.51, 9.32 0.44 C10.27 0.36, 8.79 0.46, 8.64 0.59" stroke="#6741d9" stroke-width="2" fill="none"></path></g><g stroke-linecap="round" transform="translate(678.7178131487472 515.3106738210026) rotate(0 6 6.5)"><path d="M1.97 1.71 C1.97 1.71, 1.97 1.71, 1.97 1.71 M1.97 1.71 C1.97 1.71, 1.97 1.71, 1.97 1.71 M3.41 12.24 C5.72 9.54, 8.61 6.66, 11.28 3.18 M3.41 12.24 C5.58 9.82, 7.94 6.97, 11.28 3.18 M2.92 11.88 C2.92 11.88, 2.92 11.88, 2.92 11.88 M2.92 11.88 C2.92 11.88, 2.92 11.88, 2.92 11.88 M11.95 9.12 C8.52 6.56, 5.27 3, 2.89 1.25 M11.95 9.12 C9.3 6.63, 6.68 4.49, 2.89 1.25" stroke="#d0bfff" stroke-width="1" fill="none"></path><path d="M6.55 -0.24 C7.77 -0.35, 9.16 0.33, 10.11 1.28 C11.06 2.23, 12.12 3.95, 12.24 5.48 C12.36 7.01, 11.56 9.17, 10.82 10.45 C10.07 11.73, 9.03 12.87, 7.78 13.16 C6.52 13.44, 4.42 12.75, 3.27 12.17 C2.11 11.6, 1.39 10.84, 0.83 9.69 C0.28 8.54, -0.29 6.63, -0.08 5.28 C0.13 3.92, 0.99 2.42, 2.08 1.58 C3.17 0.73, 5.66 0.53, 6.46 0.22 C7.26 -0.09, 6.87 -0.43, 6.88 -0.29 M5.9 -0.45 C7.3 -0.51, 9.19 0.24, 10.27 1.1 C11.35 1.96, 12.21 3.29, 12.38 4.69 C12.55 6.08, 12.08 8.19, 11.29 9.47 C10.49 10.76, 8.83 11.86, 7.6 12.4 C6.37 12.94, 5.02 13.2, 3.89 12.7 C2.77 12.21, 1.52 10.71, 0.83 9.43 C0.15 8.15, -0.39 6.34, -0.19 5.05 C0 3.76, 1.01 2.4, 2 1.68 C3 0.96, 5.12 0.91, 5.78 0.75 C6.44 0.58, 5.98 0.75, 5.96 0.7" stroke="#6741d9" stroke-width="2" fill="none"></path></g><g stroke-linecap="round" transform="translate(444.71781314874727 519.3106738210026) rotate(0 7.5 7.5)"><path d="M1.42 2.56 C1.42 2.56, 1.42 2.56, 1.42 2.56 M1.42 2.56 C1.42 2.56, 1.42 2.56, 1.42 2.56 M2.87 13.09 C5.79 10.31, 7.01 7.32, 12.05 2.53 M2.87 13.09 C5.49 9.99, 8.36 6.75, 12.05 2.53 M2 12.95 C2 12.95, 2 12.95, 2 12.95 M2 12.95 C2 12.95, 2 12.95, 2 12.95 M13.28 12.16 C9.5 9.1, 6.96 7.19, 1.96 2.32 M13.28 12.16 C10.47 10.1, 7.61 7.2, 1.96 2.32" stroke="#d0bfff" stroke-width="1" fill="none"></path><path d="M6.22 0.12 C7.74 -0.1, 9.85 0.64, 11.25 1.51 C12.66 2.37, 14.13 3.92, 14.66 5.32 C15.19 6.72, 15.02 8.48, 14.43 9.93 C13.84 11.37, 12.49 13.15, 11.14 13.97 C9.79 14.8, 7.92 15.11, 6.33 14.88 C4.74 14.66, 2.68 13.89, 1.62 12.62 C0.56 11.35, -0.02 8.98, -0.03 7.27 C-0.03 5.56, 0.56 3.55, 1.59 2.37 C2.61 1.19, 5.21 0.59, 6.14 0.18 C7.07 -0.22, 7.09 -0.23, 7.17 -0.05 M6.2 0.16 C7.66 -0.27, 9.43 0.32, 10.74 0.99 C12.05 1.66, 13.31 2.78, 14.06 4.2 C14.8 5.61, 15.62 7.88, 15.22 9.47 C14.82 11.06, 13.1 12.68, 11.67 13.72 C10.23 14.76, 8.31 15.95, 6.62 15.71 C4.92 15.46, 2.48 13.53, 1.48 12.27 C0.48 11, 0.55 9.64, 0.63 8.11 C0.7 6.59, 1.18 4.33, 1.94 3.11 C2.71 1.9, 4.71 1.22, 5.22 0.83 C5.73 0.45, 5 0.7, 4.99 0.81" stroke="#6741d9" stroke-width="2" fill="none"></path></g><g mask="url(#mask-szVDI-usMH5xCLiPovu1E)" stroke-linecap="round"><g transform="translate(113.71781314874727 64.31067382100264) rotate(0 3 230.99999999999997)"><path d="M-0.4 1.05 C0.69 78.2, 4.42 384.98, 5.64 461.74 M1.58 0.56 C2.57 77.99, 3.67 386.11, 4.5 463.14" stroke="#099268" stroke-width="2" fill="none"></path></g><g transform="translate(113.71781314874727 64.31067382100264) rotate(0 3 230.99999999999997)"><path d="M14.59 0.86 C12.58 0.4, 7.62 1.98, -0.4 1.05 M14.59 0.86 C11.31 0.67, 6.52 1.66, -0.4 1.05" stroke="#099268" stroke-width="2" fill="none"></path></g><g transform="translate(113.71781314874727 64.31067382100264) rotate(0 3 230.99999999999997)"><path d="M-15.4 1.24 C-10.76 0.8, -9.08 2.3, -0.4 1.05 M-15.4 1.24 C-10.63 0.7, -7.35 1.58, -0.4 1.05" stroke="#099268" stroke-width="2" fill="none"></path></g><g transform="translate(113.71781314874727 64.31067382100264) rotate(0 3 230.99999999999997)"><path d="M-10.5 463.24 C-5.86 462.81, -4.18 464.33, 4.5 463.14 M-10.5 463.24 C-5.73 462.72, -2.45 463.63, 4.5 463.14" stroke="#099268" stroke-width="2" fill="none"></path></g><g transform="translate(113.71781314874727 64.31067382100264) rotate(0 3 230.99999999999997)"><path d="M19.5 463.04 C17.49 462.55, 12.52 464.12, 4.5 463.14 M19.5 463.04 C16.21 462.82, 11.42 463.78, 4.5 463.14" stroke="#099268" stroke-width="2" fill="none"></path></g></g><mask id="mask-szVDI-usMH5xCLiPovu1E"><rect x="0" y="0" fill="#fff" width="219.71781314874727" height="626.3106738210026"></rect><rect x="49.90968516955638" y="282.8106738210026" fill="#000" width="133.6162559583817" height="25" opacity="1"></rect></mask><g transform="translate(49.90968516955638 282.81067382100264) rotate(0 66.42472582422369 13.347641460653477)"><text x="66.80812797919086" y="17.52" font-family="Virgil, Segoe UI Emoji" font-size="20px" fill="#099268" text-anchor="middle" style="white-space: pre;" direction="ltr" dominant-baseline="alphabetic"># of squares</text></g><g mask="url(#mask-Vg8pPPCZeyT3-F6sFr-nt)" stroke-linecap="round"><g transform="translate(209.71781314874727 570.3106738210026) rotate(0 238.49999999999994 0)"><path d="M0.41 0.22 C79.95 0.05, 398.07 -0.05, 477.43 -0.24 M-0.83 -0.7 C78.57 -0.76, 397.3 1.07, 476.71 1.18" stroke="#099268" stroke-width="2" fill="none"></path></g><g transform="translate(209.71781314874727 570.3106738210026) rotate(0 238.49999999999994 0)"><path d="M0.4 -14.78 C0.78 -9.52, 0.21 -5.86, 0.41 0.22 M0.4 -14.78 C1.01 -10.83, 0.22 -7.63, 0.41 0.22" stroke="#099268" stroke-width="2" fill="none"></path></g><g transform="translate(209.71781314874727 570.3106738210026) rotate(0 238.49999999999994 0)"><path d="M0.42 15.22 C0.6 11.04, 0.02 5.27, 0.41 0.22 M0.42 15.22 C1 12.39, 0.21 8.81, 0.41 0.22" stroke="#099268" stroke-width="2" fill="none"></path></g><g transform="translate(209.71781314874727 570.3106738210026) rotate(0 238.49999999999994 0)"><path d="M476.65 16.18 C476.85 11.99, 476.29 6.22, 476.71 1.18 M476.65 16.18 C477.24 13.34, 476.46 9.76, 476.71 1.18" stroke="#099268" stroke-width="2" fill="none"></path></g><g transform="translate(209.71781314874727 570.3106738210026) rotate(0 238.49999999999994 0)"><path d="M476.76 -13.82 C477.13 -8.57, 476.53 -4.9, 476.71 1.18 M476.76 -13.82 C477.36 -9.88, 476.56 -6.68, 476.71 1.18" stroke="#099268" stroke-width="2" fill="none"></path></g></g><mask id="mask-Vg8pPPCZeyT3-F6sFr-nt"><rect x="0" y="0" fill="#fff" width="786.7178131487472" height="670.3106738210026"></rect><rect x="358.1276016822484" y="557.8106738210026" fill="#000" width="180.18042293299737" height="25" opacity="1"></rect></mask><g transform="translate(358.1276016822485 557.8106738210026) rotate(0 89.88686722229608 12.735768956592153)"><text x="90.09021146649869" y="17.52" font-family="Virgil, Segoe UI Emoji" font-size="20px" fill="#099268" text-anchor="middle" style="white-space: pre;" direction="ltr" dominant-baseline="alphabetic"># of squares = 2</text></g></svg>