<svg version="1.1" xmlns="http://www.w3.org/2000/svg" viewBox="0 0 2977.9999999999995 559.9999999999998" width="2977.9999999999995" height="559.9999999999998">
  <!-- svg-source:excalidraw -->
  
  <defs>
    <style class="style-fonts">
      @font-face {
        font-family: "Virgil";
        src: url("https://excalidraw.com/Virgil.woff2");
      }
      @font-face {
        font-family: "Cascadia";
        src: url("https://excalidraw.com/Cascadia.woff2");
      }
      @font-face {
        font-family: "Assistant";
        src: url("https://excalidraw.com/Assistant-Regular.woff2");
      }
    </style>
    
  </defs>
  <g stroke-linecap="round" transform="translate(10 10) rotate(0 1478.9999999999998 269.9999999999999)"><path d="M32 0 C1160.79 -5.94, 2290.46 -6.06, 2926 0 C2948.66 -3.54, 2955.6 11.02, 2958 32 C2953.96 127.71, 2953.95 226.41, 2958 508 C2956.43 531.32, 2948 543, 2926 540 C1888.88 528.44, 855.93 529.32, 32 540 C10.11 541.43, -0.36 529.1, 0 508 C-0.37 369.17, 2.09 227.77, 0 32 C3.42 14.03, 7.55 -0.7, 32 0" stroke="none" stroke-width="0" fill="#ffffff"></path><path d="M32 0 C1178.67 11.09, 2325.18 10.73, 2926 0 M32 0 C810.33 -3.15, 1589.16 -3.19, 2926 0 M2926 0 C2946.7 -1.76, 2959.1 10.31, 2958 32 M2926 0 C2948.53 1.69, 2958.75 11.59, 2958 32 M2958 32 C2959.87 192.75, 2958.85 352.23, 2958 508 M2958 32 C2958.18 182.36, 2957.76 333.86, 2958 508 M2958 508 C2957.18 530.32, 2946.94 539.97, 2926 540 M2958 508 C2960.11 530.27, 2947.44 539.09, 2926 540 M2926 540 C2171.79 541.32, 1417.79 542.34, 32 540 M2926 540 C1824.24 529.47, 721.92 529.17, 32 540 M32 540 C8.67 540.83, -0.64 529.36, 0 508 M32 540 C12.22 540.43, -1.44 529.81, 0 508 M0 508 C1.71 362.15, 0.25 214.76, 0 32 M0 508 C0.74 406.27, 0.79 305.36, 0 32 M0 32 C-1.74 9.15, 11.52 -1.22, 32 0 M0 32 C-0.64 10.84, 11.88 0.28, 32 0" stroke="#1e1e1e" stroke-width="2" fill="none"></path></g><g stroke-linecap="round"><g transform="translate(142.33333333333303 492.0476190476186) rotate(0 158 0)"><path d="M0.93 -1.14 C53.38 -1.4, 262.44 -1.07, 314.86 -1.03 M-0.04 0.87 C52.74 0.69, 264.57 0.12, 316.98 -0.03" stroke="#1e1e1e" stroke-width="2" fill="none"></path></g><g transform="translate(142.33333333333303 492.0476190476186) rotate(0 158 0)"><path d="M293.51 8.59 C298.93 3.81, 306.48 2.11, 316.98 -0.03 M293.51 8.59 C299.55 6.77, 303.42 5.7, 316.98 -0.03" stroke="#1e1e1e" stroke-width="2" fill="none"></path></g><g transform="translate(142.33333333333303 492.0476190476186) rotate(0 158 0)"><path d="M293.46 -8.52 C298.97 -7.93, 306.53 -4.26, 316.98 -0.03 M293.46 -8.52 C299.67 -6.49, 303.55 -3.72, 316.98 -0.03" stroke="#1e1e1e" stroke-width="2" fill="none"></path></g></g><mask></mask><g stroke-linecap="round"><g transform="translate(746.6666666666661 488.7142857142853) rotate(0 157.99999999999977 0)"><path d="M0.66 -1.18 C53.63 -1.17, 264.75 -1.18, 317.11 -0.91 M-0.46 0.82 C52.52 1.03, 263.82 0.57, 316.75 0.15" stroke="#1e1e1e" stroke-width="2" fill="none"></path></g><g transform="translate(746.6666666666661 488.7142857142853) rotate(0 157.99999999999977 0)"><path d="M293.29 8.81 C297.02 8.46, 303.09 2.59, 316.75 0.15 M293.29 8.81 C300.8 4.85, 308.15 1.89, 316.75 0.15" stroke="#1e1e1e" stroke-width="2" fill="none"></path></g><g transform="translate(746.6666666666661 488.7142857142853) rotate(0 157.99999999999977 0)"><path d="M293.22 -8.29 C296.83 -4.55, 302.92 -6.31, 316.75 0.15 M293.22 -8.29 C300.86 -6.54, 308.23 -3.77, 316.75 0.15" stroke="#1e1e1e" stroke-width="2" fill="none"></path></g></g><mask></mask><g stroke-linecap="round"><g transform="translate(1346.6666666666656 483.7142857142853) rotate(0 158 0)"><path d="M-1.02 -1.14 C51.73 -1.06, 264.15 0.64, 317.05 0.99 M0.65 0.87 C53.28 0.6, 264.13 -0.32, 316.65 -0.61" stroke="#1e1e1e" stroke-width="2" fill="none"></path></g><g transform="translate(1346.6666666666656 483.7142857142853) rotate(0 158 0)"><path d="M293.2 8.05 C299.37 7.01, 311.03 2.89, 316.65 -0.61 M293.2 8.05 C302.11 5.19, 311.1 0.8, 316.65 -0.61" stroke="#1e1e1e" stroke-width="2" fill="none"></path></g><g transform="translate(1346.6666666666656 483.7142857142853) rotate(0 158 0)"><path d="M293.12 -9.05 C299.38 -4.18, 311.07 -2.39, 316.65 -0.61 M293.12 -9.05 C302.21 -5.43, 311.24 -3.33, 316.65 -0.61" stroke="#1e1e1e" stroke-width="2" fill="none"></path></g></g><mask></mask><g stroke-linecap="round"><g transform="translate(1937.6666666666647 483.7142857142853) rotate(0 158 0)"><path d="M0.59 0.91 C53.28 0.8, 262.74 -0.59, 315.26 -0.62 M-0.56 0.35 C52.6 0.38, 265.03 0.85, 317.58 0.58" stroke="#1e1e1e" stroke-width="2" fill="none"></path></g><g transform="translate(1937.6666666666647 483.7142857142853) rotate(0 158 0)"><path d="M294.1 9.16 C300.91 5.88, 303.64 4.69, 317.58 0.58 M294.1 9.16 C301.58 5.98, 310.02 1.94, 317.58 0.58" stroke="#1e1e1e" stroke-width="2" fill="none"></path></g><g transform="translate(1937.6666666666647 483.7142857142853) rotate(0 158 0)"><path d="M294.08 -7.94 C300.91 -7.37, 303.64 -4.7, 317.58 0.58 M294.08 -7.94 C301.61 -4.98, 310.06 -2.88, 317.58 0.58" stroke="#1e1e1e" stroke-width="2" fill="none"></path></g></g><mask></mask><g stroke-linecap="round"><g transform="translate(2527.3333333333308 487.38095238095207) rotate(0 158 0)"><path d="M0.73 0.84 C53.44 1.04, 263.71 0.42, 316.07 0.45 M-0.34 0.24 C52.23 0.14, 262.23 -1.26, 315.15 -1.43" stroke="#1e1e1e" stroke-width="2" fill="none"></path></g><g transform="translate(2527.3333333333308 487.38095238095207) rotate(0 158 0)"><path d="M291.71 7.24 C299.84 4.74, 305.88 0.29, 315.15 -1.43 M291.71 7.24 C300.47 3.14, 310.61 0.5, 315.15 -1.43" stroke="#1e1e1e" stroke-width="2" fill="none"></path></g><g transform="translate(2527.3333333333308 487.38095238095207) rotate(0 158 0)"><path d="M291.62 -9.86 C299.67 -7.49, 305.74 -7.07, 315.15 -1.43 M291.62 -9.86 C300.28 -7.38, 310.45 -3.45, 315.15 -1.43" stroke="#1e1e1e" stroke-width="2" fill="none"></path></g></g><mask></mask><g mask="url(#mask-MvmdqGhyceGKP07nGz56q)" stroke-linecap="round"><g transform="translate(501.33333333333303 437.0476190476186) rotate(0 1 -45)"><path d="M0.71 -1.14 C1.17 -16.02, 1.67 -75.56, 1.87 -90.46 M-0.38 0.88 C-0.01 -13.74, 0.6 -74.1, 0.85 -89.17" stroke="#e03131" stroke-width="2" fill="none"></path></g><g transform="translate(501.33333333333303 437.0476190476186) rotate(0 1 -45)"><path d="M9.09 -65.56 C5.56 -71.06, 4.83 -76.3, 0.85 -89.17 M9.09 -65.56 C6.29 -71.17, 4.22 -78.16, 0.85 -89.17" stroke="#e03131" stroke-width="2" fill="none"></path></g><g transform="translate(501.33333333333303 437.0476190476186) rotate(0 1 -45)"><path d="M-8.01 -65.79 C-7.68 -71.33, -4.56 -76.52, 0.85 -89.17 M-8.01 -65.79 C-6.47 -71.23, -4.2 -78.16, 0.85 -89.17" stroke="#e03131" stroke-width="2" fill="none"></path></g></g><mask id="mask-MvmdqGhyceGKP07nGz56q"><rect x="0" y="0" fill="#fff" width="603.333333333333" height="627.0476190476186"></rect><rect x="474.63338679996605" y="379.5476190476186" fill="#000" width="55.399893066732886" height="25" opacity="1"></rect></mask><g transform="translate(474.63338679996605 379.5476190476186) rotate(0 27.442956204623215 12.709841240732942)"><text x="27.699946533366443" y="17.52" font-family="Virgil, Segoe UI Emoji" font-size="20px" fill="#e03131" text-anchor="middle" style="white-space: pre;" direction="ltr" dominant-baseline="alphabetic">start</text></g><g mask="url(#mask-IgQrFILUta5MelIGpNwzF)" stroke-linecap="round"><g transform="translate(1105.6666666666656 433.7142857142853) rotate(0 1 -45)"><path d="M-1.18 1.11 C-0.84 -14.19, 0.49 -76.11, 1.09 -91.16 M0.4 0.65 C1.2 -14.61, 3.08 -74.93, 3.32 -90.24" stroke="#e03131" stroke-width="2" fill="none"></path></g><g transform="translate(1105.6666666666656 433.7142857142853) rotate(0 1 -45)"><path d="M11.28 -66.54 C11.25 -73.35, 5.71 -76.37, 3.32 -90.24 M11.28 -66.54 C7.32 -75.98, 4.36 -83.79, 3.32 -90.24" stroke="#e03131" stroke-width="2" fill="none"></path></g><g transform="translate(1105.6666666666656 433.7142857142853) rotate(0 1 -45)"><path d="M-5.81 -66.96 C-2.07 -73.52, -3.85 -76.44, 3.32 -90.24 M-5.81 -66.96 C-3.54 -76.2, -0.27 -83.86, 3.32 -90.24" stroke="#e03131" stroke-width="2" fill="none"></path></g></g><mask id="mask-IgQrFILUta5MelIGpNwzF"><rect x="0" y="0" fill="#fff" width="1207.6666666666656" height="623.7142857142853"></rect><rect x="1078.9667201332995" y="376.2142857142853" fill="#000" width="55.399893066732886" height="25" opacity="1"></rect></mask><g transform="translate(1078.966720133299 376.2142857142853) rotate(0 27.772338197290992 12.474538581073261)"><text x="27.699946533366443" y="17.52" font-family="Virgil, Segoe UI Emoji" font-size="20px" fill="#e03131" text-anchor="middle" style="white-space: pre;" direction="ltr" dominant-baseline="alphabetic">start</text></g><g mask="url(#mask-y0OwtheQJM8buqaa2QCFb)" stroke-linecap="round"><g transform="translate(1705.6666666666656 428.7142857142853) rotate(0 1 -45)"><path d="M-1.14 1.05 C-0.72 -13.72, 2.31 -74.63, 2.99 -89.62 M0.46 0.56 C0.76 -14.5, 2.19 -76.35, 2.56 -91.55" stroke="#e03131" stroke-width="2" fill="none"></path></g><g transform="translate(1705.6666666666656 428.7142857142853) rotate(0 1 -45)"><path d="M10.56 -67.86 C9.79 -74.33, 5.96 -82.44, 2.56 -91.55 M10.56 -67.86 C7.83 -76.97, 3.59 -86.69, 2.56 -91.55" stroke="#e03131" stroke-width="2" fill="none"></path></g><g transform="translate(1705.6666666666656 428.7142857142853) rotate(0 1 -45)"><path d="M-6.54 -68.26 C-1.5 -74.43, 0.47 -82.41, 2.56 -91.55 M-6.54 -68.26 C-2.54 -77.23, -0.06 -86.8, 2.56 -91.55" stroke="#e03131" stroke-width="2" fill="none"></path></g></g><mask id="mask-y0OwtheQJM8buqaa2QCFb"><rect x="0" y="0" fill="#fff" width="1807.6666666666656" height="618.7142857142853"></rect><rect x="1678.9667201332995" y="371.2142857142853" fill="#000" width="55.399893066732886" height="25" opacity="1"></rect></mask><g transform="translate(1678.966720133299 371.2142857142853) rotate(0 27.62344332061639 12.251064091599574)"><text x="27.699946533366443" y="17.52" font-family="Virgil, Segoe UI Emoji" font-size="20px" fill="#e03131" text-anchor="middle" style="white-space: pre;" direction="ltr" dominant-baseline="alphabetic">start</text></g><g mask="url(#mask-XLmGjwaQCXDSMTcG46uYP)" stroke-linecap="round"><g transform="translate(2296.6666666666647 428.7142857142853) rotate(0 1 -45)"><path d="M0.91 -0.74 C1.13 -15.89, 1.08 -75.46, 1.38 -90.29 M-0.06 1.49 C0.55 -13.53, 3.36 -73.95, 3.76 -88.91" stroke="#e03131" stroke-width="2" fill="none"></path></g><g transform="translate(2296.6666666666647 428.7142857142853) rotate(0 1 -45)"><path d="M11.41 -65.11 C7.73 -73.35, 6.14 -78.39, 3.76 -88.91 M11.41 -65.11 C8.84 -73.79, 5.41 -80.07, 3.76 -88.91" stroke="#e03131" stroke-width="2" fill="none"></path></g><g transform="translate(2296.6666666666647 428.7142857142853) rotate(0 1 -45)"><path d="M-5.68 -65.76 C-4.14 -73.93, -0.52 -78.77, 3.76 -88.91 M-5.68 -65.76 C-2.73 -74.07, -0.65 -80.14, 3.76 -88.91" stroke="#e03131" stroke-width="2" fill="none"></path></g></g><mask id="mask-XLmGjwaQCXDSMTcG46uYP"><rect x="0" y="0" fill="#fff" width="2398.6666666666647" height="618.7142857142853"></rect><rect x="2269.9667201332986" y="371.2142857142853" fill="#000" width="55.399893066732886" height="25" opacity="1"></rect></mask><g transform="translate(2269.966720133298 371.2142857142853) rotate(0 28.547359071420033 13.098140611140991)"><text x="27.699946533366443" y="17.52" font-family="Virgil, Segoe UI Emoji" font-size="20px" fill="#e03131" text-anchor="middle" style="white-space: pre;" direction="ltr" dominant-baseline="alphabetic">start</text></g><g mask="url(#mask-VcS1Rm-beeczdasrKDGDA)" stroke-linecap="round"><g transform="translate(2886.3333333333308 432.38095238095207) rotate(0 1 -45)"><path d="M0.84 0.07 C1.37 -15.24, 2.09 -75.94, 2.45 -91.12 M-0.18 -0.94 C0.3 -16.21, 1.25 -75.3, 1.74 -90.17" stroke="#e03131" stroke-width="2" fill="none"></path></g><g transform="translate(2886.3333333333308 432.38095238095207) rotate(0 1 -45)"><path d="M9.74 -66.48 C7.8 -71.31, 3.92 -76, 1.74 -90.17 M9.74 -66.48 C7.24 -70.85, 6.19 -76.03, 1.74 -90.17" stroke="#e03131" stroke-width="2" fill="none"></path></g><g transform="translate(2886.3333333333308 432.38095238095207) rotate(0 1 -45)"><path d="M-7.36 -66.89 C-5.23 -71.73, -5.04 -76.33, 1.74 -90.17 M-7.36 -66.89 C-6.14 -71.11, -3.48 -76.2, 1.74 -90.17" stroke="#e03131" stroke-width="2" fill="none"></path></g></g><mask id="mask-VcS1Rm-beeczdasrKDGDA"><rect x="0" y="0" fill="#fff" width="2988.3333333333308" height="622.3809523809521"></rect><rect x="2859.6333867999647" y="374.88095238095207" fill="#000" width="55.399893066732886" height="25" opacity="1"></rect></mask><g transform="translate(2859.6333867999647 374.88095238095207) rotate(0 27.837924158744954 11.973239286243881)"><text x="27.699946533366443" y="17.52" font-family="Virgil, Segoe UI Emoji" font-size="20px" fill="#e03131" text-anchor="middle" style="white-space: pre;" direction="ltr" dominant-baseline="alphabetic">start</text></g><g stroke-linecap="round"><g transform="translate(497.33333333333303 295.0476190476186) rotate(0 -0.5 -83)"><path d="M-0.78 -1.16 C-0.93 -28.9, -1.62 -138.2, -1.8 -165.61 M1.01 0.85 C1.32 -27.34, 0.57 -139.43, 0.49 -167.53" stroke="#1e1e1e" stroke-width="2" fill="none"></path></g><g transform="translate(497.33333333333303 295.0476190476186) rotate(0 -0.5 -83)"><path d="M9.15 -144.08 C5.09 -150.8, 5.7 -156.3, 0.49 -167.53 M9.15 -144.08 C6.48 -152.05, 3.67 -159.79, 0.49 -167.53" stroke="#1e1e1e" stroke-width="2" fill="none"></path></g><g transform="translate(497.33333333333303 295.0476190476186) rotate(0 -0.5 -83)"><path d="M-7.95 -144 C-8.13 -150.63, -3.63 -156.15, 0.49 -167.53 M-7.95 -144 C-4.92 -151.84, -2.04 -159.62, 0.49 -167.53" stroke="#1e1e1e" stroke-width="2" fill="none"></path></g></g><mask></mask><g stroke-linecap="round"><g transform="translate(1101.6666666666656 291.7142857142853) rotate(0 -0.5 -83)"><path d="M-0.91 -1.16 C-0.81 -28.89, -0.69 -137.7, -0.59 -165.23 M0.81 0.84 C0.89 -26.71, -1.06 -139.27, -1.32 -166.94" stroke="#1e1e1e" stroke-width="2" fill="none"></path></g><g transform="translate(1101.6666666666656 291.7142857142853) rotate(0 -0.5 -83)"><path d="M7.55 -143.57 C3.61 -147.66, 5.05 -151.92, -1.32 -166.94 M7.55 -143.57 C4.37 -149.94, 3.68 -156.46, -1.32 -166.94" stroke="#1e1e1e" stroke-width="2" fill="none"></path></g><g transform="translate(1101.6666666666656 291.7142857142853) rotate(0 -0.5 -83)"><path d="M-9.55 -143.33 C-10.04 -147.34, -5.15 -151.65, -1.32 -166.94 M-9.55 -143.33 C-8.08 -149.63, -4.13 -156.22, -1.32 -166.94" stroke="#1e1e1e" stroke-width="2" fill="none"></path></g></g><mask></mask><g stroke-linecap="round"><g transform="translate(1701.6666666666656 286.7142857142853) rotate(0 -0.5 -83)"><path d="M0.99 0.38 C1.17 -27.28, 0.45 -137.17, -0.05 -164.88 M0.05 -0.47 C0.26 -27.92, -0.56 -139.08, -0.5 -166.42" stroke="#1e1e1e" stroke-width="2" fill="none"></path></g><g transform="translate(1701.6666666666656 286.7142857142853) rotate(0 -0.5 -83)"><path d="M8.12 -142.95 C6.78 -146.11, 6.25 -154.15, -0.5 -166.42 M8.12 -142.95 C4.52 -150.41, 3.56 -156.78, -0.5 -166.42" stroke="#1e1e1e" stroke-width="2" fill="none"></path></g><g transform="translate(1701.6666666666656 286.7142857142853) rotate(0 -0.5 -83)"><path d="M-8.98 -142.9 C-6.82 -146.2, -3.85 -154.26, -0.5 -166.42 M-8.98 -142.9 C-7.28 -150.41, -2.95 -156.79, -0.5 -166.42" stroke="#1e1e1e" stroke-width="2" fill="none"></path></g></g><mask></mask><g stroke-linecap="round"><g transform="translate(2292.6666666666647 286.7142857142853) rotate(0 -0.5 -83)"><path d="M-0.62 -0.29 C-0.83 -27.79, -0.38 -137.92, -0.29 -165.73 M1.25 -1.49 C0.87 -29.3, -0.6 -140.22, -0.86 -167.71" stroke="#1e1e1e" stroke-width="2" fill="none"></path></g><g transform="translate(2292.6666666666647 286.7142857142853) rotate(0 -0.5 -83)"><path d="M7.96 -144.32 C4.3 -151.98, 1.92 -160.42, -0.86 -167.71 M7.96 -144.32 C5.25 -148.75, 4.45 -154.28, -0.86 -167.71" stroke="#1e1e1e" stroke-width="2" fill="none"></path></g><g transform="translate(2292.6666666666647 286.7142857142853) rotate(0 -0.5 -83)"><path d="M-9.14 -144.12 C-6.36 -151.76, -2.31 -160.29, -0.86 -167.71 M-9.14 -144.12 C-8.33 -148.43, -5.61 -154, -0.86 -167.71" stroke="#1e1e1e" stroke-width="2" fill="none"></path></g></g><mask></mask><g stroke-linecap="round"><g transform="translate(2882.3333333333308 290.38095238095207) rotate(0 -0.5 -83)"><path d="M0.45 -1.12 C0.32 -28.96, 0.29 -139.45, 0.01 -166.99 M-0.77 0.91 C-1.05 -26.83, -0.18 -138.28, -0.4 -165.98" stroke="#1e1e1e" stroke-width="2" fill="none"></path></g><g transform="translate(2882.3333333333308 290.38095238095207) rotate(0 -0.5 -83)"><path d="M8.13 -142.48 C3.09 -149.45, 0.15 -160.19, -0.4 -165.98 M8.13 -142.48 C5.91 -147.93, 4.45 -154.02, -0.4 -165.98" stroke="#1e1e1e" stroke-width="2" fill="none"></path></g><g transform="translate(2882.3333333333308 290.38095238095207) rotate(0 -0.5 -83)"><path d="M-8.97 -142.49 C-7.68 -149.52, -4.3 -160.26, -0.4 -165.98 M-8.97 -142.49 C-6.6 -148.08, -3.48 -154.17, -0.4 -165.98" stroke="#1e1e1e" stroke-width="2" fill="none"></path></g></g><mask></mask><g stroke-linecap="round"><g transform="translate(440.33333333333303 77.04761904761858) rotate(0 -151.5 1)"><path d="M-0.88 0.56 C-51.33 1.17, -251.65 2.61, -301.88 2.99 M0.86 -0.18 C-49.72 0.15, -251.66 1.2, -302.24 1.38" stroke="#1e1e1e" stroke-width="2" fill="none"></path></g><g transform="translate(440.33333333333303 77.04761904761858) rotate(0 -151.5 1)"><path d="M-278.79 -7.28 C-286.49 -2.41, -294.38 0.15, -302.24 1.38 M-278.79 -7.28 C-288.31 -3.94, -295.55 -1.82, -302.24 1.38" stroke="#1e1e1e" stroke-width="2" fill="none"></path></g><g transform="translate(440.33333333333303 77.04761904761858) rotate(0 -151.5 1)"><path d="M-278.71 9.83 C-286.35 8.42, -294.26 4.72, -302.24 1.38 M-278.71 9.83 C-288.15 6.85, -295.41 2.64, -302.24 1.38" stroke="#1e1e1e" stroke-width="2" fill="none"></path></g></g><mask></mask><g stroke-linecap="round"><g transform="translate(1044.6666666666656 73.71428571428532) rotate(0 -151.5 1)"><path d="M-1.16 0.41 C-51.72 1.01, -251.86 2.61, -302.23 2.69 M0.43 -0.41 C-50.32 -0.08, -251.98 0.58, -302.77 0.92" stroke="#1e1e1e" stroke-width="2" fill="none"></path></g><g transform="translate(1044.6666666666656 73.71428571428532) rotate(0 -151.5 1)"><path d="M-279.32 -7.74 C-287.9 -3.27, -296.66 -1.73, -302.77 0.92 M-279.32 -7.74 C-284.19 -5.45, -289.22 -3.56, -302.77 0.92" stroke="#1e1e1e" stroke-width="2" fill="none"></path></g><g transform="translate(1044.6666666666656 73.71428571428532) rotate(0 -151.5 1)"><path d="M-279.23 9.36 C-287.72 7.11, -296.51 1.94, -302.77 0.92 M-279.23 9.36 C-283.99 8.11, -289.04 6.46, -302.77 0.92" stroke="#1e1e1e" stroke-width="2" fill="none"></path></g></g><mask></mask><g stroke-linecap="round"><g transform="translate(1644.6666666666656 68.71428571428532) rotate(0 -151.5 1)"><path d="M0.38 0.95 C-50.11 0.95, -251.34 0.78, -301.88 1 M-0.88 0.4 C-51.52 0.43, -251.79 1.46, -302.24 2.02" stroke="#1e1e1e" stroke-width="2" fill="none"></path></g><g transform="translate(1644.6666666666656 68.71428571428532) rotate(0 -151.5 1)"><path d="M-278.81 -6.71 C-286.24 -1.39, -298.56 0.32, -302.24 2.02 M-278.81 -6.71 C-286.56 -3.27, -293.22 -0.33, -302.24 2.02" stroke="#1e1e1e" stroke-width="2" fill="none"></path></g><g transform="translate(1644.6666666666656 68.71428571428532) rotate(0 -151.5 1)"><path d="M-278.69 10.39 C-286.3 9.09, -298.67 4.17, -302.24 2.02 M-278.69 10.39 C-286.51 8.31, -293.21 5.73, -302.24 2.02" stroke="#1e1e1e" stroke-width="2" fill="none"></path></g></g><mask></mask><g stroke-linecap="round"><g transform="translate(2235.6666666666647 68.71428571428532) rotate(0 -151.5 1)"><path d="M-0.29 0.71 C-50.62 1.3, -252.09 2.69, -302.73 2.92 M1.76 0.04 C-48.64 0.36, -252.94 0.72, -303.53 1.29" stroke="#1e1e1e" stroke-width="2" fill="none"></path></g><g transform="translate(2235.6666666666647 68.71428571428532) rotate(0 -151.5 1)"><path d="M-280.09 -7.4 C-284.54 -4.93, -289.77 -5.2, -303.53 1.29 M-280.09 -7.4 C-286.93 -4.79, -294.85 -2.09, -303.53 1.29" stroke="#1e1e1e" stroke-width="2" fill="none"></path></g><g transform="translate(2235.6666666666647 68.71428571428532) rotate(0 -151.5 1)"><path d="M-279.99 9.7 C-284.37 8.09, -289.63 3.75, -303.53 1.29 M-279.99 9.7 C-286.7 7.04, -294.66 4.47, -303.53 1.29" stroke="#1e1e1e" stroke-width="2" fill="none"></path></g></g><mask></mask><g stroke-linecap="round"><g transform="translate(2825.3333333333308 72.38095238095207) rotate(0 -151.5 1)"><path d="M-1.12 1.01 C-51.8 1.24, -253.62 1.79, -303.99 1.79 M0.49 0.5 C-49.82 0.87, -251 2.99, -301.8 3.22" stroke="#1e1e1e" stroke-width="2" fill="none"></path></g><g transform="translate(2825.3333333333308 72.38095238095207) rotate(0 -151.5 1)"><path d="M-278.38 -5.52 C-283.81 -4.72, -293.01 -1.04, -301.8 3.22 M-278.38 -5.52 C-282.68 -2.92, -287.62 -2.43, -301.8 3.22" stroke="#1e1e1e" stroke-width="2" fill="none"></path></g><g transform="translate(2825.3333333333308 72.38095238095207) rotate(0 -151.5 1)"><path d="M-278.24 11.58 C-283.78 7.15, -293.02 5.61, -301.8 3.22 M-278.24 11.58 C-282.72 10.42, -287.68 7.15, -301.8 3.22" stroke="#1e1e1e" stroke-width="2" fill="none"></path></g></g><mask></mask><g stroke-linecap="round"><g transform="translate(81.33333333333303 130.04761904761858) rotate(0 0 57.5)"><path d="M-0.34 0.43 C0.05 19.5, 1.28 95.63, 1.15 114.7 M1.68 -0.39 C2.11 18.83, 0.89 96.67, 0.8 116.08" stroke="#1e1e1e" stroke-width="2" fill="none"></path></g><g transform="translate(81.33333333333303 130.04761904761858) rotate(0 0 57.5)"><path d="M-7.51 92.51 C-5.05 99.18, -4.6 100.11, 0.8 116.08 M-7.51 92.51 C-5.27 100.17, -2.95 105.94, 0.8 116.08" stroke="#1e1e1e" stroke-width="2" fill="none"></path></g><g transform="translate(81.33333333333303 130.04761904761858) rotate(0 0 57.5)"><path d="M9.59 92.68 C8.61 99.27, 5.63 100.17, 0.8 116.08 M9.59 92.68 C6.9 100.18, 4.28 105.9, 0.8 116.08" stroke="#1e1e1e" stroke-width="2" fill="none"></path></g></g><mask></mask><g stroke-linecap="round"><g transform="translate(685.6666666666661 126.71428571428532) rotate(0 0 57.5)"><path d="M0.41 0.77 C0.68 20.08, 0.94 95.78, 0.69 114.66 M-0.83 0.14 C-0.58 19.72, -0.24 96.89, 0.1 116.02" stroke="#1e1e1e" stroke-width="2" fill="none"></path></g><g transform="translate(685.6666666666661 126.71428571428532) rotate(0 0 57.5)"><path d="M-8.69 92.61 C-5.66 98.97, -5.55 101.21, 0.1 116.02 M-8.69 92.61 C-6.24 97.67, -4.2 103.02, 0.1 116.02" stroke="#1e1e1e" stroke-width="2" fill="none"></path></g><g transform="translate(685.6666666666661 126.71428571428532) rotate(0 0 57.5)"><path d="M8.41 92.44 C7.61 98.89, 3.88 101.18, 0.1 116.02 M8.41 92.44 C7.06 97.54, 5.31 102.93, 0.1 116.02" stroke="#1e1e1e" stroke-width="2" fill="none"></path></g></g><mask></mask><g stroke-linecap="round"><g transform="translate(1285.6666666666656 121.71428571428532) rotate(0 0 57.5)"><path d="M0.95 1.12 C0.62 20.24, -0.88 96.1, -1 115.12 M-0.01 0.66 C-0.07 19.97, 1.25 97.38, 1.19 116.71" stroke="#1e1e1e" stroke-width="2" fill="none"></path></g><g transform="translate(1285.6666666666656 121.71428571428532) rotate(0 0 57.5)"><path d="M-7.55 93.29 C-2.27 100.52, -0.6 111.59, 1.19 116.71 M-7.55 93.29 C-4.13 101.49, -1.21 107.41, 1.19 116.71" stroke="#1e1e1e" stroke-width="2" fill="none"></path></g><g transform="translate(1285.6666666666656 121.71428571428532) rotate(0 0 57.5)"><path d="M9.55 93.15 C8.29 100.57, 3.42 111.69, 1.19 116.71 M9.55 93.15 C7.5 101.36, 4.95 107.33, 1.19 116.71" stroke="#1e1e1e" stroke-width="2" fill="none"></path></g></g><mask></mask><g stroke-linecap="round"><g transform="translate(1876.6666666666647 121.71428571428532) rotate(0 0 57.5)"><path d="M0.71 0.27 C0.97 19.3, 1.03 94.94, 0.92 113.87 M-0.37 -0.63 C-0.14 18.53, 0.5 95.61, 0.46 114.82" stroke="#1e1e1e" stroke-width="2" fill="none"></path></g><g transform="translate(1876.6666666666647 121.71428571428532) rotate(0 0 57.5)"><path d="M-8.18 91.36 C-5.64 98.66, -5.83 103.1, 0.46 114.82 M-8.18 91.36 C-6.46 95.93, -4.65 101.63, 0.46 114.82" stroke="#1e1e1e" stroke-width="2" fill="none"></path></g><g transform="translate(1876.6666666666647 121.71428571428532) rotate(0 0 57.5)"><path d="M8.92 91.29 C7.22 98.72, 2.79 103.17, 0.46 114.82 M8.92 91.29 C7.1 95.96, 5.38 101.67, 0.46 114.82" stroke="#1e1e1e" stroke-width="2" fill="none"></path></g></g><mask></mask><g stroke-linecap="round"><g transform="translate(2466.3333333333308 125.38095238095207) rotate(0 0 57.5)"><path d="M1.01 -0.99 C0.9 18.3, 0.12 95.12, -0.21 114.62 M0.09 1.1 C-0.24 20.66, -1.49 97.12, -1.27 115.95" stroke="#1e1e1e" stroke-width="2" fill="none"></path></g><g transform="translate(2466.3333333333308 125.38095238095207) rotate(0 0 57.5)"><path d="M-9.71 92.42 C-8.74 99.95, -4.87 106.64, -1.27 115.95 M-9.71 92.42 C-5.82 102.29, -4.04 109.36, -1.27 115.95" stroke="#1e1e1e" stroke-width="2" fill="none"></path></g><g transform="translate(2466.3333333333308 125.38095238095207) rotate(0 0 57.5)"><path d="M7.39 92.5 C2.59 100.15, 0.68 106.81, -1.27 115.95 M7.39 92.5 C4.77 102.47, 0.06 109.51, -1.27 115.95" stroke="#1e1e1e" stroke-width="2" fill="none"></path></g></g><mask></mask><g mask="url(#mask-PhcAFv2Bz2RFiMLyCKoAF)" stroke-linecap="round"><g transform="translate(84.33333333333303 299.0476190476186) rotate(0 0.5 78)"><path d="M-0.16 -0.49 C0.06 25.68, 0.06 129.83, 0.18 155.84 M-1.71 -1.79 C-1.01 24.67, 2.25 130.88, 2.46 157.29" stroke="#e03131" stroke-width="2" fill="none"></path></g><g transform="translate(84.33333333333303 299.0476190476186) rotate(0 0.5 78)"><path d="M-6.58 133.98 C-5.77 137.4, -3.37 142.77, 2.46 157.29 M-6.58 133.98 C-4.37 140.1, -1.57 146.25, 2.46 157.29" stroke="#e03131" stroke-width="2" fill="none"></path></g><g transform="translate(84.33333333333303 299.0476190476186) rotate(0 0.5 78)"><path d="M10.51 133.62 C7.81 137.1, 6.7 142.53, 2.46 157.29 M10.51 133.62 C8.23 139.89, 6.53 146.14, 2.46 157.29" stroke="#e03131" stroke-width="2" fill="none"></path></g></g><mask id="mask-PhcAFv2Bz2RFiMLyCKoAF"><rect x="0" y="0" fill="#fff" width="185.33333333333303" height="555.0476190476186"></rect><rect x="69.00740021105139" y="364.5476190476186" fill="#000" width="31.651866244563568" height="25" opacity="1"></rect></mask><g transform="translate(69.00740021105139 364.5476190476186) rotate(0 15.700442618495572 12.247891739634781)"><text x="15.825933122281784" y="17.52" font-family="Virgil, Segoe UI Emoji" font-size="20px" fill="#e03131" text-anchor="middle" style="white-space: pre;" direction="ltr" dominant-baseline="alphabetic">end</text></g><g mask="url(#mask-4PCegc6e5TKmIaoEMKJG6)" stroke-linecap="round"><g transform="translate(688.6666666666661 295.7142857142853) rotate(0 0.5 78)"><path d="M0.77 0.69 C1.08 26.43, 0.78 129.19, 0.66 154.88 M-0.28 0 C-0.06 25.81, -0.93 129.92, -0.47 155.83" stroke="#e03131" stroke-width="2" fill="none"></path></g><g transform="translate(688.6666666666661 295.7142857142853) rotate(0 0.5 78)"><path d="M-9.09 132.37 C-6.12 136.51, -7.37 140.28, -0.47 155.83 M-9.09 132.37 C-7.48 137.85, -5.58 141.05, -0.47 155.83" stroke="#e03131" stroke-width="2" fill="none"></path></g><g transform="translate(688.6666666666661 295.7142857142853) rotate(0 0.5 78)"><path d="M8.01 132.32 C7.51 136.58, 2.79 140.36, -0.47 155.83 M8.01 132.32 C6.18 137.94, 4.63 141.15, -0.47 155.83" stroke="#e03131" stroke-width="2" fill="none"></path></g></g><mask id="mask-4PCegc6e5TKmIaoEMKJG6"><rect x="0" y="0" fill="#fff" width="789.6666666666661" height="551.7142857142853"></rect><rect x="673.340733544384" y="361.2142857142853" fill="#000" width="31.651866244563568" height="25" opacity="1"></rect></mask><g transform="translate(673.3407335443844 361.2142857142853) rotate(0 15.476496041732162 12.416633725864813)"><text x="15.825933122281784" y="17.52" font-family="Virgil, Segoe UI Emoji" font-size="20px" fill="#e03131" text-anchor="middle" style="white-space: pre;" direction="ltr" dominant-baseline="alphabetic">end</text></g><g mask="url(#mask-817C8cQelQ_gXYhxxWjhJ)" stroke-linecap="round"><g transform="translate(1288.6666666666656 290.7142857142853) rotate(0 0.5 78)"><path d="M1.12 -1 C1.24 24.89, 1.1 130.28, 1.12 156.27 M0.25 1.1 C0.19 26.52, 0.17 128.52, 0.23 154.29" stroke="#e03131" stroke-width="2" fill="none"></path></g><g transform="translate(1288.6666666666656 290.7142857142853) rotate(0 0.5 78)"><path d="M-8.34 130.8 C-6.98 138.7, -2.03 146.69, 0.23 154.29 M-8.34 130.8 C-5.88 136.68, -5.63 141.36, 0.23 154.29" stroke="#e03131" stroke-width="2" fill="none"></path></g><g transform="translate(1288.6666666666656 290.7142857142853) rotate(0 0.5 78)"><path d="M8.76 130.79 C4.46 138.85, 3.74 146.84, 0.23 154.29 M8.76 130.79 C7.58 136.81, 4.2 141.49, 0.23 154.29" stroke="#e03131" stroke-width="2" fill="none"></path></g></g><mask id="mask-817C8cQelQ_gXYhxxWjhJ"><rect x="0" y="0" fill="#fff" width="1389.6666666666656" height="546.7142857142853"></rect><rect x="1273.3407335443844" y="356.2142857142853" fill="#000" width="31.651866244563568" height="25" opacity="1"></rect></mask><g transform="translate(1273.340733544384 356.2142857142853) rotate(0 16.006714510301208 12.137127415835891)"><text x="15.825933122281784" y="17.52" font-family="Virgil, Segoe UI Emoji" font-size="20px" fill="#e03131" text-anchor="middle" style="white-space: pre;" direction="ltr" dominant-baseline="alphabetic">end</text></g><g mask="url(#mask-KSH6Ja58yaN8ZkLgJMqKG)" stroke-linecap="round"><g transform="translate(1879.6666666666647 290.7142857142853) rotate(0 0.5 78)"><path d="M0.27 0.92 C0.3 26.82, -0.06 130.43, -0.13 156.1 M-1.05 0.36 C-0.64 26.41, 1.45 131.79, 1.99 157.68" stroke="#e03131" stroke-width="2" fill="none"></path></g><g transform="translate(1879.6666666666647 290.7142857142853) rotate(0 0.5 78)"><path d="M-7.03 134.37 C-2.86 138.9, -1.75 145.35, 1.99 157.68 M-7.03 134.37 C-5.25 139.46, -2.49 144.36, 1.99 157.68" stroke="#e03131" stroke-width="2" fill="none"></path></g><g transform="translate(1879.6666666666647 290.7142857142853) rotate(0 0.5 78)"><path d="M10.07 134.02 C9.52 138.69, 5.91 145.23, 1.99 157.68 M10.07 134.02 C8.23 139.21, 7.36 144.19, 1.99 157.68" stroke="#e03131" stroke-width="2" fill="none"></path></g></g><mask id="mask-KSH6Ja58yaN8ZkLgJMqKG"><rect x="0" y="0" fill="#fff" width="1980.6666666666647" height="546.7142857142853"></rect><rect x="1864.3407335443835" y="356.2142857142853" fill="#000" width="31.651866244563568" height="25" opacity="1"></rect></mask><g transform="translate(1864.340733544383 356.2142857142853) rotate(0 15.799227109840558 13.524073467953144)"><text x="15.825933122281784" y="17.52" font-family="Virgil, Segoe UI Emoji" font-size="20px" fill="#e03131" text-anchor="middle" style="white-space: pre;" direction="ltr" dominant-baseline="alphabetic">end</text></g><g mask="url(#mask-EnN0-oAuFUij1LzPotSX7)" stroke-linecap="round"><g transform="translate(2469.3333333333308 294.38095238095207) rotate(0 0.5 78)"><path d="M-0.99 -0.21 C-0.7 25.46, 0.12 129.03, 0.62 155.04 M0.69 -1.37 C0.88 24.95, -0.7 129.66, -0.53 156.07" stroke="#e03131" stroke-width="2" fill="none"></path></g><g transform="translate(2469.3333333333308 294.38095238095207) rotate(0 0.5 78)"><path d="M-8.95 132.53 C-7.36 136.83, -6.88 143.94, -0.53 156.07 M-8.95 132.53 C-5.35 138.54, -4.81 146.92, -0.53 156.07" stroke="#e03131" stroke-width="2" fill="none"></path></g><g transform="translate(2469.3333333333308 294.38095238095207) rotate(0 0.5 78)"><path d="M8.15 132.63 C6.2 136.76, 3.16 143.85, -0.53 156.07 M8.15 132.63 C6.82 138.73, 2.43 147.08, -0.53 156.07" stroke="#e03131" stroke-width="2" fill="none"></path></g></g><mask id="mask-EnN0-oAuFUij1LzPotSX7"><rect x="0" y="0" fill="#fff" width="2570.3333333333308" height="550.3809523809521"></rect><rect x="2454.0074002110496" y="359.88095238095207" fill="#000" width="31.651866244563568" height="25" opacity="1"></rect></mask><g transform="translate(2454.007400211049 359.88095238095207) rotate(0 15.181008830684277 11.852661768225971)"><text x="15.825933122281784" y="17.52" font-family="Virgil, Segoe UI Emoji" font-size="20px" fill="#e03131" text-anchor="middle" style="white-space: pre;" direction="ltr" dominant-baseline="alphabetic">end</text></g><g stroke-linecap="round" transform="translate(327.33333333333303 211.04761904761858) rotate(0 5.5 5)"><path d="M6.68 0.06 C7.85 0.17, 9.11 0.85, 9.8 1.68 C10.49 2.51, 10.78 3.87, 10.8 5.04 C10.81 6.21, 10.62 7.83, 9.9 8.68 C9.18 9.54, 7.75 10.08, 6.5 10.18 C5.25 10.29, 3.37 9.87, 2.39 9.3 C1.42 8.72, 0.99 7.71, 0.65 6.75 C0.31 5.79, 0.02 4.54, 0.34 3.54 C0.67 2.55, 1.59 1.3, 2.6 0.78 C3.61 0.26, 5.7 0.5, 6.4 0.43 C7.11 0.37, 6.84 0.34, 6.83 0.38 M4.45 -0.04 C5.6 -0.41, 7.56 -0.2, 8.6 0.34 C9.64 0.89, 10.42 2.24, 10.67 3.25 C10.91 4.27, 10.45 5.31, 10.09 6.43 C9.73 7.55, 9.45 9.31, 8.49 9.97 C7.54 10.63, 5.66 10.71, 4.36 10.39 C3.05 10.07, 1.35 8.93, 0.65 8.07 C-0.04 7.22, 0.12 6.26, 0.2 5.25 C0.27 4.24, 0.36 2.98, 1.09 2 C1.81 1.03, 3.95 -0.39, 4.55 -0.62 C5.15 -0.85, 4.58 0.42, 4.68 0.64" stroke="none" stroke-width="0" fill="#ffffff"></path><path d="M5.25 -0.1 C6.32 -0.22, 7.84 0.11, 8.75 0.86 C9.66 1.61, 10.37 3.33, 10.7 4.41 C11.03 5.49, 11.2 6.41, 10.72 7.35 C10.25 8.29, 8.98 9.68, 7.84 10.06 C6.69 10.44, 5.11 10.01, 3.87 9.64 C2.63 9.27, 0.96 8.7, 0.41 7.86 C-0.15 7.02, 0.31 5.77, 0.54 4.6 C0.77 3.43, 0.93 1.55, 1.77 0.83 C2.61 0.11, 4.98 0.39, 5.57 0.3 C6.17 0.22, 5.42 0.3, 5.36 0.33 M4.4 -0.02 C5.48 -0.14, 7.7 0.18, 8.7 0.64 C9.69 1.11, 10.11 1.64, 10.37 2.77 C10.63 3.9, 10.65 6.31, 10.25 7.42 C9.85 8.52, 8.99 9.07, 7.98 9.41 C6.96 9.74, 5.41 9.67, 4.17 9.42 C2.93 9.17, 1.27 8.72, 0.51 7.9 C-0.25 7.08, -0.62 5.56, -0.39 4.51 C-0.15 3.45, 1.09 2.36, 1.94 1.57 C2.79 0.77, 4.17 -0.09, 4.72 -0.26 C5.27 -0.43, 5.34 0.35, 5.23 0.54" stroke="#e03131" stroke-width="2" fill="none"></path></g><g stroke-linecap="round" transform="translate(931.9999999999995 202.71428571428532) rotate(0 5.5 5)"><path d="M6.07 -0.36 C7.18 -0.4, 8.7 0.71, 9.47 1.52 C10.25 2.33, 10.59 3.5, 10.73 4.52 C10.86 5.54, 10.91 6.82, 10.29 7.66 C9.68 8.5, 8.15 9.24, 7.03 9.58 C5.9 9.92, 4.69 10.11, 3.56 9.7 C2.43 9.29, 0.86 8.06, 0.23 7.11 C-0.39 6.17, -0.55 5.1, -0.18 4.02 C0.2 2.95, 1.56 1.33, 2.49 0.66 C3.42 -0.01, 4.87 0.05, 5.42 -0.01 C5.96 -0.06, 5.76 0.23, 5.75 0.33 M6.38 0.46 C7.46 0.53, 8.29 0.54, 9.13 1.2 C9.97 1.85, 11.19 3.09, 11.4 4.39 C11.62 5.68, 11.19 8.11, 10.42 8.96 C9.65 9.8, 7.96 9.35, 6.78 9.46 C5.61 9.57, 4.37 10.02, 3.36 9.61 C2.34 9.21, 1.27 8.14, 0.69 7.02 C0.1 5.9, -0.46 3.93, -0.13 2.88 C0.2 1.83, 1.61 1.12, 2.66 0.73 C3.71 0.35, 5.49 0.62, 6.17 0.57 C6.85 0.53, 6.83 0.4, 6.76 0.47" stroke="none" stroke-width="0" fill="#ffffff"></path><path d="M6.77 0.47 C7.83 0.51, 8.85 0.83, 9.51 1.54 C10.16 2.25, 10.66 3.64, 10.71 4.73 C10.77 5.82, 10.63 7.17, 9.85 8.08 C9.07 8.99, 7.29 9.98, 6.03 10.18 C4.77 10.39, 3.22 9.97, 2.29 9.31 C1.35 8.64, 0.68 7.18, 0.42 6.19 C0.16 5.19, 0.29 4.22, 0.74 3.34 C1.19 2.45, 2.09 1.38, 3.13 0.88 C4.16 0.37, 6.33 0.37, 6.95 0.32 C7.57 0.27, 6.8 0.46, 6.84 0.58 M5.73 -0.34 C6.94 -0.45, 7.91 0.06, 8.82 0.62 C9.74 1.18, 10.84 2.07, 11.2 3.03 C11.55 3.99, 11.54 5.41, 10.96 6.38 C10.37 7.35, 8.76 8.18, 7.69 8.86 C6.62 9.54, 5.69 10.54, 4.53 10.46 C3.38 10.37, 1.42 9.2, 0.77 8.32 C0.12 7.45, 0.54 6.45, 0.63 5.2 C0.73 3.94, 0.52 1.75, 1.32 0.8 C2.11 -0.15, 4.84 -0.48, 5.4 -0.52 C5.97 -0.55, 4.85 0.3, 4.73 0.59" stroke="#e03131" stroke-width="2" fill="none"></path></g><g stroke-linecap="round" transform="translate(1544.9999999999986 197.71428571428532) rotate(0 5.5 5)"><path d="M6.61 0.54 C7.59 0.74, 8.4 1.11, 9.21 1.9 C10.01 2.7, 11.34 4.3, 11.43 5.32 C11.51 6.35, 10.58 7.3, 9.71 8.05 C8.84 8.79, 7.32 9.49, 6.22 9.79 C5.12 10.08, 4.07 10.31, 3.1 9.83 C2.13 9.34, 0.79 7.95, 0.4 6.86 C0 5.77, 0.4 4.25, 0.73 3.31 C1.06 2.36, 1.33 1.76, 2.38 1.17 C3.42 0.58, 6.26 -0.02, 7 -0.23 C7.74 -0.44, 6.98 -0.24, 6.82 -0.08 M5.28 -0.3 C6.4 -0.67, 7.19 -0.57, 8.15 0.11 C9.11 0.8, 10.56 2.63, 11.05 3.81 C11.55 4.98, 11.58 6.15, 11.15 7.15 C10.71 8.15, 9.48 9.28, 8.44 9.79 C7.4 10.3, 6.05 10.41, 4.91 10.23 C3.78 10.05, 2.44 9.55, 1.63 8.71 C0.82 7.87, -0.01 6.43, 0.05 5.18 C0.11 3.92, 1.07 2.04, 1.99 1.17 C2.92 0.3, 4.99 0.15, 5.58 -0.04 C6.18 -0.23, 5.57 -0.06, 5.57 0.02" stroke="none" stroke-width="0" fill="#ffffff"></path><path d="M4.63 -0.3 C5.66 -0.5, 6.73 0.34, 7.67 0.9 C8.62 1.47, 9.85 2.11, 10.3 3.08 C10.74 4.05, 10.64 5.71, 10.35 6.7 C10.06 7.69, 9.43 8.43, 8.56 9.01 C7.69 9.6, 6.25 10.3, 5.12 10.22 C3.99 10.14, 2.71 9.45, 1.79 8.54 C0.86 7.63, -0.23 5.79, -0.4 4.77 C-0.58 3.75, -0.17 3.15, 0.74 2.43 C1.64 1.71, 4.29 0.89, 5.04 0.43 C5.8 -0.03, 5.27 -0.45, 5.25 -0.36 M5.52 -0.2 C6.63 -0.17, 8.91 1.01, 9.89 1.91 C10.87 2.81, 11.38 4.17, 11.39 5.21 C11.4 6.25, 10.76 7.35, 9.95 8.15 C9.13 8.96, 7.57 9.79, 6.49 10.03 C5.41 10.27, 4.5 9.97, 3.45 9.6 C2.41 9.22, 0.72 8.72, 0.22 7.8 C-0.28 6.87, 0.21 5.17, 0.46 4.05 C0.71 2.93, 0.71 1.68, 1.72 1.08 C2.72 0.49, 5.7 0.65, 6.5 0.49 C7.29 0.34, 6.48 0.13, 6.48 0.14" stroke="#e03131" stroke-width="2" fill="none"></path></g><g stroke-linecap="round" transform="translate(2135.9999999999977 197.71428571428532) rotate(0 5.5 5)"><path d="M7.04 0.53 C8.08 0.67, 9.03 1.47, 9.73 2.24 C10.44 3.01, 11.25 4.13, 11.27 5.16 C11.3 6.19, 10.79 7.55, 9.88 8.42 C8.96 9.28, 7.02 10.15, 5.79 10.36 C4.56 10.56, 3.37 10.36, 2.53 9.65 C1.68 8.93, 0.99 7.2, 0.7 6.05 C0.42 4.89, 0.38 3.55, 0.81 2.7 C1.23 1.86, 2.19 1.4, 3.23 0.97 C4.27 0.54, 6.5 0.22, 7.05 0.14 C7.6 0.07, 6.51 0.39, 6.53 0.5 M6.3 0.62 C7.32 0.67, 8.95 1.22, 9.72 1.97 C10.48 2.71, 10.82 4.13, 10.88 5.09 C10.94 6.05, 10.72 6.89, 10.09 7.74 C9.46 8.59, 8.28 9.94, 7.1 10.19 C5.92 10.44, 4.15 9.77, 3.01 9.25 C1.86 8.72, 0.6 8.13, 0.24 7.05 C-0.11 5.98, 0.55 3.88, 0.89 2.79 C1.23 1.7, 1.32 0.93, 2.28 0.49 C3.23 0.04, 5.87 0.06, 6.63 0.12 C7.39 0.18, 6.97 0.8, 6.85 0.86" stroke="none" stroke-width="0" fill="#ffffff"></path><path d="M4.3 0.02 C5.46 -0.27, 7 0.28, 8.05 0.84 C9.1 1.4, 10.16 2.39, 10.61 3.38 C11.06 4.37, 11.12 5.73, 10.75 6.77 C10.39 7.82, 9.49 9.06, 8.43 9.63 C7.37 10.2, 5.59 10.4, 4.39 10.19 C3.19 9.98, 1.93 9.17, 1.23 8.37 C0.53 7.57, 0.23 6.48, 0.18 5.4 C0.14 4.32, 0.3 2.69, 0.94 1.88 C1.57 1.07, 3.43 0.9, 4.01 0.54 C4.58 0.18, 4.33 -0.26, 4.38 -0.26 M6.06 -0.42 C7.26 -0.22, 9.09 1.07, 9.84 1.93 C10.59 2.78, 10.67 3.66, 10.57 4.72 C10.48 5.78, 10.03 7.41, 9.27 8.28 C8.51 9.14, 7.26 9.63, 6.02 9.9 C4.79 10.16, 2.83 10.41, 1.84 9.88 C0.84 9.35, 0.33 7.74, 0.06 6.73 C-0.21 5.72, -0.22 4.83, 0.23 3.82 C0.68 2.81, 1.7 1.22, 2.75 0.67 C3.8 0.13, 5.81 0.66, 6.53 0.54 C7.25 0.43, 7.09 -0.12, 7.07 -0.03" stroke="#e03131" stroke-width="2" fill="none"></path></g><g stroke-linecap="round" transform="translate(2725.666666666664 201.38095238095207) rotate(0 5.5 5)"><path d="M6.09 -0.29 C7.15 -0.27, 8.66 0.52, 9.4 1.33 C10.14 2.13, 10.48 3.52, 10.53 4.53 C10.58 5.55, 10.24 6.59, 9.7 7.44 C9.17 8.29, 8.41 9.3, 7.31 9.64 C6.22 9.97, 4.34 9.89, 3.15 9.43 C1.96 8.97, 0.67 7.9, 0.16 6.9 C-0.34 5.89, -0.26 4.44, 0.1 3.38 C0.46 2.31, 1.28 1.06, 2.32 0.52 C3.37 -0.02, 5.79 0.25, 6.36 0.13 C6.93 0.01, 5.88 -0.29, 5.77 -0.22 M6.12 0.27 C7.23 0.19, 8.86 0.22, 9.76 1 C10.66 1.79, 11.39 3.8, 11.51 4.98 C11.63 6.15, 11.26 7.36, 10.48 8.05 C9.7 8.74, 7.93 8.8, 6.82 9.11 C5.72 9.42, 4.86 10.24, 3.85 9.92 C2.83 9.61, 1.37 8.24, 0.73 7.23 C0.09 6.22, -0.18 4.84, 0.01 3.87 C0.19 2.9, 0.79 2.05, 1.84 1.42 C2.89 0.78, 5.49 0.24, 6.28 0.06 C7.08 -0.12, 6.65 0.34, 6.63 0.37" stroke="none" stroke-width="0" fill="#ffffff"></path><path d="M6.95 0.59 C8.01 0.6, 8.7 0.67, 9.44 1.44 C10.19 2.21, 11.46 4.1, 11.43 5.23 C11.41 6.37, 10.14 7.52, 9.27 8.25 C8.4 8.98, 7.32 9.4, 6.2 9.63 C5.07 9.86, 3.51 10.14, 2.52 9.62 C1.54 9.1, 0.72 7.6, 0.3 6.5 C-0.13 5.4, -0.53 4.04, -0.03 3.01 C0.47 1.97, 2.14 0.83, 3.3 0.29 C4.46 -0.24, 6.34 -0.24, 6.92 -0.23 C7.5 -0.22, 6.91 0.18, 6.78 0.37 M5.66 -0.74 C6.76 -0.83, 7.18 -0.04, 8.01 0.62 C8.84 1.28, 10.27 2.22, 10.62 3.22 C10.97 4.23, 10.64 5.53, 10.12 6.64 C9.61 7.75, 8.48 9.35, 7.54 9.89 C6.61 10.44, 5.68 10.36, 4.53 9.91 C3.37 9.45, 1.24 7.99, 0.6 7.16 C-0.03 6.32, 0.5 5.77, 0.72 4.88 C0.93 3.99, 1.02 2.7, 1.88 1.81 C2.73 0.93, 5.38 -0.18, 5.85 -0.43 C6.31 -0.67, 4.79 0.16, 4.69 0.35" stroke="#e03131" stroke-width="2" fill="none"></path></g><g mask="url(#mask-yBbDYb63QiPjklnu9bs_t)" stroke-linecap="round"><g transform="translate(302.33333333333303 219.04761904761858) rotate(0 -26.333333333333485 -2.8333333333333712)"><path d="M-0.91 0.67 C-9.56 -0.09, -42.86 -3.55, -51.53 -4.76 M0.81 -0.03 C-7.93 -1.09, -42.77 -5.45, -51.88 -6.41" stroke="#e03131" stroke-width="2" fill="none"></path></g><g transform="translate(302.33333333333303 219.04761904761858) rotate(0 -26.333333333333485 -2.8333333333333712)"><path d="M-50.15 -21.31 C-49.91 -14.97, -50.2 -11.82, -51.88 -6.41 M-50.15 -21.31 C-51.04 -17.69, -51.38 -14.84, -51.88 -6.41" stroke="#e03131" stroke-width="2" fill="none"></path></g><g transform="translate(302.33333333333303 219.04761904761858) rotate(0 -26.333333333333485 -2.8333333333333712)"><path d="M-53.62 8.49 C-52.18 4.98, -51.32 -1.73, -51.88 -6.41 M-53.62 8.49 C-53.76 5.53, -53.34 1.83, -51.88 -6.41" stroke="#e03131" stroke-width="2" fill="none"></path></g></g><mask id="mask-yBbDYb63QiPjklnu9bs_t"><rect x="0" y="0" fill="#fff" width="455" height="324.7142857142853"></rect><rect x="264.9679860540541" y="198.7142857142851" fill="#000" width="22.064027891890696" height="35" opacity="1"></rect></mask><g transform="translate(264.9679860540541 198.7142857142851) rotate(0 11.83022120226451 17.460169139145933)"><text x="11.032013945945348" y="24.528" font-family="Virgil, Segoe UI Emoji" font-size="28px" fill="#e03131" text-anchor="middle" style="white-space: pre;" direction="ltr" dominant-baseline="alphabetic">di</text></g><g mask="url(#mask-mMv1Hp6x0p7b-5kybCqwe)" stroke-linecap="round"><g transform="translate(906.9999999999995 210.71428571428532) rotate(0 -26.333333333333485 -2.8333333333333712)"><path d="M0.88 0.93 C-7.96 -0.02, -43.76 -4.18, -52.6 -5.13 M-0.12 0.37 C-9.15 -0.98, -44.75 -5.8, -53.51 -6.97" stroke="#e03131" stroke-width="2" fill="none"></path></g><g transform="translate(906.9999999999995 210.71428571428532) rotate(0 -26.333333333333485 -2.8333333333333712)"><path d="M-51.51 -21.84 C-50.95 -16.77, -52.11 -11.26, -53.51 -6.97 M-51.51 -21.84 C-52.77 -16.83, -52.78 -11.02, -53.51 -6.97" stroke="#e03131" stroke-width="2" fill="none"></path></g><g transform="translate(906.9999999999995 210.71428571428532) rotate(0 -26.333333333333485 -2.8333333333333712)"><path d="M-55.51 7.89 C-53.75 3, -53.57 -1.42, -53.51 -6.97 M-55.51 7.89 C-55.11 1.78, -53.62 -3.55, -53.51 -6.97" stroke="#e03131" stroke-width="2" fill="none"></path></g></g><mask id="mask-mMv1Hp6x0p7b-5kybCqwe"><rect x="0" y="0" fill="#fff" width="1059.6666666666665" height="316.38095238095207"></rect><rect x="869.6346527207206" y="190.38095238095207" fill="#000" width="22.064027891890696" height="35" opacity="1"></rect></mask><g transform="translate(869.6346527207206 190.38095238095207) rotate(0 11.048174417520386 17.312123368023776)"><text x="11.032013945945348" y="24.528" font-family="Virgil, Segoe UI Emoji" font-size="28px" fill="#e03131" text-anchor="middle" style="white-space: pre;" direction="ltr" dominant-baseline="alphabetic">di</text></g><g mask="url(#mask-CEbWpwQd0ZOb88UPKNCYY)" stroke-linecap="round"><g transform="translate(1519.9999999999986 205.71428571428532) rotate(0 -26.333333333333485 -2.8333333333333712)"><path d="M0.55 -1.08 C-8.27 -2.14, -44.06 -5.16, -52.79 -6.1 M-0.61 0.96 C-9.62 0.04, -45.21 -3.64, -53.8 -4.79" stroke="#e03131" stroke-width="2" fill="none"></path></g><g transform="translate(1519.9999999999986 205.71428571428532) rotate(0 -26.333333333333485 -2.8333333333333712)"><path d="M-52.07 -19.69 C-53.93 -15.16, -53.66 -9.26, -53.8 -4.79 M-52.07 -19.69 C-52.94 -16.43, -53.52 -12.91, -53.8 -4.79" stroke="#e03131" stroke-width="2" fill="none"></path></g><g transform="translate(1519.9999999999986 205.71428571428532) rotate(0 -26.333333333333485 -2.8333333333333712)"><path d="M-55.52 10.11 C-56.37 5.29, -55.01 1.85, -53.8 -4.79 M-55.52 10.11 C-55.46 6.94, -55.29 4.04, -53.8 -4.79" stroke="#e03131" stroke-width="2" fill="none"></path></g></g><mask id="mask-CEbWpwQd0ZOb88UPKNCYY"><rect x="0" y="0" fill="#fff" width="1672.6666666666656" height="311.38095238095207"></rect><rect x="1482.6346527207197" y="185.38095238095207" fill="#000" width="22.064027891890696" height="35" opacity="1"></rect></mask><g transform="translate(1482.6346527207206 185.38095238095207) rotate(0 10.744263300800412 17.765894173472134)"><text x="11.032013945945348" y="24.528" font-family="Virgil, Segoe UI Emoji" font-size="28px" fill="#e03131" text-anchor="middle" style="white-space: pre;" direction="ltr" dominant-baseline="alphabetic">di</text></g><g mask="url(#mask-IKdcPLTZ-ufk1134WHQxq)" stroke-linecap="round"><g transform="translate(2110.9999999999977 205.71428571428532) rotate(0 -26.333333333333485 -2.8333333333333712)"><path d="M0.1 -1.12 C-9.01 -1.78, -44.96 -4.3, -53.72 -5.11 M-1.31 0.91 C-10.14 -0.01, -42.92 -5.99, -51.56 -6.93" stroke="#e03131" stroke-width="2" fill="none"></path></g><g transform="translate(2110.9999999999977 205.71428571428532) rotate(0 -26.333333333333485 -2.8333333333333712)"><path d="M-49.35 -21.77 C-51.72 -17.5, -50.46 -10.37, -51.56 -6.93 M-49.35 -21.77 C-49.85 -17.13, -50.57 -13.05, -51.56 -6.93" stroke="#e03131" stroke-width="2" fill="none"></path></g><g transform="translate(2110.9999999999977 205.71428571428532) rotate(0 -26.333333333333485 -2.8333333333333712)"><path d="M-53.78 7.9 C-54.2 0.99, -51.27 -3.08, -51.56 -6.93 M-53.78 7.9 C-53.1 4.33, -52.6 0.21, -51.56 -6.93" stroke="#e03131" stroke-width="2" fill="none"></path></g></g><mask id="mask-IKdcPLTZ-ufk1134WHQxq"><rect x="0" y="0" fill="#fff" width="2263.6666666666647" height="311.38095238095207"></rect><rect x="2073.634652720719" y="185.38095238095207" fill="#000" width="22.064027891890696" height="35" opacity="1"></rect></mask><g transform="translate(2073.634652720719 185.38095238095207) rotate(0 10.552266705700276 17.32038398149416)"><text x="11.032013945945348" y="24.528" font-family="Virgil, Segoe UI Emoji" font-size="28px" fill="#e03131" text-anchor="middle" style="white-space: pre;" direction="ltr" dominant-baseline="alphabetic">di</text></g><g mask="url(#mask-UM5JZY1iBKnUXB3oD10VQ)" stroke-linecap="round"><g transform="translate(2700.666666666664 209.38095238095207) rotate(0 -104.66666666666652 29.66666666666663)"><path d="M-0.96 0.96 C-35.84 11.07, -174.89 50.34, -209.47 60.26 M0.73 0.42 C-34.29 10.24, -175.57 48.9, -210.49 58.63" stroke="#e03131" stroke-width="2" fill="none"></path></g><g transform="translate(2700.666666666664 209.38095238095207) rotate(0 -104.66666666666652 29.66666666666663)"><path d="M-190.12 44.14 C-194.32 47.84, -200.13 53.57, -210.49 58.63 M-190.12 44.14 C-197.48 49.94, -207.18 55.39, -210.49 58.63" stroke="#e03131" stroke-width="2" fill="none"></path></g><g transform="translate(2700.666666666664 209.38095238095207) rotate(0 -104.66666666666652 29.66666666666663)"><path d="M-185.57 60.63 C-191 59.63, -198.1 60.71, -210.49 58.63 M-185.57 60.63 C-194.62 59.81, -206.14 58.68, -210.49 58.63" stroke="#e03131" stroke-width="2" fill="none"></path></g></g><mask id="mask-UM5JZY1iBKnUXB3oD10VQ"><rect x="0" y="0" fill="#fff" width="3009.999999999997" height="368.7142857142853"></rect><rect x="2584.9679860540527" y="221.54761904761858" fill="#000" width="22.064027891890696" height="35" opacity="1"></rect></mask><g transform="translate(2584.9679860540527 221.54761904761858) rotate(0 10.818648155147912 18.17703119588566)"><text x="11.032013945945348" y="24.528" font-family="Virgil, Segoe UI Emoji" font-size="28px" fill="#e03131" text-anchor="middle" style="white-space: pre;" direction="ltr" dominant-baseline="alphabetic">di</text></g><g stroke-linecap="round"><g transform="translate(252 191.38095238095184) rotate(0 29.666666666666515 3.3333333333333712)"><path d="M0.87 0.36 C10.84 1.6, 49.61 6.41, 59.25 7.53 M-0.13 -0.5 C9.73 0.41, 48.64 4.95, 58.26 5.86" stroke="#e03131" stroke-width="2" fill="none"></path></g><g transform="translate(252 191.38095238095184) rotate(0 29.666666666666515 3.3333333333333712)"><path d="M33.99 11.87 C40.68 10.05, 47.61 7.64, 58.26 5.86 M33.99 11.87 C41.92 9.92, 49.61 7.76, 58.26 5.86" stroke="#e03131" stroke-width="2" fill="none"></path></g><g transform="translate(252 191.38095238095184) rotate(0 29.666666666666515 3.3333333333333712)"><path d="M35.81 -5.14 C42.05 -2.67, 48.52 -0.81, 58.26 5.86 M35.81 -5.14 C43 -1.39, 50.08 2.13, 58.26 5.86" stroke="#e03131" stroke-width="2" fill="none"></path></g></g><mask></mask><g stroke-linecap="round"><g transform="translate(856.6666666666665 183.04761904761858) rotate(0 29.666666666666515 3.3333333333333712)"><path d="M0.93 0.07 C10.82 1.12, 49.99 6.18, 59.87 7.17 M-0.04 -0.94 C9.69 -0.33, 49.21 4, 59.2 5.32" stroke="#e03131" stroke-width="2" fill="none"></path></g><g transform="translate(856.6666666666665 183.04761904761858) rotate(0 29.666666666666515 3.3333333333333712)"><path d="M34.87 11.05 C43.34 9.77, 52.47 8.4, 59.2 5.32 M34.87 11.05 C40.14 10.19, 46.43 7.73, 59.2 5.32" stroke="#e03131" stroke-width="2" fill="none"></path></g><g transform="translate(856.6666666666665 183.04761904761858) rotate(0 29.666666666666515 3.3333333333333712)"><path d="M36.88 -5.94 C44.78 -1.33, 53.22 3.16, 59.2 5.32 M36.88 -5.94 C41.55 -2.64, 47.34 -0.93, 59.2 5.32" stroke="#e03131" stroke-width="2" fill="none"></path></g></g><mask></mask><g stroke-linecap="round"><g transform="translate(1469.6666666666656 178.04761904761858) rotate(0 29.666666666666515 3.3333333333333712)"><path d="M-1.08 -0.12 C8.69 1.04, 49 6.53, 58.9 7.53 M0.55 -1.23 C10.1 -0.44, 47.71 4.53, 57.73 5.86" stroke="#e03131" stroke-width="2" fill="none"></path></g><g transform="translate(1469.6666666666656 178.04761904761858) rotate(0 29.666666666666515 3.3333333333333712)"><path d="M33.32 11.27 C40.97 9.03, 50.48 6.31, 57.73 5.86 M33.32 11.27 C39.06 9.32, 45.18 9.01, 57.73 5.86" stroke="#e03131" stroke-width="2" fill="none"></path></g><g transform="translate(1469.6666666666656 178.04761904761858) rotate(0 29.666666666666515 3.3333333333333712)"><path d="M35.55 -5.68 C42.56 -2.48, 51.35 0.27, 57.73 5.86 M35.55 -5.68 C40.89 -3.67, 46.49 -0.02, 57.73 5.86" stroke="#e03131" stroke-width="2" fill="none"></path></g></g><mask></mask><g stroke-linecap="round"><g transform="translate(2060.6666666666647 178.04761904761858) rotate(0 29.666666666666515 3.3333333333333712)"><path d="M-1.12 -1.06 C9.05 0.07, 49.87 5.51, 59.89 6.83 M0.5 1 C10.66 2.34, 49.63 7.25, 59.24 8.46" stroke="#e03131" stroke-width="2" fill="none"></path></g><g transform="translate(2060.6666666666647 178.04761904761858) rotate(0 29.666666666666515 3.3333333333333712)"><path d="M34.86 14 C38.12 14.02, 45.18 11.46, 59.24 8.46 M34.86 14 C43.25 12.19, 50.93 10.28, 59.24 8.46" stroke="#e03131" stroke-width="2" fill="none"></path></g><g transform="translate(2060.6666666666647 178.04761904761858) rotate(0 29.666666666666515 3.3333333333333712)"><path d="M37 -2.97 C39.83 0.53, 46.45 1.47, 59.24 8.46 M37 -2.97 C44.82 0.59, 51.82 4.05, 59.24 8.46" stroke="#e03131" stroke-width="2" fill="none"></path></g></g><mask></mask><g stroke-linecap="round"><g transform="translate(2495.3333333333308 248.38095238095184) rotate(0 107.16666666666652 -29.999999999999886)"><path d="M0.96 -0.14 C36.9 -9.84, 179.5 -49.03, 215.26 -59.15 M0.01 -1.26 C35.91 -11.2, 178.91 -51.04, 214.8 -60.83" stroke="#e03131" stroke-width="2" fill="none"></path></g><g transform="translate(2495.3333333333308 248.38095238095184) rotate(0 107.16666666666652 -29.999999999999886)"><path d="M194.43 -46.34 C199.78 -48.84, 206.89 -52.3, 214.8 -60.83 M194.43 -46.34 C199.41 -50.52, 203.72 -53.35, 214.8 -60.83" stroke="#e03131" stroke-width="2" fill="none"></path></g><g transform="translate(2495.3333333333308 248.38095238095184) rotate(0 107.16666666666652 -29.999999999999886)"><path d="M189.88 -62.82 C196.32 -60.94, 204.64 -59.98, 214.8 -60.83 M189.88 -62.82 C195.75 -63.29, 201.09 -62.36, 214.8 -60.83" stroke="#e03131" stroke-width="2" fill="none"></path></g></g><mask></mask><g stroke-linecap="round" transform="translate(498.33333333333303 316.0476190476186) rotate(0 5.5 5.5)"><path d="M5.39 0.04 C6.42 0.07, 7.98 0.68, 8.93 1.39 C9.89 2.11, 10.83 3.13, 11.12 4.33 C11.41 5.53, 11.38 7.6, 10.68 8.6 C9.98 9.6, 8.18 10.06, 6.92 10.34 C5.67 10.62, 4.2 10.72, 3.14 10.31 C2.07 9.89, 1.06 8.85, 0.54 7.86 C0.01 6.87, -0.25 5.49, -0.02 4.37 C0.21 3.25, 0.9 1.86, 1.91 1.14 C2.92 0.41, 5.35 0.22, 6.04 0.01 C6.73 -0.2, 6.15 -0.26, 6.05 -0.12 M4.96 0.65 C6.16 0.57, 7.73 0.74, 8.69 1.26 C9.65 1.77, 10.27 2.76, 10.7 3.74 C11.13 4.71, 11.76 6, 11.25 7.1 C10.74 8.19, 8.62 9.67, 7.63 10.31 C6.64 10.96, 6.31 11.06, 5.32 10.98 C4.32 10.89, 2.42 10.69, 1.64 9.8 C0.85 8.9, 0.73 6.93, 0.6 5.59 C0.46 4.25, 0.11 2.64, 0.83 1.76 C1.56 0.88, 4.29 0.6, 4.95 0.32 C5.6 0.03, 4.91 -0.04, 4.76 0.05" stroke="none" stroke-width="0" fill="#ffffff"></path><path d="M5.79 -0.49 C6.97 -0.46, 8.49 0.82, 9.36 1.71 C10.24 2.6, 10.92 3.79, 11.03 4.85 C11.14 5.92, 10.63 7.12, 10.01 8.09 C9.39 9.06, 8.45 10.31, 7.33 10.67 C6.2 11.03, 4.44 10.72, 3.26 10.24 C2.08 9.75, 0.85 8.64, 0.26 7.76 C-0.34 6.88, -0.56 6.05, -0.32 4.98 C-0.07 3.91, 0.67 2.24, 1.74 1.33 C2.81 0.42, 5.42 -0.27, 6.08 -0.47 C6.74 -0.66, 5.76 -0.02, 5.7 0.18 M5.98 0.37 C6.98 0.46, 8.2 1.07, 9.06 1.82 C9.91 2.56, 10.95 3.79, 11.11 4.86 C11.26 5.93, 10.54 7.15, 9.97 8.23 C9.41 9.31, 8.78 11.06, 7.73 11.32 C6.67 11.57, 4.89 10.43, 3.62 9.78 C2.34 9.13, 0.76 8.23, 0.08 7.42 C-0.6 6.61, -0.95 5.87, -0.47 4.9 C0.02 3.94, 1.9 2.41, 3 1.6 C4.09 0.8, 5.64 0.29, 6.11 0.08 C6.58 -0.13, 5.76 0.33, 5.82 0.34" stroke="#e03131" stroke-width="2" fill="none"></path></g><g stroke-linecap="round" transform="translate(1102.6666666666656 312.7142857142853) rotate(0 5.5 5.5)"><path d="M5.96 -0.12 C6.99 -0.09, 8.22 0.77, 8.98 1.57 C9.74 2.36, 10.43 3.45, 10.53 4.66 C10.63 5.86, 10.18 7.77, 9.6 8.78 C9.02 9.8, 8.16 10.42, 7.08 10.75 C5.99 11.08, 4.12 11.16, 3.1 10.74 C2.08 10.32, 1.51 9.29, 0.96 8.24 C0.42 7.19, -0.47 5.63, -0.17 4.42 C0.12 3.21, 1.67 1.75, 2.73 0.97 C3.79 0.19, 5.58 -0.1, 6.19 -0.25 C6.81 -0.4, 6.48 -0.11, 6.41 0.04 M6.3 -0.25 C7.54 -0.38, 8.87 0.38, 9.54 1.25 C10.21 2.13, 10.15 3.71, 10.34 5.01 C10.53 6.3, 11.13 8.1, 10.68 9.04 C10.23 9.98, 8.94 10.32, 7.65 10.63 C6.36 10.94, 3.99 11.48, 2.93 10.92 C1.88 10.36, 1.81 8.33, 1.31 7.25 C0.82 6.18, -0.15 5.41, -0.02 4.49 C0.11 3.57, 1.2 2.5, 2.1 1.75 C3 0.99, 4.78 0.14, 5.39 -0.05 C6.01 -0.25, 5.6 0.58, 5.77 0.58" stroke="none" stroke-width="0" fill="#ffffff"></path><path d="M4.97 0.2 C6.08 0.11, 8.33 0.67, 9.25 1.29 C10.17 1.91, 10.32 2.81, 10.49 3.93 C10.65 5.05, 10.79 6.79, 10.24 7.99 C9.69 9.18, 8.3 10.61, 7.2 11.1 C6.09 11.59, 4.6 11.42, 3.61 10.92 C2.62 10.43, 1.83 9.14, 1.26 8.13 C0.69 7.13, 0.13 5.95, 0.19 4.87 C0.25 3.8, 0.72 2.48, 1.63 1.69 C2.55 0.91, 5 0.35, 5.69 0.17 C6.39 -0.01, 5.8 0.54, 5.79 0.6 M5.9 0.69 C7.13 0.65, 8.49 0.54, 9.3 1.2 C10.1 1.87, 10.56 3.52, 10.73 4.67 C10.9 5.82, 10.88 7.05, 10.33 8.09 C9.78 9.14, 8.47 10.48, 7.46 10.93 C6.44 11.39, 5.29 11.32, 4.25 10.81 C3.2 10.3, 1.91 8.97, 1.18 7.87 C0.46 6.76, -0.19 5.31, -0.1 4.17 C-0.01 3.04, 0.85 1.64, 1.71 1.06 C2.57 0.47, 4.6 0.75, 5.06 0.66 C5.53 0.57, 4.36 0.63, 4.51 0.51" stroke="#e03131" stroke-width="2" fill="none"></path></g><g stroke-linecap="round" transform="translate(1702.6666666666656 307.7142857142853) rotate(0 5.5 5.5)"><path d="M5.31 0.48 C6.51 0.35, 7.82 0.9, 8.71 1.41 C9.61 1.92, 10.37 2.43, 10.66 3.52 C10.95 4.61, 11.02 6.82, 10.48 7.94 C9.94 9.05, 8.5 9.75, 7.43 10.22 C6.37 10.69, 5.13 10.97, 4.09 10.74 C3.04 10.51, 1.82 9.72, 1.18 8.84 C0.54 7.97, 0.21 6.74, 0.23 5.49 C0.26 4.25, 0.46 2.35, 1.32 1.38 C2.17 0.41, 4.75 -0.11, 5.36 -0.33 C5.97 -0.56, 5 -0.09, 4.96 0.05 M4.88 -0.01 C5.87 -0.08, 7.77 1.08, 8.69 1.87 C9.62 2.65, 10 3.6, 10.4 4.68 C10.8 5.76, 11.63 7.31, 11.09 8.33 C10.54 9.35, 8.24 10.34, 7.14 10.81 C6.03 11.28, 5.52 11.43, 4.44 11.16 C3.37 10.89, 1.37 10.27, 0.68 9.18 C-0.01 8.1, 0.2 5.86, 0.28 4.65 C0.36 3.44, 0.23 2.81, 1.17 1.93 C2.1 1.04, 5.12 -0.35, 5.89 -0.66 C6.65 -0.96, 5.86 -0.09, 5.78 0.08" stroke="none" stroke-width="0" fill="#ffffff"></path><path d="M6.76 0.5 C7.75 0.71, 8.7 1.28, 9.43 2.07 C10.16 2.87, 11.08 4.11, 11.13 5.25 C11.18 6.39, 10.45 7.96, 9.74 8.91 C9.04 9.86, 8.01 10.67, 6.9 10.96 C5.78 11.25, 4.16 11.22, 3.08 10.65 C2 10.08, 0.88 8.66, 0.4 7.55 C-0.08 6.43, -0.23 5.07, 0.2 3.97 C0.62 2.86, 1.81 1.59, 2.93 0.91 C4.06 0.22, 6.23 -0.13, 6.94 -0.16 C7.65 -0.2, 7.24 0.63, 7.22 0.71 M4.72 0.32 C5.72 0.15, 7.7 -0.2, 8.77 0.56 C9.84 1.33, 10.89 3.63, 11.14 4.91 C11.39 6.19, 10.84 7.28, 10.28 8.22 C9.73 9.16, 8.99 10.07, 7.83 10.56 C6.66 11.05, 4.54 11.56, 3.29 11.17 C2.03 10.77, 0.74 9.16, 0.32 8.18 C-0.11 7.21, 0.5 6.43, 0.72 5.32 C0.94 4.22, 0.88 2.45, 1.64 1.53 C2.39 0.62, 4.54 0.06, 5.24 -0.16 C5.94 -0.38, 5.83 0.22, 5.85 0.23" stroke="#e03131" stroke-width="2" fill="none"></path></g><g stroke-linecap="round" transform="translate(2293.6666666666647 307.7142857142853) rotate(0 5.5 5.5)"><path d="M6.62 0.35 C7.66 0.54, 8.83 1.46, 9.56 2.24 C10.29 3.01, 10.91 3.89, 11.02 5.01 C11.12 6.13, 10.84 7.91, 10.17 8.97 C9.5 10.03, 8.29 11.07, 6.99 11.36 C5.7 11.64, 3.57 11.29, 2.41 10.68 C1.24 10.08, 0.29 8.84, 0.01 7.71 C-0.27 6.58, 0.28 5.13, 0.72 3.91 C1.16 2.68, 1.62 0.91, 2.66 0.35 C3.69 -0.2, 6.17 0.54, 6.92 0.58 C7.67 0.62, 7.14 0.52, 7.16 0.59 M5.98 -0.11 C7.05 -0.14, 8.67 0.74, 9.44 1.61 C10.22 2.47, 10.46 3.95, 10.63 5.09 C10.81 6.23, 11.09 7.51, 10.5 8.42 C9.91 9.32, 8.21 10.07, 7.07 10.54 C5.92 11.01, 4.82 11.7, 3.64 11.25 C2.45 10.8, 0.61 8.93, -0.03 7.86 C-0.67 6.79, -0.55 5.82, -0.18 4.82 C0.18 3.81, 1.06 2.69, 2.14 1.84 C3.23 0.99, 5.79 -0.06, 6.35 -0.26 C6.92 -0.47, 5.54 0.58, 5.54 0.61" stroke="none" stroke-width="0" fill="#ffffff"></path><path d="M6 0.06 C7.2 0.02, 8.66 0.63, 9.54 1.4 C10.42 2.16, 11.11 3.55, 11.29 4.64 C11.47 5.73, 11.26 6.97, 10.62 7.94 C9.98 8.91, 8.63 9.99, 7.42 10.46 C6.22 10.93, 4.49 11.2, 3.38 10.77 C2.27 10.35, 1.32 9.07, 0.75 7.93 C0.19 6.8, -0.31 5.14, -0.01 3.98 C0.28 2.83, 1.64 1.69, 2.55 0.99 C3.46 0.3, 4.86 -0.13, 5.43 -0.2 C6 -0.27, 5.96 0.47, 5.97 0.57 M4.38 -0.31 C5.48 -0.65, 6.61 -0.23, 7.64 0.36 C8.66 0.96, 10.02 2.24, 10.53 3.27 C11.03 4.29, 10.91 5.4, 10.66 6.52 C10.41 7.64, 9.99 9.28, 9.03 9.99 C8.07 10.69, 6.05 10.93, 4.9 10.76 C3.74 10.59, 2.9 9.83, 2.1 8.95 C1.3 8.08, 0.18 6.59, 0.1 5.51 C0.02 4.44, 0.95 3.42, 1.62 2.5 C2.3 1.58, 3.61 0.4, 4.15 -0.03 C4.7 -0.46, 4.89 -0.33, 4.88 -0.1" stroke="#e03131" stroke-width="2" fill="none"></path></g><g stroke-linecap="round" transform="translate(2883.3333333333308 311.38095238095207) rotate(0 5.5 5.5)"><path d="M6.13 -0.39 C7.32 -0.41, 8.87 0.4, 9.62 1.38 C10.38 2.36, 10.66 4.27, 10.67 5.48 C10.69 6.7, 10.41 7.84, 9.73 8.67 C9.04 9.5, 7.75 10.17, 6.57 10.45 C5.4 10.73, 3.76 10.8, 2.66 10.34 C1.57 9.89, 0.46 8.75, -0.02 7.73 C-0.5 6.71, -0.65 5.43, -0.21 4.22 C0.23 3.01, 1.58 1.19, 2.62 0.46 C3.66 -0.28, 5.36 -0.19, 6.02 -0.21 C6.69 -0.22, 6.51 0.21, 6.62 0.36 M5.5 0.56 C6.66 0.57, 8.87 1.29, 9.83 1.99 C10.78 2.7, 11.3 3.57, 11.22 4.77 C11.14 5.97, 9.99 8.16, 9.35 9.2 C8.7 10.23, 8.36 10.78, 7.35 10.97 C6.34 11.17, 4.4 10.94, 3.28 10.35 C2.17 9.76, 1.08 8.42, 0.64 7.45 C0.2 6.48, 0.36 5.47, 0.64 4.53 C0.92 3.58, 1.42 2.48, 2.34 1.78 C3.26 1.07, 5.61 0.71, 6.16 0.32 C6.71 -0.07, 5.77 -0.51, 5.63 -0.56" stroke="none" stroke-width="0" fill="#ffffff"></path><path d="M6.02 0.52 C7.07 0.65, 9 0.81, 9.82 1.62 C10.64 2.43, 11.01 4.18, 10.94 5.4 C10.86 6.62, 10.08 8.02, 9.39 8.94 C8.7 9.86, 7.92 10.78, 6.8 10.93 C5.68 11.08, 3.76 10.37, 2.65 9.85 C1.55 9.32, 0.61 8.8, 0.17 7.79 C-0.27 6.79, -0.35 5, 0.02 3.82 C0.4 2.64, 1.27 1.41, 2.41 0.72 C3.55 0.03, 6.07 -0.23, 6.88 -0.32 C7.68 -0.41, 7.38 0.09, 7.27 0.19 M6.13 -0.14 C7.27 0.06, 8.43 0.75, 9.15 1.66 C9.87 2.57, 10.29 4.01, 10.44 5.33 C10.58 6.66, 10.67 8.73, 10.02 9.6 C9.37 10.48, 7.86 10.37, 6.54 10.59 C5.22 10.81, 3.07 11.44, 2.1 10.94 C1.14 10.43, 0.97 8.66, 0.74 7.56 C0.52 6.45, 0.49 5.53, 0.75 4.32 C1.02 3.11, 1.34 0.97, 2.33 0.29 C3.32 -0.4, 5.99 0.34, 6.71 0.21 C7.42 0.07, 6.57 -0.63, 6.6 -0.53" stroke="#e03131" stroke-width="2" fill="none"></path></g><g stroke-linecap="round" transform="translate(78.33333333333303 264.0476190476186) rotate(0 5.5 5.5)"><path d="M6.87 0.14 C7.94 0.27, 9.21 1.53, 9.88 2.34 C10.55 3.16, 10.91 3.85, 10.89 5.04 C10.87 6.23, 10.51 8.48, 9.77 9.49 C9.03 10.5, 7.56 10.91, 6.46 11.1 C5.36 11.29, 4.2 11.31, 3.17 10.65 C2.15 9.98, 0.81 8.22, 0.3 7.11 C-0.2 5.99, -0.3 4.98, 0.14 3.95 C0.57 2.92, 1.86 1.63, 2.91 0.94 C3.97 0.24, 5.83 -0.08, 6.48 -0.22 C7.12 -0.37, 6.85 -0.07, 6.79 0.07 M5.35 0.2 C6.42 0, 7.73 0.8, 8.59 1.52 C9.45 2.25, 10.3 3.43, 10.52 4.55 C10.74 5.67, 10.35 7.21, 9.94 8.24 C9.52 9.27, 8.94 10.26, 8.03 10.73 C7.13 11.2, 5.73 11.33, 4.51 11.05 C3.28 10.77, 1.29 10.09, 0.66 9.05 C0.03 8.01, 0.62 5.97, 0.74 4.81 C0.86 3.65, 0.58 3, 1.39 2.08 C2.19 1.16, 4.98 -0.27, 5.57 -0.71 C6.16 -1.15, 4.94 -0.75, 4.93 -0.56" stroke="none" stroke-width="0" fill="#ffffff"></path><path d="M5.88 0.1 C6.96 0.08, 8.34 0.5, 9.14 1.35 C9.95 2.2, 10.49 3.98, 10.72 5.2 C10.95 6.41, 11.19 7.78, 10.52 8.64 C9.85 9.51, 7.94 10.15, 6.7 10.41 C5.47 10.66, 4.03 10.49, 3.1 10.18 C2.17 9.88, 1.56 9.52, 1.13 8.58 C0.69 7.63, 0.31 5.76, 0.48 4.52 C0.66 3.28, 1.23 1.82, 2.16 1.14 C3.09 0.45, 5.43 0.51, 6.05 0.41 C6.66 0.32, 5.88 0.55, 5.84 0.58 M6.51 -0.14 C7.76 0.07, 9.13 1.2, 9.81 2.25 C10.49 3.31, 10.53 5.14, 10.59 6.17 C10.64 7.2, 10.94 7.75, 10.16 8.44 C9.38 9.12, 7.25 10.02, 5.93 10.29 C4.61 10.55, 3.26 10.53, 2.24 10.01 C1.22 9.5, 0.17 8.3, -0.17 7.21 C-0.52 6.11, -0.3 4.48, 0.16 3.46 C0.62 2.44, 1.54 1.63, 2.58 1.07 C3.63 0.51, 5.87 0.31, 6.45 0.09 C7.03 -0.14, 5.99 -0.27, 6.05 -0.28" stroke="#e03131" stroke-width="2" fill="none"></path></g><g stroke-linecap="round" transform="translate(682.6666666666661 260.7142857142853) rotate(0 5.5 5.5)"><path d="M5.77 -0.38 C6.9 -0.44, 8.5 0.29, 9.31 1.11 C10.12 1.92, 10.48 3.25, 10.63 4.52 C10.78 5.79, 10.82 7.69, 10.2 8.72 C9.59 9.75, 8.06 10.32, 6.94 10.69 C5.83 11.07, 4.49 11.48, 3.49 10.95 C2.49 10.43, 1.44 8.61, 0.94 7.54 C0.44 6.48, 0.27 5.63, 0.48 4.56 C0.7 3.49, 1.34 1.86, 2.24 1.14 C3.14 0.41, 5.2 0.42, 5.87 0.22 C6.54 0.02, 6.22 -0.14, 6.27 -0.06 M4.37 0.31 C5.34 -0.11, 6.99 -0.51, 8.06 0.16 C9.14 0.83, 10.3 2.99, 10.81 4.31 C11.33 5.62, 11.6 7.12, 11.13 8.06 C10.67 9, 9.07 9.35, 8.02 9.95 C6.97 10.54, 6.08 11.83, 4.83 11.64 C3.59 11.45, 1.3 9.85, 0.54 8.79 C-0.22 7.73, 0.04 6.49, 0.29 5.27 C0.53 4.04, 1.31 2.32, 2.02 1.44 C2.74 0.56, 4.06 0.11, 4.57 0 C5.09 -0.11, 5.19 0.63, 5.11 0.79" stroke="none" stroke-width="0" fill="#ffffff"></path><path d="M6.82 0.47 C7.95 0.62, 9.32 0.85, 9.94 1.7 C10.56 2.55, 10.63 4.38, 10.56 5.57 C10.48 6.75, 10.12 7.95, 9.49 8.81 C8.86 9.68, 7.89 10.46, 6.78 10.76 C5.66 11.06, 3.93 11.17, 2.8 10.6 C1.67 10.03, 0.38 8.57, 0 7.35 C-0.37 6.13, 0.01 4.37, 0.55 3.26 C1.08 2.16, 2.11 1.25, 3.19 0.72 C4.27 0.18, 6.31 0.09, 7.03 0.04 C7.76 -0.02, 7.6 0.3, 7.54 0.39 M5.78 0.47 C6.97 0.19, 7.88 0.3, 8.79 0.9 C9.69 1.5, 10.92 2.96, 11.2 4.1 C11.49 5.24, 11.03 6.6, 10.51 7.74 C10 8.87, 9.19 10.35, 8.11 10.91 C7.04 11.47, 5.36 11.52, 4.07 11.11 C2.77 10.7, 1.13 9.49, 0.36 8.45 C-0.42 7.41, -0.74 6.06, -0.59 4.88 C-0.44 3.7, 0.22 2.31, 1.27 1.37 C2.33 0.44, 5.05 -0.64, 5.75 -0.73 C6.45 -0.83, 5.71 0.7, 5.49 0.79" stroke="#e03131" stroke-width="2" fill="none"></path></g><g stroke-linecap="round" transform="translate(1282.6666666666656 255.71428571428532) rotate(0 5.5 5.5)"><path d="M4.75 0.27 C5.89 -0.13, 7.61 -0.02, 8.5 0.49 C9.4 1, 9.71 2.31, 10.12 3.34 C10.52 4.37, 11.26 5.55, 10.95 6.67 C10.63 7.79, 9.28 9.32, 8.24 10.05 C7.19 10.79, 5.8 11.18, 4.69 11.08 C3.58 10.98, 2.28 10.37, 1.56 9.44 C0.84 8.51, 0.5 6.68, 0.38 5.52 C0.26 4.36, 0.22 3.42, 0.83 2.49 C1.45 1.56, 3.46 0.31, 4.07 -0.07 C4.68 -0.45, 4.43 0.09, 4.5 0.2 M6.52 -0.07 C7.68 0.06, 9.68 0.5, 10.49 1.56 C11.29 2.62, 11.44 5.13, 11.35 6.31 C11.26 7.49, 10.72 7.78, 9.93 8.65 C9.14 9.52, 7.73 11.31, 6.59 11.55 C5.45 11.78, 4.01 10.72, 3.09 10.05 C2.17 9.38, 1.52 8.72, 1.05 7.53 C0.57 6.34, -0.13 3.94, 0.25 2.9 C0.63 1.87, 2.38 1.68, 3.32 1.3 C4.26 0.91, 5.35 0.76, 5.88 0.59 C6.41 0.43, 6.42 0.33, 6.49 0.31" stroke="none" stroke-width="0" fill="#ffffff"></path><path d="M7.21 -0.12 C8.41 0.05, 9.46 1.37, 10.05 2.36 C10.64 3.36, 10.87 4.64, 10.76 5.86 C10.64 7.09, 10.14 8.81, 9.37 9.72 C8.61 10.62, 7.25 11.21, 6.16 11.28 C5.07 11.35, 3.8 10.87, 2.84 10.15 C1.87 9.42, 0.71 8.03, 0.37 6.92 C0.03 5.81, 0.32 4.52, 0.79 3.5 C1.26 2.47, 2.2 1.29, 3.21 0.79 C4.23 0.3, 6.09 0.53, 6.88 0.51 C7.66 0.49, 7.95 0.65, 7.91 0.68 M6.92 0.01 C7.97 0.3, 8.44 1.42, 9.21 2.35 C9.99 3.27, 11.47 4.4, 11.57 5.57 C11.66 6.75, 10.65 8.6, 9.77 9.4 C8.88 10.21, 7.39 10.37, 6.27 10.41 C5.15 10.45, 4.09 10.07, 3.05 9.66 C2.01 9.24, 0.39 8.96, 0.04 7.9 C-0.31 6.84, 0.47 4.52, 0.96 3.3 C1.46 2.09, 2.08 1.05, 3 0.61 C3.91 0.17, 5.83 0.72, 6.44 0.67 C7.06 0.62, 6.8 0.36, 6.7 0.31" stroke="#e03131" stroke-width="2" fill="none"></path></g><g stroke-linecap="round" transform="translate(1873.6666666666647 255.71428571428532) rotate(0 5.5 5.5)"><path d="M6.88 0.02 C8.07 0.13, 9.53 1.09, 10.15 2.09 C10.77 3.1, 10.69 4.79, 10.6 6.04 C10.52 7.29, 10.27 8.84, 9.63 9.59 C8.99 10.33, 7.88 10.47, 6.77 10.51 C5.67 10.55, 4.04 10.31, 3 9.83 C1.96 9.36, 0.93 8.72, 0.53 7.66 C0.12 6.6, 0.26 4.61, 0.58 3.47 C0.9 2.34, 1.3 1.4, 2.44 0.88 C3.58 0.36, 6.56 0.34, 7.41 0.34 C8.26 0.35, 7.59 0.84, 7.55 0.91 M6.44 0.41 C7.57 0.44, 9.18 0.82, 10.01 1.74 C10.84 2.66, 11.46 4.71, 11.41 5.91 C11.36 7.11, 10.57 8.07, 9.7 8.93 C8.83 9.79, 7.25 10.98, 6.18 11.08 C5.11 11.17, 4.32 10.19, 3.29 9.51 C2.27 8.83, 0.45 7.98, 0.03 6.99 C-0.39 6.01, 0.2 4.53, 0.77 3.6 C1.35 2.67, 2.56 2, 3.48 1.4 C4.4 0.8, 5.7 0.08, 6.29 0 C6.88 -0.07, 7.11 0.84, 7.03 0.92" stroke="none" stroke-width="0" fill="#ffffff"></path><path d="M5.23 0.37 C6.33 0.24, 7.84 0.71, 8.76 1.42 C9.68 2.14, 10.56 3.55, 10.76 4.68 C10.96 5.8, 10.5 7.21, 9.94 8.18 C9.39 9.15, 8.39 10.04, 7.42 10.49 C6.44 10.94, 5.22 11.23, 4.11 10.88 C3 10.53, 1.5 9.32, 0.76 8.4 C0.02 7.47, -0.47 6.53, -0.34 5.31 C-0.21 4.09, 0.62 1.96, 1.55 1.07 C2.47 0.17, 4.47 0.15, 5.23 -0.07 C6 -0.29, 6.13 -0.28, 6.14 -0.25 M4.1 -0.39 C5.14 -0.67, 6.87 -0.02, 7.93 0.64 C8.99 1.3, 10.11 2.31, 10.45 3.54 C10.78 4.77, 10.35 6.86, 9.95 8.02 C9.55 9.17, 8.99 9.85, 8.07 10.46 C7.14 11.06, 5.55 11.85, 4.39 11.63 C3.23 11.42, 1.86 10.1, 1.11 9.15 C0.35 8.21, -0.23 7.19, -0.14 5.95 C-0.04 4.71, 0.94 2.64, 1.69 1.74 C2.45 0.84, 3.96 0.87, 4.38 0.55 C4.8 0.23, 4.07 -0.25, 4.22 -0.19" stroke="#e03131" stroke-width="2" fill="none"></path></g><g stroke-linecap="round" transform="translate(2463.3333333333308 259.38095238095207) rotate(0 5.5 5.5)"><path d="M4.23 0.16 C5.24 -0.13, 6.85 -0.09, 7.98 0.48 C9.1 1.05, 10.55 2.43, 10.97 3.58 C11.38 4.72, 11.01 6.27, 10.47 7.34 C9.93 8.41, 8.75 9.48, 7.73 9.99 C6.71 10.51, 5.44 10.7, 4.37 10.44 C3.3 10.19, 1.97 9.31, 1.3 8.49 C0.63 7.66, 0.4 6.65, 0.34 5.48 C0.28 4.32, 0.23 2.41, 0.94 1.51 C1.66 0.61, 3.9 0.26, 4.62 0.09 C5.34 -0.08, 5.2 0.37, 5.27 0.47 M6.52 0.51 C7.64 0.64, 9.11 1.22, 9.82 1.86 C10.53 2.49, 10.67 3.13, 10.8 4.32 C10.93 5.52, 11.22 7.92, 10.6 9.01 C9.99 10.1, 8.37 10.6, 7.1 10.86 C5.84 11.12, 4.19 11.01, 3.02 10.58 C1.84 10.15, 0.49 9.37, 0.08 8.3 C-0.33 7.22, 0.07 5.3, 0.57 4.13 C1.07 2.95, 2.14 1.98, 3.09 1.25 C4.04 0.52, 5.91 0.02, 6.28 -0.25 C6.65 -0.52, 5.43 -0.61, 5.29 -0.38" stroke="none" stroke-width="0" fill="#ffffff"></path><path d="M7.28 0.27 C8.38 0.54, 9.01 1.33, 9.61 2.21 C10.21 3.1, 10.91 4.34, 10.87 5.58 C10.83 6.82, 10.14 8.8, 9.34 9.68 C8.54 10.57, 7.3 10.85, 6.08 10.88 C4.85 10.92, 2.91 10.59, 2 9.89 C1.09 9.19, 0.85 7.86, 0.63 6.69 C0.41 5.53, 0.28 3.9, 0.69 2.9 C1.1 1.9, 2.08 1.07, 3.09 0.67 C4.1 0.28, 6.04 0.64, 6.76 0.54 C7.48 0.43, 7.43 -0.04, 7.42 0.06 M3.92 -0.41 C5.06 -0.79, 6.5 -0.68, 7.57 -0.02 C8.64 0.64, 9.7 2.37, 10.33 3.56 C10.96 4.74, 11.69 6.12, 11.35 7.09 C11 8.07, 9.22 8.7, 8.27 9.41 C7.32 10.13, 6.72 11.33, 5.64 11.39 C4.55 11.45, 2.57 10.74, 1.76 9.76 C0.94 8.77, 0.93 6.68, 0.73 5.47 C0.54 4.27, 0 3.38, 0.59 2.52 C1.18 1.66, 3.79 0.61, 4.26 0.32 C4.74 0.03, 3.41 0.61, 3.44 0.79" stroke="#e03131" stroke-width="2" fill="none"></path></g><g stroke-linecap="round"><g transform="translate(102.33333333333303 237.04761904761858) rotate(0 6.5 33.5)"><path d="M0.41 1.17 C2.76 6.93, 14.7 22.67, 14.39 33.83 C14.08 45, 1.48 62.62, -1.45 68.16 M-0.83 0.74 C1.88 6.75, 16.96 24.34, 16.78 35.29 C16.6 46.23, 1.46 60.93, -1.93 66.43" stroke="#1971c2" stroke-width="1" fill="none"></path></g><g transform="translate(102.33333333333303 237.04761904761858) rotate(0 6.5 33.5)"><path d="M3.76 48.76 C3.61 53.61, -0.32 61.17, -1.93 66.43 M3.76 48.76 C0.45 56.51, -1.11 62.17, -1.93 66.43" stroke="#1971c2" stroke-width="1" fill="none"></path></g><g transform="translate(102.33333333333303 237.04761904761858) rotate(0 6.5 33.5)"><path d="M13.78 56.55 C10.4 58.89, 3.2 63.9, -1.93 66.43 M13.78 56.55 C6.57 61.22, 1.04 63.79, -1.93 66.43" stroke="#1971c2" stroke-width="1" fill="none"></path></g></g><mask></mask><g stroke-linecap="round"><g transform="translate(483.33333333333303 351.0476190476186) rotate(0 -5 -30)"><path d="M-0.25 -0.34 C-1.59 -5.96, -9.16 -22.82, -8.94 -32.81 C-8.71 -42.79, -0.26 -55.56, 1.13 -60.27 M1.83 -1.56 C0.49 -7.57, -9.18 -24.71, -9.32 -34.3 C-9.47 -43.89, -0.49 -54.73, 0.95 -59.1" stroke="#1971c2" stroke-width="1" fill="none"></path></g><g transform="translate(483.33333333333303 351.0476190476186) rotate(0 -5 -30)"><path d="M-0.93 -45.3 C-1 -47.21, 1.21 -50.29, 0.95 -59.1 M-0.93 -45.3 C-0.26 -49.75, -0.31 -52.99, 0.95 -59.1" stroke="#1971c2" stroke-width="1" fill="none"></path></g><g transform="translate(483.33333333333303 351.0476190476186) rotate(0 -5 -30)"><path d="M-9.36 -49.74 C-7.47 -50.62, -3.33 -52.69, 0.95 -59.1 M-9.36 -49.74 C-6.37 -52.88, -4.08 -54.9, 0.95 -59.1" stroke="#1971c2" stroke-width="1" fill="none"></path></g></g><mask></mask><g stroke-linecap="round"><g transform="translate(1087.6666666666656 347.7142857142853) rotate(0 -25 11.666666666666629)"><path d="M0.99 0.03 C-3.74 0.3, -19.14 -2.47, -27.5 1.46 C-35.86 5.39, -45.25 20.14, -49.16 23.61 M0.05 -1 C-4.38 -1.08, -16.97 -4.76, -25.23 -0.41 C-33.48 3.93, -45.15 21.2, -49.48 25.07" stroke="#1971c2" stroke-width="1" fill="none"></path></g><g transform="translate(1087.6666666666656 347.7142857142853) rotate(0 -25 11.666666666666629)"><path d="M-60.77 15.2 C-56.53 17.75, -51.78 23.53, -49.48 25.07 M-60.77 15.2 C-57.36 18.33, -54.08 22.42, -49.48 25.07" stroke="#1971c2" stroke-width="1" fill="none"></path></g><g transform="translate(1087.6666666666656 347.7142857142853) rotate(0 -25 11.666666666666629)"><path d="M-38.18 34.94 C-42.34 30.31, -46.02 28.73, -49.48 25.07 M-38.18 34.94 C-41.92 31.5, -45.93 29.21, -49.48 25.07" stroke="#1971c2" stroke-width="1" fill="none"></path></g></g><mask></mask><g stroke-linecap="round"><g transform="translate(1687.6666666666656 342.7142857142853) rotate(0 -17.5 -14.166666666666742)"><path d="M0.82 1.14 C-3.2 0.16, -18.59 0.12, -24.39 -4.9 C-30.2 -9.92, -32.28 -25.13, -34 -28.98 M-0.21 0.69 C-3.85 -0.72, -16.57 -1.84, -22.24 -6.62 C-27.91 -11.4, -32.23 -24.65, -34.24 -28.01" stroke="#1971c2" stroke-width="1" fill="none"></path></g><g transform="translate(1687.6666666666656 342.7142857142853) rotate(0 -17.5 -14.166666666666742)"><path d="M-25.25 -18.97 C-26.62 -22.55, -29.52 -22.88, -34.24 -28.01 M-25.25 -18.97 C-27.78 -21.14, -29.83 -22.85, -34.24 -28.01" stroke="#1971c2" stroke-width="1" fill="none"></path></g><g transform="translate(1687.6666666666656 342.7142857142853) rotate(0 -17.5 -14.166666666666742)"><path d="M-33.16 -15.3 C-32.36 -19.96, -33.05 -21.31, -34.24 -28.01 M-33.16 -15.3 C-33.75 -18.4, -33.86 -21.01, -34.24 -28.01" stroke="#1971c2" stroke-width="1" fill="none"></path></g></g><mask></mask><g stroke-linecap="round"><g transform="translate(2278.6666666666647 342.7142857142853) rotate(0 -16.666666666666515 -14.166666666666742)"><path d="M0.17 -0.29 C-3.79 -1.48, -19.25 -2.07, -24.8 -6.6 C-30.36 -11.13, -31.76 -23.99, -33.19 -27.47 M-1.2 -1.48 C-5.21 -3.07, -20.2 -3.69, -25.65 -8.34 C-31.09 -12.99, -32.63 -25.82, -33.88 -29.37" stroke="#1971c2" stroke-width="1" fill="none"></path></g><g transform="translate(2278.6666666666647 342.7142857142853) rotate(0 -16.666666666666515 -14.166666666666742)"><path d="M-27.57 -20 C-29.22 -21.79, -29.6 -23.82, -33.88 -29.37 M-27.57 -20 C-30.01 -22.92, -32.79 -26.66, -33.88 -29.37" stroke="#1971c2" stroke-width="1" fill="none"></path></g><g transform="translate(2278.6666666666647 342.7142857142853) rotate(0 -16.666666666666515 -14.166666666666742)"><path d="M-35.07 -18.13 C-35.14 -20.33, -33.93 -22.76, -33.88 -29.37 M-35.07 -18.13 C-34.72 -21.8, -34.72 -26.24, -33.88 -29.37" stroke="#1971c2" stroke-width="1" fill="none"></path></g></g><mask></mask><g stroke-linecap="round"><g transform="translate(2868.3333333333308 346.38095238095207) rotate(0 -16.666666666666515 -14.166666666666742)"><path d="M0.85 1.18 C-3.44 -0.37, -20.34 -3.53, -25.87 -8.41 C-31.39 -13.28, -30.9 -24.74, -32.29 -28.09 M-0.17 0.76 C-4.07 -0.77, -18.22 -2.86, -23.61 -7.43 C-29 -12, -30.71 -23.31, -32.5 -26.64" stroke="#1971c2" stroke-width="1" fill="none"></path></g><g transform="translate(2868.3333333333308 346.38095238095207) rotate(0 -16.666666666666515 -14.166666666666742)"><path d="M-25.3 -17.94 C-26.33 -21.21, -30.53 -21.92, -32.5 -26.64 M-25.3 -17.94 C-27.68 -21.09, -29.97 -23.13, -32.5 -26.64" stroke="#1971c2" stroke-width="1" fill="none"></path></g><g transform="translate(2868.3333333333308 346.38095238095207) rotate(0 -16.666666666666515 -14.166666666666742)"><path d="M-32.58 -15.35 C-31.53 -19.42, -33.63 -20.88, -32.5 -26.64 M-32.58 -15.35 C-32.61 -19.32, -32.57 -22.19, -32.5 -26.64" stroke="#1971c2" stroke-width="1" fill="none"></path></g></g><mask></mask><g stroke-linecap="round"><g transform="translate(1655.9999999999986 254.38095238095207) rotate(0 15.833333333333485 -15.833333333333485)"><path d="M1.04 0.57 C1.97 -3.06, -0.62 -17.01, 4.49 -22.24 C9.6 -27.47, 27.15 -29.37, 31.69 -30.79 M0.12 -0.17 C0.95 -3.56, -1.87 -15.24, 3.27 -20.65 C8.4 -26.07, 26.14 -30.64, 30.94 -32.68" stroke="#1971c2" stroke-width="1" fill="none"></path></g><g transform="translate(1655.9999999999986 254.38095238095207) rotate(0 15.833333333333485 -15.833333333333485)"><path d="M19.98 -23.76 C22.96 -26.31, 24.67 -27.53, 30.94 -32.68 M19.98 -23.76 C23.68 -27.5, 28.68 -29.89, 30.94 -32.68" stroke="#1971c2" stroke-width="1" fill="none"></path></g><g transform="translate(1655.9999999999986 254.38095238095207) rotate(0 15.833333333333485 -15.833333333333485)"><path d="M16.81 -32.89 C20.42 -33.57, 22.79 -32.9, 30.94 -32.68 M16.81 -32.89 C21.69 -33.25, 27.88 -32.23, 30.94 -32.68" stroke="#1971c2" stroke-width="1" fill="none"></path></g></g><mask></mask><g stroke-linecap="round"><g transform="translate(2246.9999999999977 254.38095238095207) rotate(0 15.833333333333485 -15.833333333333485)"><path d="M-0.29 0.2 C0.57 -3.53, 0.26 -16.87, 5.73 -22.19 C11.2 -27.5, 28.07 -30.09, 32.53 -31.7 M1.76 -0.75 C2.48 -4.27, 0.09 -15.63, 5.17 -20.57 C10.24 -25.52, 27.54 -28.68, 32.21 -30.4" stroke="#1971c2" stroke-width="1" fill="none"></path></g><g transform="translate(2246.9999999999977 254.38095238095207) rotate(0 15.833333333333485 -15.833333333333485)"><path d="M20.74 -22.16 C24.93 -24.13, 28.85 -26.84, 32.21 -30.4 M20.74 -22.16 C24.73 -25.26, 27.81 -27.42, 32.21 -30.4" stroke="#1971c2" stroke-width="1" fill="none"></path></g><g transform="translate(2246.9999999999977 254.38095238095207) rotate(0 15.833333333333485 -15.833333333333485)"><path d="M18.12 -31.47 C23.24 -30.2, 28.06 -29.69, 32.21 -30.4 M18.12 -31.47 C22.96 -31.8, 26.81 -31.19, 32.21 -30.4" stroke="#1971c2" stroke-width="1" fill="none"></path></g></g><mask></mask><g stroke-linecap="round"><g transform="translate(2836.666666666664 258.0476190476188) rotate(0 15.833333333333485 -15.833333333333485)"><path d="M1.18 -0.87 C1.68 -4.55, -1.19 -16.01, 3.93 -21.29 C9.05 -26.56, 27.31 -30.73, 31.91 -32.51 M0.35 1.29 C1.12 -2.78, 0.92 -17.37, 6.08 -22.86 C11.23 -28.35, 27.01 -30.28, 31.27 -31.63" stroke="#1971c2" stroke-width="1" fill="none"></path></g><g transform="translate(2836.666666666664 258.0476190476188) rotate(0 15.833333333333485 -15.833333333333485)"><path d="M19.41 -23.96 C22.82 -28.23, 29.55 -29.58, 31.27 -31.63 M19.41 -23.96 C21.7 -25.84, 25.37 -27.44, 31.27 -31.63" stroke="#1971c2" stroke-width="1" fill="none"></path></g><g transform="translate(2836.666666666664 258.0476190476188) rotate(0 15.833333333333485 -15.833333333333485)"><path d="M17.25 -33.38 C21.54 -34.12, 29.08 -31.91, 31.27 -31.63 M17.25 -33.38 C20.03 -33.09, 24.19 -32.52, 31.27 -31.63" stroke="#1971c2" stroke-width="1" fill="none"></path></g></g><mask></mask><g stroke-linecap="round"><g transform="translate(709.9999999999991 220.38095238095207) rotate(0 13.166666666666742 -15.666666666666742)"><path d="M-0.16 0.99 C3.17 -1.41, 15.54 -8.25, 20.03 -13.5 C24.52 -18.75, 25.7 -27.36, 26.8 -30.49 M-1.7 0.46 C1.47 -1.88, 14.44 -6.93, 19.1 -12.4 C23.76 -17.88, 24.96 -29.18, 26.28 -32.39" stroke="#1971c2" stroke-width="1" fill="none"></path></g><g transform="translate(709.9999999999991 220.38095238095207) rotate(0 13.166666666666742 -15.666666666666742)"><path d="M35.8 -29.86 C33.69 -30.61, 29.3 -31.03, 26.28 -32.39 M35.8 -29.86 C31.83 -30.97, 28.63 -32.15, 26.28 -32.39" stroke="#1971c2" stroke-width="1" fill="none"></path></g><g transform="translate(709.9999999999991 220.38095238095207) rotate(0 13.166666666666742 -15.666666666666742)"><path d="M16.75 -34.92 C20.48 -34.11, 21.88 -32.98, 26.28 -32.39 M16.75 -34.92 C19.85 -34.01, 23.71 -33.32, 26.28 -32.39" stroke="#1971c2" stroke-width="1" fill="none"></path></g></g><mask></mask><g stroke-linecap="round"><g transform="translate(1309.9999999999986 215.38095238095207) rotate(0 13.166666666666515 -15.666666666666742)"><path d="M1.14 -1.06 C4.43 -3.14, 16.68 -6.67, 20.77 -11.66 C24.86 -16.66, 24.71 -27.67, 25.68 -31.04 M0.28 1 C3.4 -1.47, 16.17 -8.17, 20.22 -13.26 C24.27 -18.35, 23.44 -26.59, 24.58 -29.56" stroke="#1971c2" stroke-width="1" fill="none"></path></g><g transform="translate(1309.9999999999986 215.38095238095207) rotate(0 13.166666666666515 -15.666666666666742)"><path d="M34.29 -27.86 C29.69 -27.79, 27.66 -29.61, 24.58 -29.56 M34.29 -27.86 C31.15 -28.57, 28.4 -28.96, 24.58 -29.56" stroke="#1971c2" stroke-width="1" fill="none"></path></g><g transform="translate(1309.9999999999986 215.38095238095207) rotate(0 13.166666666666515 -15.666666666666742)"><path d="M14.87 -31.26 C17.73 -30.08, 23.14 -30.59, 24.58 -29.56 M14.87 -31.26 C18.05 -30.78, 21.59 -30.07, 24.58 -29.56" stroke="#1971c2" stroke-width="1" fill="none"></path></g></g><mask></mask><g stroke-linecap="round"><g transform="translate(1900.9999999999977 215.38095238095207) rotate(0 13.16666666666697 -15.666666666666742)"><path d="M0.2 0.73 C3.53 -1.19, 15.8 -6.6, 20.15 -11.81 C24.5 -17.02, 25.3 -27.44, 26.3 -30.51 M-1.16 0.07 C2.01 -2.15, 14.83 -8.06, 19.27 -13.48 C23.72 -18.9, 24.35 -29.3, 25.51 -32.42" stroke="#1971c2" stroke-width="1" fill="none"></path></g><g transform="translate(1900.9999999999977 215.38095238095207) rotate(0 13.16666666666697 -15.666666666666742)"><path d="M35.12 -30.22 C32.71 -30.78, 29.8 -31.62, 25.51 -32.42 M35.12 -30.22 C31.12 -30.72, 27.78 -31.81, 25.51 -32.42" stroke="#1971c2" stroke-width="1" fill="none"></path></g><g transform="translate(1900.9999999999977 215.38095238095207) rotate(0 13.16666666666697 -15.666666666666742)"><path d="M15.91 -34.63 C19.52 -33.83, 22.64 -33.29, 25.51 -32.42 M15.91 -34.63 C18.97 -33.68, 22.71 -33.15, 25.51 -32.42" stroke="#1971c2" stroke-width="1" fill="none"></path></g></g><mask></mask><g stroke-linecap="round"><g transform="translate(2485.666666666664 224.0476190476188) rotate(0 20.666666666666515 -7.000000000000114)"><path d="M-0.4 -0.49 C3.23 -2.95, 15.26 -14.35, 22.15 -14.22 C29.04 -14.1, 37.77 -2.1, 40.95 0.26 M0.4 0.45 C3.96 -1.96, 15.02 -15.19, 21.96 -15.13 C28.91 -15.07, 38.85 -1.75, 42.07 0.83" stroke="#1971c2" stroke-width="2" fill="none"></path></g><g transform="translate(2485.666666666664 224.0476190476188) rotate(0 20.666666666666515 -7.000000000000114)"><path d="M31.02 -4.51 C34.59 -1.95, 39.36 -0.94, 42.07 0.83 M31.02 -4.51 C34.12 -2.72, 37.37 -1.46, 42.07 0.83" stroke="#1971c2" stroke-width="2" fill="none"></path></g><g transform="translate(2485.666666666664 224.0476190476188) rotate(0 20.666666666666515 -7.000000000000114)"><path d="M37.03 -10.36 C38.4 -5.66, 40.94 -2.48, 42.07 0.83 M37.03 -10.36 C38.4 -6.91, 39.92 -3.97, 42.07 0.83" stroke="#1971c2" stroke-width="2" fill="none"></path></g></g><mask></mask><g stroke-linecap="round"><g transform="translate(2520.666666666664 280.7142857142858) rotate(0 -15.16666666666697 15.999999999999886)"><path d="M0.82 0.16 C-0.49 3.69, -2.96 14.93, -8.31 20.43 C-13.65 25.93, -27.74 31.39, -31.23 33.16 M-0.2 -0.79 C-1.63 2.98, -4.47 16.48, -9.24 21.85 C-14.01 27.22, -25 29.79, -28.81 31.43" stroke="#1971c2" stroke-width="2" fill="none"></path></g><g transform="translate(2520.666666666664 280.7142857142858) rotate(0 -15.16666666666697 15.999999999999886)"><path d="M-19.27 23.55 C-21.65 25.71, -24.56 26.82, -28.81 31.43 M-19.27 23.55 C-23.29 26.68, -26.29 29.69, -28.81 31.43" stroke="#1971c2" stroke-width="2" fill="none"></path></g><g transform="translate(2520.666666666664 280.7142857142858) rotate(0 -15.16666666666697 15.999999999999886)"><path d="M-16.43 31.52 C-19.51 31.61, -23.16 30.64, -28.81 31.43 M-16.43 31.52 C-21.65 31.47, -25.77 31.31, -28.81 31.43" stroke="#1971c2" stroke-width="2" fill="none"></path></g></g><mask></mask><g stroke-linecap="round"><g transform="translate(1670.9999999999995 303.6666666666663) rotate(0 -37.5 -20)"><path d="M-0.06 0.39 C-12.45 -6.36, -62.78 -32.76, -75.33 -39.55 M-1.55 -0.45 C-14.05 -7.65, -63.99 -34.98, -76.45 -41.44" stroke="#e03131" stroke-width="2" fill="none"></path></g><g transform="translate(1670.9999999999995 303.6666666666663) rotate(0 -37.5 -20)"><path d="M-69.37 -54.66 C-70.34 -52.17, -71.81 -49.3, -76.45 -41.44 M-69.37 -54.66 C-71.02 -51.35, -73.75 -46.72, -76.45 -41.44" stroke="#e03131" stroke-width="2" fill="none"></path></g><g transform="translate(1670.9999999999995 303.6666666666663) rotate(0 -37.5 -20)"><path d="M-83.53 -28.21 C-81.6 -31.52, -79.96 -34.46, -76.45 -41.44 M-83.53 -28.21 C-81.4 -32.27, -80.27 -34.87, -76.45 -41.44" stroke="#e03131" stroke-width="2" fill="none"></path></g></g><mask></mask><g stroke-linecap="round"><g transform="translate(2263.6666666666656 303.6666666666663) rotate(0 -54.16666666666697 -39.16666666666674)"><path d="M0.73 0.15 C-17.13 -12.95, -89.43 -65.25, -107.47 -78.37 M-0.34 -0.82 C-18.26 -13.73, -90.05 -64.1, -107.97 -76.85" stroke="#e03131" stroke-width="2" fill="none"></path></g><g transform="translate(2263.6666666666656 303.6666666666663) rotate(0 -54.16666666666697 -39.16666666666674)"><path d="M-83.85 -70.28 C-90.28 -70.52, -97.24 -72.39, -107.97 -76.85 M-83.85 -70.28 C-90.26 -72.91, -97.62 -73.86, -107.97 -76.85" stroke="#e03131" stroke-width="2" fill="none"></path></g><g transform="translate(2263.6666666666656 303.6666666666663) rotate(0 -54.16666666666697 -39.16666666666674)"><path d="M-93.72 -56.31 C-97.44 -60.46, -101.68 -66.19, -107.97 -76.85 M-93.72 -56.31 C-97.47 -62.78, -102.06 -67.67, -107.97 -76.85" stroke="#e03131" stroke-width="2" fill="none"></path></g></g><mask></mask><g stroke-linecap="round"><g transform="translate(2853.3333333333317 307.33333333333303) rotate(0 -54.16666666666697 -39.16666666666674)"><path d="M-1.07 1.05 C-19.28 -12, -90.19 -65.9, -108.09 -79.18 M0.57 0.55 C-17.89 -12.29, -90.59 -65.08, -108.91 -78.08" stroke="#e03131" stroke-width="2" fill="none"></path></g><g transform="translate(2853.3333333333317 307.33333333333303) rotate(0 -54.16666666666697 -39.16666666666674)"><path d="M-84.84 -71.32 C-92.64 -73.82, -105.39 -77.18, -108.91 -78.08 M-84.84 -71.32 C-90.76 -73.21, -98.31 -75.94, -108.91 -78.08" stroke="#e03131" stroke-width="2" fill="none"></path></g><g transform="translate(2853.3333333333317 307.33333333333303) rotate(0 -54.16666666666697 -39.16666666666674)"><path d="M-94.82 -57.43 C-98.54 -65.38, -107.31 -74.28, -108.91 -78.08 M-94.82 -57.43 C-97.89 -63.15, -102.67 -69.72, -108.91 -78.08" stroke="#e03131" stroke-width="2" fill="none"></path></g></g><mask></mask><g stroke-linecap="round"><g transform="translate(1609.3333333333326 241.99999999999955) rotate(0 36.666666666666515 22.5)"><path d="M0.94 0.6 C13.32 8, 62.53 37.61, 74.41 45.03 M-0.03 -0.14 C12.28 7.42, 61.6 38.81, 74.03 46.58" stroke="#e03131" stroke-width="2" fill="none"></path></g><g transform="translate(1609.3333333333326 241.99999999999955) rotate(0 36.666666666666515 22.5)"><path d="M49.6 41.27 C58.24 44.54, 64.91 42.56, 74.03 46.58 M49.6 41.27 C57.56 41.99, 65.06 44.79, 74.03 46.58" stroke="#e03131" stroke-width="2" fill="none"></path></g><g transform="translate(1609.3333333333326 241.99999999999955) rotate(0 36.666666666666515 22.5)"><path d="M58.73 26.81 C64.59 34.66, 68.41 37.19, 74.03 46.58 M58.73 26.81 C64.02 32.02, 68.72 39.27, 74.03 46.58" stroke="#e03131" stroke-width="2" fill="none"></path></g></g><mask></mask><g stroke-linecap="round"><g transform="translate(2168.6666666666656 208.66666666666606) rotate(0 52.499999999999545 39.16666666666674)"><path d="M0.15 0.86 C17.61 13.93, 87.53 66.06, 104.96 79.15 M-1.24 0.26 C16.05 12.94, 86.47 64.56, 104 77.46" stroke="#e03131" stroke-width="2" fill="none"></path></g><g transform="translate(2168.6666666666656 208.66666666666606) rotate(0 52.499999999999545 39.16666666666674)"><path d="M80 70.45 C89.07 72.58, 96.59 74.49, 104 77.46 M80 70.45 C88.77 72.97, 99.05 76.04, 104 77.46" stroke="#e03131" stroke-width="2" fill="none"></path></g><g transform="translate(2168.6666666666656 208.66666666666606) rotate(0 52.499999999999545 39.16666666666674)"><path d="M90.12 56.67 C96.07 63.17, 100.4 69.44, 104 77.46 M90.12 56.67 C94.81 64.62, 101.13 73.08, 104 77.46" stroke="#e03131" stroke-width="2" fill="none"></path></g></g><mask></mask><g stroke-linecap="round"><g transform="translate(2758.3333333333317 212.3333333333328) rotate(0 52.499999999999545 39.16666666666674)"><path d="M1.05 0.24 C18.55 13.45, 86.88 65.29, 104.16 78.18 M0.14 -0.67 C18.1 12.82, 89.15 66.44, 106.43 79.64" stroke="#e03131" stroke-width="2" fill="none"></path></g><g transform="translate(2758.3333333333317 212.3333333333328) rotate(0 52.499999999999545 39.16666666666674)"><path d="M82.54 72.26 C88.32 72.33, 93.11 74.95, 106.43 79.64 M82.54 72.26 C88.21 73.66, 93 75.26, 106.43 79.64" stroke="#e03131" stroke-width="2" fill="none"></path></g><g transform="translate(2758.3333333333317 212.3333333333328) rotate(0 52.499999999999545 39.16666666666674)"><path d="M92.88 58.63 C96.18 61.89, 98.61 67.63, 106.43 79.64 M92.88 58.63 C96.07 63.33, 98.42 68.15, 106.43 79.64" stroke="#e03131" stroke-width="2" fill="none"></path></g></g><mask></mask></svg>