<svg version="1.1" xmlns="http://www.w3.org/2000/svg" viewBox="0 0 1294.0000000000005 651" width="1294.0000000000005" height="651">
  <!-- svg-source:excalidraw -->
  
  <defs>
    <style class="style-fonts">
      @font-face {
        font-family: "Virgil";
        src: url("https://excalidraw.com/Virgil.woff2");
      }
      @font-face {
        font-family: "Cascadia";
        src: url("https://excalidraw.com/Cascadia.woff2");
      }
      @font-face {
        font-family: "Assistant";
        src: url("https://excalidraw.com/Assistant-Regular.woff2");
      }
    </style>
    
  </defs>
  <g stroke-linecap="round" transform="translate(10 10) rotate(0 637.0000000000002 315.5)"><path d="M32 0 C512.59 2.56, 990.24 3.92, 1242 0 C1265.63 2.84, 1273.71 10.6, 1274 32 C1276.28 237.26, 1278.32 442.02, 1274 599 C1273.16 622, 1266.83 628.35, 1242 631 C760.22 638.8, 281.68 638.89, 32 631 C11.5 628.28, -3.45 622.91, 0 599 C-3.73 442.31, -3.26 286.82, 0 32 C-1.99 12.4, 8.29 -2.26, 32 0" stroke="none" stroke-width="0" fill="#ffffff"></path><path d="M32 0 C363.6 3.35, 695.15 3.98, 1242 0 M32 0 C496.25 3.9, 960.77 4.07, 1242 0 M1242 0 C1263.89 -1.89, 1274.29 11.86, 1274 32 M1242 0 C1265.47 1.59, 1272.77 11.79, 1274 32 M1274 32 C1272.27 254.86, 1271.91 478.21, 1274 599 M1274 32 C1274.65 213.25, 1274.66 395.63, 1274 599 M1274 599 C1272.03 619.51, 1263.25 629.36, 1242 631 M1274 599 C1275.34 620.37, 1265.47 630.02, 1242 631 M1242 631 C779.48 631.71, 316.59 631.94, 32 631 M1242 631 C916.78 629.54, 591.83 629.97, 32 631 M32 631 C12.25 631.11, 1.35 618.4, 0 599 M32 631 C9.11 629.78, -0.49 621.14, 0 599 M0 599 C0.65 407.93, -0.03 219, 0 32 M0 599 C-1.34 427.72, -1.27 256.57, 0 32 M0 32 C1.32 12.53, 11.73 1.45, 32 0 M0 32 C1.16 12.44, 11.73 1.76, 32 0" stroke="#1e1e1e" stroke-width="2" fill="none"></path></g><g stroke-linecap="round"><g transform="translate(71 325) rotate(0 575.0000000000002 -4)"><path d="M0.81 -0.84 C192.55 -2.34, 959.05 -6.9, 1150.56 -8.17 M-0.23 1.33 C191.4 -0.05, 958.36 -5.27, 1149.91 -6.72" stroke="#1e1e1e" stroke-width="2" fill="none"></path></g></g><mask></mask><g stroke-linecap="round"><g transform="translate(340 63) rotate(0 4 266)"><path d="M0.84 1.04 C2.28 89.45, 7.42 442.9, 8.64 531.46 M-0.18 0.54 C1.16 89.63, 6.75 444.42, 8.03 532.71" stroke="#1e1e1e" stroke-width="2" fill="none"></path></g></g><mask></mask><g stroke-linecap="round"><g transform="translate(641 63) rotate(0 4 265)"><path d="M-1.07 -0.37 C0.18 87.62, 6.11 440.67, 7.77 529.02 M0.56 -1.61 C1.61 87.01, 5.36 441.29, 6.7 530.05" stroke="#1e1e1e" stroke-width="2" fill="none"></path></g></g><mask></mask><g stroke-linecap="round"><g transform="translate(942.0000000000005 58) rotate(0 5 266)"><path d="M-0.37 0.28 C1.22 88.86, 7.2 443.77, 8.86 532.38 M1.63 -0.62 C3.65 87.5, 9.81 441.48, 10.98 530.45" stroke="#1e1e1e" stroke-width="2" fill="none"></path></g></g><mask></mask><g stroke-linecap="round"><g transform="translate(94.38084065502107 595.6042584697043) rotate(0 104 -0.5)"><path d="M0 0 C56.25 0.36, 108.98 0.39, 208 -1 M0 0 C75.2 -0.61, 151.74 -0.9, 208 -1" stroke="#e03131" stroke-width="2" fill="none"></path></g><g transform="translate(94.38084065502107 595.6042584697043) rotate(0 104 -0.5)"><path d="M184.53 7.61 C192.26 5.04, 196.05 3.1, 208 -1 M184.53 7.61 C192.4 4.52, 201.72 1.47, 208 -1" stroke="#e03131" stroke-width="2" fill="none"></path></g><g transform="translate(94.38084065502107 595.6042584697043) rotate(0 104 -0.5)"><path d="M184.49 -9.49 C192.31 -7.55, 196.12 -4.98, 208 -1 M184.49 -9.49 C192.21 -6.34, 201.54 -3.15, 208 -1" stroke="#e03131" stroke-width="2" fill="none"></path></g></g><mask></mask><g stroke-linecap="round"><g transform="translate(90.38084065502107 305.6042584697043) rotate(0 104 -0.5)"><path d="M0 0 C63.89 -0.9, 129.66 -1.45, 208 -1 M0 0 C66.83 1.44, 132.6 0.36, 208 -1" stroke="#e03131" stroke-width="2" fill="none"></path></g><g transform="translate(90.38084065502107 305.6042584697043) rotate(0 104 -0.5)"><path d="M184.65 7.94 C190.43 3.74, 198.34 0.67, 208 -1 M184.65 7.94 C192.51 5.48, 199.22 1.77, 208 -1" stroke="#e03131" stroke-width="2" fill="none"></path></g><g transform="translate(90.38084065502107 305.6042584697043) rotate(0 104 -0.5)"><path d="M184.37 -9.16 C190.25 -7.99, 198.26 -5.7, 208 -1 M184.37 -9.16 C192.44 -6.16, 199.25 -4.41, 208 -1" stroke="#e03131" stroke-width="2" fill="none"></path></g></g><mask></mask><g stroke-linecap="round"><g transform="translate(399.3808406550211 597.6042584697043) rotate(0 104 -0.5)"><path d="M0 0 C78.15 -3.59, 155.44 -1.07, 208 -1 M0 0 C72.94 1.83, 145.08 1.46, 208 -1" stroke="#e03131" stroke-width="2" fill="none"></path></g><g transform="translate(399.3808406550211 597.6042584697043) rotate(0 104 -0.5)"><path d="M184.76 8.2 C194.25 2.8, 202.78 2.63, 208 -1 M184.76 8.2 C193.39 5.81, 201.14 2.58, 208 -1" stroke="#e03131" stroke-width="2" fill="none"></path></g><g transform="translate(399.3808406550211 597.6042584697043) rotate(0 104 -0.5)"><path d="M184.28 -8.89 C193.97 -7.94, 202.68 -1.75, 208 -1 M184.28 -8.89 C193.09 -5.32, 201 -2.6, 208 -1" stroke="#e03131" stroke-width="2" fill="none"></path></g></g><mask></mask><g stroke-linecap="round"><g transform="translate(395.3808406550211 307.6042584697043) rotate(0 104 -0.5)"><path d="M0 0 C63.54 0.27, 128.15 1.14, 208 -1 M0 0 C78.08 -1.48, 155.22 -1.34, 208 -1" stroke="#e03131" stroke-width="2" fill="none"></path></g><g transform="translate(395.3808406550211 307.6042584697043) rotate(0 104 -0.5)"><path d="M184.47 7.46 C190.36 4.05, 197.43 2.75, 208 -1 M184.47 7.46 C193.55 3.9, 201.51 1.32, 208 -1" stroke="#e03131" stroke-width="2" fill="none"></path></g><g transform="translate(395.3808406550211 307.6042584697043) rotate(0 104 -0.5)"><path d="M184.54 -9.64 C190.34 -7.72, 197.38 -3.69, 208 -1 M184.54 -9.64 C193.44 -6.79, 201.37 -2.97, 208 -1" stroke="#e03131" stroke-width="2" fill="none"></path></g></g><mask></mask><g stroke-linecap="round"><g transform="translate(701.3808406550211 596.6042584697043) rotate(0 104 -0.5)"><path d="M0 0 C54.53 -0.07, 106.28 0.82, 208 -1 M0 0 C63.92 1.22, 126.24 0.15, 208 -1" stroke="#e03131" stroke-width="2" fill="none"></path></g><g transform="translate(701.3808406550211 596.6042584697043) rotate(0 104 -0.5)"><path d="M184.63 7.88 C191.9 4.18, 196.1 3.19, 208 -1 M184.63 7.88 C192.59 5.96, 198.77 2.4, 208 -1" stroke="#e03131" stroke-width="2" fill="none"></path></g><g transform="translate(701.3808406550211 596.6042584697043) rotate(0 104 -0.5)"><path d="M184.39 -9.22 C191.87 -8.53, 196.13 -5.14, 208 -1 M184.39 -9.22 C192.5 -5.95, 198.75 -4.32, 208 -1" stroke="#e03131" stroke-width="2" fill="none"></path></g></g><mask></mask><g stroke-linecap="round"><g transform="translate(697.3808406550211 306.6042584697043) rotate(0 104 -0.5)"><path d="M0 0 C53.28 -0.44, 108.59 2.17, 208 -1 M0 0 C44.22 -1.15, 89.2 -0.85, 208 -1" stroke="#e03131" stroke-width="2" fill="none"></path></g><g transform="translate(697.3808406550211 306.6042584697043) rotate(0 104 -0.5)"><path d="M184.51 7.57 C189.74 3.76, 197.19 4.77, 208 -1 M184.51 7.57 C189.22 5.03, 194.83 3.78, 208 -1" stroke="#e03131" stroke-width="2" fill="none"></path></g><g transform="translate(697.3808406550211 306.6042584697043) rotate(0 104 -0.5)"><path d="M184.5 -9.53 C189.6 -8.89, 197.05 -3.43, 208 -1 M184.5 -9.53 C189.29 -8.42, 194.9 -6.01, 208 -1" stroke="#e03131" stroke-width="2" fill="none"></path></g></g><mask></mask><g stroke-linecap="round"><g transform="translate(1004.3808406550211 594.6042584697043) rotate(0 104 -0.5)"><path d="M0 0 C68.22 0.94, 131.97 -1.55, 208 -1 M0 0 C57.88 0.03, 114.66 -0.43, 208 -1" stroke="#e03131" stroke-width="2" fill="none"></path></g><g transform="translate(1004.3808406550211 594.6042584697043) rotate(0 104 -0.5)"><path d="M184.56 7.7 C193.8 6.41, 197.95 1.17, 208 -1 M184.56 7.7 C191.92 4.87, 198.03 2.28, 208 -1" stroke="#e03131" stroke-width="2" fill="none"></path></g><g transform="translate(1004.3808406550211 594.6042584697043) rotate(0 104 -0.5)"><path d="M184.45 -9.4 C193.64 -5.2, 197.82 -4.96, 208 -1 M184.45 -9.4 C191.79 -7.54, 197.93 -5.44, 208 -1" stroke="#e03131" stroke-width="2" fill="none"></path></g></g><mask></mask><g stroke-linecap="round"><g transform="translate(1000.3808406550211 304.6042584697043) rotate(0 104 -0.5)"><path d="M0 0 C44.84 1, 94.1 -1.1, 208 -1 M0 0 C71.54 0.44, 144.2 0.42, 208 -1" stroke="#e03131" stroke-width="2" fill="none"></path></g><g transform="translate(1000.3808406550211 304.6042584697043) rotate(0 104 -0.5)"><path d="M184.64 7.91 C188.17 6.42, 196.62 2.32, 208 -1 M184.64 7.91 C192.06 5.2, 200.75 2.47, 208 -1" stroke="#e03131" stroke-width="2" fill="none"></path></g><g transform="translate(1000.3808406550211 304.6042584697043) rotate(0 104 -0.5)"><path d="M184.38 -9.19 C187.83 -6.86, 196.34 -7.15, 208 -1 M184.38 -9.19 C191.92 -5.97, 200.7 -2.77, 208 -1" stroke="#e03131" stroke-width="2" fill="none"></path></g></g><mask></mask><g stroke-linecap="round"><g transform="translate(324.3808406550211 557.6042584697043) rotate(0 -1 -88)"><path d="M0 0 C-0.43 -36.46, 0.14 -73.29, -2 -176 M0 0 C-1.52 -53.08, -2.48 -104.25, -2 -176" stroke="#1e1e1e" stroke-width="2" fill="none"></path></g><g transform="translate(324.3808406550211 557.6042584697043) rotate(0 -1 -88)"><path d="M6.52 -152.5 C3.35 -157.86, 2.59 -163.58, -2 -176 M6.52 -152.5 C4.44 -160.19, 1.53 -165.96, -2 -176" stroke="#1e1e1e" stroke-width="2" fill="none"></path></g><g transform="translate(324.3808406550211 557.6042584697043) rotate(0 -1 -88)"><path d="M-10.58 -152.52 C-10.27 -157.83, -7.54 -163.55, -2 -176 M-10.58 -152.52 C-7.57 -160.17, -5.39 -165.93, -2 -176" stroke="#1e1e1e" stroke-width="2" fill="none"></path></g></g><mask></mask><g stroke-linecap="round"><g transform="translate(320.3808406550211 267.6042584697043) rotate(0 -1 -88)"><path d="M0 0 C0.77 -38.25, -1.79 -78.54, -2 -176 M0 0 C0.16 -56.25, -0.11 -111.45, -2 -176" stroke="#1e1e1e" stroke-width="2" fill="none"></path></g><g transform="translate(320.3808406550211 267.6042584697043) rotate(0 -1 -88)"><path d="M7.09 -152.71 C5.54 -156.56, 1.37 -162.37, -2 -176 M7.09 -152.71 C4.57 -160.28, 2.03 -166.74, -2 -176" stroke="#1e1e1e" stroke-width="2" fill="none"></path></g><g transform="translate(320.3808406550211 267.6042584697043) rotate(0 -1 -88)"><path d="M-10 -152.32 C-7.7 -156.1, -8 -162, -2 -176 M-10 -152.32 C-7.07 -159.9, -4.15 -166.49, -2 -176" stroke="#1e1e1e" stroke-width="2" fill="none"></path></g></g><mask></mask><g stroke-linecap="round"><g transform="translate(627.3808406550211 558.6042584697043) rotate(0 -1 -88)"><path d="M0 0 C-3.07 -36.49, -3.15 -68.61, -2 -176 M0 0 C-2.79 -53, -3.63 -105.7, -2 -176" stroke="#1e1e1e" stroke-width="2" fill="none"></path></g><g transform="translate(627.3808406550211 558.6042584697043) rotate(0 -1 -88)"><path d="M6.22 -152.39 C3.01 -158.31, 1.68 -159.87, -2 -176 M6.22 -152.39 C3.07 -159.23, 0.34 -165.77, -2 -176" stroke="#1e1e1e" stroke-width="2" fill="none"></path></g><g transform="translate(627.3808406550211 558.6042584697043) rotate(0 -1 -88)"><path d="M-10.87 -152.63 C-10.66 -158.56, -8.57 -160.08, -2 -176 M-10.87 -152.63 C-8.85 -159.41, -6.4 -165.88, -2 -176" stroke="#1e1e1e" stroke-width="2" fill="none"></path></g></g><mask></mask><g stroke-linecap="round"><g transform="translate(623.3808406550211 268.6042584697043) rotate(0 -1 -88)"><path d="M0 0 C2.53 -46.16, 1.47 -88.5, -2 -176 M0 0 C0.55 -47.26, 0.97 -96.7, -2 -176" stroke="#1e1e1e" stroke-width="2" fill="none"></path></g><g transform="translate(623.3808406550211 268.6042584697043) rotate(0 -1 -88)"><path d="M7.22 -152.76 C6.59 -160.34, 3.7 -164.1, -2 -176 M7.22 -152.76 C4.79 -158.39, 3.24 -166.2, -2 -176" stroke="#1e1e1e" stroke-width="2" fill="none"></path></g><g transform="translate(623.3808406550211 268.6042584697043) rotate(0 -1 -88)"><path d="M-9.87 -152.27 C-6.18 -160, -4.75 -163.89, -2 -176 M-9.87 -152.27 C-7.64 -158.08, -4.53 -166.03, -2 -176" stroke="#1e1e1e" stroke-width="2" fill="none"></path></g></g><mask></mask><g stroke-linecap="round"><g transform="translate(930.3808406550211 563.6042584697043) rotate(0 -1 -88)"><path d="M0 0 C-3.19 -64.68, -0.58 -131.22, -2 -176 M0 0 C-0.15 -54.46, -0.87 -111.17, -2 -176" stroke="#1e1e1e" stroke-width="2" fill="none"></path></g><g transform="translate(930.3808406550211 563.6042584697043) rotate(0 -1 -88)"><path d="M6.93 -152.65 C1.7 -160.62, 1.74 -170.41, -2 -176 M6.93 -152.65 C3.56 -159.02, 0.65 -167.64, -2 -176" stroke="#1e1e1e" stroke-width="2" fill="none"></path></g><g transform="translate(930.3808406550211 563.6042584697043) rotate(0 -1 -88)"><path d="M-10.17 -152.37 C-9.05 -160.34, -2.65 -170.23, -2 -176 M-10.17 -152.37 C-8.15 -158.82, -5.67 -167.52, -2 -176" stroke="#1e1e1e" stroke-width="2" fill="none"></path></g></g><mask></mask><g stroke-linecap="round"><g transform="translate(926.3808406550211 273.6042584697043) rotate(0 -1 -88)"><path d="M0 0 C-2.49 -36.43, -0.81 -75.3, -2 -176 M0 0 C-0.34 -40.23, -2.29 -82.25, -2 -176" stroke="#1e1e1e" stroke-width="2" fill="none"></path></g><g transform="translate(926.3808406550211 273.6042584697043) rotate(0 -1 -88)"><path d="M6.63 -152.54 C3.03 -156.52, 3.3 -162.99, -2 -176 M6.63 -152.54 C5.22 -157.13, 1.72 -163.52, -2 -176" stroke="#1e1e1e" stroke-width="2" fill="none"></path></g><g transform="translate(926.3808406550211 273.6042584697043) rotate(0 -1 -88)"><path d="M-10.47 -152.48 C-10.44 -156.6, -6.54 -163.08, -2 -176 M-10.47 -152.48 C-7.89 -157.08, -7.39 -163.48, -2 -176" stroke="#1e1e1e" stroke-width="2" fill="none"></path></g></g><mask></mask><g stroke-linecap="round"><g transform="translate(1223.380840655021 562.6042584697043) rotate(0 -1 -88)"><path d="M0 0 C0.73 -66.99, -2.25 -137.08, -2 -176 M0 0 C-0.61 -36.26, -0.08 -72.78, -2 -176" stroke="#1e1e1e" stroke-width="2" fill="none"></path></g><g transform="translate(1223.380840655021 562.6042584697043) rotate(0 -1 -88)"><path d="M6.91 -152.64 C4.89 -160.96, -0.74 -172.32, -2 -176 M6.91 -152.64 C4.74 -157.13, 3.84 -161.9, -2 -176" stroke="#1e1e1e" stroke-width="2" fill="none"></path></g><g transform="translate(1223.380840655021 562.6042584697043) rotate(0 -1 -88)"><path d="M-10.19 -152.38 C-5.63 -160.66, -4.68 -172.12, -2 -176 M-10.19 -152.38 C-8.8 -156.98, -6.15 -161.8, -2 -176" stroke="#1e1e1e" stroke-width="2" fill="none"></path></g></g><mask></mask><g stroke-linecap="round"><g transform="translate(1219.380840655021 272.6042584697043) rotate(0 -1 -88)"><path d="M0 0 C-1.01 -55.84, -3.14 -113.76, -2 -176 M0 0 C0.36 -59.09, -1.21 -116.13, -2 -176" stroke="#1e1e1e" stroke-width="2" fill="none"></path></g><g transform="translate(1219.380840655021 272.6042584697043) rotate(0 -1 -88)"><path d="M6.92 -152.65 C4.84 -159.8, 0.5 -168.97, -2 -176 M6.92 -152.65 C4.88 -161.13, 1.01 -167.61, -2 -176" stroke="#1e1e1e" stroke-width="2" fill="none"></path></g><g transform="translate(1219.380840655021 272.6042584697043) rotate(0 -1 -88)"><path d="M-10.17 -152.37 C-6.8 -159.47, -5.68 -168.72, -2 -176 M-10.17 -152.37 C-6.56 -161.06, -4.76 -167.63, -2 -176" stroke="#1e1e1e" stroke-width="2" fill="none"></path></g></g><mask></mask><g stroke-linecap="round"><g transform="translate(288.3808406550211 346.6042584697043) rotate(0 -95.5 0.5)"><path d="M0 0 C-71.34 -0.47, -142.55 1.1, -191 1 M0 0 C-72.66 -0.07, -145.21 0.22, -191 1" stroke="#1e1e1e" stroke-width="2" fill="none"></path></g><g transform="translate(288.3808406550211 346.6042584697043) rotate(0 -95.5 0.5)"><path d="M-167.61 -7.83 C-175.92 -5.92, -184.05 -1.41, -191 1 M-167.61 -7.83 C-176.99 -5.18, -186.2 -1.93, -191 1" stroke="#1e1e1e" stroke-width="2" fill="none"></path></g><g transform="translate(288.3808406550211 346.6042584697043) rotate(0 -95.5 0.5)"><path d="M-167.41 9.27 C-175.69 4.74, -183.9 2.82, -191 1 M-167.41 9.27 C-176.73 5.46, -186.02 2.24, -191 1" stroke="#1e1e1e" stroke-width="2" fill="none"></path></g></g><mask></mask><g stroke-linecap="round"><g transform="translate(284.3808406550211 56.60425846970429) rotate(0 -95.5 0.5)"><path d="M0 0 C-71.16 0.72, -144.4 2.27, -191 1 M0 0 C-56.65 1.98, -111.24 2.25, -191 1" stroke="#1e1e1e" stroke-width="2" fill="none"></path></g><g transform="translate(284.3808406550211 56.60425846970429) rotate(0 -95.5 0.5)"><path d="M-167.42 -7.3 C-175.94 -4.63, -186.48 -0.35, -191 1 M-167.42 -7.3 C-175.06 -4.68, -180.71 -2.27, -191 1" stroke="#1e1e1e" stroke-width="2" fill="none"></path></g><g transform="translate(284.3808406550211 56.60425846970429) rotate(0 -95.5 0.5)"><path d="M-167.6 9.8 C-175.91 6.07, -186.38 3.94, -191 1 M-167.6 9.8 C-175.31 7.42, -180.9 4.83, -191 1" stroke="#1e1e1e" stroke-width="2" fill="none"></path></g></g><mask></mask><g stroke-linecap="round"><g transform="translate(586.3808406550211 346.6042584697043) rotate(0 -94 0.5)"><path d="M0 0 C-51.81 -0.89, -106.45 0.47, -188 1 M0 0 C-58.68 -1.04, -115.56 -0.14, -188 1" stroke="#1e1e1e" stroke-width="2" fill="none"></path></g><g transform="translate(586.3808406550211 346.6042584697043) rotate(0 -94 0.5)"><path d="M-164.64 -7.9 C-169.37 -6.95, -176.98 -3.33, -188 1 M-164.64 -7.9 C-172.75 -5.91, -179.08 -2.58, -188 1" stroke="#1e1e1e" stroke-width="2" fill="none"></path></g><g transform="translate(586.3808406550211 346.6042584697043) rotate(0 -94 0.5)"><path d="M-164.38 9.2 C-169.3 5.26, -176.99 4, -188 1 M-164.38 9.2 C-172.6 5.94, -179 4.02, -188 1" stroke="#1e1e1e" stroke-width="2" fill="none"></path></g></g><mask></mask><g stroke-linecap="round"><g transform="translate(582.3808406550211 56.60425846970429) rotate(0 -94 0.5)"><path d="M0 0 C-40.74 -0.75, -79.75 0.63, -188 1 M0 0 C-69.14 -0.7, -138.29 -0.27, -188 1" stroke="#1e1e1e" stroke-width="2" fill="none"></path></g><g transform="translate(582.3808406550211 56.60425846970429) rotate(0 -94 0.5)"><path d="M-164.67 -7.98 C-170.17 -7.34, -173.98 -4.25, -188 1 M-164.67 -7.98 C-173.18 -4.42, -181.78 -1.05, -188 1" stroke="#1e1e1e" stroke-width="2" fill="none"></path></g><g transform="translate(582.3808406550211 56.60425846970429) rotate(0 -94 0.5)"><path d="M-164.35 9.12 C-170 6.1, -173.88 5.54, -188 1 M-164.35 9.12 C-173.14 6.39, -181.85 3.47, -188 1" stroke="#1e1e1e" stroke-width="2" fill="none"></path></g></g><mask></mask><g stroke-linecap="round"><g transform="translate(886.3808406550211 343.6042584697043) rotate(0 -94 0.5)"><path d="M0 0 C-39.5 1.15, -74.96 0.18, -188 1 M0 0 C-46.24 1.42, -92.7 1.69, -188 1" stroke="#1e1e1e" stroke-width="2" fill="none"></path></g><g transform="translate(886.3808406550211 343.6042584697043) rotate(0 -94 0.5)"><path d="M-164.47 -7.44 C-170.27 -5.37, -172.07 -4.82, -188 1 M-164.47 -7.44 C-170.43 -5.23, -176.61 -3.13, -188 1" stroke="#1e1e1e" stroke-width="2" fill="none"></path></g><g transform="translate(886.3808406550211 343.6042584697043) rotate(0 -94 0.5)"><path d="M-164.55 9.66 C-170.44 8.23, -172.22 5.28, -188 1 M-164.55 9.66 C-170.48 7.68, -176.64 5.59, -188 1" stroke="#1e1e1e" stroke-width="2" fill="none"></path></g></g><mask></mask><g stroke-linecap="round"><g transform="translate(882.3808406550211 53.60425846970429) rotate(0 -94 0.5)"><path d="M0 0 C-66.52 0.45, -130.55 1.53, -188 1 M0 0 C-72.73 0.32, -145.83 0.6, -188 1" stroke="#1e1e1e" stroke-width="2" fill="none"></path></g><g transform="translate(882.3808406550211 53.60425846970429) rotate(0 -94 0.5)"><path d="M-164.57 -7.72 C-174.01 -4.14, -180.96 -0.38, -188 1 M-164.57 -7.72 C-173.31 -4.36, -182.37 -1.08, -188 1" stroke="#1e1e1e" stroke-width="2" fill="none"></path></g><g transform="translate(882.3808406550211 53.60425846970429) rotate(0 -94 0.5)"><path d="M-164.45 9.38 C-173.96 7.03, -180.95 4.86, -188 1 M-164.45 9.38 C-173.1 6.08, -182.2 2.71, -188 1" stroke="#1e1e1e" stroke-width="2" fill="none"></path></g></g><mask></mask><g stroke-linecap="round"><g transform="translate(1190.380840655021 336.6042584697043) rotate(0 -94 0.5)"><path d="M0 0 C-49.57 1.87, -98.54 -0.08, -188 1 M0 0 C-51.21 0.51, -102.74 -0.32, -188 1" stroke="#1e1e1e" stroke-width="2" fill="none"></path></g><g transform="translate(1190.380840655021 336.6042584697043) rotate(0 -94 0.5)"><path d="M-164.6 -7.79 C-171.17 -4.24, -177.18 -4.16, -188 1 M-164.6 -7.79 C-170.51 -5.09, -176.76 -3.79, -188 1" stroke="#1e1e1e" stroke-width="2" fill="none"></path></g><g transform="translate(1190.380840655021 336.6042584697043) rotate(0 -94 0.5)"><path d="M-164.42 9.31 C-171.12 8.39, -177.18 4.01, -188 1 M-164.42 9.31 C-170.4 7.3, -176.7 3.9, -188 1" stroke="#1e1e1e" stroke-width="2" fill="none"></path></g></g><mask></mask><g stroke-linecap="round"><g transform="translate(1186.380840655021 46.60425846970429) rotate(0 -94 0.5)"><path d="M0 0 C-59.37 -1.08, -118.63 1.17, -188 1 M0 0 C-41.28 1.57, -82.64 0.51, -188 1" stroke="#1e1e1e" stroke-width="2" fill="none"></path></g><g transform="translate(1186.380840655021 46.60425846970429) rotate(0 -94 0.5)"><path d="M-164.52 -7.59 C-171.41 -5.16, -178.18 -0.48, -188 1 M-164.52 -7.59 C-169.71 -5.09, -174.97 -4.48, -188 1" stroke="#1e1e1e" stroke-width="2" fill="none"></path></g><g transform="translate(1186.380840655021 46.60425846970429) rotate(0 -94 0.5)"><path d="M-164.49 9.51 C-171.35 6.49, -178.12 5.71, -188 1 M-164.49 9.51 C-169.68 8.26, -174.95 5.11, -188 1" stroke="#1e1e1e" stroke-width="2" fill="none"></path></g></g><mask></mask><g stroke-linecap="round"><g transform="translate(71.38084065502107 377.6042584697043) rotate(0 1 92)"><path d="M0 0 C1.6 68.85, 4.65 138.06, 2 184 M0 0 C-0.63 71.14, 0.84 143.58, 2 184" stroke="#e03131" stroke-width="2" fill="none"></path></g><g transform="translate(71.38084065502107 377.6042584697043) rotate(0 1 92)"><path d="M-7.11 160.72 C-3.9 169.38, 1.81 178.46, 2 184 M-7.11 160.72 C-4.02 169.09, 0.23 178.71, 2 184" stroke="#e03131" stroke-width="2" fill="none"></path></g><g transform="translate(71.38084065502107 377.6042584697043) rotate(0 1 92)"><path d="M9.98 160.31 C6.81 169.28, 6.12 178.51, 2 184 M9.98 160.31 C6.39 168.73, 3.96 178.51, 2 184" stroke="#e03131" stroke-width="2" fill="none"></path></g></g><mask></mask><g stroke-linecap="round"><g transform="translate(67.38084065502107 87.60425846970429) rotate(0 1 92)"><path d="M0 0 C-0.83 51.48, 1.65 98.64, 2 184 M0 0 C1.93 54.75, 1.25 108.91, 2 184" stroke="#e03131" stroke-width="2" fill="none"></path></g><g transform="translate(67.38084065502107 87.60425846970429) rotate(0 1 92)"><path d="M-6.7 160.56 C-4.64 168.28, -0.33 171.69, 2 184 M-6.7 160.56 C-3.49 167.41, -2.17 173.66, 2 184" stroke="#e03131" stroke-width="2" fill="none"></path></g><g transform="translate(67.38084065502107 87.60425846970429) rotate(0 1 92)"><path d="M10.4 160.45 C7.8 168.25, 7.45 171.7, 2 184 M10.4 160.45 C8.51 167.33, 4.73 173.61, 2 184" stroke="#e03131" stroke-width="2" fill="none"></path></g></g><mask></mask><g stroke-linecap="round"><g transform="translate(364.3808406550211 379.6042584697043) rotate(0 1 92)"><path d="M0 0 C-0.98 42.51, 3.25 86.82, 2 184 M0 0 C0.32 39.72, 0.64 78.12, 2 184" stroke="#e03131" stroke-width="2" fill="none"></path></g><g transform="translate(364.3808406550211 379.6042584697043) rotate(0 1 92)"><path d="M-6.84 160.61 C-6.66 165.67, -0.83 172.47, 2 184 M-6.84 160.61 C-4.58 166.59, -2.82 171.19, 2 184" stroke="#e03131" stroke-width="2" fill="none"></path></g><g transform="translate(364.3808406550211 379.6042584697043) rotate(0 1 92)"><path d="M10.26 160.4 C6.45 165.36, 8.28 172.22, 2 184 M10.26 160.4 C8.92 166.27, 7.08 170.91, 2 184" stroke="#e03131" stroke-width="2" fill="none"></path></g></g><mask></mask><g stroke-linecap="round"><g transform="translate(360.3808406550211 89.60425846970429) rotate(0 1 92)"><path d="M0 0 C2.4 44.77, -0.1 85.94, 2 184 M0 0 C0.48 62.63, 0.43 126.33, 2 184" stroke="#e03131" stroke-width="2" fill="none"></path></g><g transform="translate(360.3808406550211 89.60425846970429) rotate(0 1 92)"><path d="M-7 160.68 C-3.47 167.92, -4.34 171.55, 2 184 M-7 160.68 C-4.06 167.9, -1.69 176.22, 2 184" stroke="#e03131" stroke-width="2" fill="none"></path></g><g transform="translate(360.3808406550211 89.60425846970429) rotate(0 1 92)"><path d="M10.09 160.35 C9.63 167.65, 4.77 171.36, 2 184 M10.09 160.35 C7.15 167.77, 3.62 176.21, 2 184" stroke="#e03131" stroke-width="2" fill="none"></path></g></g><mask></mask><g stroke-linecap="round"><g transform="translate(663.3808406550211 380.6042584697043) rotate(0 1 92)"><path d="M0 0 C-1.11 43.56, 0.93 89.83, 2 184 M0 0 C-2.05 43.11, -1.19 84.44, 2 184" stroke="#e03131" stroke-width="2" fill="none"></path></g><g transform="translate(663.3808406550211 380.6042584697043) rotate(0 1 92)"><path d="M-7.24 160.77 C-6.62 165.09, -2.81 172.12, 2 184 M-7.24 160.77 C-6.15 166.83, -3.62 171.17, 2 184" stroke="#e03131" stroke-width="2" fill="none"></path></g><g transform="translate(663.3808406550211 380.6042584697043) rotate(0 1 92)"><path d="M9.85 160.27 C6.3 164.68, 5.93 171.84, 2 184 M9.85 160.27 C7.01 166.58, 5.6 171.03, 2 184" stroke="#e03131" stroke-width="2" fill="none"></path></g></g><mask></mask><g stroke-linecap="round"><g transform="translate(659.3808406550211 90.60425846970429) rotate(0 1 92)"><path d="M0 0 C2.31 59.32, 1.15 122.77, 2 184 M0 0 C0.76 53.7, 1.64 110.08, 2 184" stroke="#e03131" stroke-width="2" fill="none"></path></g><g transform="translate(659.3808406550211 90.60425846970429) rotate(0 1 92)"><path d="M-6.72 160.57 C-2.06 166.66, -0.99 176.92, 2 184 M-6.72 160.57 C-4.78 166.65, -1.91 175.39, 2 184" stroke="#e03131" stroke-width="2" fill="none"></path></g><g transform="translate(659.3808406550211 90.60425846970429) rotate(0 1 92)"><path d="M10.38 160.45 C9.37 166.69, 4.78 177, 2 184 M10.38 160.45 C7.25 166.53, 5.04 175.31, 2 184" stroke="#e03131" stroke-width="2" fill="none"></path></g></g><mask></mask><g stroke-linecap="round"><g transform="translate(969.380840655022 384.6042584697043) rotate(0 1 92)"><path d="M0 0 C-0.13 59.1, 1.31 120.41, 2 184 M0 0 C-0.33 62.89, 1.51 126.91, 2 184" stroke="#e03131" stroke-width="2" fill="none"></path></g><g transform="translate(969.380840655022 384.6042584697043) rotate(0 1 92)"><path d="M-6.86 160.62 C-4.26 167.03, -0.57 175.63, 2 184 M-6.86 160.62 C-4.61 168.47, -0.42 177.5, 2 184" stroke="#e03131" stroke-width="2" fill="none"></path></g><g transform="translate(969.380840655022 384.6042584697043) rotate(0 1 92)"><path d="M10.24 160.4 C7.23 166.87, 5.31 175.55, 2 184 M10.24 160.4 C6.64 168.45, 4.97 177.56, 2 184" stroke="#e03131" stroke-width="2" fill="none"></path></g></g><mask></mask><g stroke-linecap="round"><g transform="translate(965.380840655022 94.60425846970429) rotate(0 1 92)"><path d="M0 0 C2.34 68.57, 3.05 136.36, 2 184 M0 0 C-1.33 53.4, -0.68 105.25, 2 184" stroke="#e03131" stroke-width="2" fill="none"></path></g><g transform="translate(965.380840655022 94.60425846970429) rotate(0 1 92)"><path d="M-7.23 160.76 C-3.66 170.28, -0.3 178.95, 2 184 M-7.23 160.76 C-5.26 168.38, -2.55 174.37, 2 184" stroke="#e03131" stroke-width="2" fill="none"></path></g><g transform="translate(965.380840655022 94.60425846970429) rotate(0 1 92)"><path d="M9.87 160.27 C7.15 169.83, 4.23 178.68, 2 184 M9.87 160.27 C6.96 167.87, 4.79 174.01, 2 184" stroke="#e03131" stroke-width="2" fill="none"></path></g></g><mask></mask><g stroke-linecap="round" transform="translate(1077.380840655021 140.6042584697043) rotate(0 3.5 2.5)"><path d="M3.41 -0.27 C4.11 -0.29, 5.58 0.36, 6.15 0.74 C6.72 1.12, 6.83 1.44, 6.83 2.01 C6.83 2.57, 6.58 3.66, 6.14 4.13 C5.71 4.59, 4.86 4.72, 4.23 4.79 C3.59 4.86, 2.95 4.76, 2.3 4.54 C1.65 4.32, 0.68 3.91, 0.33 3.47 C-0.02 3.03, 0.02 2.38, 0.2 1.9 C0.39 1.42, 0.89 0.94, 1.46 0.59 C2.04 0.25, 3.28 -0.11, 3.67 -0.18 C4.05 -0.26, 3.8 0.06, 3.75 0.13 M2.98 0 C3.8 -0.11, 5.19 0.1, 5.89 0.39 C6.59 0.67, 7.09 1.24, 7.18 1.7 C7.27 2.16, 6.7 2.62, 6.41 3.15 C6.12 3.68, 6.01 4.58, 5.44 4.87 C4.88 5.16, 3.83 5.11, 3 4.88 C2.18 4.66, 0.98 3.99, 0.5 3.51 C0.01 3.04, 0.1 2.52, 0.1 2.02 C0.1 1.51, -0.04 0.8, 0.49 0.48 C1.02 0.16, 2.85 0.08, 3.31 0.08 C3.76 0.09, 3.29 0.41, 3.22 0.49" stroke="none" stroke-width="0" fill="#fa5252"></path><path d="M4.04 0.29 C4.75 0.29, 5.45 0.43, 5.92 0.73 C6.4 1.03, 6.8 1.61, 6.9 2.11 C7 2.6, 6.94 3.28, 6.55 3.72 C6.15 4.15, 5.26 4.58, 4.52 4.71 C3.79 4.84, 2.9 4.72, 2.15 4.5 C1.4 4.29, 0.39 3.94, 0.03 3.42 C-0.34 2.91, -0.36 1.96, -0.04 1.42 C0.28 0.88, 1.27 0.39, 1.96 0.2 C2.65 0.01, 3.78 0.26, 4.09 0.3 C4.41 0.34, 3.86 0.4, 3.82 0.42 M3.42 -0.43 C4.1 -0.52, 4.42 0.39, 5.05 0.75 C5.69 1.1, 7.01 1.16, 7.25 1.7 C7.49 2.23, 6.93 3.41, 6.49 3.94 C6.05 4.47, 5.3 4.74, 4.61 4.87 C3.93 4.99, 3.1 4.86, 2.37 4.7 C1.65 4.54, 0.73 4.21, 0.27 3.89 C-0.19 3.56, -0.55 3.33, -0.37 2.75 C-0.19 2.17, 0.73 0.86, 1.34 0.38 C1.96 -0.09, 2.95 -0.01, 3.32 -0.1 C3.69 -0.19, 3.6 -0.16, 3.58 -0.16" stroke="#e03131" stroke-width="2" fill="none"></path></g><g stroke-linecap="round" transform="translate(191.38084065502107 442.6042584697043) rotate(0 2.5 3)"><path d="M2.85 -0.02 C3.41 -0.06, 4.04 0.29, 4.36 0.68 C4.68 1.06, 4.69 1.64, 4.78 2.3 C4.87 2.96, 5.11 4.05, 4.9 4.64 C4.69 5.22, 4.1 5.67, 3.53 5.81 C2.96 5.95, 2 5.75, 1.48 5.49 C0.95 5.22, 0.67 4.78, 0.37 4.23 C0.08 3.69, -0.39 2.81, -0.27 2.23 C-0.16 1.64, 0.57 1.03, 1.06 0.71 C1.55 0.39, 2.42 0.36, 2.65 0.29 C2.88 0.21, 2.42 0.25, 2.45 0.27 M2.35 0.43 C2.82 0.48, 3.66 0.33, 4.11 0.71 C4.55 1.09, 5.02 2.06, 5.04 2.73 C5.05 3.4, 4.48 4.26, 4.17 4.74 C3.87 5.22, 3.73 5.51, 3.2 5.62 C2.66 5.73, 1.45 5.64, 0.95 5.41 C0.46 5.18, 0.39 4.75, 0.23 4.24 C0.08 3.74, -0.16 2.99, 0.02 2.39 C0.21 1.79, 0.88 1.04, 1.35 0.62 C1.83 0.2, 2.66 0.03, 2.88 -0.13 C3.1 -0.29, 2.71 -0.34, 2.67 -0.33" stroke="none" stroke-width="0" fill="#fa5252"></path><path d="M2.51 0.23 C3.03 0.3, 4.18 0.38, 4.57 0.86 C4.96 1.34, 4.92 2.43, 4.86 3.1 C4.8 3.77, 4.56 4.42, 4.23 4.86 C3.9 5.31, 3.42 5.64, 2.9 5.77 C2.38 5.89, 1.61 5.84, 1.12 5.63 C0.63 5.42, 0.09 5.1, -0.04 4.48 C-0.17 3.86, 0.13 2.57, 0.34 1.9 C0.56 1.22, 0.78 0.76, 1.24 0.42 C1.7 0.09, 2.84 -0.03, 3.11 -0.13 C3.37 -0.22, 2.96 -0.2, 2.86 -0.17 M2.21 -0.4 C2.7 -0.44, 4.17 0.45, 4.59 0.91 C5.02 1.37, 4.84 1.66, 4.77 2.35 C4.69 3.03, 4.49 4.47, 4.16 5.03 C3.83 5.59, 3.18 5.66, 2.79 5.71 C2.39 5.77, 2.22 5.64, 1.78 5.38 C1.35 5.11, 0.46 4.63, 0.2 4.11 C-0.06 3.6, 0.09 2.83, 0.23 2.26 C0.38 1.7, 0.71 1.16, 1.09 0.74 C1.48 0.32, 2.28 -0.19, 2.54 -0.28 C2.79 -0.37, 2.67 0.09, 2.61 0.17" stroke="#e03131" stroke-width="2" fill="none"></path></g><g stroke-linecap="round"><g transform="translate(196.38084065502107 444.6042584697043) rotate(0 440.5 -149.5)"><path d="M0 0 C227.6 -74.42, 453 -150.09, 881 -299 M0 0 C197.13 -65.13, 393.89 -131.77, 881 -299" stroke="#e03131" stroke-width="2" fill="none"></path></g></g><mask></mask><g transform="translate(1083.380840655021 159.6042584697043) rotate(0 7.949999809265137 12.5)"><text x="0" y="17.52" font-family="Virgil, Segoe UI Emoji" font-size="20px" fill="#c2255c" text-anchor="start" style="white-space: pre;" direction="ltr" dominant-baseline="alphabetic">v1</text></g><g transform="translate(186.38084065502107 455.6042584697043) rotate(0 12.350000381469727 12.5)"><text x="0" y="17.52" font-family="Virgil, Segoe UI Emoji" font-size="20px" fill="#c2255c" text-anchor="start" style="white-space: pre;" direction="ltr" dominant-baseline="alphabetic">v2</text></g><g stroke-linecap="round" transform="translate(60.380840655021075 53.60425846970429) rotate(0 5.5 5.5)"><path d="M4.62 0.59 C5.68 0.28, 7.18 0.19, 8.21 0.63 C9.24 1.07, 10.42 2.16, 10.81 3.23 C11.21 4.3, 10.98 5.89, 10.58 7.05 C10.17 8.22, 9.32 9.6, 8.38 10.21 C7.44 10.81, 6 10.86, 4.92 10.69 C3.84 10.53, 2.67 10, 1.89 9.23 C1.11 8.46, 0.38 7.32, 0.25 6.07 C0.12 4.83, 0.33 2.79, 1.1 1.77 C1.86 0.76, 4.16 0.32, 4.85 -0.01 C5.54 -0.34, 5.24 -0.31, 5.24 -0.21 M4.87 0.46 C5.85 0.34, 6.91 0.87, 7.91 1.39 C8.91 1.91, 10.36 2.47, 10.85 3.58 C11.34 4.69, 11.31 6.91, 10.83 8.04 C10.36 9.17, 9.1 9.92, 8 10.34 C6.9 10.75, 5.48 10.8, 4.23 10.54 C2.98 10.28, 1.31 9.61, 0.49 8.79 C-0.34 7.96, -0.95 6.67, -0.71 5.58 C-0.47 4.49, 1.16 3.12, 1.92 2.26 C2.69 1.4, 3.47 0.81, 3.9 0.41 C4.33 0.02, 4.3 -0.04, 4.51 -0.1" stroke="none" stroke-width="0" fill="#ced4da"></path><path d="M6.03 -0.11 C7.17 -0.02, 8.49 0.93, 9.24 1.87 C9.98 2.81, 10.31 4.41, 10.5 5.52 C10.69 6.64, 10.93 7.72, 10.38 8.57 C9.82 9.43, 8.43 10.29, 7.16 10.66 C5.89 11.03, 3.85 11.25, 2.75 10.78 C1.65 10.32, 1.04 8.95, 0.54 7.87 C0.04 6.8, -0.56 5.55, -0.25 4.33 C0.07 3.12, 1.23 1.31, 2.44 0.57 C3.65 -0.17, 6.3 -0.04, 7.01 -0.1 C7.71 -0.16, 6.71 0.06, 6.68 0.21 M5.84 -0.15 C6.99 -0.07, 8.64 0.84, 9.41 1.67 C10.19 2.49, 10.38 3.66, 10.47 4.8 C10.56 5.94, 10.45 7.42, 9.93 8.51 C9.42 9.6, 8.62 10.99, 7.39 11.33 C6.16 11.68, 3.78 11.11, 2.54 10.57 C1.31 10.04, 0.48 9.12, 0 8.11 C-0.49 7.09, -0.87 5.71, -0.37 4.46 C0.13 3.22, 1.93 1.31, 3.01 0.62 C4.08 -0.07, 5.53 0.48, 6.07 0.34 C6.61 0.2, 6.19 -0.16, 6.25 -0.21" stroke="#1e1e1e" stroke-width="2" fill="none"></path></g><g stroke-linecap="round" transform="translate(335.3808406550211 54.60425846970429) rotate(0 5.5 5.5)"><path d="M4.45 -0.33 C5.54 -0.74, 7.19 -0.17, 8.18 0.49 C9.16 1.15, 9.98 2.55, 10.35 3.63 C10.72 4.7, 10.73 5.82, 10.39 6.92 C10.04 8.02, 9.22 9.57, 8.29 10.24 C7.36 10.9, 5.93 11.03, 4.82 10.93 C3.72 10.83, 2.52 10.45, 1.65 9.66 C0.78 8.87, -0.22 7.44, -0.4 6.21 C-0.58 4.97, -0.23 3.25, 0.58 2.26 C1.39 1.27, 3.76 0.55, 4.47 0.27 C5.18 -0.01, 4.87 0.53, 4.84 0.57 M4.15 0.3 C5.13 0.04, 6.89 0.51, 7.98 1.1 C9.06 1.7, 10.22 2.96, 10.66 3.87 C11.11 4.78, 10.97 5.46, 10.64 6.57 C10.32 7.69, 9.61 9.81, 8.72 10.54 C7.83 11.26, 6.61 11.21, 5.31 10.92 C4 10.63, 1.79 9.71, 0.89 8.8 C-0.01 7.88, -0.03 6.67, -0.1 5.44 C-0.17 4.2, -0.35 2.24, 0.47 1.39 C1.3 0.53, 4.11 0.59, 4.86 0.3 C5.6 0.02, 4.99 -0.35, 4.93 -0.32" stroke="none" stroke-width="0" fill="#ced4da"></path><path d="M4.2 0 C5.24 -0.36, 7.24 0.05, 8.26 0.64 C9.29 1.23, 9.99 2.44, 10.35 3.56 C10.71 4.68, 10.64 6.32, 10.4 7.34 C10.16 8.37, 9.79 9.1, 8.9 9.7 C8.01 10.29, 6.23 10.92, 5.04 10.91 C3.86 10.9, 2.6 10.5, 1.8 9.64 C1 8.78, 0.3 7.01, 0.24 5.74 C0.17 4.47, 0.72 2.97, 1.41 2.02 C2.11 1.07, 3.84 0.34, 4.39 0.04 C4.93 -0.25, 4.63 0.2, 4.69 0.26 M7 0.11 C8.01 0.27, 8.51 1.45, 9.15 2.44 C9.8 3.42, 10.89 4.86, 10.88 6.02 C10.87 7.19, 9.86 8.69, 9.1 9.43 C8.33 10.17, 7.32 10.36, 6.28 10.46 C5.25 10.56, 3.84 10.53, 2.88 10.05 C1.92 9.58, 1.01 8.63, 0.53 7.64 C0.04 6.64, -0.44 5.28, -0.02 4.09 C0.39 2.91, 1.9 1.11, 3.03 0.55 C4.17 -0.02, 6.23 0.75, 6.79 0.7 C7.35 0.65, 6.49 0.32, 6.4 0.25" stroke="#1e1e1e" stroke-width="2" fill="none"></path></g><g stroke-linecap="round" transform="translate(635.3808406550211 52.60425846970429) rotate(0 5.5 5.5)"><path d="M5.07 0.4 C6.17 0.13, 7.16 0.28, 8.05 0.89 C8.93 1.5, 9.94 2.9, 10.39 4.06 C10.84 5.21, 11.12 6.85, 10.74 7.85 C10.36 8.85, 9.23 9.5, 8.1 10.05 C6.97 10.61, 5.09 11.41, 3.95 11.19 C2.81 10.97, 1.94 9.71, 1.27 8.73 C0.6 7.75, -0.12 6.45, -0.07 5.3 C-0.02 4.15, 0.77 2.74, 1.58 1.83 C2.38 0.92, 4.07 0.22, 4.77 -0.14 C5.46 -0.51, 5.72 -0.44, 5.73 -0.34 M5.21 0.27 C6.47 0.21, 8.66 0.28, 9.63 0.95 C10.61 1.62, 10.98 3.14, 11.05 4.31 C11.12 5.48, 10.85 6.94, 10.06 7.97 C9.27 9, 7.37 10.01, 6.32 10.48 C5.26 10.95, 4.62 11.17, 3.74 10.8 C2.86 10.42, 1.53 9.35, 1.02 8.24 C0.51 7.13, 0.4 5.4, 0.69 4.14 C0.97 2.88, 1.94 1.31, 2.72 0.68 C3.5 0.06, 4.93 0.44, 5.36 0.37 C5.79 0.31, 5.28 0.19, 5.3 0.29" stroke="none" stroke-width="0" fill="#ced4da"></path><path d="M4.3 0.52 C5.42 0.13, 7.25 0, 8.26 0.39 C9.27 0.78, 9.87 1.72, 10.34 2.85 C10.8 3.99, 11.4 5.95, 11.08 7.17 C10.75 8.39, 9.45 9.5, 8.41 10.18 C7.37 10.86, 5.97 11.36, 4.83 11.26 C3.69 11.16, 2.39 10.55, 1.58 9.58 C0.77 8.61, 0.02 6.62, -0.03 5.44 C-0.08 4.26, 0.48 3.39, 1.28 2.51 C2.08 1.62, 4.28 0.54, 4.78 0.11 C5.27 -0.31, 4.31 -0.1, 4.25 -0.03 M4.37 0.65 C5.46 0.24, 6.38 0.21, 7.38 0.55 C8.38 0.9, 9.78 1.72, 10.37 2.73 C10.97 3.73, 11.25 5.26, 10.95 6.59 C10.65 7.91, 9.48 9.99, 8.58 10.66 C7.69 11.34, 6.63 10.76, 5.58 10.66 C4.53 10.55, 3.18 10.9, 2.27 10.05 C1.36 9.19, 0.3 6.77, 0.11 5.53 C-0.08 4.28, 0.48 3.51, 1.13 2.57 C1.77 1.64, 3.56 0.36, 3.98 -0.07 C4.4 -0.51, 3.66 -0.27, 3.64 -0.03" stroke="#1e1e1e" stroke-width="2" fill="none"></path></g><g stroke-linecap="round" transform="translate(937.3808406550211 48.60425846970429) rotate(0 5.5 5.5)"><path d="M6.6 0.22 C7.69 0.33, 9.38 0.71, 10.04 1.7 C10.71 2.69, 10.72 4.91, 10.6 6.16 C10.48 7.41, 10.06 8.43, 9.32 9.19 C8.58 9.96, 7.26 10.53, 6.17 10.77 C5.08 11.01, 3.75 11.28, 2.79 10.61 C1.83 9.94, 0.85 8.02, 0.4 6.75 C-0.05 5.47, -0.34 4.04, 0.09 2.97 C0.52 1.9, 1.92 0.83, 2.95 0.33 C3.98 -0.16, 5.57 0.09, 6.28 0.01 C6.99 -0.07, 7.19 -0.2, 7.2 -0.15 M5.64 -0.44 C6.62 -0.39, 7.92 1.19, 8.93 2.19 C9.95 3.19, 11.63 4.55, 11.72 5.56 C11.81 6.58, 10.21 7.3, 9.48 8.28 C8.76 9.26, 8.34 11.06, 7.39 11.45 C6.43 11.84, 4.84 11.26, 3.75 10.64 C2.65 10.02, 1.49 8.92, 0.8 7.74 C0.11 6.55, -0.58 4.65, -0.38 3.52 C-0.19 2.4, 0.9 1.54, 1.96 0.98 C3.02 0.41, 5.34 0.34, 5.98 0.13 C6.63 -0.07, 5.81 -0.33, 5.81 -0.27" stroke="none" stroke-width="0" fill="#ced4da"></path><path d="M4.67 0.32 C5.87 0.09, 7.33 0.36, 8.37 0.88 C9.42 1.39, 10.49 2.4, 10.93 3.41 C11.37 4.43, 11.5 5.78, 11.02 6.94 C10.54 8.1, 9.17 9.69, 8.06 10.38 C6.95 11.07, 5.5 11.21, 4.35 11.06 C3.21 10.91, 1.88 10.3, 1.17 9.49 C0.46 8.67, 0.15 7.36, 0.09 6.17 C0.04 4.98, 0.15 3.41, 0.85 2.37 C1.55 1.34, 3.59 0.28, 4.3 -0.02 C5.01 -0.33, 5.14 0.42, 5.11 0.53 M6.97 0.06 C8.19 0.28, 9.17 1.77, 9.94 2.66 C10.71 3.56, 11.78 4.39, 11.6 5.44 C11.42 6.5, 9.65 8.16, 8.87 9.01 C8.09 9.85, 7.97 10.25, 6.94 10.5 C5.9 10.75, 3.85 11.11, 2.65 10.51 C1.46 9.91, 0.08 8.02, -0.22 6.89 C-0.51 5.77, 0.3 4.7, 0.88 3.74 C1.46 2.78, 2.28 1.68, 3.26 1.13 C4.25 0.59, 6.31 0.68, 6.78 0.48 C7.26 0.28, 6.18 -0.06, 6.11 -0.07" stroke="#1e1e1e" stroke-width="2" fill="none"></path></g><g stroke-linecap="round" transform="translate(1210.380840655021 44.60425846970429) rotate(0 5.5 5.5)"><path d="M6.05 0.15 C7.27 0.11, 8.91 0.57, 9.75 1.48 C10.59 2.38, 11.01 4.46, 11.09 5.6 C11.18 6.73, 11 7.37, 10.27 8.27 C9.54 9.16, 7.92 10.54, 6.72 10.96 C5.52 11.39, 4.18 11.36, 3.08 10.79 C1.97 10.23, 0.61 8.73, 0.09 7.55 C-0.43 6.38, -0.43 4.91, -0.04 3.77 C0.35 2.62, 1.4 1.37, 2.43 0.68 C3.46 0, 5.46 -0.3, 6.12 -0.37 C6.78 -0.43, 6.31 0.12, 6.39 0.31 M5.56 -0.71 C6.65 -0.88, 8.41 0.58, 9.3 1.42 C10.19 2.26, 10.77 3.36, 10.88 4.35 C10.99 5.34, 10.49 6.37, 9.97 7.36 C9.45 8.35, 8.88 9.59, 7.77 10.28 C6.66 10.96, 4.52 11.87, 3.3 11.48 C2.08 11.09, 0.9 9.11, 0.46 7.93 C0.02 6.74, 0.36 5.39, 0.65 4.39 C0.94 3.38, 1.37 2.6, 2.23 1.92 C3.09 1.23, 5.31 0.57, 5.79 0.26 C6.28 -0.04, 5.14 -0.08, 5.12 0.06" stroke="none" stroke-width="0" fill="#ced4da"></path><path d="M6.24 0.55 C7.25 0.62, 8.62 0.88, 9.39 1.67 C10.16 2.46, 10.85 4.08, 10.84 5.28 C10.83 6.48, 9.99 7.96, 9.33 8.84 C8.68 9.72, 8 10.33, 6.92 10.56 C5.84 10.79, 3.92 10.77, 2.86 10.23 C1.8 9.68, 1.05 8.35, 0.55 7.29 C0.05 6.22, -0.42 4.95, -0.14 3.82 C0.14 2.7, 1.05 1.16, 2.21 0.54 C3.38 -0.09, 6.18 0.12, 6.86 0.06 C7.54 -0.01, 6.4 0.1, 6.28 0.16 M5.58 0.4 C6.52 0.51, 7.49 0.89, 8.5 1.66 C9.5 2.43, 11.33 3.84, 11.6 5.02 C11.86 6.2, 10.92 7.85, 10.09 8.72 C9.27 9.58, 7.82 9.96, 6.65 10.2 C5.49 10.44, 4.22 10.53, 3.11 10.17 C2 9.81, 0.58 8.88, 0.01 8.02 C-0.57 7.17, -0.79 6.08, -0.34 5.04 C0.11 4, 1.67 2.54, 2.73 1.78 C3.79 1.02, 5.55 0.87, 6.03 0.49 C6.52 0.12, 5.6 -0.42, 5.64 -0.46" stroke="#1e1e1e" stroke-width="2" fill="none"></path></g><g stroke-linecap="round" transform="translate(1220.380840655021 312.6042584697043) rotate(0 5.5 5.5)"><path d="M3.99 0.02 C4.95 -0.39, 6.66 -0.14, 7.75 0.45 C8.84 1.04, 9.97 2.52, 10.54 3.56 C11.12 4.6, 11.49 5.52, 11.21 6.67 C10.93 7.82, 9.9 9.67, 8.89 10.45 C7.88 11.24, 6.45 11.53, 5.16 11.38 C3.88 11.24, 2.04 10.54, 1.17 9.58 C0.29 8.61, -0.09 6.82, -0.11 5.58 C-0.12 4.34, 0.36 3.06, 1.08 2.14 C1.8 1.22, 3.55 0.37, 4.2 0.06 C4.85 -0.25, 4.88 0.26, 4.97 0.28 M5.88 -0.27 C7.03 -0.32, 8.97 0.03, 9.8 0.96 C10.62 1.9, 10.78 4.23, 10.82 5.36 C10.86 6.48, 10.68 6.86, 10.02 7.72 C9.37 8.57, 7.91 9.91, 6.89 10.5 C5.86 11.08, 4.89 11.57, 3.86 11.24 C2.82 10.92, 1.36 9.81, 0.69 8.56 C0.01 7.3, -0.45 4.96, -0.2 3.72 C0.04 2.47, 1.14 1.71, 2.13 1.07 C3.12 0.43, 5.24 -0.08, 5.74 -0.12 C6.24 -0.17, 5.08 0.71, 5.13 0.79" stroke="none" stroke-width="0" fill="#ced4da"></path><path d="M6.75 0.46 C7.87 0.49, 9.07 0.54, 9.83 1.39 C10.59 2.25, 11.3 4.3, 11.3 5.57 C11.29 6.83, 10.63 8.15, 9.8 8.96 C8.96 9.78, 7.44 10.25, 6.3 10.44 C5.17 10.63, 4.02 10.53, 2.97 10.12 C1.92 9.71, 0.5 9.11, 0.01 7.99 C-0.48 6.86, -0.48 4.62, 0.03 3.38 C0.53 2.14, 1.91 1.03, 3.05 0.54 C4.18 0.04, 6.15 0.43, 6.82 0.41 C7.48 0.39, 7.12 0.38, 7.04 0.42 M5.77 -0.17 C6.82 -0.01, 8.79 1.1, 9.67 2.07 C10.55 3.05, 11.09 4.54, 11.05 5.69 C11.01 6.83, 10.04 8.18, 9.42 8.96 C8.8 9.73, 8.44 10.02, 7.33 10.35 C6.23 10.69, 4 11.55, 2.8 10.97 C1.59 10.39, 0.53 8.01, 0.09 6.89 C-0.35 5.77, -0.25 5.14, 0.13 4.23 C0.52 3.33, 1.32 2.05, 2.4 1.46 C3.47 0.88, 5.94 0.89, 6.58 0.73 C7.22 0.57, 6.31 0.53, 6.24 0.49" stroke="#1e1e1e" stroke-width="2" fill="none"></path></g><g stroke-linecap="round" transform="translate(1222.380840655021 592.6042584697043) rotate(0 5.5 5.5)"><path d="M4.92 0.48 C6.04 0.39, 7.83 0.72, 8.76 1.34 C9.7 1.97, 10.29 3.16, 10.55 4.2 C10.8 5.25, 10.84 6.6, 10.31 7.64 C9.78 8.69, 8.45 9.89, 7.37 10.48 C6.3 11.08, 4.88 11.51, 3.87 11.21 C2.85 10.91, 1.88 9.75, 1.29 8.66 C0.7 7.56, 0.31 5.82, 0.31 4.65 C0.3 3.47, 0.35 2.32, 1.26 1.6 C2.17 0.89, 5.13 0.53, 5.77 0.37 C6.41 0.2, 5.22 0.62, 5.12 0.6 M5.49 0.75 C6.72 0.64, 8.47 0.73, 9.31 1.47 C10.15 2.21, 10.39 4.01, 10.55 5.18 C10.71 6.34, 10.88 7.63, 10.27 8.45 C9.66 9.27, 7.99 9.86, 6.87 10.09 C5.76 10.33, 4.53 10.26, 3.59 9.86 C2.66 9.46, 1.76 8.56, 1.26 7.68 C0.77 6.81, 0.4 5.74, 0.64 4.62 C0.88 3.5, 1.86 1.83, 2.73 0.97 C3.59 0.11, 5.21 -0.45, 5.82 -0.55 C6.43 -0.65, 6.32 0.23, 6.38 0.36" stroke="none" stroke-width="0" fill="#ced4da"></path><path d="M6.82 -0.02 C7.84 0.15, 8.86 1.07, 9.55 1.94 C10.24 2.82, 10.95 4, 10.97 5.22 C10.99 6.45, 10.4 8.31, 9.66 9.29 C8.92 10.26, 7.77 10.89, 6.54 11.05 C5.31 11.22, 3.26 10.94, 2.28 10.28 C1.3 9.62, 0.97 8.24, 0.68 7.09 C0.39 5.95, 0.11 4.52, 0.53 3.41 C0.96 2.31, 2.19 0.93, 3.23 0.47 C4.28 0.01, 6.15 0.73, 6.79 0.65 C7.43 0.57, 7.13 -0.01, 7.08 -0.02 M6.48 -0.27 C7.38 -0.2, 8.01 0.86, 8.73 1.79 C9.46 2.71, 10.65 4.2, 10.83 5.28 C11.01 6.36, 10.37 7.29, 9.81 8.28 C9.26 9.28, 8.65 11.01, 7.49 11.26 C6.33 11.51, 4.12 10.46, 2.84 9.79 C1.56 9.12, 0.18 8.27, -0.2 7.25 C-0.59 6.23, 0.02 4.66, 0.53 3.69 C1.04 2.72, 1.89 1.93, 2.84 1.44 C3.8 0.96, 5.81 0.87, 6.25 0.76 C6.69 0.66, 5.45 0.83, 5.5 0.82" stroke="#1e1e1e" stroke-width="2" fill="none"></path></g><g stroke-linecap="round" transform="translate(948.3808406550211 589.6042584697043) rotate(0 5.5 5.5)"><path d="M5.09 0.53 C6.06 0.25, 7.08 0.05, 7.95 0.57 C8.82 1.09, 9.9 2.45, 10.3 3.65 C10.7 4.85, 10.7 6.61, 10.35 7.76 C9.99 8.9, 9.18 9.95, 8.18 10.5 C7.18 11.06, 5.47 11.42, 4.35 11.1 C3.22 10.78, 2.18 9.58, 1.44 8.6 C0.7 7.62, -0.09 6.39, -0.1 5.2 C-0.12 4.01, 0.64 2.39, 1.37 1.46 C2.1 0.52, 3.67 -0.14, 4.27 -0.4 C4.87 -0.65, 4.89 -0.2, 4.96 -0.07 M4.47 -0.37 C5.45 -0.44, 6.95 0.76, 7.88 1.59 C8.81 2.42, 9.54 3.66, 10.06 4.62 C10.57 5.58, 11.23 6.34, 10.97 7.35 C10.72 8.36, 9.69 10.14, 8.51 10.68 C7.34 11.22, 5.11 10.81, 3.92 10.59 C2.74 10.36, 2.18 10.34, 1.43 9.32 C0.67 8.3, -0.68 5.66, -0.63 4.45 C-0.57 3.24, 0.75 2.74, 1.78 2.05 C2.81 1.37, 5.03 0.64, 5.53 0.34 C6.04 0.05, 4.88 0.22, 4.82 0.29" stroke="none" stroke-width="0" fill="#ced4da"></path><path d="M5.56 0.27 C6.57 0.03, 7.86 -0.02, 8.77 0.74 C9.68 1.5, 10.7 3.67, 11.02 4.83 C11.34 5.99, 11.19 6.77, 10.67 7.7 C10.16 8.63, 9.17 9.89, 7.95 10.4 C6.74 10.92, 4.67 11.07, 3.41 10.79 C2.15 10.5, 0.98 9.64, 0.4 8.7 C-0.19 7.76, -0.36 6.36, -0.1 5.14 C0.16 3.91, 1.06 2.18, 1.96 1.37 C2.86 0.56, 4.66 0.47, 5.3 0.26 C5.94 0.06, 5.8 0.14, 5.81 0.11 M5.5 0.52 C6.8 0.51, 8.73 1.36, 9.61 2.1 C10.49 2.85, 10.81 3.8, 10.8 4.98 C10.78 6.16, 10.1 8.16, 9.52 9.2 C8.93 10.25, 8.38 11.07, 7.28 11.23 C6.19 11.4, 3.96 10.65, 2.96 10.18 C1.96 9.71, 1.86 9.53, 1.3 8.41 C0.73 7.29, -0.59 4.68, -0.44 3.47 C-0.3 2.25, 0.99 1.61, 2.15 1.11 C3.31 0.6, 5.81 0.71, 6.5 0.43 C7.18 0.15, 6.47 -0.47, 6.25 -0.55" stroke="#1e1e1e" stroke-width="2" fill="none"></path></g><g stroke-linecap="round" transform="translate(643.3808406550211 591.6042584697043) rotate(0 5.5 5.5)"><path d="M5.62 0.44 C6.68 0.36, 7.64 0.4, 8.53 1.09 C9.43 1.77, 10.61 3.39, 10.98 4.56 C11.35 5.72, 11.32 7.1, 10.76 8.07 C10.21 9.05, 8.8 10.04, 7.67 10.43 C6.54 10.81, 5.09 10.73, 3.98 10.39 C2.87 10.05, 1.69 9.26, 1.02 8.39 C0.34 7.52, -0.27 6.33, -0.06 5.16 C0.15 3.98, 1.35 2.15, 2.27 1.34 C3.18 0.53, 4.91 0.44, 5.42 0.29 C5.93 0.14, 5.35 0.33, 5.32 0.44 M6.19 0.32 C7.41 0.22, 8.57 0.45, 9.33 1.16 C10.08 1.87, 10.68 3.24, 10.73 4.58 C10.77 5.93, 10.14 8.16, 9.6 9.23 C9.06 10.3, 8.47 10.73, 7.48 11.01 C6.49 11.29, 4.91 11.38, 3.65 10.9 C2.39 10.42, 0.54 9.28, -0.09 8.12 C-0.71 6.97, -0.44 5.08, -0.1 3.98 C0.23 2.89, 0.8 2.25, 1.91 1.54 C3.02 0.82, 5.92 -0.09, 6.55 -0.3 C7.18 -0.5, 5.78 0.27, 5.68 0.3" stroke="none" stroke-width="0" fill="#ced4da"></path><path d="M4.62 -0.23 C5.64 -0.34, 7.16 0.59, 8.1 1.37 C9.05 2.14, 9.85 3.39, 10.3 4.4 C10.75 5.42, 11.16 6.44, 10.83 7.47 C10.5 8.5, 9.46 10.07, 8.32 10.6 C7.18 11.13, 5.18 10.92, 4.01 10.67 C2.84 10.43, 2.04 10.13, 1.3 9.13 C0.57 8.13, -0.48 5.88, -0.41 4.68 C-0.35 3.48, 0.72 2.68, 1.7 1.93 C2.68 1.19, 4.89 0.51, 5.47 0.22 C6.04 -0.06, 5.17 0.14, 5.13 0.21 M4.01 -0.58 C5.13 -0.88, 7.04 0.22, 8.2 0.8 C9.36 1.37, 10.62 1.79, 10.96 2.87 C11.3 3.95, 10.55 6.14, 10.25 7.27 C9.95 8.4, 9.92 9.12, 9.15 9.63 C8.38 10.14, 6.82 10.37, 5.6 10.35 C4.38 10.32, 2.65 10.14, 1.83 9.48 C1.01 8.82, 0.77 7.53, 0.69 6.39 C0.61 5.25, 0.86 3.59, 1.36 2.62 C1.86 1.66, 3.23 1.08, 3.68 0.6 C4.13 0.12, 3.97 -0.22, 4.03 -0.26" stroke="#1e1e1e" stroke-width="2" fill="none"></path></g><g stroke-linecap="round" transform="translate(343.3808406550211 594.6042584697043) rotate(0 5.5 5.5)"><path d="M5.09 -0.04 C6.11 -0.2, 7.3 0.21, 8.3 0.81 C9.3 1.4, 10.78 2.3, 11.07 3.52 C11.36 4.74, 10.56 6.9, 10.06 8.11 C9.55 9.32, 9.04 10.4, 8.02 10.79 C6.99 11.17, 5.1 10.67, 3.91 10.42 C2.72 10.17, 1.6 10.22, 0.9 9.27 C0.19 8.33, -0.4 5.95, -0.32 4.75 C-0.24 3.55, 0.56 2.84, 1.38 2.07 C2.2 1.3, 3.96 0.45, 4.6 0.13 C5.24 -0.19, 5.19 0.12, 5.21 0.16 M5.03 -0.46 C6.13 -0.68, 7.61 -0.39, 8.59 0.51 C9.58 1.41, 10.66 3.6, 10.96 4.95 C11.25 6.3, 10.93 7.77, 10.35 8.61 C9.77 9.46, 8.51 9.55, 7.48 10.01 C6.44 10.47, 5.29 11.69, 4.13 11.37 C2.98 11.05, 1.11 9.07, 0.55 8.09 C-0.02 7.1, 0.44 6.63, 0.76 5.46 C1.08 4.3, 1.59 1.88, 2.46 1.09 C3.33 0.3, 5.63 0.74, 5.99 0.71 C6.35 0.67, 4.73 0.87, 4.63 0.86" stroke="none" stroke-width="0" fill="#ced4da"></path><path d="M5.44 0.25 C6.47 0.19, 8.21 0.65, 9.08 1.48 C9.94 2.32, 10.42 4.12, 10.64 5.25 C10.87 6.39, 11.07 7.38, 10.43 8.31 C9.8 9.25, 8.03 10.59, 6.83 10.88 C5.64 11.18, 4.22 10.63, 3.26 10.09 C2.3 9.54, 1.63 8.58, 1.07 7.6 C0.51 6.62, -0.36 5.25, -0.1 4.22 C0.17 3.2, 1.65 2.1, 2.64 1.46 C3.63 0.82, 5.27 0.53, 5.85 0.39 C6.44 0.25, 6.18 0.65, 6.17 0.64 M4.46 -0.41 C5.59 -0.67, 7.69 0.1, 8.87 0.98 C10.05 1.86, 11.31 3.73, 11.52 4.87 C11.74 6, 10.74 6.87, 10.18 7.79 C9.61 8.71, 9.18 9.87, 8.15 10.4 C7.11 10.93, 5.2 11.31, 3.95 10.95 C2.71 10.59, 1.44 9.26, 0.67 8.27 C-0.1 7.27, -0.92 6.03, -0.66 4.98 C-0.4 3.92, 1.23 2.67, 2.23 1.94 C3.24 1.21, 4.88 0.8, 5.39 0.61 C5.9 0.42, 5.4 0.9, 5.3 0.8" stroke="#1e1e1e" stroke-width="2" fill="none"></path></g><g stroke-linecap="round" transform="translate(942.3808406550211 315.6042584697043) rotate(0 5.5 5.5)"><path d="M6.53 0.28 C7.62 0.3, 9.02 0.75, 9.68 1.55 C10.35 2.35, 10.54 3.92, 10.53 5.06 C10.52 6.21, 10.24 7.44, 9.63 8.43 C9.03 9.41, 7.93 10.6, 6.9 10.95 C5.87 11.3, 4.5 11.07, 3.43 10.53 C2.37 9.99, 1.1 8.85, 0.52 7.69 C-0.07 6.54, -0.49 4.71, -0.08 3.62 C0.33 2.52, 1.99 1.73, 2.98 1.13 C3.97 0.52, 5.22 0.15, 5.87 0 C6.52 -0.14, 6.78 0.17, 6.9 0.26 M4.24 0.65 C5.21 0.25, 6.66 -0.29, 7.81 0.09 C8.96 0.47, 10.66 1.69, 11.16 2.93 C11.66 4.16, 11.15 6.4, 10.8 7.5 C10.45 8.6, 10.1 9, 9.08 9.53 C8.07 10.06, 5.99 10.65, 4.7 10.68 C3.41 10.7, 2.07 10.51, 1.33 9.68 C0.58 8.86, 0.25 7, 0.24 5.73 C0.23 4.46, 0.5 3.11, 1.27 2.06 C2.03 1.02, 4.35 -0.29, 4.84 -0.55 C5.33 -0.81, 4.37 0.25, 4.21 0.49" stroke="none" stroke-width="0" fill="#ced4da"></path><path d="M6.06 0.34 C7.13 0.36, 8.22 0.42, 9.12 1.24 C10.01 2.06, 11.24 4.04, 11.43 5.24 C11.63 6.44, 11.13 7.56, 10.28 8.47 C9.43 9.37, 7.45 10.39, 6.32 10.66 C5.19 10.93, 4.55 10.6, 3.5 10.08 C2.44 9.56, 0.49 8.65, 0 7.55 C-0.49 6.45, 0.14 4.6, 0.57 3.49 C1.01 2.39, 1.64 1.55, 2.6 0.93 C3.56 0.3, 5.73 -0.11, 6.34 -0.24 C6.95 -0.38, 6.3 -0.03, 6.26 0.11 M4.41 0.1 C5.7 -0.02, 8.13 0.34, 9.3 0.99 C10.46 1.64, 11.28 2.8, 11.38 3.99 C11.48 5.19, 10.39 7.12, 9.9 8.15 C9.41 9.19, 9.46 9.63, 8.43 10.19 C7.39 10.75, 4.82 11.67, 3.7 11.52 C2.57 11.37, 2.35 10.26, 1.68 9.29 C1.01 8.33, -0.43 7.1, -0.32 5.71 C-0.21 4.31, 1.31 1.87, 2.33 0.94 C3.35 0.01, 5.32 0.17, 5.79 0.11 C6.26 0.05, 5.2 0.57, 5.15 0.59" stroke="#1e1e1e" stroke-width="2" fill="none"></path></g><g stroke-linecap="round" transform="translate(639.3808406550211 316.6042584697043) rotate(0 5.5 5.5)"><path d="M5.31 0.26 C6.45 0.35, 8.2 1.2, 9.13 1.93 C10.06 2.67, 10.7 3.69, 10.9 4.7 C11.1 5.71, 11.01 7.05, 10.34 7.98 C9.67 8.91, 8.09 9.76, 6.89 10.28 C5.7 10.79, 4.26 11.46, 3.19 11.08 C2.12 10.71, 0.93 9.21, 0.46 8.03 C-0.01 6.85, 0.04 5.14, 0.37 4.01 C0.71 2.87, 1.54 1.97, 2.49 1.24 C3.44 0.5, 5.46 -0.23, 6.1 -0.39 C6.75 -0.55, 6.35 0.07, 6.36 0.28 M5.44 -0.68 C6.49 -0.87, 7.7 0.73, 8.67 1.52 C9.64 2.31, 10.98 3, 11.26 4.06 C11.54 5.11, 11.01 6.88, 10.35 7.85 C9.69 8.82, 8.34 9.37, 7.31 9.89 C6.27 10.42, 5.09 11.14, 4.12 10.99 C3.15 10.84, 2.1 10.11, 1.5 8.97 C0.9 7.84, 0.4 5.33, 0.51 4.2 C0.62 3.07, 1.38 2.85, 2.14 2.21 C2.89 1.56, 4.48 0.75, 5.03 0.34 C5.59 -0.06, 5.41 -0.35, 5.48 -0.24" stroke="none" stroke-width="0" fill="#ced4da"></path><path d="M5.44 -0.35 C6.62 -0.43, 8.35 0.18, 9.35 1.13 C10.36 2.07, 11.41 4.05, 11.47 5.32 C11.54 6.59, 10.54 7.78, 9.77 8.73 C9 9.68, 7.92 10.65, 6.87 11.02 C5.83 11.39, 4.5 11.54, 3.51 10.95 C2.52 10.37, 1.39 8.67, 0.92 7.5 C0.44 6.34, 0.46 5.04, 0.65 3.95 C0.85 2.85, 1.18 1.62, 2.1 0.91 C3.01 0.21, 5.51 -0.1, 6.14 -0.28 C6.77 -0.45, 5.86 -0.31, 5.88 -0.13 M4.34 -0.63 C5.54 -0.99, 7.69 -0.44, 8.75 0.23 C9.82 0.91, 10.5 2.23, 10.75 3.42 C11 4.61, 10.63 6.12, 10.27 7.37 C9.91 8.63, 9.51 10.39, 8.57 10.95 C7.64 11.5, 5.94 11, 4.65 10.68 C3.35 10.36, 1.61 10, 0.82 9.04 C0.04 8.08, -0.23 6.04, -0.05 4.92 C0.12 3.81, 1.16 3.15, 1.88 2.35 C2.6 1.54, 3.68 0.35, 4.27 0.1 C4.85 -0.15, 5.3 0.83, 5.39 0.85" stroke="#1e1e1e" stroke-width="2" fill="none"></path></g><g stroke-linecap="round" transform="translate(340.3808406550211 317.6042584697043) rotate(0 5.5 5.5)"><path d="M5.46 0.5 C6.64 0.34, 8.14 0.21, 9.06 0.92 C9.98 1.63, 10.76 3.65, 10.97 4.75 C11.19 5.86, 10.93 6.64, 10.35 7.56 C9.76 8.47, 8.47 9.75, 7.47 10.24 C6.47 10.74, 5.38 10.8, 4.33 10.52 C3.27 10.24, 1.83 9.53, 1.14 8.55 C0.44 7.57, -0.01 5.76, 0.17 4.64 C0.34 3.51, 1.35 2.64, 2.21 1.79 C3.07 0.95, 4.71 -0.21, 5.33 -0.44 C5.95 -0.66, 5.84 0.31, 5.93 0.45 M6.28 -0.46 C7.51 -0.39, 9.35 0.53, 10.07 1.46 C10.78 2.4, 10.59 3.87, 10.59 5.14 C10.59 6.41, 10.7 8.11, 10.04 9.08 C9.39 10.06, 7.98 10.92, 6.66 10.99 C5.33 11.06, 3.17 10.03, 2.07 9.49 C0.96 8.95, 0.42 8.7, 0.03 7.75 C-0.36 6.79, -0.64 4.98, -0.27 3.76 C0.1 2.55, 1.17 1.12, 2.24 0.44 C3.31 -0.23, 5.3 -0.25, 6.14 -0.26 C6.98 -0.27, 7.15 0.34, 7.28 0.38" stroke="none" stroke-width="0" fill="#ced4da"></path><path d="M5.33 -0.45 C6.4 -0.62, 7.73 0.61, 8.69 1.36 C9.66 2.12, 10.84 3.01, 11.12 4.09 C11.4 5.18, 10.99 6.87, 10.38 7.87 C9.77 8.87, 8.5 9.6, 7.45 10.1 C6.4 10.61, 5.1 11.13, 4.08 10.92 C3.05 10.71, 1.93 9.92, 1.31 8.84 C0.69 7.76, 0.24 5.58, 0.35 4.44 C0.46 3.3, 1.15 2.69, 1.99 1.99 C2.83 1.28, 4.72 0.57, 5.39 0.22 C6.06 -0.13, 5.96 -0.23, 6.01 -0.13 M6.11 0.6 C7.44 0.7, 9.06 1.27, 9.76 1.95 C10.47 2.64, 10.15 3.65, 10.33 4.7 C10.52 5.75, 11.37 7.18, 10.88 8.25 C10.4 9.32, 8.58 10.62, 7.41 11.11 C6.24 11.59, 5.03 11.7, 3.84 11.16 C2.66 10.62, 0.95 8.94, 0.31 7.86 C-0.34 6.78, -0.29 5.78, -0.05 4.68 C0.2 3.58, 0.91 2.12, 1.78 1.28 C2.65 0.44, 4.43 -0.28, 5.17 -0.37 C5.92 -0.46, 6.28 0.65, 6.26 0.73" stroke="#1e1e1e" stroke-width="2" fill="none"></path></g><g stroke-linecap="round" transform="translate(62.380840655021075 319.6042584697043) rotate(0 5.5 5.5)"><path d="M6.81 0.06 C7.94 0.13, 9.35 0.58, 10.08 1.53 C10.8 2.47, 11.28 4.51, 11.15 5.73 C11.02 6.95, 10.06 8.06, 9.3 8.84 C8.53 9.63, 7.67 10.26, 6.57 10.43 C5.47 10.6, 3.81 10.46, 2.7 9.88 C1.6 9.29, 0.33 8.04, -0.05 6.92 C-0.43 5.79, -0.11 4.21, 0.42 3.13 C0.94 2.05, 2.13 0.97, 3.12 0.45 C4.12 -0.07, 5.74 -0.03, 6.37 0.03 C7 0.08, 6.84 0.62, 6.91 0.8 M4.47 -0.59 C5.5 -1.02, 6.84 -0.48, 7.99 0.27 C9.14 1.02, 10.99 2.85, 11.37 3.93 C11.74 5.01, 10.72 5.71, 10.23 6.75 C9.74 7.8, 9.35 9.45, 8.42 10.21 C7.49 10.97, 5.98 11.57, 4.67 11.32 C3.36 11.07, 1.35 9.62, 0.55 8.73 C-0.24 7.84, -0.27 7.18, -0.12 5.98 C0.02 4.77, 0.58 2.49, 1.41 1.5 C2.24 0.51, 4.44 0.26, 4.87 0.03 C5.29 -0.21, 4.06 -0.11, 3.94 0.09" stroke="none" stroke-width="0" fill="#ced4da"></path><path d="M6.37 -0.27 C7.57 -0.18, 9.25 0.73, 9.97 1.66 C10.7 2.59, 10.74 4.06, 10.73 5.3 C10.72 6.54, 10.61 8.15, 9.91 9.1 C9.21 10.04, 7.83 10.87, 6.55 10.97 C5.28 11.08, 3.34 10.29, 2.26 9.73 C1.19 9.17, 0.5 8.6, 0.12 7.59 C-0.27 6.58, -0.44 4.86, -0.06 3.68 C0.33 2.5, 1.35 1.15, 2.44 0.52 C3.53 -0.11, 5.65 -0.08, 6.48 -0.1 C7.31 -0.12, 7.35 0.36, 7.43 0.42 M4.99 0.39 C5.98 0.4, 7.57 0.77, 8.57 1.51 C9.57 2.24, 10.81 3.68, 11.01 4.79 C11.21 5.9, 10.33 7.27, 9.76 8.19 C9.18 9.1, 8.59 9.76, 7.58 10.26 C6.58 10.76, 4.95 11.53, 3.72 11.2 C2.48 10.87, 0.85 9.31, 0.17 8.27 C-0.51 7.24, -0.55 6.2, -0.36 5.01 C-0.18 3.82, 0.34 2.07, 1.29 1.14 C2.24 0.2, 4.75 -0.45, 5.33 -0.6 C5.91 -0.75, 4.87 0.13, 4.77 0.25" stroke="#1e1e1e" stroke-width="2" fill="none"></path></g><g stroke-linecap="round" transform="translate(67.38084065502107 587.6042584697043) rotate(0 5.5 5.5)"><path d="M4.51 -0.15 C5.63 -0.39, 7.52 0.22, 8.53 0.89 C9.54 1.57, 10.19 2.81, 10.55 3.92 C10.91 5.03, 11.07 6.45, 10.67 7.55 C10.26 8.65, 9.17 10.01, 8.12 10.5 C7.06 10.99, 5.51 10.84, 4.33 10.5 C3.14 10.16, 1.65 9.43, 1 8.47 C0.34 7.5, 0.34 5.95, 0.4 4.73 C0.47 3.51, 0.54 1.87, 1.38 1.16 C2.22 0.45, 4.75 0.62, 5.42 0.47 C6.09 0.32, 5.46 0.26, 5.43 0.28 M5.12 0.25 C6.33 0.25, 7.86 1.01, 8.79 1.77 C9.71 2.54, 10.28 3.71, 10.66 4.86 C11.04 6, 11.47 7.59, 11.07 8.65 C10.67 9.7, 9.49 10.88, 8.26 11.18 C7.03 11.49, 4.8 10.84, 3.68 10.46 C2.56 10.08, 2.18 9.87, 1.55 8.9 C0.92 7.92, -0.19 5.95, -0.08 4.6 C0.03 3.25, 1.2 1.44, 2.2 0.79 C3.21 0.15, 5.35 0.72, 5.95 0.72 C6.55 0.73, 5.79 0.74, 5.8 0.82" stroke="none" stroke-width="0" fill="#ced4da"></path><path d="M5.89 0.22 C7.04 0.21, 9.02 0.61, 9.84 1.5 C10.65 2.39, 10.86 4.32, 10.77 5.56 C10.68 6.8, 10.05 8.12, 9.29 8.95 C8.52 9.78, 7.34 10.29, 6.19 10.53 C5.05 10.77, 3.46 10.83, 2.42 10.38 C1.37 9.93, 0.32 8.98, -0.08 7.81 C-0.48 6.64, -0.4 4.53, 0.03 3.36 C0.47 2.18, 1.38 1.27, 2.55 0.76 C3.72 0.25, 6.3 0.44, 7.07 0.3 C7.85 0.16, 7.29 -0.18, 7.2 -0.06 M4.71 0.68 C5.97 0.54, 8.14 0.07, 9.04 0.7 C9.95 1.34, 9.94 3.26, 10.15 4.51 C10.36 5.76, 10.65 7.31, 10.3 8.21 C9.95 9.1, 9.17 9.48, 8.06 9.89 C6.95 10.29, 4.75 10.85, 3.64 10.63 C2.54 10.41, 2.11 9.49, 1.44 8.56 C0.78 7.64, -0.4 6.36, -0.36 5.07 C-0.31 3.77, 0.79 1.71, 1.71 0.77 C2.62 -0.16, 4.44 -0.37, 5.13 -0.53 C5.83 -0.69, 5.91 -0.44, 5.87 -0.18" stroke="#1e1e1e" stroke-width="2" fill="none"></path></g><g stroke-linecap="round" transform="translate(340.3808406550211 389.6042584697043) rotate(0 6 6)"><path d="M7.39 0.63 C8.56 0.88, 9.9 1.72, 10.59 2.67 C11.28 3.62, 11.64 5.12, 11.52 6.31 C11.39 7.51, 10.65 8.94, 9.85 9.84 C9.05 10.74, 7.87 11.6, 6.73 11.73 C5.58 11.87, 4.02 11.36, 2.97 10.65 C1.92 9.93, 0.81 8.53, 0.42 7.43 C0.03 6.34, 0.13 5.22, 0.65 4.09 C1.17 2.96, 2.44 1.25, 3.54 0.67 C4.64 0.09, 6.57 0.66, 7.25 0.59 C7.93 0.53, 7.57 0.32, 7.6 0.28 M5.33 -0.1 C6.65 -0.34, 8.46 0.32, 9.51 1.1 C10.56 1.87, 11.29 3.39, 11.63 4.57 C11.97 5.75, 12.03 7.08, 11.56 8.18 C11.1 9.28, 9.92 10.62, 8.84 11.16 C7.76 11.71, 6.45 11.73, 5.08 11.45 C3.7 11.17, 1.36 10.36, 0.59 9.48 C-0.19 8.61, 0.21 7.58, 0.41 6.22 C0.62 4.86, 0.97 2.24, 1.81 1.32 C2.65 0.39, 4.75 0.9, 5.45 0.65 C6.16 0.41, 5.94 -0.1, 6.03 -0.15" stroke="none" stroke-width="0" fill="#fa5252"></path><path d="M7.35 -0.21 C8.7 -0.06, 10.49 1.12, 11.19 2.2 C11.89 3.28, 11.64 4.97, 11.55 6.28 C11.47 7.59, 11.4 9.14, 10.67 10.06 C9.94 10.97, 8.56 11.63, 7.16 11.77 C5.75 11.91, 3.42 11.5, 2.26 10.9 C1.11 10.3, 0.44 9.4, 0.21 8.17 C-0.02 6.95, 0.36 4.73, 0.91 3.55 C1.46 2.37, 2.46 1.64, 3.51 1.1 C4.57 0.56, 6.64 0.52, 7.25 0.32 C7.87 0.11, 7.15 -0.18, 7.2 -0.12 M6.31 -0.61 C7.63 -0.68, 9.19 0.32, 10.14 1.31 C11.09 2.3, 11.83 4.09, 12.03 5.32 C12.22 6.55, 11.87 7.64, 11.31 8.68 C10.74 9.72, 9.89 11.12, 8.63 11.59 C7.37 12.06, 5.01 12.04, 3.75 11.5 C2.49 10.95, 1.58 9.34, 1.06 8.31 C0.54 7.29, 0.44 6.5, 0.64 5.34 C0.84 4.18, 1.34 2.31, 2.29 1.35 C3.24 0.38, 5.73 -0.18, 6.34 -0.42 C6.95 -0.66, 6.13 -0.17, 5.97 -0.12" stroke="#1e1e1e" stroke-width="2" fill="none"></path></g><g stroke-linecap="round" transform="translate(552.3808406550211 316.6042584697043) rotate(0 6 6)"><path d="M6.17 0.11 C7.34 0.08, 8.62 1.08, 9.58 1.89 C10.55 2.71, 11.68 3.74, 11.95 5 C12.22 6.27, 11.83 8.35, 11.21 9.49 C10.6 10.63, 9.57 11.42, 8.26 11.82 C6.95 12.23, 4.64 12.33, 3.35 11.92 C2.06 11.51, 1.03 10.59, 0.51 9.35 C0 8.1, 0.01 5.78, 0.26 4.45 C0.5 3.12, 0.93 2.05, 2.01 1.36 C3.09 0.66, 6.03 0.52, 6.75 0.29 C7.46 0.06, 6.37 -0.14, 6.3 -0.02 M7.14 0.26 C8.22 0.46, 9.81 1.2, 10.54 2.19 C11.27 3.18, 11.5 4.76, 11.53 6.2 C11.56 7.63, 11.6 9.73, 10.71 10.8 C9.81 11.87, 7.43 12.57, 6.14 12.61 C4.86 12.64, 3.87 11.9, 3.02 11.02 C2.16 10.14, 1.44 8.51, 1 7.33 C0.56 6.14, 0.01 5.02, 0.36 3.92 C0.72 2.83, 2.1 1.44, 3.14 0.75 C4.19 0.06, 6.03 -0.25, 6.64 -0.21 C7.24 -0.16, 6.79 0.87, 6.76 1" stroke="none" stroke-width="0" fill="#fa5252"></path><path d="M5.88 -0.22 C7.23 -0.35, 8.98 0.15, 10.01 0.94 C11.04 1.73, 11.82 3.13, 12.05 4.53 C12.29 5.92, 12.03 8.16, 11.43 9.34 C10.82 10.52, 9.72 11.17, 8.42 11.62 C7.13 12.07, 4.98 12.48, 3.67 12.04 C2.36 11.6, 1.18 10.21, 0.57 8.98 C-0.04 7.75, -0.19 5.95, 0.02 4.65 C0.22 3.36, 0.77 1.99, 1.79 1.21 C2.81 0.43, 5.43 0.16, 6.13 0 C6.82 -0.16, 5.99 0.15, 5.97 0.24 M6.69 -0.19 C7.99 -0.19, 9.95 0.44, 10.73 1.37 C11.52 2.31, 11.3 3.96, 11.4 5.4 C11.49 6.84, 11.93 9.07, 11.32 10.04 C10.7 11.02, 9 10.92, 7.71 11.25 C6.42 11.59, 4.66 12.56, 3.59 12.05 C2.51 11.55, 1.71 9.55, 1.25 8.23 C0.79 6.91, 0.55 5.22, 0.83 4.16 C1.11 3.09, 1.98 2.62, 2.9 1.83 C3.81 1.03, 5.67 -0.22, 6.31 -0.62 C6.96 -1.03, 6.61 -0.85, 6.74 -0.6" stroke="#1e1e1e" stroke-width="2" fill="none"></path></g><g stroke-linecap="round" transform="translate(638.3808406550211 288.6042584697043) rotate(0 6 6)"><path d="M6.12 0.27 C7.38 0.24, 9.32 0.36, 10.32 1.22 C11.33 2.09, 12.06 4.14, 12.14 5.45 C12.21 6.75, 11.54 7.95, 10.77 9.05 C10 10.15, 8.69 11.67, 7.53 12.05 C6.37 12.43, 4.9 11.87, 3.79 11.34 C2.69 10.8, 1.46 9.97, 0.89 8.85 C0.32 7.74, 0.18 5.98, 0.36 4.63 C0.55 3.29, 0.88 1.6, 1.97 0.78 C3.06 -0.03, 6.14 -0.22, 6.89 -0.24 C7.64 -0.27, 6.51 0.47, 6.48 0.63 M5.84 0.26 C6.96 0.37, 8.65 1.66, 9.68 2.4 C10.71 3.14, 11.84 3.39, 12.02 4.68 C12.19 5.97, 11.53 8.98, 10.73 10.13 C9.92 11.29, 8.31 11.49, 7.19 11.59 C6.07 11.7, 5.21 11.16, 4 10.76 C2.79 10.36, 0.53 10.32, -0.07 9.18 C-0.67 8.04, 0.05 5.22, 0.4 3.9 C0.74 2.59, 0.92 1.97, 2.01 1.3 C3.09 0.63, 6.21 0.2, 6.91 -0.11 C7.6 -0.42, 6.19 -0.76, 6.18 -0.56" stroke="none" stroke-width="0" fill="#fa5252"></path><path d="M5.82 0.49 C7.02 0.42, 8.12 0.92, 9.16 1.6 C10.19 2.28, 11.56 3.44, 12.01 4.56 C12.47 5.69, 12.48 7.18, 11.87 8.37 C11.26 9.55, 9.61 11.09, 8.34 11.67 C7.07 12.25, 5.53 12.25, 4.23 11.82 C2.93 11.39, 1.3 10.09, 0.54 9.09 C-0.22 8.09, -0.47 7.09, -0.34 5.83 C-0.2 4.58, 0.33 2.51, 1.37 1.57 C2.4 0.63, 5.04 0.49, 5.87 0.2 C6.7 -0.09, 6.39 -0.25, 6.36 -0.17 M6.03 0.04 C7.43 -0.23, 9.32 -0.04, 10.38 0.72 C11.44 1.48, 12.28 3.15, 12.41 4.58 C12.54 6.01, 11.96 8.17, 11.17 9.28 C10.37 10.39, 8.83 10.91, 7.63 11.22 C6.44 11.52, 4.99 11.38, 3.98 11.1 C2.98 10.83, 2.34 10.43, 1.61 9.55 C0.88 8.67, -0.42 7.21, -0.39 5.82 C-0.36 4.43, 0.84 2.19, 1.79 1.21 C2.74 0.23, 4.55 0.04, 5.33 -0.05 C6.1 -0.14, 6.48 0.53, 6.46 0.67" stroke="#1e1e1e" stroke-width="2" fill="none"></path></g><g stroke-linecap="round" transform="translate(940.3808406550211 184.6042584697043) rotate(0 6 6)"><path d="M5.04 -0.26 C6.25 -0.62, 7.7 -0.33, 8.79 0.29 C9.88 0.9, 11.02 2.25, 11.58 3.44 C12.13 4.64, 12.5 6.13, 12.13 7.46 C11.76 8.78, 10.55 10.61, 9.35 11.4 C8.16 12.19, 6.35 12.43, 4.97 12.2 C3.58 11.96, 1.91 10.95, 1.04 9.99 C0.16 9.03, -0.37 7.78, -0.27 6.44 C-0.18 5.11, 0.66 3.05, 1.6 1.97 C2.55 0.89, 4.69 0.22, 5.41 -0.05 C6.13 -0.32, 5.94 0.27, 5.93 0.33 M6.5 0.28 C7.71 0.39, 9.34 0.9, 10.14 1.8 C10.95 2.69, 11.29 4.33, 11.31 5.64 C11.33 6.95, 10.94 8.66, 10.27 9.67 C9.6 10.68, 8.44 11.43, 7.29 11.68 C6.14 11.93, 4.39 11.7, 3.35 11.15 C2.32 10.61, 1.59 9.62, 1.1 8.41 C0.6 7.2, 0.16 5.18, 0.36 3.88 C0.57 2.59, 1.15 1.31, 2.34 0.65 C3.52 -0.02, 6.76 -0.02, 7.46 -0.11 C8.16 -0.2, 6.78 0.05, 6.55 0.1" stroke="none" stroke-width="0" fill="#fa5252"></path><path d="M6.31 -0.18 C7.55 -0.08, 9.64 0.94, 10.56 1.92 C11.47 2.91, 11.72 4.45, 11.8 5.74 C11.88 7.03, 11.76 8.72, 11.05 9.66 C10.34 10.6, 8.87 11.01, 7.54 11.37 C6.2 11.72, 4.24 12.3, 3.04 11.78 C1.83 11.26, 0.68 9.45, 0.29 8.26 C-0.11 7.07, 0.27 5.81, 0.68 4.64 C1.08 3.47, 1.71 1.99, 2.72 1.23 C3.74 0.48, 6.14 0.27, 6.75 0.12 C7.36 -0.03, 6.46 0.17, 6.38 0.33 M6.83 -0.41 C8.14 -0.35, 9.01 1.16, 9.74 1.96 C10.47 2.76, 10.89 3.18, 11.22 4.4 C11.56 5.62, 12.39 8.16, 11.75 9.28 C11.11 10.41, 8.66 10.7, 7.37 11.16 C6.09 11.62, 5.17 12.46, 4.05 12.04 C2.92 11.62, 1.4 9.76, 0.62 8.63 C-0.15 7.5, -0.94 6.45, -0.59 5.24 C-0.24 4.03, 1.59 2.12, 2.71 1.35 C3.83 0.58, 5.6 0.86, 6.15 0.64 C6.69 0.42, 5.87 0.12, 5.98 0.03" stroke="#1e1e1e" stroke-width="2" fill="none"></path></g></svg>