<svg version="1.1" xmlns="http://www.w3.org/2000/svg" viewBox="0 0 749 527" width="749" height="527">
  <!-- svg-source:excalidraw -->
  
  <defs>
    <style class="style-fonts">
      @font-face {
        font-family: "Virgil";
        src: url("https://excalidraw.com/Virgil.woff2");
      }
      @font-face {
        font-family: "Cascadia";
        src: url("https://excalidraw.com/Cascadia.woff2");
      }
      @font-face {
        font-family: "Assistant";
        src: url("https://excalidraw.com/Assistant-Regular.woff2");
      }
    </style>
    
  </defs>
  <g stroke-linecap="round" transform="translate(10 10) rotate(0 364.5 253.5)"><path d="M32 0 C279.04 -2.48, 525.2 -2.83, 697 0 C721.64 1.38, 728.48 11.97, 729 32 C726.57 165.82, 726.63 302.84, 729 475 C725.49 493.19, 716.35 509.96, 697 507 C493.04 509.76, 287.77 510.08, 32 507 C13.27 503.66, -1.04 498.71, 0 475 C0.37 338.11, -1.77 199.18, 0 32 C-0.84 8.99, 12.07 0.5, 32 0" stroke="none" stroke-width="0" fill="#ffffff"></path><path d="M32 0 C172.84 -1.9, 314.72 -1.93, 697 0 M32 0 C180.42 0.66, 329.35 0.49, 697 0 M697 0 C719.21 -1.55, 730.93 11.19, 729 32 M697 0 C718.33 0.21, 728.96 9.2, 729 32 M729 32 C730.48 196.24, 730.42 358.93, 729 475 M729 32 C730.65 174.93, 731.39 317.41, 729 475 M729 475 C729.61 495.9, 719.5 507.57, 697 507 M729 475 C727.41 495.48, 718.6 506.26, 697 507 M697 507 C518.86 508.29, 342.07 508.3, 32 507 M697 507 C473.09 505.26, 249.06 504.86, 32 507 M32 507 C11.34 506.8, -0.11 495.32, 0 475 M32 507 C10.48 505.77, -0.81 494.79, 0 475 M0 475 C1.19 375.75, 2.44 275.04, 0 32 M0 475 C1.4 342.17, 2 209.2, 0 32 M0 32 C-0.6 9.53, 12.58 0.31, 32 0 M0 32 C1.53 8.6, 11.92 -0.33, 32 0" stroke="#1e1e1e" stroke-width="2" fill="none"></path></g><g stroke-linecap="round"><g stroke-opacity="0.8" fill-opacity="0.8" transform="translate(162.07468837593797 87.80218089490734) rotate(0 0.97280639584028 137.65210501137716)"><path d="M0 0 C2.53 109.76, 1.98 216.68, 1.95 275.3 M0 0 C-0.72 84.93, -0.55 167.73, 1.95 275.3" stroke="#1e1e1e" stroke-width="2" fill="none"></path></g><g stroke-opacity="0.8" fill-opacity="0.8" transform="translate(162.07468837593797 87.80218089490734) rotate(0 0.97280639584028 137.65210501137716)"><path d="M-7.03 251.97 C-2.85 262.94, -1.01 270.27, 1.95 275.3 M-7.03 251.97 C-4.09 260.05, -1.9 265.35, 1.95 275.3" stroke="#1e1e1e" stroke-width="2" fill="none"></path></g><g stroke-opacity="0.8" fill-opacity="0.8" transform="translate(162.07468837593797 87.80218089490734) rotate(0 0.97280639584028 137.65210501137716)"><path d="M10.07 251.66 C7.52 262.77, 2.63 270.21, 1.95 275.3 M10.07 251.66 C7.77 259.79, 4.74 265.19, 1.95 275.3" stroke="#1e1e1e" stroke-width="2" fill="none"></path></g></g><mask></mask><g stroke-linecap="round"><g stroke-opacity="0.8" fill-opacity="0.8" transform="translate(191.25888025114182 388.39935720950484) rotate(0 129.38325064673631 0.9728063958401094)"><path d="M0 0 C79.45 -0.37, 157.16 -0.38, 258.77 1.95 M0 0 C84.02 -0.39, 168.33 0.29, 258.77 1.95" stroke="#1e1e1e" stroke-width="2" fill="none"></path></g><g stroke-opacity="0.8" fill-opacity="0.8" transform="translate(191.25888025114182 388.39935720950484) rotate(0 129.38325064673631 0.9728063958401094)"><path d="M235.15 10.14 C242.79 6.4, 248.34 3.14, 258.77 1.95 M235.15 10.14 C242.47 7.47, 250.1 4.86, 258.77 1.95" stroke="#1e1e1e" stroke-width="2" fill="none"></path></g><g stroke-opacity="0.8" fill-opacity="0.8" transform="translate(191.25888025114182 388.39935720950484) rotate(0 129.38325064673631 0.9728063958401094)"><path d="M235.41 -6.96 C243.12 -5.48, 248.59 -3.51, 258.77 1.95 M235.41 -6.96 C242.55 -4.05, 250.1 -1.08, 258.77 1.95" stroke="#1e1e1e" stroke-width="2" fill="none"></path></g></g><mask></mask><g stroke-linecap="round"><g stroke-opacity="0.8" fill-opacity="0.8" transform="translate(478.2367670239778 360.18797173014127) rotate(0 -0.4864031979200263 -131.8152666363365)"><path d="M0 0 C1.35 -102.45, -1.18 -206.87, -0.97 -263.63 M0 0 C0.45 -68.66, 0.9 -135.67, -0.97 -263.63" stroke="#e03131" stroke-width="2" fill="none"></path></g><g stroke-opacity="0.8" fill-opacity="0.8" transform="translate(478.2367670239778 360.18797173014127) rotate(0 -0.4864031979200263 -131.8152666363365)"><path d="M7.84 -240.24 C6.04 -248.35, -0.13 -258.98, -0.97 -263.63 M7.84 -240.24 C4.75 -247.03, 3.36 -251.73, -0.97 -263.63" stroke="#e03131" stroke-width="2" fill="none"></path></g><g stroke-opacity="0.8" fill-opacity="0.8" transform="translate(478.2367670239778 360.18797173014127) rotate(0 -0.4864031979200263 -131.8152666363365)"><path d="M-9.26 -240.04 C-4.37 -248.27, -3.83 -258.97, -0.97 -263.63 M-9.26 -240.04 C-7.93 -246.88, -4.91 -251.63, -0.97 -263.63" stroke="#e03131" stroke-width="2" fill="none"></path></g></g><mask></mask><g stroke-linecap="round"><g stroke-opacity="0.8" fill-opacity="0.8" transform="translate(444.1885431695732 63.26447216562519) rotate(0 -122.08720267793524 -0.9728063958401094)"><path d="M0 0 C-69.22 -1.26, -137.82 -3.18, -244.17 -1.95 M0 0 C-56.47 -0.58, -113.39 -1.12, -244.17 -1.95" stroke="#1e1e1e" stroke-width="2" fill="none"></path></g><g stroke-opacity="0.8" fill-opacity="0.8" transform="translate(444.1885431695732 63.26447216562519) rotate(0 -122.08720267793524 -0.9728063958401094)"><path d="M-220.62 -10.34 C-226.95 -8.06, -232.57 -7.32, -244.17 -1.95 M-220.62 -10.34 C-225.38 -8.6, -230.74 -6.74, -244.17 -1.95" stroke="#1e1e1e" stroke-width="2" fill="none"></path></g><g stroke-opacity="0.8" fill-opacity="0.8" transform="translate(444.1885431695732 63.26447216562519) rotate(0 -122.08720267793524 -0.9728063958401094)"><path d="M-220.74 6.76 C-227.11 4.18, -232.69 0.04, -244.17 -1.95 M-220.74 6.76 C-225.56 4.5, -230.89 2.37, -244.17 -1.95" stroke="#1e1e1e" stroke-width="2" fill="none"></path></g></g><mask></mask><g stroke-linecap="round"><g stroke-opacity="0.8" fill-opacity="0.8" transform="translate(343.01667800220093 208.43017397908238) rotate(0 158.5674425219397 -34.53462705232434)"><path d="M0 0 C103.64 -21.16, 209.09 -44.93, 317.13 -69.07 M0 0 C87.44 -19.3, 172.78 -37.63, 317.13 -69.07" stroke="#e03131" stroke-width="2" fill="none"></path></g></g><mask></mask><g stroke-opacity="0.8" fill-opacity="0.8" stroke-linecap="round" transform="translate(338.12545241884027 206.4845611874021) rotate(0 3.4048223854404114 3.4048223854404114)"><path d="M2.74 0.09 C3.4 -0.07, 4.37 -0.12, 5.01 0.22 C5.65 0.55, 6.33 1.37, 6.58 2.08 C6.82 2.79, 6.77 3.76, 6.5 4.49 C6.23 5.22, 5.66 6.13, 4.97 6.46 C4.28 6.78, 3.03 6.54, 2.37 6.43 C1.7 6.32, 1.33 6.36, 0.99 5.79 C0.64 5.22, 0.25 3.79, 0.28 3.01 C0.3 2.24, 0.7 1.64, 1.15 1.16 C1.6 0.67, 2.61 0.27, 2.98 0.11 C3.35 -0.05, 3.29 0.2, 3.35 0.19 M3.74 -0.4 C4.3 -0.3, 5.03 0.4, 5.49 1.02 C5.95 1.63, 6.43 2.56, 6.48 3.28 C6.54 4, 6.28 4.76, 5.84 5.35 C5.39 5.94, 4.57 6.54, 3.84 6.81 C3.12 7.07, 2.11 7.22, 1.5 6.95 C0.89 6.68, 0.47 5.91, 0.21 5.18 C-0.06 4.45, -0.37 3.33, -0.09 2.57 C0.2 1.81, 1.32 0.99, 1.9 0.61 C2.48 0.23, 3.06 0.42, 3.38 0.29 C3.7 0.17, 3.8 -0.13, 3.84 -0.13" stroke="none" stroke-width="0" fill="#ffc9c9"></path><path d="M4.12 0.11 C4.85 0.1, 5.6 0.35, 6.03 0.85 C6.46 1.35, 6.74 2.36, 6.71 3.1 C6.68 3.85, 6.25 4.78, 5.85 5.33 C5.45 5.89, 5.01 6.28, 4.3 6.45 C3.6 6.63, 2.27 6.67, 1.6 6.39 C0.94 6.12, 0.48 5.47, 0.3 4.79 C0.11 4.12, 0.27 3.11, 0.5 2.34 C0.73 1.57, 1.02 0.54, 1.65 0.17 C2.28 -0.21, 3.85 0.08, 4.26 0.09 C4.68 0.09, 4.19 0.12, 4.16 0.21 M3.14 0.23 C3.78 0.16, 4.77 0.36, 5.3 0.67 C5.83 0.99, 6.09 1.51, 6.3 2.13 C6.51 2.74, 6.83 3.63, 6.57 4.37 C6.31 5.12, 5.45 6.24, 4.74 6.58 C4.03 6.93, 3.03 6.6, 2.3 6.42 C1.57 6.25, 0.77 6.08, 0.36 5.55 C-0.06 5.03, -0.3 3.97, -0.19 3.28 C-0.08 2.59, 0.43 1.9, 1.01 1.43 C1.6 0.95, 2.97 0.57, 3.32 0.42 C3.67 0.27, 3.23 0.53, 3.11 0.52" stroke="#e03131" stroke-width="2" fill="none"></path></g><g stroke-opacity="0.8" fill-opacity="0.8" stroke-linecap="round" transform="translate(659.4778862959993 135.79601754099178) rotate(0 3.4048223854404114 3.4048223854404114)"><path d="M3.32 0.15 C3.99 0.07, 4.38 0.33, 4.98 0.69 C5.57 1.05, 6.61 1.6, 6.9 2.31 C7.18 3.03, 6.99 4.25, 6.7 4.99 C6.41 5.73, 5.79 6.48, 5.14 6.74 C4.48 7, 3.51 6.75, 2.79 6.56 C2.08 6.37, 1.32 6.09, 0.82 5.58 C0.33 5.07, -0.24 4.25, -0.18 3.5 C-0.12 2.76, 0.63 1.66, 1.16 1.12 C1.68 0.57, 2.65 0.39, 2.95 0.22 C3.26 0.05, 2.99 0.12, 2.96 0.09 M3.98 0.21 C4.71 0.26, 5.11 0.93, 5.66 1.38 C6.22 1.82, 7.13 2.31, 7.28 2.89 C7.44 3.46, 7.01 4.17, 6.61 4.82 C6.2 5.48, 5.67 6.52, 4.86 6.84 C4.05 7.16, 2.45 7.14, 1.75 6.74 C1.06 6.35, 0.91 5.07, 0.69 4.45 C0.47 3.83, 0.33 3.6, 0.44 3.02 C0.55 2.44, 0.85 1.5, 1.36 0.96 C1.87 0.41, 3.17 -0.13, 3.51 -0.22 C3.86 -0.32, 3.47 0.24, 3.43 0.36" stroke="none" stroke-width="0" fill="#ffc9c9"></path><path d="M2.59 0.03 C3.18 -0.21, 4.24 -0.08, 4.91 0.27 C5.59 0.62, 6.34 1.43, 6.63 2.13 C6.92 2.82, 6.92 3.78, 6.65 4.45 C6.37 5.12, 5.63 5.81, 4.98 6.14 C4.34 6.48, 3.43 6.58, 2.78 6.46 C2.12 6.35, 1.47 6, 1.05 5.45 C0.63 4.9, 0.28 3.83, 0.26 3.16 C0.24 2.48, 0.47 1.97, 0.93 1.41 C1.39 0.84, 2.64 -0.02, 3.03 -0.23 C3.43 -0.44, 3.32 0.06, 3.3 0.14 M3.57 -0.11 C4.3 -0.09, 4.94 0.3, 5.45 0.85 C5.96 1.4, 6.39 2.48, 6.63 3.2 C6.87 3.93, 7.24 4.65, 6.88 5.2 C6.53 5.75, 5.26 6.24, 4.5 6.53 C3.75 6.82, 3.08 7.17, 2.35 6.95 C1.62 6.73, 0.52 5.83, 0.13 5.2 C-0.27 4.57, -0.13 3.84, -0.02 3.17 C0.09 2.49, 0.26 1.59, 0.78 1.14 C1.31 0.68, 2.75 0.64, 3.13 0.43 C3.51 0.23, 3.05 -0.15, 3.06 -0.09" stroke="#e03131" stroke-width="2" fill="none"></path></g><g stroke-opacity="0.8" fill-opacity="0.8" stroke-linecap="round" transform="translate(470.4543158572569 67.37324658226464) rotate(0 5.83683837504077 4.864031979200604)"><path d="M5.72 0.12 C6.95 0.22, 9.2 0.91, 10.17 1.55 C11.15 2.18, 11.44 2.89, 11.57 3.93 C11.7 4.96, 11.61 6.87, 10.97 7.76 C10.33 8.64, 8.98 9.01, 7.74 9.22 C6.49 9.44, 4.78 9.33, 3.51 9.03 C2.24 8.72, 0.72 8.37, 0.12 7.41 C-0.49 6.44, -0.53 4.28, -0.12 3.23 C0.29 2.17, 1.44 1.67, 2.57 1.07 C3.7 0.46, 6.03 -0.28, 6.64 -0.38 C7.24 -0.49, 6.3 0.35, 6.21 0.44 M5.16 -0.58 C6.5 -0.73, 9.07 -0.07, 10.15 0.65 C11.23 1.38, 11.41 2.77, 11.65 3.78 C11.89 4.79, 12.28 5.77, 11.6 6.7 C10.91 7.64, 8.82 9.04, 7.53 9.4 C6.25 9.76, 4.97 9.09, 3.88 8.86 C2.78 8.64, 1.68 8.84, 0.94 8.04 C0.21 7.23, -0.64 5.27, -0.52 4.04 C-0.41 2.82, 0.59 1.29, 1.64 0.71 C2.68 0.12, 5 0.72, 5.73 0.53 C6.47 0.33, 5.98 -0.48, 6.03 -0.45" stroke="none" stroke-width="0" fill="#e9ecef"></path><path d="M7 0.08 C8.24 0.28, 9.73 1.16, 10.45 1.86 C11.16 2.57, 11.32 3.36, 11.28 4.33 C11.23 5.29, 10.85 6.75, 10.17 7.66 C9.5 8.57, 8.46 9.53, 7.23 9.78 C5.99 10.03, 3.93 9.66, 2.77 9.16 C1.61 8.65, 0.63 7.77, 0.27 6.75 C-0.09 5.73, 0.12 3.99, 0.61 3.04 C1.09 2.08, 2.09 1.59, 3.16 1.04 C4.23 0.49, 6.31 -0.17, 7.02 -0.25 C7.72 -0.33, 7.35 0.4, 7.38 0.56 M4.28 0.07 C5.4 -0.11, 7.58 0.25, 8.78 0.81 C9.98 1.38, 11.12 2.5, 11.47 3.47 C11.83 4.44, 11.39 5.66, 10.9 6.65 C10.4 7.65, 9.47 9, 8.52 9.44 C7.57 9.88, 6.22 9.51, 5.19 9.29 C4.16 9.08, 3.11 8.82, 2.31 8.13 C1.5 7.45, 0.52 6.19, 0.36 5.2 C0.19 4.22, 0.59 3.1, 1.31 2.2 C2.04 1.31, 4.24 0.07, 4.69 -0.17 C5.15 -0.41, 4.04 0.56, 4.03 0.77" stroke="#1e1e1e" stroke-width="2" fill="none"></path></g><g stroke-opacity="0.8" fill-opacity="0.8" stroke-linecap="round" transform="translate(470.7262518988555 378.9432292927024) rotate(0 5.83683837504077 4.864031979200604)"><path d="M4.26 0.04 C5.36 -0.35, 7.21 -0.32, 8.38 0.24 C9.55 0.8, 10.75 2.45, 11.29 3.42 C11.83 4.38, 11.97 5.07, 11.6 6.03 C11.24 6.98, 10.23 8.51, 9.12 9.15 C8.01 9.79, 6.21 10.07, 4.96 9.87 C3.71 9.67, 2.4 8.81, 1.62 7.94 C0.83 7.06, 0.27 5.7, 0.25 4.62 C0.22 3.53, 0.78 2.18, 1.47 1.44 C2.16 0.7, 3.81 0.42, 4.38 0.16 C4.95 -0.09, 4.8 -0.2, 4.88 -0.09 M4.5 -0.5 C5.49 -0.63, 7.17 0.38, 8.42 0.96 C9.68 1.54, 11.64 1.98, 12.03 2.99 C12.42 4.01, 11.22 5.92, 10.75 7.04 C10.28 8.16, 10.18 9.27, 9.23 9.73 C8.28 10.18, 6.4 10.07, 5.04 9.76 C3.67 9.46, 1.83 8.83, 1.03 7.91 C0.23 7, 0.16 5.29, 0.24 4.26 C0.33 3.24, 0.65 2.52, 1.55 1.77 C2.44 1.02, 5.08 0.12, 5.62 -0.24 C6.15 -0.61, 4.94 -0.44, 4.77 -0.42" stroke="none" stroke-width="0" fill="#e9ecef"></path><path d="M5.29 0.08 C6.39 -0.08, 8.02 0.39, 9.06 0.91 C10.11 1.43, 11.23 2.16, 11.54 3.18 C11.85 4.21, 11.41 6.02, 10.92 7.07 C10.43 8.13, 9.71 9.09, 8.58 9.5 C7.44 9.91, 5.31 9.77, 4.11 9.52 C2.9 9.26, 2.09 8.84, 1.34 7.95 C0.6 7.07, -0.43 5.2, -0.38 4.2 C-0.33 3.19, 0.64 2.61, 1.63 1.9 C2.62 1.2, 4.95 0.21, 5.55 -0.05 C6.15 -0.3, 5.23 0.24, 5.24 0.37 M4.21 0.62 C5.3 0.36, 7.2 -0.52, 8.44 -0.04 C9.68 0.43, 11.12 2.46, 11.67 3.47 C12.21 4.48, 12.29 5.01, 11.72 6.03 C11.15 7.05, 9.47 9.08, 8.25 9.6 C7.03 10.12, 5.57 9.49, 4.4 9.16 C3.22 8.84, 1.95 8.47, 1.21 7.65 C0.47 6.83, 0.01 5.11, -0.04 4.23 C-0.1 3.34, 0.1 3.01, 0.87 2.33 C1.63 1.65, 3.88 0.41, 4.54 0.15 C5.21 -0.11, 4.85 0.8, 4.85 0.79" stroke="#1e1e1e" stroke-width="2" fill="none"></path></g><g stroke-opacity="0.8" fill-opacity="0.8" transform="translate(324.53335648123857 224.9678827083644) rotate(0 7.949999809265137 12.5)"><text x="0" y="17.52" font-family="Virgil, Segoe UI Emoji" font-size="20px" fill="#c2255c" text-anchor="start" style="white-space: pre;" direction="ltr" dominant-baseline="alphabetic">v1</text></g><g stroke-opacity="0.8" fill-opacity="0.8" transform="translate(668.2059502544002 147.4153070827535) rotate(0 12.350000381469727 12.5)"><text x="0" y="17.52" font-family="Virgil, Segoe UI Emoji" font-size="20px" fill="#c2255c" text-anchor="start" style="white-space: pre;" direction="ltr" dominant-baseline="alphabetic">v2</text></g><g stroke-opacity="0.8" fill-opacity="0.8" transform="translate(496.29115423229723 391.8616484802228) rotate(0 35.79999923706055 12.5)"><text x="0" y="17.52" font-family="Virgil, Segoe UI Emoji" font-size="20px" fill="#c2255c" text-anchor="start" style="white-space: pre;" direction="ltr" dominant-baseline="alphabetic">v_dart</text></g><g mask="url(#mask-dmKU9yNioInzxA9hNoiCi)" stroke-linecap="round"><g stroke-opacity="0.8" fill-opacity="0.8" transform="translate(64.79404879192543 81.96534251986657) rotate(0 0 133.76087942801672)"><path d="M0 0 C0.51 98.99, 0.62 202.19, 0 267.52 M0 0 C1.61 82.38, 1.23 164.12, 0 267.52" stroke="#1e1e1e" stroke-width="2" fill="none"></path></g><g stroke-opacity="0.8" fill-opacity="0.8" transform="translate(64.79404879192543 81.96534251986657) rotate(0 0 133.76087942801672)"><path d="M15 -0.03 C10 -1.36, 4.47 1.21, 0 0 M15 -0.03 C10.17 -0.17, 5.19 -0.84, 0 0" stroke="#1e1e1e" stroke-width="2" fill="none"></path></g><g stroke-opacity="0.8" fill-opacity="0.8" transform="translate(64.79404879192543 81.96534251986657) rotate(0 0 133.76087942801672)"><path d="M-15 0.03 C-8.72 -1.54, -2.99 1.01, 0 0 M-15 0.03 C-10.58 0.06, -6.32 -0.62, 0 0" stroke="#1e1e1e" stroke-width="2" fill="none"></path></g><g stroke-opacity="0.8" fill-opacity="0.8" transform="translate(64.79404879192543 81.96534251986657) rotate(0 0 133.76087942801672)"><path d="M-15 267.38 C-8.72 265.87, -2.99 268.49, 0 267.52 M-15 267.38 C-10.58 267.46, -6.31 266.83, 0 267.52" stroke="#1e1e1e" stroke-width="2" fill="none"></path></g><g stroke-opacity="0.8" fill-opacity="0.8" transform="translate(64.79404879192543 81.96534251986657) rotate(0 0 133.76087942801672)"><path d="M15 267.67 C10 266.27, 4.47 268.78, 0 267.52 M15 267.67 C10.17 267.47, 5.19 266.75, 0 267.52" stroke="#1e1e1e" stroke-width="2" fill="none"></path></g></g><mask id="mask-dmKU9yNioInzxA9hNoiCi"><rect x="0" y="0" fill="#fff" width="164.79404879192543" height="449.4871013759"></rect><rect x="55.0940489826603" y="203.2262219478833" fill="#000" width="19.399999618530273" height="25" opacity="1"></rect></mask><g stroke-opacity="0.8" fill-opacity="0.8" transform="translate(55.0940489826603 203.2262219478833) rotate(0 10.23442626614974 12.5)"><text x="9.699999809265137" y="17.52" font-family="Virgil, Segoe UI Emoji" font-size="20px" fill="#1e1e1e" text-anchor="middle" style="white-space: pre;" direction="ltr" dominant-baseline="alphabetic">cy</text></g><g mask="url(#mask-jkxUNKbXiSSgBzEXVbDW_)" stroke-linecap="round"><g stroke-opacity="0.8" fill-opacity="0.8" transform="translate(181.80275233433895 463.577385730793) rotate(0 139.11131460513752 0)"><path d="M0 0 C85.26 -0.69, 171.55 0.85, 278.22 0 M0 0 C103.33 0.9, 205.93 0.28, 278.22 0" stroke="#1e1e1e" stroke-width="2" fill="none"></path></g><g stroke-opacity="0.8" fill-opacity="0.8" transform="translate(181.80275233433895 463.577385730793) rotate(0 139.11131460513752 0)"><path d="M0.02 -15 C-0.43 -11, 0.05 -4.86, 0 0 M0.02 -15 C0.39 -9.52, -0.05 -4.57, 0 0" stroke="#1e1e1e" stroke-width="2" fill="none"></path></g><g stroke-opacity="0.8" fill-opacity="0.8" transform="translate(181.80275233433895 463.577385730793) rotate(0 139.11131460513752 0)"><path d="M-0.02 15 C-0.6 9.75, -0.1 6.64, 0 0 M-0.02 15 C0.18 9.37, -0.25 3.2, 0 0" stroke="#1e1e1e" stroke-width="2" fill="none"></path></g><g stroke-opacity="0.8" fill-opacity="0.8" transform="translate(181.80275233433895 463.577385730793) rotate(0 139.11131460513752 0)"><path d="M278.28 15 C277.68 9.75, 278.15 6.64, 278.22 0 M278.28 15 C278.45 9.37, 277.99 3.2, 278.22 0" stroke="#1e1e1e" stroke-width="2" fill="none"></path></g><g stroke-opacity="0.8" fill-opacity="0.8" transform="translate(181.80275233433895 463.577385730793) rotate(0 139.11131460513752 0)"><path d="M278.16 -15 C277.73 -11, 278.24 -4.86, 278.22 0 M278.16 -15 C278.56 -9.52, 278.15 -4.57, 278.22 0" stroke="#1e1e1e" stroke-width="2" fill="none"></path></g></g><mask id="mask-jkxUNKbXiSSgBzEXVbDW_"><rect x="0" y="0" fill="#fff" width="560.025381544614" height="563.577385730793"></rect><rect x="310.2807337332997" y="451.077385730793" fill="#000" width="21.266666412353516" height="25" opacity="1"></rect></mask><g stroke-opacity="0.8" fill-opacity="0.8" transform="translate(310.2807337332997 451.077385730793) rotate(0 10.633333206176758 12.643485621559634)"><text x="10.633333206176758" y="17.52" font-family="Virgil, Segoe UI Emoji" font-size="20px" fill="#1e1e1e" text-anchor="middle" style="white-space: pre;" direction="ltr" dominant-baseline="alphabetic">cx</text></g><g stroke-linecap="round" transform="translate(470.45431585725646 172.43633733299782) rotate(0 7.296047968800849 7.296047968800906)"><path d="M6.49 0.53 C7.93 0.1, 9.29 -0.13, 10.64 0.67 C11.99 1.47, 14.05 3.77, 14.59 5.32 C15.13 6.87, 14.45 8.61, 13.86 9.98 C13.28 11.35, 12.38 12.87, 11.08 13.55 C9.77 14.23, 7.61 14.38, 6.04 14.05 C4.47 13.73, 2.67 12.75, 1.65 11.61 C0.63 10.48, -0.08 8.77, -0.07 7.25 C-0.07 5.73, 0.54 3.72, 1.68 2.49 C2.82 1.26, 5.93 0.2, 6.76 -0.12 C7.58 -0.45, 6.68 0.37, 6.64 0.56 M8.43 0.63 C9.99 0.86, 12.36 1.58, 13.3 2.81 C14.24 4.03, 14.08 6.56, 14.06 7.97 C14.04 9.37, 14.02 10.12, 13.2 11.24 C12.39 12.35, 10.76 14.3, 9.2 14.67 C7.63 15.03, 5.24 14.32, 3.81 13.41 C2.39 12.5, 1.33 10.72, 0.67 9.21 C0.01 7.71, -0.73 5.85, -0.15 4.38 C0.43 2.9, 2.66 1.11, 4.15 0.35 C5.64 -0.41, 7.95 -0.11, 8.78 -0.18 C9.61 -0.24, 9.15 -0.16, 9.15 -0.05" stroke="none" stroke-width="0" fill="#fa5252"></path><path d="M8.25 0.13 C9.64 0.26, 11.68 1.2, 12.68 2.44 C13.69 3.69, 14.2 6, 14.28 7.61 C14.36 9.23, 14.11 10.98, 13.15 12.14 C12.2 13.3, 10.16 14.41, 8.57 14.56 C6.97 14.72, 4.89 13.97, 3.6 13.08 C2.31 12.19, 1.37 10.69, 0.83 9.24 C0.28 7.78, -0.14 5.76, 0.34 4.35 C0.82 2.93, 2.22 1.41, 3.69 0.77 C5.17 0.13, 8.24 0.64, 9.2 0.51 C10.15 0.37, 9.45 -0.14, 9.43 -0.04 M6.79 0.17 C8.25 -0.12, 9.31 -0.16, 10.61 0.55 C11.91 1.26, 14.13 2.79, 14.6 4.41 C15.06 6.03, 13.98 8.68, 13.41 10.27 C12.84 11.87, 12.55 13.28, 11.19 13.96 C9.83 14.64, 6.9 14.66, 5.25 14.36 C3.6 14.06, 2.07 13.36, 1.29 12.18 C0.52 11, 0.57 8.97, 0.6 7.28 C0.64 5.58, 0.48 3.15, 1.51 2 C2.54 0.85, 5.93 0.76, 6.77 0.36 C7.61 -0.04, 6.59 -0.38, 6.53 -0.41" stroke="#1e1e1e" stroke-width="2" fill="none"></path></g><g mask="url(#mask-4lBbbCHu-TnRdZgCSJEEP)" stroke-linecap="round"><g transform="translate(337.1798396271597 180.21878849971876) rotate(0 62.74601253168771 -13.619289541761702)"><path d="M0 0 C37.67 -10.37, 77.39 -15.89, 125.49 -27.24 M0 0 C27.36 -5.69, 53.57 -11.52, 125.49 -27.24" stroke="#1e1e1e" stroke-width="1" fill="none"></path></g><g transform="translate(337.1798396271597 180.21878849971876) rotate(0 62.74601253168771 -13.619289541761702)"><path d="M-3.18 -14.66 C-3.53 -11.19, -2.23 -4.34, 0 0 M-3.18 -14.66 C-1.76 -11.83, -1.35 -8.78, 0 0" stroke="#1e1e1e" stroke-width="1" fill="none"></path></g><g transform="translate(337.1798396271597 180.21878849971876) rotate(0 62.74601253168771 -13.619289541761702)"><path d="M3.18 14.66 C0.93 8.96, 0.24 6.62, 0 0 M3.18 14.66 C3.14 11.26, 2.21 8.11, 0 0" stroke="#1e1e1e" stroke-width="1" fill="none"></path></g><g transform="translate(337.1798396271597 180.21878849971876) rotate(0 62.74601253168771 -13.619289541761702)"><path d="M128.7 -12.59 C126.44 -18.29, 125.74 -20.62, 125.49 -27.24 M128.7 -12.59 C128.65 -15.99, 127.72 -19.14, 125.49 -27.24" stroke="#1e1e1e" stroke-width="1" fill="none"></path></g><g transform="translate(337.1798396271597 180.21878849971876) rotate(0 62.74601253168771 -13.619289541761702)"><path d="M122.29 -41.89 C121.94 -38.43, 123.25 -31.58, 125.49 -27.24 M122.29 -41.89 C123.71 -39.07, 124.13 -36.02, 125.49 -27.24" stroke="#1e1e1e" stroke-width="1" fill="none"></path></g></g><mask id="mask-4lBbbCHu-TnRdZgCSJEEP"><rect x="0" y="0" fill="#fff" width="562.6718646905351" height="307.45736758324216"></rect><rect x="357.37585292178665" y="154.09949895795705" fill="#000" width="85.0999984741211" height="25" opacity="1"></rect></mask><g transform="translate(357.37585292178665 154.09949895795705) rotate(0 42.549999237060774 12.5)"><text x="42.54999923706055" y="17.52" font-family="Virgil, Segoe UI Emoji" font-size="20px" fill="#1e1e1e" text-anchor="middle" style="white-space: pre;" direction="ltr" dominant-baseline="alphabetic">s*(v2-v1)</text></g><g mask="url(#mask-IFycnix6IyaisBilDSldJ)" stroke-linecap="round"><g transform="translate(516.4481525033411 367.26955254262083) rotate(0 -0.48640319792048103 -88.03897882353101)"><path d="M0 0 C-0.99 -67.87, -0.79 -137.48, -0.97 -176.08 M0 0 C-1.47 -41.53, -1.48 -82.96, -0.97 -176.08" stroke="#1e1e1e" stroke-width="1" fill="none"></path></g><g transform="translate(516.4481525033411 367.26955254262083) rotate(0 -0.48640319792048103 -88.03897882353101)"><path d="M-15 0.1 C-9.65 1.05, -3.32 0.7, 0 0 M-15 0.1 C-11.82 0.09, -8.12 0.11, 0 0" stroke="#1e1e1e" stroke-width="1" fill="none"></path></g><g transform="translate(516.4481525033411 367.26955254262083) rotate(0 -0.48640319792048103 -88.03897882353101)"><path d="M15 -0.1 C8.56 0.93, 3.1 0.65, 0 0 M15 -0.1 C11.11 -0.16, 7.74 -0.1, 0 0" stroke="#1e1e1e" stroke-width="1" fill="none"></path></g><g transform="translate(516.4481525033411 367.26955254262083) rotate(0 -0.48640319792048103 -88.03897882353101)"><path d="M14.03 -176.02 C7.59 -175.05, 2.13 -175.39, -0.97 -176.08 M14.03 -176.02 C10.14 -176.12, 6.77 -176.09, -0.97 -176.08" stroke="#1e1e1e" stroke-width="1" fill="none"></path></g><g transform="translate(516.4481525033411 367.26955254262083) rotate(0 -0.48640319792048103 -88.03897882353101)"><path d="M-15.97 -176.14 C-10.62 -175.12, -4.29 -175.41, -0.97 -176.08 M-15.97 -176.14 C-12.79 -176.11, -9.1 -176.05, -0.97 -176.08" stroke="#1e1e1e" stroke-width="1" fill="none"></path></g></g><mask id="mask-IFycnix6IyaisBilDSldJ"><rect x="0" y="0" fill="#fff" width="617.4209588991821" height="643.3475101896829"></rect><rect x="495.44375916384615" y="266.7305737190898" fill="#000" width="41.035980283149435" height="25" opacity="1"></rect></mask><g transform="translate(495.44375916384615 266.7305737190898) rotate(0 20.366258899401828 12.5)"><text x="20.517990141574717" y="17.52" font-family="Virgil, Segoe UI Emoji" font-size="20px" fill="#1e1e1e" text-anchor="middle" style="white-space: pre;" direction="ltr" dominant-baseline="alphabetic">t*cy</text></g></svg>