<svg version="1.1" xmlns="http://www.w3.org/2000/svg" viewBox="0 0 2310.466434139994 1251.0692372843162" width="2310.466434139994" height="1251.0692372843162">
  <!-- svg-source:excalidraw -->
  
  <defs>
    <style class="style-fonts">
      
    </style>
    
  </defs>
  <g stroke-linecap="round" transform="translate(10 10) rotate(0 1145.233217069997 615.5346186421581)"><path d="M32 0 C880.44 -16.33, 1727.33 -16.56, 2258.47 0 C2277.12 -1.37, 2287.48 13.73, 2290.47 32 C2296.56 344.65, 2297.03 655.26, 2290.47 1199.07 C2289.25 1219.57, 2276.3 1232.75, 2258.47 1231.07 C1434.71 1230.86, 608.23 1231.29, 32 1231.07 C11.15 1234.32, 1.68 1218.5, 0 1199.07 C0.93 918, -0.2 634.97, 0 32 C-3.33 11, 11.7 -1.87, 32 0" stroke="none" stroke-width="0" fill="#ffffff"></path><path d="M32 0 C918.49 7.17, 1805.5 8.11, 2258.47 0 M32 0 C567.76 7.6, 1103.35 7.87, 2258.47 0 M2258.47 0 C2281.46 -1.82, 2289.08 9.02, 2290.47 32 M2258.47 0 C2279.55 -2.21, 2288.89 10.17, 2290.47 32 M2290.47 32 C2288.59 435.19, 2288.6 838.5, 2290.47 1199.07 M2290.47 32 C2295.23 414.78, 2295.12 798.28, 2290.47 1199.07 M2290.47 1199.07 C2288.49 1222.3, 2279.46 1229.26, 2258.47 1231.07 M2290.47 1199.07 C2288.62 1221.23, 2280.33 1232.4, 2258.47 1231.07 M2258.47 1231.07 C1603.81 1235.68, 950.17 1235.31, 32 1231.07 M2258.47 1231.07 C1733 1230.74, 1206.9 1231.18, 32 1231.07 M32 1231.07 C10.46 1230.95, -0.58 1222.24, 0 1199.07 M32 1231.07 C12.93 1231.67, 1.04 1218.8, 0 1199.07 M0 1199.07 C3.52 788.36, 4.47 377.4, 0 32 M0 1199.07 C-1.11 919.14, -1.23 639.11, 0 32 M0 32 C0.63 9.75, 9.89 0.85, 32 0 M0 32 C-1.21 8.57, 9.59 -2.06, 32 0" stroke="#1e1e1e" stroke-width="2" fill="none"></path></g><g stroke-linecap="round"><g transform="translate(125.36793725643156 882.841213335563) rotate(0 1009.9999999999998 -403.9999999999999)"><path d="M0 0 C254.02 -28.77, 508.31 -55.51, 928 -100 M0 0 C216.01 -23.44, 431.44 -46.94, 928 -100 M928 -100 C1136.18 -190.74, 1343.53 -283.47, 1674 -434 M928 -100 C1194.43 -217.99, 1460.51 -337.68, 1674 -434 M1674 -434 C1784.38 -553.46, 1895.07 -672.27, 2020 -808 M1674 -434 C1767.68 -534.76, 1862.28 -636.99, 2020 -808" stroke="#e03131" stroke-width="2" fill="none"></path></g></g><mask></mask><g stroke-linecap="round" transform="translate(109.36793725643156 876.841213335563) rotate(0 8 8)"><path d="M8.15 -0.05 C9.68 -0.13, 11.87 0.7, 13.18 1.79 C14.48 2.88, 15.7 4.77, 15.99 6.48 C16.28 8.2, 15.85 10.54, 14.89 12.08 C13.93 13.63, 11.92 15.21, 10.24 15.75 C8.56 16.29, 6.44 16.05, 4.82 15.34 C3.2 14.63, 1.37 13.06, 0.52 11.49 C-0.32 9.92, -0.69 7.5, -0.24 5.93 C0.21 4.36, 1.76 3.03, 3.23 2.08 C4.7 1.13, 7.62 0.59, 8.57 0.23 C9.52 -0.13, 8.91 -0.12, 8.92 -0.07 M7.68 0.7 C9.31 0.55, 11.78 1.12, 13.17 2.11 C14.56 3.1, 15.66 5, 15.99 6.65 C16.32 8.29, 15.87 10.51, 15.16 12.01 C14.44 13.5, 13.2 15.08, 11.72 15.61 C10.23 16.15, 7.95 15.79, 6.24 15.2 C4.52 14.61, 2.46 13.34, 1.45 12.09 C0.43 10.85, 0.09 9.35, 0.14 7.73 C0.19 6.11, 0.58 3.76, 1.75 2.37 C2.91 0.97, 6.27 -0.35, 7.14 -0.62 C8.01 -0.9, 6.95 0.37, 6.97 0.72" stroke="none" stroke-width="0" fill="#ffc9c9"></path><path d="M7.49 -0.24 C9.14 -0.58, 11.43 0.12, 12.83 1.17 C14.23 2.22, 15.45 4.3, 15.88 6.03 C16.32 7.77, 16.11 10, 15.41 11.59 C14.71 13.17, 13.25 14.87, 11.67 15.54 C10.1 16.22, 7.68 16.09, 5.96 15.63 C4.24 15.17, 2.32 14.29, 1.33 12.8 C0.34 11.31, -0.11 8.44, 0.04 6.67 C0.19 4.9, 0.95 3.33, 2.21 2.18 C3.47 1.04, 6.61 0.08, 7.62 -0.2 C8.63 -0.48, 8.29 0.27, 8.27 0.49 M6.9 0.47 C8.52 0.26, 10.32 1.06, 11.89 1.98 C13.46 2.9, 15.72 4.44, 16.33 5.98 C16.94 7.52, 16.24 9.67, 15.54 11.24 C14.84 12.81, 13.72 14.67, 12.12 15.41 C10.53 16.15, 7.74 16.24, 5.95 15.69 C4.16 15.14, 2.27 13.54, 1.38 12.09 C0.48 10.65, 0.53 8.61, 0.59 7 C0.65 5.39, 0.73 3.63, 1.72 2.42 C2.72 1.21, 5.63 0.17, 6.57 -0.25 C7.52 -0.66, 7.15 -0.18, 7.4 -0.07" stroke="#e03131" stroke-width="2" fill="none"></path></g><g stroke-linecap="round" transform="translate(1048.367937256431 773.841213335563) rotate(0 8 8)"><path d="M8.48 -0.21 C10.02 -0.19, 11.62 1.14, 12.87 2.38 C14.13 3.61, 15.64 5.58, 15.99 7.21 C16.34 8.83, 15.87 10.75, 14.99 12.14 C14.11 13.52, 12.37 14.92, 10.72 15.51 C9.06 16.1, 6.74 16.25, 5.07 15.7 C3.4 15.16, 1.48 13.84, 0.7 12.25 C-0.07 10.66, 0.06 7.95, 0.44 6.16 C0.83 4.37, 1.63 2.6, 3.02 1.53 C4.4 0.45, 7.75 0, 8.75 -0.29 C9.75 -0.59, 9.14 -0.42, 9.01 -0.23 M10.47 0.5 C12 0.84, 13.19 2.35, 14.07 3.56 C14.96 4.78, 15.92 6.21, 15.78 7.8 C15.65 9.38, 14.51 11.71, 13.27 13.05 C12.03 14.39, 9.88 15.62, 8.37 15.81 C6.86 16.01, 5.57 15.01, 4.2 14.24 C2.83 13.46, 0.8 12.56, 0.14 11.14 C-0.52 9.71, -0.42 7.39, 0.23 5.67 C0.88 3.94, 2.37 1.73, 4.03 0.8 C5.68 -0.13, 9.15 0.15, 10.18 0.09 C11.21 0.02, 10.24 0.27, 10.21 0.38" stroke="none" stroke-width="0" fill="#ffc9c9"></path><path d="M8.69 -0.48 C10.38 -0.58, 12.33 0.65, 13.46 1.82 C14.59 2.99, 15.22 4.83, 15.5 6.54 C15.78 8.25, 15.91 10.53, 15.14 12.09 C14.38 13.64, 12.63 15.25, 10.93 15.89 C9.22 16.53, 6.67 16.6, 4.92 15.91 C3.18 15.22, 1.19 13.41, 0.46 11.77 C-0.28 10.13, 0.01 7.71, 0.52 6.08 C1.03 4.44, 2.11 2.93, 3.5 1.99 C4.9 1.05, 8.02 0.68, 8.89 0.43 C9.76 0.19, 8.81 0.44, 8.73 0.53 M9.79 0.82 C11.3 1.01, 12.45 2.1, 13.6 3.27 C14.76 4.43, 16.7 6.16, 16.73 7.79 C16.76 9.42, 14.86 11.61, 13.78 13.07 C12.7 14.53, 11.76 16.23, 10.27 16.53 C8.78 16.84, 6.42 15.95, 4.84 14.93 C3.26 13.9, 1.43 12, 0.77 10.38 C0.11 8.75, 0.29 6.6, 0.87 5.17 C1.46 3.75, 2.76 2.72, 4.26 1.81 C5.76 0.89, 8.92 -0.05, 9.85 -0.31 C10.78 -0.56, 10.04 0.06, 9.85 0.27" stroke="#e03131" stroke-width="2" fill="none"></path></g><g stroke-linecap="round" transform="translate(1793.367937256431 438.841213335563) rotate(0 8 8)"><path d="M6.1 0.29 C7.59 -0.18, 9.87 0.01, 11.39 0.76 C12.91 1.51, 14.61 3.2, 15.23 4.79 C15.85 6.39, 15.54 8.72, 15.11 10.34 C14.68 11.95, 14.01 13.49, 12.66 14.49 C11.32 15.5, 8.72 16.51, 7.03 16.36 C5.34 16.22, 3.72 14.95, 2.52 13.62 C1.31 12.28, 0.02 10.09, -0.2 8.35 C-0.41 6.6, 0.03 4.44, 1.23 3.15 C2.44 1.85, 6.09 1.07, 7.03 0.56 C7.98 0.05, 6.96 0, 6.88 0.11 M8.06 -0.09 C9.86 -0.16, 12.52 0.17, 13.83 1.44 C15.14 2.71, 15.71 5.82, 15.93 7.52 C16.15 9.22, 15.99 10.28, 15.16 11.63 C14.33 12.99, 12.63 15.07, 10.96 15.64 C9.29 16.21, 6.91 15.61, 5.13 15.04 C3.35 14.47, 1.2 13.65, 0.27 12.23 C-0.67 10.8, -1.04 8.32, -0.48 6.51 C0.09 4.69, 2.11 2.31, 3.67 1.34 C5.23 0.38, 8.2 0.82, 8.88 0.72 C9.57 0.62, 7.98 0.7, 7.78 0.75" stroke="none" stroke-width="0" fill="#ffc9c9"></path><path d="M8.11 0.39 C9.86 0.36, 11.84 0.98, 13.16 1.98 C14.48 2.98, 15.7 4.72, 16.04 6.38 C16.38 8.03, 16.08 10.33, 15.19 11.91 C14.31 13.5, 12.32 15.31, 10.74 15.89 C9.17 16.47, 7.26 15.93, 5.74 15.39 C4.21 14.85, 2.5 14.09, 1.61 12.67 C0.71 11.25, 0.13 8.67, 0.37 6.87 C0.61 5.07, 1.77 3.06, 3.04 1.88 C4.31 0.7, 7.16 0.11, 7.99 -0.22 C8.81 -0.54, 8.01 -0.3, 7.99 -0.06 M6.58 0.5 C8.2 -0.04, 9.91 -0.06, 11.36 0.73 C12.82 1.53, 14.56 3.65, 15.31 5.25 C16.06 6.85, 16.29 8.72, 15.87 10.32 C15.46 11.92, 14.18 13.87, 12.8 14.86 C11.42 15.84, 9.35 16.5, 7.62 16.22 C5.88 15.94, 3.74 14.51, 2.37 13.2 C0.99 11.89, -0.42 9.97, -0.63 8.37 C-0.83 6.77, -0.02 5.08, 1.12 3.62 C2.26 2.16, 5.27 0.1, 6.19 -0.38 C7.12 -0.87, 6.61 0.42, 6.68 0.73" stroke="#e03131" stroke-width="2" fill="none"></path></g><g stroke-linecap="round" transform="translate(2136.367937256431 67.84121333556322) rotate(0 8 8)"><path d="M6.03 0.34 C7.54 -0.12, 10.01 0.36, 11.61 1.12 C13.2 1.88, 14.93 3.39, 15.6 4.89 C16.27 6.4, 16.16 8.48, 15.63 10.16 C15.09 11.85, 13.77 14.09, 12.38 15.01 C10.99 15.93, 8.95 16.04, 7.29 15.69 C5.63 15.34, 3.65 14.11, 2.41 12.91 C1.17 11.71, 0.02 10.12, -0.14 8.5 C-0.31 6.88, 0.22 4.64, 1.41 3.19 C2.6 1.74, 6.02 0.32, 7 -0.2 C7.99 -0.72, 7.36 -0.17, 7.31 0.09 M8.68 0.32 C10.39 0.48, 12.51 1.99, 13.67 3.12 C14.84 4.25, 15.49 5.6, 15.68 7.11 C15.87 8.62, 15.75 10.8, 14.81 12.17 C13.88 13.55, 11.87 14.98, 10.1 15.38 C8.33 15.79, 5.88 15.23, 4.2 14.59 C2.52 13.94, 0.71 13.1, -0.01 11.51 C-0.72 9.93, -0.78 6.67, -0.07 5.06 C0.64 3.46, 2.83 2.79, 4.27 1.89 C5.72 0.98, 7.79 0.01, 8.59 -0.37 C9.4 -0.74, 9.15 -0.48, 9.11 -0.37" stroke="none" stroke-width="0" fill="#ffc9c9"></path><path d="M9.9 0.55 C11.47 0.86, 13.81 1.8, 14.77 3.12 C15.73 4.43, 15.9 6.61, 15.67 8.43 C15.43 10.24, 14.59 12.71, 13.38 14.01 C12.17 15.31, 10.12 16.1, 8.4 16.24 C6.68 16.39, 4.45 15.93, 3.06 14.86 C1.67 13.78, 0.4 11.55, 0.04 9.79 C-0.31 8.04, 0.09 5.88, 0.9 4.32 C1.72 2.75, 3.39 1.13, 4.93 0.41 C6.48 -0.3, 9.26 0.02, 10.19 0.02 C11.13 0.03, 10.51 0.35, 10.54 0.46 M9.88 0.55 C11.49 0.85, 13.2 2.64, 14.2 3.83 C15.19 5.02, 15.91 6.04, 15.84 7.68 C15.77 9.31, 14.81 12.36, 13.78 13.64 C12.75 14.93, 11.38 15.29, 9.65 15.39 C7.92 15.5, 4.96 15.12, 3.38 14.25 C1.79 13.39, 0.57 11.66, 0.15 10.21 C-0.27 8.77, 0.06 7.21, 0.85 5.61 C1.63 4, 3.46 1.46, 4.83 0.59 C6.21 -0.27, 8.33 0.4, 9.1 0.42 C9.87 0.43, 9.28 0.65, 9.45 0.67" stroke="#e03131" stroke-width="2" fill="none"></path></g><g stroke-linecap="round"><g transform="translate(515.7672175218618 819.5166038104933) rotate(0 17 23)"><path d="M0 0 C13.92 6.04, 26.83 13.96, 34 18 M34 18 C24.81 28.09, 15.76 38.86, 10 46" stroke="#e03131" stroke-width="2.5" fill="none" stroke-dasharray="8 10"></path></g></g><mask></mask><g stroke-linecap="round"><g transform="translate(1395.336613532083 603.1542756942904) rotate(339.5797042460132 17 23)"><path d="M0 0 C12.53 6.86, 23.63 12.26, 34 18 M34 18 C28.57 25.02, 23.56 30.37, 10 46" stroke="#e03131" stroke-width="2.5" fill="none" stroke-dasharray="8 10"></path></g></g><mask></mask><g stroke-linecap="round"><g transform="translate(1949.8623811607868 249.58551487376576) rotate(319.24159117195614 17 23)"><path d="M0 0 C7.43 4.93, 15.42 7.58, 34 18 M34 18 C26.38 26.79, 20.01 34.34, 10 46" stroke="#e03131" stroke-width="2.5" fill="none" stroke-dasharray="8 10"></path></g></g><mask></mask><g stroke-linecap="round"><g transform="translate(116.37882679126005 845.1176033969928) rotate(0 446.346925177256 -48.67739110066191)"><path d="M0.81 -1.17 C149.54 -17.58, 744.04 -82.27, 892.62 -98.29 M-0.23 0.83 C148.32 -15.48, 743.05 -81.12, 891.63 -97.24" stroke="#da77f2" stroke-width="2" fill="none"></path></g><g transform="translate(116.37882679126005 845.1176033969928) rotate(0 446.346925177256 -48.67739110066191)"><path d="M869.21 -86.19 C874.34 -89.97, 881.83 -94.09, 891.63 -97.24 M869.21 -86.19 C875.82 -90.46, 883.64 -92.95, 891.63 -97.24" stroke="#da77f2" stroke-width="2" fill="none"></path></g><g transform="translate(116.37882679126005 845.1176033969928) rotate(0 446.346925177256 -48.67739110066191)"><path d="M867.34 -103.18 C873.09 -101.59, 881.17 -100.33, 891.63 -97.24 M867.34 -103.18 C874.63 -102.26, 883.03 -99.55, 891.63 -97.24" stroke="#da77f2" stroke-width="2" fill="none"></path></g></g><mask></mask><g stroke-linecap="round"><g transform="translate(1086.626486695979 719.7114432732535) rotate(0 325.0659676891664 -149.33233541050527)"><path d="M0.7 0.85 C108.98 -48.83, 540.75 -249.13, 649.14 -299.21 M-0.39 0.25 C108.3 -49.17, 542.81 -248.12, 651.34 -297.96" stroke="#da77f2" stroke-width="2" fill="none"></path></g><g transform="translate(1086.626486695979 719.7114432732535) rotate(0 325.0659676891664 -149.33233541050527)"><path d="M633.54 -280.4 C639.66 -286.62, 641.86 -287.92, 651.34 -297.96 M633.54 -280.4 C637.5 -283.16, 641.29 -288.01, 651.34 -297.96" stroke="#da77f2" stroke-width="2" fill="none"></path></g><g transform="translate(1086.626486695979 719.7114432732535) rotate(0 325.0659676891664 -149.33233541050527)"><path d="M626.42 -295.94 C634.2 -298.25, 638.21 -295.59, 651.34 -297.96 M626.42 -295.94 C632 -295.22, 637.36 -296.65, 651.34 -297.96" stroke="#da77f2" stroke-width="2" fill="none"></path></g></g><mask></mask><g stroke-linecap="round"><g transform="translate(1791.211096864883 386.3950703127887) rotate(0 155.107619100414 -168.3082675344922)"><path d="M0.39 0.25 C52.32 -55.96, 259.16 -280.71, 310.67 -336.73 M-0.86 -0.66 C51.02 -56.73, 257.83 -279.06, 309.95 -335.25" stroke="#da77f2" stroke-width="2" fill="none"></path></g><g transform="translate(1791.211096864883 386.3950703127887) rotate(0 155.107619100414 -168.3082675344922)"><path d="M300.23 -312.21 C302.76 -316.76, 304.38 -324.1, 309.95 -335.25 M300.23 -312.21 C304.24 -321, 306.99 -328.94, 309.95 -335.25" stroke="#da77f2" stroke-width="2" fill="none"></path></g><g transform="translate(1791.211096864883 386.3950703127887) rotate(0 155.107619100414 -168.3082675344922)"><path d="M287.7 -323.85 C293.15 -325.78, 297.63 -330.46, 309.95 -335.25 M287.7 -323.85 C296.3 -328.52, 303.61 -332.23, 309.95 -335.25" stroke="#da77f2" stroke-width="2" fill="none"></path></g></g><mask></mask><g stroke-linecap="round"><g transform="translate(2192.1807930499963 102.58112898011564) rotate(0 -155.107619100414 174.90859175153105)"><path d="M0.24 0.95 C-51.48 59.06, -258.65 291.43, -310.33 349.46 M-1.1 0.4 C-52.98 58.62, -259.78 292.52, -311.34 350.81" stroke="#1971c2" stroke-width="2" fill="none"></path></g><g transform="translate(2192.1807930499963 102.58112898011564) rotate(0 -155.107619100414 174.90859175153105)"><path d="M-302.18 327.55 C-303.19 334.32, -308.1 342.03, -311.34 350.81 M-302.18 327.55 C-304.42 333.54, -306.16 338.95, -311.34 350.81" stroke="#1971c2" stroke-width="2" fill="none"></path></g><g transform="translate(2192.1807930499963 102.58112898011564) rotate(0 -155.107619100414 174.90859175153105)"><path d="M-289.37 338.88 C-294.28 342.29, -303.01 346.61, -311.34 350.81 M-289.37 338.88 C-294.65 342.1, -299.51 344.75, -311.34 350.81" stroke="#1971c2" stroke-width="2" fill="none"></path></g></g><mask></mask><g stroke-linecap="round"><g transform="translate(1814.312231624519 503.55082516522907) rotate(0 -342.39181875889335 155.93265962754435)"><path d="M-1.16 0.82 C-114.92 52.52, -569.63 259.37, -683.74 311.22 M0.44 0.2 C-113.29 52.57, -570.16 260.25, -684.14 312.41" stroke="#1971c2" stroke-width="2" fill="none"></path></g><g transform="translate(1814.312231624519 503.55082516522907) rotate(0 -342.39181875889335 155.93265962754435)"><path d="M-666.31 294.89 C-668.4 300, -674.44 300.12, -684.14 312.41 M-666.31 294.89 C-672.32 300.9, -676.91 305.43, -684.14 312.41" stroke="#1971c2" stroke-width="2" fill="none"></path></g><g transform="translate(1814.312231624519 503.55082516522907) rotate(0 -342.39181875889335 155.93265962754435)"><path d="M-659.22 310.45 C-662.87 312.35, -670.35 309.33, -684.14 312.41 M-659.22 310.45 C-667.27 311.75, -674 311.6, -684.14 312.41" stroke="#1971c2" stroke-width="2" fill="none"></path></g></g><mask></mask><g stroke-linecap="round"><g transform="translate(1025.573487688369 840.1673602342134) rotate(0 -447.1719657043859 47.02731004640225)"><path d="M-0.46 -1.07 C-149.7 14.58, -745.56 78.51, -894.64 94.46 M1.5 0.98 C-148 16.21, -746.15 77.28, -895.74 92.55" stroke="#1971c2" stroke-width="2" fill="none"></path></g><g transform="translate(1025.573487688369 840.1673602342134) rotate(0 -447.1719657043859 47.02731004640225)"><path d="M-873.24 81.65 C-883.27 85.09, -889.1 88.59, -895.74 92.55 M-873.24 81.65 C-880.16 86.14, -888.01 90.01, -895.74 92.55" stroke="#1971c2" stroke-width="2" fill="none"></path></g><g transform="translate(1025.573487688369 840.1673602342134) rotate(0 -447.1719657043859 47.02731004640225)"><path d="M-871.5 98.67 C-882.25 95.83, -888.72 93.06, -895.74 92.55 M-871.5 98.67 C-879.2 97.26, -887.65 95.22, -895.74 92.55" stroke="#1971c2" stroke-width="2" fill="none"></path></g></g><mask></mask><g stroke-linecap="round"><g transform="translate(1000.8222718744737 698.2603895678772) rotate(0 -54.45267479057111 -146.03217330198595)"><path d="M0.03 -0.29 C-17.99 -49.12, -89.69 -243.77, -107.93 -292.45 M-1.41 -1.48 C-19.53 -50.19, -90.19 -242.83, -108.37 -291.12" stroke="#1e1e1e" stroke-width="2" fill="none"></path></g><g transform="translate(1000.8222718744737 698.2603895678772) rotate(0 -54.45267479057111 -146.03217330198595)"><path d="M-92.18 -272.07 C-97.9 -276.51, -103.23 -285.07, -108.37 -291.12 M-92.18 -272.07 C-97.04 -278.26, -101.94 -282.6, -108.37 -291.12" stroke="#1e1e1e" stroke-width="2" fill="none"></path></g><g transform="translate(1000.8222718744737 698.2603895678772) rotate(0 -54.45267479057111 -146.03217330198595)"><path d="M-108.21 -266.12 C-108.85 -272.46, -109.07 -282.92, -108.37 -291.12 M-108.21 -266.12 C-108.65 -274, -109.13 -279.98, -108.37 -291.12" stroke="#1e1e1e" stroke-width="2" fill="none"></path></g></g><mask></mask><g stroke-linecap="round"><g transform="translate(941.4193539211237 392.99539452982754) rotate(0 52.80259373631134 146.03217330198584)"><path d="M-0.93 -0.28 C16.8 48.33, 88.56 243.18, 106.19 291.82 M0.78 -1.48 C18.42 47.31, 87.78 244.21, 105.55 293.22" stroke="#1e1e1e" stroke-width="2" fill="none"></path></g><g transform="translate(941.4193539211237 392.99539452982754) rotate(0 52.80259373631134 146.03217330198584)"><path d="M89.6 273.97 C93.72 280.58, 98.34 283.88, 105.55 293.22 M89.6 273.97 C94.44 278.19, 98.25 283.08, 105.55 293.22" stroke="#1e1e1e" stroke-width="2" fill="none"></path></g><g transform="translate(941.4193539211237 392.99539452982754) rotate(0 52.80259373631134 146.03217330198584)"><path d="M105.71 268.22 C105.22 276.35, 105.23 281.3, 105.55 293.22 M105.71 268.22 C106.46 273.93, 106.14 280.29, 105.55 293.22" stroke="#1e1e1e" stroke-width="2" fill="none"></path></g></g><mask></mask><g stroke-linecap="round"><g transform="translate(1518.9477229120293 140.53299322808948) rotate(0 118.80583590669994 111.38047116253153)"><path d="M-0.43 0.29 C39.15 37.43, 198.07 185.17, 237.71 222.4 M1.55 -0.61 C40.96 36.76, 197.66 186.68, 236.81 223.75" stroke="#1e1e1e" stroke-width="2" fill="none"></path></g><g transform="translate(1518.9477229120293 140.53299322808948) rotate(0 118.80583590669994 111.38047116253153)"><path d="M213.9 213.74 C221.61 217.15, 227.79 219.75, 236.81 223.75 M213.9 213.74 C222.33 217.63, 231.05 220.88, 236.81 223.75" stroke="#1e1e1e" stroke-width="2" fill="none"></path></g><g transform="translate(1518.9477229120293 140.53299322808948) rotate(0 118.80583590669994 111.38047116253153)"><path d="M225.69 201.35 C229.61 208.66, 232.06 215.19, 236.81 223.75 M225.69 201.35 C229.79 209.89, 234.08 217.78, 236.81 223.75" stroke="#1e1e1e" stroke-width="2" fill="none"></path></g></g><mask></mask><g stroke-linecap="round"><g transform="translate(1715.3073683689354 384.74498925852913) rotate(0 -114.68063327105074 -105.60518747262256)"><path d="M-0.94 -0.26 C-39.12 -35.49, -190.49 -175.84, -228.48 -211.08 M0.76 -1.45 C-37.55 -36.48, -190.61 -174.61, -228.97 -209.47" stroke="#1e1e1e" stroke-width="2" fill="none"></path></g><g transform="translate(1715.3073683689354 384.74498925852913) rotate(0 -114.68063327105074 -105.60518747262256)"><path d="M-205.82 -200.05 C-214.38 -202.06, -221.82 -206.05, -228.97 -209.47 M-205.82 -200.05 C-210.91 -203.26, -217.81 -205.15, -228.97 -209.47" stroke="#1e1e1e" stroke-width="2" fill="none"></path></g><g transform="translate(1715.3073683689354 384.74498925852913) rotate(0 -114.68063327105074 -105.60518747262256)"><path d="M-217.3 -187.37 C-221.87 -193.73, -225.3 -202.16, -228.97 -209.47 M-217.3 -187.37 C-219.31 -193.81, -223.24 -198.99, -228.97 -209.47" stroke="#1e1e1e" stroke-width="2" fill="none"></path></g></g><mask></mask><g stroke-linecap="round"><g transform="translate(1071.7757572076416 861.61841393959) rotate(0 47.02731004640282 149.33233541050538)"><path d="M0.51 -0.96 C16.19 48.87, 78.71 249.5, 94.23 299.25 M-0.67 1.15 C14.84 50.61, 77.82 247.91, 93.37 297.43" stroke="#1e1e1e" stroke-width="2" fill="none"></path></g><g transform="translate(1071.7757572076416 861.61841393959) rotate(0 47.02731004640282 149.33233541050538)"><path d="M78.12 277.62 C81.36 284.08, 88.74 289.27, 93.37 297.43 M78.12 277.62 C81.45 281.67, 85.02 286.26, 93.37 297.43" stroke="#1e1e1e" stroke-width="2" fill="none"></path></g><g transform="translate(1071.7757572076416 861.61841393959) rotate(0 47.02731004640282 149.33233541050538)"><path d="M94.42 272.45 C92.54 280.61, 94.78 287.43, 93.37 297.43 M94.42 272.45 C94.41 277.59, 94.62 283.25, 93.37 297.43" stroke="#1e1e1e" stroke-width="2" fill="none"></path></g></g><mask></mask><g stroke-linecap="round"><g transform="translate(1893.5161222289853 495.30041989393067) rotate(0 98.17982272845347 125.40616012373914)"><path d="M-1.08 0.85 C31.43 42.53, 162.73 208.07, 195.47 249.89 M0.56 0.25 C33.41 42.07, 164.86 209.32, 197.71 250.94" stroke="#1e1e1e" stroke-width="2" fill="none"></path></g><g transform="translate(1893.5161222289853 495.30041989393067) rotate(0 98.17982272845347 125.40616012373914)"><path d="M176.46 237.77 C184.97 240.88, 189.11 245.05, 197.71 250.94 M176.46 237.77 C185.5 243.31, 193.72 248.69, 197.71 250.94" stroke="#1e1e1e" stroke-width="2" fill="none"></path></g><g transform="translate(1893.5161222289853 495.30041989393067) rotate(0 98.17982272845347 125.40616012373914)"><path d="M189.9 227.19 C193.9 233.72, 193.55 241.43, 197.71 250.94 M189.9 227.19 C193.91 236.73, 197 246.13, 197.71 250.94" stroke="#1e1e1e" stroke-width="2" fill="none"></path></g></g><mask></mask><g stroke-linecap="round"><g transform="translate(2058.5242276549598 784.0646043893828) rotate(0 -100.65494430984336 -128.70632223225869)"><path d="M0.65 -0.43 C-32.94 -43.46, -168.02 -215.23, -201.87 -258.24 M-0.47 -1.7 C-34.24 -44.6, -169.83 -214.46, -203.11 -257.14" stroke="#1e1e1e" stroke-width="2" fill="none"></path></g><g transform="translate(2058.5242276549598 784.0646043893828) rotate(0 -100.65494430984336 -128.70632223225869)"><path d="M-181.84 -244.01 C-188.4 -248.43, -194.92 -253, -203.11 -257.14 M-181.84 -244.01 C-185.55 -246.25, -191.64 -249.62, -203.11 -257.14" stroke="#1e1e1e" stroke-width="2" fill="none"></path></g><g transform="translate(2058.5242276549598 784.0646043893828) rotate(0 -100.65494430984336 -128.70632223225869)"><path d="M-195.25 -233.4 C-198.12 -240.82, -200.94 -248.31, -203.11 -257.14 M-195.25 -233.4 C-196.2 -237.8, -199.5 -243.39, -203.11 -257.14" stroke="#1e1e1e" stroke-width="2" fill="none"></path></g></g><mask></mask><g stroke-linecap="round"><g transform="translate(1207.0824036569393 1142.1321931637435) rotate(0 -46.20226951927225 -145.20713277485595)"><path d="M-0.42 -0.19 C-15.99 -48.75, -77.61 -242.37, -92.82 -290.86 M1.56 -1.34 C-14.25 -49.77, -78.38 -241.42, -93.98 -289.56" stroke="#1e1e1e" stroke-width="2" fill="none"></path></g><g transform="translate(1207.0824036569393 1142.1321931637435) rotate(0 -46.20226951927225 -145.20713277485595)"><path d="M-78.5 -269.93 C-84.29 -277.51, -90.1 -282.47, -93.98 -289.56 M-78.5 -269.93 C-81.31 -275.44, -85.78 -279.31, -93.98 -289.56" stroke="#1e1e1e" stroke-width="2" fill="none"></path></g><g transform="translate(1207.0824036569393 1142.1321931637435) rotate(0 -46.20226951927225 -145.20713277485595)"><path d="M-94.74 -264.57 C-94.89 -273.95, -95.06 -280.78, -93.98 -289.56 M-94.74 -264.57 C-93.65 -271.33, -94.22 -276.49, -93.98 -289.56" stroke="#1e1e1e" stroke-width="2" fill="none"></path></g></g><mask></mask></svg>