<svg version="1.1" xmlns="http://www.w3.org/2000/svg" viewBox="0 0 1072 760" width="1072" height="760">
  <!-- svg-source:excalidraw -->
  
  <defs>
    <style class="style-fonts">
      @font-face {
        font-family: "Virgil";
        src: url("https://excalidraw.com/Virgil.woff2");
      }
      @font-face {
        font-family: "Cascadia";
        src: url("https://excalidraw.com/Cascadia.woff2");
      }
      @font-face {
        font-family: "Assistant";
        src: url("https://excalidraw.com/Assistant-Regular.woff2");
      }
    </style>
    
  </defs>
  <g stroke-linecap="round" transform="translate(10 10) rotate(0 526 370)"><path d="M32 0 C287.21 3.24, 543.66 1.48, 1020 0 C1041.45 -0.69, 1050.91 12.77, 1052 32 C1052.32 236.55, 1051.85 444.3, 1052 708 C1051.77 731.9, 1042.21 743.46, 1020 740 C725.32 745.63, 426.79 745.29, 32 740 C9.26 737.84, 0.56 725.95, 0 708 C2.59 509.43, 3.76 313.27, 0 32 C-3.21 11.18, 11.09 -1.11, 32 0" stroke="none" stroke-width="0" fill="#ffffff"></path><path d="M32 0 C417.99 0.58, 803.74 0.13, 1020 0 M32 0 C240.94 -2.02, 449.58 -2.52, 1020 0 M1020 0 C1040.24 0.37, 1052.08 10.58, 1052 32 M1020 0 C1041.65 -2.2, 1050.69 11.55, 1052 32 M1052 32 C1052.44 172.5, 1052.79 312.97, 1052 708 M1052 32 C1053.06 205.52, 1053.38 379.21, 1052 708 M1052 708 C1051.6 729.28, 1041.29 739.86, 1020 740 M1052 708 C1052.4 728.2, 1039.07 739.27, 1020 740 M1020 740 C685.27 738.54, 351.17 738.33, 32 740 M1020 740 C662.14 737.72, 303.4 737.45, 32 740 M32 740 C9.04 740.79, 0.77 730.72, 0 708 M32 740 C9.43 739.75, 1.36 729.12, 0 708 M0 708 C-1.69 506.88, -2.4 305.96, 0 32 M0 708 C0.62 469.35, 0.37 230.52, 0 32 M0 32 C-0.2 10.94, 10.91 0.92, 32 0 M0 32 C2.24 12.75, 10.12 0.54, 32 0" stroke="#1e1e1e" stroke-width="2" fill="none"></path></g><g stroke-linecap="round" transform="translate(43.632682574023875 38) rotate(0 492.9999999999998 344.00000000000006)"><path d="M0 0 C278.73 2.38, 557.27 1.93, 986 0 M0 0 C246.86 -4.03, 492.93 -3.69, 986 0 M986 0 C984.07 212.1, 983.86 424.41, 986 688 M986 0 C985.75 162.86, 986 325.97, 986 688 M986 688 C644.84 687.87, 305.34 687.46, 0 688 M986 688 C661.1 684.2, 336.45 684.25, 0 688 M0 688 C3.14 496.68, 3.24 305.85, 0 0 M0 688 C-1.76 542.19, -1.96 396.67, 0 0" stroke="#1e1e1e" stroke-width="2" fill="none"></path></g><g stroke-linecap="round"><g transform="translate(115.63268257402387 38) rotate(0 -0.5 344.00000000000006)"><path d="M0 0 C-0.03 258.24, -0.72 516.23, -1 688 M0 0 C0.14 271.06, -0.17 541.76, -1 688" stroke="#1e1e1e" stroke-width="2" fill="none"></path></g></g><mask></mask><g stroke-linecap="round"><g transform="translate(191.63268257402387 39) rotate(0 -1 343.50000000000006)"><path d="M0 0 C-1.14 217.7, -1.77 436.11, -2 687 M0 0 C-0.79 235.89, -1.58 471.65, -2 687" stroke="#1e1e1e" stroke-width="2" fill="none"></path></g></g><mask></mask><g stroke-linecap="round"><g transform="translate(260.6326825740239 39) rotate(0 0 343.50000000000006)"><path d="M0 0 C-1.03 178.75, -0.41 358, 0 687 M0 0 C2.53 201.44, 2.73 402.61, 0 687" stroke="#1e1e1e" stroke-width="2" fill="none"></path></g></g><mask></mask><g stroke-linecap="round"><g transform="translate(332.6326825740239 37) rotate(0 0.5 343.50000000000006)"><path d="M0 0 C1.03 186.99, 1.64 372.43, 1 687 M0 0 C-1.23 256.28, -1.01 512.69, 1 687" stroke="#1e1e1e" stroke-width="2" fill="none"></path></g></g><mask></mask><g stroke-linecap="round"><g transform="translate(403.6326825740239 40) rotate(0 -0.5 343.00000000000006)"><path d="M0 0 C-2.02 271.21, -3.01 541.72, -1 686 M0 0 C-0.16 143.93, 0.12 286.96, -1 686" stroke="#1e1e1e" stroke-width="2" fill="none"></path></g></g><mask></mask><g stroke-linecap="round"><g transform="translate(474.6326825740239 39) rotate(0 -0.5 343.00000000000006)"><path d="M0 0 C-0.61 204.14, -1.71 407.51, -1 686 M0 0 C-2.21 180.59, -2.33 361.65, -1 686" stroke="#1e1e1e" stroke-width="2" fill="none"></path></g></g><mask></mask><g stroke-linecap="round"><g transform="translate(547.6326825740239 40) rotate(0 -0.5 343.00000000000006)"><path d="M0 0 C-1.09 192.23, -1.3 383.92, -1 686 M0 0 C-0.97 265.31, -1.73 530.17, -1 686" stroke="#1e1e1e" stroke-width="2" fill="none"></path></g></g><mask></mask><g stroke-linecap="round"><g transform="translate(616.6326825740239 40) rotate(0 -0.5 343.00000000000006)"><path d="M0 0 C-2.19 173.84, -2.12 347.48, -1 686 M0 0 C0.05 231.18, 0.06 461.51, -1 686" stroke="#1e1e1e" stroke-width="2" fill="none"></path></g></g><mask></mask><g stroke-linecap="round"><g transform="translate(687.6326825740239 40) rotate(0 -0.5 343.00000000000006)"><path d="M0 0 C0.83 146.21, 1.75 292.54, -1 686 M0 0 C2.54 236.87, 1.9 474.45, -1 686" stroke="#1e1e1e" stroke-width="2" fill="none"></path></g></g><mask></mask><g stroke-linecap="round"><g transform="translate(758.6326825740239 38) rotate(0 -0.5 343.00000000000006)"><path d="M0 0 C1.62 201.05, 1.53 402.97, -1 686 M0 0 C-0.97 178.9, -1.54 357.18, -1 686" stroke="#1e1e1e" stroke-width="2" fill="none"></path></g></g><mask></mask><g stroke-linecap="round"><g transform="translate(826.6326825740239 39) rotate(0 -0.5 343.00000000000006)"><path d="M0 0 C1.79 220.17, 1.52 440.68, -1 686 M0 0 C0.64 142.04, 0.1 283.54, -1 686" stroke="#1e1e1e" stroke-width="2" fill="none"></path></g></g><mask></mask><g stroke-linecap="round"><g transform="translate(891.6326825740239 37) rotate(0 -0.5 343.00000000000006)"><path d="M0 0 C0.27 173.96, 1.39 348.88, -1 686 M0 0 C-1.26 211.4, -1.85 423.16, -1 686" stroke="#1e1e1e" stroke-width="2" fill="none"></path></g></g><mask></mask><g stroke-linecap="round"><g transform="translate(957.6326825740239 39) rotate(0 -0.5 343.00000000000006)"><path d="M0 0 C0.51 221.38, 0.12 441.01, -1 686 M0 0 C-0.41 242, -0.93 483.87, -1 686" stroke="#1e1e1e" stroke-width="2" fill="none"></path></g></g><mask></mask><g stroke-linecap="round"><g transform="translate(43.96893834732737 114.09900153349508) rotate(0 493.05615952140465 0)"><path d="M0 0 C274.35 -2.16, 548.35 -1.53, 986.11 0 M0 0 C220.96 0.07, 442.39 -0.08, 986.11 0" stroke="#1e1e1e" stroke-width="2" fill="none"></path></g></g><mask></mask><g stroke-linecap="round"><g transform="translate(44.018259043161834 191.76362080182116) rotate(0 493.05615952140465 0)"><path d="M0 0 C264.44 2.28, 529.84 2.03, 986.11 0 M0 0 C353.05 0.04, 705.68 -0.35, 986.11 0" stroke="#1e1e1e" stroke-width="2" fill="none"></path></g></g><mask></mask><g stroke-linecap="round"><g transform="translate(45.062647669412854 262.46276455723137) rotate(0 493.05615952140465 0)"><path d="M0 0 C275.07 -1.32, 552.35 -1.44, 986.11 0 M0 0 C256.83 2.83, 513.33 2.88, 986.11 0" stroke="#1e1e1e" stroke-width="2" fill="none"></path></g></g><mask></mask><g stroke-linecap="round"><g transform="translate(48.09717215649698 340.12738382555744) rotate(0 491.40644989194584 0)"><path d="M0 0 C366.08 2.47, 731.75 2.64, 982.81 0 M0 0 C377.13 -0.53, 754.2 -0.01, 982.81 0" stroke="#1e1e1e" stroke-width="2" fill="none"></path></g></g><mask></mask><g stroke-linecap="round"><g transform="translate(47.151424921914895 411.8215955113841) rotate(0 491.40644989194584 0)"><path d="M0 0 C298.2 -1.99, 596.37 -1.68, 982.81 0 M0 0 C266.93 1.64, 533.27 1.71, 982.81 0" stroke="#1e1e1e" stroke-width="2" fill="none"></path></g></g><mask></mask><g stroke-linecap="round"><g transform="translate(45.210609756916256 477.5453996147113) rotate(0 493.05615952140465 0)"><path d="M0 0 C387.67 2.19, 775.33 2.87, 986.11 0 M0 0 C299.97 3.59, 600.25 3.77, 986.11 0" stroke="#1e1e1e" stroke-width="2" fill="none"></path></g></g><mask></mask><g stroke-linecap="round"><g transform="translate(46.254998383167276 543.2445433701214) rotate(0 493.05615952140465 0)"><path d="M0 0 C254.97 1.15, 511.24 2.04, 986.11 0 M0 0 C299.36 -1.21, 599.22 -1.17, 986.11 0" stroke="#1e1e1e" stroke-width="2" fill="none"></path></g></g><mask></mask><g stroke-linecap="round"><g transform="translate(44.31418321816864 602.9634154038653) rotate(0 493.05615952140465 0)"><path d="M0 0 C323.71 -1.83, 645.83 -0.8, 986.11 0 M0 0 C250.5 2.6, 500.47 3, 986.11 0" stroke="#1e1e1e" stroke-width="2" fill="none"></path></g></g><mask></mask><g stroke-linecap="round"><g transform="translate(45.35857184441966 661.7809288292779) rotate(0 493.05615952140465 0)"><path d="M0 0 C383.33 -1.96, 768.7 -1.82, 986.11 0 M0 0 C231.81 3.47, 462.75 3.7, 986.11 0" stroke="#1e1e1e" stroke-width="2" fill="none"></path></g></g><mask></mask><g stroke-linecap="round"><g stroke-opacity="0.8" fill-opacity="0.8" transform="translate(294.12479943064363 76.47808768502159) rotate(0 252.6244281421948 303.750497526029)" fill-rule="evenodd"><path d="M0 0 C0 0, 0 0, 0 0 M0 0 C0 0, 0 0, 0 0 M0.13 12.04 C2.6 7.93, 5.59 4.54, 8.01 2.98 M0.13 12.04 C2.02 9.03, 4.47 6.26, 8.01 2.98 M0.27 24.08 C5.03 18.99, 8.82 17.83, 16.01 5.97 M0.27 24.08 C5.92 18.29, 11.56 11.46, 16.01 5.97 M0.4 36.12 C4.7 28.03, 13.97 19.81, 24.02 8.95 M0.4 36.12 C5.34 31, 10.21 24.91, 24.02 8.95 M0.53 48.16 C12.45 34.22, 22.71 22.72, 32.02 11.94 M0.53 48.16 C10.93 35.63, 22.3 24.06, 32.02 11.94 M0.67 60.2 C15.55 44.43, 31.2 25.77, 40.03 14.92 M0.67 60.2 C11.28 47.46, 24.07 33.73, 40.03 14.92 M0.14 73 C17.03 52.53, 33.14 33.9, 48.04 17.91 M0.14 73 C13.56 57.54, 27.03 42.46, 48.04 17.91 M0.28 85.04 C13.93 69.77, 26.44 53.22, 56.04 20.89 M0.28 85.04 C14.31 69.28, 27.73 52.49, 56.04 20.89 M0.41 97.08 C15.97 80.75, 27.43 63.52, 64.05 23.87 M0.41 97.08 C21.82 71.83, 43.95 48.05, 64.05 23.87 M0.54 109.12 C18.74 87.59, 40.02 63.69, 72.05 26.86 M0.54 109.12 C20.31 86.84, 38.11 64.43, 72.05 26.86 M0.68 121.16 C22.11 97.64, 40.04 72.19, 80.06 29.84 M0.68 121.16 C23.97 94.54, 45.8 69.07, 80.06 29.84 M0.81 133.2 C29.37 98.85, 60.87 63.76, 88.06 32.83 M0.81 133.2 C28.09 102.89, 55.47 71.83, 88.06 32.83 M0.94 145.25 C22.7 122.33, 43.39 94.36, 96.07 35.81 M0.94 145.25 C25.59 119.23, 48.01 93.18, 96.07 35.81 M0.42 158.04 C36.44 120.39, 68.36 80.93, 104.08 38.8 M0.42 158.04 C21.27 134.11, 42.07 109.86, 104.08 38.8 M-0.76 171.59 C25.09 144.02, 45.68 115.42, 111.43 42.54 M-0.76 171.59 C41.48 125.14, 82.44 76.77, 111.43 42.54 M-2.6 185.9 C41.42 138.4, 83.18 86.96, 119.43 45.52 M-2.6 185.9 C47.07 131.83, 93.91 75.07, 119.43 45.52 M-4.43 200.2 C43.54 142.46, 94.7 88.38, 127.44 48.5 M-4.43 200.2 C40.43 151.17, 85.01 101.14, 127.44 48.5 M-7.58 216.02 C20.35 183.53, 52.3 147.82, 134.79 52.24 M-7.58 216.02 C48.19 150.89, 104.92 87.42, 134.79 52.24 M-12.04 233.34 C44.86 167.48, 102.29 103.27, 142.79 55.23 M-12.04 233.34 C30.38 186.34, 72.3 136.69, 142.79 55.23 M-21.09 255.95 C24.07 203.17, 72.47 150.69, 150.14 58.97 M-21.09 255.95 C31.38 192.94, 84.1 132.64, 150.14 58.97 M-85.25 341.95 C-6.72 251.99, 70.4 161.58, 157.49 62.71 M-85.25 341.95 C-27.23 274.92, 32.02 207.31, 157.49 62.71 M-117.92 391.72 C-53.38 318.04, 10.59 244.46, 164.19 67.2 M-117.92 391.72 C-23.78 281.71, 70.95 171.71, 164.19 67.2 M-124.35 411.31 C-40.24 313.59, 45.2 217.9, 171.54 70.94 M-124.35 411.31 C-22.51 295.53, 77.39 180.31, 171.54 70.94 M-132.74 433.16 C-29.98 318.18, 71.24 201.57, 178.89 74.68 M-132.74 433.16 C-57.4 345.37, 18.54 258.69, 178.89 74.68 M-143.11 457.28 C-25.78 323.13, 91.18 188.35, 186.24 78.42 M-143.11 457.28 C-12.54 306.91, 117.01 158.45, 186.24 78.42 M-146.25 473.1 C-37.44 347.17, 72.56 221.22, 192.93 82.91 M-146.25 473.1 C-47.28 359.51, 50.66 246.46, 192.93 82.91 M-144.81 483.63 C-21.4 340.67, 102.91 197.12, 198.97 88.16 M-144.81 483.63 C-51.67 375.71, 41.82 267.87, 198.97 88.16 M-142.05 492.65 C-17.67 350.85, 105.48 208.64, 205.66 92.65 M-142.05 492.65 C-27.9 363.01, 85.88 232.26, 205.66 92.65 M-137.32 499.41 C-6.62 347.84, 123.98 196.29, 211.7 97.9 M-137.32 499.41 C-5.32 346.16, 126.95 194.02, 211.7 97.9 M-131.29 504.66 C-42.42 401.98, 45.89 301.39, 217.74 103.15 M-131.29 504.66 C-31.22 388.51, 70.64 272.23, 217.74 103.15 M-123.94 508.39 C-51.72 423.8, 20.72 340.7, 222.46 109.91 M-123.94 508.39 C-2.16 367.9, 120.84 226.8, 222.46 109.91 M-117.24 512.89 C-36.84 420.76, 44.14 328.8, 226.53 117.42 M-117.24 512.89 C-15.79 395.88, 86.14 278.99, 226.53 117.42 M-109.89 516.63 C-2.39 394.7, 102.7 272.08, 229.94 125.69 M-109.89 516.63 C14.16 371.25, 139.65 226.9, 229.94 125.69 M-101.89 519.61 C-33.54 443.6, 33.83 365.16, 231.39 136.22 M-101.89 519.61 C14.03 384.36, 130.53 249.37, 231.39 136.22 M-93.88 522.6 C-4.92 421.98, 83.39 319.26, 231.52 148.26 M-93.88 522.6 C-16.72 434.08, 60.55 344.68, 231.52 148.26 M-85.88 525.58 C-6.11 432.65, 75.02 340.04, 229.69 162.56 M-85.88 525.58 C-9.25 437.25, 68.02 348.13, 229.69 162.56 M-77.21 527.81 C18.23 416.56, 113.63 306.07, 227.2 177.62 M-77.21 527.81 C15.29 420.02, 108.63 312.67, 227.2 177.62 M-69.21 530.79 C41.85 401.6, 154.14 270.93, 225.36 191.93 M-69.21 530.79 C6.37 443.95, 82.91 355.6, 225.36 191.93 M-60.55 533.02 C-1.38 462.33, 57.34 393.74, 221.56 208.5 M-60.55 533.02 C41.5 416.37, 141.82 301.16, 221.56 208.5 M-51.23 534.5 C42.95 424.52, 137.29 316.98, 217.76 225.07 M-51.23 534.5 C15.4 455.26, 83.55 376.72, 217.76 225.07 M-42.57 536.73 C51.25 426.12, 145.42 319.39, 213.95 241.64 M-42.57 536.73 C36.25 447.05, 115.21 355.68, 213.95 241.64 M-33.9 538.96 C22.75 476.32, 75.84 411.44, 211.46 256.7 M-33.9 538.96 C59.59 433.72, 152.63 326.61, 211.46 256.7 M-24.59 540.43 C51.23 452.05, 127.81 365.31, 210.28 270.25 M-24.59 540.43 C51.33 454.72, 125.29 370.08, 210.28 270.25 M-15.92 542.66 C40.88 474.22, 99.56 407.22, 211.73 280.78 M-15.92 542.66 C67.54 447.02, 151.37 350.79, 211.73 280.78 M-7.26 544.89 C51.28 478.63, 110.21 409.73, 213.83 290.55 M-7.26 544.89 C51.6 474.74, 111.92 407.02, 213.83 290.55 M2.06 546.37 C85.33 451.09, 171.58 351.85, 217.9 298.07 M2.06 546.37 C54.04 485.27, 107.07 425.79, 217.9 298.07 M10.72 548.6 C79.33 470.37, 145.75 392.43, 222.62 304.83 M10.72 548.6 C73.4 476.03, 137.07 403.37, 222.62 304.83 M19.38 550.83 C92.85 463.81, 168.66 380.28, 228.66 310.07 M19.38 550.83 C64.59 498.41, 109.81 448.02, 228.66 310.07 M28.7 552.3 C81.53 492.85, 130.43 435.94, 236.01 313.81 M28.7 552.3 C82.05 489.17, 136.45 428.58, 236.01 313.81 M37.36 554.53 C111.39 469.71, 185.19 383.82, 243.36 317.55 M37.36 554.53 C113.86 465.45, 189.55 379.28, 243.36 317.55 M46.68 556.01 C117.32 473.19, 188.6 391.8, 252.68 319.03 M46.68 556.01 C99.08 496.89, 152.28 436.64, 252.68 319.03 M55.99 557.48 C101.75 501.79, 150.25 446.01, 262 320.5 M55.99 557.48 C134.86 463.5, 215.78 370.82, 262 320.5 M65.31 558.96 C136.79 474.19, 210.48 389.57, 271.97 321.22 M65.31 558.96 C130.09 483.24, 196.62 407.59, 271.97 321.22 M74.63 560.43 C127 498.15, 179.23 439.51, 281.95 321.94 M74.63 560.43 C125.11 502.18, 175.26 444.8, 281.95 321.94 M83.29 562.66 C155.66 476.31, 231.59 391.87, 291.92 322.66 M83.29 562.66 C148.9 485.75, 216.01 409.48, 291.92 322.66 M92.61 564.13 C158.73 489.06, 224.48 410.45, 302.55 322.63 M92.61 564.13 C150.91 497.64, 207.5 431.09, 302.55 322.63 M101.93 565.61 C159.92 497.74, 216.42 431.33, 313.84 321.84 M101.93 565.61 C159.07 498.61, 215.6 433.99, 313.84 321.84 M111.25 567.08 C196.72 469.36, 282.79 372.93, 325.12 321.05 M111.25 567.08 C179.74 489.33, 248.42 409.13, 325.12 321.05 M120.56 568.56 C197.35 478.66, 274.71 390.77, 336.41 320.26 M120.56 568.56 C164.34 519.94, 207.61 470.14, 336.41 320.26 M129.88 570.03 C187.33 503.28, 243.2 438.33, 347.69 319.47 M129.88 570.03 C176.91 517.81, 223.27 464.55, 347.69 319.47 M138.54 572.26 C205.14 495.73, 273.35 417.35, 358.98 318.68 M138.54 572.26 C203.83 496.86, 270.05 420.9, 358.98 318.68 M147.86 573.74 C227.25 482.47, 306.48 392.05, 370.27 317.89 M147.86 573.74 C202.43 509.03, 257.14 444.71, 370.27 317.89 M157.18 575.21 C236.77 483.9, 317.28 393.9, 381.55 317.1 M157.18 575.21 C242.7 477.9, 327.63 379.13, 381.55 317.1 M166.5 576.69 C239.85 493.01, 313.22 408.1, 392.84 316.31 M166.5 576.69 C242.67 489.17, 317.54 402.63, 392.84 316.31 M175.82 578.16 C263.21 477.67, 348.98 378.32, 404.12 315.53 M175.82 578.16 C263.67 477.56, 352.11 376.62, 404.12 315.53 M185.13 579.64 C257.02 501.31, 326.07 419.35, 415.41 314.74 M185.13 579.64 C239.4 517.91, 294.04 454.3, 415.41 314.74 M194.45 581.11 C287.29 475.59, 376.21 370.66, 426.7 313.95 M194.45 581.11 C266.01 500.01, 337.59 417.3, 426.7 313.95 M203.77 582.59 C253.34 527.81, 303.39 469.24, 437.98 313.16 M203.77 582.59 C280.33 493.25, 358.17 404.45, 437.98 313.16 M213.09 584.06 C271.4 516.48, 328.96 448.76, 449.27 312.37 M213.09 584.06 C275.44 511.3, 338.78 439.83, 449.27 312.37 M222.41 585.54 C284.49 513.96, 345.02 443.96, 459.9 312.33 M222.41 585.54 C287.91 510.08, 352.69 436.51, 459.9 312.33 M232.38 586.26 C314.66 494.77, 393.44 402.49, 470.53 312.3 M232.38 586.26 C285.87 526.36, 337.77 466.63, 470.53 312.3 M241.7 587.73 C300.25 519.27, 357.24 452.5, 481.82 311.51 M241.7 587.73 C309.92 507.61, 379.34 427.94, 481.82 311.51 M251.02 589.21 C322.61 511.11, 392.68 431.87, 491.79 312.23 M251.02 589.21 C315.51 516.34, 377.84 444.66, 491.79 312.23 M260.33 590.68 C322.13 520.44, 383.75 450.21, 501.76 312.95 M260.33 590.68 C334.37 504.08, 409.82 417.81, 501.76 312.95 M269.65 592.16 C335.03 515, 403.11 437.73, 511.74 313.67 M269.65 592.16 C346.27 502.01, 422.85 413.33, 511.74 313.67 M278.97 593.63 C366.32 490.98, 456.81 385.6, 521.06 315.15 M278.97 593.63 C339.28 523.92, 400.6 454.6, 521.06 315.15 M288.94 594.35 C364.11 510.07, 436.66 425.05, 530.37 316.62 M288.94 594.35 C352.51 521.07, 415.46 448.78, 530.37 316.62 M298.26 595.83 C383.29 500.12, 467.64 402.11, 539.04 318.85 M298.26 595.83 C370.28 512.21, 441.64 430.07, 539.04 318.85 M307.58 597.3 C385.43 507.25, 464.51 417.37, 547.04 321.83 M307.58 597.3 C400.17 488.95, 492.79 382.36, 547.04 321.83 M317.55 598.02 C401.7 500.08, 488.04 404.69, 554.39 325.57 M317.55 598.02 C373.74 531.46, 431.07 465.94, 554.39 325.57 M326.87 599.5 C402.08 511.51, 480.07 421.34, 561.74 329.31 M326.87 599.5 C406.91 507.38, 486.64 415.37, 561.74 329.31 M336.85 600.22 C391.51 536.73, 446.11 475.29, 568.43 333.81 M336.85 600.22 C416.9 509.48, 496.64 417.91, 568.43 333.81 M346.16 601.69 C399.17 538.98, 453.99 479.02, 574.47 339.05 M346.16 601.69 C434.87 502.66, 522.19 400.5, 574.47 339.05 M356.14 602.41 C404.38 549.16, 450.46 496.79, 579.85 345.06 M356.14 602.41 C415.85 534.05, 474.6 466.36, 579.85 345.06 M365.46 603.89 C412.45 551.68, 458.12 499.02, 585.24 351.06 M365.46 603.89 C440.14 518.06, 513.95 433.75, 585.24 351.06 M375.43 604.61 C422.38 553.47, 465.09 502.29, 590.62 357.06 M375.43 604.61 C448.14 523.34, 519.04 440.41, 590.62 357.06 M384.75 606.08 C458.83 517.63, 536.32 431.34, 596 363.07 M384.75 606.08 C435.1 547.09, 485.24 488.41, 596 363.07 M394.72 606.8 C463.69 526.95, 534.64 443.49, 601.38 369.07 M394.72 606.8 C455.9 538.25, 515.17 470.32, 601.38 369.07 M404.7 607.52 C449.14 556.46, 495.27 502.18, 606.11 375.83 M404.7 607.52 C461.1 545.8, 515.63 482.62, 606.11 375.83 M414.67 608.24 C454.64 560.78, 495.83 515.53, 610.83 382.59 M414.67 608.24 C480.03 534, 544.5 459.07, 610.83 382.59 M424.64 608.96 C480.04 543.36, 537.39 478.73, 615.56 389.34 M424.64 608.96 C473.27 553.14, 521.89 497.43, 615.56 389.34 M434.62 609.69 C472.23 567.04, 509.07 521.87, 620.28 396.1 M434.62 609.69 C484.38 554.15, 534.06 496.49, 620.28 396.1 M444.59 610.41 C495.78 553.05, 544.63 493.44, 625.01 402.86 M444.59 610.41 C505.99 539.94, 566.17 469.06, 625.01 402.86 M454.57 611.13 C489.19 569.7, 525.41 528.51, 629.73 409.62 M454.57 611.13 C519.99 535.28, 586.27 460.57, 629.73 409.62 M463.88 612.6 C506.57 563.39, 549.94 513.42, 633.8 417.13 M463.88 612.6 C518.63 550.19, 571.31 489.14, 633.8 417.13 M473.86 613.32 C516.88 563.23, 561.91 512.23, 637.22 425.4 M473.86 613.32 C526.92 551.31, 580.16 489.74, 637.22 425.4 M483.83 614.04 C531.35 560.58, 580.46 503.64, 641.29 432.91 M483.83 614.04 C530.15 559.7, 578.25 504.17, 641.29 432.91 M493.81 614.76 C550.26 549.95, 606.63 488.58, 645.36 440.42 M493.81 614.76 C534.31 568.09, 576.42 519.25, 645.36 440.42 M504.44 614.73 C544.25 569.9, 583.36 521.8, 649.43 447.94 M504.44 614.73 C544.27 570.27, 583.75 524.37, 649.43 447.94 M515.07 614.69 C546.6 576.33, 579.46 538.68, 652.84 456.2 M515.07 614.69 C564.48 559.02, 614.94 501.27, 652.84 456.2 M525.04 615.41 C557.44 579.18, 590.61 539.37, 656.25 464.47 M525.04 615.41 C564.72 568.13, 606.37 519.9, 656.25 464.47 M535.67 615.38 C571.9 571.67, 610.61 526.6, 659.67 472.74 M535.67 615.38 C562.77 585.18, 589.23 553.55, 659.67 472.74 M546.3 615.34 C571.98 582.46, 599.52 552.72, 663.08 481.01 M546.3 615.34 C588.59 564.44, 629.95 515.69, 663.08 481.01 M556.27 616.06 C581.78 588.58, 602.98 560.1, 665.84 490.03 M556.27 616.06 C584.12 584.49, 612.33 552.38, 665.84 490.03 M566.9 616.03 C597.95 583.88, 626.68 549.11, 667.94 499.8 M566.9 616.03 C597.33 581.9, 624.82 548.6, 667.94 499.8 M578.19 615.24 C602.95 586.19, 626.15 560.19, 670.04 509.58 M578.19 615.24 C611.35 577.08, 645.32 537.26, 670.04 509.58 M589.48 614.45 C607.09 591.95, 626 572.11, 672.8 518.6 M589.48 614.45 C620.85 577.23, 654.76 539.57, 672.8 518.6 M601.42 612.91 C626.96 581.55, 656.54 551.54, 673.59 529.89 M601.42 612.91 C619.34 593.45, 637.88 570.9, 673.59 529.89 M614.02 610.61 C627.59 592.83, 643.18 577.36, 673.72 541.93 M614.02 610.61 C634.43 587.68, 652.63 566.3, 673.72 541.93 M626.62 608.31 C641 590.09, 654.48 576.98, 672.54 555.48 M626.62 608.31 C638.6 593.54, 650.25 579.53, 672.54 555.48 M642.49 602.24 C652.74 591.62, 658.68 582.55, 668.08 572.8 M642.49 602.24 C650.36 592.79, 660.89 581.91, 668.08 572.8" stroke="#ffc9c9" stroke-width="1" fill="none"></path><path d="M0.46 0.25 C-1.49 38.6, 9.76 162.9, -10.82 230.41 C-31.4 297.92, -113.08 355.25, -123.01 405.29 C-132.94 455.32, -195.51 496.98, -70.38 530.61 C54.75 564.24, 522.27 640.64, 627.79 607.09 C733.3 573.54, 629.11 378.52, 562.7 329.31 C496.3 280.09, 286.21 348.83, 229.36 311.79 C172.51 274.76, 259.86 158.91, 221.59 107.11 C183.33 55.3, 36.84 18.75, -0.2 0.98 M-0.76 -0.67 C-2.9 37.85, 8.98 164.06, -11.48 231.89 C-31.95 299.73, -113.68 356.37, -123.53 406.33 C-133.38 456.3, -196.08 498.2, -70.57 531.69 C54.93 565.18, 523.77 640.63, 629.49 607.27 C735.2 573.9, 630.36 380.88, 563.73 331.48 C497.1 282.08, 286.88 348.42, 229.71 310.89 C172.53 273.35, 258.68 158.06, 220.67 106.27 C182.67 54.47, 38.5 17.77, 1.68 0.11" stroke="#e03131" stroke-width="2" fill="none"></path></g></g><mask></mask><g stroke-linecap="round" transform="translate(290 73) rotate(0 3.5 3)"><path d="M3.31 0.33 C4.11 0.19, 5.15 0.19, 5.69 0.54 C6.23 0.89, 6.36 1.85, 6.56 2.45 C6.76 3.06, 7.16 3.58, 6.89 4.16 C6.62 4.75, 5.64 5.74, 4.94 5.98 C4.25 6.22, 3.49 5.8, 2.73 5.61 C1.97 5.43, 0.81 5.29, 0.38 4.87 C-0.06 4.44, -0.03 3.79, 0.11 3.09 C0.25 2.39, 0.72 1.19, 1.23 0.65 C1.73 0.12, 2.83 0, 3.16 -0.1 C3.49 -0.2, 3.16 -0.07, 3.19 0.05 M3.43 0.04 C4.16 0.14, 5.61 0.37, 6.12 0.87 C6.63 1.37, 6.43 2.32, 6.51 3.04 C6.6 3.77, 7.07 4.77, 6.64 5.24 C6.2 5.71, 4.75 5.72, 3.92 5.87 C3.08 6.02, 2.2 6.37, 1.63 6.15 C1.05 5.93, 0.8 5.18, 0.49 4.56 C0.18 3.93, -0.48 3.05, -0.24 2.42 C0.01 1.79, 1.36 1.25, 1.97 0.78 C2.58 0.31, 3.16 -0.22, 3.41 -0.38 C3.65 -0.55, 3.3 -0.34, 3.41 -0.22" stroke="none" stroke-width="0" fill="#c2255c"></path><path d="M3 -0.19 C3.66 -0.24, 4.56 0.09, 5.18 0.51 C5.81 0.93, 6.52 1.71, 6.75 2.32 C6.99 2.94, 6.88 3.61, 6.59 4.2 C6.3 4.78, 5.64 5.5, 5.02 5.84 C4.39 6.18, 3.6 6.38, 2.85 6.24 C2.1 6.1, 1 5.63, 0.52 5.01 C0.05 4.4, -0.1 3.25, -0.01 2.54 C0.09 1.84, 0.56 1.17, 1.1 0.77 C1.64 0.36, 2.89 0.28, 3.24 0.13 C3.59 -0.03, 3.19 -0.24, 3.19 -0.17 M3.06 0.49 C3.73 0.38, 4.25 0.5, 4.91 0.79 C5.57 1.08, 6.67 1.68, 7.02 2.24 C7.37 2.8, 7.4 3.59, 7.01 4.15 C6.63 4.7, 5.43 5.19, 4.69 5.57 C3.95 5.94, 3.25 6.51, 2.59 6.4 C1.93 6.29, 1.22 5.57, 0.74 4.92 C0.25 4.27, -0.39 3.23, -0.33 2.51 C-0.27 1.79, 0.49 1.03, 1.1 0.6 C1.71 0.16, 2.98 0.03, 3.32 -0.11 C3.65 -0.24, 3.21 -0.2, 3.12 -0.19" stroke="#e03131" stroke-width="2" fill="none"></path></g><g stroke-linecap="round" transform="translate(500 167) rotate(0 3.5 3)"><path d="M3.88 -0.06 C4.64 0.02, 5.52 0.61, 6.09 1.14 C6.66 1.67, 7.28 2.57, 7.3 3.13 C7.33 3.7, 6.8 4.06, 6.23 4.53 C5.66 5, 4.63 5.77, 3.9 5.95 C3.18 6.13, 2.56 5.88, 1.9 5.6 C1.24 5.32, 0.18 4.8, -0.07 4.26 C-0.32 3.73, 0.15 3.01, 0.39 2.37 C0.63 1.73, 0.81 0.75, 1.39 0.42 C1.98 0.08, 3.4 0.36, 3.89 0.36 C4.38 0.35, 4.33 0.33, 4.31 0.36 M3.56 -0.45 C4.17 -0.29, 5.2 0.7, 5.79 1.18 C6.37 1.67, 6.93 1.94, 7.06 2.47 C7.19 3.01, 7.06 3.83, 6.54 4.39 C6.03 4.94, 4.79 5.62, 3.98 5.81 C3.17 5.99, 2.38 5.72, 1.68 5.5 C0.98 5.27, 0.09 4.97, -0.2 4.45 C-0.49 3.93, -0.35 3.04, -0.06 2.38 C0.22 1.72, 0.85 0.96, 1.49 0.51 C2.14 0.05, 3.38 -0.28, 3.8 -0.36 C4.21 -0.44, 3.9 -0.15, 3.97 0.05" stroke="none" stroke-width="0" fill="#c2255c"></path><path d="M3.88 -0.03 C4.59 -0.03, 5.15 0.52, 5.71 0.93 C6.28 1.34, 7.17 1.75, 7.25 2.41 C7.33 3.07, 6.67 4.23, 6.21 4.87 C5.75 5.5, 5.23 6.01, 4.49 6.2 C3.75 6.38, 2.44 6.26, 1.78 5.96 C1.11 5.67, 0.73 5.03, 0.48 4.42 C0.23 3.81, 0.17 2.94, 0.28 2.29 C0.39 1.64, 0.58 0.84, 1.14 0.51 C1.71 0.19, 3.22 0.39, 3.67 0.32 C4.12 0.25, 3.85 0.16, 3.83 0.11 M3.62 0.13 C4.36 0.03, 5.16 0.08, 5.66 0.55 C6.15 1.02, 6.42 2.33, 6.59 2.95 C6.76 3.58, 7.12 3.76, 6.7 4.32 C6.27 4.88, 4.74 5.98, 4.03 6.3 C3.31 6.61, 2.96 6.52, 2.42 6.2 C1.88 5.89, 1.23 4.96, 0.78 4.39 C0.32 3.81, -0.48 3.4, -0.32 2.76 C-0.17 2.12, 1.06 0.93, 1.7 0.55 C2.35 0.17, 3.2 0.63, 3.54 0.47 C3.89 0.31, 3.83 -0.38, 3.78 -0.39" stroke="#e03131" stroke-width="2" fill="none"></path></g><g stroke-linecap="round" transform="translate(506 369) rotate(0 3.5 3)"><path d="M3.13 0.16 C3.81 0.04, 4.71 0.28, 5.33 0.57 C5.94 0.85, 6.56 1.31, 6.82 1.87 C7.08 2.43, 7.14 3.29, 6.87 3.92 C6.61 4.55, 5.96 5.39, 5.24 5.66 C4.52 5.94, 3.3 5.79, 2.55 5.59 C1.8 5.39, 1.11 4.94, 0.74 4.47 C0.37 4, 0.32 3.39, 0.32 2.78 C0.31 2.18, 0.21 1.34, 0.7 0.85 C1.19 0.35, 2.85 -0.03, 3.25 -0.21 C3.65 -0.39, 3.08 -0.28, 3.08 -0.23 M2.71 -0.06 C3.49 -0.07, 4.87 0.38, 5.48 0.66 C6.08 0.95, 6.09 0.99, 6.36 1.65 C6.62 2.31, 7.3 3.96, 7.07 4.63 C6.85 5.3, 5.73 5.4, 4.98 5.67 C4.24 5.95, 3.37 6.41, 2.6 6.28 C1.83 6.14, 0.85 5.49, 0.34 4.88 C-0.17 4.26, -0.58 3.21, -0.44 2.58 C-0.29 1.95, 0.6 1.53, 1.22 1.08 C1.83 0.64, 3.03 0.13, 3.27 -0.08 C3.51 -0.29, 2.66 -0.26, 2.65 -0.19" stroke="none" stroke-width="0" fill="#c2255c"></path><path d="M3.87 0.02 C4.67 -0.01, 5.62 0.33, 6.16 0.76 C6.69 1.19, 7 1.93, 7.09 2.61 C7.18 3.3, 7.17 4.34, 6.7 4.89 C6.23 5.45, 5.06 5.82, 4.3 5.95 C3.54 6.08, 2.78 5.98, 2.15 5.69 C1.51 5.4, 0.82 4.74, 0.47 4.19 C0.13 3.65, -0.07 3.08, 0.08 2.44 C0.23 1.8, 0.8 0.79, 1.39 0.34 C1.98 -0.1, 3.19 -0.24, 3.63 -0.26 C4.07 -0.27, 3.98 0.21, 4.04 0.26 M3.96 -0.4 C4.74 -0.37, 5.5 0.16, 5.92 0.63 C6.34 1.1, 6.41 1.83, 6.49 2.41 C6.57 2.99, 6.68 3.6, 6.4 4.11 C6.11 4.62, 5.56 5.17, 4.79 5.49 C4.02 5.8, 2.57 6.2, 1.78 6 C1 5.8, 0.37 4.82, 0.08 4.29 C-0.22 3.76, -0.18 3.4, 0.04 2.81 C0.25 2.21, 0.78 1.16, 1.38 0.71 C1.98 0.25, 3.32 0.19, 3.64 0.08 C3.97 -0.03, 3.32 -0.01, 3.34 0.06" stroke="#e03131" stroke-width="2" fill="none"></path></g></svg>