<svg version="1.1" xmlns="http://www.w3.org/2000/svg" viewBox="0 0 1080 767" width="1080" height="767">
  <!-- svg-source:excalidraw -->
  
  <defs>
    <style class="style-fonts">
      @font-face {
        font-family: "Virgil";
        src: url("https://excalidraw.com/Virgil.woff2");
      }
      @font-face {
        font-family: "Cascadia";
        src: url("https://excalidraw.com/Cascadia.woff2");
      }
      @font-face {
        font-family: "Assistant";
        src: url("https://excalidraw.com/Assistant-Regular.woff2");
      }
    </style>
    
  </defs>
  <g stroke-linecap="round" transform="translate(10 10) rotate(0 530 373.5)"><path d="M32 0 C267.13 -2.6, 499.26 -4.76, 1028 0 C1050.4 1.82, 1058.57 12.37, 1060 32 C1059.41 244.02, 1057.71 456.54, 1060 715 C1061.4 737.49, 1046.91 745.82, 1028 747 C693.75 740.02, 357.58 741.47, 32 747 C11.81 750.41, 3.25 735.97, 0 715 C-4.15 538.63, -5.12 365.11, 0 32 C-1.79 9.97, 7.7 0.47, 32 0" stroke="none" stroke-width="0" fill="#ffffff"></path><path d="M32 0 C350.98 4.52, 668.65 3.56, 1028 0 M32 0 C269.07 -1.58, 506.48 -1.4, 1028 0 M1028 0 C1048.71 -1.57, 1058.11 9.14, 1060 32 M1028 0 C1050.22 -1.05, 1058.76 11.34, 1060 32 M1060 32 C1061.55 181.2, 1061.39 330.81, 1060 715 M1060 32 C1059.89 207.27, 1059.71 382.75, 1060 715 M1060 715 C1058.87 736.86, 1048.98 748.19, 1028 747 M1060 715 C1059.1 734.26, 1051.49 745.98, 1028 747 M1028 747 C819.78 749.34, 611.51 748.97, 32 747 M1028 747 C801.09 750.49, 574.68 750.35, 32 747 M32 747 C12.18 748.21, 0.96 735.08, 0 715 M32 747 C8.71 747.17, -1.64 736.6, 0 715 M0 715 C0.78 472.89, 0.2 230.07, 0 32 M0 715 C2.11 472.72, 2 230.7, 0 32 M0 32 C-0.15 12.21, 12 1.46, 32 0 M0 32 C0.06 11.26, 12.76 0.9, 32 0" stroke="#1e1e1e" stroke-width="2" fill="none"></path></g><g stroke-linecap="round" transform="translate(45.632682574023875 38) rotate(0 492.9999999999998 344.00000000000006)"><path d="M0 0 C278.73 2.38, 557.27 1.93, 986 0 M0 0 C246.86 -4.03, 492.93 -3.69, 986 0 M986 0 C984.07 212.1, 983.86 424.41, 986 688 M986 0 C985.75 162.86, 986 325.97, 986 688 M986 688 C644.84 687.87, 305.34 687.46, 0 688 M986 688 C661.1 684.2, 336.45 684.25, 0 688 M0 688 C3.14 496.68, 3.24 305.85, 0 0 M0 688 C-1.76 542.19, -1.96 396.67, 0 0" stroke="#1e1e1e" stroke-width="2" fill="none"></path></g><g stroke-linecap="round"><g transform="translate(117.63268257402387 38) rotate(0 -0.5 344.00000000000006)"><path d="M0 0 C-0.03 258.24, -0.72 516.23, -1 688 M0 0 C0.14 271.06, -0.17 541.76, -1 688" stroke="#1e1e1e" stroke-width="2" fill="none"></path></g></g><mask></mask><g stroke-linecap="round"><g transform="translate(193.63268257402387 39) rotate(0 -1 343.50000000000006)"><path d="M0 0 C-1.14 217.7, -1.77 436.11, -2 687 M0 0 C-0.79 235.89, -1.58 471.65, -2 687" stroke="#1e1e1e" stroke-width="2" fill="none"></path></g></g><mask></mask><g stroke-linecap="round"><g transform="translate(262.6326825740239 39) rotate(0 0 343.50000000000006)"><path d="M0 0 C-1.03 178.75, -0.41 358, 0 687 M0 0 C2.53 201.44, 2.73 402.61, 0 687" stroke="#1e1e1e" stroke-width="2" fill="none"></path></g></g><mask></mask><g stroke-linecap="round"><g transform="translate(334.6326825740239 37) rotate(0 0.5 343.50000000000006)"><path d="M0 0 C1.03 186.99, 1.64 372.43, 1 687 M0 0 C-1.23 256.28, -1.01 512.69, 1 687" stroke="#1e1e1e" stroke-width="2" fill="none"></path></g></g><mask></mask><g stroke-linecap="round"><g transform="translate(405.6326825740239 40) rotate(0 -0.5 343.00000000000006)"><path d="M0 0 C-2.02 271.21, -3.01 541.72, -1 686 M0 0 C-0.16 143.93, 0.12 286.96, -1 686" stroke="#1e1e1e" stroke-width="2" fill="none"></path></g></g><mask></mask><g stroke-linecap="round"><g transform="translate(476.6326825740239 39) rotate(0 -0.5 343.00000000000006)"><path d="M0 0 C-0.61 204.14, -1.71 407.51, -1 686 M0 0 C-2.21 180.59, -2.33 361.65, -1 686" stroke="#1e1e1e" stroke-width="2" fill="none"></path></g></g><mask></mask><g stroke-linecap="round"><g transform="translate(549.6326825740239 40) rotate(0 -0.5 343.00000000000006)"><path d="M0 0 C-1.09 192.23, -1.3 383.92, -1 686 M0 0 C-0.97 265.31, -1.73 530.17, -1 686" stroke="#1e1e1e" stroke-width="2" fill="none"></path></g></g><mask></mask><g stroke-linecap="round"><g transform="translate(618.6326825740239 40) rotate(0 -0.5 343.00000000000006)"><path d="M0 0 C-2.19 173.84, -2.12 347.48, -1 686 M0 0 C0.05 231.18, 0.06 461.51, -1 686" stroke="#1e1e1e" stroke-width="2" fill="none"></path></g></g><mask></mask><g stroke-linecap="round"><g transform="translate(689.6326825740239 40) rotate(0 -0.5 343.00000000000006)"><path d="M0 0 C0.83 146.21, 1.75 292.54, -1 686 M0 0 C2.54 236.87, 1.9 474.45, -1 686" stroke="#1e1e1e" stroke-width="2" fill="none"></path></g></g><mask></mask><g stroke-linecap="round"><g transform="translate(760.6326825740239 38) rotate(0 -0.5 343.00000000000006)"><path d="M0 0 C1.62 201.05, 1.53 402.97, -1 686 M0 0 C-0.97 178.9, -1.54 357.18, -1 686" stroke="#1e1e1e" stroke-width="2" fill="none"></path></g></g><mask></mask><g stroke-linecap="round"><g transform="translate(828.6326825740239 39) rotate(0 -0.5 343.00000000000006)"><path d="M0 0 C1.79 220.17, 1.52 440.68, -1 686 M0 0 C0.64 142.04, 0.1 283.54, -1 686" stroke="#1e1e1e" stroke-width="2" fill="none"></path></g></g><mask></mask><g stroke-linecap="round"><g transform="translate(893.6326825740239 37) rotate(0 -0.5 343.00000000000006)"><path d="M0 0 C0.27 173.96, 1.39 348.88, -1 686 M0 0 C-1.26 211.4, -1.85 423.16, -1 686" stroke="#1e1e1e" stroke-width="2" fill="none"></path></g></g><mask></mask><g stroke-linecap="round"><g transform="translate(959.6326825740239 39) rotate(0 -0.5 343.00000000000006)"><path d="M0 0 C0.51 221.38, 0.12 441.01, -1 686 M0 0 C-0.41 242, -0.93 483.87, -1 686" stroke="#1e1e1e" stroke-width="2" fill="none"></path></g></g><mask></mask><g stroke-linecap="round"><g transform="translate(45.96893834732737 114.09900153349508) rotate(0 493.05615952140465 0)"><path d="M0 0 C274.35 -2.16, 548.35 -1.53, 986.11 0 M0 0 C220.96 0.07, 442.39 -0.08, 986.11 0" stroke="#1e1e1e" stroke-width="2" fill="none"></path></g></g><mask></mask><g stroke-linecap="round"><g transform="translate(46.018259043161834 191.76362080182116) rotate(0 493.05615952140465 0)"><path d="M0 0 C264.44 2.28, 529.84 2.03, 986.11 0 M0 0 C353.05 0.04, 705.68 -0.35, 986.11 0" stroke="#1e1e1e" stroke-width="2" fill="none"></path></g></g><mask></mask><g stroke-linecap="round"><g transform="translate(47.062647669412854 262.46276455723137) rotate(0 493.05615952140465 0)"><path d="M0 0 C275.07 -1.32, 552.35 -1.44, 986.11 0 M0 0 C256.83 2.83, 513.33 2.88, 986.11 0" stroke="#1e1e1e" stroke-width="2" fill="none"></path></g></g><mask></mask><g stroke-linecap="round"><g transform="translate(50.09717215649698 340.12738382555744) rotate(0 491.40644989194584 0)"><path d="M0 0 C366.08 2.47, 731.75 2.64, 982.81 0 M0 0 C377.13 -0.53, 754.2 -0.01, 982.81 0" stroke="#1e1e1e" stroke-width="2" fill="none"></path></g></g><mask></mask><g stroke-linecap="round"><g transform="translate(49.151424921914895 411.8215955113841) rotate(0 491.40644989194584 0)"><path d="M0 0 C298.2 -1.99, 596.37 -1.68, 982.81 0 M0 0 C266.93 1.64, 533.27 1.71, 982.81 0" stroke="#1e1e1e" stroke-width="2" fill="none"></path></g></g><mask></mask><g stroke-linecap="round"><g transform="translate(47.210609756916256 477.5453996147113) rotate(0 493.05615952140465 0)"><path d="M0 0 C387.67 2.19, 775.33 2.87, 986.11 0 M0 0 C299.97 3.59, 600.25 3.77, 986.11 0" stroke="#1e1e1e" stroke-width="2" fill="none"></path></g></g><mask></mask><g stroke-linecap="round"><g transform="translate(48.254998383167276 543.2445433701214) rotate(0 493.05615952140465 0)"><path d="M0 0 C254.97 1.15, 511.24 2.04, 986.11 0 M0 0 C299.36 -1.21, 599.22 -1.17, 986.11 0" stroke="#1e1e1e" stroke-width="2" fill="none"></path></g></g><mask></mask><g stroke-linecap="round"><g transform="translate(46.31418321816864 602.9634154038653) rotate(0 493.05615952140465 0)"><path d="M0 0 C323.71 -1.83, 645.83 -0.8, 986.11 0 M0 0 C250.5 2.6, 500.47 3, 986.11 0" stroke="#1e1e1e" stroke-width="2" fill="none"></path></g></g><mask></mask><g stroke-linecap="round"><g transform="translate(47.35857184441966 661.7809288292779) rotate(0 493.05615952140465 0)"><path d="M0 0 C383.33 -1.96, 768.7 -1.82, 986.11 0 M0 0 C231.81 3.47, 462.75 3.7, 986.11 0" stroke="#1e1e1e" stroke-width="2" fill="none"></path></g></g><mask></mask><g stroke-linecap="round"><g stroke-opacity="0.8" fill-opacity="0.8" transform="translate(297.744333195898 76.87889251201932) rotate(0 262.8583644137809 307.6835490737473)"><path d="M0 0 C-0.02 8.8, 0.24 20.47, 0 34.82 M0 0 C0.43 9.75, 0.35 17.41, 0 34.82 M0 34.82 C2.29 57.88, 2.65 77.2, 1.74 116.63 M0 34.82 C0.8 53.16, 0.51 72.32, 1.74 116.63 M1.74 116.63 C2 137.04, 0.52 158.9, -2.61 187.13 M1.74 116.63 C1.05 138.01, 0.2 159.1, -2.61 187.13 M-2.61 187.13 C-9.11 209.92, -17.32 232.1, -25.24 264.6 M-2.61 187.13 C-9.86 211.43, -17.73 236.73, -25.24 264.6 M-25.24 264.6 C-29.22 268.34, -31.89 270.48, -33.95 275.04 M-25.24 264.6 C-27.7 267.01, -29.96 269.32, -33.95 275.04 M-33.95 275.04 C-44.42 291.11, -57.84 305.15, -80.08 335.97 M-33.95 275.04 C-46.64 291.09, -57.82 308.66, -80.08 335.97 M-80.08 335.97 C-86.17 345.1, -92.84 354.04, -105.32 367.31 M-80.08 335.97 C-86.79 345.28, -93.3 354.82, -105.32 367.31 M-105.32 367.31 C-108.48 373.49, -114.69 382.08, -123.6 400.38 M-105.32 367.31 C-110.55 375.25, -115.75 383.69, -123.6 400.38 M-123.6 400.38 C-131.65 419.33, -137.11 439.04, -147.1 465.66 M-123.6 400.38 C-129.17 415.01, -134.72 431.27, -147.1 465.66 M-147.1 465.66 C-129.4 486.74, -114.09 507.29, -104.45 520.49 M-147.1 465.66 C-131.95 485.92, -117.62 504.24, -104.45 520.49 M-104.45 520.49 C-100.02 520.65, -95.86 525.57, -86.17 526.59 M-104.45 520.49 C-99.74 521.38, -95.88 523.33, -86.17 526.59 M-86.17 526.59 C-67.04 533.53, -47.94 537.69, -34.82 541.38 M-86.17 526.59 C-73.1 528.93, -60.05 533.32, -34.82 541.38 M-34.82 541.38 C-5.71 546.48, 24.01 553.46, 40.91 555.31 M-34.82 541.38 C-7.07 545.1, 20.39 550.07, 40.91 555.31 M40.91 555.31 C55.6 557.05, 71.31 559.44, 108.8 568.37 M40.91 555.31 C61.44 558.69, 80.32 563.12, 108.8 568.37 M108.8 568.37 C133.3 571.96, 162.05 576.51, 181.04 579.68 M108.8 568.37 C128.77 571.7, 148.87 575.17, 181.04 579.68 M181.04 579.68 C188.62 581.4, 198.67 581.6, 218.47 586.64 M181.04 579.68 C190.46 581.93, 199.37 582.45, 218.47 586.64 M218.47 586.64 C227.95 587.84, 235.97 588.99, 253.28 591 M218.47 586.64 C226.23 586.46, 232.06 588.83, 253.28 591 M253.28 591 C272.41 590.74, 288.58 595.62, 321.17 598.83 M253.28 591 C274.64 594.58, 297.02 596.47, 321.17 598.83 M321.17 598.83 C339.94 599.84, 355.57 602.33, 394.29 606.66 M321.17 598.83 C340.32 599.91, 357.17 603.03, 394.29 606.66 M394.29 606.66 C409.96 608.3, 424.47 611.46, 463.92 612.76 M394.29 606.66 C420.26 608.15, 444.47 609.9, 463.92 612.76 M463.92 612.76 C486.13 615.88, 505.95 616.3, 532.68 615.37 M463.92 612.76 C489.34 613.74, 514.51 615.18, 532.68 615.37 M532.68 615.37 C545.59 615.32, 559.95 612.26, 596.22 612.76 M532.68 615.37 C550.4 614.91, 569.44 614.28, 596.22 612.76 M596.22 612.76 C614.07 604.13, 628.81 596.9, 658.02 587.51 M596.22 612.76 C612.95 607.18, 629.81 600.17, 658.02 587.51 M658.02 587.51 C659 586.15, 659.76 585.01, 663.24 581.42 M658.02 587.51 C659.37 586.11, 659.92 584.72, 663.24 581.42 M663.24 581.42 C667.99 558.82, 672.16 538.36, 672.81 528.33 M663.24 581.42 C666 565.6, 669.37 549.8, 672.81 528.33 M672.81 528.33 C668.09 512.58, 665.77 495.43, 664.11 481.33 M672.81 528.33 C669.82 514.95, 667.81 500.92, 664.11 481.33 M664.11 481.33 C662.15 477.87, 659.41 471.43, 656.28 468.27 M664.11 481.33 C661.37 477.68, 660 473.45, 656.28 468.27 M656.28 468.27 C648.32 449.55, 637.92 429.34, 624.07 402.99 M656.28 468.27 C645.75 445.97, 634.33 423.28, 624.07 402.99 M624.07 402.99 C613.46 391.62, 606.34 377.97, 597.09 365.56 M624.07 402.99 C618.4 393.9, 612.56 386.23, 597.09 365.56 M597.09 365.56 C586.44 355.57, 579.61 348.08, 570.11 336.84 M597.09 365.56 C591.22 358.31, 583.51 352.71, 570.11 336.84 M570.11 336.84 C563.81 333.42, 554.92 329.02, 532.68 319.43 M570.11 336.84 C558.21 331.29, 548.45 327.28, 532.68 319.43 M532.68 319.43 C510.63 319.02, 487.93 314.61, 463.92 312.47 M532.68 319.43 C517.71 318.39, 502.39 316.57, 463.92 312.47 M463.92 312.47 C448.22 314.18, 430.95 312.37, 394.29 316.82 M463.92 312.47 C448.57 313.8, 432.81 314.34, 394.29 316.82 M394.29 316.82 C372.6 319.75, 346.69 321.32, 322.92 322.92 M394.29 316.82 C376.02 317.79, 356.81 320.79, 322.92 322.92 M322.92 322.92 C302.82 321.59, 284.79 321.21, 254.15 321.17 M322.92 322.92 C306.16 322.78, 289.12 321.74, 254.15 321.17" stroke="#9c36b5" stroke-width="2" fill="none"></path></g></g><mask></mask><g stroke-linecap="round"><g stroke-opacity="0.8" fill-opacity="0.8" transform="translate(550.1579943879392 396.3127327102238) rotate(0 -126.64202656359316 -159.2817241315297)"><path d="M0 0 C-14.62 -9.63, -25.68 -13.95, -37.43 -21.76 M0 0 C-7.87 -5.62, -17.65 -10.71, -37.43 -21.76 M-37.43 -21.76 C-39.87 -34.34, -40.92 -46.84, -44.39 -54.83 M-37.43 -21.76 C-38.99 -32.24, -41.26 -41.69, -44.39 -54.83 M-44.39 -54.83 C-39.18 -78.52, -33.92 -99.59, -27.85 -132.3 M-44.39 -54.83 C-38.09 -81.97, -32.29 -111.49, -27.85 -132.3 M-27.85 -132.3 C-26.19 -159.11, -26.32 -184.15, -26.98 -203.67 M-27.85 -132.3 C-27.29 -154.76, -25.9 -176.29, -26.98 -203.67 M-26.98 -203.67 C-32.82 -211.34, -37.3 -216.54, -44.39 -225.43 M-26.98 -203.67 C-33.67 -212.36, -40.61 -221.33, -44.39 -225.43 M-44.39 -225.43 C-52.96 -229.97, -64.64 -239.97, -73.11 -244.58 M-44.39 -225.43 C-52.77 -230.12, -61.12 -236.95, -73.11 -244.58 M-73.11 -244.58 C-90.94 -253.65, -111.02 -262.99, -143.61 -277.66 M-73.11 -244.58 C-100.37 -257.2, -127.62 -270.42, -143.61 -277.66 M-143.61 -277.66 C-145.91 -279.07, -149.91 -279.24, -152.32 -281.14 M-143.61 -277.66 C-146.51 -279.21, -150.12 -280.03, -152.32 -281.14 M-152.32 -281.14 C-173.81 -287, -196.19 -296.19, -214.99 -303.77 M-152.32 -281.14 C-165.81 -285.39, -177.48 -289.81, -214.99 -303.77 M-214.99 -303.77 C-228.93 -308.55, -245.06 -314.4, -253.28 -318.56 M-214.99 -303.77 C-227.72 -308.22, -241.37 -314.55, -253.28 -318.56" stroke="#9c36b5" stroke-width="2" fill="none"></path></g></g><mask></mask><g stroke-opacity="0.8" fill-opacity="0.8" stroke-linecap="round" transform="translate(296.00354932560776 75.13810864172933) rotate(0 2.6111758054350958 2.175979837862428)"><path d="M2.77 0.15 C3.22 0.19, 3.73 0.22, 4.18 0.49 C4.63 0.76, 5.4 1.24, 5.46 1.77 C5.52 2.3, 4.84 3.26, 4.52 3.68 C4.2 4.1, 4.08 4.15, 3.56 4.29 C3.04 4.42, 1.89 4.66, 1.38 4.49 C0.86 4.32, 0.63 3.72, 0.46 3.27 C0.29 2.82, 0.3 2.29, 0.34 1.79 C0.39 1.29, 0.36 0.61, 0.72 0.26 C1.09 -0.09, 2.13 -0.29, 2.53 -0.3 C2.93 -0.3, 3.07 0.17, 3.11 0.22 M2.23 -0.27 C2.78 -0.34, 3.57 -0.17, 4.08 0.26 C4.59 0.68, 5.18 1.8, 5.3 2.28 C5.41 2.75, 5.08 2.72, 4.77 3.12 C4.47 3.51, 3.93 4.46, 3.47 4.62 C3.01 4.79, 2.51 4.27, 2.01 4.11 C1.5 3.96, 0.85 4.06, 0.46 3.67 C0.07 3.28, -0.43 2.35, -0.34 1.76 C-0.24 1.17, 0.45 0.41, 1.01 0.13 C1.57 -0.15, 2.86 0.13, 3.05 0.07 C3.24 0.02, 2.27 -0.13, 2.15 -0.18" stroke="none" stroke-width="0" fill="#c2255c"></path><path d="M2.55 0.29 C3.06 0.21, 3.25 -0.19, 3.73 0.06 C4.2 0.3, 5.21 1.24, 5.4 1.75 C5.59 2.25, 5.17 2.69, 4.89 3.09 C4.61 3.49, 4.2 3.93, 3.73 4.16 C3.27 4.39, 2.63 4.56, 2.1 4.48 C1.56 4.4, 0.88 4.04, 0.54 3.68 C0.2 3.31, 0.07 2.79, 0.08 2.29 C0.08 1.8, 0.17 1.04, 0.55 0.69 C0.92 0.34, 1.97 0.26, 2.31 0.18 C2.65 0.1, 2.61 0.16, 2.6 0.19 M2.19 -0.36 C2.61 -0.41, 3.19 0.33, 3.75 0.66 C4.31 1, 5.32 1.19, 5.56 1.64 C5.79 2.1, 5.38 2.98, 5.17 3.39 C4.96 3.81, 4.77 3.96, 4.3 4.14 C3.83 4.31, 3.01 4.53, 2.36 4.43 C1.72 4.32, 0.75 3.92, 0.43 3.51 C0.1 3.1, 0.32 2.44, 0.4 1.96 C0.48 1.48, 0.51 0.97, 0.89 0.63 C1.27 0.29, 2.44 -0.02, 2.69 -0.07 C2.94 -0.11, 2.47 0.33, 2.39 0.36" stroke="#c2255c" stroke-width="2" fill="none"></path></g><g stroke-opacity="0.8" fill-opacity="0.8" stroke-linecap="round" transform="translate(501.84173473322653 167.8253424805016) rotate(0 2.6111758054350958 2.175979837862428)"><path d="M2.75 0.16 C3.24 0.22, 4.03 0.53, 4.48 0.82 C4.93 1.11, 5.39 1.43, 5.45 1.89 C5.51 2.35, 5.19 3.15, 4.83 3.58 C4.47 4.02, 3.82 4.37, 3.3 4.49 C2.77 4.61, 2.17 4.6, 1.69 4.3 C1.21 4.01, 0.62 3.24, 0.41 2.73 C0.19 2.21, 0.24 1.65, 0.41 1.23 C0.57 0.82, 0.93 0.47, 1.4 0.24 C1.86 0.01, 2.99 -0.06, 3.22 -0.13 C3.45 -0.2, 2.84 -0.28, 2.78 -0.2 M2.62 -0.01 C3.19 -0.09, 4.1 -0.18, 4.61 0.19 C5.12 0.56, 5.59 1.63, 5.68 2.22 C5.78 2.8, 5.64 3.28, 5.19 3.68 C4.73 4.08, 3.59 4.59, 2.94 4.63 C2.29 4.67, 1.72 4.18, 1.3 3.93 C0.88 3.67, 0.63 3.52, 0.44 3.1 C0.25 2.68, 0.03 1.88, 0.15 1.4 C0.27 0.91, 0.64 0.46, 1.15 0.18 C1.66 -0.11, 3.01 -0.26, 3.23 -0.3 C3.44 -0.35, 2.58 -0.23, 2.43 -0.1" stroke="none" stroke-width="0" fill="#c2255c"></path><path d="M2.72 0.04 C3.16 0.12, 3.71 0.59, 4.13 0.84 C4.55 1.09, 5.16 1.18, 5.25 1.56 C5.34 1.94, 5.02 2.69, 4.67 3.13 C4.31 3.57, 3.65 3.96, 3.12 4.18 C2.59 4.4, 1.98 4.64, 1.49 4.45 C1.01 4.26, 0.42 3.53, 0.22 3.07 C0.03 2.6, 0.23 2.13, 0.34 1.65 C0.45 1.16, 0.44 0.48, 0.9 0.16 C1.35 -0.17, 2.73 -0.24, 3.06 -0.31 C3.4 -0.38, 2.92 -0.33, 2.91 -0.25 M2.56 -0.33 C3.11 -0.38, 3.82 0.14, 4.33 0.45 C4.84 0.75, 5.59 1.09, 5.65 1.49 C5.7 1.88, 5.1 2.44, 4.67 2.82 C4.24 3.2, 3.49 3.51, 3.07 3.79 C2.65 4.07, 2.64 4.52, 2.15 4.49 C1.65 4.45, 0.49 4.09, 0.11 3.58 C-0.27 3.07, -0.35 1.95, -0.14 1.43 C0.06 0.9, 0.88 0.69, 1.33 0.43 C1.78 0.17, 2.3 -0.01, 2.55 -0.12 C2.81 -0.23, 2.76 -0.35, 2.85 -0.22" stroke="#c2255c" stroke-width="2" fill="none"></path></g><g stroke-opacity="0.8" fill-opacity="0.8" stroke-linecap="round" transform="translate(510.5825186035163 371.79313595297526) rotate(0 2.6111758054350958 2.175979837862428)"><path d="M2.75 -0.08 C3.31 -0.06, 4.15 0.38, 4.49 0.64 C4.84 0.89, 4.75 1.02, 4.83 1.46 C4.91 1.9, 5.16 2.87, 4.97 3.28 C4.78 3.7, 4.23 3.78, 3.69 3.96 C3.15 4.14, 2.3 4.46, 1.73 4.36 C1.15 4.26, 0.49 3.72, 0.23 3.36 C-0.04 3.01, 0.07 2.7, 0.13 2.23 C0.2 1.76, 0.28 0.87, 0.62 0.54 C0.97 0.2, 1.92 0.25, 2.21 0.23 C2.5 0.2, 2.35 0.32, 2.36 0.37 M1.75 -0.11 C2.31 -0.2, 3.66 0.14, 4.14 0.33 C4.61 0.53, 4.42 0.71, 4.62 1.08 C4.81 1.44, 5.52 2.06, 5.31 2.55 C5.1 3.04, 3.89 3.68, 3.37 4.01 C2.84 4.34, 2.62 4.63, 2.14 4.51 C1.66 4.39, 0.75 3.63, 0.48 3.28 C0.21 2.93, 0.44 2.82, 0.5 2.41 C0.55 2.01, 0.47 1.3, 0.8 0.85 C1.14 0.4, 2.28 -0.13, 2.53 -0.3 C2.78 -0.46, 2.29 -0.27, 2.31 -0.16" stroke="none" stroke-width="0" fill="#c2255c"></path><path d="M3.02 -0.05 C3.58 0.04, 4.27 0.52, 4.6 0.89 C4.93 1.26, 4.99 1.72, 5.02 2.17 C5.06 2.61, 5.07 3.17, 4.81 3.57 C4.55 3.97, 3.97 4.44, 3.44 4.57 C2.92 4.7, 2.25 4.54, 1.67 4.34 C1.09 4.14, 0.26 3.78, -0.05 3.36 C-0.36 2.93, -0.37 2.23, -0.19 1.77 C0 1.31, 0.55 0.92, 1.05 0.59 C1.54 0.25, 2.51 -0.15, 2.79 -0.25 C3.07 -0.35, 2.7 -0.12, 2.73 -0.02 M2.52 0.19 C2.98 0.26, 3.34 0.63, 3.82 0.95 C4.31 1.28, 5.22 1.84, 5.44 2.15 C5.67 2.46, 5.45 2.52, 5.2 2.82 C4.95 3.12, 4.54 3.68, 3.93 3.94 C3.32 4.21, 2.14 4.51, 1.54 4.41 C0.94 4.32, 0.64 3.8, 0.35 3.39 C0.05 2.97, -0.28 2.33, -0.23 1.93 C-0.18 1.53, 0.23 1.37, 0.64 0.99 C1.05 0.61, 1.94 -0.12, 2.24 -0.35 C2.53 -0.58, 2.3 -0.5, 2.4 -0.38" stroke="#c2255c" stroke-width="2" fill="none"></path></g><g stroke-opacity="0.8" fill-opacity="0.8" stroke-linecap="round" transform="translate(331.68961866655127 89.93477153919389) rotate(0 3.481567740579976 3.0463717730074222)"><path d="M3.19 0.02 C3.9 -0.13, 4.75 -0.03, 5.4 0.38 C6.06 0.79, 6.89 1.8, 7.11 2.48 C7.34 3.15, 7.17 3.91, 6.75 4.43 C6.32 4.96, 5.3 5.38, 4.58 5.64 C3.85 5.89, 3.07 6.14, 2.41 5.93 C1.75 5.72, 1.01 4.92, 0.6 4.38 C0.19 3.83, -0.18 3.28, -0.07 2.65 C0.04 2.01, 0.71 1.06, 1.27 0.57 C1.82 0.08, 2.89 -0.23, 3.28 -0.28 C3.66 -0.34, 3.54 0.16, 3.6 0.24 M3.1 0.49 C3.9 0.37, 4.78 -0.13, 5.48 0.17 C6.18 0.47, 7.13 1.58, 7.28 2.28 C7.43 2.98, 6.71 3.84, 6.39 4.38 C6.06 4.92, 5.9 5.2, 5.31 5.53 C4.72 5.86, 3.58 6.52, 2.84 6.34 C2.09 6.16, 1.24 4.98, 0.82 4.45 C0.39 3.92, 0.23 3.67, 0.28 3.15 C0.33 2.62, 0.74 1.74, 1.13 1.29 C1.52 0.85, 2.25 0.63, 2.64 0.46 C3.03 0.3, 3.3 0.38, 3.45 0.28" stroke="none" stroke-width="0" fill="#e9ecef"></path><path d="M3.64 0.34 C4.42 0.24, 5.59 0.13, 6.11 0.53 C6.62 0.93, 6.67 2.03, 6.73 2.74 C6.8 3.45, 6.92 4.27, 6.5 4.79 C6.09 5.3, 4.95 5.69, 4.23 5.83 C3.51 5.97, 2.82 5.85, 2.17 5.62 C1.52 5.4, 0.63 5.08, 0.34 4.5 C0.04 3.92, 0.23 2.83, 0.4 2.12 C0.58 1.41, 0.77 0.65, 1.37 0.26 C1.97 -0.14, 3.55 -0.17, 4.01 -0.25 C4.48 -0.32, 4.16 -0.26, 4.18 -0.21 M3.28 0.16 C3.99 0.11, 5.15 -0.22, 5.68 0.21 C6.22 0.63, 6.42 2.09, 6.49 2.72 C6.56 3.36, 6.41 3.49, 6.11 4.02 C5.8 4.56, 5.25 5.63, 4.66 5.93 C4.07 6.23, 3.29 5.97, 2.56 5.84 C1.82 5.7, 0.62 5.63, 0.24 5.12 C-0.13 4.6, 0.15 3.4, 0.33 2.73 C0.51 2.05, 0.84 1.5, 1.3 1.06 C1.77 0.62, 2.78 0.19, 3.09 0.08 C3.41 -0.02, 3.11 0.32, 3.19 0.44" stroke="#343a40" stroke-width="2" fill="none"></path></g><g stroke-opacity="0.8" fill-opacity="0.8" stroke-linecap="round" transform="translate(390.68961866655127 110.93477153919389) rotate(0 3.481567740579976 3.0463717730074222)"><path d="M3.52 0.2 C4.19 0.21, 5.04 0.28, 5.65 0.66 C6.26 1.04, 7.02 1.84, 7.18 2.51 C7.34 3.18, 7.04 4.13, 6.6 4.69 C6.16 5.25, 5.31 5.72, 4.55 5.87 C3.8 6.02, 2.78 5.85, 2.08 5.61 C1.37 5.36, 0.6 4.93, 0.31 4.43 C0.03 3.92, 0.25 3.18, 0.37 2.58 C0.48 1.98, 0.44 1.24, 1 0.81 C1.56 0.38, 3.22 0.16, 3.7 0.02 C4.18 -0.13, 3.9 -0.11, 3.89 -0.07 M3.52 -0.19 C4.22 -0.03, 5.76 0.8, 6.34 1.29 C6.92 1.78, 7.05 2.14, 6.99 2.74 C6.93 3.34, 6.45 4.44, 5.97 4.91 C5.49 5.38, 4.77 5.45, 4.11 5.56 C3.45 5.67, 2.56 5.79, 2 5.57 C1.45 5.34, 1.08 4.84, 0.77 4.21 C0.46 3.58, 0.06 2.43, 0.14 1.79 C0.22 1.15, 0.57 0.68, 1.26 0.38 C1.95 0.08, 3.88 -0.01, 4.29 0 C4.69 0.01, 3.74 0.34, 3.7 0.45" stroke="none" stroke-width="0" fill="#e9ecef"></path><path d="M3.5 -0.29 C4.14 -0.24, 5.09 0.44, 5.72 0.97 C6.34 1.5, 7.18 2.2, 7.25 2.89 C7.32 3.58, 6.6 4.64, 6.14 5.12 C5.69 5.6, 5.17 5.64, 4.51 5.77 C3.84 5.9, 2.86 6.16, 2.15 5.93 C1.43 5.7, 0.49 4.98, 0.19 4.38 C-0.11 3.78, 0.17 2.91, 0.33 2.31 C0.49 1.7, 0.56 1.09, 1.16 0.74 C1.77 0.38, 3.49 0.33, 3.97 0.18 C4.46 0.03, 4.05 -0.22, 4.07 -0.15 M3.34 0.08 C4.05 0.08, 5.7 -0.06, 6.36 0.37 C7.03 0.79, 7.3 1.88, 7.35 2.65 C7.4 3.43, 7.22 4.38, 6.66 5.01 C6.11 5.65, 4.8 6.3, 4.03 6.46 C3.26 6.63, 2.74 6.42, 2.06 6.01 C1.38 5.61, 0.35 4.73, -0.05 4.03 C-0.45 3.34, -0.62 2.44, -0.36 1.86 C-0.09 1.28, 0.8 0.85, 1.55 0.55 C2.3 0.26, 3.86 0.14, 4.14 0.1 C4.42 0.06, 3.3 0.37, 3.22 0.33" stroke="#343a40" stroke-width="2" fill="none"></path></g><g stroke-opacity="0.8" fill-opacity="0.8" stroke-linecap="round" transform="translate(402.68961866655127 115.93477153919389) rotate(0 3.481567740579976 3.0463717730074222)"><path d="M3.68 0.3 C4.41 0.28, 5.31 0.13, 5.85 0.5 C6.4 0.87, 6.88 1.89, 6.94 2.54 C7 3.18, 6.58 3.76, 6.21 4.37 C5.84 4.98, 5.37 5.93, 4.73 6.21 C4.09 6.49, 3.13 6.3, 2.36 6.04 C1.6 5.77, 0.51 5.2, 0.14 4.63 C-0.23 4.07, -0.03 3.36, 0.17 2.65 C0.37 1.95, 0.75 0.88, 1.32 0.41 C1.89 -0.06, 3.24 -0.13, 3.61 -0.18 C3.97 -0.23, 3.55 0.01, 3.5 0.12 M4.1 -0.31 C4.78 -0.22, 5.68 0.24, 6.18 0.79 C6.68 1.33, 7.09 2.2, 7.1 2.96 C7.12 3.72, 6.74 4.82, 6.27 5.36 C5.81 5.89, 5.03 6.12, 4.33 6.17 C3.63 6.22, 2.68 5.93, 2.06 5.67 C1.45 5.42, 0.95 5.27, 0.62 4.63 C0.29 3.99, -0.11 2.62, 0.06 1.85 C0.23 1.08, 1 0.35, 1.64 0 C2.29 -0.36, 3.6 -0.2, 3.91 -0.25 C4.23 -0.3, 3.45 -0.33, 3.54 -0.32" stroke="none" stroke-width="0" fill="#e9ecef"></path><path d="M4 -0.03 C4.71 -0.04, 5.54 0.36, 5.98 0.83 C6.43 1.3, 6.65 2.06, 6.68 2.78 C6.71 3.51, 6.55 4.7, 6.16 5.19 C5.78 5.68, 5.06 5.62, 4.37 5.72 C3.68 5.82, 2.7 6.04, 2.02 5.82 C1.34 5.6, 0.62 5.01, 0.28 4.4 C-0.05 3.79, -0.19 2.79, 0.02 2.17 C0.22 1.56, 0.8 1.11, 1.51 0.71 C2.22 0.3, 3.88 -0.14, 4.26 -0.26 C4.64 -0.39, 3.81 -0.18, 3.79 -0.04 M3.57 -0.19 C4.23 -0.16, 4.78 0.27, 5.3 0.8 C5.83 1.34, 6.52 2.39, 6.71 3.03 C6.89 3.66, 6.83 4.16, 6.42 4.59 C6.01 5.03, 4.95 5.34, 4.24 5.62 C3.52 5.91, 2.76 6.52, 2.13 6.31 C1.49 6.11, 0.71 4.98, 0.43 4.38 C0.14 3.78, 0.23 3.24, 0.43 2.69 C0.63 2.15, 1.09 1.61, 1.63 1.11 C2.17 0.61, 3.44 -0.09, 3.69 -0.32 C3.94 -0.55, 3.13 -0.4, 3.13 -0.29" stroke="#343a40" stroke-width="2" fill="none"></path></g><g stroke-opacity="0.8" fill-opacity="0.8" stroke-linecap="round" transform="translate(472.68961866655127 147.9347715391939) rotate(0 3.481567740579976 3.0463717730074222)"><path d="M3.68 -0.21 C4.45 -0.16, 5.42 0.68, 5.98 1.1 C6.55 1.52, 6.99 1.76, 7.07 2.32 C7.16 2.88, 6.9 3.87, 6.48 4.44 C6.07 5.02, 5.3 5.55, 4.59 5.78 C3.89 6.02, 2.94 6.03, 2.25 5.85 C1.56 5.68, 0.79 5.29, 0.45 4.73 C0.1 4.17, 0.01 3.17, 0.19 2.49 C0.37 1.8, 0.9 0.96, 1.52 0.6 C2.15 0.24, 3.57 0.44, 3.92 0.32 C4.27 0.21, 3.67 -0.03, 3.62 -0.08 M2.96 0.49 C3.63 0.45, 4.49 -0.08, 5.14 0.32 C5.79 0.72, 6.58 2.14, 6.88 2.89 C7.17 3.64, 7.27 4.34, 6.89 4.82 C6.51 5.3, 5.31 5.66, 4.61 5.76 C3.92 5.87, 3.34 5.56, 2.72 5.45 C2.11 5.35, 1.37 5.68, 0.93 5.14 C0.48 4.6, 0.07 2.9, 0.05 2.2 C0.03 1.51, 0.26 1.36, 0.79 0.98 C1.32 0.59, 2.87 0.13, 3.24 -0.09 C3.61 -0.3, 3.02 -0.4, 3.01 -0.29" stroke="none" stroke-width="0" fill="#e9ecef"></path><path d="M3.83 0.26 C4.63 0.35, 5.79 0.62, 6.3 1.03 C6.81 1.45, 6.89 2.11, 6.88 2.74 C6.88 3.37, 6.75 4.24, 6.26 4.8 C5.76 5.35, 4.66 5.87, 3.9 6.07 C3.15 6.28, 2.32 6.37, 1.7 6.05 C1.09 5.74, 0.51 4.87, 0.21 4.18 C-0.09 3.49, -0.32 2.48, -0.09 1.9 C0.13 1.33, 0.87 1.07, 1.56 0.74 C2.24 0.41, 3.57 0.02, 4.03 -0.07 C4.5 -0.15, 4.33 0.14, 4.36 0.25 M3.33 0.18 C4.1 0.17, 5.35 -0.01, 5.94 0.41 C6.53 0.83, 6.78 2.04, 6.86 2.68 C6.94 3.32, 6.79 3.63, 6.44 4.25 C6.1 4.87, 5.48 6.2, 4.79 6.41 C4.1 6.63, 3.04 5.86, 2.31 5.53 C1.59 5.21, 0.86 5.03, 0.42 4.45 C-0.02 3.87, -0.51 2.62, -0.34 2.05 C-0.16 1.49, 0.79 1.37, 1.47 1.06 C2.16 0.75, 3.49 0.34, 3.77 0.19 C4.06 0.04, 3.17 0.1, 3.18 0.15" stroke="#343a40" stroke-width="2" fill="none"></path></g><g stroke-opacity="0.8" fill-opacity="0.8" stroke-linecap="round" transform="translate(518.6896186665513 188.9347715391939) rotate(0 3.481567740579976 3.0463717730074222)"><path d="M3.47 -0.23 C4.17 -0.18, 5.14 0.57, 5.75 1.03 C6.35 1.48, 7.04 1.83, 7.1 2.49 C7.16 3.16, 6.51 4.45, 6.11 5 C5.72 5.56, 5.44 5.62, 4.72 5.81 C4 6, 2.55 6.41, 1.8 6.14 C1.05 5.86, 0.52 4.84, 0.22 4.16 C-0.07 3.47, -0.18 2.67, 0.05 2.05 C0.28 1.42, 0.97 0.71, 1.61 0.42 C2.26 0.12, 3.51 0.35, 3.91 0.25 C4.32 0.16, 4.06 -0.21, 4.03 -0.17 M3.5 -0.19 C4.31 -0.32, 5.12 0.26, 5.74 0.69 C6.36 1.11, 7.13 1.83, 7.22 2.37 C7.32 2.92, 6.71 3.41, 6.3 3.96 C5.89 4.52, 5.33 5.36, 4.75 5.72 C4.17 6.08, 3.53 6.35, 2.83 6.13 C2.12 5.91, 0.97 4.9, 0.51 4.41 C0.06 3.91, -0.04 3.68, 0.1 3.15 C0.25 2.62, 0.8 1.75, 1.39 1.22 C1.98 0.69, 3.36 0.09, 3.65 -0.05 C3.94 -0.18, 3.15 0.36, 3.14 0.4" stroke="none" stroke-width="0" fill="#e9ecef"></path><path d="M3.67 0.09 C4.39 0.15, 5.65 0.73, 6.21 1.16 C6.77 1.59, 7.03 2.06, 7.04 2.66 C7.05 3.27, 6.78 4.2, 6.28 4.77 C5.79 5.34, 4.88 5.91, 4.1 6.09 C3.31 6.27, 2.19 6.17, 1.6 5.88 C1.01 5.58, 0.83 4.92, 0.54 4.3 C0.25 3.67, -0.29 2.77, -0.14 2.13 C0.01 1.5, 0.76 0.83, 1.43 0.5 C2.11 0.17, 3.45 0.19, 3.89 0.14 C4.34 0.08, 4.03 0.11, 4.09 0.16 M4.02 0.48 C4.67 0.44, 5.23 0.3, 5.72 0.58 C6.2 0.87, 6.8 1.57, 6.91 2.2 C7.01 2.84, 6.79 3.85, 6.32 4.4 C5.85 4.96, 4.68 5.38, 4.07 5.54 C3.45 5.7, 3.3 5.55, 2.63 5.37 C1.96 5.18, 0.4 4.88, 0.05 4.44 C-0.29 4, 0.27 3.39, 0.55 2.72 C0.82 2.06, 1.21 0.86, 1.7 0.46 C2.2 0.07, 3.28 0.33, 3.53 0.33 C3.77 0.33, 3.05 0.47, 3.15 0.47" stroke="#343a40" stroke-width="2" fill="none"></path></g><g stroke-opacity="0.8" fill-opacity="0.8" stroke-linecap="round" transform="translate(518.6896186665513 258.9347715391939) rotate(0 3.481567740579976 3.0463717730074222)"><path d="M3.52 -0.3 C4.2 -0.3, 4.89 0.53, 5.45 0.96 C6.01 1.4, 6.68 1.73, 6.9 2.32 C7.12 2.91, 7.15 3.89, 6.79 4.53 C6.42 5.17, 5.4 5.89, 4.68 6.15 C3.96 6.41, 3.14 6.39, 2.47 6.09 C1.8 5.78, 1.14 4.9, 0.69 4.34 C0.23 3.78, -0.3 3.39, -0.26 2.74 C-0.23 2.1, 0.3 0.87, 0.91 0.46 C1.51 0.04, 2.94 0.34, 3.37 0.26 C3.8 0.18, 3.46 0.02, 3.48 -0.02 M3.23 0.34 C3.91 0.37, 4.8 0.68, 5.47 0.97 C6.14 1.27, 6.99 1.49, 7.25 2.09 C7.51 2.68, 7.45 3.9, 7.03 4.53 C6.62 5.17, 5.52 5.72, 4.75 5.9 C3.97 6.07, 3.04 5.7, 2.37 5.57 C1.7 5.45, 1.02 5.57, 0.71 5.16 C0.4 4.76, 0.43 3.89, 0.49 3.13 C0.56 2.37, 0.67 1.2, 1.11 0.61 C1.55 0.03, 2.75 -0.3, 3.12 -0.37 C3.5 -0.44, 3.41 0.07, 3.37 0.21" stroke="none" stroke-width="0" fill="#e9ecef"></path><path d="M4.11 0.12 C4.83 0.2, 5.86 0.64, 6.3 1.07 C6.74 1.49, 6.77 2.04, 6.74 2.67 C6.7 3.3, 6.5 4.27, 6.11 4.84 C5.72 5.42, 5.12 6.01, 4.4 6.11 C3.68 6.22, 2.47 5.77, 1.79 5.49 C1.12 5.21, 0.55 4.98, 0.32 4.46 C0.09 3.93, 0.14 3.02, 0.41 2.35 C0.68 1.68, 1.33 0.79, 1.92 0.44 C2.52 0.09, 3.56 0.32, 3.95 0.25 C4.34 0.19, 4.28 0.08, 4.25 0.04 M3.6 0.01 C4.34 -0.06, 5.54 0.08, 6.1 0.44 C6.66 0.79, 6.92 1.45, 6.96 2.13 C7 2.8, 6.68 3.9, 6.33 4.49 C5.99 5.07, 5.55 5.3, 4.9 5.61 C4.25 5.92, 3.15 6.5, 2.43 6.35 C1.72 6.2, 1 5.35, 0.59 4.71 C0.18 4.07, -0.08 3.09, -0.02 2.49 C0.03 1.89, 0.42 1.57, 0.92 1.1 C1.43 0.64, 2.63 -0.16, 2.99 -0.27 C3.35 -0.38, 3.02 0.32, 3.11 0.44" stroke="#343a40" stroke-width="2" fill="none"></path></g><g stroke-opacity="0.8" fill-opacity="0.8" stroke-linecap="round" transform="translate(502.68961866655127 336.9347715391939) rotate(0 3.481567740579976 3.0463717730074222)"><path d="M3.64 0.29 C4.41 0.36, 5.53 0.68, 6.08 1.04 C6.63 1.39, 6.89 1.87, 6.93 2.43 C6.98 2.98, 6.74 3.77, 6.36 4.37 C5.99 4.97, 5.41 5.75, 4.67 6.03 C3.94 6.3, 2.66 6.22, 1.96 6.01 C1.27 5.79, 0.83 5.37, 0.49 4.73 C0.14 4.08, -0.29 2.79, -0.11 2.14 C0.07 1.49, 0.92 1.19, 1.56 0.83 C2.2 0.48, 3.43 0.18, 3.74 0.01 C4.05 -0.17, 3.42 -0.32, 3.44 -0.22 M3.28 0.18 C3.89 0.14, 4.83 0.73, 5.42 1.14 C6 1.56, 6.67 2.14, 6.78 2.66 C6.89 3.19, 6.41 3.73, 6.07 4.28 C5.72 4.83, 5.41 5.64, 4.7 5.96 C3.99 6.29, 2.53 6.47, 1.83 6.24 C1.13 6, 0.77 5.27, 0.52 4.57 C0.28 3.86, 0.17 2.6, 0.36 2.01 C0.55 1.42, 1.14 1.42, 1.66 1.04 C2.19 0.66, 3.21 -0.06, 3.5 -0.26 C3.79 -0.45, 3.38 -0.27, 3.4 -0.14" stroke="none" stroke-width="0" fill="#e9ecef"></path><path d="M3.22 0.05 C3.91 -0.1, 4.86 0.07, 5.44 0.47 C6.01 0.88, 6.52 1.86, 6.68 2.48 C6.84 3.09, 6.7 3.55, 6.38 4.15 C6.06 4.75, 5.4 5.73, 4.78 6.06 C4.16 6.39, 3.39 6.35, 2.66 6.11 C1.94 5.87, 0.88 5.18, 0.43 4.62 C-0.01 4.06, -0.12 3.36, -0.02 2.75 C0.09 2.14, 0.57 1.48, 1.06 0.99 C1.56 0.49, 2.53 -0.07, 2.95 -0.22 C3.37 -0.38, 3.57 -0.07, 3.6 0.06 M3.67 0.24 C4.44 0.07, 5.54 -0.12, 6.01 0.31 C6.47 0.73, 6.44 2.15, 6.45 2.79 C6.46 3.43, 6.37 3.55, 6.05 4.14 C5.73 4.72, 5.16 6.02, 4.52 6.3 C3.88 6.57, 2.91 6.15, 2.22 5.79 C1.54 5.43, 0.82 4.68, 0.43 4.14 C0.04 3.6, -0.21 3.12, -0.13 2.54 C-0.04 1.96, 0.31 1.1, 0.96 0.67 C1.62 0.23, 3.32 -0.05, 3.81 -0.09 C4.29 -0.12, 3.95 0.31, 3.85 0.45" stroke="#343a40" stroke-width="2" fill="none"></path></g><g stroke-opacity="0.8" fill-opacity="0.8" stroke-linecap="round" transform="translate(546.6896186665513 394.9347715391939) rotate(0 3.481567740579976 3.0463717730074222)"><path d="M3.56 -0.24 C4.27 -0.18, 5.2 0.37, 5.82 0.87 C6.44 1.38, 7.15 2.08, 7.26 2.78 C7.37 3.49, 6.99 4.61, 6.49 5.1 C5.99 5.59, 5 5.61, 4.25 5.7 C3.49 5.78, 2.6 5.77, 1.97 5.59 C1.33 5.4, 0.76 5.13, 0.43 4.61 C0.11 4.09, -0.14 3.15, 0 2.46 C0.15 1.78, 0.63 0.85, 1.31 0.49 C1.99 0.13, 3.63 0.39, 4.09 0.3 C4.55 0.22, 4.1 0.01, 4.06 -0.02 M3.8 0.43 C4.42 0.38, 4.61 0, 5.14 0.28 C5.66 0.56, 6.71 1.48, 6.95 2.1 C7.19 2.73, 6.92 3.36, 6.59 4.02 C6.25 4.68, 5.62 5.78, 4.96 6.08 C4.29 6.37, 3.27 5.96, 2.59 5.79 C1.91 5.62, 1.36 5.65, 0.88 5.08 C0.41 4.51, -0.24 3.06, -0.25 2.37 C-0.26 1.69, 0.2 1.42, 0.82 0.97 C1.44 0.52, 3.03 -0.24, 3.47 -0.33 C3.91 -0.42, 3.48 0.37, 3.47 0.44" stroke="none" stroke-width="0" fill="#e9ecef"></path><path d="M3.38 0.12 C4.03 0.09, 4.97 0.6, 5.55 1.02 C6.12 1.44, 6.72 2.08, 6.83 2.64 C6.94 3.21, 6.55 3.85, 6.19 4.4 C5.83 4.95, 5.37 5.67, 4.66 5.95 C3.95 6.24, 2.65 6.35, 1.95 6.12 C1.25 5.88, 0.77 5.2, 0.49 4.54 C0.21 3.88, 0.09 2.75, 0.27 2.15 C0.44 1.54, 0.99 1.3, 1.55 0.91 C2.11 0.53, 3.29 0, 3.65 -0.17 C4.01 -0.33, 3.69 -0.16, 3.7 -0.06 M3.85 -0.27 C4.46 -0.21, 5.29 0.43, 5.86 0.94 C6.42 1.45, 7.22 2.1, 7.26 2.8 C7.29 3.49, 6.62 4.63, 6.07 5.1 C5.51 5.56, 4.59 5.52, 3.94 5.61 C3.28 5.7, 2.66 5.93, 2.11 5.64 C1.56 5.35, 1 4.41, 0.65 3.86 C0.29 3.31, -0.12 2.85, 0.01 2.35 C0.13 1.84, 0.75 1.17, 1.38 0.85 C2.02 0.54, 3.37 0.62, 3.82 0.45 C4.28 0.29, 4.09 -0.15, 4.1 -0.14" stroke="#343a40" stroke-width="2" fill="none"></path></g><g stroke-opacity="0.8" fill-opacity="0.8" stroke-linecap="round" transform="translate(614.6896186665513 396.9347715391939) rotate(0 3.481567740579976 3.0463717730074222)"><path d="M3.75 -0.13 C4.45 -0.12, 5.47 0.29, 6.03 0.79 C6.6 1.29, 7.13 2.18, 7.14 2.87 C7.15 3.55, 6.57 4.32, 6.11 4.88 C5.64 5.44, 5.11 6.02, 4.35 6.22 C3.59 6.42, 2.22 6.43, 1.57 6.06 C0.92 5.69, 0.68 4.67, 0.44 4.02 C0.2 3.38, -0.09 2.77, 0.14 2.18 C0.37 1.58, 1.18 0.77, 1.82 0.46 C2.46 0.14, 3.68 0.3, 4 0.27 C4.32 0.25, 3.72 0.28, 3.73 0.31 M3.34 0.4 C4.13 0.32, 5.58 0.51, 6.19 0.89 C6.8 1.26, 6.9 2.06, 7.02 2.66 C7.14 3.26, 7.23 3.95, 6.89 4.5 C6.55 5.06, 5.78 5.73, 4.99 5.97 C4.2 6.21, 2.89 6.17, 2.16 5.94 C1.42 5.72, 0.96 5.18, 0.59 4.62 C0.22 4.06, -0.13 3.32, -0.06 2.58 C0.01 1.85, 0.45 0.58, 1 0.19 C1.55 -0.19, 2.92 0.36, 3.26 0.25 C3.6 0.15, 3.02 -0.41, 3.03 -0.42" stroke="none" stroke-width="0" fill="#e9ecef"></path><path d="M3.98 -0.22 C4.63 -0.17, 5.32 0.49, 5.86 0.98 C6.4 1.47, 7.15 2.09, 7.22 2.72 C7.28 3.34, 6.75 4.19, 6.25 4.72 C5.75 5.25, 4.91 5.76, 4.23 5.89 C3.54 6.03, 2.73 5.74, 2.13 5.54 C1.54 5.34, 1.06 5.25, 0.66 4.68 C0.27 4.1, -0.35 2.8, -0.21 2.08 C-0.08 1.37, 0.8 0.78, 1.47 0.39 C2.14 0, 3.37 -0.26, 3.78 -0.28 C4.19 -0.31, 3.9 0.13, 3.92 0.22 M3.62 -0.3 C4.29 -0.2, 5.68 0.53, 6.19 1.08 C6.69 1.63, 6.55 2.35, 6.63 2.99 C6.7 3.62, 7.08 4.36, 6.65 4.88 C6.22 5.39, 4.8 5.99, 4.06 6.09 C3.32 6.19, 2.77 5.78, 2.2 5.45 C1.64 5.13, 0.97 4.75, 0.65 4.14 C0.33 3.53, 0.05 2.35, 0.28 1.79 C0.51 1.24, 1.5 1.1, 2.04 0.8 C2.57 0.5, 3.14 0.12, 3.5 0 C3.85 -0.12, 4.06 0.01, 4.18 0.09" stroke="#343a40" stroke-width="2" fill="none"></path></g><g stroke-opacity="0.8" fill-opacity="0.8" stroke-linecap="round" transform="translate(686.6896186665513 390.9347715391939) rotate(0 3.481567740579976 3.0463717730074222)"><path d="M2.69 -0.14 C3.4 -0.27, 4.59 0.02, 5.22 0.36 C5.84 0.69, 6.21 1.28, 6.45 1.87 C6.68 2.46, 6.84 3.3, 6.64 3.89 C6.45 4.48, 5.93 5.03, 5.26 5.39 C4.6 5.75, 3.46 6.1, 2.68 6.04 C1.9 5.97, 1.05 5.49, 0.58 4.98 C0.11 4.48, -0.19 3.72, -0.13 3.02 C-0.07 2.32, 0.48 1.21, 0.95 0.77 C1.42 0.32, 2.36 0.41, 2.66 0.35 C2.97 0.28, 2.76 0.36, 2.77 0.39 M3.5 0.11 C4.15 0.12, 5.22 0.42, 5.72 0.78 C6.23 1.14, 6.34 1.66, 6.55 2.28 C6.76 2.89, 7.21 3.88, 6.99 4.48 C6.76 5.07, 6.02 5.67, 5.19 5.85 C4.36 6.02, 2.75 5.72, 2 5.54 C1.25 5.35, 1.01 5.28, 0.7 4.75 C0.38 4.23, 0 3.05, 0.11 2.41 C0.23 1.77, 0.82 1.26, 1.38 0.92 C1.94 0.57, 3.15 0.58, 3.48 0.36 C3.8 0.14, 3.28 -0.45, 3.34 -0.41" stroke="none" stroke-width="0" fill="#e9ecef"></path><path d="M3.33 0.09 C4.05 0.04, 5.39 0.38, 5.98 0.75 C6.58 1.13, 6.83 1.71, 6.89 2.34 C6.95 2.98, 6.74 3.94, 6.34 4.56 C5.93 5.19, 5.15 5.89, 4.47 6.09 C3.78 6.29, 2.91 6, 2.24 5.77 C1.57 5.53, 0.78 5.27, 0.44 4.67 C0.11 4.08, 0.07 2.84, 0.25 2.21 C0.44 1.57, 1.04 1.25, 1.56 0.88 C2.08 0.51, 3.02 0.09, 3.38 -0.02 C3.74 -0.12, 3.67 0.22, 3.7 0.28 M4.15 0.14 C4.94 0.11, 5.52 0.45, 6.07 0.88 C6.61 1.3, 7.33 1.95, 7.43 2.68 C7.53 3.42, 7.17 4.73, 6.67 5.3 C6.17 5.87, 5.2 5.97, 4.42 6.12 C3.64 6.26, 2.71 6.44, 2.01 6.19 C1.3 5.94, 0.48 5.3, 0.18 4.61 C-0.13 3.93, -0.05 2.74, 0.19 2.08 C0.43 1.42, 1 1.01, 1.63 0.65 C2.26 0.29, 3.59 0.04, 3.98 -0.1 C4.38 -0.24, 4.1 -0.23, 4 -0.2" stroke="#343a40" stroke-width="2" fill="none"></path></g><g stroke-opacity="0.8" fill-opacity="0.8" stroke-linecap="round" transform="translate(756.6896186665513 385.9347715391939) rotate(0 3.481567740579976 3.0463717730074222)"><path d="M3.12 0.22 C3.74 0.2, 4.66 0.33, 5.32 0.69 C5.97 1.05, 6.86 1.79, 7.04 2.36 C7.23 2.93, 6.76 3.55, 6.41 4.12 C6.06 4.69, 5.57 5.53, 4.92 5.79 C4.27 6.04, 3.23 5.81, 2.5 5.66 C1.78 5.52, 1 5.41, 0.56 4.9 C0.12 4.39, -0.2 3.26, -0.14 2.59 C-0.08 1.93, 0.28 1.39, 0.9 0.91 C1.52 0.44, 3.2 -0.07, 3.58 -0.25 C3.95 -0.44, 3.14 -0.29, 3.14 -0.22 M3.9 -0.27 C4.48 -0.1, 5.24 0.98, 5.79 1.48 C6.35 1.98, 7.17 2.2, 7.25 2.72 C7.32 3.25, 6.77 4.12, 6.24 4.63 C5.72 5.15, 4.9 5.69, 4.08 5.81 C3.26 5.94, 2.01 5.63, 1.32 5.39 C0.63 5.16, 0.17 4.91, -0.06 4.38 C-0.3 3.86, -0.35 2.86, -0.09 2.25 C0.17 1.63, 0.77 1.09, 1.52 0.69 C2.27 0.29, 3.92 -0.06, 4.41 -0.15 C4.91 -0.25, 4.57 -0.05, 4.5 0.12" stroke="none" stroke-width="0" fill="#e9ecef"></path><path d="M3.14 0.12 C3.79 -0.01, 4.48 -0.08, 5.14 0.23 C5.81 0.54, 6.84 1.35, 7.14 1.98 C7.44 2.6, 7.29 3.36, 6.96 3.99 C6.63 4.62, 5.86 5.45, 5.19 5.76 C4.51 6.07, 3.64 5.98, 2.9 5.83 C2.15 5.69, 1.19 5.39, 0.71 4.9 C0.23 4.41, 0.03 3.58, 0.04 2.89 C0.04 2.21, 0.17 1.28, 0.75 0.8 C1.32 0.31, 3.02 0.1, 3.49 -0.02 C3.96 -0.15, 3.64 0.02, 3.56 0.04 M3.56 0.19 C4.28 0.18, 5.44 0.49, 6.07 0.9 C6.69 1.3, 7.33 1.93, 7.3 2.63 C7.27 3.34, 6.32 4.64, 5.9 5.13 C5.47 5.62, 5.4 5.49, 4.74 5.57 C4.08 5.66, 2.73 5.91, 1.96 5.65 C1.18 5.39, 0.47 4.47, 0.09 4 C-0.28 3.52, -0.54 3.37, -0.28 2.8 C-0.01 2.23, 0.95 0.98, 1.67 0.59 C2.38 0.2, 3.65 0.56, 4.04 0.47 C4.42 0.39, 4 0.06, 3.98 0.08" stroke="#343a40" stroke-width="2" fill="none"></path></g><g stroke-opacity="0.8" fill-opacity="0.8" stroke-linecap="round" transform="translate(824.6896186665513 392.9347715391939) rotate(0 3.481567740579976 3.0463717730074222)"><path d="M3.97 -0.12 C4.75 -0.14, 5.71 0.34, 6.21 0.87 C6.7 1.4, 6.88 2.37, 6.94 3.06 C7.01 3.76, 6.96 4.54, 6.58 5.05 C6.2 5.56, 5.4 6.05, 4.65 6.14 C3.9 6.23, 2.83 5.84, 2.08 5.6 C1.33 5.35, 0.55 5.16, 0.17 4.66 C-0.2 4.16, -0.34 3.24, -0.15 2.6 C0.04 1.96, 0.65 1.28, 1.32 0.83 C1.98 0.37, 3.44 0.01, 3.84 -0.13 C4.25 -0.28, 3.77 -0.15, 3.74 -0.05 M3.72 0.43 C4.41 0.47, 5.81 0.92, 6.34 1.4 C6.86 1.88, 6.96 2.77, 6.88 3.32 C6.8 3.87, 6.24 4.32, 5.84 4.7 C5.45 5.08, 5.24 5.44, 4.52 5.58 C3.79 5.73, 2.19 5.8, 1.49 5.58 C0.8 5.36, 0.64 4.75, 0.37 4.26 C0.09 3.78, -0.35 3.36, -0.14 2.68 C0.07 2, 0.96 0.7, 1.61 0.18 C2.25 -0.35, 3.31 -0.41, 3.75 -0.47 C4.19 -0.53, 4.27 -0.38, 4.25 -0.17" stroke="none" stroke-width="0" fill="#e9ecef"></path><path d="M4.25 0.35 C4.96 0.41, 5.82 0.59, 6.3 1.06 C6.78 1.54, 7.17 2.59, 7.13 3.19 C7.08 3.79, 6.54 4.16, 6.03 4.67 C5.51 5.19, 4.79 6.14, 4.04 6.28 C3.29 6.42, 2.12 5.91, 1.52 5.51 C0.92 5.1, 0.65 4.4, 0.44 3.85 C0.23 3.3, 0.05 2.81, 0.26 2.21 C0.47 1.61, 1.1 0.61, 1.69 0.26 C2.27 -0.08, 3.37 0.16, 3.76 0.14 C4.15 0.12, 4.05 0.13, 4.04 0.17 M3.51 0.17 C4.31 0.15, 5.8 0.17, 6.31 0.54 C6.82 0.91, 6.5 1.73, 6.56 2.41 C6.62 3.09, 6.94 3.94, 6.65 4.6 C6.36 5.27, 5.65 6.24, 4.83 6.41 C4 6.58, 2.52 6.04, 1.71 5.63 C0.9 5.23, 0.18 4.48, -0.01 3.96 C-0.2 3.43, 0.34 3.06, 0.55 2.5 C0.75 1.94, 0.75 1.02, 1.24 0.6 C1.73 0.18, 3.09 0.14, 3.49 -0.02 C3.88 -0.18, 3.6 -0.38, 3.6 -0.37" stroke="#343a40" stroke-width="2" fill="none"></path></g><g stroke-opacity="0.8" fill-opacity="0.8" stroke-linecap="round" transform="translate(861.6896186665513 408.9347715391939) rotate(0 3.481567740579976 3.0463717730074222)"><path d="M3.07 0.33 C3.77 0.22, 4.96 0.09, 5.58 0.37 C6.2 0.64, 6.57 1.35, 6.79 2 C7 2.64, 7.21 3.54, 6.87 4.23 C6.53 4.92, 5.42 5.83, 4.75 6.13 C4.08 6.43, 3.56 6.23, 2.83 6.03 C2.1 5.83, 0.77 5.51, 0.35 4.93 C-0.07 4.34, 0.23 3.22, 0.3 2.54 C0.37 1.86, 0.22 1.21, 0.77 0.84 C1.32 0.46, 3.18 0.42, 3.61 0.29 C4.04 0.15, 3.45 0.02, 3.36 0.03 M3.31 0.09 C4.16 0, 5.21 0.12, 5.79 0.51 C6.38 0.9, 6.71 1.77, 6.8 2.43 C6.88 3.08, 6.64 3.93, 6.3 4.43 C5.96 4.93, 5.36 5.13, 4.77 5.41 C4.18 5.69, 3.44 6.16, 2.76 6.12 C2.07 6.09, 1.15 5.67, 0.65 5.21 C0.16 4.75, -0.28 4.1, -0.21 3.35 C-0.13 2.61, 0.64 1.35, 1.11 0.74 C1.57 0.13, 2.23 -0.11, 2.58 -0.29 C2.93 -0.47, 3.15 -0.38, 3.21 -0.34" stroke="none" stroke-width="0" fill="#e9ecef"></path><path d="M3.58 0.19 C4.29 0.17, 4.88 0.31, 5.39 0.67 C5.9 1.02, 6.47 1.76, 6.64 2.34 C6.82 2.92, 6.76 3.58, 6.43 4.14 C6.09 4.69, 5.27 5.39, 4.63 5.66 C4 5.93, 3.29 5.95, 2.64 5.77 C1.98 5.58, 1.11 5.05, 0.7 4.57 C0.3 4.1, 0.16 3.49, 0.2 2.91 C0.25 2.33, 0.45 1.6, 0.98 1.12 C1.51 0.63, 2.91 0.14, 3.38 0 C3.84 -0.14, 3.71 0.19, 3.76 0.28 M3.5 0.44 C4.14 0.58, 5 0.88, 5.54 1.33 C6.09 1.78, 6.62 2.6, 6.77 3.13 C6.91 3.67, 6.85 4.12, 6.43 4.56 C6.01 5.01, 5.01 5.54, 4.26 5.8 C3.51 6.06, 2.51 6.29, 1.91 6.12 C1.31 5.96, 0.9 5.45, 0.66 4.79 C0.43 4.12, 0.3 2.78, 0.51 2.13 C0.71 1.48, 1.26 1.27, 1.88 0.9 C2.5 0.53, 3.83 0.15, 4.22 -0.06 C4.61 -0.28, 4.33 -0.47, 4.23 -0.37" stroke="#343a40" stroke-width="2" fill="none"></path></g><g stroke-opacity="0.8" fill-opacity="0.8" stroke-linecap="round" transform="translate(889.6896186665513 436.9347715391939) rotate(0 3.481567740579976 3.0463717730074222)"><path d="M3.99 -0.26 C4.66 -0.26, 5.72 0.23, 6.16 0.75 C6.6 1.27, 6.6 2.16, 6.65 2.86 C6.69 3.57, 6.78 4.46, 6.42 4.99 C6.06 5.53, 5.25 5.92, 4.48 6.08 C3.71 6.23, 2.56 6.24, 1.81 5.94 C1.06 5.65, 0.27 5, -0.05 4.32 C-0.36 3.64, -0.35 2.49, -0.06 1.85 C0.22 1.21, 0.99 0.77, 1.66 0.5 C2.34 0.23, 3.62 0.24, 4 0.22 C4.38 0.2, 3.94 0.38, 3.96 0.37 M2.6 -0.04 C3.29 -0.16, 4.34 0.36, 5.01 0.68 C5.68 1, 6.39 1.34, 6.62 1.87 C6.86 2.4, 6.6 3.21, 6.41 3.85 C6.21 4.48, 6.01 5.35, 5.46 5.67 C4.91 5.98, 3.99 5.89, 3.13 5.73 C2.26 5.57, 0.81 5.22, 0.29 4.72 C-0.24 4.22, -0.08 3.41, -0.03 2.74 C0.02 2.08, 0.11 1.17, 0.59 0.73 C1.07 0.29, 2.39 0.13, 2.87 0.1 C3.34 0.06, 3.37 0.53, 3.42 0.52" stroke="none" stroke-width="0" fill="#e9ecef"></path><path d="M3.72 0.29 C4.46 0.23, 5.41 0.55, 5.95 0.88 C6.48 1.22, 6.87 1.64, 6.93 2.3 C6.99 2.97, 6.73 4.22, 6.31 4.87 C5.89 5.52, 5.09 6, 4.4 6.21 C3.71 6.43, 2.8 6.45, 2.15 6.15 C1.51 5.85, 0.88 5.04, 0.51 4.41 C0.15 3.78, -0.15 2.96, -0.04 2.38 C0.07 1.8, 0.54 1.26, 1.18 0.91 C1.82 0.56, 3.34 0.45, 3.79 0.29 C4.25 0.14, 3.9 -0.07, 3.91 -0.03 M3.57 -0.11 C4.32 -0.21, 5.82 0.13, 6.31 0.61 C6.8 1.1, 6.52 2.06, 6.51 2.78 C6.51 3.51, 6.71 4.32, 6.27 4.94 C5.83 5.56, 4.62 6.45, 3.88 6.52 C3.15 6.59, 2.49 5.86, 1.87 5.38 C1.24 4.9, 0.34 4.26, 0.12 3.66 C-0.09 3.07, 0.36 2.28, 0.58 1.82 C0.81 1.35, 0.82 1.16, 1.48 0.88 C2.13 0.6, 4.14 0.21, 4.5 0.13 C4.86 0.05, 3.67 0.39, 3.65 0.38" stroke="#343a40" stroke-width="2" fill="none"></path></g><g stroke-opacity="0.8" fill-opacity="0.8" stroke-linecap="round" transform="translate(917.6896186665513 474.9347715391939) rotate(0 3.481567740579976 3.0463717730074222)"><path d="M3.29 -0.17 C4.01 -0.29, 4.83 0, 5.47 0.43 C6.11 0.86, 6.93 1.75, 7.15 2.4 C7.37 3.05, 7.25 3.76, 6.8 4.32 C6.35 4.88, 5.19 5.52, 4.45 5.77 C3.71 6.02, 3.03 6.04, 2.34 5.82 C1.64 5.6, 0.68 4.99, 0.28 4.45 C-0.12 3.92, -0.26 3.19, -0.07 2.63 C0.13 2.06, 0.85 1.51, 1.44 1.04 C2.04 0.57, 3.15 0.01, 3.52 -0.2 C3.9 -0.41, 3.73 -0.27, 3.72 -0.22 M3.22 0.12 C3.81 0.05, 4.37 0.07, 4.99 0.45 C5.62 0.83, 6.63 1.78, 6.96 2.4 C7.28 3.01, 7.34 3.65, 6.96 4.14 C6.58 4.62, 5.3 5.06, 4.68 5.3 C4.06 5.54, 3.86 5.67, 3.23 5.55 C2.6 5.43, 1.39 4.96, 0.89 4.59 C0.39 4.22, 0.25 3.87, 0.23 3.32 C0.21 2.77, 0.24 1.78, 0.77 1.29 C1.3 0.79, 2.96 0.64, 3.4 0.37 C3.85 0.09, 3.42 -0.36, 3.42 -0.37" stroke="none" stroke-width="0" fill="#e9ecef"></path><path d="M3.01 -0.13 C3.7 -0.15, 5.02 0.14, 5.63 0.61 C6.25 1.08, 6.53 2.09, 6.69 2.7 C6.85 3.3, 6.94 3.74, 6.62 4.21 C6.3 4.69, 5.41 5.27, 4.76 5.53 C4.11 5.79, 3.44 5.88, 2.72 5.79 C1.99 5.7, 0.82 5.5, 0.42 4.99 C0.03 4.48, 0.28 3.39, 0.35 2.73 C0.43 2.06, 0.33 1.48, 0.88 1 C1.43 0.52, 3.27 -0.01, 3.64 -0.17 C4.01 -0.33, 3.09 -0.07, 3.1 0.05 M3.59 -0.44 C4.23 -0.43, 4.65 0.04, 5.26 0.54 C5.88 1.05, 6.97 1.91, 7.25 2.59 C7.54 3.28, 7.41 4.04, 6.98 4.65 C6.54 5.26, 5.52 6.01, 4.66 6.26 C3.81 6.51, 2.61 6.5, 1.85 6.17 C1.09 5.83, 0.39 4.83, 0.08 4.24 C-0.22 3.64, -0.15 3.14, 0.03 2.59 C0.21 2.05, 0.62 1.33, 1.16 0.97 C1.71 0.6, 2.87 0.59, 3.3 0.39 C3.73 0.19, 3.77 -0.16, 3.74 -0.23" stroke="#343a40" stroke-width="2" fill="none"></path></g><g stroke-opacity="0.8" fill-opacity="0.8" stroke-linecap="round" transform="translate(949.6896186665513 539.9347715391939) rotate(0 3.481567740579976 3.0463717730074222)"><path d="M2.92 -0.11 C3.57 -0.27, 4.49 0.02, 5.15 0.35 C5.82 0.67, 6.69 1.2, 6.91 1.84 C7.14 2.48, 6.81 3.54, 6.49 4.19 C6.17 4.84, 5.62 5.45, 5 5.74 C4.37 6.04, 3.41 6.11, 2.74 5.95 C2.06 5.78, 1.46 5.28, 0.95 4.75 C0.45 4.23, -0.27 3.44, -0.28 2.81 C-0.28 2.17, 0.35 1.44, 0.91 0.95 C1.47 0.47, 2.79 0.08, 3.11 -0.1 C3.42 -0.28, 2.8 -0.23, 2.8 -0.12 M3.94 0.03 C4.77 0.03, 5.84 0.49, 6.32 1 C6.8 1.5, 6.82 2.52, 6.82 3.06 C6.82 3.59, 6.72 3.79, 6.32 4.2 C5.92 4.61, 5.15 5.17, 4.43 5.5 C3.71 5.82, 2.59 6.25, 1.98 6.15 C1.37 6.05, 1.15 5.49, 0.77 4.89 C0.38 4.29, -0.44 3.22, -0.35 2.56 C-0.25 1.89, 0.63 1.37, 1.35 0.9 C2.07 0.43, 3.66 -0.1, 3.98 -0.26 C4.29 -0.41, 3.36 -0.13, 3.26 -0.02" stroke="none" stroke-width="0" fill="#e9ecef"></path><path d="M3.12 -0.09 C3.79 -0.21, 4.57 -0.14, 5.14 0.27 C5.71 0.67, 6.29 1.65, 6.54 2.34 C6.8 3.04, 6.93 3.93, 6.66 4.45 C6.39 4.96, 5.6 5.18, 4.93 5.44 C4.27 5.7, 3.37 6.13, 2.65 6.01 C1.93 5.89, 1.1 5.24, 0.63 4.71 C0.16 4.18, -0.22 3.41, -0.17 2.84 C-0.12 2.27, 0.35 1.73, 0.93 1.27 C1.52 0.81, 3.01 0.25, 3.34 0.09 C3.67 -0.07, 3.01 0.25, 2.92 0.3 M2.77 0.25 C3.56 0.05, 4.86 -0.14, 5.53 0.21 C6.21 0.57, 6.6 1.67, 6.83 2.4 C7.07 3.12, 7.27 4.06, 6.96 4.55 C6.65 5.04, 5.74 5.03, 4.95 5.35 C4.15 5.66, 2.98 6.52, 2.19 6.45 C1.39 6.39, 0.6 5.53, 0.18 4.96 C-0.24 4.39, -0.53 3.74, -0.34 3.04 C-0.14 2.35, 0.73 1.24, 1.36 0.8 C1.98 0.37, 3.05 0.49, 3.41 0.44 C3.76 0.39, 3.6 0.46, 3.48 0.5" stroke="#343a40" stroke-width="2" fill="none"></path></g><g stroke-opacity="0.8" fill-opacity="0.8" stroke-linecap="round" transform="translate(955.6896186665513 550.9347715391939) rotate(0 3.481567740579976 3.0463717730074222)"><path d="M3.55 -0.06 C4.32 -0.15, 5.52 0.08, 6.04 0.54 C6.55 0.99, 6.53 2.01, 6.62 2.69 C6.71 3.36, 6.93 4.02, 6.58 4.58 C6.24 5.13, 5.36 5.84, 4.55 6 C3.74 6.17, 2.39 5.79, 1.74 5.57 C1.09 5.35, 0.95 5.23, 0.66 4.68 C0.38 4.13, -0.1 2.9, 0.04 2.25 C0.17 1.61, 0.88 1.17, 1.48 0.81 C2.07 0.45, 3.22 0.18, 3.61 0.1 C4 0.01, 3.77 0.27, 3.8 0.29 M4.16 0.45 C4.9 0.38, 5.54 0.06, 6.04 0.42 C6.54 0.77, 7.17 1.78, 7.18 2.6 C7.19 3.41, 6.63 4.72, 6.11 5.31 C5.58 5.91, 4.66 6.12, 4.05 6.15 C3.43 6.18, 3.01 5.78, 2.41 5.52 C1.82 5.26, 0.8 5.12, 0.47 4.58 C0.15 4.05, 0.32 2.94, 0.45 2.32 C0.58 1.69, 0.65 1.21, 1.25 0.85 C1.85 0.49, 3.67 0.22, 4.05 0.16 C4.43 0.09, 3.61 0.49, 3.54 0.45" stroke="none" stroke-width="0" fill="#e9ecef"></path><path d="M3.01 -0.22 C3.73 -0.35, 4.91 0.02, 5.56 0.43 C6.21 0.84, 6.72 1.56, 6.88 2.25 C7.04 2.94, 6.89 4.02, 6.52 4.57 C6.16 5.12, 5.4 5.31, 4.7 5.55 C4.01 5.79, 3.05 6.13, 2.35 6.02 C1.66 5.9, 0.92 5.45, 0.51 4.86 C0.1 4.27, -0.17 3.13, -0.11 2.47 C-0.06 1.81, 0.25 1.28, 0.86 0.89 C1.46 0.49, 3.13 0.22, 3.51 0.09 C3.9 -0.03, 3.17 0.11, 3.17 0.15 M4.45 -0.06 C5.05 0.01, 5.3 0.48, 5.64 0.96 C5.98 1.45, 6.37 2.11, 6.51 2.84 C6.65 3.57, 6.79 4.89, 6.47 5.35 C6.14 5.81, 5.32 5.55, 4.57 5.61 C3.81 5.67, 2.62 5.88, 1.95 5.69 C1.27 5.5, 0.83 5.14, 0.49 4.46 C0.16 3.79, -0.25 2.38, -0.06 1.67 C0.12 0.96, 0.92 0.52, 1.62 0.22 C2.31 -0.07, 3.61 -0.01, 4.09 -0.11 C4.57 -0.21, 4.48 -0.52, 4.48 -0.39" stroke="#343a40" stroke-width="2" fill="none"></path></g><g stroke-opacity="0.8" fill-opacity="0.8" stroke-linecap="round" transform="translate(967.6896186665513 599.9347715391939) rotate(0 3.481567740579976 3.0463717730074222)"><path d="M3.49 0.02 C4.26 0.02, 5.43 0.67, 6.01 1.05 C6.59 1.42, 6.87 1.68, 6.97 2.25 C7.07 2.83, 7.03 3.82, 6.61 4.48 C6.19 5.15, 5.23 6.01, 4.46 6.26 C3.7 6.51, 2.64 6.31, 2.02 5.99 C1.39 5.67, 1.02 4.89, 0.72 4.33 C0.41 3.77, 0.04 3.24, 0.18 2.63 C0.31 2.03, 0.97 1.13, 1.52 0.73 C2.07 0.32, 3.07 0.31, 3.47 0.21 C3.86 0.12, 3.88 0.1, 3.87 0.16 M3.32 0.43 C4.09 0.38, 5.11 0.49, 5.63 0.82 C6.15 1.14, 6.33 1.83, 6.47 2.39 C6.6 2.95, 6.7 3.59, 6.44 4.19 C6.17 4.79, 5.63 5.71, 4.88 5.98 C4.12 6.25, 2.61 5.99, 1.93 5.82 C1.25 5.66, 1.06 5.44, 0.8 4.98 C0.55 4.51, 0.28 3.66, 0.41 3.04 C0.53 2.43, 1.12 1.75, 1.54 1.29 C1.97 0.83, 2.73 0.58, 2.97 0.31 C3.22 0.03, 3.01 -0.39, 3.01 -0.35" stroke="none" stroke-width="0" fill="#e9ecef"></path><path d="M3.96 -0.06 C4.72 -0.1, 5.8 0.39, 6.25 0.86 C6.69 1.33, 6.67 2.12, 6.63 2.76 C6.59 3.4, 6.35 4.14, 6 4.72 C5.65 5.3, 5.15 6.12, 4.53 6.25 C3.91 6.38, 2.94 5.83, 2.26 5.5 C1.57 5.18, 0.74 4.8, 0.42 4.29 C0.09 3.78, 0.16 3.11, 0.31 2.44 C0.47 1.78, 0.77 0.71, 1.35 0.28 C1.94 -0.15, 3.4 -0.07, 3.84 -0.11 C4.27 -0.16, 3.92 -0.03, 3.97 -0.01 M3.06 0.22 C3.64 0.33, 4.8 0.81, 5.4 1.18 C5.99 1.56, 6.43 1.99, 6.64 2.48 C6.84 2.97, 7.07 3.57, 6.65 4.13 C6.23 4.69, 4.79 5.6, 4.11 5.85 C3.43 6.09, 3.15 5.83, 2.56 5.61 C1.98 5.39, 1.11 5.14, 0.62 4.55 C0.12 3.96, -0.6 2.64, -0.4 2.07 C-0.21 1.5, 1.14 1.49, 1.78 1.14 C2.42 0.78, 3.14 0.06, 3.45 -0.06 C3.75 -0.18, 3.62 0.34, 3.6 0.42" stroke="#343a40" stroke-width="2" fill="none"></path></g><g stroke-opacity="0.8" fill-opacity="0.8" stroke-linecap="round" transform="translate(957.6896186665513 654.9347715391939) rotate(0 3.481567740579976 3.0463717730074222)"><path d="M3.71 0.23 C4.33 0.18, 5.34 0.25, 5.84 0.72 C6.33 1.2, 6.67 2.4, 6.69 3.09 C6.72 3.78, 6.38 4.35, 6 4.85 C5.62 5.35, 5.11 5.96, 4.41 6.08 C3.71 6.2, 2.5 5.84, 1.79 5.57 C1.09 5.3, 0.42 5.07, 0.19 4.47 C-0.04 3.87, 0.14 2.66, 0.41 1.99 C0.68 1.32, 1.2 0.79, 1.8 0.44 C2.4 0.1, 3.59 -0.07, 4.03 -0.1 C4.48 -0.13, 4.47 0.21, 4.46 0.26 M3.58 0.39 C4.34 0.41, 5.48 0.35, 5.97 0.67 C6.45 0.99, 6.49 1.66, 6.49 2.33 C6.49 2.99, 6.26 4.11, 5.96 4.66 C5.67 5.2, 5.45 5.41, 4.73 5.61 C4.01 5.81, 2.38 6.1, 1.64 5.88 C0.91 5.66, 0.48 4.87, 0.29 4.31 C0.11 3.74, 0.29 3.11, 0.54 2.5 C0.79 1.89, 1.21 1.11, 1.8 0.64 C2.39 0.18, 3.76 -0.25, 4.06 -0.29 C4.36 -0.32, 3.73 0.34, 3.6 0.44" stroke="none" stroke-width="0" fill="#e9ecef"></path><path d="M2.97 -0.02 C3.62 -0.15, 4.78 0.35, 5.39 0.72 C6 1.1, 6.42 1.61, 6.63 2.22 C6.85 2.84, 6.93 3.87, 6.68 4.44 C6.43 5, 5.75 5.38, 5.12 5.63 C4.5 5.88, 3.64 6.03, 2.91 5.95 C2.18 5.86, 1.17 5.62, 0.74 5.12 C0.3 4.62, 0.32 3.62, 0.29 2.95 C0.27 2.29, 0.15 1.65, 0.59 1.13 C1.03 0.62, 2.46 0.09, 2.94 -0.12 C3.42 -0.33, 3.41 -0.25, 3.46 -0.13 M3.49 0.1 C4.12 0.01, 4.61 0.48, 5.21 0.86 C5.8 1.24, 6.88 1.75, 7.07 2.39 C7.27 3.03, 6.75 4.19, 6.37 4.7 C6 5.21, 5.45 5.23, 4.85 5.44 C4.24 5.66, 3.37 6.08, 2.74 5.97 C2.11 5.87, 1.49 5.42, 1.07 4.82 C0.64 4.22, 0.2 3.05, 0.19 2.38 C0.18 1.7, 0.55 1.16, 1 0.78 C1.45 0.39, 2.51 0.29, 2.89 0.09 C3.27 -0.11, 3.26 -0.5, 3.29 -0.42" stroke="#343a40" stroke-width="2" fill="none"></path></g><g stroke-opacity="0.8" fill-opacity="0.8" stroke-linecap="round" transform="translate(955.6896186665513 659.9347715391939) rotate(0 3.481567740579976 3.0463717730074222)"><path d="M2.66 0.17 C3.37 0.06, 4.74 0.2, 5.45 0.51 C6.16 0.82, 6.75 1.42, 6.94 2.02 C7.12 2.62, 6.83 3.49, 6.56 4.09 C6.29 4.68, 5.94 5.25, 5.3 5.58 C4.67 5.91, 3.49 6.13, 2.74 6.07 C1.99 6, 1.2 5.73, 0.79 5.22 C0.37 4.7, 0.19 3.67, 0.24 3 C0.29 2.33, 0.66 1.75, 1.09 1.2 C1.51 0.65, 2.41 -0.13, 2.79 -0.29 C3.18 -0.45, 3.37 0.16, 3.39 0.24 M3.73 0.02 C4.48 -0.01, 5.51 0.14, 6.11 0.58 C6.7 1.02, 7.18 2.02, 7.29 2.63 C7.4 3.23, 7.13 3.73, 6.75 4.21 C6.38 4.69, 5.77 5.23, 5.05 5.51 C4.33 5.79, 3.18 6.09, 2.43 5.88 C1.68 5.68, 1.01 4.79, 0.54 4.29 C0.06 3.8, -0.51 3.47, -0.43 2.92 C-0.36 2.37, 0.4 1.49, 0.99 1.01 C1.57 0.52, 2.73 0.22, 3.07 0.01 C3.4 -0.21, 2.88 -0.37, 3.01 -0.29" stroke="none" stroke-width="0" fill="#e9ecef"></path><path d="M3.34 -0.19 C4.06 -0.21, 5.02 0.54, 5.63 0.96 C6.23 1.39, 6.87 1.84, 6.96 2.39 C7.06 2.95, 6.63 3.73, 6.2 4.3 C5.77 4.88, 5.03 5.62, 4.4 5.85 C3.78 6.08, 3.18 5.88, 2.48 5.67 C1.77 5.46, 0.59 5.14, 0.18 4.6 C-0.23 4.07, -0.22 3.09, 0.01 2.47 C0.23 1.84, 0.89 1.24, 1.53 0.83 C2.17 0.43, 3.43 0.2, 3.83 0.04 C4.23 -0.12, 3.97 -0.21, 3.91 -0.13 M3.37 0.26 C4.02 0.11, 4.5 -0.39, 5.1 0 C5.69 0.38, 6.72 1.88, 6.94 2.57 C7.15 3.26, 6.7 3.59, 6.41 4.15 C6.11 4.7, 5.8 5.58, 5.18 5.89 C4.56 6.21, 3.41 6.14, 2.7 6.05 C2 5.96, 1.47 5.9, 0.95 5.35 C0.44 4.8, -0.36 3.43, -0.4 2.72 C-0.45 2.02, 0.09 1.63, 0.67 1.13 C1.25 0.64, 2.76 -0.1, 3.08 -0.23 C3.4 -0.37, 2.63 0.19, 2.59 0.32" stroke="#343a40" stroke-width="2" fill="none"></path></g><g stroke-opacity="0.8" fill-opacity="0.8" stroke-linecap="round" transform="translate(889.6896186665513 686.9347715391939) rotate(0 3.481567740579976 3.0463717730074222)"><path d="M3.75 0 C4.44 0.05, 5.71 0.45, 6.26 0.96 C6.8 1.47, 7.03 2.41, 7.03 3.07 C7.03 3.73, 6.71 4.36, 6.27 4.9 C5.84 5.44, 5.17 6.14, 4.41 6.3 C3.64 6.47, 2.34 6.27, 1.68 5.89 C1.02 5.51, 0.77 4.7, 0.47 4.01 C0.17 3.33, -0.28 2.43, -0.12 1.78 C0.05 1.13, 0.83 0.47, 1.47 0.12 C2.12 -0.22, 3.27 -0.23, 3.74 -0.28 C4.2 -0.33, 4.18 -0.32, 4.26 -0.2 M3.73 0.04 C4.39 -0.01, 5.2 0.3, 5.82 0.84 C6.45 1.37, 7.44 2.48, 7.46 3.23 C7.48 3.97, 6.49 4.87, 5.94 5.29 C5.39 5.71, 4.89 5.62, 4.16 5.75 C3.43 5.88, 2.21 6.39, 1.57 6.06 C0.94 5.73, 0.61 4.42, 0.33 3.77 C0.06 3.11, -0.26 2.6, -0.1 2.11 C0.06 1.61, 0.58 1.1, 1.3 0.78 C2.02 0.45, 3.79 0.26, 4.22 0.14 C4.64 0.01, 3.89 -0.01, 3.85 0.04" stroke="none" stroke-width="0" fill="#e9ecef"></path><path d="M3.5 -0.23 C4.3 -0.2, 5.71 0.52, 6.23 1 C6.75 1.47, 6.58 1.95, 6.62 2.63 C6.66 3.31, 6.83 4.52, 6.48 5.07 C6.14 5.61, 5.28 5.73, 4.56 5.9 C3.83 6.06, 2.88 6.33, 2.14 6.04 C1.4 5.74, 0.44 4.76, 0.11 4.11 C-0.23 3.46, -0.14 2.72, 0.13 2.13 C0.41 1.55, 1.2 1, 1.76 0.61 C2.32 0.22, 3.09 -0.09, 3.49 -0.19 C3.89 -0.29, 4.15 -0.13, 4.16 0.01 M4.04 0 C4.75 -0.04, 5.35 0.82, 5.89 1.17 C6.44 1.53, 7.23 1.6, 7.3 2.14 C7.38 2.68, 6.78 3.75, 6.32 4.43 C5.86 5.1, 5.24 5.88, 4.52 6.19 C3.8 6.51, 2.66 6.55, 2.02 6.32 C1.37 6.09, 1.06 5.46, 0.67 4.82 C0.28 4.19, -0.51 3.18, -0.33 2.5 C-0.15 1.82, 1.15 1.2, 1.74 0.75 C2.33 0.3, 2.9 -0.03, 3.21 -0.21 C3.52 -0.39, 3.63 -0.36, 3.6 -0.32" stroke="#343a40" stroke-width="2" fill="none"></path></g><g stroke-opacity="0.8" fill-opacity="0.8" stroke-linecap="round" transform="translate(824.6896186665513 689.9347715391939) rotate(0 3.481567740579976 3.0463717730074222)"><path d="M3.76 -0.06 C4.43 0.03, 5.56 0.73, 6.08 1.27 C6.6 1.81, 6.88 2.56, 6.88 3.2 C6.88 3.84, 6.5 4.67, 6.08 5.11 C5.65 5.56, 5.01 5.78, 4.34 5.88 C3.66 5.97, 2.72 5.99, 2.02 5.68 C1.31 5.38, 0.42 4.69, 0.12 4.06 C-0.19 3.43, -0.03 2.55, 0.17 1.91 C0.37 1.27, 0.67 0.59, 1.31 0.25 C1.95 -0.1, 3.52 -0.17, 4.02 -0.14 C4.52 -0.12, 4.28 0.31, 4.3 0.42 M3.85 -0.25 C4.6 -0.29, 5.35 0.28, 5.82 0.73 C6.28 1.19, 6.55 1.73, 6.65 2.47 C6.76 3.21, 6.87 4.59, 6.45 5.19 C6.03 5.8, 4.87 6.06, 4.12 6.1 C3.36 6.13, 2.58 5.63, 1.93 5.4 C1.28 5.17, 0.46 5.18, 0.23 4.72 C0.01 4.26, 0.37 3.33, 0.58 2.64 C0.79 1.95, 0.92 1.03, 1.48 0.55 C2.05 0.07, 3.58 -0.06, 3.98 -0.22 C4.38 -0.38, 3.94 -0.46, 3.87 -0.43" stroke="none" stroke-width="0" fill="#e9ecef"></path><path d="M3.78 -0.1 C4.57 -0.03, 5.9 0.63, 6.4 1.17 C6.9 1.72, 6.82 2.57, 6.79 3.16 C6.76 3.75, 6.68 4.21, 6.23 4.73 C5.77 5.24, 4.77 6.12, 4.05 6.25 C3.33 6.38, 2.58 5.82, 1.92 5.48 C1.25 5.14, 0.4 4.74, 0.07 4.22 C-0.27 3.69, -0.37 2.94, -0.08 2.33 C0.2 1.72, 1.1 0.92, 1.77 0.53 C2.44 0.14, 3.55 0.06, 3.95 0 C4.35 -0.05, 4.14 0.18, 4.15 0.2 M2.71 -0.01 C3.4 -0.11, 4.98 -0.2, 5.59 0.2 C6.2 0.61, 6.13 1.77, 6.37 2.43 C6.61 3.08, 7.19 3.61, 7.04 4.15 C6.88 4.69, 6.13 5.34, 5.44 5.69 C4.76 6.03, 3.65 6.29, 2.92 6.21 C2.18 6.13, 1.56 5.72, 1.02 5.2 C0.49 4.68, -0.29 3.77, -0.31 3.09 C-0.33 2.41, 0.31 1.55, 0.9 1.12 C1.5 0.68, 2.91 0.74, 3.26 0.49 C3.6 0.23, 3.03 -0.31, 2.97 -0.41" stroke="#343a40" stroke-width="2" fill="none"></path></g><g stroke-opacity="0.8" fill-opacity="0.8" stroke-linecap="round" transform="translate(756.6896186665513 686.9347715391939) rotate(0 3.481567740579976 3.0463717730074222)"><path d="M3.22 -0.29 C3.94 -0.45, 4.69 0.05, 5.33 0.43 C5.96 0.81, 6.76 1.33, 7.03 1.98 C7.29 2.64, 7.2 3.79, 6.92 4.37 C6.64 4.94, 6.04 5.21, 5.36 5.44 C4.69 5.67, 3.68 5.84, 2.88 5.77 C2.08 5.7, 1.04 5.47, 0.55 5.03 C0.06 4.6, -0.09 3.87, -0.05 3.18 C-0.02 2.48, 0.23 1.37, 0.77 0.88 C1.3 0.38, 2.8 0.37, 3.15 0.21 C3.49 0.05, 2.81 -0.12, 2.85 -0.11 M3.67 0.44 C4.46 0.45, 5.87 0.16, 6.47 0.67 C7.06 1.18, 7.28 2.8, 7.25 3.5 C7.22 4.2, 6.73 4.49, 6.29 4.85 C5.85 5.2, 5.34 5.46, 4.62 5.61 C3.9 5.77, 2.75 6.08, 1.97 5.77 C1.19 5.47, 0.17 4.39, -0.08 3.76 C-0.32 3.14, 0.26 2.52, 0.53 2.02 C0.79 1.53, 0.87 1.08, 1.53 0.8 C2.2 0.52, 4.16 0.53, 4.53 0.35 C4.9 0.17, 3.81 -0.3, 3.77 -0.26" stroke="none" stroke-width="0" fill="#e9ecef"></path><path d="M3.08 -0.19 C3.71 -0.34, 4.64 0.13, 5.31 0.51 C5.97 0.89, 6.8 1.49, 7.07 2.09 C7.34 2.69, 7.24 3.47, 6.93 4.11 C6.63 4.74, 5.97 5.56, 5.24 5.9 C4.5 6.25, 3.3 6.38, 2.53 6.18 C1.77 5.99, 1.08 5.28, 0.64 4.73 C0.2 4.18, -0.14 3.55, -0.12 2.87 C-0.1 2.19, 0.25 1.1, 0.75 0.63 C1.26 0.15, 2.53 0.07, 2.9 0.02 C3.27 -0.03, 2.89 0.25, 2.98 0.33 M3.87 0.21 C4.51 0.26, 5.17 0.47, 5.67 0.85 C6.18 1.23, 6.79 1.82, 6.87 2.48 C6.95 3.14, 6.48 4.3, 6.15 4.82 C5.82 5.34, 5.56 5.46, 4.9 5.59 C4.23 5.72, 3.01 5.84, 2.17 5.61 C1.34 5.38, 0.18 4.67, -0.11 4.2 C-0.41 3.73, 0.08 3.36, 0.39 2.77 C0.7 2.18, 1.19 1.07, 1.74 0.67 C2.29 0.26, 3.4 0.4, 3.7 0.34 C3.99 0.27, 3.61 0.31, 3.53 0.29" stroke="#343a40" stroke-width="2" fill="none"></path></g><g stroke-opacity="0.8" fill-opacity="0.8" stroke-linecap="round" transform="translate(685.6896186665513 679.9347715391939) rotate(0 3.481567740579976 3.0463717730074222)"><path d="M4.24 0.05 C4.92 0.12, 5.74 0.89, 6.24 1.35 C6.74 1.82, 7.27 2.23, 7.24 2.83 C7.2 3.42, 6.58 4.42, 6.02 4.94 C5.47 5.46, 4.64 5.82, 3.89 5.95 C3.14 6.09, 2.06 6.1, 1.5 5.74 C0.94 5.39, 0.74 4.44, 0.53 3.83 C0.32 3.21, 0.01 2.58, 0.22 2.05 C0.42 1.51, 1.11 1, 1.76 0.64 C2.42 0.28, 3.75 0.01, 4.15 -0.11 C4.56 -0.23, 4.16 -0.11, 4.19 -0.09 M3.92 0.14 C4.69 0.12, 5.45 0.76, 5.89 1.14 C6.32 1.51, 6.46 1.86, 6.53 2.39 C6.6 2.91, 6.74 3.73, 6.31 4.31 C5.88 4.89, 4.68 5.65, 3.95 5.87 C3.22 6.09, 2.55 5.92, 1.94 5.64 C1.33 5.35, 0.51 4.68, 0.29 4.16 C0.06 3.63, 0.33 3.18, 0.58 2.5 C0.84 1.82, 1.25 0.53, 1.81 0.07 C2.37 -0.39, 3.54 -0.22, 3.93 -0.26 C4.33 -0.31, 4.2 -0.25, 4.17 -0.21" stroke="none" stroke-width="0" fill="#e9ecef"></path><path d="M3.56 0.17 C4.2 0.12, 5.16 0.34, 5.75 0.78 C6.34 1.21, 6.95 2.14, 7.09 2.8 C7.22 3.45, 7.03 4.16, 6.55 4.7 C6.06 5.25, 4.93 5.95, 4.19 6.08 C3.46 6.22, 2.81 5.76, 2.13 5.51 C1.45 5.25, 0.44 5.06, 0.11 4.56 C-0.22 4.06, -0.09 3.2, 0.13 2.51 C0.35 1.83, 0.85 0.84, 1.44 0.47 C2.04 0.1, 3.22 0.4, 3.68 0.29 C4.14 0.19, 4.15 -0.23, 4.21 -0.17 M3.18 0.19 C3.93 0.04, 5.32 0.03, 5.89 0.49 C6.45 0.95, 6.48 2.29, 6.57 2.96 C6.66 3.63, 6.69 3.92, 6.41 4.5 C6.14 5.08, 5.58 6.25, 4.92 6.43 C4.27 6.62, 3.29 5.89, 2.48 5.61 C1.67 5.33, 0.41 5.35, 0.04 4.77 C-0.33 4.19, 0.06 2.89, 0.27 2.14 C0.48 1.39, 0.8 0.59, 1.31 0.25 C1.81 -0.1, 2.91 0.1, 3.31 0.06 C3.7 0.02, 3.58 -0.1, 3.68 0.01" stroke="#343a40" stroke-width="2" fill="none"></path></g><g stroke-opacity="0.8" fill-opacity="0.8" stroke-linecap="round" transform="translate(614.6896186665513 672.9347715391939) rotate(0 3.481567740579976 3.0463717730074222)"><path d="M4.25 0.18 C5 0.29, 5.83 0.63, 6.31 1.09 C6.8 1.55, 7.22 2.3, 7.16 2.95 C7.11 3.61, 6.5 4.46, 5.96 5.02 C5.43 5.58, 4.6 6.18, 3.95 6.29 C3.3 6.39, 2.63 5.99, 2.06 5.65 C1.5 5.3, 0.86 4.77, 0.56 4.22 C0.26 3.68, 0.09 2.95, 0.29 2.37 C0.48 1.79, 1.09 1.09, 1.74 0.74 C2.4 0.38, 3.85 0.34, 4.2 0.25 C4.56 0.15, 3.95 0.14, 3.87 0.19 M4.07 -0.05 C4.88 0.04, 5.79 0.51, 6.25 1.07 C6.72 1.62, 6.81 2.62, 6.86 3.29 C6.9 3.96, 6.96 4.59, 6.51 5.11 C6.06 5.64, 4.91 6.35, 4.17 6.45 C3.44 6.55, 2.79 6.09, 2.08 5.72 C1.36 5.34, 0.18 4.88, -0.12 4.21 C-0.42 3.54, 0.06 2.36, 0.29 1.68 C0.53 1, 0.63 0.42, 1.3 0.15 C1.96 -0.12, 3.85 0.07, 4.27 0.09 C4.68 0.11, 3.86 0.24, 3.76 0.27" stroke="none" stroke-width="0" fill="#e9ecef"></path><path d="M3.8 0.22 C4.46 0.16, 5.2 0.44, 5.77 0.88 C6.34 1.31, 7.14 2.24, 7.23 2.83 C7.31 3.43, 6.74 3.97, 6.31 4.44 C5.87 4.91, 5.3 5.47, 4.6 5.67 C3.91 5.86, 2.85 5.74, 2.16 5.6 C1.47 5.46, 0.87 5.35, 0.47 4.83 C0.07 4.31, -0.38 3.18, -0.25 2.5 C-0.12 1.82, 0.59 1.17, 1.27 0.76 C1.95 0.35, 3.46 0.16, 3.85 0.05 C4.24 -0.06, 3.67 -0.01, 3.6 0.09 M3.38 0.17 C4.06 0.09, 4.8 0.14, 5.41 0.38 C6.01 0.63, 6.87 1.02, 7.02 1.64 C7.18 2.27, 6.73 3.52, 6.33 4.12 C5.94 4.73, 5.28 4.97, 4.68 5.28 C4.07 5.59, 3.37 6.03, 2.69 5.97 C2.01 5.91, 1.08 5.34, 0.6 4.92 C0.13 4.5, -0.26 4.04, -0.18 3.45 C-0.09 2.86, 0.66 1.91, 1.1 1.37 C1.54 0.82, 2.2 0.33, 2.46 0.18 C2.72 0.04, 2.64 0.46, 2.68 0.48" stroke="#343a40" stroke-width="2" fill="none"></path></g><g stroke-opacity="0.8" fill-opacity="0.8" stroke-linecap="round" transform="translate(545.6896186665513 665.9347715391939) rotate(0 3.481567740579976 3.0463717730074222)"><path d="M3.84 -0.07 C4.55 -0.02, 5.41 0.24, 5.96 0.75 C6.52 1.26, 7.12 2.32, 7.17 2.97 C7.23 3.63, 6.78 4.14, 6.29 4.69 C5.81 5.24, 4.97 6.07, 4.26 6.28 C3.54 6.49, 2.64 6.32, 2.02 5.95 C1.39 5.58, 0.81 4.7, 0.52 4.07 C0.23 3.44, 0.13 2.85, 0.27 2.2 C0.41 1.54, 0.7 0.52, 1.36 0.16 C2.03 -0.19, 3.79 0.03, 4.28 0.07 C4.78 0.11, 4.41 0.35, 4.33 0.4 M4.27 -0.04 C4.99 0.04, 5.23 0.31, 5.69 0.79 C6.16 1.26, 6.9 2.06, 7.06 2.82 C7.21 3.58, 7.1 4.86, 6.65 5.35 C6.2 5.83, 5.2 5.63, 4.35 5.71 C3.51 5.79, 2.22 6.1, 1.57 5.82 C0.91 5.55, 0.62 4.65, 0.44 4.05 C0.26 3.46, 0.24 2.75, 0.47 2.23 C0.7 1.7, 1.16 1.27, 1.82 0.9 C2.48 0.54, 4.09 0.14, 4.44 0.03 C4.8 -0.07, 4.07 0.26, 3.96 0.26" stroke="none" stroke-width="0" fill="#e9ecef"></path><path d="M3.94 -0.25 C4.69 -0.15, 5.76 0.56, 6.24 1.13 C6.73 1.69, 6.84 2.49, 6.86 3.13 C6.87 3.76, 6.71 4.45, 6.33 4.95 C5.95 5.45, 5.27 5.95, 4.58 6.12 C3.9 6.29, 2.91 6.33, 2.23 6 C1.55 5.67, 0.85 4.8, 0.52 4.14 C0.18 3.48, 0.02 2.59, 0.22 2.03 C0.41 1.47, 1.12 1.15, 1.68 0.8 C2.25 0.45, 3.23 0.05, 3.63 -0.08 C4.03 -0.2, 4.03 -0.03, 4.09 0.05 M3.56 -0.04 C4.28 -0.11, 5.5 0.52, 6.05 0.86 C6.6 1.21, 6.78 1.41, 6.86 2.04 C6.95 2.66, 6.99 4.02, 6.57 4.6 C6.15 5.19, 5.1 5.27, 4.35 5.54 C3.6 5.82, 2.71 6.43, 2.09 6.26 C1.46 6.08, 0.9 5.12, 0.59 4.48 C0.28 3.84, 0.13 2.98, 0.22 2.4 C0.31 1.83, 0.62 1.46, 1.14 1.01 C1.66 0.56, 2.98 -0.11, 3.32 -0.27 C3.66 -0.43, 3.23 -0.04, 3.17 0.07" stroke="#343a40" stroke-width="2" fill="none"></path></g><g stroke-opacity="0.8" fill-opacity="0.8" stroke-linecap="round" transform="translate(509.68961866655127 659.9347715391939) rotate(0 3.481567740579976 3.0463717730074222)"><path d="M3.91 -0.02 C4.57 -0.01, 5.24 0.51, 5.7 1.02 C6.16 1.53, 6.62 2.44, 6.67 3.06 C6.72 3.67, 6.39 4.19, 5.98 4.71 C5.56 5.23, 4.87 6.01, 4.19 6.18 C3.5 6.34, 2.52 6.02, 1.87 5.7 C1.22 5.38, 0.56 4.84, 0.29 4.27 C0.03 3.71, 0.06 2.95, 0.3 2.3 C0.53 1.64, 1.07 0.7, 1.71 0.33 C2.35 -0.04, 3.75 0.1, 4.14 0.07 C4.52 0.04, 4.11 0.07, 4.03 0.14 M3.89 0.18 C4.73 0.23, 5.67 0.65, 6.24 1.08 C6.82 1.5, 7.27 2.09, 7.36 2.75 C7.45 3.41, 7.23 4.47, 6.78 5.03 C6.32 5.59, 5.4 5.93, 4.61 6.12 C3.83 6.3, 2.82 6.48, 2.06 6.13 C1.31 5.79, 0.35 4.6, 0.09 4.05 C-0.16 3.49, 0.25 3.37, 0.53 2.81 C0.81 2.24, 1.3 1.16, 1.77 0.66 C2.25 0.17, 3.14 -0.06, 3.37 -0.15 C3.6 -0.25, 3.2 0.07, 3.17 0.1" stroke="none" stroke-width="0" fill="#e9ecef"></path><path d="M3.94 0.34 C4.55 0.38, 5.22 0.34, 5.75 0.76 C6.28 1.18, 7.09 2.21, 7.12 2.88 C7.16 3.54, 6.43 4.23, 5.96 4.73 C5.48 5.24, 4.91 5.69, 4.28 5.9 C3.65 6.11, 2.82 6.32, 2.17 6 C1.52 5.68, 0.76 4.61, 0.4 3.98 C0.04 3.35, -0.21 2.79, 0.02 2.19 C0.24 1.6, 1.06 0.76, 1.76 0.42 C2.46 0.08, 3.82 0.15, 4.22 0.16 C4.63 0.16, 4.19 0.4, 4.2 0.43 M3.12 0.06 C3.85 0, 5.39 0.08, 5.96 0.45 C6.52 0.82, 6.41 1.61, 6.52 2.25 C6.63 2.9, 6.94 3.71, 6.61 4.3 C6.27 4.9, 5.18 5.54, 4.51 5.81 C3.83 6.08, 3.17 6.11, 2.56 5.93 C1.96 5.76, 1.23 5.34, 0.87 4.74 C0.5 4.15, 0.24 3.1, 0.35 2.35 C0.46 1.61, 0.92 0.65, 1.5 0.28 C2.09 -0.09, 3.59 0.14, 3.86 0.13 C4.13 0.12, 3.26 0.17, 3.13 0.24" stroke="#343a40" stroke-width="2" fill="none"></path></g><g stroke-opacity="0.8" fill-opacity="0.8" stroke-linecap="round" transform="translate(472.68961866655127 653.9347715391939) rotate(0 3.481567740579976 3.0463717730074222)"><path d="M3.48 -0.26 C4.24 -0.25, 5.54 0.61, 6.16 1.11 C6.78 1.6, 7.2 2.12, 7.21 2.71 C7.22 3.29, 6.72 4.06, 6.21 4.61 C5.71 5.15, 4.91 5.81, 4.18 5.99 C3.44 6.17, 2.41 5.98, 1.79 5.67 C1.17 5.37, 0.73 4.71, 0.45 4.16 C0.17 3.6, -0.1 2.99, 0.1 2.36 C0.3 1.72, 1 0.8, 1.65 0.37 C2.3 -0.05, 3.61 -0.07, 4.01 -0.18 C4.4 -0.28, 4.05 -0.28, 4.02 -0.23 M3.08 0.06 C3.92 -0.06, 5.45 -0.16, 6.01 0.19 C6.57 0.55, 6.4 1.46, 6.45 2.19 C6.49 2.92, 6.56 3.97, 6.28 4.55 C6 5.13, 5.46 5.44, 4.75 5.64 C4.04 5.85, 2.66 5.95, 2.02 5.78 C1.38 5.6, 1.24 5.11, 0.92 4.6 C0.6 4.1, 0.13 3.41, 0.08 2.75 C0.04 2.09, 0.03 1.15, 0.65 0.65 C1.28 0.14, 3.44 -0.26, 3.83 -0.3 C4.23 -0.34, 3.04 0.25, 3 0.4" stroke="none" stroke-width="0" fill="#e9ecef"></path><path d="M3.63 0.08 C4.35 0, 5.28 0.17, 5.85 0.51 C6.43 0.85, 6.93 1.44, 7.1 2.12 C7.26 2.8, 7.26 3.94, 6.84 4.58 C6.42 5.23, 5.35 5.75, 4.57 6 C3.78 6.25, 2.77 6.38, 2.13 6.11 C1.5 5.83, 1.07 4.93, 0.76 4.35 C0.45 3.77, 0.16 3.22, 0.26 2.63 C0.35 2.04, 0.83 1.31, 1.36 0.82 C1.88 0.33, 3.03 -0.12, 3.4 -0.29 C3.77 -0.47, 3.53 -0.27, 3.57 -0.22 M3.14 -0.11 C3.88 -0.23, 4.87 0.15, 5.53 0.58 C6.19 1.01, 6.88 1.88, 7.1 2.47 C7.32 3.06, 7.17 3.55, 6.86 4.12 C6.55 4.69, 5.94 5.58, 5.24 5.91 C4.54 6.23, 3.48 6.2, 2.65 6.05 C1.82 5.91, 0.69 5.68, 0.27 5.06 C-0.14 4.45, 0.05 3.01, 0.16 2.35 C0.27 1.69, 0.41 1.42, 0.95 1.1 C1.5 0.78, 2.99 0.51, 3.42 0.41 C3.85 0.31, 3.53 0.45, 3.52 0.49" stroke="#343a40" stroke-width="2" fill="none"></path></g><g stroke-opacity="0.8" fill-opacity="0.8" stroke-linecap="round" transform="translate(401.68961866655127 641.9347715391939) rotate(0 3.481567740579976 3.0463717730074222)"><path d="M3.31 0.19 C4.08 0.04, 5.05 0.1, 5.66 0.43 C6.27 0.77, 6.83 1.55, 6.96 2.2 C7.1 2.86, 6.82 3.77, 6.49 4.36 C6.16 4.95, 5.61 5.41, 5 5.74 C4.38 6.06, 3.55 6.49, 2.81 6.3 C2.07 6.11, 1.01 5.11, 0.54 4.58 C0.06 4.06, -0.06 3.79, -0.02 3.14 C0.03 2.48, 0.26 1.13, 0.81 0.66 C1.35 0.19, 2.79 0.43, 3.24 0.3 C3.68 0.17, 3.42 -0.08, 3.47 -0.1 M3.05 0.35 C3.69 0.27, 4.55 0.53, 5.12 0.8 C5.69 1.06, 6.28 1.27, 6.49 1.92 C6.7 2.57, 6.55 4.09, 6.36 4.7 C6.16 5.31, 5.88 5.36, 5.29 5.59 C4.7 5.82, 3.52 6.23, 2.81 6.08 C2.11 5.94, 1.54 5.37, 1.06 4.73 C0.59 4.08, -0.01 2.87, -0.05 2.22 C-0.09 1.57, 0.32 1.19, 0.81 0.82 C1.3 0.46, 2.46 0.12, 2.91 0.03 C3.36 -0.06, 3.36 0.18, 3.5 0.27" stroke="none" stroke-width="0" fill="#e9ecef"></path><path d="M4.01 0.27 C4.73 0.28, 5.78 0.63, 6.29 1.06 C6.8 1.49, 7.05 2.27, 7.07 2.87 C7.09 3.48, 6.94 4.14, 6.42 4.71 C5.9 5.29, 4.67 6.1, 3.96 6.32 C3.24 6.54, 2.76 6.4, 2.15 6.01 C1.54 5.63, 0.63 4.72, 0.29 4.02 C-0.06 3.32, -0.17 2.45, 0.06 1.8 C0.29 1.16, 1.01 0.43, 1.65 0.15 C2.28 -0.13, 3.5 0.12, 3.86 0.11 C4.23 0.11, 3.83 0.05, 3.85 0.13 M3.34 -0.45 C4 -0.57, 4.97 -0.21, 5.53 0.15 C6.09 0.51, 6.53 1.07, 6.7 1.71 C6.87 2.35, 6.83 3.23, 6.56 3.97 C6.29 4.72, 5.83 5.89, 5.1 6.16 C4.38 6.42, 3.01 5.83, 2.23 5.57 C1.46 5.31, 0.83 5.05, 0.48 4.59 C0.12 4.13, 0.04 3.5, 0.09 2.83 C0.13 2.16, 0.25 0.97, 0.72 0.56 C1.19 0.16, 2.52 0.48, 2.91 0.41 C3.29 0.34, 2.96 0.23, 3.02 0.13" stroke="#343a40" stroke-width="2" fill="none"></path></g><g stroke-opacity="0.8" fill-opacity="0.8" stroke-linecap="round" transform="translate(331.68961866655127 628.9347715391939) rotate(0 3.481567740579976 3.0463717730074222)"><path d="M3.81 0.16 C4.48 0.05, 5.11 0.1, 5.62 0.44 C6.13 0.79, 6.77 1.54, 6.87 2.23 C6.97 2.92, 6.53 3.91, 6.21 4.58 C5.9 5.24, 5.6 6.02, 4.97 6.21 C4.34 6.4, 3.17 5.99, 2.42 5.73 C1.67 5.47, 0.89 5.19, 0.46 4.66 C0.03 4.13, -0.34 3.21, -0.17 2.56 C0 1.91, 0.8 1.23, 1.48 0.78 C2.15 0.32, 3.56 -0.12, 3.88 -0.2 C4.2 -0.28, 3.5 0.19, 3.39 0.29 M3.38 -0.06 C4.12 -0.01, 5.78 0.87, 6.32 1.36 C6.87 1.86, 6.63 2.26, 6.65 2.91 C6.66 3.55, 6.77 4.74, 6.4 5.22 C6.02 5.71, 5.09 5.76, 4.39 5.8 C3.69 5.85, 2.87 5.73, 2.2 5.49 C1.52 5.26, 0.71 5, 0.32 4.4 C-0.07 3.81, -0.38 2.65, -0.13 1.93 C0.12 1.2, 1.11 0.37, 1.8 0.03 C2.5 -0.3, 3.63 -0.14, 4.04 -0.07 C4.45 -0.01, 4.25 0.29, 4.29 0.42" stroke="none" stroke-width="0" fill="#e9ecef"></path><path d="M4.01 -0.3 C4.71 -0.22, 5.49 0.81, 5.95 1.3 C6.41 1.8, 6.67 2.04, 6.76 2.67 C6.84 3.3, 6.86 4.48, 6.47 5.07 C6.08 5.67, 5.2 6.1, 4.42 6.24 C3.64 6.37, 2.48 6.25, 1.78 5.88 C1.09 5.52, 0.51 4.67, 0.25 4.05 C-0.01 3.42, 0.01 2.7, 0.23 2.14 C0.44 1.57, 0.88 1.03, 1.55 0.66 C2.23 0.29, 3.91 0.01, 4.27 -0.09 C4.64 -0.19, 3.77 0.03, 3.77 0.07 M3.28 -0.22 C4.04 -0.44, 5.22 -0.1, 5.78 0.29 C6.34 0.67, 6.45 1.48, 6.64 2.09 C6.83 2.7, 7.12 3.43, 6.92 3.96 C6.72 4.5, 6.1 5.01, 5.44 5.29 C4.77 5.57, 3.78 5.74, 2.92 5.64 C2.06 5.54, 0.73 5.05, 0.29 4.67 C-0.15 4.3, 0.22 3.92, 0.28 3.37 C0.34 2.81, 0.17 1.81, 0.65 1.34 C1.13 0.86, 2.75 0.75, 3.15 0.53 C3.55 0.31, 3.14 0.09, 3.05 0.01" stroke="#343a40" stroke-width="2" fill="none"></path></g><g stroke-opacity="0.8" fill-opacity="0.8" stroke-linecap="round" transform="translate(259.68961866655127 614.9347715391939) rotate(0 3.481567740579976 3.0463717730074222)"><path d="M2.93 0.03 C3.73 -0.1, 4.99 -0.16, 5.6 0.17 C6.22 0.5, 6.42 1.39, 6.63 2.01 C6.84 2.63, 7.07 3.27, 6.86 3.87 C6.66 4.46, 6.04 5.27, 5.38 5.59 C4.71 5.91, 3.7 5.85, 2.88 5.78 C2.05 5.7, 0.96 5.66, 0.44 5.15 C-0.08 4.65, -0.35 3.49, -0.23 2.74 C-0.11 2, 0.65 1.17, 1.17 0.69 C1.69 0.22, 2.54 -0.04, 2.88 -0.11 C3.21 -0.18, 3.18 0.24, 3.19 0.27 M3.89 0.1 C4.62 0.23, 5.47 0.79, 5.98 1.18 C6.5 1.57, 6.88 1.89, 6.99 2.46 C7.11 3.03, 7.07 4.03, 6.66 4.61 C6.25 5.19, 5.23 5.71, 4.51 5.94 C3.8 6.17, 3.13 6.24, 2.39 5.99 C1.65 5.73, 0.4 5.06, 0.07 4.42 C-0.25 3.79, 0.26 2.78, 0.44 2.16 C0.63 1.54, 0.7 1.09, 1.16 0.7 C1.63 0.3, 2.89 -0.09, 3.24 -0.23 C3.59 -0.36, 3.11 -0.28, 3.26 -0.11" stroke="none" stroke-width="0" fill="#e9ecef"></path><path d="M3.71 -0.01 C4.34 0.01, 5.24 0.21, 5.78 0.76 C6.32 1.31, 6.83 2.57, 6.95 3.3 C7.07 4.02, 6.99 4.64, 6.5 5.1 C6.01 5.56, 4.76 5.97, 4 6.04 C3.24 6.1, 2.55 5.77, 1.93 5.5 C1.32 5.22, 0.58 4.89, 0.3 4.37 C0.03 3.86, 0.06 3.09, 0.26 2.4 C0.45 1.71, 0.79 0.68, 1.47 0.24 C2.15 -0.21, 3.85 -0.29, 4.32 -0.27 C4.79 -0.25, 4.31 0.21, 4.28 0.34 M3.34 -0.27 C4.05 -0.44, 4.68 0.14, 5.31 0.54 C5.95 0.94, 6.94 1.49, 7.14 2.13 C7.34 2.77, 6.91 3.78, 6.53 4.38 C6.16 4.98, 5.5 5.5, 4.91 5.73 C4.31 5.96, 3.7 5.85, 2.97 5.77 C2.24 5.69, 1.1 5.66, 0.53 5.23 C-0.05 4.8, -0.52 3.81, -0.48 3.19 C-0.44 2.56, 0.13 1.94, 0.75 1.49 C1.37 1.04, 2.83 0.75, 3.26 0.46 C3.69 0.17, 3.31 -0.21, 3.34 -0.23" stroke="#343a40" stroke-width="2" fill="none"></path></g><g stroke-opacity="0.8" fill-opacity="0.8" stroke-linecap="round" transform="translate(208.68961866655127 600.9347715391939) rotate(0 3.481567740579976 3.0463717730074222)"><path d="M2.95 -0.1 C3.68 -0.19, 4.81 -0.05, 5.42 0.34 C6.04 0.74, 6.41 1.58, 6.65 2.27 C6.89 2.95, 7.13 3.88, 6.86 4.43 C6.59 4.97, 5.74 5.26, 5.05 5.54 C4.36 5.83, 3.41 6.29, 2.71 6.15 C2.01 6.01, 1.33 5.23, 0.86 4.71 C0.39 4.2, -0.18 3.75, -0.11 3.07 C-0.04 2.38, 0.72 1.13, 1.27 0.6 C1.82 0.07, 2.9 -0.06, 3.19 -0.12 C3.47 -0.18, 2.96 0.2, 3 0.23 M3.09 0.25 C3.76 0.15, 4.76 -0.08, 5.34 0.23 C5.92 0.55, 6.32 1.51, 6.56 2.11 C6.8 2.72, 7.07 3.31, 6.79 3.86 C6.5 4.42, 5.49 5.11, 4.84 5.42 C4.18 5.73, 3.48 5.76, 2.85 5.71 C2.23 5.65, 1.56 5.54, 1.09 5.08 C0.62 4.63, 0.03 3.7, 0.04 2.98 C0.05 2.26, 0.6 1.27, 1.14 0.75 C1.68 0.23, 2.98 -0.03, 3.27 -0.15 C3.56 -0.27, 2.94 -0.04, 2.86 0.03" stroke="none" stroke-width="0" fill="#e9ecef"></path><path d="M3.2 -0.06 C3.96 0, 5.15 0.59, 5.72 1 C6.29 1.4, 6.5 1.74, 6.62 2.36 C6.73 2.98, 6.78 4.09, 6.4 4.73 C6.02 5.36, 5.06 5.95, 4.35 6.17 C3.64 6.39, 2.83 6.34, 2.14 6.02 C1.45 5.7, 0.52 4.89, 0.21 4.26 C-0.1 3.64, 0.14 2.82, 0.28 2.28 C0.42 1.73, 0.56 1.4, 1.05 0.99 C1.54 0.58, 2.82 -0.02, 3.22 -0.16 C3.62 -0.31, 3.36 0.09, 3.44 0.14 M2.64 0.21 C3.32 0.11, 4.74 0.26, 5.49 0.6 C6.24 0.93, 7 1.57, 7.15 2.22 C7.31 2.88, 6.8 3.93, 6.43 4.53 C6.05 5.13, 5.55 5.52, 4.92 5.82 C4.29 6.12, 3.33 6.52, 2.65 6.31 C1.97 6.11, 1.28 5.1, 0.84 4.58 C0.4 4.06, 0.04 3.86, 0.03 3.22 C0.02 2.57, 0.26 1.31, 0.78 0.7 C1.31 0.09, 2.83 -0.26, 3.18 -0.44 C3.52 -0.62, 2.89 -0.56, 2.85 -0.36" stroke="#343a40" stroke-width="2" fill="none"></path></g><g stroke-opacity="0.8" fill-opacity="0.8" stroke-linecap="round" transform="translate(188.68961866655127 591.9347715391939) rotate(0 3.481567740579976 3.0463717730074222)"><path d="M3.09 -0.22 C3.81 -0.35, 4.94 0.05, 5.53 0.47 C6.11 0.89, 6.48 1.68, 6.6 2.31 C6.73 2.94, 6.57 3.68, 6.27 4.27 C5.96 4.86, 5.37 5.63, 4.77 5.87 C4.18 6.11, 3.44 5.89, 2.7 5.71 C1.96 5.54, 0.81 5.31, 0.34 4.83 C-0.13 4.35, -0.2 3.53, -0.12 2.82 C-0.03 2.11, 0.26 1.05, 0.84 0.57 C1.42 0.1, 2.97 0.08, 3.36 -0.04 C3.75 -0.15, 3.18 -0.18, 3.19 -0.11 M3.47 -0.41 C4.17 -0.5, 5.05 0.28, 5.59 0.71 C6.13 1.15, 6.5 1.56, 6.72 2.2 C6.94 2.84, 7.3 3.92, 6.93 4.55 C6.55 5.18, 5.24 5.74, 4.47 5.97 C3.71 6.21, 2.93 6.25, 2.34 5.97 C1.75 5.68, 1.29 4.93, 0.91 4.26 C0.53 3.59, 0.06 2.52, 0.05 1.94 C0.05 1.35, 0.35 1.1, 0.88 0.76 C1.4 0.41, 2.73 -0.06, 3.22 -0.14 C3.72 -0.22, 3.84 0.23, 3.85 0.31" stroke="none" stroke-width="0" fill="#e9ecef"></path><path d="M3.83 -0.24 C4.44 -0.2, 5.35 0.27, 5.86 0.79 C6.36 1.32, 6.83 2.25, 6.85 2.91 C6.87 3.57, 6.44 4.19, 6 4.75 C5.55 5.31, 4.86 6.08, 4.18 6.26 C3.5 6.43, 2.61 6.15, 1.91 5.82 C1.21 5.5, 0.24 4.88, -0.02 4.3 C-0.29 3.71, 0.08 2.97, 0.34 2.31 C0.61 1.65, 0.92 0.66, 1.59 0.33 C2.25 -0.01, 3.97 0.34, 4.34 0.29 C4.7 0.24, 3.86 0.09, 3.78 0.05 M3.53 0.03 C4.17 0.09, 5.06 0.35, 5.67 0.78 C6.28 1.21, 7.13 2, 7.19 2.62 C7.24 3.24, 6.51 3.91, 6.01 4.49 C5.52 5.08, 4.98 5.94, 4.23 6.14 C3.48 6.35, 2.25 5.96, 1.53 5.71 C0.82 5.46, 0.22 5.13, -0.06 4.63 C-0.35 4.14, -0.47 3.41, -0.16 2.74 C0.15 2.06, 1.09 1.02, 1.78 0.58 C2.47 0.15, 3.68 0.19, 3.99 0.12 C4.3 0.04, 3.71 0.17, 3.64 0.14" stroke="#343a40" stroke-width="2" fill="none"></path></g><g stroke-opacity="0.8" fill-opacity="0.8" stroke-linecap="round" transform="translate(147.68961866655127 540.9347715391939) rotate(0 3.481567740579976 3.0463717730074222)"><path d="M3.61 0.15 C4.38 0.1, 5.38 0.27, 5.93 0.73 C6.49 1.19, 6.91 2.26, 6.96 2.92 C7.01 3.57, 6.63 4.16, 6.24 4.66 C5.86 5.16, 5.3 5.77, 4.64 5.94 C3.97 6.11, 2.95 5.88, 2.25 5.68 C1.56 5.47, 0.82 5.28, 0.45 4.72 C0.08 4.16, -0.11 3.01, 0.05 2.3 C0.2 1.59, 0.77 0.83, 1.37 0.45 C1.97 0.08, 3.24 0.06, 3.66 0.03 C4.09 0.01, 3.88 0.21, 3.93 0.3 M3.46 0.36 C4.22 0.23, 5.73 -0.05, 6.3 0.32 C6.87 0.68, 6.87 1.84, 6.9 2.55 C6.94 3.27, 6.88 4.07, 6.51 4.59 C6.13 5.12, 5.37 5.57, 4.64 5.72 C3.91 5.87, 2.84 5.67, 2.13 5.51 C1.42 5.35, 0.75 5.25, 0.38 4.74 C0.01 4.23, -0.3 3.2, -0.08 2.47 C0.15 1.74, 1.17 0.72, 1.73 0.36 C2.28 -0.01, 3.02 0.36, 3.25 0.3 C3.48 0.23, 3.07 0.01, 3.12 -0.04" stroke="none" stroke-width="0" fill="#e9ecef"></path><path d="M3.17 -0.28 C3.87 -0.3, 4.73 0.12, 5.35 0.61 C5.96 1.1, 6.7 2.06, 6.87 2.66 C7.04 3.27, 6.67 3.73, 6.36 4.24 C6.06 4.74, 5.65 5.46, 5.04 5.69 C4.43 5.93, 3.46 5.81, 2.68 5.64 C1.91 5.47, 0.82 5.19, 0.37 4.66 C-0.08 4.12, -0.1 3.05, -0.01 2.41 C0.08 1.78, 0.36 1.22, 0.92 0.83 C1.49 0.44, 2.99 0.15, 3.37 0.06 C3.76 -0.03, 3.27 0.31, 3.25 0.3 M2.83 0.49 C3.53 0.43, 4.76 0.16, 5.43 0.48 C6.11 0.81, 6.68 1.72, 6.89 2.46 C7.11 3.19, 7.07 4.31, 6.7 4.87 C6.33 5.43, 5.45 5.7, 4.67 5.81 C3.89 5.92, 2.69 5.76, 2.03 5.53 C1.37 5.29, 1.05 4.81, 0.7 4.38 C0.34 3.96, -0.22 3.63, -0.12 3 C-0.02 2.36, 0.75 1.14, 1.31 0.56 C1.87 -0.02, 2.95 -0.43, 3.25 -0.48 C3.55 -0.52, 3.17 0.1, 3.09 0.29" stroke="#343a40" stroke-width="2" fill="none"></path></g><g stroke-opacity="0.8" fill-opacity="0.8" stroke-linecap="round" transform="translate(170.68961866655127 474.9347715391939) rotate(0 3.481567740579976 3.0463717730074222)"><path d="M3.66 -0.31 C4.43 -0.31, 5.42 0.35, 5.92 0.78 C6.43 1.21, 6.63 1.66, 6.7 2.28 C6.76 2.9, 6.65 3.94, 6.3 4.51 C5.96 5.09, 5.26 5.48, 4.62 5.74 C3.98 5.99, 3.07 6.21, 2.44 6.04 C1.81 5.87, 1.23 5.33, 0.83 4.71 C0.44 4.09, 0.04 2.97, 0.06 2.33 C0.07 1.69, 0.35 1.25, 0.91 0.87 C1.47 0.49, 3.06 0.19, 3.43 0.05 C3.8 -0.1, 3.13 0, 3.15 0.01 M3.94 -0.27 C4.54 -0.21, 5.2 0.49, 5.7 1.03 C6.21 1.57, 6.83 2.34, 6.96 2.97 C7.1 3.59, 6.92 4.22, 6.5 4.8 C6.08 5.38, 5.24 6.25, 4.44 6.46 C3.63 6.67, 2.31 6.51, 1.67 6.09 C1.03 5.67, 0.85 4.54, 0.58 3.94 C0.32 3.35, -0.05 3.03, 0.1 2.49 C0.24 1.95, 0.84 1.16, 1.45 0.7 C2.06 0.24, 3.28 -0.21, 3.76 -0.29 C4.25 -0.36, 4.42 0.12, 4.36 0.27" stroke="none" stroke-width="0" fill="#e9ecef"></path><path d="M4.07 0.12 C4.85 0.05, 5.49 0.16, 5.99 0.6 C6.49 1.03, 7 2.02, 7.08 2.73 C7.17 3.44, 6.96 4.32, 6.51 4.87 C6.06 5.41, 5.06 5.88, 4.37 6 C3.67 6.13, 3.01 5.9, 2.33 5.64 C1.66 5.39, 0.7 5.01, 0.33 4.47 C-0.04 3.93, -0.05 3.03, 0.1 2.39 C0.26 1.75, 0.6 1.02, 1.26 0.62 C1.91 0.22, 3.63 0.07, 4.04 -0.02 C4.45 -0.11, 3.8 0.05, 3.72 0.1 M3.98 0.37 C4.68 0.32, 5.32 0.6, 5.85 0.94 C6.38 1.28, 6.98 1.73, 7.14 2.42 C7.3 3.11, 7.33 4.52, 6.83 5.1 C6.34 5.68, 4.95 5.75, 4.17 5.9 C3.4 6.04, 2.82 6.18, 2.19 5.96 C1.56 5.75, 0.78 5.2, 0.38 4.61 C-0.01 4.02, -0.25 3.09, -0.16 2.43 C-0.07 1.77, 0.26 1.09, 0.91 0.65 C1.57 0.22, 3.34 -0.12, 3.78 -0.15 C4.23 -0.19, 3.67 0.44, 3.57 0.46" stroke="#343a40" stroke-width="2" fill="none"></path></g><g stroke-opacity="0.8" fill-opacity="0.8" stroke-linecap="round" transform="translate(188.68961866655127 440.9347715391939) rotate(0 3.481567740579976 3.0463717730074222)"><path d="M2.82 0.19 C3.53 0.11, 5.12 0.44, 5.74 0.73 C6.36 1.03, 6.34 1.37, 6.54 1.98 C6.74 2.6, 7.16 3.84, 6.94 4.43 C6.72 5.03, 6 5.29, 5.24 5.54 C4.47 5.8, 3.13 6.11, 2.35 5.96 C1.56 5.8, 0.87 5.07, 0.52 4.59 C0.17 4.12, 0.18 3.7, 0.23 3.12 C0.28 2.54, 0.33 1.63, 0.8 1.12 C1.28 0.62, 2.62 0.28, 3.08 0.09 C3.54 -0.1, 3.5 -0.07, 3.57 0 M3.54 -0.31 C4.2 -0.31, 4.89 0.35, 5.5 0.93 C6.11 1.52, 7.03 2.52, 7.21 3.2 C7.38 3.88, 7.04 4.61, 6.55 5.01 C6.05 5.42, 5.02 5.53, 4.23 5.62 C3.44 5.72, 2.37 5.75, 1.8 5.58 C1.23 5.41, 1.03 5.09, 0.83 4.61 C0.63 4.12, 0.51 3.39, 0.58 2.67 C0.65 1.95, 0.66 0.7, 1.23 0.27 C1.8 -0.16, 3.55 0.07, 3.99 0.1 C4.42 0.14, 3.87 0.53, 3.84 0.5" stroke="none" stroke-width="0" fill="#e9ecef"></path><path d="M3.11 -0.23 C3.84 -0.39, 5.16 -0.12, 5.78 0.3 C6.39 0.73, 6.71 1.58, 6.8 2.32 C6.9 3.06, 6.75 4.1, 6.37 4.74 C5.99 5.38, 5.16 5.98, 4.53 6.15 C3.9 6.32, 3.28 6.05, 2.59 5.77 C1.91 5.48, 0.85 4.99, 0.43 4.45 C0.01 3.9, -0.03 3.11, 0.06 2.51 C0.16 1.91, 0.41 1.22, 0.98 0.85 C1.55 0.48, 3.06 0.43, 3.48 0.3 C3.9 0.18, 3.58 0.12, 3.51 0.08 M3.2 -0.08 C3.94 -0.16, 5.37 -0.04, 6.05 0.47 C6.74 0.98, 7.27 2.27, 7.31 2.97 C7.35 3.68, 6.81 4.27, 6.3 4.71 C5.78 5.15, 4.91 5.43, 4.22 5.62 C3.54 5.81, 2.83 6.02, 2.2 5.86 C1.57 5.71, 0.83 5.25, 0.46 4.7 C0.09 4.15, -0.23 3.28, 0 2.56 C0.22 1.85, 1.15 0.78, 1.81 0.41 C2.47 0.03, 3.71 0.38, 3.97 0.32 C4.23 0.25, 3.35 0.03, 3.35 0.01" stroke="#343a40" stroke-width="2" fill="none"></path></g><g stroke-opacity="0.8" fill-opacity="0.8" stroke-linecap="round" transform="translate(215.68961866655127 408.9347715391939) rotate(0 3.481567740579976 3.0463717730074222)"><path d="M3.61 -0.19 C4.29 -0.22, 5.52 0.4, 6.09 0.94 C6.66 1.48, 6.96 2.44, 7.02 3.04 C7.08 3.64, 6.85 4, 6.45 4.52 C6.05 5.04, 5.37 5.98, 4.62 6.17 C3.87 6.37, 2.66 6, 1.97 5.71 C1.27 5.42, 0.7 4.94, 0.43 4.41 C0.17 3.87, 0.24 3.13, 0.38 2.5 C0.53 1.86, 0.72 1.01, 1.33 0.58 C1.94 0.15, 3.56 -0.04, 4.03 -0.09 C4.51 -0.14, 4.18 0.23, 4.18 0.29 M3.1 -0.23 C3.93 -0.37, 5.15 0.06, 5.74 0.42 C6.33 0.78, 6.53 1.22, 6.66 1.92 C6.79 2.63, 6.83 4.07, 6.53 4.65 C6.23 5.23, 5.51 5.17, 4.85 5.41 C4.18 5.64, 3.23 6.21, 2.54 6.06 C1.84 5.91, 1.17 5.03, 0.69 4.49 C0.22 3.95, -0.33 3.43, -0.3 2.8 C-0.27 2.18, 0.34 1.14, 0.87 0.73 C1.41 0.32, 2.58 0.48, 2.93 0.34 C3.28 0.19, 2.89 -0.21, 2.96 -0.14" stroke="none" stroke-width="0" fill="#e9ecef"></path><path d="M4.06 -0.14 C4.82 -0.11, 5.7 0.61, 6.15 1.09 C6.6 1.57, 6.69 2.13, 6.76 2.73 C6.83 3.33, 6.94 4.16, 6.57 4.68 C6.2 5.21, 5.33 5.64, 4.54 5.88 C3.75 6.12, 2.5 6.42, 1.82 6.12 C1.14 5.81, 0.71 4.64, 0.46 4.05 C0.2 3.46, 0.09 3.21, 0.29 2.58 C0.5 1.95, 1.13 0.65, 1.68 0.27 C2.23 -0.11, 3.22 0.29, 3.61 0.3 C4.01 0.3, 4.05 0.36, 4.05 0.32 M3.74 0.43 C4.43 0.49, 4.89 0.6, 5.39 0.96 C5.89 1.32, 6.47 2, 6.74 2.57 C7.01 3.15, 7.26 3.8, 7 4.41 C6.74 5.02, 5.91 5.97, 5.17 6.21 C4.44 6.45, 3.35 6.17, 2.58 5.88 C1.82 5.58, 1.08 5.05, 0.6 4.44 C0.13 3.82, -0.39 2.75, -0.28 2.18 C-0.17 1.61, 0.56 1.35, 1.25 1.02 C1.95 0.69, 3.47 0.38, 3.87 0.19 C4.27 -0.01, 3.79 -0.11, 3.66 -0.14" stroke="#343a40" stroke-width="2" fill="none"></path></g><g stroke-opacity="0.8" fill-opacity="0.8" stroke-linecap="round" transform="translate(260.68961866655127 348.9347715391939) rotate(0 3.481567740579976 3.0463717730074222)"><path d="M3.32 -0.09 C4.03 -0.1, 5.14 0.08, 5.74 0.55 C6.33 1.03, 6.75 2.11, 6.87 2.76 C6.99 3.4, 6.78 3.87, 6.44 4.44 C6.1 5.02, 5.5 5.91, 4.83 6.19 C4.15 6.46, 3.17 6.31, 2.39 6.07 C1.61 5.84, 0.54 5.35, 0.13 4.78 C-0.29 4.2, -0.26 3.3, -0.09 2.63 C0.08 1.95, 0.55 1.23, 1.15 0.75 C1.75 0.26, 3.06 -0.15, 3.5 -0.3 C3.95 -0.46, 3.76 -0.23, 3.83 -0.17 M2.69 0.24 C3.34 0.22, 4.12 0.42, 4.88 0.76 C5.64 1.09, 6.9 1.63, 7.27 2.25 C7.64 2.88, 7.51 3.88, 7.08 4.51 C6.66 5.13, 5.42 5.67, 4.73 5.99 C4.03 6.32, 3.54 6.64, 2.92 6.45 C2.29 6.26, 1.39 5.5, 0.97 4.85 C0.56 4.19, 0.38 3.23, 0.43 2.51 C0.47 1.79, 0.85 0.88, 1.23 0.53 C1.62 0.18, 2.42 0.52, 2.76 0.41 C3.11 0.3, 3.17 -0.04, 3.3 -0.12" stroke="none" stroke-width="0" fill="#e9ecef"></path><path d="M3.2 -0.27 C3.91 -0.27, 5.05 0.38, 5.72 0.85 C6.38 1.33, 7.04 2, 7.21 2.59 C7.37 3.18, 7.15 3.87, 6.7 4.39 C6.24 4.91, 5.25 5.41, 4.49 5.72 C3.74 6.03, 2.83 6.38, 2.19 6.25 C1.55 6.12, 0.97 5.57, 0.65 4.93 C0.34 4.29, 0.23 3.1, 0.29 2.43 C0.35 1.76, 0.44 1.31, 0.99 0.92 C1.54 0.52, 3.1 0.2, 3.58 0.08 C4.07 -0.05, 3.95 0.09, 3.9 0.16 M3.96 0.09 C4.75 0.19, 5.91 0.77, 6.38 1.23 C6.84 1.69, 6.72 2.25, 6.76 2.82 C6.8 3.4, 6.95 4.08, 6.62 4.66 C6.29 5.24, 5.5 6.13, 4.79 6.3 C4.07 6.47, 3.16 6.08, 2.34 5.68 C1.53 5.27, 0.26 4.45, -0.11 3.89 C-0.47 3.33, -0.07 2.82, 0.16 2.33 C0.38 1.84, 0.65 1.35, 1.25 0.95 C1.85 0.54, 3.38 0.06, 3.77 -0.12 C4.17 -0.29, 3.55 -0.13, 3.63 -0.1" stroke="#343a40" stroke-width="2" fill="none"></path></g><g stroke-opacity="0.8" fill-opacity="0.8" stroke-linecap="round" transform="translate(269.68961866655127 336.9347715391939) rotate(0 3.481567740579976 3.0463717730074222)"><path d="M4.04 0.05 C4.74 0.07, 5.26 0.48, 5.75 0.98 C6.23 1.48, 6.83 2.35, 6.97 3.05 C7.1 3.75, 7.04 4.67, 6.55 5.19 C6.05 5.7, 4.8 6.01, 4 6.16 C3.2 6.3, 2.4 6.3, 1.77 6.03 C1.14 5.76, 0.49 5.2, 0.23 4.53 C-0.02 3.86, 0.03 2.67, 0.26 2.02 C0.5 1.36, 0.98 0.92, 1.64 0.58 C2.29 0.24, 3.82 0.12, 4.2 -0.01 C4.57 -0.13, 3.92 -0.22, 3.89 -0.16 M3.3 0.26 C4.07 0.3, 5.3 0.61, 5.91 0.9 C6.53 1.18, 6.96 1.33, 7 2 C7.05 2.67, 6.6 4.22, 6.19 4.92 C5.78 5.61, 5.14 6.07, 4.54 6.19 C3.93 6.31, 3.24 5.87, 2.56 5.64 C1.89 5.42, 0.94 5.32, 0.47 4.82 C0 4.33, -0.4 3.41, -0.26 2.66 C-0.12 1.9, 0.67 0.68, 1.31 0.3 C1.96 -0.09, 3.31 0.4, 3.62 0.34 C3.92 0.28, 3.11 -0.03, 3.15 -0.05" stroke="none" stroke-width="0" fill="#e9ecef"></path><path d="M3.66 -0.03 C4.37 -0.04, 4.96 0.45, 5.55 0.89 C6.13 1.34, 6.98 2.08, 7.17 2.63 C7.36 3.19, 7.06 3.71, 6.69 4.23 C6.31 4.75, 5.64 5.49, 4.93 5.75 C4.23 6.01, 3.19 6, 2.46 5.79 C1.72 5.59, 0.99 5.03, 0.53 4.52 C0.08 4.01, -0.33 3.33, -0.26 2.75 C-0.18 2.17, 0.41 1.56, 0.99 1.06 C1.58 0.55, 2.83 -0.06, 3.24 -0.26 C3.65 -0.46, 3.43 -0.27, 3.44 -0.15 M3.06 0.42 C3.75 0.15, 4.91 -0.23, 5.57 0.07 C6.23 0.37, 6.75 1.52, 7.02 2.24 C7.28 2.96, 7.48 3.74, 7.17 4.39 C6.85 5.04, 5.91 5.8, 5.12 6.13 C4.33 6.46, 3.22 6.6, 2.42 6.36 C1.62 6.12, 0.66 5.22, 0.32 4.7 C-0.02 4.18, 0.33 3.79, 0.39 3.26 C0.44 2.73, 0.29 1.97, 0.64 1.51 C1 1.05, 2.07 0.71, 2.52 0.5 C2.97 0.28, 3.31 0.3, 3.34 0.22" stroke="#343a40" stroke-width="2" fill="none"></path></g><g stroke-opacity="0.8" fill-opacity="0.8" stroke-linecap="round" transform="translate(291.68961866655127 258.9347715391939) rotate(0 3.481567740579976 3.0463717730074222)"><path d="M3.52 0.29 C4.19 0.38, 5.18 0.7, 5.77 1.08 C6.37 1.46, 6.98 1.92, 7.07 2.56 C7.16 3.19, 6.8 4.32, 6.33 4.89 C5.85 5.47, 4.92 5.92, 4.22 6.02 C3.52 6.12, 2.75 5.75, 2.13 5.51 C1.51 5.27, 0.86 5.14, 0.49 4.59 C0.13 4.04, -0.26 2.89, -0.05 2.21 C0.17 1.52, 1.16 0.79, 1.78 0.48 C2.4 0.16, 3.25 0.4, 3.65 0.32 C4.05 0.24, 4.19 0.05, 4.2 0 M3.42 -0.19 C4.1 -0.3, 4.62 0.58, 5.22 0.89 C5.82 1.19, 6.82 1.12, 7.01 1.65 C7.19 2.17, 6.66 3.43, 6.32 4.04 C5.98 4.66, 5.58 4.99, 4.99 5.36 C4.4 5.73, 3.42 6.28, 2.79 6.27 C2.15 6.27, 1.56 5.94, 1.18 5.31 C0.8 4.69, 0.59 3.19, 0.5 2.53 C0.41 1.87, 0.13 1.82, 0.61 1.37 C1.09 0.93, 3.04 0.1, 3.39 -0.13 C3.75 -0.37, 2.89 -0.05, 2.75 -0.06" stroke="none" stroke-width="0" fill="#e9ecef"></path><path d="M3.35 0.19 C4.02 0.1, 4.81 0.41, 5.35 0.78 C5.88 1.14, 6.37 1.82, 6.55 2.37 C6.72 2.92, 6.59 3.47, 6.38 4.06 C6.18 4.66, 5.95 5.56, 5.32 5.94 C4.68 6.32, 3.37 6.45, 2.55 6.32 C1.74 6.2, 0.81 5.74, 0.42 5.18 C0.04 4.62, 0.21 3.7, 0.27 2.96 C0.32 2.22, 0.2 1.26, 0.73 0.75 C1.27 0.25, 3.03 0.1, 3.5 -0.05 C3.96 -0.21, 3.56 -0.24, 3.54 -0.16 M3.53 0.22 C4.39 0.26, 5.69 0.75, 6.19 1.17 C6.7 1.6, 6.53 2.11, 6.55 2.75 C6.57 3.4, 6.64 4.41, 6.31 5.02 C5.98 5.62, 5.23 6.27, 4.58 6.38 C3.94 6.5, 3.09 5.99, 2.41 5.71 C1.73 5.43, 0.85 5.23, 0.5 4.68 C0.16 4.14, 0.27 3.16, 0.36 2.43 C0.44 1.7, 0.47 0.69, 1 0.3 C1.54 -0.09, 3.16 0.13, 3.57 0.07 C3.97 0.01, 3.51 -0.06, 3.44 -0.04" stroke="#343a40" stroke-width="2" fill="none"></path></g><g stroke-opacity="0.8" fill-opacity="0.8" stroke-linecap="round" transform="translate(296.68961866655127 188.9347715391939) rotate(0 3.481567740579976 3.0463717730074222)"><path d="M3.14 0.18 C3.87 0.1, 4.72 0.5, 5.37 0.79 C6.02 1.09, 6.81 1.38, 7.02 1.93 C7.22 2.48, 6.88 3.47, 6.61 4.1 C6.35 4.74, 6 5.42, 5.4 5.75 C4.8 6.08, 3.82 6.24, 3.03 6.09 C2.25 5.94, 1.14 5.4, 0.68 4.84 C0.21 4.28, 0.24 3.32, 0.24 2.72 C0.24 2.12, 0.22 1.7, 0.69 1.25 C1.16 0.81, 2.69 0.24, 3.07 0.06 C3.44 -0.13, 2.91 0.1, 2.94 0.13 M3.15 0.17 C3.89 0.17, 4.86 0.48, 5.52 0.89 C6.17 1.31, 6.85 2.13, 7.08 2.66 C7.32 3.18, 7.28 3.5, 6.92 4.04 C6.55 4.58, 5.59 5.49, 4.91 5.89 C4.23 6.29, 3.56 6.62, 2.84 6.42 C2.12 6.21, 1.11 5.2, 0.59 4.64 C0.07 4.08, -0.3 3.75, -0.28 3.07 C-0.26 2.38, 0.18 0.98, 0.7 0.53 C1.22 0.09, 2.47 0.54, 2.85 0.42 C3.24 0.3, 2.84 -0.23, 2.99 -0.19" stroke="none" stroke-width="0" fill="#e9ecef"></path><path d="M4.34 0.3 C5.05 0.37, 5.64 0.52, 6.04 0.92 C6.43 1.32, 6.68 2, 6.71 2.71 C6.74 3.41, 6.58 4.64, 6.2 5.17 C5.82 5.7, 5.18 5.75, 4.44 5.89 C3.69 6.03, 2.41 6.34, 1.73 6 C1.05 5.66, 0.68 4.51, 0.38 3.84 C0.08 3.17, -0.28 2.58, -0.07 1.97 C0.13 1.36, 0.9 0.48, 1.6 0.19 C2.29 -0.11, 3.62 0.18, 4.09 0.21 C4.56 0.24, 4.37 0.39, 4.41 0.36 M3.01 -0.21 C3.64 -0.45, 4.77 -0.34, 5.33 0.1 C5.89 0.54, 6.08 1.82, 6.36 2.45 C6.64 3.07, 7.24 3.32, 7.01 3.84 C6.77 4.36, 5.66 5.16, 4.94 5.59 C4.21 6.01, 3.36 6.52, 2.66 6.4 C1.95 6.28, 1.11 5.41, 0.72 4.86 C0.34 4.31, 0.38 3.79, 0.36 3.09 C0.35 2.38, 0.12 1.2, 0.63 0.63 C1.14 0.06, 3.03 -0.26, 3.42 -0.33 C3.81 -0.39, 2.98 0.16, 2.95 0.24" stroke="#343a40" stroke-width="2" fill="none"></path></g><g stroke-opacity="0.8" fill-opacity="0.8" stroke-linecap="round" transform="translate(294.68961866655127 111.93477153919389) rotate(0 3.481567740579976 3.0463717730074222)"><path d="M4.25 0.3 C5.01 0.32, 5.81 0.32, 6.21 0.73 C6.61 1.13, 6.7 1.98, 6.65 2.73 C6.61 3.48, 6.32 4.73, 5.94 5.23 C5.56 5.73, 5.07 5.68, 4.39 5.74 C3.71 5.81, 2.59 5.9, 1.86 5.61 C1.14 5.33, 0.3 4.62, 0.06 4.01 C-0.19 3.4, 0.11 2.55, 0.38 1.93 C0.65 1.32, 1.08 0.7, 1.7 0.33 C2.32 -0.04, 3.66 -0.23, 4.1 -0.29 C4.54 -0.35, 4.4 -0.13, 4.33 -0.02 M3.01 0.34 C3.78 0.37, 5.16 0.66, 5.8 0.98 C6.43 1.29, 6.67 1.73, 6.84 2.23 C7 2.74, 7.12 3.4, 6.78 4.02 C6.44 4.63, 5.56 5.55, 4.8 5.93 C4.03 6.31, 2.97 6.52, 2.18 6.32 C1.39 6.11, 0.51 5.35, 0.07 4.68 C-0.36 4.02, -0.66 2.92, -0.41 2.33 C-0.16 1.74, 0.98 1.57, 1.55 1.16 C2.13 0.75, 2.71 0.06, 3.03 -0.13 C3.34 -0.32, 3.36 -0.06, 3.45 0.02" stroke="none" stroke-width="0" fill="#e9ecef"></path><path d="M3.1 -0.08 C3.79 -0.22, 4.64 0.09, 5.22 0.43 C5.8 0.78, 6.32 1.34, 6.57 1.99 C6.82 2.65, 6.97 3.72, 6.74 4.35 C6.51 4.98, 5.82 5.46, 5.19 5.77 C4.56 6.08, 3.76 6.38, 2.98 6.22 C2.19 6.05, 0.98 5.29, 0.46 4.78 C-0.05 4.28, -0.2 3.78, -0.12 3.19 C-0.04 2.61, 0.4 1.81, 0.95 1.28 C1.51 0.74, 2.85 0.15, 3.22 -0.01 C3.59 -0.18, 3.21 0.29, 3.18 0.31 M3.64 0.11 C4.39 0.12, 5.71 0.42, 6.24 0.85 C6.77 1.28, 6.84 2.03, 6.82 2.68 C6.79 3.33, 6.49 4.21, 6.09 4.76 C5.68 5.3, 5.04 5.75, 4.38 5.95 C3.72 6.15, 2.76 6.18, 2.12 5.94 C1.48 5.71, 0.93 5.15, 0.54 4.53 C0.14 3.9, -0.42 2.8, -0.23 2.19 C-0.04 1.58, 0.89 1.21, 1.67 0.86 C2.45 0.5, 4.05 0.24, 4.42 0.07 C4.8 -0.11, 3.92 -0.19, 3.9 -0.22" stroke="#343a40" stroke-width="2" fill="none"></path></g></svg>